%TF.GenerationSoftware,KiCad,Pcbnew,9.0.3*%
%TF.CreationDate,2025-10-08T16:43:24+01:00*%
%TF.ProjectId,power_bank,706f7765-725f-4626-916e-6b2e6b696361,rev?*%
%TF.SameCoordinates,Original*%
%TF.FileFunction,Copper,L2,Inr*%
%TF.FilePolarity,Positive*%
%FSLAX46Y46*%
G04 Gerber Fmt 4.6, Leading zero omitted, Abs format (unit mm)*
G04 Created by KiCad (PCBNEW 9.0.3) date 2025-10-08 16:43:24*
%MOMM*%
%LPD*%
G01*
G04 APERTURE LIST*
%TA.AperFunction,ComponentPad*%
%ADD10C,3.800000*%
%TD*%
%TA.AperFunction,HeatsinkPad*%
%ADD11O,1.800000X1.150000*%
%TD*%
%TA.AperFunction,HeatsinkPad*%
%ADD12O,2.000000X1.450000*%
%TD*%
%TA.AperFunction,ComponentPad*%
%ADD13R,1.200000X1.200000*%
%TD*%
%TA.AperFunction,ComponentPad*%
%ADD14C,1.200000*%
%TD*%
%TA.AperFunction,HeatsinkPad*%
%ADD15O,1.900000X3.500000*%
%TD*%
%TA.AperFunction,ComponentPad*%
%ADD16R,1.800000X1.800000*%
%TD*%
%TA.AperFunction,ComponentPad*%
%ADD17C,1.800000*%
%TD*%
%TA.AperFunction,HeatsinkPad*%
%ADD18O,1.000000X2.100000*%
%TD*%
%TA.AperFunction,HeatsinkPad*%
%ADD19O,1.000000X1.600000*%
%TD*%
%TA.AperFunction,ViaPad*%
%ADD20C,1.000000*%
%TD*%
%TA.AperFunction,ViaPad*%
%ADD21C,0.600000*%
%TD*%
%TA.AperFunction,ViaPad*%
%ADD22C,1.200000*%
%TD*%
%TA.AperFunction,ViaPad*%
%ADD23C,0.500000*%
%TD*%
G04 APERTURE END LIST*
D10*
%TO.N,GND*%
%TO.C,H2*%
X93530000Y-117160000D03*
%TD*%
D11*
%TO.N,GND*%
%TO.C,J4*%
X143185000Y-113510000D03*
D12*
X139385000Y-113360000D03*
X139385000Y-105910000D03*
D11*
X143185000Y-105760000D03*
%TD*%
D13*
%TO.N,VSYS*%
%TO.C,C1*%
X124180000Y-104490000D03*
D14*
%TO.N,GND*%
X129180000Y-104490000D03*
%TD*%
D10*
%TO.N,GND*%
%TO.C,H1*%
X140640000Y-117310000D03*
%TD*%
D15*
%TO.N,GND*%
%TO.C,J1*%
X109020000Y-117070000D03*
X97620000Y-117070000D03*
%TD*%
%TO.N,GND*%
%TO.C,J2*%
X136720000Y-116920000D03*
X125320000Y-116920000D03*
%TD*%
D16*
%TO.N,GND*%
%TO.C,D3*%
X141710000Y-97330000D03*
D17*
%TO.N,Net-(D3-A)*%
X139170000Y-97330000D03*
%TD*%
D18*
%TO.N,GND*%
%TO.C,J5*%
X112210000Y-114675000D03*
D19*
X112210000Y-118855000D03*
D18*
X120850000Y-114675000D03*
D19*
X120850000Y-118855000D03*
%TD*%
D20*
%TO.N,VSYS*%
X111340000Y-103300000D03*
X120340000Y-103260000D03*
D21*
%TO.N,GND*%
X99500000Y-118810000D03*
X99620000Y-117600000D03*
X103930000Y-111001000D03*
X97130000Y-100830000D03*
X127520000Y-115670000D03*
X120750000Y-107160000D03*
X141970000Y-102960000D03*
X107760000Y-103190000D03*
X136410000Y-105380000D03*
X129270000Y-100280000D03*
X99820000Y-115840000D03*
%TO.N,VBAT+*%
X123345000Y-99385000D03*
D22*
X92900000Y-102430000D03*
D21*
X95540000Y-110100000D03*
D22*
%TO.N,/POWER_SOC/ledx*%
X101870000Y-107970000D03*
X113290000Y-108460000D03*
D20*
%TO.N,VMID*%
X136960000Y-113920000D03*
D22*
X122980000Y-107520000D03*
D20*
X116341000Y-105891000D03*
X108990000Y-112300000D03*
D22*
X123460000Y-102800000D03*
D20*
X117460000Y-111210000D03*
X122890000Y-110730000D03*
D21*
%TO.N,VBUS*%
X127760000Y-110640000D03*
X119590000Y-96300000D03*
X119660000Y-109929000D03*
D23*
%TO.N,LED3*%
X112870000Y-107440000D03*
X108360000Y-106100000D03*
X108100000Y-98860000D03*
X108380000Y-107270000D03*
D21*
%TO.N,DMA1*%
X113760000Y-96571000D03*
X100750000Y-110920000D03*
X100750000Y-110920000D03*
X100750000Y-110920000D03*
%TO.N,DPA1*%
X112941002Y-96031000D03*
X98600000Y-111000000D03*
%TO.N,DMA2*%
X112600000Y-97900000D03*
X132120000Y-111510000D03*
%TO.N,DPA2*%
X111840000Y-98470000D03*
X111840000Y-98470000D03*
X130230000Y-111630000D03*
X111840000Y-98470000D03*
%TO.N,DPC*%
X116610000Y-111840000D03*
X106370000Y-101040000D03*
X106340000Y-107360000D03*
X106340000Y-105920000D03*
%TO.N,DMC*%
X111260000Y-100483775D03*
X115670000Y-111910000D03*
%TO.N,CC1*%
X111440000Y-99197862D03*
X115640000Y-110690000D03*
%TO.N,CC2*%
X105600000Y-100170000D03*
X105539997Y-105920000D03*
X108930000Y-110960000D03*
X105240000Y-107280000D03*
%TO.N,DMB*%
X131850000Y-108410000D03*
X112660000Y-109489000D03*
X122330000Y-108970000D03*
X134470000Y-108460000D03*
X109140000Y-108970000D03*
X140850000Y-110440000D03*
%TO.N,DPB*%
X140580000Y-109570000D03*
X110540000Y-102080000D03*
%TO.N,VING*%
X120760000Y-96540000D03*
X125910000Y-104690000D03*
%TO.N,VOUT2G*%
X116552851Y-95997809D03*
X131130000Y-111940000D03*
%TO.N,VOUT1G*%
X115740000Y-96020000D03*
X104120000Y-107410000D03*
%TO.N,VBUSG*%
X118740000Y-96430000D03*
X125210000Y-114210000D03*
X123210000Y-114400000D03*
D23*
%TO.N,LED1*%
X113030000Y-105930000D03*
X113030000Y-105930000D03*
X113030000Y-105930000D03*
X110010000Y-98550000D03*
%TO.N,LED2*%
X112980000Y-106660000D03*
X101900000Y-98680000D03*
D21*
%TO.N,VIN*%
X131010000Y-104500000D03*
X121900000Y-96310000D03*
D20*
X131850000Y-106820000D03*
%TO.N,VOUT2*%
X134990000Y-116790000D03*
D21*
X131960000Y-96350000D03*
X134560000Y-112290000D03*
X130740000Y-109900000D03*
X117194972Y-96474972D03*
%TO.N,VOUT1*%
X114790000Y-96350000D03*
D20*
X105230000Y-109770000D03*
D21*
X102360000Y-109470000D03*
%TD*%
%TA.AperFunction,Conductor*%
%TO.N,GND*%
G36*
X144054783Y-95499848D02*
G01*
X144100744Y-95552472D01*
X144112146Y-95603238D01*
X144199243Y-104701153D01*
X144180201Y-104768378D01*
X144127838Y-104814636D01*
X144058778Y-104825241D01*
X144018954Y-104812825D01*
X143922659Y-104763760D01*
X143761726Y-104711469D01*
X143594609Y-104685000D01*
X143435000Y-104685000D01*
X143435000Y-105485000D01*
X142935000Y-105485000D01*
X142935000Y-104685000D01*
X142775391Y-104685000D01*
X142608273Y-104711469D01*
X142447340Y-104763760D01*
X142296576Y-104840578D01*
X142159683Y-104940038D01*
X142159682Y-104940038D01*
X142040038Y-105059682D01*
X142040038Y-105059683D01*
X141940578Y-105196576D01*
X141863760Y-105347340D01*
X141811469Y-105508273D01*
X141811196Y-105510000D01*
X142744943Y-105510000D01*
X142704225Y-105526866D01*
X142626866Y-105604225D01*
X142585000Y-105705299D01*
X142585000Y-105814701D01*
X142626866Y-105915775D01*
X142704225Y-105993134D01*
X142744943Y-106010000D01*
X141811196Y-106010000D01*
X141811469Y-106011726D01*
X141863760Y-106172659D01*
X141940578Y-106323423D01*
X142040038Y-106460316D01*
X142040038Y-106460317D01*
X142159682Y-106579961D01*
X142296576Y-106679421D01*
X142447340Y-106756239D01*
X142608273Y-106808530D01*
X142775391Y-106835000D01*
X142935000Y-106835000D01*
X142935000Y-106035000D01*
X143435000Y-106035000D01*
X143435000Y-106835000D01*
X143594609Y-106835000D01*
X143761726Y-106808530D01*
X143922663Y-106756238D01*
X143922665Y-106756237D01*
X144039107Y-106696907D01*
X144107776Y-106684010D01*
X144172516Y-106710286D01*
X144212774Y-106767392D01*
X144219396Y-106806204D01*
X144273824Y-112491631D01*
X144254782Y-112558856D01*
X144202419Y-112605114D01*
X144133359Y-112615719D01*
X144076946Y-112593137D01*
X144073426Y-112590579D01*
X143922659Y-112513760D01*
X143761726Y-112461469D01*
X143594609Y-112435000D01*
X143435000Y-112435000D01*
X143435000Y-113235000D01*
X142935000Y-113235000D01*
X142935000Y-112435000D01*
X142775391Y-112435000D01*
X142608273Y-112461469D01*
X142447340Y-112513760D01*
X142296576Y-112590578D01*
X142159683Y-112690038D01*
X142159682Y-112690038D01*
X142040038Y-112809682D01*
X142040038Y-112809683D01*
X141940578Y-112946576D01*
X141863760Y-113097340D01*
X141811469Y-113258273D01*
X141811196Y-113260000D01*
X142744943Y-113260000D01*
X142704225Y-113276866D01*
X142626866Y-113354225D01*
X142585000Y-113455299D01*
X142585000Y-113564701D01*
X142626866Y-113665775D01*
X142704225Y-113743134D01*
X142744943Y-113760000D01*
X141811196Y-113760000D01*
X141811469Y-113761726D01*
X141863760Y-113922659D01*
X141940578Y-114073423D01*
X142040038Y-114210316D01*
X142040038Y-114210317D01*
X142159682Y-114329961D01*
X142296576Y-114429421D01*
X142447340Y-114506239D01*
X142608273Y-114558530D01*
X142775391Y-114585000D01*
X142935000Y-114585000D01*
X142935000Y-113785000D01*
X143435000Y-113785000D01*
X143435000Y-114585000D01*
X143594609Y-114585000D01*
X143761726Y-114558530D01*
X143922659Y-114506239D01*
X144073425Y-114429420D01*
X144096284Y-114412812D01*
X144162090Y-114389330D01*
X144230144Y-114405154D01*
X144278840Y-114455259D01*
X144293166Y-114511941D01*
X144312561Y-116537830D01*
X144311909Y-116551772D01*
X144277278Y-116886655D01*
X144275347Y-116899108D01*
X144205039Y-117237734D01*
X144201853Y-117249926D01*
X144097545Y-117579652D01*
X144093139Y-117591459D01*
X143955896Y-117908910D01*
X143950314Y-117920207D01*
X143781570Y-118222076D01*
X143774870Y-118232750D01*
X143576350Y-118515943D01*
X143568602Y-118525880D01*
X143342370Y-118787458D01*
X143333652Y-118796559D01*
X143082038Y-119033823D01*
X143072443Y-119041991D01*
X142798047Y-119252495D01*
X142787671Y-119259647D01*
X142493327Y-119441214D01*
X142482280Y-119447277D01*
X142171028Y-119598031D01*
X142159422Y-119602941D01*
X141834468Y-119721329D01*
X141822423Y-119725035D01*
X141487148Y-119809826D01*
X141474790Y-119812291D01*
X141132632Y-119862617D01*
X141120088Y-119863815D01*
X140770518Y-119879334D01*
X140765419Y-119879455D01*
X140764751Y-119879457D01*
X140702394Y-119879054D01*
X140700047Y-119879666D01*
X140689903Y-119879699D01*
X140689895Y-119879696D01*
X140689846Y-119879700D01*
X121765694Y-119932228D01*
X121698600Y-119912729D01*
X121652699Y-119860052D01*
X121642564Y-119790922D01*
X121662248Y-119739336D01*
X121736188Y-119628678D01*
X121736192Y-119628671D01*
X121811569Y-119446693D01*
X121811572Y-119446681D01*
X121849999Y-119253495D01*
X121850000Y-119253492D01*
X121850000Y-119105000D01*
X121150000Y-119105000D01*
X121150000Y-118605000D01*
X121850000Y-118605000D01*
X121850000Y-118456508D01*
X121849999Y-118456504D01*
X121811572Y-118263318D01*
X121811569Y-118263306D01*
X121736192Y-118081328D01*
X121736185Y-118081315D01*
X121626751Y-117917537D01*
X121626748Y-117917533D01*
X121487466Y-117778251D01*
X121487462Y-117778248D01*
X121323684Y-117668814D01*
X121323671Y-117668807D01*
X121141691Y-117593429D01*
X121141683Y-117593427D01*
X121100000Y-117585135D01*
X121100000Y-118388011D01*
X121090060Y-118370795D01*
X121034205Y-118314940D01*
X120965796Y-118275444D01*
X120889496Y-118255000D01*
X120810504Y-118255000D01*
X120734204Y-118275444D01*
X120665795Y-118314940D01*
X120609940Y-118370795D01*
X120600000Y-118388011D01*
X120600000Y-117585136D01*
X120599999Y-117585135D01*
X120558316Y-117593427D01*
X120558308Y-117593429D01*
X120376328Y-117668807D01*
X120376315Y-117668814D01*
X120212537Y-117778248D01*
X120212533Y-117778251D01*
X120073251Y-117917533D01*
X120073248Y-117917537D01*
X119963814Y-118081315D01*
X119963807Y-118081328D01*
X119888430Y-118263306D01*
X119888427Y-118263318D01*
X119850000Y-118456504D01*
X119850000Y-118605000D01*
X120550000Y-118605000D01*
X120550000Y-119105000D01*
X119850000Y-119105000D01*
X119850000Y-119253495D01*
X119888427Y-119446681D01*
X119888430Y-119446693D01*
X119963807Y-119628671D01*
X119963814Y-119628684D01*
X120041140Y-119744409D01*
X120062018Y-119811086D01*
X120043534Y-119878466D01*
X119991555Y-119925157D01*
X119938382Y-119937300D01*
X113109640Y-119956255D01*
X113042546Y-119936756D01*
X112996645Y-119884079D01*
X112986510Y-119814949D01*
X113006194Y-119763364D01*
X113096185Y-119628683D01*
X113096192Y-119628671D01*
X113171569Y-119446693D01*
X113171572Y-119446681D01*
X113209999Y-119253495D01*
X113210000Y-119253492D01*
X113210000Y-119105000D01*
X112510000Y-119105000D01*
X112510000Y-118605000D01*
X113210000Y-118605000D01*
X113210000Y-118456508D01*
X113209999Y-118456504D01*
X113171572Y-118263318D01*
X113171569Y-118263306D01*
X113096192Y-118081328D01*
X113096185Y-118081315D01*
X112986751Y-117917537D01*
X112986748Y-117917533D01*
X112847466Y-117778251D01*
X112847462Y-117778248D01*
X112683684Y-117668814D01*
X112683671Y-117668807D01*
X112501691Y-117593429D01*
X112501683Y-117593427D01*
X112460000Y-117585135D01*
X112460000Y-118388011D01*
X112450060Y-118370795D01*
X112394205Y-118314940D01*
X112325796Y-118275444D01*
X112249496Y-118255000D01*
X112170504Y-118255000D01*
X112094204Y-118275444D01*
X112025795Y-118314940D01*
X111969940Y-118370795D01*
X111960000Y-118388011D01*
X111960000Y-117585136D01*
X111959999Y-117585135D01*
X111918316Y-117593427D01*
X111918308Y-117593429D01*
X111736328Y-117668807D01*
X111736315Y-117668814D01*
X111572537Y-117778248D01*
X111572533Y-117778251D01*
X111433251Y-117917533D01*
X111433248Y-117917537D01*
X111323814Y-118081315D01*
X111323807Y-118081328D01*
X111248430Y-118263306D01*
X111248427Y-118263318D01*
X111210000Y-118456504D01*
X111210000Y-118605000D01*
X111910000Y-118605000D01*
X111910000Y-119105000D01*
X111210000Y-119105000D01*
X111210000Y-119253495D01*
X111248427Y-119446681D01*
X111248430Y-119446693D01*
X111323807Y-119628671D01*
X111323814Y-119628684D01*
X111417135Y-119768347D01*
X111438013Y-119835024D01*
X111419529Y-119902404D01*
X111367550Y-119949095D01*
X111314377Y-119961238D01*
X94680207Y-120007412D01*
X94680195Y-120007412D01*
X94670860Y-120007436D01*
X94669381Y-120007055D01*
X94606147Y-120007610D01*
X94605832Y-120007611D01*
X94605770Y-120007593D01*
X94600468Y-120007509D01*
X94230559Y-119992484D01*
X94218363Y-119991383D01*
X93854830Y-119940381D01*
X93842803Y-119938084D01*
X93486051Y-119851472D01*
X93474309Y-119847999D01*
X93127848Y-119726627D01*
X93116506Y-119722013D01*
X92783707Y-119567063D01*
X92772875Y-119561353D01*
X92456969Y-119374328D01*
X92446761Y-119367582D01*
X92150850Y-119150319D01*
X92141355Y-119142598D01*
X91868306Y-118897203D01*
X91859618Y-118888583D01*
X91735862Y-118753020D01*
X91612112Y-118617463D01*
X91604313Y-118608024D01*
X91384744Y-118313802D01*
X91377915Y-118303639D01*
X91278905Y-118139333D01*
X91188442Y-117989211D01*
X91182659Y-117978445D01*
X91025109Y-117646837D01*
X91020409Y-117635536D01*
X91005342Y-117593578D01*
X90896341Y-117290028D01*
X90892779Y-117278318D01*
X90803390Y-116922252D01*
X90801003Y-116910268D01*
X90747166Y-116547107D01*
X90745972Y-116534924D01*
X90728216Y-116168242D01*
X90728228Y-116156015D01*
X90728235Y-116155883D01*
X96170000Y-116155883D01*
X96170000Y-116820000D01*
X97170000Y-116820000D01*
X97170000Y-117320000D01*
X96170000Y-117320000D01*
X96170000Y-117984116D01*
X96205704Y-118209544D01*
X96276230Y-118426604D01*
X96379849Y-118629966D01*
X96514004Y-118814614D01*
X96675385Y-118975995D01*
X96860033Y-119110150D01*
X97063395Y-119213769D01*
X97280455Y-119284295D01*
X97370000Y-119298478D01*
X97370000Y-118245277D01*
X97446306Y-118289333D01*
X97560756Y-118320000D01*
X97679244Y-118320000D01*
X97793694Y-118289333D01*
X97870000Y-118245277D01*
X97870000Y-119298477D01*
X97959544Y-119284295D01*
X98176604Y-119213769D01*
X98379966Y-119110150D01*
X98564614Y-118975995D01*
X98725995Y-118814614D01*
X98860150Y-118629966D01*
X98963769Y-118426604D01*
X99034295Y-118209544D01*
X99070000Y-117984116D01*
X99070000Y-117320000D01*
X98070000Y-117320000D01*
X98070000Y-117138995D01*
X100319499Y-117138995D01*
X100346418Y-117274322D01*
X100346421Y-117274332D01*
X100399221Y-117401804D01*
X100399228Y-117401817D01*
X100475885Y-117516541D01*
X100475888Y-117516545D01*
X100573454Y-117614111D01*
X100573458Y-117614114D01*
X100688182Y-117690771D01*
X100688195Y-117690778D01*
X100815667Y-117743578D01*
X100815672Y-117743580D01*
X100815676Y-117743580D01*
X100815677Y-117743581D01*
X100951004Y-117770500D01*
X100951007Y-117770500D01*
X101088995Y-117770500D01*
X101181752Y-117752049D01*
X101224328Y-117743580D01*
X101351811Y-117690775D01*
X101466542Y-117614114D01*
X101564114Y-117516542D01*
X101640775Y-117401811D01*
X101693580Y-117274328D01*
X101713446Y-117174457D01*
X101720500Y-117138995D01*
X104919499Y-117138995D01*
X104946418Y-117274322D01*
X104946421Y-117274332D01*
X104999221Y-117401804D01*
X104999228Y-117401817D01*
X105075885Y-117516541D01*
X105075888Y-117516545D01*
X105173454Y-117614111D01*
X105173458Y-117614114D01*
X105288182Y-117690771D01*
X105288195Y-117690778D01*
X105415667Y-117743578D01*
X105415672Y-117743580D01*
X105415676Y-117743580D01*
X105415677Y-117743581D01*
X105551004Y-117770500D01*
X105551007Y-117770500D01*
X105688995Y-117770500D01*
X105781752Y-117752049D01*
X105824328Y-117743580D01*
X105951811Y-117690775D01*
X106066542Y-117614114D01*
X106164114Y-117516542D01*
X106240775Y-117401811D01*
X106293580Y-117274328D01*
X106320500Y-117138993D01*
X106320500Y-117001007D01*
X106320500Y-117001004D01*
X106293581Y-116865677D01*
X106293580Y-116865676D01*
X106293580Y-116865672D01*
X106262895Y-116791591D01*
X106240778Y-116738195D01*
X106240771Y-116738182D01*
X106164114Y-116623458D01*
X106164111Y-116623454D01*
X106066545Y-116525888D01*
X106066541Y-116525885D01*
X105951817Y-116449228D01*
X105951804Y-116449221D01*
X105824332Y-116396421D01*
X105824322Y-116396418D01*
X105688995Y-116369500D01*
X105688993Y-116369500D01*
X105551007Y-116369500D01*
X105551005Y-116369500D01*
X105415677Y-116396418D01*
X105415667Y-116396421D01*
X105288195Y-116449221D01*
X105288182Y-116449228D01*
X105173458Y-116525885D01*
X105173454Y-116525888D01*
X105075888Y-116623454D01*
X105075885Y-116623458D01*
X104999228Y-116738182D01*
X104999221Y-116738195D01*
X104946421Y-116865667D01*
X104946418Y-116865677D01*
X104919500Y-117001004D01*
X104919500Y-117001007D01*
X104919500Y-117138993D01*
X104919500Y-117138995D01*
X104919499Y-117138995D01*
X101720500Y-117138995D01*
X101720500Y-117001004D01*
X101693581Y-116865677D01*
X101693580Y-116865676D01*
X101693580Y-116865672D01*
X101662895Y-116791591D01*
X101640778Y-116738195D01*
X101640771Y-116738182D01*
X101564114Y-116623458D01*
X101564111Y-116623454D01*
X101466545Y-116525888D01*
X101466541Y-116525885D01*
X101351817Y-116449228D01*
X101351804Y-116449221D01*
X101224332Y-116396421D01*
X101224322Y-116396418D01*
X101088995Y-116369500D01*
X101088993Y-116369500D01*
X100951007Y-116369500D01*
X100951005Y-116369500D01*
X100815677Y-116396418D01*
X100815667Y-116396421D01*
X100688195Y-116449221D01*
X100688182Y-116449228D01*
X100573458Y-116525885D01*
X100573454Y-116525888D01*
X100475888Y-116623454D01*
X100475885Y-116623458D01*
X100399228Y-116738182D01*
X100399221Y-116738195D01*
X100346421Y-116865667D01*
X100346418Y-116865677D01*
X100319500Y-117001004D01*
X100319500Y-117001007D01*
X100319500Y-117138993D01*
X100319500Y-117138995D01*
X100319499Y-117138995D01*
X98070000Y-117138995D01*
X98070000Y-116820000D01*
X99070000Y-116820000D01*
X99070000Y-116155883D01*
X107570000Y-116155883D01*
X107570000Y-116820000D01*
X108570000Y-116820000D01*
X108570000Y-117320000D01*
X107570000Y-117320000D01*
X107570000Y-117984116D01*
X107605704Y-118209544D01*
X107676230Y-118426604D01*
X107779849Y-118629966D01*
X107914004Y-118814614D01*
X108075385Y-118975995D01*
X108260033Y-119110150D01*
X108463395Y-119213769D01*
X108680455Y-119284295D01*
X108770000Y-119298478D01*
X108770000Y-118245277D01*
X108846306Y-118289333D01*
X108960756Y-118320000D01*
X109079244Y-118320000D01*
X109193694Y-118289333D01*
X109270000Y-118245277D01*
X109270000Y-119298477D01*
X109359544Y-119284295D01*
X109576604Y-119213769D01*
X109779966Y-119110150D01*
X109964614Y-118975995D01*
X110125995Y-118814614D01*
X110260150Y-118629966D01*
X110363770Y-118426601D01*
X110368484Y-118412097D01*
X110434295Y-118209544D01*
X110470000Y-117984116D01*
X110470000Y-117320000D01*
X109470000Y-117320000D01*
X109470000Y-116820000D01*
X110470000Y-116820000D01*
X110470000Y-116155883D01*
X110434295Y-115930455D01*
X110363769Y-115713395D01*
X110260150Y-115510033D01*
X110125995Y-115325385D01*
X109964614Y-115164004D01*
X109779966Y-115029849D01*
X109690224Y-114984123D01*
X109576602Y-114926229D01*
X109359541Y-114855703D01*
X109270000Y-114841521D01*
X109270000Y-115894722D01*
X109193694Y-115850667D01*
X109079244Y-115820000D01*
X108960756Y-115820000D01*
X108846306Y-115850667D01*
X108770000Y-115894722D01*
X108770000Y-114841521D01*
X108769999Y-114841521D01*
X108680458Y-114855703D01*
X108463397Y-114926229D01*
X108260033Y-115029849D01*
X108075385Y-115164004D01*
X107914004Y-115325385D01*
X107779849Y-115510033D01*
X107676230Y-115713395D01*
X107605704Y-115930455D01*
X107570000Y-116155883D01*
X99070000Y-116155883D01*
X99034295Y-115930455D01*
X98963769Y-115713395D01*
X98860150Y-115510033D01*
X98725995Y-115325385D01*
X98564614Y-115164004D01*
X98379966Y-115029849D01*
X98176602Y-114926229D01*
X97959541Y-114855703D01*
X97870000Y-114841521D01*
X97870000Y-115894722D01*
X97793694Y-115850667D01*
X97679244Y-115820000D01*
X97560756Y-115820000D01*
X97446306Y-115850667D01*
X97370000Y-115894722D01*
X97370000Y-114841521D01*
X97369999Y-114841521D01*
X97280458Y-114855703D01*
X97063397Y-114926229D01*
X96860033Y-115029849D01*
X96675385Y-115164004D01*
X96514004Y-115325385D01*
X96379849Y-115510033D01*
X96276230Y-115713395D01*
X96205704Y-115930455D01*
X96170000Y-116155883D01*
X90728235Y-116155883D01*
X90744737Y-115828725D01*
X90744878Y-115826390D01*
X90745726Y-115814256D01*
X90749298Y-115801125D01*
X90749445Y-115761106D01*
X90749731Y-115757021D01*
X90749874Y-115756634D01*
X90750046Y-115753318D01*
X90752909Y-115724728D01*
X90753615Y-115717683D01*
X90751356Y-115703861D01*
X90749733Y-115683402D01*
X90749855Y-115650500D01*
X90755859Y-114026504D01*
X111210000Y-114026504D01*
X111210000Y-114425000D01*
X111910000Y-114425000D01*
X111910000Y-114925000D01*
X111210000Y-114925000D01*
X111210000Y-115323495D01*
X111248427Y-115516681D01*
X111248430Y-115516693D01*
X111323807Y-115698671D01*
X111323814Y-115698684D01*
X111433248Y-115862462D01*
X111433251Y-115862466D01*
X111572533Y-116001748D01*
X111572537Y-116001751D01*
X111736315Y-116111185D01*
X111736328Y-116111192D01*
X111918308Y-116186569D01*
X111960000Y-116194862D01*
X111960000Y-115391988D01*
X111969940Y-115409205D01*
X112025795Y-115465060D01*
X112094204Y-115504556D01*
X112170504Y-115525000D01*
X112249496Y-115525000D01*
X112325796Y-115504556D01*
X112394205Y-115465060D01*
X112450060Y-115409205D01*
X112460000Y-115391988D01*
X112460000Y-116194862D01*
X112501690Y-116186569D01*
X112501692Y-116186569D01*
X112683671Y-116111192D01*
X112683684Y-116111185D01*
X112847462Y-116001751D01*
X112847466Y-116001748D01*
X112986748Y-115862466D01*
X112986751Y-115862462D01*
X113096185Y-115698684D01*
X113096187Y-115698680D01*
X113140871Y-115590802D01*
X113184712Y-115536399D01*
X113251006Y-115514333D01*
X113318705Y-115531612D01*
X113343114Y-115550573D01*
X113348036Y-115555495D01*
X113456464Y-115618095D01*
X113577399Y-115650500D01*
X113577401Y-115650500D01*
X113702599Y-115650500D01*
X113702601Y-115650500D01*
X113823536Y-115618095D01*
X113931964Y-115555495D01*
X114020495Y-115466964D01*
X114083095Y-115358536D01*
X114115500Y-115237601D01*
X114115500Y-115112399D01*
X118944500Y-115112399D01*
X118944500Y-115237601D01*
X118976905Y-115358536D01*
X119039505Y-115466964D01*
X119128036Y-115555495D01*
X119236464Y-115618095D01*
X119357399Y-115650500D01*
X119357401Y-115650500D01*
X119482599Y-115650500D01*
X119482601Y-115650500D01*
X119603536Y-115618095D01*
X119711964Y-115555495D01*
X119716883Y-115550575D01*
X119778202Y-115517089D01*
X119847894Y-115522070D01*
X119903830Y-115563939D01*
X119919127Y-115590802D01*
X119963807Y-115698671D01*
X119963814Y-115698684D01*
X120073248Y-115862462D01*
X120073251Y-115862466D01*
X120212533Y-116001748D01*
X120212537Y-116001751D01*
X120376315Y-116111185D01*
X120376328Y-116111192D01*
X120558308Y-116186569D01*
X120600000Y-116194862D01*
X120600000Y-115391988D01*
X120609940Y-115409205D01*
X120665795Y-115465060D01*
X120734204Y-115504556D01*
X120810504Y-115525000D01*
X120889496Y-115525000D01*
X120965796Y-115504556D01*
X121034205Y-115465060D01*
X121090060Y-115409205D01*
X121100000Y-115391988D01*
X121100000Y-116194862D01*
X121141690Y-116186569D01*
X121141692Y-116186569D01*
X121323671Y-116111192D01*
X121323684Y-116111185D01*
X121481278Y-116005883D01*
X123870000Y-116005883D01*
X123870000Y-116670000D01*
X124870000Y-116670000D01*
X124870000Y-117170000D01*
X123870000Y-117170000D01*
X123870000Y-117834116D01*
X123905704Y-118059544D01*
X123976230Y-118276604D01*
X124079849Y-118479966D01*
X124214004Y-118664614D01*
X124375385Y-118825995D01*
X124560033Y-118960150D01*
X124763395Y-119063769D01*
X124980455Y-119134295D01*
X125070000Y-119148478D01*
X125070000Y-118095277D01*
X125146306Y-118139333D01*
X125260756Y-118170000D01*
X125379244Y-118170000D01*
X125493694Y-118139333D01*
X125570000Y-118095277D01*
X125570000Y-119148477D01*
X125659544Y-119134295D01*
X125876604Y-119063769D01*
X126079966Y-118960150D01*
X126264614Y-118825995D01*
X126425995Y-118664614D01*
X126560150Y-118479966D01*
X126663769Y-118276604D01*
X126734295Y-118059544D01*
X126770000Y-117834116D01*
X126770000Y-117170000D01*
X125770000Y-117170000D01*
X125770000Y-116988995D01*
X128019499Y-116988995D01*
X128046418Y-117124322D01*
X128046421Y-117124332D01*
X128099221Y-117251804D01*
X128099228Y-117251817D01*
X128175885Y-117366541D01*
X128175888Y-117366545D01*
X128273454Y-117464111D01*
X128273458Y-117464114D01*
X128388182Y-117540771D01*
X128388195Y-117540778D01*
X128515307Y-117593429D01*
X128515672Y-117593580D01*
X128515676Y-117593580D01*
X128515677Y-117593581D01*
X128651004Y-117620500D01*
X128651007Y-117620500D01*
X128788995Y-117620500D01*
X128880041Y-117602389D01*
X128924328Y-117593580D01*
X129051811Y-117540775D01*
X129166542Y-117464114D01*
X129264114Y-117366542D01*
X129340775Y-117251811D01*
X129393580Y-117124328D01*
X129402389Y-117080041D01*
X129420500Y-116988995D01*
X132619499Y-116988995D01*
X132646418Y-117124322D01*
X132646421Y-117124332D01*
X132699221Y-117251804D01*
X132699228Y-117251817D01*
X132775885Y-117366541D01*
X132775888Y-117366545D01*
X132873454Y-117464111D01*
X132873458Y-117464114D01*
X132988182Y-117540771D01*
X132988195Y-117540778D01*
X133115307Y-117593429D01*
X133115672Y-117593580D01*
X133115676Y-117593580D01*
X133115677Y-117593581D01*
X133251004Y-117620500D01*
X133251007Y-117620500D01*
X133388995Y-117620500D01*
X133480041Y-117602389D01*
X133524328Y-117593580D01*
X133651811Y-117540775D01*
X133766542Y-117464114D01*
X133864114Y-117366542D01*
X133914926Y-117290495D01*
X133968536Y-117245693D01*
X134037861Y-117236985D01*
X134100889Y-117267139D01*
X134121129Y-117290497D01*
X134212860Y-117427781D01*
X134212863Y-117427785D01*
X134352214Y-117567136D01*
X134352218Y-117567139D01*
X134516079Y-117676628D01*
X134516092Y-117676635D01*
X134677709Y-117743578D01*
X134698165Y-117752051D01*
X134698169Y-117752051D01*
X134698170Y-117752052D01*
X134891456Y-117790500D01*
X134891459Y-117790500D01*
X135088541Y-117790500D01*
X135131271Y-117782000D01*
X135200860Y-117788226D01*
X135256038Y-117831088D01*
X135277935Y-117884219D01*
X135305704Y-118059544D01*
X135376230Y-118276604D01*
X135479849Y-118479966D01*
X135614004Y-118664614D01*
X135775385Y-118825995D01*
X135960033Y-118960150D01*
X136163395Y-119063769D01*
X136380455Y-119134295D01*
X136470000Y-119148478D01*
X136470000Y-118095277D01*
X136546306Y-118139333D01*
X136660756Y-118170000D01*
X136779244Y-118170000D01*
X136893694Y-118139333D01*
X136970000Y-118095277D01*
X136970000Y-119148477D01*
X137059544Y-119134295D01*
X137276604Y-119063769D01*
X137479966Y-118960150D01*
X137664614Y-118825995D01*
X137825995Y-118664614D01*
X137960150Y-118479966D01*
X138063769Y-118276604D01*
X138134295Y-118059544D01*
X138170000Y-117834116D01*
X138170000Y-117170000D01*
X137170000Y-117170000D01*
X137170000Y-116670000D01*
X138170000Y-116670000D01*
X138170000Y-116005883D01*
X138134295Y-115780455D01*
X138063769Y-115563395D01*
X137960150Y-115360033D01*
X137825995Y-115175385D01*
X137664614Y-115014004D01*
X137664608Y-115013999D01*
X137549344Y-114930255D01*
X137506678Y-114874925D01*
X137500699Y-114805312D01*
X137533305Y-114743517D01*
X137553340Y-114726834D01*
X137597782Y-114697139D01*
X137737139Y-114557782D01*
X137846632Y-114393914D01*
X137922051Y-114211835D01*
X137929648Y-114173641D01*
X137962032Y-114111732D01*
X138022747Y-114077158D01*
X138092517Y-114080897D01*
X138149189Y-114121763D01*
X138151583Y-114124948D01*
X138175620Y-114158032D01*
X138311967Y-114294379D01*
X138311972Y-114294383D01*
X138467956Y-114407711D01*
X138639762Y-114495252D01*
X138639765Y-114495253D01*
X138823143Y-114554835D01*
X139013591Y-114585000D01*
X139135000Y-114585000D01*
X139135000Y-113785000D01*
X139635000Y-113785000D01*
X139635000Y-114585000D01*
X139756409Y-114585000D01*
X139946856Y-114554835D01*
X140130234Y-114495253D01*
X140130237Y-114495252D01*
X140302043Y-114407711D01*
X140458027Y-114294383D01*
X140458032Y-114294379D01*
X140594379Y-114158032D01*
X140594383Y-114158027D01*
X140707711Y-114002043D01*
X140795252Y-113830237D01*
X140795253Y-113830234D01*
X140842566Y-113684619D01*
X140854835Y-113646858D01*
X140854835Y-113646855D01*
X140860673Y-113610000D01*
X140006410Y-113610000D01*
X140056037Y-113524044D01*
X140085000Y-113415952D01*
X140085000Y-113304048D01*
X140056037Y-113195956D01*
X140006410Y-113110000D01*
X140860673Y-113110000D01*
X140854836Y-113073146D01*
X140854833Y-113073136D01*
X140847630Y-113050967D01*
X140845633Y-112981125D01*
X140881712Y-112921292D01*
X140896658Y-112909552D01*
X141009035Y-112834464D01*
X141134464Y-112709035D01*
X141233013Y-112561547D01*
X141300894Y-112397666D01*
X141306628Y-112368842D01*
X141329911Y-112251789D01*
X141335500Y-112223691D01*
X141335500Y-112046309D01*
X141335500Y-112046306D01*
X141335499Y-112046304D01*
X141300896Y-111872341D01*
X141300893Y-111872332D01*
X141297233Y-111863497D01*
X141258398Y-111769738D01*
X141233016Y-111708459D01*
X141233009Y-111708446D01*
X141134464Y-111560965D01*
X141134461Y-111560961D01*
X141009038Y-111435538D01*
X141004767Y-111432033D01*
X140965432Y-111374287D01*
X140963561Y-111304442D01*
X140999748Y-111244674D01*
X141059239Y-111214562D01*
X141083497Y-111209737D01*
X141219264Y-111153501D01*
X141229172Y-111149397D01*
X141229172Y-111149396D01*
X141229179Y-111149394D01*
X141360289Y-111061789D01*
X141471789Y-110950289D01*
X141559394Y-110819179D01*
X141619737Y-110673497D01*
X141650500Y-110518842D01*
X141650500Y-110361158D01*
X141650500Y-110361155D01*
X141650499Y-110361153D01*
X141645936Y-110338213D01*
X141619737Y-110206503D01*
X141619735Y-110206498D01*
X141559397Y-110060827D01*
X141559390Y-110060814D01*
X141471790Y-109929712D01*
X141460621Y-109918543D01*
X141395911Y-109853833D01*
X141362428Y-109792513D01*
X141361977Y-109741962D01*
X141362420Y-109739738D01*
X141371217Y-109695510D01*
X141380500Y-109648844D01*
X141380500Y-109491155D01*
X141380499Y-109491153D01*
X141377924Y-109478210D01*
X141349737Y-109336503D01*
X141347152Y-109330263D01*
X141289397Y-109190827D01*
X141289390Y-109190814D01*
X141201789Y-109059711D01*
X141201786Y-109059707D01*
X141090292Y-108948213D01*
X141090288Y-108948210D01*
X140959185Y-108860609D01*
X140959172Y-108860602D01*
X140813501Y-108800264D01*
X140813489Y-108800261D01*
X140658845Y-108769500D01*
X140658842Y-108769500D01*
X140501158Y-108769500D01*
X140501155Y-108769500D01*
X140346510Y-108800261D01*
X140346498Y-108800264D01*
X140200827Y-108860602D01*
X140200814Y-108860609D01*
X140069711Y-108948210D01*
X140069707Y-108948213D01*
X139958213Y-109059707D01*
X139958210Y-109059711D01*
X139870609Y-109190814D01*
X139870602Y-109190827D01*
X139810264Y-109336498D01*
X139810261Y-109336510D01*
X139779500Y-109491153D01*
X139779500Y-109648846D01*
X139810261Y-109803489D01*
X139810264Y-109803501D01*
X139870602Y-109949172D01*
X139870609Y-109949185D01*
X139958210Y-110080288D01*
X139958213Y-110080292D01*
X140034086Y-110156165D01*
X140067571Y-110217488D01*
X140068022Y-110268037D01*
X140049500Y-110361153D01*
X140049500Y-110518846D01*
X140080261Y-110673489D01*
X140080264Y-110673501D01*
X140140602Y-110819172D01*
X140140609Y-110819185D01*
X140228210Y-110950288D01*
X140228213Y-110950292D01*
X140320821Y-111042900D01*
X140354306Y-111104223D01*
X140349322Y-111173915D01*
X140307450Y-111229848D01*
X140257332Y-111252198D01*
X140172340Y-111269104D01*
X140172332Y-111269106D01*
X140008459Y-111336983D01*
X140008446Y-111336990D01*
X139860965Y-111435535D01*
X139860961Y-111435538D01*
X139735538Y-111560961D01*
X139735535Y-111560965D01*
X139636990Y-111708446D01*
X139636983Y-111708459D01*
X139569106Y-111872332D01*
X139569103Y-111872341D01*
X139534500Y-112046304D01*
X139534500Y-112223695D01*
X139569104Y-112397658D01*
X139569107Y-112397670D01*
X139625561Y-112533962D01*
X139635000Y-112581414D01*
X139635000Y-112935000D01*
X139135000Y-112935000D01*
X139135000Y-112135000D01*
X139013591Y-112135000D01*
X138823143Y-112165164D01*
X138639765Y-112224746D01*
X138639762Y-112224747D01*
X138467956Y-112312288D01*
X138311972Y-112425616D01*
X138311967Y-112425620D01*
X138175620Y-112561967D01*
X138175616Y-112561972D01*
X138062288Y-112717956D01*
X137974747Y-112889762D01*
X137974746Y-112889765D01*
X137915164Y-113073143D01*
X137900306Y-113166948D01*
X137870376Y-113230083D01*
X137811064Y-113267013D01*
X137741202Y-113266015D01*
X137690152Y-113235230D01*
X137597785Y-113142863D01*
X137597781Y-113142860D01*
X137433920Y-113033371D01*
X137433907Y-113033364D01*
X137251839Y-112957950D01*
X137251829Y-112957947D01*
X137058543Y-112919500D01*
X137058541Y-112919500D01*
X136861459Y-112919500D01*
X136861457Y-112919500D01*
X136668170Y-112957947D01*
X136668160Y-112957950D01*
X136486092Y-113033364D01*
X136486079Y-113033371D01*
X136322218Y-113142860D01*
X136322214Y-113142863D01*
X136182863Y-113282214D01*
X136182860Y-113282218D01*
X136073371Y-113446079D01*
X136073364Y-113446092D01*
X135997950Y-113628160D01*
X135997947Y-113628170D01*
X135959500Y-113821456D01*
X135959500Y-113821459D01*
X135959500Y-114018541D01*
X135959500Y-114018543D01*
X135959499Y-114018543D01*
X135997947Y-114211829D01*
X135997950Y-114211839D01*
X136073364Y-114393907D01*
X136073371Y-114393920D01*
X136182860Y-114557781D01*
X136182863Y-114557785D01*
X136200401Y-114575323D01*
X136233886Y-114636646D01*
X136228902Y-114706338D01*
X136187030Y-114762271D01*
X136167435Y-114773433D01*
X136167734Y-114774020D01*
X135960033Y-114879849D01*
X135775385Y-115014004D01*
X135614004Y-115175385D01*
X135479849Y-115360033D01*
X135376230Y-115563395D01*
X135323811Y-115724728D01*
X135284374Y-115782403D01*
X135220015Y-115809602D01*
X135181689Y-115808028D01*
X135115134Y-115794789D01*
X135088541Y-115789500D01*
X134891459Y-115789500D01*
X134891457Y-115789500D01*
X134698170Y-115827947D01*
X134698160Y-115827950D01*
X134516092Y-115903364D01*
X134516079Y-115903371D01*
X134352218Y-116012860D01*
X134352214Y-116012863D01*
X134212863Y-116152214D01*
X134212860Y-116152218D01*
X134103371Y-116316079D01*
X134103366Y-116316088D01*
X134058217Y-116425090D01*
X134014376Y-116479493D01*
X133948082Y-116501558D01*
X133880383Y-116484279D01*
X133855975Y-116465318D01*
X133766545Y-116375888D01*
X133766541Y-116375885D01*
X133651817Y-116299228D01*
X133651804Y-116299221D01*
X133524332Y-116246421D01*
X133524322Y-116246418D01*
X133388995Y-116219500D01*
X133388993Y-116219500D01*
X133251007Y-116219500D01*
X133251005Y-116219500D01*
X133115677Y-116246418D01*
X133115667Y-116246421D01*
X132988195Y-116299221D01*
X132988182Y-116299228D01*
X132873458Y-116375885D01*
X132873454Y-116375888D01*
X132775888Y-116473454D01*
X132775885Y-116473458D01*
X132699228Y-116588182D01*
X132699221Y-116588195D01*
X132646421Y-116715667D01*
X132646418Y-116715677D01*
X132619500Y-116851004D01*
X132619500Y-116851007D01*
X132619500Y-116988993D01*
X132619500Y-116988995D01*
X132619499Y-116988995D01*
X129420500Y-116988995D01*
X129420500Y-116851004D01*
X129393581Y-116715677D01*
X129393580Y-116715676D01*
X129393580Y-116715672D01*
X129355384Y-116623458D01*
X129340778Y-116588195D01*
X129340771Y-116588182D01*
X129264114Y-116473458D01*
X129264111Y-116473454D01*
X129166545Y-116375888D01*
X129166541Y-116375885D01*
X129051817Y-116299228D01*
X129051804Y-116299221D01*
X128924332Y-116246421D01*
X128924322Y-116246418D01*
X128788995Y-116219500D01*
X128788993Y-116219500D01*
X128651007Y-116219500D01*
X128651005Y-116219500D01*
X128515677Y-116246418D01*
X128515667Y-116246421D01*
X128388195Y-116299221D01*
X128388182Y-116299228D01*
X128273458Y-116375885D01*
X128273454Y-116375888D01*
X128175888Y-116473454D01*
X128175885Y-116473458D01*
X128099228Y-116588182D01*
X128099221Y-116588195D01*
X128046421Y-116715667D01*
X128046418Y-116715677D01*
X128019500Y-116851004D01*
X128019500Y-116851007D01*
X128019500Y-116988993D01*
X128019500Y-116988995D01*
X128019499Y-116988995D01*
X125770000Y-116988995D01*
X125770000Y-116670000D01*
X126770000Y-116670000D01*
X126770000Y-116005883D01*
X126734295Y-115780455D01*
X126663769Y-115563395D01*
X126560150Y-115360033D01*
X126425995Y-115175385D01*
X126264614Y-115014004D01*
X126079966Y-114879849D01*
X125939618Y-114808338D01*
X125888822Y-114760363D01*
X125872027Y-114692542D01*
X125892810Y-114628963D01*
X125919394Y-114589179D01*
X125979737Y-114443497D01*
X126010500Y-114288842D01*
X126010500Y-114131158D01*
X126010500Y-114131155D01*
X126010499Y-114131153D01*
X125999016Y-114073423D01*
X125979737Y-113976503D01*
X125979735Y-113976498D01*
X125919397Y-113830827D01*
X125919390Y-113830814D01*
X125831789Y-113699711D01*
X125831786Y-113699707D01*
X125720292Y-113588213D01*
X125720288Y-113588210D01*
X125589185Y-113500609D01*
X125589172Y-113500602D01*
X125443501Y-113440264D01*
X125443489Y-113440261D01*
X125288845Y-113409500D01*
X125288842Y-113409500D01*
X125131158Y-113409500D01*
X125131155Y-113409500D01*
X124976510Y-113440261D01*
X124976498Y-113440264D01*
X124830827Y-113500602D01*
X124830814Y-113500609D01*
X124699711Y-113588210D01*
X124699707Y-113588213D01*
X124588213Y-113699707D01*
X124588210Y-113699711D01*
X124500609Y-113830814D01*
X124500602Y-113830827D01*
X124440264Y-113976498D01*
X124440261Y-113976510D01*
X124409500Y-114131153D01*
X124409500Y-114288846D01*
X124440261Y-114443489D01*
X124440264Y-114443501D01*
X124500602Y-114589172D01*
X124500609Y-114589185D01*
X124584536Y-114714790D01*
X124605414Y-114781468D01*
X124586929Y-114848848D01*
X124554320Y-114883999D01*
X124375386Y-115014003D01*
X124214004Y-115175385D01*
X124079849Y-115360033D01*
X123976230Y-115563395D01*
X123905704Y-115780455D01*
X123870000Y-116005883D01*
X121481278Y-116005883D01*
X121487462Y-116001751D01*
X121487466Y-116001748D01*
X121575885Y-115913330D01*
X121626748Y-115862466D01*
X121626751Y-115862462D01*
X121736185Y-115698684D01*
X121736192Y-115698671D01*
X121811569Y-115516693D01*
X121811572Y-115516681D01*
X121849999Y-115323495D01*
X121850000Y-115323492D01*
X121850000Y-114925000D01*
X121150000Y-114925000D01*
X121150000Y-114425000D01*
X121850000Y-114425000D01*
X121850000Y-114321153D01*
X122409500Y-114321153D01*
X122409500Y-114478846D01*
X122440261Y-114633489D01*
X122440264Y-114633501D01*
X122500602Y-114779172D01*
X122500609Y-114779185D01*
X122588210Y-114910288D01*
X122588213Y-114910292D01*
X122699707Y-115021786D01*
X122699711Y-115021789D01*
X122830814Y-115109390D01*
X122830827Y-115109397D01*
X122962662Y-115164004D01*
X122976503Y-115169737D01*
X123131153Y-115200499D01*
X123131156Y-115200500D01*
X123131158Y-115200500D01*
X123288844Y-115200500D01*
X123288845Y-115200499D01*
X123443497Y-115169737D01*
X123589179Y-115109394D01*
X123720289Y-115021789D01*
X123831789Y-114910289D01*
X123919394Y-114779179D01*
X123926398Y-114762271D01*
X123943787Y-114720289D01*
X123979737Y-114633497D01*
X124010500Y-114478842D01*
X124010500Y-114321158D01*
X124010500Y-114321155D01*
X124010499Y-114321153D01*
X123979738Y-114166510D01*
X123979737Y-114166503D01*
X123965097Y-114131158D01*
X123919397Y-114020827D01*
X123919390Y-114020814D01*
X123831789Y-113889711D01*
X123831786Y-113889707D01*
X123720292Y-113778213D01*
X123720288Y-113778210D01*
X123589185Y-113690609D01*
X123589172Y-113690602D01*
X123443501Y-113630264D01*
X123443489Y-113630261D01*
X123288845Y-113599500D01*
X123288842Y-113599500D01*
X123131158Y-113599500D01*
X123131155Y-113599500D01*
X122976510Y-113630261D01*
X122976498Y-113630264D01*
X122830827Y-113690602D01*
X122830814Y-113690609D01*
X122699711Y-113778210D01*
X122699707Y-113778213D01*
X122588213Y-113889707D01*
X122588210Y-113889711D01*
X122500609Y-114020814D01*
X122500602Y-114020827D01*
X122440264Y-114166498D01*
X122440261Y-114166510D01*
X122409500Y-114321153D01*
X121850000Y-114321153D01*
X121850000Y-114026508D01*
X121849999Y-114026504D01*
X121811572Y-113833318D01*
X121811569Y-113833306D01*
X121736192Y-113651328D01*
X121736185Y-113651315D01*
X121626751Y-113487537D01*
X121626748Y-113487533D01*
X121487466Y-113348251D01*
X121487462Y-113348248D01*
X121323684Y-113238814D01*
X121323671Y-113238807D01*
X121141691Y-113163429D01*
X121141683Y-113163427D01*
X121100000Y-113155135D01*
X121100000Y-113958011D01*
X121090060Y-113940795D01*
X121034205Y-113884940D01*
X120965796Y-113845444D01*
X120889496Y-113825000D01*
X120810504Y-113825000D01*
X120734204Y-113845444D01*
X120665795Y-113884940D01*
X120609940Y-113940795D01*
X120600000Y-113958011D01*
X120600000Y-113155136D01*
X120599999Y-113155135D01*
X120558316Y-113163427D01*
X120558308Y-113163429D01*
X120376328Y-113238807D01*
X120376315Y-113238814D01*
X120212537Y-113348248D01*
X120212533Y-113348251D01*
X120073251Y-113487533D01*
X120073248Y-113487537D01*
X119963814Y-113651315D01*
X119963807Y-113651328D01*
X119888430Y-113833306D01*
X119888427Y-113833318D01*
X119850000Y-114026504D01*
X119850000Y-114425000D01*
X120550000Y-114425000D01*
X120550000Y-114925000D01*
X119893821Y-114925000D01*
X119826782Y-114905315D01*
X119806140Y-114888681D01*
X119711965Y-114794506D01*
X119711964Y-114794505D01*
X119603536Y-114731905D01*
X119603537Y-114731905D01*
X119560185Y-114720289D01*
X119482601Y-114699500D01*
X119357399Y-114699500D01*
X119279815Y-114720289D01*
X119236463Y-114731905D01*
X119128037Y-114794504D01*
X119128034Y-114794506D01*
X119039506Y-114883034D01*
X119039504Y-114883037D01*
X118976905Y-114991463D01*
X118960702Y-115051931D01*
X118944500Y-115112399D01*
X114115500Y-115112399D01*
X114083095Y-114991464D01*
X114020495Y-114883036D01*
X113931964Y-114794505D01*
X113823536Y-114731905D01*
X113823537Y-114731905D01*
X113780185Y-114720289D01*
X113702601Y-114699500D01*
X113577399Y-114699500D01*
X113499815Y-114720289D01*
X113456463Y-114731905D01*
X113348037Y-114794504D01*
X113348034Y-114794506D01*
X113253860Y-114888681D01*
X113192537Y-114922166D01*
X113166179Y-114925000D01*
X112510000Y-114925000D01*
X112510000Y-114425000D01*
X113210000Y-114425000D01*
X113210000Y-114026508D01*
X113209999Y-114026504D01*
X113171572Y-113833318D01*
X113171569Y-113833306D01*
X113096192Y-113651328D01*
X113096185Y-113651315D01*
X112986751Y-113487537D01*
X112986748Y-113487533D01*
X112847466Y-113348251D01*
X112847462Y-113348248D01*
X112683684Y-113238814D01*
X112683671Y-113238807D01*
X112501691Y-113163429D01*
X112501683Y-113163427D01*
X112460000Y-113155135D01*
X112460000Y-113958011D01*
X112450060Y-113940795D01*
X112394205Y-113884940D01*
X112325796Y-113845444D01*
X112249496Y-113825000D01*
X112170504Y-113825000D01*
X112094204Y-113845444D01*
X112025795Y-113884940D01*
X111969940Y-113940795D01*
X111960000Y-113958011D01*
X111960000Y-113155136D01*
X111959999Y-113155135D01*
X111918316Y-113163427D01*
X111918308Y-113163429D01*
X111736328Y-113238807D01*
X111736315Y-113238814D01*
X111572537Y-113348248D01*
X111572533Y-113348251D01*
X111433251Y-113487533D01*
X111433248Y-113487537D01*
X111323814Y-113651315D01*
X111323807Y-113651328D01*
X111248430Y-113833306D01*
X111248427Y-113833318D01*
X111210000Y-114026504D01*
X90755859Y-114026504D01*
X90761061Y-112619394D01*
X90761878Y-112398543D01*
X107989499Y-112398543D01*
X108027947Y-112591829D01*
X108027950Y-112591839D01*
X108103364Y-112773907D01*
X108103371Y-112773920D01*
X108212860Y-112937781D01*
X108212863Y-112937785D01*
X108352214Y-113077136D01*
X108352218Y-113077139D01*
X108516079Y-113186628D01*
X108516092Y-113186635D01*
X108642065Y-113238814D01*
X108698165Y-113262051D01*
X108698169Y-113262051D01*
X108698170Y-113262052D01*
X108891456Y-113300500D01*
X108891459Y-113300500D01*
X109088543Y-113300500D01*
X109218582Y-113274632D01*
X109281835Y-113262051D01*
X109463914Y-113186632D01*
X109627782Y-113077139D01*
X109767139Y-112937782D01*
X109876632Y-112773914D01*
X109952051Y-112591835D01*
X109985114Y-112425620D01*
X109990500Y-112398543D01*
X109990500Y-112201456D01*
X109952052Y-112008170D01*
X109952051Y-112008169D01*
X109952051Y-112008165D01*
X109911730Y-111910821D01*
X109876635Y-111826092D01*
X109876628Y-111826079D01*
X109767139Y-111662218D01*
X109767136Y-111662214D01*
X109633129Y-111528207D01*
X109599644Y-111466884D01*
X109604628Y-111397192D01*
X109617708Y-111371635D01*
X109639390Y-111339185D01*
X109639390Y-111339184D01*
X109639394Y-111339179D01*
X109699737Y-111193497D01*
X109730500Y-111038842D01*
X109730500Y-110881158D01*
X109730500Y-110881155D01*
X109730499Y-110881153D01*
X109722542Y-110841153D01*
X109699737Y-110726503D01*
X109699253Y-110725335D01*
X109669092Y-110652518D01*
X109651958Y-110611153D01*
X114839500Y-110611153D01*
X114839500Y-110768846D01*
X114870261Y-110923489D01*
X114870264Y-110923501D01*
X114930602Y-111069172D01*
X114930609Y-111069185D01*
X115018210Y-111200288D01*
X115018213Y-111200292D01*
X115045240Y-111227319D01*
X115078725Y-111288642D01*
X115073741Y-111358334D01*
X115050834Y-111393991D01*
X115052072Y-111395007D01*
X115048208Y-111399714D01*
X114960609Y-111530814D01*
X114960602Y-111530827D01*
X114900264Y-111676498D01*
X114900261Y-111676510D01*
X114869500Y-111831154D01*
X114869500Y-111988846D01*
X114900261Y-112143489D01*
X114900264Y-112143501D01*
X114960602Y-112289172D01*
X114960609Y-112289185D01*
X115048210Y-112420288D01*
X115048213Y-112420292D01*
X115159707Y-112531786D01*
X115159711Y-112531789D01*
X115290814Y-112619390D01*
X115290827Y-112619397D01*
X115411028Y-112669185D01*
X115436503Y-112679737D01*
X115583788Y-112709034D01*
X115591153Y-112710499D01*
X115591156Y-112710500D01*
X115591158Y-112710500D01*
X115748844Y-112710500D01*
X115748845Y-112710499D01*
X115903497Y-112679737D01*
X116049179Y-112619394D01*
X116128253Y-112566558D01*
X116194928Y-112545680D01*
X116244592Y-112555098D01*
X116376503Y-112609737D01*
X116531153Y-112640499D01*
X116531156Y-112640500D01*
X116531158Y-112640500D01*
X116688844Y-112640500D01*
X116688845Y-112640499D01*
X116843497Y-112609737D01*
X116989179Y-112549394D01*
X117120289Y-112461789D01*
X117231789Y-112350289D01*
X117262344Y-112304559D01*
X117288371Y-112265609D01*
X117341983Y-112220804D01*
X117391473Y-112210500D01*
X117558543Y-112210500D01*
X117688582Y-112184632D01*
X117751835Y-112172051D01*
X117933914Y-112096632D01*
X118097782Y-111987139D01*
X118237139Y-111847782D01*
X118346632Y-111683914D01*
X118422051Y-111501835D01*
X118437643Y-111423449D01*
X118460500Y-111308543D01*
X118460500Y-111111456D01*
X118422052Y-110918170D01*
X118422051Y-110918169D01*
X118422051Y-110918165D01*
X118398068Y-110860264D01*
X118346635Y-110736092D01*
X118346628Y-110736079D01*
X118237139Y-110572218D01*
X118237136Y-110572214D01*
X118097785Y-110432863D01*
X118097781Y-110432860D01*
X117933920Y-110323371D01*
X117933907Y-110323364D01*
X117751839Y-110247950D01*
X117751829Y-110247947D01*
X117558543Y-110209500D01*
X117558541Y-110209500D01*
X117361459Y-110209500D01*
X117361457Y-110209500D01*
X117168170Y-110247947D01*
X117168160Y-110247950D01*
X116986092Y-110323364D01*
X116986079Y-110323371D01*
X116822218Y-110432860D01*
X116822214Y-110432863D01*
X116682863Y-110572214D01*
X116682860Y-110572218D01*
X116656446Y-110611750D01*
X116602834Y-110656555D01*
X116533509Y-110665262D01*
X116470481Y-110635107D01*
X116433762Y-110575664D01*
X116431727Y-110567051D01*
X116409738Y-110456508D01*
X116409737Y-110456507D01*
X116409737Y-110456503D01*
X116390354Y-110409707D01*
X116349397Y-110310827D01*
X116349390Y-110310814D01*
X116261789Y-110179711D01*
X116261786Y-110179707D01*
X116150292Y-110068213D01*
X116150288Y-110068210D01*
X116019185Y-109980609D01*
X116019172Y-109980602D01*
X115966118Y-109958627D01*
X115873501Y-109920264D01*
X115873489Y-109920261D01*
X115718845Y-109889500D01*
X115718842Y-109889500D01*
X115561158Y-109889500D01*
X115561155Y-109889500D01*
X115406510Y-109920261D01*
X115406498Y-109920264D01*
X115260827Y-109980602D01*
X115260814Y-109980609D01*
X115129711Y-110068210D01*
X115129707Y-110068213D01*
X115018213Y-110179707D01*
X115018210Y-110179711D01*
X114930609Y-110310814D01*
X114930602Y-110310827D01*
X114870264Y-110456498D01*
X114870261Y-110456510D01*
X114839500Y-110611153D01*
X109651958Y-110611153D01*
X109639397Y-110580827D01*
X109639390Y-110580814D01*
X109551789Y-110449711D01*
X109551786Y-110449707D01*
X109440292Y-110338213D01*
X109440288Y-110338210D01*
X109309185Y-110250609D01*
X109309172Y-110250602D01*
X109163501Y-110190264D01*
X109163489Y-110190261D01*
X109008845Y-110159500D01*
X109008842Y-110159500D01*
X108851158Y-110159500D01*
X108851155Y-110159500D01*
X108696510Y-110190261D01*
X108696498Y-110190264D01*
X108550827Y-110250602D01*
X108550814Y-110250609D01*
X108419711Y-110338210D01*
X108419707Y-110338213D01*
X108308213Y-110449707D01*
X108308210Y-110449711D01*
X108220609Y-110580814D01*
X108220602Y-110580827D01*
X108160264Y-110726498D01*
X108160261Y-110726510D01*
X108129500Y-110881153D01*
X108129500Y-111038846D01*
X108160261Y-111193489D01*
X108160264Y-111193501D01*
X108220602Y-111339172D01*
X108220609Y-111339185D01*
X108290357Y-111443569D01*
X108311235Y-111510246D01*
X108292751Y-111577627D01*
X108274937Y-111600141D01*
X108212860Y-111662218D01*
X108103371Y-111826079D01*
X108103364Y-111826092D01*
X108027950Y-112008160D01*
X108027947Y-112008170D01*
X107989500Y-112201456D01*
X107989500Y-112201459D01*
X107989500Y-112398541D01*
X107989500Y-112398543D01*
X107989499Y-112398543D01*
X90761878Y-112398543D01*
X90762631Y-112194909D01*
X90767340Y-110921153D01*
X97799500Y-110921153D01*
X97799500Y-111078846D01*
X97830261Y-111233489D01*
X97830264Y-111233501D01*
X97890602Y-111379172D01*
X97890609Y-111379185D01*
X97978210Y-111510288D01*
X97978213Y-111510292D01*
X98089707Y-111621786D01*
X98089711Y-111621789D01*
X98220814Y-111709390D01*
X98220827Y-111709397D01*
X98303163Y-111743501D01*
X98366503Y-111769737D01*
X98521153Y-111800499D01*
X98521156Y-111800500D01*
X98521158Y-111800500D01*
X98678844Y-111800500D01*
X98678845Y-111800499D01*
X98833497Y-111769737D01*
X98979179Y-111709394D01*
X99110289Y-111621789D01*
X99221789Y-111510289D01*
X99309394Y-111379179D01*
X99369737Y-111233497D01*
X99400500Y-111078842D01*
X99400500Y-110921158D01*
X99400500Y-110921155D01*
X99400499Y-110921153D01*
X99388188Y-110859257D01*
X99384587Y-110841153D01*
X99949500Y-110841153D01*
X99949500Y-110998846D01*
X99980261Y-111153489D01*
X99980264Y-111153501D01*
X100040602Y-111299172D01*
X100040609Y-111299185D01*
X100128210Y-111430288D01*
X100128213Y-111430292D01*
X100239707Y-111541786D01*
X100239711Y-111541789D01*
X100370814Y-111629390D01*
X100370827Y-111629397D01*
X100464534Y-111668211D01*
X100516503Y-111689737D01*
X100671153Y-111720499D01*
X100671156Y-111720500D01*
X100671158Y-111720500D01*
X100828844Y-111720500D01*
X100828845Y-111720499D01*
X100983497Y-111689737D01*
X101129179Y-111629394D01*
X101260289Y-111541789D01*
X101371789Y-111430289D01*
X101459394Y-111299179D01*
X101519737Y-111153497D01*
X101550500Y-110998842D01*
X101550500Y-110841158D01*
X101550500Y-110841155D01*
X101550499Y-110841153D01*
X101530431Y-110740264D01*
X101519737Y-110686503D01*
X101519735Y-110686498D01*
X101459397Y-110540827D01*
X101459390Y-110540814D01*
X101371789Y-110409711D01*
X101371786Y-110409707D01*
X101260292Y-110298213D01*
X101260288Y-110298210D01*
X101129185Y-110210609D01*
X101129172Y-110210602D01*
X100983501Y-110150264D01*
X100983489Y-110150261D01*
X100828845Y-110119500D01*
X100828842Y-110119500D01*
X100671158Y-110119500D01*
X100671155Y-110119500D01*
X100516510Y-110150261D01*
X100516498Y-110150264D01*
X100370827Y-110210602D01*
X100370814Y-110210609D01*
X100239711Y-110298210D01*
X100239707Y-110298213D01*
X100128213Y-110409707D01*
X100128210Y-110409711D01*
X100040609Y-110540814D01*
X100040602Y-110540827D01*
X99980264Y-110686498D01*
X99980261Y-110686510D01*
X99949500Y-110841153D01*
X99384587Y-110841153D01*
X99369738Y-110766508D01*
X99369737Y-110766507D01*
X99369737Y-110766503D01*
X99358867Y-110740261D01*
X99309397Y-110620827D01*
X99309390Y-110620814D01*
X99221789Y-110489711D01*
X99221786Y-110489707D01*
X99110292Y-110378213D01*
X99110288Y-110378210D01*
X98979185Y-110290609D01*
X98979172Y-110290602D01*
X98833501Y-110230264D01*
X98833489Y-110230261D01*
X98678845Y-110199500D01*
X98678842Y-110199500D01*
X98521158Y-110199500D01*
X98521155Y-110199500D01*
X98366510Y-110230261D01*
X98366498Y-110230264D01*
X98220827Y-110290602D01*
X98220814Y-110290609D01*
X98089711Y-110378210D01*
X98089707Y-110378213D01*
X97978213Y-110489707D01*
X97978210Y-110489711D01*
X97890609Y-110620814D01*
X97890602Y-110620827D01*
X97830264Y-110766498D01*
X97830261Y-110766510D01*
X97799500Y-110921153D01*
X90767340Y-110921153D01*
X90770668Y-110021153D01*
X94739500Y-110021153D01*
X94739500Y-110178846D01*
X94770261Y-110333489D01*
X94770264Y-110333501D01*
X94830602Y-110479172D01*
X94830609Y-110479185D01*
X94918210Y-110610288D01*
X94918213Y-110610292D01*
X95029707Y-110721786D01*
X95029711Y-110721789D01*
X95160814Y-110809390D01*
X95160827Y-110809397D01*
X95283633Y-110860264D01*
X95306503Y-110869737D01*
X95461153Y-110900499D01*
X95461156Y-110900500D01*
X95461158Y-110900500D01*
X95618844Y-110900500D01*
X95618845Y-110900499D01*
X95773497Y-110869737D01*
X95919179Y-110809394D01*
X96050289Y-110721789D01*
X96161789Y-110610289D01*
X96249394Y-110479179D01*
X96309737Y-110333497D01*
X96340500Y-110178842D01*
X96340500Y-110021158D01*
X96340500Y-110021155D01*
X96340499Y-110021153D01*
X96337851Y-110007842D01*
X96309737Y-109866503D01*
X96302967Y-109850158D01*
X96249397Y-109720827D01*
X96249390Y-109720814D01*
X96161789Y-109589711D01*
X96161786Y-109589707D01*
X96050292Y-109478213D01*
X96050288Y-109478210D01*
X95919185Y-109390609D01*
X95919172Y-109390602D01*
X95773501Y-109330264D01*
X95773489Y-109330261D01*
X95618845Y-109299500D01*
X95618842Y-109299500D01*
X95461158Y-109299500D01*
X95461155Y-109299500D01*
X95306510Y-109330261D01*
X95306498Y-109330264D01*
X95160827Y-109390602D01*
X95160814Y-109390609D01*
X95029711Y-109478210D01*
X95029707Y-109478213D01*
X94918213Y-109589707D01*
X94918210Y-109589711D01*
X94830609Y-109720814D01*
X94830602Y-109720827D01*
X94770264Y-109866498D01*
X94770261Y-109866510D01*
X94739500Y-110021153D01*
X90770668Y-110021153D01*
X90770692Y-110014608D01*
X90771450Y-109809499D01*
X90778571Y-107883389D01*
X100769500Y-107883389D01*
X100769500Y-108056611D01*
X100773593Y-108082454D01*
X100793873Y-108210500D01*
X100796598Y-108227701D01*
X100850127Y-108392445D01*
X100928768Y-108546788D01*
X101030586Y-108686928D01*
X101153072Y-108809414D01*
X101293212Y-108911232D01*
X101447555Y-108989873D01*
X101535797Y-109018544D01*
X101593472Y-109057982D01*
X101620670Y-109122340D01*
X101612040Y-109183925D01*
X101590264Y-109236498D01*
X101590261Y-109236510D01*
X101559500Y-109391153D01*
X101559500Y-109548846D01*
X101590261Y-109703489D01*
X101590264Y-109703501D01*
X101650602Y-109849172D01*
X101650609Y-109849185D01*
X101738210Y-109980288D01*
X101738213Y-109980292D01*
X101849707Y-110091786D01*
X101849711Y-110091789D01*
X101980814Y-110179390D01*
X101980827Y-110179397D01*
X102103633Y-110230264D01*
X102126503Y-110239737D01*
X102268776Y-110268037D01*
X102281153Y-110270499D01*
X102281156Y-110270500D01*
X102281158Y-110270500D01*
X102438844Y-110270500D01*
X102438845Y-110270499D01*
X102593497Y-110239737D01*
X102738414Y-110179711D01*
X102739172Y-110179397D01*
X102739172Y-110179396D01*
X102739179Y-110179394D01*
X102870289Y-110091789D01*
X102981789Y-109980289D01*
X103056455Y-109868543D01*
X104229499Y-109868543D01*
X104267947Y-110061829D01*
X104267950Y-110061839D01*
X104343364Y-110243907D01*
X104343371Y-110243920D01*
X104452860Y-110407781D01*
X104452863Y-110407785D01*
X104592214Y-110547136D01*
X104592218Y-110547139D01*
X104756079Y-110656628D01*
X104756092Y-110656635D01*
X104932004Y-110729499D01*
X104938165Y-110732051D01*
X104938169Y-110732051D01*
X104938170Y-110732052D01*
X105131456Y-110770500D01*
X105131459Y-110770500D01*
X105328543Y-110770500D01*
X105480561Y-110740261D01*
X105521835Y-110732051D01*
X105672273Y-110669738D01*
X105703907Y-110656635D01*
X105703907Y-110656634D01*
X105703914Y-110656632D01*
X105867782Y-110547139D01*
X106007139Y-110407782D01*
X106116632Y-110243914D01*
X106192051Y-110061835D01*
X106218154Y-109930609D01*
X106230500Y-109868543D01*
X106230500Y-109671456D01*
X106192052Y-109478170D01*
X106192051Y-109478169D01*
X106192051Y-109478165D01*
X106156010Y-109391153D01*
X106116635Y-109296092D01*
X106116628Y-109296079D01*
X106007139Y-109132218D01*
X106007136Y-109132214D01*
X105867785Y-108992863D01*
X105867781Y-108992860D01*
X105860759Y-108988168D01*
X105715567Y-108891153D01*
X108339500Y-108891153D01*
X108339500Y-109048844D01*
X108370261Y-109203489D01*
X108370264Y-109203501D01*
X108430602Y-109349172D01*
X108430609Y-109349185D01*
X108518210Y-109480288D01*
X108518213Y-109480292D01*
X108629707Y-109591786D01*
X108629711Y-109591789D01*
X108760814Y-109679390D01*
X108760827Y-109679397D01*
X108906498Y-109739735D01*
X108906503Y-109739737D01*
X109061153Y-109770499D01*
X109061156Y-109770500D01*
X109061158Y-109770500D01*
X109218844Y-109770500D01*
X109218845Y-109770499D01*
X109373497Y-109739737D01*
X109519179Y-109679394D01*
X109650289Y-109591789D01*
X109761789Y-109480289D01*
X109808652Y-109410153D01*
X111859500Y-109410153D01*
X111859500Y-109567846D01*
X111890261Y-109722489D01*
X111890264Y-109722501D01*
X111950602Y-109868172D01*
X111950609Y-109868185D01*
X112038210Y-109999288D01*
X112038213Y-109999292D01*
X112149707Y-110110786D01*
X112149711Y-110110789D01*
X112280814Y-110198390D01*
X112280827Y-110198397D01*
X112406863Y-110250602D01*
X112426503Y-110258737D01*
X112581153Y-110289499D01*
X112581156Y-110289500D01*
X112581158Y-110289500D01*
X112738844Y-110289500D01*
X112738845Y-110289499D01*
X112893497Y-110258737D01*
X113039179Y-110198394D01*
X113170289Y-110110789D01*
X113281789Y-109999289D01*
X113369394Y-109868179D01*
X113376859Y-109850158D01*
X113376861Y-109850153D01*
X118859500Y-109850153D01*
X118859500Y-110007846D01*
X118890261Y-110162489D01*
X118890264Y-110162501D01*
X118950602Y-110308172D01*
X118950609Y-110308185D01*
X119038210Y-110439288D01*
X119038213Y-110439292D01*
X119149707Y-110550786D01*
X119149711Y-110550789D01*
X119280814Y-110638390D01*
X119280827Y-110638397D01*
X119365577Y-110673501D01*
X119426503Y-110698737D01*
X119581153Y-110729499D01*
X119581156Y-110729500D01*
X119581158Y-110729500D01*
X119738844Y-110729500D01*
X119738845Y-110729499D01*
X119893497Y-110698737D01*
X120039179Y-110638394D01*
X120170289Y-110550789D01*
X120281789Y-110439289D01*
X120369394Y-110308179D01*
X120429737Y-110162497D01*
X120460500Y-110007842D01*
X120460500Y-109850158D01*
X120460500Y-109850155D01*
X120460499Y-109850153D01*
X120460304Y-109849172D01*
X120429737Y-109695503D01*
X120423066Y-109679397D01*
X120369397Y-109549827D01*
X120369390Y-109549814D01*
X120281789Y-109418711D01*
X120281786Y-109418707D01*
X120170292Y-109307213D01*
X120170288Y-109307210D01*
X120039185Y-109219609D01*
X120039172Y-109219602D01*
X119893501Y-109159264D01*
X119893489Y-109159261D01*
X119738845Y-109128500D01*
X119738842Y-109128500D01*
X119581158Y-109128500D01*
X119581155Y-109128500D01*
X119426510Y-109159261D01*
X119426498Y-109159264D01*
X119280827Y-109219602D01*
X119280814Y-109219609D01*
X119149711Y-109307210D01*
X119149707Y-109307213D01*
X119038213Y-109418707D01*
X119038210Y-109418711D01*
X118950609Y-109549814D01*
X118950602Y-109549827D01*
X118890264Y-109695498D01*
X118890261Y-109695510D01*
X118859500Y-109850153D01*
X113376861Y-109850153D01*
X113402581Y-109788058D01*
X113429737Y-109722497D01*
X113447877Y-109631300D01*
X113480260Y-109569394D01*
X113540975Y-109534819D01*
X113545555Y-109533917D01*
X113547701Y-109533402D01*
X113712445Y-109479873D01*
X113866788Y-109401232D01*
X114006928Y-109299414D01*
X114129414Y-109176928D01*
X114231232Y-109036788D01*
X114305436Y-108891153D01*
X121529500Y-108891153D01*
X121529500Y-109048844D01*
X121560261Y-109203489D01*
X121560264Y-109203501D01*
X121620602Y-109349172D01*
X121620609Y-109349185D01*
X121708210Y-109480288D01*
X121708213Y-109480292D01*
X121819707Y-109591786D01*
X121819711Y-109591789D01*
X121950814Y-109679390D01*
X121950827Y-109679397D01*
X122096498Y-109739735D01*
X122096503Y-109739737D01*
X122134925Y-109747379D01*
X122176616Y-109755673D01*
X122238527Y-109788058D01*
X122273101Y-109848773D01*
X122269362Y-109918543D01*
X122240107Y-109964971D01*
X122112860Y-110092218D01*
X122003371Y-110256079D01*
X122003364Y-110256092D01*
X121927950Y-110438160D01*
X121927947Y-110438170D01*
X121889500Y-110631456D01*
X121889500Y-110631459D01*
X121889500Y-110828541D01*
X121889500Y-110828543D01*
X121889499Y-110828543D01*
X121927947Y-111021829D01*
X121927950Y-111021839D01*
X122003364Y-111203907D01*
X122003371Y-111203920D01*
X122112860Y-111367781D01*
X122112863Y-111367785D01*
X122252214Y-111507136D01*
X122252218Y-111507139D01*
X122416079Y-111616628D01*
X122416092Y-111616635D01*
X122592578Y-111689737D01*
X122598165Y-111692051D01*
X122598169Y-111692051D01*
X122598170Y-111692052D01*
X122791456Y-111730500D01*
X122791459Y-111730500D01*
X122988543Y-111730500D01*
X123118582Y-111704632D01*
X123181835Y-111692051D01*
X123363914Y-111616632D01*
X123461910Y-111551153D01*
X129429500Y-111551153D01*
X129429500Y-111708846D01*
X129460261Y-111863489D01*
X129460264Y-111863501D01*
X129520602Y-112009172D01*
X129520609Y-112009185D01*
X129608210Y-112140288D01*
X129608213Y-112140292D01*
X129719707Y-112251786D01*
X129719711Y-112251789D01*
X129850814Y-112339390D01*
X129850827Y-112339397D01*
X129993620Y-112398543D01*
X129996503Y-112399737D01*
X130126605Y-112425616D01*
X130151153Y-112430499D01*
X130151156Y-112430500D01*
X130151158Y-112430500D01*
X130308843Y-112430500D01*
X130333395Y-112425616D01*
X130393621Y-112413636D01*
X130463211Y-112419863D01*
X130505493Y-112447572D01*
X130619707Y-112561786D01*
X130619711Y-112561789D01*
X130750814Y-112649390D01*
X130750827Y-112649397D01*
X130824078Y-112679738D01*
X130896503Y-112709737D01*
X131051153Y-112740499D01*
X131051156Y-112740500D01*
X131051158Y-112740500D01*
X131208844Y-112740500D01*
X131208845Y-112740499D01*
X131363497Y-112709737D01*
X131509179Y-112649394D01*
X131640289Y-112561789D01*
X131751789Y-112450289D01*
X131822153Y-112344980D01*
X131875762Y-112300179D01*
X131945087Y-112291470D01*
X131949445Y-112292257D01*
X132041155Y-112310500D01*
X132041158Y-112310500D01*
X132198844Y-112310500D01*
X132198845Y-112310499D01*
X132353497Y-112279737D01*
X132486258Y-112224746D01*
X132499172Y-112219397D01*
X132499172Y-112219396D01*
X132499179Y-112219394D01*
X132511513Y-112211153D01*
X133759500Y-112211153D01*
X133759500Y-112368846D01*
X133790261Y-112523489D01*
X133790264Y-112523501D01*
X133850602Y-112669172D01*
X133850609Y-112669185D01*
X133938210Y-112800288D01*
X133938213Y-112800292D01*
X134049707Y-112911786D01*
X134049711Y-112911789D01*
X134180814Y-112999390D01*
X134180827Y-112999397D01*
X134262849Y-113033371D01*
X134326503Y-113059737D01*
X134481153Y-113090499D01*
X134481156Y-113090500D01*
X134481158Y-113090500D01*
X134638844Y-113090500D01*
X134638845Y-113090499D01*
X134793497Y-113059737D01*
X134939179Y-112999394D01*
X135070289Y-112911789D01*
X135181789Y-112800289D01*
X135269394Y-112669179D01*
X135329737Y-112523497D01*
X135360500Y-112368842D01*
X135360500Y-112211158D01*
X135360500Y-112211155D01*
X135360499Y-112211153D01*
X135329738Y-112056510D01*
X135329737Y-112056503D01*
X135325513Y-112046306D01*
X135269397Y-111910827D01*
X135269390Y-111910814D01*
X135181789Y-111779711D01*
X135181786Y-111779707D01*
X135070292Y-111668213D01*
X135070288Y-111668210D01*
X134939185Y-111580609D01*
X134939172Y-111580602D01*
X134793501Y-111520264D01*
X134793489Y-111520261D01*
X134638845Y-111489500D01*
X134638842Y-111489500D01*
X134481158Y-111489500D01*
X134481155Y-111489500D01*
X134326510Y-111520261D01*
X134326498Y-111520264D01*
X134180827Y-111580602D01*
X134180814Y-111580609D01*
X134049711Y-111668210D01*
X134049707Y-111668213D01*
X133938213Y-111779707D01*
X133938210Y-111779711D01*
X133850609Y-111910814D01*
X133850602Y-111910827D01*
X133790264Y-112056498D01*
X133790261Y-112056510D01*
X133759500Y-112211153D01*
X132511513Y-112211153D01*
X132630289Y-112131789D01*
X132630292Y-112131786D01*
X132644694Y-112117385D01*
X132741786Y-112020292D01*
X132741789Y-112020289D01*
X132829394Y-111889179D01*
X132836369Y-111872341D01*
X132853427Y-111831158D01*
X132889737Y-111743497D01*
X132920500Y-111588842D01*
X132920500Y-111431158D01*
X132920500Y-111431155D01*
X132920499Y-111431153D01*
X132910159Y-111379172D01*
X132889737Y-111276503D01*
X132871925Y-111233501D01*
X132829397Y-111130827D01*
X132829390Y-111130814D01*
X132741789Y-110999711D01*
X132741786Y-110999707D01*
X132630292Y-110888213D01*
X132630288Y-110888210D01*
X132499185Y-110800609D01*
X132499172Y-110800602D01*
X132353501Y-110740264D01*
X132353489Y-110740261D01*
X132198845Y-110709500D01*
X132198842Y-110709500D01*
X132041158Y-110709500D01*
X132041155Y-110709500D01*
X131886510Y-110740261D01*
X131886498Y-110740264D01*
X131740827Y-110800602D01*
X131740814Y-110800609D01*
X131609711Y-110888210D01*
X131609707Y-110888213D01*
X131498213Y-110999707D01*
X131498210Y-110999711D01*
X131427848Y-111105016D01*
X131374236Y-111149821D01*
X131304911Y-111158528D01*
X131300555Y-111157742D01*
X131208846Y-111139500D01*
X131208842Y-111139500D01*
X131051158Y-111139500D01*
X131051153Y-111139500D01*
X130966378Y-111156363D01*
X130896787Y-111150136D01*
X130854506Y-111122427D01*
X130740292Y-111008213D01*
X130740288Y-111008210D01*
X130619650Y-110927602D01*
X130574845Y-110873990D01*
X130566138Y-110804665D01*
X130596292Y-110741637D01*
X130655736Y-110704918D01*
X130688541Y-110700500D01*
X130818844Y-110700500D01*
X130818845Y-110700499D01*
X130973497Y-110669737D01*
X131091592Y-110620821D01*
X131119172Y-110609397D01*
X131119172Y-110609396D01*
X131119179Y-110609394D01*
X131250289Y-110521789D01*
X131361789Y-110410289D01*
X131449394Y-110279179D01*
X131509737Y-110133497D01*
X131540500Y-109978842D01*
X131540500Y-109821158D01*
X131540500Y-109821155D01*
X131540499Y-109821153D01*
X131529916Y-109767949D01*
X131509737Y-109666503D01*
X131502423Y-109648846D01*
X131449397Y-109520827D01*
X131449390Y-109520814D01*
X131361789Y-109389711D01*
X131361786Y-109389707D01*
X131250292Y-109278213D01*
X131250288Y-109278210D01*
X131119185Y-109190609D01*
X131119172Y-109190602D01*
X130973501Y-109130264D01*
X130973489Y-109130261D01*
X130818845Y-109099500D01*
X130818842Y-109099500D01*
X130661158Y-109099500D01*
X130661155Y-109099500D01*
X130506510Y-109130261D01*
X130506498Y-109130264D01*
X130360827Y-109190602D01*
X130360814Y-109190609D01*
X130229711Y-109278210D01*
X130229707Y-109278213D01*
X130118213Y-109389707D01*
X130118210Y-109389711D01*
X130030609Y-109520814D01*
X130030602Y-109520827D01*
X129970264Y-109666498D01*
X129970261Y-109666510D01*
X129939500Y-109821153D01*
X129939500Y-109978846D01*
X129970261Y-110133489D01*
X129970264Y-110133501D01*
X130030602Y-110279172D01*
X130030609Y-110279185D01*
X130118210Y-110410288D01*
X130118213Y-110410292D01*
X130229707Y-110521786D01*
X130229711Y-110521789D01*
X130350350Y-110602398D01*
X130395155Y-110656010D01*
X130403862Y-110725335D01*
X130373708Y-110788363D01*
X130314264Y-110825082D01*
X130281459Y-110829500D01*
X130151155Y-110829500D01*
X129996510Y-110860261D01*
X129996498Y-110860264D01*
X129850827Y-110920602D01*
X129850814Y-110920609D01*
X129719711Y-111008210D01*
X129719707Y-111008213D01*
X129608213Y-111119707D01*
X129608210Y-111119711D01*
X129520609Y-111250814D01*
X129520602Y-111250827D01*
X129460264Y-111396498D01*
X129460261Y-111396510D01*
X129429500Y-111551153D01*
X123461910Y-111551153D01*
X123527782Y-111507139D01*
X123667139Y-111367782D01*
X123776632Y-111203914D01*
X123852051Y-111021835D01*
X123871612Y-110923497D01*
X123890500Y-110828543D01*
X123890500Y-110631456D01*
X123890499Y-110631454D01*
X123880117Y-110579257D01*
X123876516Y-110561153D01*
X126959500Y-110561153D01*
X126959500Y-110718846D01*
X126990261Y-110873489D01*
X126990264Y-110873501D01*
X127050602Y-111019172D01*
X127050609Y-111019185D01*
X127138210Y-111150288D01*
X127138213Y-111150292D01*
X127249707Y-111261786D01*
X127249711Y-111261789D01*
X127380814Y-111349390D01*
X127380827Y-111349397D01*
X127490941Y-111395007D01*
X127526503Y-111409737D01*
X127656213Y-111435538D01*
X127681153Y-111440499D01*
X127681156Y-111440500D01*
X127681158Y-111440500D01*
X127838844Y-111440500D01*
X127838845Y-111440499D01*
X127864236Y-111435448D01*
X127924560Y-111423450D01*
X127924565Y-111423449D01*
X127973691Y-111413676D01*
X127993497Y-111409737D01*
X128139179Y-111349394D01*
X128270289Y-111261789D01*
X128381789Y-111150289D01*
X128469394Y-111019179D01*
X128473938Y-111008210D01*
X128509995Y-110921158D01*
X128529737Y-110873497D01*
X128560500Y-110718842D01*
X128560500Y-110561158D01*
X128560500Y-110561155D01*
X128560499Y-110561153D01*
X128552668Y-110521786D01*
X128529737Y-110406503D01*
X128510955Y-110361158D01*
X128469397Y-110260827D01*
X128469390Y-110260814D01*
X128381789Y-110129711D01*
X128381786Y-110129707D01*
X128270292Y-110018213D01*
X128270288Y-110018210D01*
X128139185Y-109930609D01*
X128139172Y-109930602D01*
X127993501Y-109870264D01*
X127993489Y-109870261D01*
X127838845Y-109839500D01*
X127838842Y-109839500D01*
X127681158Y-109839500D01*
X127681155Y-109839500D01*
X127526510Y-109870261D01*
X127526498Y-109870264D01*
X127380827Y-109930602D01*
X127380814Y-109930609D01*
X127249711Y-110018210D01*
X127249707Y-110018213D01*
X127138213Y-110129707D01*
X127138210Y-110129711D01*
X127050609Y-110260814D01*
X127050602Y-110260827D01*
X126990264Y-110406498D01*
X126990261Y-110406510D01*
X126959500Y-110561153D01*
X123876516Y-110561153D01*
X123852052Y-110438170D01*
X123852051Y-110438169D01*
X123852051Y-110438165D01*
X123840506Y-110410292D01*
X123776635Y-110256092D01*
X123776628Y-110256079D01*
X123667139Y-110092218D01*
X123667136Y-110092214D01*
X123527785Y-109952863D01*
X123527781Y-109952860D01*
X123363920Y-109843371D01*
X123363907Y-109843364D01*
X123181839Y-109767950D01*
X123181829Y-109767947D01*
X122982566Y-109728311D01*
X122982824Y-109727011D01*
X122924344Y-109703398D01*
X122883985Y-109646364D01*
X122880868Y-109576563D01*
X122913605Y-109518473D01*
X122951786Y-109480292D01*
X122951789Y-109480289D01*
X123039394Y-109349179D01*
X123099737Y-109203497D01*
X123118372Y-109109814D01*
X123130500Y-109048844D01*
X123130500Y-108891155D01*
X123101516Y-108745446D01*
X123107743Y-108675854D01*
X123150606Y-108620677D01*
X123203733Y-108598781D01*
X123237701Y-108593402D01*
X123402445Y-108539873D01*
X123556788Y-108461232D01*
X123696928Y-108359414D01*
X123819414Y-108236928D01*
X123921232Y-108096788D01*
X123999873Y-107942445D01*
X124053402Y-107777701D01*
X124080500Y-107606611D01*
X124080500Y-107433389D01*
X124053402Y-107262299D01*
X123999873Y-107097555D01*
X123921232Y-106943212D01*
X123903309Y-106918543D01*
X130849499Y-106918543D01*
X130887947Y-107111829D01*
X130887950Y-107111839D01*
X130963364Y-107293907D01*
X130963371Y-107293920D01*
X131072860Y-107457781D01*
X131072863Y-107457785D01*
X131212215Y-107597137D01*
X131212218Y-107597139D01*
X131277553Y-107640794D01*
X131322357Y-107694405D01*
X131331065Y-107763730D01*
X131300911Y-107826758D01*
X131296344Y-107831577D01*
X131228210Y-107899711D01*
X131140609Y-108030814D01*
X131140602Y-108030827D01*
X131080264Y-108176498D01*
X131080261Y-108176510D01*
X131049500Y-108331153D01*
X131049500Y-108488846D01*
X131080261Y-108643489D01*
X131080264Y-108643501D01*
X131140602Y-108789172D01*
X131140609Y-108789185D01*
X131228210Y-108920288D01*
X131228213Y-108920292D01*
X131339707Y-109031786D01*
X131339711Y-109031789D01*
X131470814Y-109119390D01*
X131470827Y-109119397D01*
X131609721Y-109176928D01*
X131616503Y-109179737D01*
X131735912Y-109203489D01*
X131771153Y-109210499D01*
X131771156Y-109210500D01*
X131771158Y-109210500D01*
X131928844Y-109210500D01*
X131928845Y-109210499D01*
X132083497Y-109179737D01*
X132229179Y-109119394D01*
X132360289Y-109031789D01*
X132471789Y-108920289D01*
X132559394Y-108789179D01*
X132619737Y-108643497D01*
X132650500Y-108488842D01*
X132650500Y-108381153D01*
X133669500Y-108381153D01*
X133669500Y-108538846D01*
X133700261Y-108693489D01*
X133700264Y-108693501D01*
X133760602Y-108839172D01*
X133760609Y-108839185D01*
X133848210Y-108970288D01*
X133848213Y-108970292D01*
X133959707Y-109081786D01*
X133959711Y-109081789D01*
X134090814Y-109169390D01*
X134090827Y-109169397D01*
X134236498Y-109229735D01*
X134236503Y-109229737D01*
X134366037Y-109255503D01*
X134391153Y-109260499D01*
X134391156Y-109260500D01*
X134391158Y-109260500D01*
X134548844Y-109260500D01*
X134548845Y-109260499D01*
X134703497Y-109229737D01*
X134849179Y-109169394D01*
X134980289Y-109081789D01*
X135091789Y-108970289D01*
X135179394Y-108839179D01*
X135239737Y-108693497D01*
X135270500Y-108538842D01*
X135270500Y-108381158D01*
X135270500Y-108381155D01*
X135270499Y-108381153D01*
X135246521Y-108260609D01*
X135239737Y-108226503D01*
X135235330Y-108215864D01*
X135179397Y-108080827D01*
X135179390Y-108080814D01*
X135091789Y-107949711D01*
X135091786Y-107949707D01*
X134980292Y-107838213D01*
X134980288Y-107838210D01*
X134849185Y-107750609D01*
X134849172Y-107750602D01*
X134703501Y-107690264D01*
X134703489Y-107690261D01*
X134548845Y-107659500D01*
X134548842Y-107659500D01*
X134391158Y-107659500D01*
X134391155Y-107659500D01*
X134236510Y-107690261D01*
X134236498Y-107690264D01*
X134090827Y-107750602D01*
X134090814Y-107750609D01*
X133959711Y-107838210D01*
X133959707Y-107838213D01*
X133848213Y-107949707D01*
X133848210Y-107949711D01*
X133760609Y-108080814D01*
X133760602Y-108080827D01*
X133700264Y-108226498D01*
X133700261Y-108226510D01*
X133669500Y-108381153D01*
X132650500Y-108381153D01*
X132650500Y-108331158D01*
X132650500Y-108331155D01*
X132650499Y-108331153D01*
X132631757Y-108236930D01*
X132619737Y-108176503D01*
X132616836Y-108169500D01*
X132559397Y-108030827D01*
X132559390Y-108030814D01*
X132471789Y-107899711D01*
X132471786Y-107899707D01*
X132403656Y-107831577D01*
X132370171Y-107770254D01*
X132375155Y-107700562D01*
X132417027Y-107644629D01*
X132422429Y-107640806D01*
X132487782Y-107597139D01*
X132627139Y-107457782D01*
X132736632Y-107293914D01*
X132812051Y-107111835D01*
X132828574Y-107028768D01*
X132850500Y-106918543D01*
X132850500Y-106721456D01*
X132812052Y-106528170D01*
X132812051Y-106528169D01*
X132812051Y-106528165D01*
X132805645Y-106512700D01*
X132736635Y-106346092D01*
X132736628Y-106346079D01*
X132639567Y-106200817D01*
X132639565Y-106200815D01*
X132627139Y-106182218D01*
X132504586Y-106059665D01*
X132504565Y-106059643D01*
X132487785Y-106042863D01*
X132487781Y-106042860D01*
X132323920Y-105933371D01*
X132323907Y-105933364D01*
X132141839Y-105857950D01*
X132141829Y-105857947D01*
X131948543Y-105819500D01*
X131948541Y-105819500D01*
X131751459Y-105819500D01*
X131751457Y-105819500D01*
X131558170Y-105857947D01*
X131558160Y-105857950D01*
X131376092Y-105933364D01*
X131376079Y-105933371D01*
X131212218Y-106042860D01*
X131212214Y-106042863D01*
X131072863Y-106182214D01*
X131072860Y-106182218D01*
X130963371Y-106346079D01*
X130963364Y-106346092D01*
X130887950Y-106528160D01*
X130887947Y-106528170D01*
X130849500Y-106721456D01*
X130849500Y-106721459D01*
X130849500Y-106918541D01*
X130849500Y-106918543D01*
X130849499Y-106918543D01*
X123903309Y-106918543D01*
X123819414Y-106803072D01*
X123696928Y-106680586D01*
X123556788Y-106578768D01*
X123402445Y-106500127D01*
X123237701Y-106446598D01*
X123237699Y-106446597D01*
X123237698Y-106446597D01*
X123106271Y-106425781D01*
X123066611Y-106419500D01*
X122893389Y-106419500D01*
X122853728Y-106425781D01*
X122722302Y-106446597D01*
X122557552Y-106500128D01*
X122403211Y-106578768D01*
X122330406Y-106631665D01*
X122263072Y-106680586D01*
X122263070Y-106680588D01*
X122263069Y-106680588D01*
X122140588Y-106803069D01*
X122140588Y-106803070D01*
X122140586Y-106803072D01*
X122104274Y-106853051D01*
X122038768Y-106943211D01*
X121960128Y-107097552D01*
X121960127Y-107097554D01*
X121960127Y-107097555D01*
X121949394Y-107130588D01*
X121906597Y-107262302D01*
X121883143Y-107410386D01*
X121879500Y-107433389D01*
X121879500Y-107606611D01*
X121887677Y-107658239D01*
X121905418Y-107770254D01*
X121906598Y-107777701D01*
X121960127Y-107942445D01*
X122030632Y-108080821D01*
X122031465Y-108082454D01*
X122044361Y-108151123D01*
X122018085Y-108215864D01*
X121968436Y-108253309D01*
X121950823Y-108260604D01*
X121950814Y-108260609D01*
X121819711Y-108348210D01*
X121819707Y-108348213D01*
X121708213Y-108459707D01*
X121708210Y-108459711D01*
X121620609Y-108590814D01*
X121620602Y-108590827D01*
X121560264Y-108736498D01*
X121560261Y-108736510D01*
X121529500Y-108891153D01*
X114305436Y-108891153D01*
X114309873Y-108882445D01*
X114363402Y-108717701D01*
X114390500Y-108546611D01*
X114390500Y-108373389D01*
X114363402Y-108202299D01*
X114309873Y-108037555D01*
X114231232Y-107883212D01*
X114129414Y-107743072D01*
X114006928Y-107620586D01*
X113866788Y-107518768D01*
X113712445Y-107440127D01*
X113699011Y-107435762D01*
X113690240Y-107429764D01*
X113679818Y-107427688D01*
X113661899Y-107410386D01*
X113641337Y-107396326D01*
X113635870Y-107385252D01*
X113629556Y-107379155D01*
X113619364Y-107351816D01*
X113616645Y-107346307D01*
X113616144Y-107344184D01*
X113591658Y-107221087D01*
X113581069Y-107195522D01*
X113578772Y-107185787D01*
X113580136Y-107160489D01*
X113577428Y-107135295D01*
X113582123Y-107123667D01*
X113582536Y-107116018D01*
X113588611Y-107107598D01*
X113596354Y-107088424D01*
X113645084Y-107015495D01*
X113701658Y-106878913D01*
X113716744Y-106803072D01*
X113730500Y-106733920D01*
X113730500Y-106586079D01*
X113701659Y-106441092D01*
X113701658Y-106441091D01*
X113701658Y-106441087D01*
X113697187Y-106430292D01*
X113684721Y-106400196D01*
X113677252Y-106330727D01*
X113693151Y-106291362D01*
X113692215Y-106290862D01*
X113695080Y-106285500D01*
X113695084Y-106285495D01*
X113751658Y-106148913D01*
X113766551Y-106074044D01*
X113780500Y-106003920D01*
X113780500Y-105989543D01*
X115340499Y-105989543D01*
X115378947Y-106182829D01*
X115378950Y-106182839D01*
X115454364Y-106364907D01*
X115454371Y-106364920D01*
X115563860Y-106528781D01*
X115563863Y-106528785D01*
X115703214Y-106668136D01*
X115703218Y-106668139D01*
X115867079Y-106777628D01*
X115867092Y-106777635D01*
X116028238Y-106844383D01*
X116049165Y-106853051D01*
X116049169Y-106853051D01*
X116049170Y-106853052D01*
X116242456Y-106891500D01*
X116242459Y-106891500D01*
X116439543Y-106891500D01*
X116569582Y-106865632D01*
X116632835Y-106853051D01*
X116814914Y-106777632D01*
X116978782Y-106668139D01*
X117118139Y-106528782D01*
X117227632Y-106364914D01*
X117303051Y-106182835D01*
X117327556Y-106059643D01*
X117341500Y-105989543D01*
X117341500Y-105792456D01*
X117315152Y-105660000D01*
X137909327Y-105660000D01*
X138763590Y-105660000D01*
X138713963Y-105745956D01*
X138685000Y-105854048D01*
X138685000Y-105965952D01*
X138713963Y-106074044D01*
X138763590Y-106160000D01*
X137909327Y-106160000D01*
X137915164Y-106196855D01*
X137915164Y-106196858D01*
X137974746Y-106380234D01*
X137974747Y-106380237D01*
X138062288Y-106552043D01*
X138175616Y-106708027D01*
X138175620Y-106708032D01*
X138311967Y-106844379D01*
X138311972Y-106844383D01*
X138467956Y-106957711D01*
X138639762Y-107045252D01*
X138639765Y-107045253D01*
X138823143Y-107104835D01*
X139013591Y-107135000D01*
X139135000Y-107135000D01*
X139135000Y-106335000D01*
X139635000Y-106335000D01*
X139635000Y-106688586D01*
X139625561Y-106736038D01*
X139569106Y-106872332D01*
X139569103Y-106872341D01*
X139534500Y-107046304D01*
X139534500Y-107223695D01*
X139569103Y-107397658D01*
X139569106Y-107397667D01*
X139636983Y-107561540D01*
X139636990Y-107561553D01*
X139735535Y-107709034D01*
X139735538Y-107709038D01*
X139860961Y-107834461D01*
X139860965Y-107834464D01*
X140008446Y-107933009D01*
X140008459Y-107933016D01*
X140107352Y-107973978D01*
X140172334Y-108000894D01*
X140172336Y-108000894D01*
X140172341Y-108000896D01*
X140346304Y-108035499D01*
X140346307Y-108035500D01*
X140346309Y-108035500D01*
X140523693Y-108035500D01*
X140523694Y-108035499D01*
X140599880Y-108020345D01*
X140697658Y-108000896D01*
X140697661Y-108000894D01*
X140697666Y-108000894D01*
X140861547Y-107933013D01*
X141009035Y-107834464D01*
X141134464Y-107709035D01*
X141233013Y-107561547D01*
X141300894Y-107397666D01*
X141301781Y-107393211D01*
X141335499Y-107223695D01*
X141335500Y-107223693D01*
X141335500Y-107046306D01*
X141335499Y-107046304D01*
X141300896Y-106872341D01*
X141300893Y-106872332D01*
X141233016Y-106708459D01*
X141233009Y-106708446D01*
X141134464Y-106560965D01*
X141134461Y-106560961D01*
X141009038Y-106435538D01*
X141009030Y-106435532D01*
X140896669Y-106360455D01*
X140851863Y-106306843D01*
X140843156Y-106237518D01*
X140847629Y-106219031D01*
X140854836Y-106196851D01*
X140854836Y-106196849D01*
X140860673Y-106160000D01*
X140006410Y-106160000D01*
X140056037Y-106074044D01*
X140085000Y-105965952D01*
X140085000Y-105854048D01*
X140056037Y-105745956D01*
X140006410Y-105660000D01*
X140860673Y-105660000D01*
X140854835Y-105623144D01*
X140854835Y-105623141D01*
X140842566Y-105585381D01*
X140795253Y-105439765D01*
X140795252Y-105439762D01*
X140707711Y-105267956D01*
X140594383Y-105111972D01*
X140594379Y-105111967D01*
X140458032Y-104975620D01*
X140458027Y-104975616D01*
X140302043Y-104862288D01*
X140130237Y-104774747D01*
X140130234Y-104774746D01*
X139946856Y-104715164D01*
X139756409Y-104685000D01*
X139635000Y-104685000D01*
X139635000Y-105485000D01*
X139135000Y-105485000D01*
X139135000Y-104685000D01*
X139013591Y-104685000D01*
X138823143Y-104715164D01*
X138639765Y-104774746D01*
X138639762Y-104774747D01*
X138467956Y-104862288D01*
X138311972Y-104975616D01*
X138311967Y-104975620D01*
X138175620Y-105111967D01*
X138175616Y-105111972D01*
X138062288Y-105267956D01*
X137974747Y-105439762D01*
X137974746Y-105439765D01*
X137915164Y-105623141D01*
X137915164Y-105623144D01*
X137909327Y-105660000D01*
X117315152Y-105660000D01*
X117303052Y-105599170D01*
X117303051Y-105599169D01*
X117303051Y-105599165D01*
X117299462Y-105590500D01*
X117227635Y-105417092D01*
X117227628Y-105417079D01*
X117118139Y-105253218D01*
X117118136Y-105253214D01*
X116978785Y-105113863D01*
X116978781Y-105113860D01*
X116814920Y-105004371D01*
X116814907Y-105004364D01*
X116632839Y-104928950D01*
X116632829Y-104928947D01*
X116439543Y-104890500D01*
X116439541Y-104890500D01*
X116242459Y-104890500D01*
X116242457Y-104890500D01*
X116049170Y-104928947D01*
X116049160Y-104928950D01*
X115867092Y-105004364D01*
X115867079Y-105004371D01*
X115703218Y-105113860D01*
X115703214Y-105113863D01*
X115563863Y-105253214D01*
X115563860Y-105253218D01*
X115454371Y-105417079D01*
X115454364Y-105417092D01*
X115378950Y-105599160D01*
X115378947Y-105599170D01*
X115340500Y-105792456D01*
X115340500Y-105792459D01*
X115340500Y-105989541D01*
X115340500Y-105989543D01*
X115340499Y-105989543D01*
X113780500Y-105989543D01*
X113780500Y-105856079D01*
X113771445Y-105810559D01*
X113751659Y-105711092D01*
X113751658Y-105711091D01*
X113751658Y-105711087D01*
X113714583Y-105621580D01*
X113695087Y-105574511D01*
X113695080Y-105574498D01*
X113612951Y-105451584D01*
X113612948Y-105451580D01*
X113508419Y-105347051D01*
X113508415Y-105347048D01*
X113385501Y-105264919D01*
X113385488Y-105264912D01*
X113248917Y-105208343D01*
X113248907Y-105208340D01*
X113103920Y-105179500D01*
X113103918Y-105179500D01*
X112956082Y-105179500D01*
X112956080Y-105179500D01*
X112811092Y-105208340D01*
X112811082Y-105208343D01*
X112674511Y-105264912D01*
X112674498Y-105264919D01*
X112551584Y-105347048D01*
X112551580Y-105347051D01*
X112447051Y-105451580D01*
X112447048Y-105451584D01*
X112364919Y-105574498D01*
X112364912Y-105574511D01*
X112308343Y-105711082D01*
X112308340Y-105711092D01*
X112279500Y-105856079D01*
X112279500Y-105856082D01*
X112279500Y-106003918D01*
X112279500Y-106003920D01*
X112279499Y-106003920D01*
X112308340Y-106148906D01*
X112308341Y-106148909D01*
X112308342Y-106148913D01*
X112325279Y-106189803D01*
X112332746Y-106259273D01*
X112316858Y-106298633D01*
X112317789Y-106299131D01*
X112314914Y-106304508D01*
X112258342Y-106441086D01*
X112258340Y-106441092D01*
X112229500Y-106586079D01*
X112229500Y-106586082D01*
X112229500Y-106733918D01*
X112229500Y-106733920D01*
X112229499Y-106733920D01*
X112258340Y-106878906D01*
X112258342Y-106878913D01*
X112265104Y-106895239D01*
X112272570Y-106964708D01*
X112253644Y-107011577D01*
X112204918Y-107084500D01*
X112204912Y-107084511D01*
X112148343Y-107221082D01*
X112148340Y-107221092D01*
X112119500Y-107366079D01*
X112119500Y-107366082D01*
X112119500Y-107513918D01*
X112119500Y-107513920D01*
X112119499Y-107513920D01*
X112148340Y-107658907D01*
X112148343Y-107658917D01*
X112204912Y-107795488D01*
X112204919Y-107795501D01*
X112271511Y-107895162D01*
X112292389Y-107961839D01*
X112278895Y-108020345D01*
X112270127Y-108037554D01*
X112270126Y-108037555D01*
X112216597Y-108202301D01*
X112189500Y-108373389D01*
X112189500Y-108546610D01*
X112216598Y-108717702D01*
X112217737Y-108722448D01*
X112215820Y-108722908D01*
X112217558Y-108784430D01*
X112181458Y-108844251D01*
X112166535Y-108855969D01*
X112149709Y-108867211D01*
X112038213Y-108978707D01*
X112038210Y-108978711D01*
X111950609Y-109109814D01*
X111950602Y-109109827D01*
X111890264Y-109255498D01*
X111890261Y-109255510D01*
X111859500Y-109410153D01*
X109808652Y-109410153D01*
X109849394Y-109349179D01*
X109909737Y-109203497D01*
X109928372Y-109109814D01*
X109940500Y-109048844D01*
X109940500Y-108891155D01*
X109940499Y-108891153D01*
X109931666Y-108846747D01*
X109909737Y-108736503D01*
X109903915Y-108722448D01*
X109849397Y-108590827D01*
X109849390Y-108590814D01*
X109761789Y-108459711D01*
X109761786Y-108459707D01*
X109650292Y-108348213D01*
X109650288Y-108348210D01*
X109519185Y-108260609D01*
X109519172Y-108260602D01*
X109373501Y-108200264D01*
X109373489Y-108200261D01*
X109218845Y-108169500D01*
X109218842Y-108169500D01*
X109061158Y-108169500D01*
X109061155Y-108169500D01*
X108906510Y-108200261D01*
X108906498Y-108200264D01*
X108760827Y-108260602D01*
X108760814Y-108260609D01*
X108629711Y-108348210D01*
X108629707Y-108348213D01*
X108518213Y-108459707D01*
X108518210Y-108459711D01*
X108430609Y-108590814D01*
X108430602Y-108590827D01*
X108370264Y-108736498D01*
X108370261Y-108736510D01*
X108339500Y-108891153D01*
X105715567Y-108891153D01*
X105703920Y-108883371D01*
X105703907Y-108883364D01*
X105521839Y-108807950D01*
X105521829Y-108807947D01*
X105328543Y-108769500D01*
X105328541Y-108769500D01*
X105131459Y-108769500D01*
X105131457Y-108769500D01*
X104938170Y-108807947D01*
X104938160Y-108807950D01*
X104756092Y-108883364D01*
X104756079Y-108883371D01*
X104592218Y-108992860D01*
X104592214Y-108992863D01*
X104452863Y-109132214D01*
X104452860Y-109132218D01*
X104343371Y-109296079D01*
X104343364Y-109296092D01*
X104267950Y-109478160D01*
X104267947Y-109478170D01*
X104229500Y-109671456D01*
X104229500Y-109671459D01*
X104229500Y-109868541D01*
X104229500Y-109868543D01*
X104229499Y-109868543D01*
X103056455Y-109868543D01*
X103069394Y-109849179D01*
X103129737Y-109703497D01*
X103140608Y-109648846D01*
X103142134Y-109641176D01*
X103142134Y-109641175D01*
X103160500Y-109548844D01*
X103160500Y-109391155D01*
X103160499Y-109391153D01*
X103143802Y-109307211D01*
X103129737Y-109236503D01*
X103126935Y-109229738D01*
X103069397Y-109090827D01*
X103069390Y-109090814D01*
X102981789Y-108959711D01*
X102981786Y-108959707D01*
X102870292Y-108848213D01*
X102790337Y-108794788D01*
X102745533Y-108741175D01*
X102736826Y-108671850D01*
X102758912Y-108618800D01*
X102777365Y-108593402D01*
X102811232Y-108546788D01*
X102889873Y-108392445D01*
X102943402Y-108227701D01*
X102970500Y-108056611D01*
X102970500Y-107883389D01*
X102943402Y-107712299D01*
X102889873Y-107547555D01*
X102811232Y-107393212D01*
X102766143Y-107331153D01*
X103319500Y-107331153D01*
X103319500Y-107488846D01*
X103350261Y-107643489D01*
X103350264Y-107643501D01*
X103410602Y-107789172D01*
X103410609Y-107789185D01*
X103498210Y-107920288D01*
X103498213Y-107920292D01*
X103609707Y-108031786D01*
X103609711Y-108031789D01*
X103740814Y-108119390D01*
X103740827Y-108119397D01*
X103878683Y-108176498D01*
X103886503Y-108179737D01*
X104041153Y-108210499D01*
X104041156Y-108210500D01*
X104041158Y-108210500D01*
X104198844Y-108210500D01*
X104198845Y-108210499D01*
X104353497Y-108179737D01*
X104499179Y-108119394D01*
X104630289Y-108031789D01*
X104676082Y-107985996D01*
X104737405Y-107952510D01*
X104807096Y-107957494D01*
X104832656Y-107970575D01*
X104860813Y-107989389D01*
X104860816Y-107989391D01*
X104860821Y-107989394D01*
X104860823Y-107989395D01*
X104860827Y-107989397D01*
X105006498Y-108049735D01*
X105006503Y-108049737D01*
X105161153Y-108080499D01*
X105161156Y-108080500D01*
X105161158Y-108080500D01*
X105318844Y-108080500D01*
X105318845Y-108080499D01*
X105473497Y-108049737D01*
X105619179Y-107989394D01*
X105665330Y-107958556D01*
X105732002Y-107937679D01*
X105799383Y-107956162D01*
X105821899Y-107973978D01*
X105829707Y-107981786D01*
X105829711Y-107981789D01*
X105960814Y-108069390D01*
X105960827Y-108069397D01*
X106106498Y-108129735D01*
X106106503Y-108129737D01*
X106261153Y-108160499D01*
X106261156Y-108160500D01*
X106261158Y-108160500D01*
X106418844Y-108160500D01*
X106418845Y-108160499D01*
X106573497Y-108129737D01*
X106691592Y-108080821D01*
X106719172Y-108069397D01*
X106719172Y-108069396D01*
X106719179Y-108069394D01*
X106850289Y-107981789D01*
X106961789Y-107870289D01*
X107049394Y-107739179D01*
X107109737Y-107593497D01*
X107140500Y-107438842D01*
X107140500Y-107281158D01*
X107140500Y-107281155D01*
X107140499Y-107281153D01*
X107123577Y-107196082D01*
X107109737Y-107126503D01*
X107100762Y-107104835D01*
X107049397Y-106980827D01*
X107049390Y-106980814D01*
X106961789Y-106849711D01*
X106961786Y-106849707D01*
X106850295Y-106738216D01*
X106847419Y-106735856D01*
X106846316Y-106734237D01*
X106845982Y-106733903D01*
X106846045Y-106733839D01*
X106808083Y-106678111D01*
X106806210Y-106608267D01*
X106842396Y-106548497D01*
X106847419Y-106544144D01*
X106850281Y-106541793D01*
X106850289Y-106541789D01*
X106961789Y-106430289D01*
X107049394Y-106299179D01*
X107101278Y-106173920D01*
X107609499Y-106173920D01*
X107638340Y-106318907D01*
X107638343Y-106318917D01*
X107694912Y-106455488D01*
X107694919Y-106455501D01*
X107777048Y-106578415D01*
X107777051Y-106578419D01*
X107805951Y-106607319D01*
X107839436Y-106668642D01*
X107834452Y-106738334D01*
X107805955Y-106782678D01*
X107797046Y-106791586D01*
X107797046Y-106791587D01*
X107714919Y-106914498D01*
X107714912Y-106914511D01*
X107658343Y-107051082D01*
X107658340Y-107051092D01*
X107629500Y-107196079D01*
X107629500Y-107196082D01*
X107629500Y-107343918D01*
X107629500Y-107343920D01*
X107629499Y-107343920D01*
X107658340Y-107488907D01*
X107658343Y-107488917D01*
X107714912Y-107625488D01*
X107714919Y-107625501D01*
X107797048Y-107748415D01*
X107797051Y-107748419D01*
X107901580Y-107852948D01*
X107901584Y-107852951D01*
X108024498Y-107935080D01*
X108024511Y-107935087D01*
X108155609Y-107989389D01*
X108161087Y-107991658D01*
X108161091Y-107991658D01*
X108161092Y-107991659D01*
X108306079Y-108020500D01*
X108306082Y-108020500D01*
X108453920Y-108020500D01*
X108552487Y-108000893D01*
X108598913Y-107991658D01*
X108735495Y-107935084D01*
X108858416Y-107852951D01*
X108962951Y-107748416D01*
X109045084Y-107625495D01*
X109101658Y-107488913D01*
X109117305Y-107410252D01*
X109130500Y-107343920D01*
X109130500Y-107196079D01*
X109101659Y-107051092D01*
X109101658Y-107051091D01*
X109101658Y-107051087D01*
X109099677Y-107046304D01*
X109045087Y-106914511D01*
X109045080Y-106914498D01*
X108962951Y-106791584D01*
X108962948Y-106791580D01*
X108934048Y-106762680D01*
X108900563Y-106701357D01*
X108905547Y-106631665D01*
X108934047Y-106587319D01*
X108942951Y-106578416D01*
X109025084Y-106455495D01*
X109081658Y-106318913D01*
X109101526Y-106219031D01*
X109110500Y-106173920D01*
X109110500Y-106026079D01*
X109081659Y-105881092D01*
X109081658Y-105881091D01*
X109081658Y-105881087D01*
X109081656Y-105881082D01*
X109025087Y-105744511D01*
X109025080Y-105744498D01*
X108942951Y-105621584D01*
X108942948Y-105621580D01*
X108838419Y-105517051D01*
X108838415Y-105517048D01*
X108715501Y-105434919D01*
X108715488Y-105434912D01*
X108578917Y-105378343D01*
X108578907Y-105378340D01*
X108433920Y-105349500D01*
X108433918Y-105349500D01*
X108286082Y-105349500D01*
X108286080Y-105349500D01*
X108141092Y-105378340D01*
X108141082Y-105378343D01*
X108004511Y-105434912D01*
X108004498Y-105434919D01*
X107881584Y-105517048D01*
X107881580Y-105517051D01*
X107777051Y-105621580D01*
X107777048Y-105621584D01*
X107694919Y-105744498D01*
X107694912Y-105744511D01*
X107638343Y-105881082D01*
X107638340Y-105881092D01*
X107609500Y-106026079D01*
X107609500Y-106026082D01*
X107609500Y-106173918D01*
X107609500Y-106173920D01*
X107609499Y-106173920D01*
X107101278Y-106173920D01*
X107109737Y-106153497D01*
X107140500Y-105998842D01*
X107140500Y-105841158D01*
X107140500Y-105841155D01*
X107140499Y-105841153D01*
X107130813Y-105792459D01*
X107109737Y-105686503D01*
X107069972Y-105590500D01*
X107049397Y-105540827D01*
X107049390Y-105540814D01*
X106961789Y-105409711D01*
X106961786Y-105409707D01*
X106850292Y-105298213D01*
X106850288Y-105298210D01*
X106719185Y-105210609D01*
X106719172Y-105210602D01*
X106573501Y-105150264D01*
X106573489Y-105150261D01*
X106418845Y-105119500D01*
X106418842Y-105119500D01*
X106261158Y-105119500D01*
X106261155Y-105119500D01*
X106106510Y-105150261D01*
X106106498Y-105150264D01*
X105987450Y-105199575D01*
X105917980Y-105207044D01*
X105892546Y-105199575D01*
X105773498Y-105150264D01*
X105773486Y-105150261D01*
X105618842Y-105119500D01*
X105618839Y-105119500D01*
X105461155Y-105119500D01*
X105461152Y-105119500D01*
X105306507Y-105150261D01*
X105306495Y-105150264D01*
X105160824Y-105210602D01*
X105160811Y-105210609D01*
X105029708Y-105298210D01*
X105029704Y-105298213D01*
X104918210Y-105409707D01*
X104918207Y-105409711D01*
X104830606Y-105540814D01*
X104830599Y-105540827D01*
X104770261Y-105686498D01*
X104770258Y-105686510D01*
X104739497Y-105841153D01*
X104739497Y-105998846D01*
X104770258Y-106153489D01*
X104770261Y-106153501D01*
X104830599Y-106299172D01*
X104830606Y-106299185D01*
X104896421Y-106397683D01*
X104897987Y-106402687D01*
X104901723Y-106406369D01*
X104908320Y-106435686D01*
X104917299Y-106464360D01*
X104915911Y-106469417D01*
X104917063Y-106474534D01*
X104906764Y-106502761D01*
X104898815Y-106531741D01*
X104894429Y-106536570D01*
X104893116Y-106540172D01*
X104878429Y-106554193D01*
X104868338Y-106565307D01*
X104862014Y-106570111D01*
X104860821Y-106570606D01*
X104729711Y-106658211D01*
X104677965Y-106709956D01*
X104671254Y-106715056D01*
X104646156Y-106724621D01*
X104622592Y-106737489D01*
X104614009Y-106736875D01*
X104605966Y-106739941D01*
X104579680Y-106734419D01*
X104552900Y-106732504D01*
X104540603Y-106726211D01*
X104537589Y-106725578D01*
X104535670Y-106723686D01*
X104527345Y-106719426D01*
X104499182Y-106700608D01*
X104499181Y-106700607D01*
X104499179Y-106700606D01*
X104499176Y-106700604D01*
X104499171Y-106700602D01*
X104353501Y-106640264D01*
X104353489Y-106640261D01*
X104198845Y-106609500D01*
X104198842Y-106609500D01*
X104041158Y-106609500D01*
X104041155Y-106609500D01*
X103886510Y-106640261D01*
X103886498Y-106640264D01*
X103740827Y-106700602D01*
X103740814Y-106700609D01*
X103609711Y-106788210D01*
X103609707Y-106788213D01*
X103498213Y-106899707D01*
X103498210Y-106899711D01*
X103410609Y-107030814D01*
X103410602Y-107030827D01*
X103350264Y-107176498D01*
X103350261Y-107176510D01*
X103319500Y-107331153D01*
X102766143Y-107331153D01*
X102709414Y-107253072D01*
X102586928Y-107130586D01*
X102446788Y-107028768D01*
X102292445Y-106950127D01*
X102127701Y-106896598D01*
X102127699Y-106896597D01*
X102127698Y-106896597D01*
X101974504Y-106872334D01*
X101956611Y-106869500D01*
X101783389Y-106869500D01*
X101765496Y-106872334D01*
X101612302Y-106896597D01*
X101447552Y-106950128D01*
X101293211Y-107028768D01*
X101216504Y-107084500D01*
X101153072Y-107130586D01*
X101153070Y-107130588D01*
X101153069Y-107130588D01*
X101030588Y-107253069D01*
X101030588Y-107253070D01*
X101030586Y-107253072D01*
X101000908Y-107293920D01*
X100928768Y-107393211D01*
X100850128Y-107547552D01*
X100796597Y-107712302D01*
X100784421Y-107789179D01*
X100769500Y-107883389D01*
X90778571Y-107883389D01*
X90799054Y-102343389D01*
X91799500Y-102343389D01*
X91799500Y-102516610D01*
X91816226Y-102622218D01*
X91826598Y-102687701D01*
X91880127Y-102852445D01*
X91958768Y-103006788D01*
X92060586Y-103146928D01*
X92183072Y-103269414D01*
X92323212Y-103371232D01*
X92477555Y-103449873D01*
X92642299Y-103503402D01*
X92813389Y-103530500D01*
X92813390Y-103530500D01*
X92986610Y-103530500D01*
X92986611Y-103530500D01*
X93157701Y-103503402D01*
X93322445Y-103449873D01*
X93476788Y-103371232D01*
X93616928Y-103269414D01*
X93739414Y-103146928D01*
X93841232Y-103006788D01*
X93919873Y-102852445D01*
X93973402Y-102687701D01*
X94000500Y-102516611D01*
X94000500Y-102343389D01*
X93973402Y-102172299D01*
X93919873Y-102007555D01*
X93841232Y-101853212D01*
X93739414Y-101713072D01*
X93616928Y-101590586D01*
X93476788Y-101488768D01*
X93370541Y-101434633D01*
X93322447Y-101410128D01*
X93322446Y-101410127D01*
X93322445Y-101410127D01*
X93157701Y-101356598D01*
X93157699Y-101356597D01*
X93157698Y-101356597D01*
X93026271Y-101335781D01*
X92986611Y-101329500D01*
X92813389Y-101329500D01*
X92773728Y-101335781D01*
X92642302Y-101356597D01*
X92477552Y-101410128D01*
X92323211Y-101488768D01*
X92243256Y-101546859D01*
X92183072Y-101590586D01*
X92183070Y-101590588D01*
X92183069Y-101590588D01*
X92060588Y-101713069D01*
X92060588Y-101713070D01*
X92060586Y-101713072D01*
X92034194Y-101749397D01*
X91958768Y-101853211D01*
X91880128Y-102007552D01*
X91826597Y-102172302D01*
X91799500Y-102343389D01*
X90799054Y-102343389D01*
X90807381Y-100091153D01*
X104799500Y-100091153D01*
X104799500Y-100248846D01*
X104830261Y-100403489D01*
X104830264Y-100403501D01*
X104890602Y-100549172D01*
X104890609Y-100549185D01*
X104978210Y-100680288D01*
X104978213Y-100680292D01*
X105089707Y-100791786D01*
X105089711Y-100791789D01*
X105220814Y-100879390D01*
X105220827Y-100879397D01*
X105366498Y-100939735D01*
X105366503Y-100939737D01*
X105412291Y-100948844D01*
X105469691Y-100960263D01*
X105531602Y-100992648D01*
X105566176Y-101053364D01*
X105569500Y-101081880D01*
X105569500Y-101118846D01*
X105600261Y-101273489D01*
X105600264Y-101273501D01*
X105660602Y-101419172D01*
X105660609Y-101419185D01*
X105748210Y-101550288D01*
X105748213Y-101550292D01*
X105859707Y-101661786D01*
X105859711Y-101661789D01*
X105990814Y-101749390D01*
X105990827Y-101749397D01*
X106136498Y-101809735D01*
X106136503Y-101809737D01*
X106291153Y-101840499D01*
X106291156Y-101840500D01*
X106291158Y-101840500D01*
X106448844Y-101840500D01*
X106448845Y-101840499D01*
X106603497Y-101809737D01*
X106749179Y-101749394D01*
X106880289Y-101661789D01*
X106991789Y-101550289D01*
X107079394Y-101419179D01*
X107083144Y-101410127D01*
X107116540Y-101329500D01*
X107139737Y-101273497D01*
X107170500Y-101118842D01*
X107170500Y-100961158D01*
X107170500Y-100961155D01*
X107170499Y-100961153D01*
X107166239Y-100939735D01*
X107139737Y-100806503D01*
X107133641Y-100791786D01*
X107079397Y-100660827D01*
X107079390Y-100660814D01*
X106991789Y-100529711D01*
X106991786Y-100529707D01*
X106880292Y-100418213D01*
X106880288Y-100418210D01*
X106749185Y-100330609D01*
X106749172Y-100330602D01*
X106603501Y-100270264D01*
X106603491Y-100270261D01*
X106500308Y-100249736D01*
X106438397Y-100217350D01*
X106403823Y-100156634D01*
X106400500Y-100128119D01*
X106400500Y-100091155D01*
X106400499Y-100091153D01*
X106377093Y-99973486D01*
X106369737Y-99936503D01*
X106352666Y-99895289D01*
X106309397Y-99790827D01*
X106309390Y-99790814D01*
X106221789Y-99659711D01*
X106221786Y-99659707D01*
X106110292Y-99548213D01*
X106110288Y-99548210D01*
X105979185Y-99460609D01*
X105979172Y-99460602D01*
X105833501Y-99400264D01*
X105833489Y-99400261D01*
X105678845Y-99369500D01*
X105678842Y-99369500D01*
X105521158Y-99369500D01*
X105521155Y-99369500D01*
X105366510Y-99400261D01*
X105366498Y-99400264D01*
X105220827Y-99460602D01*
X105220814Y-99460609D01*
X105089711Y-99548210D01*
X105089707Y-99548213D01*
X104978213Y-99659707D01*
X104978210Y-99659711D01*
X104890609Y-99790814D01*
X104890602Y-99790827D01*
X104830264Y-99936498D01*
X104830261Y-99936510D01*
X104799500Y-100091153D01*
X90807381Y-100091153D01*
X90812325Y-98753920D01*
X101149499Y-98753920D01*
X101178340Y-98898907D01*
X101178343Y-98898917D01*
X101234912Y-99035488D01*
X101234919Y-99035501D01*
X101317048Y-99158415D01*
X101317051Y-99158419D01*
X101421580Y-99262948D01*
X101421584Y-99262951D01*
X101544498Y-99345080D01*
X101544511Y-99345087D01*
X101681082Y-99401656D01*
X101681087Y-99401658D01*
X101681091Y-99401658D01*
X101681092Y-99401659D01*
X101826079Y-99430500D01*
X101826082Y-99430500D01*
X101973920Y-99430500D01*
X102071462Y-99411096D01*
X102118913Y-99401658D01*
X102255495Y-99345084D01*
X102378416Y-99262951D01*
X102482951Y-99158416D01*
X102565084Y-99035495D01*
X102607158Y-98933920D01*
X107349499Y-98933920D01*
X107378340Y-99078907D01*
X107378343Y-99078917D01*
X107434912Y-99215488D01*
X107434919Y-99215501D01*
X107517048Y-99338415D01*
X107517051Y-99338419D01*
X107621580Y-99442948D01*
X107621584Y-99442951D01*
X107744498Y-99525080D01*
X107744511Y-99525087D01*
X107869955Y-99577047D01*
X107881087Y-99581658D01*
X107881091Y-99581658D01*
X107881092Y-99581659D01*
X108026079Y-99610500D01*
X108026082Y-99610500D01*
X108173920Y-99610500D01*
X108271462Y-99591096D01*
X108318913Y-99581658D01*
X108455495Y-99525084D01*
X108578416Y-99442951D01*
X108682951Y-99338416D01*
X108765084Y-99215495D01*
X108767166Y-99210470D01*
X108805045Y-99119020D01*
X108821658Y-99078913D01*
X108836199Y-99005814D01*
X108850500Y-98933920D01*
X108850500Y-98786079D01*
X108821659Y-98641092D01*
X108821658Y-98641091D01*
X108821658Y-98641087D01*
X108814547Y-98623920D01*
X108765087Y-98504511D01*
X108765080Y-98504498D01*
X108682951Y-98381584D01*
X108682948Y-98381580D01*
X108578419Y-98277051D01*
X108578415Y-98277048D01*
X108455501Y-98194919D01*
X108455488Y-98194912D01*
X108318917Y-98138343D01*
X108318907Y-98138340D01*
X108173920Y-98109500D01*
X108173918Y-98109500D01*
X108026082Y-98109500D01*
X108026080Y-98109500D01*
X107881092Y-98138340D01*
X107881082Y-98138343D01*
X107744511Y-98194912D01*
X107744498Y-98194919D01*
X107621584Y-98277048D01*
X107621580Y-98277051D01*
X107517051Y-98381580D01*
X107517048Y-98381584D01*
X107434919Y-98504498D01*
X107434912Y-98504511D01*
X107378343Y-98641082D01*
X107378340Y-98641092D01*
X107349500Y-98786079D01*
X107349500Y-98786082D01*
X107349500Y-98933918D01*
X107349500Y-98933920D01*
X107349499Y-98933920D01*
X102607158Y-98933920D01*
X102621658Y-98898913D01*
X102646081Y-98776134D01*
X102650126Y-98755799D01*
X102650127Y-98755791D01*
X102650500Y-98753920D01*
X102650500Y-98753918D01*
X102650500Y-98606082D01*
X102650500Y-98606079D01*
X102621659Y-98461092D01*
X102621658Y-98461091D01*
X102621658Y-98461087D01*
X102617847Y-98451887D01*
X102565087Y-98324511D01*
X102565080Y-98324498D01*
X102482951Y-98201584D01*
X102482948Y-98201580D01*
X102378419Y-98097051D01*
X102378415Y-98097048D01*
X102255501Y-98014919D01*
X102255488Y-98014912D01*
X102118917Y-97958343D01*
X102118907Y-97958340D01*
X101973920Y-97929500D01*
X101973918Y-97929500D01*
X101826082Y-97929500D01*
X101826080Y-97929500D01*
X101681092Y-97958340D01*
X101681082Y-97958343D01*
X101544511Y-98014912D01*
X101544498Y-98014919D01*
X101421584Y-98097048D01*
X101421580Y-98097051D01*
X101317051Y-98201580D01*
X101317048Y-98201584D01*
X101234919Y-98324498D01*
X101234912Y-98324511D01*
X101178343Y-98461082D01*
X101178340Y-98461092D01*
X101149500Y-98606079D01*
X101149500Y-98606082D01*
X101149500Y-98753918D01*
X101149500Y-98753920D01*
X101149499Y-98753920D01*
X90812325Y-98753920D01*
X90823204Y-95811609D01*
X90843136Y-95744643D01*
X90896109Y-95699084D01*
X90946716Y-95688069D01*
X112064774Y-95605397D01*
X112131889Y-95624819D01*
X112177850Y-95677443D01*
X112188064Y-95746562D01*
X112179821Y-95776844D01*
X112171266Y-95797499D01*
X112171263Y-95797510D01*
X112140502Y-95952153D01*
X112140502Y-96109846D01*
X112171263Y-96264489D01*
X112171266Y-96264501D01*
X112231604Y-96410172D01*
X112231611Y-96410185D01*
X112319212Y-96541288D01*
X112319215Y-96541292D01*
X112430709Y-96652786D01*
X112430713Y-96652789D01*
X112561816Y-96740390D01*
X112561829Y-96740397D01*
X112699806Y-96797548D01*
X112707505Y-96800737D01*
X112862155Y-96831499D01*
X112862158Y-96831500D01*
X112862160Y-96831500D01*
X112918594Y-96831500D01*
X112932325Y-96835532D01*
X112946612Y-96834707D01*
X112965180Y-96845179D01*
X112985633Y-96851185D01*
X112996165Y-96862654D01*
X113007470Y-96869030D01*
X113021266Y-96889988D01*
X113028231Y-96897572D01*
X113030937Y-96902694D01*
X113050606Y-96950179D01*
X113076508Y-96988944D01*
X113079497Y-96994601D01*
X113085232Y-97022827D01*
X113093840Y-97050316D01*
X113092104Y-97056642D01*
X113093411Y-97063072D01*
X113082976Y-97089917D01*
X113075356Y-97117696D01*
X113070474Y-97122080D01*
X113068098Y-97128195D01*
X113044808Y-97145135D01*
X113023377Y-97164386D01*
X113016899Y-97165435D01*
X113011595Y-97169294D01*
X112982841Y-97170954D01*
X112954407Y-97175562D01*
X112945211Y-97173127D01*
X112941842Y-97173322D01*
X112938210Y-97171273D01*
X112922408Y-97167090D01*
X112833501Y-97130264D01*
X112833489Y-97130261D01*
X112678845Y-97099500D01*
X112678842Y-97099500D01*
X112521158Y-97099500D01*
X112521155Y-97099500D01*
X112366510Y-97130261D01*
X112366498Y-97130264D01*
X112220827Y-97190602D01*
X112220814Y-97190609D01*
X112089711Y-97278210D01*
X112089707Y-97278213D01*
X111978213Y-97389707D01*
X111978210Y-97389711D01*
X111890609Y-97520814D01*
X111890604Y-97520824D01*
X111860349Y-97593866D01*
X111816507Y-97648270D01*
X111766785Y-97666568D01*
X111767132Y-97668311D01*
X111606510Y-97700261D01*
X111606498Y-97700264D01*
X111460827Y-97760602D01*
X111460814Y-97760609D01*
X111329711Y-97848210D01*
X111329707Y-97848213D01*
X111218213Y-97959707D01*
X111218210Y-97959711D01*
X111130609Y-98090814D01*
X111130602Y-98090827D01*
X111070264Y-98236498D01*
X111070261Y-98236510D01*
X111039500Y-98391153D01*
X111039500Y-98436434D01*
X111037263Y-98444051D01*
X111038533Y-98451887D01*
X111027560Y-98477095D01*
X111019815Y-98503473D01*
X111013105Y-98510303D01*
X111010648Y-98515950D01*
X110984391Y-98539536D01*
X110952204Y-98561043D01*
X110885527Y-98581921D01*
X110818147Y-98563437D01*
X110771456Y-98511458D01*
X110763263Y-98481743D01*
X110761689Y-98482057D01*
X110731659Y-98331092D01*
X110731658Y-98331091D01*
X110731658Y-98331087D01*
X110709275Y-98277049D01*
X110675087Y-98194511D01*
X110675080Y-98194498D01*
X110592951Y-98071584D01*
X110592948Y-98071580D01*
X110488419Y-97967051D01*
X110488415Y-97967048D01*
X110365501Y-97884919D01*
X110365488Y-97884912D01*
X110228917Y-97828343D01*
X110228907Y-97828340D01*
X110083920Y-97799500D01*
X110083918Y-97799500D01*
X109936082Y-97799500D01*
X109936080Y-97799500D01*
X109791092Y-97828340D01*
X109791082Y-97828343D01*
X109654511Y-97884912D01*
X109654498Y-97884919D01*
X109531584Y-97967048D01*
X109531580Y-97967051D01*
X109427051Y-98071580D01*
X109427048Y-98071584D01*
X109344919Y-98194498D01*
X109344912Y-98194511D01*
X109288343Y-98331082D01*
X109288340Y-98331092D01*
X109259500Y-98476079D01*
X109259500Y-98476082D01*
X109259500Y-98623918D01*
X109259500Y-98623920D01*
X109259499Y-98623920D01*
X109288340Y-98768907D01*
X109288343Y-98768917D01*
X109344912Y-98905488D01*
X109344919Y-98905501D01*
X109427048Y-99028415D01*
X109427051Y-99028419D01*
X109531580Y-99132948D01*
X109531584Y-99132951D01*
X109654498Y-99215080D01*
X109654511Y-99215087D01*
X109791082Y-99271656D01*
X109791087Y-99271658D01*
X109791091Y-99271658D01*
X109791092Y-99271659D01*
X109936079Y-99300500D01*
X109936082Y-99300500D01*
X110083920Y-99300500D01*
X110181462Y-99281096D01*
X110228913Y-99271658D01*
X110335706Y-99227423D01*
X110365488Y-99215087D01*
X110365488Y-99215086D01*
X110365495Y-99215084D01*
X110446611Y-99160883D01*
X110513286Y-99140007D01*
X110580666Y-99158491D01*
X110627357Y-99210470D01*
X110639500Y-99263987D01*
X110639500Y-99276708D01*
X110670261Y-99431351D01*
X110670264Y-99431363D01*
X110730602Y-99577034D01*
X110730609Y-99577047D01*
X110799239Y-99679758D01*
X110820117Y-99746435D01*
X110801633Y-99813816D01*
X110765028Y-99851751D01*
X110749711Y-99861985D01*
X110749707Y-99861988D01*
X110638213Y-99973482D01*
X110638210Y-99973486D01*
X110550609Y-100104589D01*
X110550602Y-100104602D01*
X110490264Y-100250273D01*
X110490261Y-100250285D01*
X110459500Y-100404928D01*
X110459500Y-100562621D01*
X110490261Y-100717264D01*
X110490264Y-100717276D01*
X110550602Y-100862947D01*
X110550609Y-100862960D01*
X110638210Y-100994063D01*
X110638213Y-100994067D01*
X110711965Y-101067819D01*
X110745450Y-101129142D01*
X110740466Y-101198834D01*
X110698594Y-101254767D01*
X110633130Y-101279184D01*
X110624284Y-101279500D01*
X110461155Y-101279500D01*
X110306510Y-101310261D01*
X110306498Y-101310264D01*
X110160827Y-101370602D01*
X110160814Y-101370609D01*
X110029711Y-101458210D01*
X110029707Y-101458213D01*
X109918213Y-101569707D01*
X109918210Y-101569711D01*
X109830609Y-101700814D01*
X109830602Y-101700827D01*
X109770264Y-101846498D01*
X109770261Y-101846510D01*
X109739500Y-102001153D01*
X109739500Y-102158846D01*
X109770261Y-102313489D01*
X109770264Y-102313501D01*
X109830602Y-102459172D01*
X109830609Y-102459185D01*
X109918210Y-102590288D01*
X109918213Y-102590292D01*
X110029707Y-102701786D01*
X110029711Y-102701789D01*
X110160814Y-102789390D01*
X110160818Y-102789392D01*
X110160821Y-102789394D01*
X110306503Y-102849737D01*
X110306511Y-102849738D01*
X110308936Y-102850743D01*
X110363339Y-102894584D01*
X110385405Y-102960878D01*
X110378037Y-103001822D01*
X110379718Y-103002332D01*
X110377948Y-103008166D01*
X110339500Y-103201456D01*
X110339500Y-103201457D01*
X110339500Y-103201459D01*
X110339500Y-103398541D01*
X110339500Y-103398543D01*
X110339499Y-103398543D01*
X110377947Y-103591829D01*
X110377950Y-103591839D01*
X110453364Y-103773907D01*
X110453371Y-103773920D01*
X110562860Y-103937781D01*
X110562863Y-103937785D01*
X110702214Y-104077136D01*
X110702218Y-104077139D01*
X110866079Y-104186628D01*
X110866092Y-104186635D01*
X111048160Y-104262049D01*
X111048165Y-104262051D01*
X111048169Y-104262051D01*
X111048170Y-104262052D01*
X111241456Y-104300500D01*
X111241459Y-104300500D01*
X111438543Y-104300500D01*
X111609418Y-104266510D01*
X111631835Y-104262051D01*
X111813914Y-104186632D01*
X111977782Y-104077139D01*
X112117139Y-103937782D01*
X112226632Y-103773914D01*
X112302051Y-103591835D01*
X112326168Y-103470592D01*
X112340500Y-103398543D01*
X112340500Y-103358543D01*
X119339499Y-103358543D01*
X119377947Y-103551829D01*
X119377950Y-103551839D01*
X119453364Y-103733907D01*
X119453371Y-103733920D01*
X119562860Y-103897781D01*
X119562863Y-103897785D01*
X119702214Y-104037136D01*
X119702218Y-104037139D01*
X119866079Y-104146628D01*
X119866092Y-104146635D01*
X120048160Y-104222049D01*
X120048165Y-104222051D01*
X120048169Y-104222051D01*
X120048170Y-104222052D01*
X120241456Y-104260500D01*
X120241459Y-104260500D01*
X120438543Y-104260500D01*
X120596679Y-104229044D01*
X120631835Y-104222051D01*
X120813914Y-104146632D01*
X120977782Y-104037139D01*
X121117139Y-103897782D01*
X121226632Y-103733914D01*
X121302051Y-103551835D01*
X121332543Y-103398543D01*
X121340500Y-103358543D01*
X121340500Y-103161456D01*
X121302052Y-102968170D01*
X121302051Y-102968169D01*
X121302051Y-102968165D01*
X121271573Y-102894584D01*
X121226635Y-102786092D01*
X121226627Y-102786077D01*
X121220835Y-102777409D01*
X121220834Y-102777408D01*
X121178058Y-102713389D01*
X122359500Y-102713389D01*
X122359500Y-102886610D01*
X122377747Y-103001822D01*
X122386598Y-103057701D01*
X122440127Y-103222445D01*
X122518768Y-103376788D01*
X122620586Y-103516928D01*
X122743072Y-103639414D01*
X122825773Y-103699500D01*
X122883213Y-103741233D01*
X123011794Y-103806747D01*
X123062590Y-103854721D01*
X123079500Y-103917232D01*
X123079500Y-105137870D01*
X123079501Y-105137876D01*
X123085908Y-105197483D01*
X123136202Y-105332328D01*
X123136206Y-105332335D01*
X123222452Y-105447544D01*
X123222455Y-105447547D01*
X123337664Y-105533793D01*
X123337671Y-105533797D01*
X123472517Y-105584091D01*
X123472516Y-105584091D01*
X123479444Y-105584835D01*
X123532127Y-105590500D01*
X124827872Y-105590499D01*
X124887483Y-105584091D01*
X125022331Y-105533796D01*
X125137546Y-105447546D01*
X125222565Y-105333975D01*
X125278498Y-105292105D01*
X125348190Y-105287121D01*
X125394041Y-105309309D01*
X125394646Y-105308405D01*
X125530814Y-105399390D01*
X125530827Y-105399397D01*
X125676498Y-105459735D01*
X125676503Y-105459737D01*
X125803508Y-105485000D01*
X125831153Y-105490499D01*
X125831156Y-105490500D01*
X125831158Y-105490500D01*
X125988844Y-105490500D01*
X125988845Y-105490499D01*
X126143497Y-105459737D01*
X126289179Y-105399394D01*
X126420289Y-105311789D01*
X126423673Y-105308405D01*
X126440730Y-105291349D01*
X126531786Y-105200292D01*
X126531789Y-105200289D01*
X126619394Y-105069179D01*
X126679737Y-104923497D01*
X126710500Y-104768842D01*
X126710500Y-104611158D01*
X126710500Y-104611155D01*
X126710499Y-104611153D01*
X126703620Y-104576571D01*
X126679737Y-104456503D01*
X126657753Y-104403428D01*
X128080000Y-104403428D01*
X128080000Y-104576571D01*
X128107085Y-104747584D01*
X128160592Y-104912259D01*
X128239196Y-105066525D01*
X128243709Y-105072736D01*
X128243709Y-105072737D01*
X128758274Y-104558172D01*
X128783963Y-104654044D01*
X128839916Y-104750956D01*
X128919044Y-104830084D01*
X129015956Y-104886037D01*
X129111827Y-104911725D01*
X128597261Y-105426289D01*
X128597262Y-105426290D01*
X128603471Y-105430801D01*
X128757742Y-105509408D01*
X128922415Y-105562914D01*
X129093429Y-105590000D01*
X129266571Y-105590000D01*
X129437584Y-105562914D01*
X129602257Y-105509408D01*
X129756525Y-105430803D01*
X129762736Y-105426289D01*
X129762737Y-105426289D01*
X129248173Y-104911725D01*
X129344044Y-104886037D01*
X129440956Y-104830084D01*
X129520084Y-104750956D01*
X129576037Y-104654044D01*
X129601725Y-104558173D01*
X130116289Y-105072737D01*
X130116289Y-105072736D01*
X130120803Y-105066525D01*
X130156704Y-104996067D01*
X130204679Y-104945271D01*
X130272500Y-104928476D01*
X130338634Y-104951013D01*
X130370291Y-104983470D01*
X130388213Y-105010292D01*
X130499707Y-105121786D01*
X130499711Y-105121789D01*
X130630814Y-105209390D01*
X130630827Y-105209397D01*
X130736622Y-105253218D01*
X130776503Y-105269737D01*
X130919661Y-105298213D01*
X130931153Y-105300499D01*
X130931156Y-105300500D01*
X130931158Y-105300500D01*
X131088844Y-105300500D01*
X131088845Y-105300499D01*
X131243497Y-105269737D01*
X131389179Y-105209394D01*
X131520289Y-105121789D01*
X131631789Y-105010289D01*
X131719394Y-104879179D01*
X131779737Y-104733497D01*
X131810500Y-104578842D01*
X131810500Y-104421158D01*
X131810500Y-104421155D01*
X131810499Y-104421153D01*
X131791563Y-104325956D01*
X131779737Y-104266503D01*
X131777892Y-104262049D01*
X131719397Y-104120827D01*
X131719390Y-104120814D01*
X131631789Y-103989711D01*
X131631786Y-103989707D01*
X131520292Y-103878213D01*
X131520288Y-103878210D01*
X131389185Y-103790609D01*
X131389172Y-103790602D01*
X131243501Y-103730264D01*
X131243489Y-103730261D01*
X131088845Y-103699500D01*
X131088842Y-103699500D01*
X130931158Y-103699500D01*
X130931155Y-103699500D01*
X130776510Y-103730261D01*
X130776498Y-103730264D01*
X130630827Y-103790602D01*
X130630814Y-103790609D01*
X130499711Y-103878210D01*
X130499707Y-103878213D01*
X130388213Y-103989707D01*
X130388210Y-103989711D01*
X130376073Y-104007876D01*
X130322460Y-104052681D01*
X130253135Y-104061388D01*
X130190108Y-104031233D01*
X130162486Y-103995280D01*
X130120801Y-103913471D01*
X130116290Y-103907262D01*
X130116289Y-103907261D01*
X129601725Y-104421826D01*
X129576037Y-104325956D01*
X129520084Y-104229044D01*
X129440956Y-104149916D01*
X129344044Y-104093963D01*
X129248172Y-104068274D01*
X129762737Y-103553709D01*
X129756525Y-103549196D01*
X129602259Y-103470592D01*
X129437584Y-103417085D01*
X129266571Y-103390000D01*
X129093429Y-103390000D01*
X128922415Y-103417085D01*
X128757740Y-103470592D01*
X128603480Y-103549193D01*
X128603463Y-103549203D01*
X128597261Y-103553708D01*
X128597261Y-103553709D01*
X129111828Y-104068274D01*
X129015956Y-104093963D01*
X128919044Y-104149916D01*
X128839916Y-104229044D01*
X128783963Y-104325956D01*
X128758274Y-104421827D01*
X128243709Y-103907261D01*
X128243708Y-103907261D01*
X128239203Y-103913463D01*
X128239193Y-103913480D01*
X128160592Y-104067740D01*
X128107085Y-104232415D01*
X128080000Y-104403428D01*
X126657753Y-104403428D01*
X126625663Y-104325956D01*
X126619397Y-104310827D01*
X126619390Y-104310814D01*
X126531789Y-104179711D01*
X126531786Y-104179707D01*
X126420292Y-104068213D01*
X126420288Y-104068210D01*
X126289185Y-103980609D01*
X126289172Y-103980602D01*
X126143501Y-103920264D01*
X126143489Y-103920261D01*
X125988845Y-103889500D01*
X125988842Y-103889500D01*
X125831158Y-103889500D01*
X125831155Y-103889500D01*
X125676510Y-103920261D01*
X125676498Y-103920264D01*
X125530827Y-103980602D01*
X125530816Y-103980608D01*
X125473389Y-104018980D01*
X125406712Y-104039857D01*
X125339332Y-104021372D01*
X125292642Y-103969393D01*
X125280499Y-103915877D01*
X125280499Y-103842129D01*
X125280498Y-103842123D01*
X125278106Y-103819873D01*
X125274091Y-103782517D01*
X125270882Y-103773914D01*
X125254601Y-103730261D01*
X125223796Y-103647669D01*
X125223794Y-103647666D01*
X125223793Y-103647664D01*
X125137547Y-103532455D01*
X125137544Y-103532452D01*
X125022335Y-103446206D01*
X125022328Y-103446202D01*
X124887482Y-103395908D01*
X124887483Y-103395908D01*
X124827883Y-103389501D01*
X124827881Y-103389500D01*
X124827873Y-103389500D01*
X124827865Y-103389500D01*
X124596255Y-103389500D01*
X124529216Y-103369815D01*
X124483461Y-103317011D01*
X124473517Y-103247853D01*
X124479174Y-103227341D01*
X124478367Y-103227079D01*
X124479873Y-103222445D01*
X124533402Y-103057701D01*
X124560500Y-102886611D01*
X124560500Y-102713389D01*
X124533402Y-102542299D01*
X124479873Y-102377555D01*
X124401232Y-102223212D01*
X124299414Y-102083072D01*
X124176928Y-101960586D01*
X124036788Y-101858768D01*
X123940558Y-101809737D01*
X123882447Y-101780128D01*
X123882446Y-101780127D01*
X123882445Y-101780127D01*
X123717701Y-101726598D01*
X123717699Y-101726597D01*
X123717698Y-101726597D01*
X123554951Y-101700821D01*
X123546611Y-101699500D01*
X123373389Y-101699500D01*
X123365049Y-101700821D01*
X123202302Y-101726597D01*
X123037552Y-101780128D01*
X122883211Y-101858768D01*
X122803256Y-101916859D01*
X122743072Y-101960586D01*
X122743070Y-101960588D01*
X122743069Y-101960588D01*
X122620588Y-102083069D01*
X122620588Y-102083070D01*
X122620586Y-102083072D01*
X122576859Y-102143256D01*
X122518768Y-102223211D01*
X122440128Y-102377552D01*
X122386597Y-102542302D01*
X122359500Y-102713389D01*
X121178058Y-102713389D01*
X121117139Y-102622218D01*
X121117136Y-102622214D01*
X120977785Y-102482863D01*
X120977781Y-102482860D01*
X120813920Y-102373371D01*
X120813907Y-102373364D01*
X120631839Y-102297950D01*
X120631829Y-102297947D01*
X120438543Y-102259500D01*
X120438541Y-102259500D01*
X120241459Y-102259500D01*
X120241457Y-102259500D01*
X120048170Y-102297947D01*
X120048160Y-102297950D01*
X119866092Y-102373364D01*
X119866079Y-102373371D01*
X119702218Y-102482860D01*
X119702214Y-102482863D01*
X119562863Y-102622214D01*
X119562860Y-102622218D01*
X119453371Y-102786079D01*
X119453364Y-102786092D01*
X119377950Y-102968160D01*
X119377947Y-102968170D01*
X119339500Y-103161456D01*
X119339500Y-103161459D01*
X119339500Y-103358541D01*
X119339500Y-103358543D01*
X119339499Y-103358543D01*
X112340500Y-103358543D01*
X112340500Y-103201457D01*
X112336144Y-103179560D01*
X112336144Y-103179558D01*
X112311904Y-103057701D01*
X112302051Y-103008165D01*
X112237551Y-102852447D01*
X112226635Y-102826092D01*
X112226628Y-102826079D01*
X112117139Y-102662218D01*
X112117136Y-102662214D01*
X111977785Y-102522863D01*
X111977781Y-102522860D01*
X111813920Y-102413371D01*
X111813907Y-102413364D01*
X111631839Y-102337950D01*
X111631829Y-102337947D01*
X111438934Y-102299577D01*
X111377023Y-102267192D01*
X111342449Y-102206476D01*
X111341727Y-102165086D01*
X111339903Y-102164907D01*
X111340500Y-102158844D01*
X111340500Y-102001155D01*
X111340499Y-102001153D01*
X111332430Y-101960586D01*
X111309737Y-101846503D01*
X111309735Y-101846498D01*
X111249397Y-101700827D01*
X111249390Y-101700814D01*
X111161789Y-101569711D01*
X111161786Y-101569707D01*
X111088035Y-101495956D01*
X111054550Y-101434633D01*
X111059534Y-101364941D01*
X111101406Y-101309008D01*
X111166870Y-101284591D01*
X111175716Y-101284275D01*
X111338844Y-101284275D01*
X111338845Y-101284274D01*
X111493497Y-101253512D01*
X111606166Y-101206842D01*
X111639172Y-101193172D01*
X111639172Y-101193171D01*
X111639179Y-101193169D01*
X111770289Y-101105564D01*
X111881789Y-100994064D01*
X111969394Y-100862954D01*
X112029737Y-100717272D01*
X112060500Y-100562617D01*
X112060500Y-100404933D01*
X112060500Y-100404930D01*
X112060499Y-100404928D01*
X112045715Y-100330606D01*
X112029737Y-100250278D01*
X112029735Y-100250273D01*
X111969397Y-100104602D01*
X111969390Y-100104589D01*
X111900760Y-100001878D01*
X111879882Y-99935201D01*
X111898366Y-99867821D01*
X111934971Y-99829886D01*
X111950289Y-99819651D01*
X112061789Y-99708151D01*
X112149394Y-99577041D01*
X112209737Y-99431359D01*
X112226898Y-99345087D01*
X112234643Y-99306153D01*
X122544500Y-99306153D01*
X122544500Y-99463846D01*
X122575261Y-99618489D01*
X122575264Y-99618501D01*
X122635602Y-99764172D01*
X122635609Y-99764185D01*
X122723210Y-99895288D01*
X122723213Y-99895292D01*
X122834707Y-100006786D01*
X122834711Y-100006789D01*
X122965814Y-100094390D01*
X122965827Y-100094397D01*
X123111498Y-100154735D01*
X123111503Y-100154737D01*
X123266153Y-100185499D01*
X123266156Y-100185500D01*
X123266158Y-100185500D01*
X123423844Y-100185500D01*
X123423845Y-100185499D01*
X123578497Y-100154737D01*
X123724179Y-100094394D01*
X123855289Y-100006789D01*
X123966789Y-99895289D01*
X124054394Y-99764179D01*
X124114737Y-99618497D01*
X124145500Y-99463842D01*
X124145500Y-99306158D01*
X124145500Y-99306155D01*
X124145499Y-99306153D01*
X124138637Y-99271656D01*
X124114737Y-99151503D01*
X124084671Y-99078917D01*
X124054397Y-99005827D01*
X124054390Y-99005814D01*
X123966789Y-98874711D01*
X123966786Y-98874707D01*
X123855292Y-98763213D01*
X123855288Y-98763210D01*
X123724185Y-98675609D01*
X123724172Y-98675602D01*
X123578501Y-98615264D01*
X123578489Y-98615261D01*
X123423845Y-98584500D01*
X123423842Y-98584500D01*
X123266158Y-98584500D01*
X123266155Y-98584500D01*
X123111510Y-98615261D01*
X123111498Y-98615264D01*
X122965827Y-98675602D01*
X122965814Y-98675609D01*
X122834711Y-98763210D01*
X122834707Y-98763213D01*
X122723213Y-98874707D01*
X122723210Y-98874711D01*
X122635609Y-99005814D01*
X122635602Y-99005827D01*
X122575264Y-99151498D01*
X122575261Y-99151510D01*
X122544500Y-99306153D01*
X112234643Y-99306153D01*
X112238677Y-99285872D01*
X112238677Y-99285868D01*
X112240500Y-99276704D01*
X112240500Y-99229435D01*
X112240565Y-99227423D01*
X112250885Y-99196058D01*
X112260185Y-99164387D01*
X112261871Y-99162670D01*
X112262403Y-99161054D01*
X112267607Y-99156830D01*
X112295607Y-99128325D01*
X112350289Y-99091789D01*
X112461789Y-98980289D01*
X112549394Y-98849179D01*
X112549395Y-98849176D01*
X112549397Y-98849173D01*
X112579650Y-98776134D01*
X112623490Y-98721730D01*
X112673216Y-98703440D01*
X112672868Y-98701689D01*
X112759334Y-98684488D01*
X112833497Y-98669737D01*
X112946166Y-98623067D01*
X112979172Y-98609397D01*
X112979172Y-98609396D01*
X112979179Y-98609394D01*
X113110289Y-98521789D01*
X113221789Y-98410289D01*
X113309394Y-98279179D01*
X113310276Y-98277051D01*
X113344295Y-98194919D01*
X113369737Y-98133497D01*
X113400500Y-97978842D01*
X113400500Y-97821158D01*
X113400500Y-97821155D01*
X113400499Y-97821153D01*
X113388455Y-97760606D01*
X113369737Y-97666503D01*
X113333907Y-97580000D01*
X113309397Y-97520827D01*
X113309395Y-97520823D01*
X113309394Y-97520821D01*
X113287037Y-97487361D01*
X113266159Y-97420684D01*
X113284643Y-97353304D01*
X113336622Y-97306613D01*
X113405592Y-97295437D01*
X113437591Y-97303909D01*
X113451664Y-97309738D01*
X113526503Y-97340737D01*
X113681153Y-97371499D01*
X113681156Y-97371500D01*
X113681158Y-97371500D01*
X113838844Y-97371500D01*
X113838845Y-97371499D01*
X113993497Y-97340737D01*
X114139179Y-97280394D01*
X114270289Y-97192789D01*
X114347189Y-97115888D01*
X114408510Y-97082405D01*
X114478202Y-97087389D01*
X114482299Y-97089001D01*
X114556503Y-97119737D01*
X114684187Y-97145135D01*
X114711153Y-97150499D01*
X114711156Y-97150500D01*
X114711158Y-97150500D01*
X114868844Y-97150500D01*
X114868845Y-97150499D01*
X115023497Y-97119737D01*
X115144213Y-97069735D01*
X115169172Y-97059397D01*
X115169172Y-97059396D01*
X115169179Y-97059394D01*
X115300289Y-96971789D01*
X115411789Y-96860289D01*
X115418478Y-96850277D01*
X115472083Y-96805472D01*
X115541408Y-96796760D01*
X115545754Y-96797544D01*
X115568857Y-96802140D01*
X115661155Y-96820500D01*
X115661158Y-96820500D01*
X115818844Y-96820500D01*
X115818845Y-96820499D01*
X115973497Y-96789737D01*
X116029120Y-96766697D01*
X116124808Y-96727063D01*
X116125817Y-96729499D01*
X116145453Y-96725405D01*
X116175849Y-96717210D01*
X116180284Y-96718143D01*
X116183008Y-96717576D01*
X116210664Y-96723008D01*
X116215676Y-96724601D01*
X116319354Y-96767546D01*
X116403197Y-96784223D01*
X116409783Y-96786317D01*
X116433241Y-96802140D01*
X116458312Y-96815255D01*
X116463098Y-96822281D01*
X116467706Y-96825389D01*
X116471969Y-96835301D01*
X116481567Y-96849390D01*
X116482708Y-96848781D01*
X116485581Y-96854157D01*
X116573182Y-96985260D01*
X116573185Y-96985264D01*
X116684679Y-97096758D01*
X116684683Y-97096761D01*
X116815786Y-97184362D01*
X116815799Y-97184369D01*
X116927171Y-97230500D01*
X116961475Y-97244709D01*
X117116125Y-97275471D01*
X117116128Y-97275472D01*
X117116130Y-97275472D01*
X117273816Y-97275472D01*
X117273817Y-97275471D01*
X117428469Y-97244709D01*
X117574151Y-97184366D01*
X117705261Y-97096761D01*
X117816761Y-96985261D01*
X117879409Y-96891500D01*
X117933019Y-96846698D01*
X118002344Y-96837990D01*
X118065372Y-96868144D01*
X118085612Y-96891502D01*
X118118210Y-96940288D01*
X118118213Y-96940292D01*
X118229707Y-97051786D01*
X118229711Y-97051789D01*
X118360814Y-97139390D01*
X118360827Y-97139397D01*
X118484466Y-97190609D01*
X118506503Y-97199737D01*
X118661153Y-97230499D01*
X118661156Y-97230500D01*
X118661158Y-97230500D01*
X118818844Y-97230500D01*
X118818845Y-97230499D01*
X118973497Y-97199737D01*
X119119179Y-97139394D01*
X119219246Y-97072530D01*
X119285921Y-97051654D01*
X119335588Y-97061073D01*
X119356503Y-97069737D01*
X119492346Y-97096758D01*
X119511153Y-97100499D01*
X119511156Y-97100500D01*
X119511158Y-97100500D01*
X119668844Y-97100500D01*
X119668845Y-97100499D01*
X119823497Y-97069737D01*
X119969179Y-97009394D01*
X119969189Y-97009386D01*
X119974463Y-97006568D01*
X120042864Y-96992318D01*
X120108111Y-97017309D01*
X120136031Y-97047027D01*
X120138211Y-97050289D01*
X120138214Y-97050293D01*
X120249707Y-97161786D01*
X120249711Y-97161789D01*
X120380814Y-97249390D01*
X120380827Y-97249397D01*
X120455669Y-97280397D01*
X120526503Y-97309737D01*
X120681153Y-97340499D01*
X120681156Y-97340500D01*
X120681158Y-97340500D01*
X120838844Y-97340500D01*
X120838845Y-97340499D01*
X120993497Y-97309737D01*
X121139179Y-97249394D01*
X121183502Y-97219778D01*
X137769500Y-97219778D01*
X137769500Y-97440221D01*
X137803985Y-97657952D01*
X137872103Y-97867603D01*
X137872104Y-97867606D01*
X137972187Y-98064025D01*
X138101752Y-98242358D01*
X138101756Y-98242363D01*
X138257636Y-98398243D01*
X138257641Y-98398247D01*
X138364769Y-98476079D01*
X138435978Y-98527815D01*
X138552501Y-98587187D01*
X138632393Y-98627895D01*
X138632396Y-98627896D01*
X138737221Y-98661955D01*
X138842049Y-98696015D01*
X139059778Y-98730500D01*
X139059779Y-98730500D01*
X139280221Y-98730500D01*
X139280222Y-98730500D01*
X139497951Y-98696015D01*
X139707606Y-98627895D01*
X139904022Y-98527815D01*
X140082365Y-98398242D01*
X140132924Y-98347682D01*
X140194245Y-98314198D01*
X140263936Y-98319182D01*
X140319870Y-98361053D01*
X140336786Y-98392030D01*
X140366646Y-98472087D01*
X140366649Y-98472093D01*
X140452809Y-98587187D01*
X140452812Y-98587190D01*
X140567906Y-98673350D01*
X140567913Y-98673354D01*
X140702620Y-98723596D01*
X140702627Y-98723598D01*
X140762155Y-98729999D01*
X140762172Y-98730000D01*
X141460000Y-98730000D01*
X141460000Y-97705277D01*
X141536306Y-97749333D01*
X141650756Y-97780000D01*
X141769244Y-97780000D01*
X141883694Y-97749333D01*
X141960000Y-97705277D01*
X141960000Y-98730000D01*
X142657828Y-98730000D01*
X142657844Y-98729999D01*
X142717372Y-98723598D01*
X142717379Y-98723596D01*
X142852086Y-98673354D01*
X142852093Y-98673350D01*
X142967187Y-98587190D01*
X142967190Y-98587187D01*
X143053350Y-98472093D01*
X143053354Y-98472086D01*
X143103596Y-98337379D01*
X143103598Y-98337372D01*
X143109999Y-98277844D01*
X143110000Y-98277827D01*
X143110000Y-97580000D01*
X142085278Y-97580000D01*
X142129333Y-97503694D01*
X142160000Y-97389244D01*
X142160000Y-97270756D01*
X142129333Y-97156306D01*
X142085278Y-97080000D01*
X143110000Y-97080000D01*
X143110000Y-96382172D01*
X143109999Y-96382155D01*
X143103598Y-96322627D01*
X143103596Y-96322620D01*
X143053354Y-96187913D01*
X143053350Y-96187906D01*
X142967190Y-96072812D01*
X142967187Y-96072809D01*
X142852093Y-95986649D01*
X142852086Y-95986645D01*
X142717379Y-95936403D01*
X142717372Y-95936401D01*
X142657844Y-95930000D01*
X141960000Y-95930000D01*
X141960000Y-96954722D01*
X141883694Y-96910667D01*
X141769244Y-96880000D01*
X141650756Y-96880000D01*
X141536306Y-96910667D01*
X141460000Y-96954722D01*
X141460000Y-95930000D01*
X140762155Y-95930000D01*
X140702627Y-95936401D01*
X140702620Y-95936403D01*
X140567913Y-95986645D01*
X140567906Y-95986649D01*
X140452812Y-96072809D01*
X140452809Y-96072812D01*
X140366649Y-96187906D01*
X140366643Y-96187918D01*
X140336785Y-96267969D01*
X140294914Y-96323903D01*
X140229449Y-96348319D01*
X140161176Y-96333467D01*
X140132923Y-96312316D01*
X140082363Y-96261756D01*
X140082358Y-96261752D01*
X139904025Y-96132187D01*
X139904024Y-96132186D01*
X139904022Y-96132185D01*
X139841096Y-96100122D01*
X139707606Y-96032104D01*
X139707603Y-96032103D01*
X139497952Y-95963985D01*
X139389086Y-95946742D01*
X139280222Y-95929500D01*
X139059778Y-95929500D01*
X138987201Y-95940995D01*
X138842047Y-95963985D01*
X138632396Y-96032103D01*
X138632393Y-96032104D01*
X138435974Y-96132187D01*
X138257641Y-96261752D01*
X138257636Y-96261756D01*
X138101756Y-96417636D01*
X138101752Y-96417641D01*
X137972187Y-96595974D01*
X137872104Y-96792393D01*
X137872103Y-96792396D01*
X137803985Y-97002047D01*
X137769500Y-97219778D01*
X121183502Y-97219778D01*
X121270289Y-97161789D01*
X121381789Y-97050289D01*
X121381791Y-97050285D01*
X121385769Y-97046308D01*
X121447092Y-97012823D01*
X121516784Y-97017807D01*
X121520885Y-97019420D01*
X121666503Y-97079737D01*
X121821153Y-97110499D01*
X121821156Y-97110500D01*
X121821158Y-97110500D01*
X121978844Y-97110500D01*
X121978845Y-97110499D01*
X122133497Y-97079737D01*
X122279179Y-97019394D01*
X122410289Y-96931789D01*
X122521789Y-96820289D01*
X122609394Y-96689179D01*
X122669737Y-96543497D01*
X122700500Y-96388842D01*
X122700500Y-96231158D01*
X122700500Y-96231155D01*
X122700499Y-96231153D01*
X122691898Y-96187913D01*
X122669737Y-96076503D01*
X122659099Y-96050821D01*
X122609397Y-95930827D01*
X122609390Y-95930814D01*
X122521789Y-95799711D01*
X122521786Y-95799707D01*
X122497971Y-95775892D01*
X122464486Y-95714569D01*
X122469470Y-95644877D01*
X122511342Y-95588944D01*
X122576806Y-95564527D01*
X122585149Y-95564212D01*
X131348168Y-95529907D01*
X131415283Y-95549329D01*
X131461244Y-95601953D01*
X131471458Y-95671072D01*
X131442682Y-95734741D01*
X131436334Y-95741587D01*
X131338210Y-95839711D01*
X131250609Y-95970814D01*
X131250602Y-95970827D01*
X131190264Y-96116498D01*
X131190261Y-96116510D01*
X131159500Y-96271153D01*
X131159500Y-96428846D01*
X131190261Y-96583489D01*
X131190264Y-96583501D01*
X131250602Y-96729172D01*
X131250609Y-96729185D01*
X131338210Y-96860288D01*
X131338213Y-96860292D01*
X131449707Y-96971786D01*
X131449711Y-96971789D01*
X131580814Y-97059390D01*
X131580827Y-97059397D01*
X131726498Y-97119735D01*
X131726503Y-97119737D01*
X131854187Y-97145135D01*
X131881153Y-97150499D01*
X131881156Y-97150500D01*
X131881158Y-97150500D01*
X132038844Y-97150500D01*
X132038845Y-97150499D01*
X132193497Y-97119737D01*
X132215800Y-97110499D01*
X132240315Y-97100345D01*
X132339172Y-97059397D01*
X132339172Y-97059396D01*
X132339179Y-97059394D01*
X132470289Y-96971789D01*
X132581789Y-96860289D01*
X132669394Y-96729179D01*
X132670271Y-96727063D01*
X132694309Y-96669028D01*
X132729737Y-96583497D01*
X132760500Y-96428842D01*
X132760500Y-96271158D01*
X132760500Y-96271155D01*
X132760499Y-96271153D01*
X132743940Y-96187906D01*
X132729737Y-96116503D01*
X132721159Y-96095793D01*
X132669397Y-95970827D01*
X132669390Y-95970814D01*
X132581789Y-95839711D01*
X132581786Y-95839707D01*
X132478898Y-95736819D01*
X132445413Y-95675496D01*
X132450397Y-95605804D01*
X132492269Y-95549871D01*
X132557733Y-95525454D01*
X132566077Y-95525139D01*
X143987669Y-95480426D01*
X144054783Y-95499848D01*
G37*
%TD.AperFunction*%
%TD*%
M02*
