%TF.GenerationSoftware,KiCad,Pcbnew,9.0.3*%
%TF.CreationDate,2025-09-25T12:47:50+01:00*%
%TF.ProjectId,power_bank,706f7765-725f-4626-916e-6b2e6b696361,rev?*%
%TF.SameCoordinates,Original*%
%TF.FileFunction,Copper,L3,Inr*%
%TF.FilePolarity,Positive*%
%FSLAX46Y46*%
G04 Gerber Fmt 4.6, Leading zero omitted, Abs format (unit mm)*
G04 Created by KiCad (PCBNEW 9.0.3) date 2025-09-25 12:47:50*
%MOMM*%
%LPD*%
G01*
G04 APERTURE LIST*
%TA.AperFunction,ComponentPad*%
%ADD10C,3.800000*%
%TD*%
%TA.AperFunction,HeatsinkPad*%
%ADD11O,1.800000X1.150000*%
%TD*%
%TA.AperFunction,HeatsinkPad*%
%ADD12O,2.000000X1.450000*%
%TD*%
%TA.AperFunction,ComponentPad*%
%ADD13R,1.200000X1.200000*%
%TD*%
%TA.AperFunction,ComponentPad*%
%ADD14C,1.200000*%
%TD*%
%TA.AperFunction,HeatsinkPad*%
%ADD15O,1.900000X3.500000*%
%TD*%
%TA.AperFunction,ComponentPad*%
%ADD16R,1.800000X1.800000*%
%TD*%
%TA.AperFunction,ComponentPad*%
%ADD17C,1.800000*%
%TD*%
%TA.AperFunction,HeatsinkPad*%
%ADD18O,1.000000X2.100000*%
%TD*%
%TA.AperFunction,HeatsinkPad*%
%ADD19O,1.000000X1.600000*%
%TD*%
%TA.AperFunction,ViaPad*%
%ADD20C,1.000000*%
%TD*%
%TA.AperFunction,ViaPad*%
%ADD21C,0.600000*%
%TD*%
%TA.AperFunction,ViaPad*%
%ADD22C,1.200000*%
%TD*%
%TA.AperFunction,ViaPad*%
%ADD23C,0.500000*%
%TD*%
%TA.AperFunction,Conductor*%
%ADD24C,0.600000*%
%TD*%
%TA.AperFunction,Conductor*%
%ADD25C,0.200000*%
%TD*%
%TA.AperFunction,Conductor*%
%ADD26C,0.500000*%
%TD*%
%TA.AperFunction,Conductor*%
%ADD27C,0.800000*%
%TD*%
G04 APERTURE END LIST*
D10*
%TO.N,GND*%
%TO.C,H2*%
X93530000Y-117160000D03*
%TD*%
D11*
%TO.N,GND*%
%TO.C,J4*%
X143185000Y-113510000D03*
D12*
X139385000Y-113360000D03*
X139385000Y-105910000D03*
D11*
X143185000Y-105760000D03*
%TD*%
D13*
%TO.N,VSYS*%
%TO.C,C1*%
X124180000Y-104490000D03*
D14*
%TO.N,GND*%
X129180000Y-104490000D03*
%TD*%
D10*
%TO.N,GND*%
%TO.C,H1*%
X140640000Y-117310000D03*
%TD*%
D15*
%TO.N,GND*%
%TO.C,J1*%
X109020000Y-117070000D03*
X97620000Y-117070000D03*
%TD*%
%TO.N,GND*%
%TO.C,J2*%
X136720000Y-116920000D03*
X125320000Y-116920000D03*
%TD*%
D16*
%TO.N,GND*%
%TO.C,D3*%
X141710000Y-97330000D03*
D17*
%TO.N,Net-(D3-A)*%
X139170000Y-97330000D03*
%TD*%
D18*
%TO.N,GND*%
%TO.C,J5*%
X112210000Y-114650000D03*
D19*
X112210000Y-118830000D03*
D18*
X120850000Y-114650000D03*
D19*
X120850000Y-118830000D03*
%TD*%
D20*
%TO.N,VSYS*%
X111340000Y-103300000D03*
X120340000Y-103260000D03*
D21*
%TO.N,GND*%
X142690000Y-99300000D03*
X123750000Y-118430000D03*
X141730000Y-114590000D03*
X127810000Y-104140000D03*
X122920000Y-117690000D03*
X113890000Y-118280000D03*
X99500000Y-118810000D03*
X99620000Y-117600000D03*
X134880000Y-118510000D03*
X113750000Y-119410000D03*
X103520000Y-110410000D03*
X107270000Y-118850000D03*
X143220000Y-104140000D03*
X96960000Y-100320000D03*
X141330000Y-113360000D03*
X135820000Y-119320000D03*
X141310000Y-106050000D03*
X143290000Y-115130000D03*
X127220000Y-117060000D03*
X122170000Y-116710000D03*
X138470000Y-114940000D03*
X137450000Y-104870000D03*
X120750000Y-107160000D03*
X107060000Y-117550000D03*
X123350000Y-116080000D03*
X110830000Y-114540000D03*
X111070000Y-113530000D03*
X122180000Y-115370000D03*
X107570000Y-103060000D03*
X143150000Y-107540000D03*
X143270000Y-111980000D03*
X122370000Y-119030000D03*
X137410000Y-106020000D03*
X119360000Y-119430000D03*
X119410000Y-118140000D03*
X93920000Y-114120000D03*
X95400000Y-114400000D03*
X142270000Y-111920000D03*
X107220000Y-116780000D03*
X127210000Y-118040000D03*
X128020000Y-99520000D03*
X99660000Y-116740000D03*
X127810000Y-104150000D03*
X142020000Y-107220000D03*
%TO.N,VBAT+*%
X123345000Y-99385000D03*
D22*
X93230000Y-101380000D03*
D21*
X95540000Y-110100000D03*
D22*
%TO.N,/POWER_SOC/ledx*%
X101870000Y-107970000D03*
X113290000Y-108460000D03*
D20*
%TO.N,VMID*%
X136960000Y-113920000D03*
D22*
X122980000Y-107520000D03*
D20*
X116341000Y-105891000D03*
X108990000Y-112300000D03*
D22*
X123460000Y-102800000D03*
D20*
X117460000Y-111210000D03*
X122890000Y-110730000D03*
D21*
%TO.N,VBUS*%
X127760000Y-110640000D03*
X119590000Y-96300000D03*
X119660000Y-109929000D03*
D23*
%TO.N,LED3*%
X112870000Y-107440000D03*
X108360000Y-106100000D03*
X108100000Y-98860000D03*
X108380000Y-107270000D03*
D21*
%TO.N,DMA1*%
X113760000Y-96571000D03*
X100750000Y-110920000D03*
X100750000Y-110920000D03*
X100750000Y-110920000D03*
%TO.N,DPA1*%
X112941002Y-96031000D03*
X98600000Y-111000000D03*
%TO.N,DMA2*%
X112600000Y-97900000D03*
X132120000Y-111510000D03*
%TO.N,DPA2*%
X111840000Y-98470000D03*
X111840000Y-98470000D03*
X130230000Y-111630000D03*
X111840000Y-98470000D03*
%TO.N,DPC*%
X116610000Y-111840000D03*
X106370000Y-101040000D03*
X106340000Y-107360000D03*
X106340000Y-105920000D03*
%TO.N,DMC*%
X111260000Y-100483775D03*
X115670000Y-111910000D03*
%TO.N,CC1*%
X111440000Y-99197862D03*
X115640000Y-110690000D03*
%TO.N,CC2*%
X105600000Y-100170000D03*
X105539997Y-105920000D03*
X108930000Y-110960000D03*
X105240000Y-107280000D03*
%TO.N,DMB*%
X131850000Y-108410000D03*
X112660000Y-109489000D03*
X122330000Y-108970000D03*
X134470000Y-108460000D03*
X109140000Y-108970000D03*
X140850000Y-110440000D03*
%TO.N,DPB*%
X140580000Y-109570000D03*
X110540000Y-102080000D03*
%TO.N,VING*%
X120760000Y-96540000D03*
X125910000Y-104690000D03*
%TO.N,VOUT2G*%
X116552851Y-95997809D03*
X131130000Y-111940000D03*
%TO.N,VOUT1G*%
X115740000Y-96020000D03*
X104120000Y-107410000D03*
%TO.N,VBUSG*%
X118740000Y-96430000D03*
X125210000Y-114210000D03*
X123210000Y-114400000D03*
D23*
%TO.N,LED1*%
X113030000Y-105930000D03*
X113030000Y-105930000D03*
X113030000Y-105930000D03*
X110010000Y-98550000D03*
%TO.N,LED2*%
X112980000Y-106660000D03*
X101900000Y-98680000D03*
D21*
%TO.N,VIN*%
X131010000Y-104500000D03*
X121900000Y-96310000D03*
D20*
X131850000Y-106820000D03*
%TO.N,VOUT2*%
X134990000Y-116790000D03*
D21*
X131960000Y-96350000D03*
X134560000Y-112290000D03*
X130740000Y-109900000D03*
X117194972Y-96474972D03*
%TO.N,VOUT1*%
X114790000Y-96350000D03*
D20*
X105230000Y-109770000D03*
D21*
X102360000Y-109470000D03*
%TD*%
D24*
%TO.N,VSYS*%
X111340000Y-103300000D02*
X111650000Y-103300000D01*
X111790000Y-103160000D02*
X120240000Y-103160000D01*
X120240000Y-103160000D02*
X120340000Y-103260000D01*
X111650000Y-103300000D02*
X111790000Y-103160000D01*
D25*
%TO.N,VBAT+*%
X137780000Y-113490000D02*
X137780000Y-114440000D01*
X125359579Y-113100364D02*
X122408943Y-116051000D01*
X129451000Y-112519636D02*
X130011364Y-113080000D01*
X97041000Y-111601000D02*
X95540000Y-110100000D01*
X122408943Y-116051000D02*
X111041786Y-116051000D01*
X137780000Y-114440000D02*
X137419000Y-114801000D01*
X130660364Y-115131000D02*
X130079636Y-115131000D01*
X137419000Y-114801000D02*
X130990364Y-114801000D01*
X130079636Y-115131000D02*
X128049000Y-113100364D01*
X111041786Y-116051000D02*
X110660393Y-115669607D01*
X128049000Y-113100364D02*
X125359579Y-113100364D01*
X123345000Y-99385000D02*
X125201364Y-101241364D01*
X137410000Y-113080000D02*
X137410000Y-113120000D01*
X137410000Y-113120000D02*
X137780000Y-113490000D01*
X106591786Y-111601000D02*
X97041000Y-111601000D01*
X125201364Y-105190000D02*
X129451000Y-109439636D01*
X110660393Y-115669607D02*
X106591786Y-111601000D01*
X130990364Y-114801000D02*
X130660364Y-115131000D01*
X129451000Y-109439636D02*
X129451000Y-112519636D01*
X130011364Y-113080000D02*
X137410000Y-113080000D01*
X125201364Y-101241364D02*
X125201364Y-105190000D01*
D26*
%TO.N,/POWER_SOC/ledx*%
X108828925Y-108219000D02*
X108587925Y-108460000D01*
X108587925Y-108460000D02*
X102360000Y-108460000D01*
X109692075Y-108460000D02*
X109451075Y-108219000D01*
X109451075Y-108219000D02*
X108828925Y-108219000D01*
X102360000Y-108460000D02*
X101870000Y-107970000D01*
X113290000Y-108460000D02*
X109692075Y-108460000D01*
D27*
%TO.N,VMID*%
X136960000Y-113920000D02*
X136500000Y-113920000D01*
X128750000Y-109730000D02*
X124911000Y-105891000D01*
X117460000Y-111210000D02*
X117460000Y-111080000D01*
X136500000Y-113920000D02*
X136320000Y-114100000D01*
X115266793Y-109789000D02*
X112755793Y-112300000D01*
X112755793Y-112300000D02*
X108990000Y-112300000D01*
X130700000Y-114100000D02*
X130370000Y-114430000D01*
X128750000Y-112810000D02*
X128750000Y-109730000D01*
X116169000Y-109789000D02*
X115266793Y-109789000D01*
X124911000Y-105891000D02*
X116341000Y-105891000D01*
X136320000Y-114100000D02*
X130700000Y-114100000D01*
X130370000Y-114430000D02*
X128750000Y-112810000D01*
X117460000Y-111080000D02*
X116169000Y-109789000D01*
D25*
%TO.N,VBUS*%
X118819943Y-97200000D02*
X119590000Y-96429943D01*
X119299000Y-109929000D02*
X119200000Y-109830000D01*
X117340000Y-102080000D02*
X117340000Y-98390000D01*
X123221786Y-109929000D02*
X123422786Y-110130000D01*
X123422786Y-110130000D02*
X127100000Y-110130000D01*
X110291057Y-101479000D02*
X110821786Y-101479000D01*
X109939000Y-101831057D02*
X110291057Y-101479000D01*
X119590000Y-96429943D02*
X119590000Y-96300000D01*
X127760000Y-110750000D02*
X127740000Y-110770000D01*
X109939000Y-103629000D02*
X109939000Y-101831057D01*
X119200000Y-109830000D02*
X119147214Y-109830000D01*
X119147214Y-109830000D02*
X114276214Y-104959000D01*
X127610000Y-110640000D02*
X127760000Y-110640000D01*
X111269000Y-104959000D02*
X109939000Y-103629000D01*
X118530000Y-97200000D02*
X118819943Y-97200000D01*
X111422786Y-102080000D02*
X117340000Y-102080000D01*
X127100000Y-110130000D02*
X127610000Y-110640000D01*
X127760000Y-110640000D02*
X127760000Y-110750000D01*
X119660000Y-109929000D02*
X123221786Y-109929000D01*
X119660000Y-109929000D02*
X119299000Y-109929000D01*
X117340000Y-98390000D02*
X118530000Y-97200000D01*
X110821786Y-101479000D02*
X111422786Y-102080000D01*
X114276214Y-104959000D02*
X111269000Y-104959000D01*
%TO.N,VING*%
X125910000Y-100380000D02*
X125910000Y-104690000D01*
X121190000Y-96540000D02*
X122420000Y-97770000D01*
X125230000Y-99700000D02*
X125910000Y-100380000D01*
X120760000Y-96540000D02*
X121190000Y-96540000D01*
X123300000Y-97770000D02*
X125230000Y-99700000D01*
X122420000Y-97770000D02*
X123300000Y-97770000D01*
%TO.N,VOUT2G*%
X131130000Y-111680057D02*
X131130000Y-111940000D01*
X131611000Y-105926214D02*
X130139000Y-107398214D01*
X116552851Y-95997809D02*
X116552851Y-95885455D01*
X130139000Y-107398214D02*
X130139000Y-110689057D01*
X130139000Y-110689057D02*
X131130000Y-111680057D01*
X118470057Y-95850000D02*
X118491057Y-95829000D01*
X119009943Y-95850000D02*
X119190057Y-95850000D01*
X116552851Y-95885455D02*
X116588306Y-95850000D01*
X131611000Y-97441000D02*
X131611000Y-105926214D01*
X116588306Y-95850000D02*
X118470057Y-95850000D01*
X118491057Y-95829000D02*
X118988943Y-95829000D01*
X119190057Y-95850000D02*
X119341057Y-95699000D01*
X129869000Y-95699000D02*
X131611000Y-97441000D01*
X119341057Y-95699000D02*
X129869000Y-95699000D01*
X118988943Y-95829000D02*
X119009943Y-95850000D01*
%TO.N,VOUT1G*%
X104110000Y-100410000D02*
X104110000Y-107220000D01*
X104110000Y-107400000D02*
X104120000Y-107410000D01*
X106078805Y-99798862D02*
X105848943Y-99569000D01*
X104611000Y-99569000D02*
X103940000Y-100240000D01*
X115740000Y-96610000D02*
X112551138Y-99798862D01*
X104110000Y-107220000D02*
X104110000Y-107400000D01*
X112551138Y-99798862D02*
X106078805Y-99798862D01*
X105848943Y-99569000D02*
X104611000Y-99569000D01*
X115740000Y-96020000D02*
X115740000Y-96610000D01*
X103940000Y-100240000D02*
X104110000Y-100410000D01*
%TO.N,VBUSG*%
X116650000Y-100780000D02*
X116345225Y-101084775D01*
X116810000Y-100010000D02*
X116820000Y-100020000D01*
X116820000Y-100670000D02*
X116710000Y-100780000D01*
X116810000Y-97800000D02*
X116810000Y-100010000D01*
X116710000Y-100780000D02*
X116650000Y-100780000D01*
X113239232Y-105360000D02*
X114510000Y-106630768D01*
X122800000Y-114400000D02*
X123210000Y-114400000D01*
X110730000Y-105360000D02*
X113239232Y-105360000D01*
X116820000Y-100020000D02*
X116820000Y-100670000D01*
X114510000Y-108200000D02*
X116600000Y-108200000D01*
X110283140Y-100356859D02*
X109200000Y-101440000D01*
X116345225Y-101084775D02*
X111011056Y-101084775D01*
X118489000Y-96681000D02*
X117929000Y-96681000D01*
X111011056Y-101084775D02*
X110283140Y-100356859D01*
X109200000Y-101440000D02*
X109200000Y-103830000D01*
X117929000Y-96681000D02*
X116810000Y-97800000D01*
X118740000Y-96430000D02*
X118489000Y-96681000D01*
X109200000Y-103830000D02*
X110730000Y-105360000D01*
X116600000Y-108200000D02*
X122800000Y-114400000D01*
X114510000Y-106630768D02*
X114510000Y-108200000D01*
%TO.N,VIN*%
X123560000Y-96300000D02*
X131030000Y-103770000D01*
X131010000Y-103790000D02*
X131010000Y-104500000D01*
X121910000Y-96300000D02*
X123040000Y-96300000D01*
X121900000Y-96310000D02*
X121910000Y-96300000D01*
X123040000Y-96300000D02*
X123560000Y-96300000D01*
X131030000Y-103770000D02*
X131010000Y-103790000D01*
%TO.N,VOUT2*%
X131209943Y-109900000D02*
X130740000Y-109900000D01*
X131960000Y-96350000D02*
X132651000Y-97041000D01*
X132651000Y-108458943D02*
X131209943Y-109900000D01*
X132651000Y-97041000D02*
X132651000Y-108458943D01*
%TO.N,VOUT1*%
X102095793Y-109470000D02*
X102360000Y-109470000D01*
X103480000Y-98540000D02*
X100969000Y-101051000D01*
X100969000Y-101051000D02*
X100969000Y-108343207D01*
X113881943Y-97299000D02*
X104721000Y-97299000D01*
X114790000Y-96390943D02*
X113881943Y-97299000D01*
X100969000Y-108343207D02*
X102095793Y-109470000D01*
X114790000Y-96350000D02*
X114790000Y-96390943D01*
X104721000Y-97299000D02*
X103480000Y-98540000D01*
%TD*%
%TA.AperFunction,NonConductor*%
G36*
X131415283Y-95549329D02*
G01*
X131461244Y-95601953D01*
X131471458Y-95671073D01*
X131442682Y-95734741D01*
X131436334Y-95741587D01*
X131338210Y-95839711D01*
X131250609Y-95970814D01*
X131250603Y-95970826D01*
X131245309Y-95983607D01*
X131201467Y-96038010D01*
X131135172Y-96060073D01*
X131067473Y-96042792D01*
X131043068Y-96023833D01*
X130762772Y-95743537D01*
X130729287Y-95682214D01*
X130734271Y-95612522D01*
X130776143Y-95556589D01*
X130841607Y-95532172D01*
X130849952Y-95531857D01*
X131348167Y-95529907D01*
X131415283Y-95549329D01*
G37*
%TD.AperFunction*%
%TA.AperFunction,NonConductor*%
G36*
X123268874Y-96903134D02*
G01*
X123278137Y-96901848D01*
X123301862Y-96912820D01*
X123326942Y-96920185D01*
X123339275Y-96930123D01*
X123341553Y-96931177D01*
X123342573Y-96932780D01*
X123347584Y-96936819D01*
X123368583Y-96957818D01*
X123402068Y-97019141D01*
X123397084Y-97088833D01*
X123355212Y-97144766D01*
X123289748Y-97169183D01*
X123280902Y-97169499D01*
X123213339Y-97169499D01*
X123213339Y-97169498D01*
X123213331Y-97169500D01*
X122720098Y-97169500D01*
X122653059Y-97149815D01*
X122632417Y-97133181D01*
X122611417Y-97112181D01*
X122577932Y-97050858D01*
X122582916Y-96981166D01*
X122624788Y-96925233D01*
X122690252Y-96900816D01*
X122699098Y-96900500D01*
X122960943Y-96900500D01*
X123259903Y-96900500D01*
X123268874Y-96903134D01*
G37*
%TD.AperFunction*%
%TA.AperFunction,NonConductor*%
G36*
X111036202Y-97902362D02*
G01*
X111046282Y-97901096D01*
X111069159Y-97912039D01*
X111093493Y-97919185D01*
X111100145Y-97926862D01*
X111109311Y-97931247D01*
X111122641Y-97952823D01*
X111139248Y-97971989D01*
X111140693Y-97982044D01*
X111146034Y-97990688D01*
X111145582Y-98016045D01*
X111149192Y-98041147D01*
X111144938Y-98052247D01*
X111144791Y-98060546D01*
X111133001Y-98085190D01*
X111133479Y-98085446D01*
X111130602Y-98090827D01*
X111070264Y-98236498D01*
X111070261Y-98236510D01*
X111039500Y-98391153D01*
X111039500Y-98436434D01*
X111037263Y-98444051D01*
X111038533Y-98451887D01*
X111027560Y-98477095D01*
X111019815Y-98503473D01*
X111013105Y-98510303D01*
X111010648Y-98515950D01*
X110984391Y-98539536D01*
X110952204Y-98561043D01*
X110885527Y-98581921D01*
X110818147Y-98563437D01*
X110771456Y-98511458D01*
X110763263Y-98481743D01*
X110761689Y-98482057D01*
X110731659Y-98331092D01*
X110731658Y-98331091D01*
X110731658Y-98331087D01*
X110728932Y-98324505D01*
X110675087Y-98194511D01*
X110675080Y-98194498D01*
X110606854Y-98092391D01*
X110585976Y-98025714D01*
X110604460Y-97958333D01*
X110656439Y-97911643D01*
X110709956Y-97899500D01*
X111026454Y-97899500D01*
X111036202Y-97902362D01*
G37*
%TD.AperFunction*%
%TA.AperFunction,NonConductor*%
G36*
X109377083Y-97919185D02*
G01*
X109422838Y-97971989D01*
X109432782Y-98041147D01*
X109413146Y-98092391D01*
X109344919Y-98194498D01*
X109344912Y-98194511D01*
X109288343Y-98331082D01*
X109288340Y-98331092D01*
X109259500Y-98476079D01*
X109259500Y-98476082D01*
X109259500Y-98623918D01*
X109259500Y-98623920D01*
X109259499Y-98623920D01*
X109288340Y-98768907D01*
X109288343Y-98768917D01*
X109344912Y-98905488D01*
X109344919Y-98905501D01*
X109411717Y-99005471D01*
X109432595Y-99072149D01*
X109414110Y-99139529D01*
X109362131Y-99186219D01*
X109308615Y-99198362D01*
X108948993Y-99198362D01*
X108881954Y-99178677D01*
X108836199Y-99125873D01*
X108826255Y-99056715D01*
X108827376Y-99050170D01*
X108850500Y-98933920D01*
X108850500Y-98786079D01*
X108821659Y-98641092D01*
X108821658Y-98641091D01*
X108821658Y-98641087D01*
X108814547Y-98623920D01*
X108765087Y-98504511D01*
X108765080Y-98504498D01*
X108682951Y-98381584D01*
X108682948Y-98381580D01*
X108578419Y-98277051D01*
X108578415Y-98277048D01*
X108455501Y-98194919D01*
X108455488Y-98194912D01*
X108318235Y-98138061D01*
X108263831Y-98094220D01*
X108241766Y-98027926D01*
X108259045Y-97960227D01*
X108310182Y-97912616D01*
X108365687Y-97899500D01*
X109310044Y-97899500D01*
X109377083Y-97919185D01*
G37*
%TD.AperFunction*%
%TA.AperFunction,NonConductor*%
G36*
X116401258Y-96810370D02*
G01*
X116401434Y-96810337D01*
X116433876Y-96823325D01*
X116466031Y-96836095D01*
X116466190Y-96836261D01*
X116466299Y-96836305D01*
X116468152Y-96838308D01*
X116490457Y-96861571D01*
X116491632Y-96863212D01*
X116573183Y-96985261D01*
X116593859Y-97005937D01*
X116599789Y-97014216D01*
X116622823Y-97080180D01*
X116606537Y-97148125D01*
X116586662Y-97174102D01*
X116441286Y-97319478D01*
X116329481Y-97431282D01*
X116329479Y-97431285D01*
X116279361Y-97518094D01*
X116279359Y-97518096D01*
X116250425Y-97568209D01*
X116250424Y-97568210D01*
X116234544Y-97627472D01*
X116209499Y-97720943D01*
X116209499Y-97720945D01*
X116209499Y-97889046D01*
X116209500Y-97889059D01*
X116209500Y-99930939D01*
X116209499Y-99930943D01*
X116209499Y-100089057D01*
X116218757Y-100123610D01*
X116219371Y-100137059D01*
X116218971Y-100138691D01*
X116219500Y-100142706D01*
X116219500Y-100309902D01*
X116199815Y-100376941D01*
X116183181Y-100397583D01*
X116169480Y-100411284D01*
X116169474Y-100411288D01*
X116132809Y-100447955D01*
X116071487Y-100481441D01*
X116045127Y-100484275D01*
X113014323Y-100484275D01*
X112993077Y-100478036D01*
X112970991Y-100476457D01*
X112960207Y-100468384D01*
X112947284Y-100464590D01*
X112932785Y-100447857D01*
X112915057Y-100434587D01*
X112910348Y-100421964D01*
X112901529Y-100411786D01*
X112898377Y-100389870D01*
X112890639Y-100369123D01*
X112893502Y-100355960D01*
X112891585Y-100342628D01*
X112900783Y-100322485D01*
X112905490Y-100300850D01*
X112918759Y-100283123D01*
X112920610Y-100279072D01*
X112926641Y-100272595D01*
X113031658Y-100167578D01*
X113031659Y-100167575D01*
X116098506Y-97100728D01*
X116098511Y-97100724D01*
X116108714Y-97090520D01*
X116108716Y-97090520D01*
X116220520Y-96978716D01*
X116282261Y-96871775D01*
X116307488Y-96847721D01*
X116332525Y-96823717D01*
X116332699Y-96823682D01*
X116332827Y-96823561D01*
X116367065Y-96816961D01*
X116401095Y-96810306D01*
X116401258Y-96810370D01*
G37*
%TD.AperFunction*%
%TA.AperFunction,NonConductor*%
G36*
X129635942Y-96319185D02*
G01*
X129656584Y-96335819D01*
X130974181Y-97653416D01*
X131007666Y-97714739D01*
X131010500Y-97741097D01*
X131010500Y-102601903D01*
X130990815Y-102668942D01*
X130938011Y-102714697D01*
X130868853Y-102724641D01*
X130805297Y-102695616D01*
X130798819Y-102689584D01*
X128469721Y-100360486D01*
X128436236Y-100299163D01*
X128441220Y-100229471D01*
X128483092Y-100173538D01*
X128488483Y-100169722D01*
X128530289Y-100141789D01*
X128641789Y-100030289D01*
X128729394Y-99899179D01*
X128789737Y-99753497D01*
X128820500Y-99598842D01*
X128820500Y-99441158D01*
X128820500Y-99441155D01*
X128820499Y-99441153D01*
X128803644Y-99356419D01*
X128789737Y-99286503D01*
X128779980Y-99262948D01*
X128729397Y-99140827D01*
X128729390Y-99140814D01*
X128641789Y-99009711D01*
X128641786Y-99009707D01*
X128530292Y-98898213D01*
X128530288Y-98898210D01*
X128399185Y-98810609D01*
X128399172Y-98810602D01*
X128253501Y-98750264D01*
X128253489Y-98750261D01*
X128098845Y-98719500D01*
X128098842Y-98719500D01*
X127941158Y-98719500D01*
X127941155Y-98719500D01*
X127786510Y-98750261D01*
X127786498Y-98750264D01*
X127640827Y-98810602D01*
X127640814Y-98810609D01*
X127509711Y-98898210D01*
X127509707Y-98898213D01*
X127398213Y-99009707D01*
X127398210Y-99009711D01*
X127370296Y-99051488D01*
X127316684Y-99096293D01*
X127247359Y-99105000D01*
X127184331Y-99074845D01*
X127179513Y-99070278D01*
X124620416Y-96511181D01*
X124586931Y-96449858D01*
X124591915Y-96380166D01*
X124633787Y-96324233D01*
X124699251Y-96299816D01*
X124708097Y-96299500D01*
X129568903Y-96299500D01*
X129635942Y-96319185D01*
G37*
%TD.AperFunction*%
%TA.AperFunction,NonConductor*%
G36*
X120045547Y-96993345D02*
G01*
X120048386Y-96992886D01*
X120077975Y-97005766D01*
X120108111Y-97017309D01*
X120110615Y-97019974D01*
X120112449Y-97020773D01*
X120136031Y-97047027D01*
X120138211Y-97050289D01*
X120138214Y-97050293D01*
X120249707Y-97161786D01*
X120249711Y-97161789D01*
X120380814Y-97249390D01*
X120380827Y-97249397D01*
X120526498Y-97309735D01*
X120526503Y-97309737D01*
X120633263Y-97330973D01*
X120681153Y-97340499D01*
X120681156Y-97340500D01*
X120681158Y-97340500D01*
X120838844Y-97340500D01*
X120838845Y-97340499D01*
X120993497Y-97309737D01*
X120999678Y-97307176D01*
X121069144Y-97299703D01*
X121131626Y-97330973D01*
X121134816Y-97334051D01*
X122051284Y-98250520D01*
X122051286Y-98250521D01*
X122051290Y-98250524D01*
X122170883Y-98319570D01*
X122188216Y-98329577D01*
X122340943Y-98370501D01*
X122340945Y-98370501D01*
X122506654Y-98370501D01*
X122506670Y-98370500D01*
X122999903Y-98370500D01*
X123029343Y-98379144D01*
X123059330Y-98385668D01*
X123064345Y-98389422D01*
X123066942Y-98390185D01*
X123087584Y-98406819D01*
X123110757Y-98429992D01*
X123144242Y-98491315D01*
X123139258Y-98561007D01*
X123097386Y-98616940D01*
X123070529Y-98632234D01*
X122965824Y-98675604D01*
X122965814Y-98675609D01*
X122834711Y-98763210D01*
X122834707Y-98763213D01*
X122723213Y-98874707D01*
X122723210Y-98874711D01*
X122635609Y-99005814D01*
X122635602Y-99005827D01*
X122575264Y-99151498D01*
X122575261Y-99151510D01*
X122544500Y-99306153D01*
X122544500Y-99463846D01*
X122575261Y-99618489D01*
X122575264Y-99618501D01*
X122635602Y-99764172D01*
X122635609Y-99764185D01*
X122723210Y-99895288D01*
X122723213Y-99895292D01*
X122834707Y-100006786D01*
X122834711Y-100006789D01*
X122965814Y-100094390D01*
X122965827Y-100094397D01*
X123082457Y-100142706D01*
X123111503Y-100154737D01*
X123176044Y-100167575D01*
X123266849Y-100185638D01*
X123328760Y-100218023D01*
X123330339Y-100219574D01*
X124564545Y-101453780D01*
X124598030Y-101515103D01*
X124600864Y-101541461D01*
X124600864Y-102116349D01*
X124581179Y-102183388D01*
X124528375Y-102229143D01*
X124459217Y-102239087D01*
X124395661Y-102210062D01*
X124376546Y-102189235D01*
X124372298Y-102183388D01*
X124299414Y-102083072D01*
X124176928Y-101960586D01*
X124036788Y-101858768D01*
X123940558Y-101809737D01*
X123882447Y-101780128D01*
X123882446Y-101780127D01*
X123882445Y-101780127D01*
X123717701Y-101726598D01*
X123717699Y-101726597D01*
X123717698Y-101726597D01*
X123586271Y-101705781D01*
X123546611Y-101699500D01*
X123373389Y-101699500D01*
X123333728Y-101705781D01*
X123202302Y-101726597D01*
X123037552Y-101780128D01*
X122883211Y-101858768D01*
X122803256Y-101916859D01*
X122743072Y-101960586D01*
X122743070Y-101960588D01*
X122743069Y-101960588D01*
X122620588Y-102083069D01*
X122620588Y-102083070D01*
X122620586Y-102083072D01*
X122610518Y-102096930D01*
X122518768Y-102223211D01*
X122440128Y-102377552D01*
X122386597Y-102542302D01*
X122373940Y-102622218D01*
X122359500Y-102713389D01*
X122359500Y-102886611D01*
X122386598Y-103057701D01*
X122440127Y-103222445D01*
X122518768Y-103376788D01*
X122620586Y-103516928D01*
X122743072Y-103639414D01*
X122801392Y-103681786D01*
X122883213Y-103741233D01*
X123011794Y-103806747D01*
X123062590Y-103854721D01*
X123079500Y-103917232D01*
X123079500Y-104399423D01*
X123079501Y-104866500D01*
X123059817Y-104933539D01*
X123007013Y-104979294D01*
X122955501Y-104990500D01*
X116806098Y-104990500D01*
X116758646Y-104981061D01*
X116632839Y-104928950D01*
X116632829Y-104928947D01*
X116439543Y-104890500D01*
X116439541Y-104890500D01*
X116242459Y-104890500D01*
X116242457Y-104890500D01*
X116049170Y-104928947D01*
X116049160Y-104928950D01*
X115867092Y-105004364D01*
X115867079Y-105004371D01*
X115703218Y-105113860D01*
X115579444Y-105237634D01*
X115518121Y-105271118D01*
X115448429Y-105266134D01*
X115404082Y-105237633D01*
X114763804Y-104597355D01*
X114763802Y-104597352D01*
X114644931Y-104478481D01*
X114644930Y-104478480D01*
X114558118Y-104428360D01*
X114558118Y-104428359D01*
X114558114Y-104428358D01*
X114507999Y-104399423D01*
X114355271Y-104358499D01*
X114197157Y-104358499D01*
X114189561Y-104358499D01*
X114189545Y-104358500D01*
X111965469Y-104358500D01*
X111938960Y-104350716D01*
X111911699Y-104346235D01*
X111905910Y-104341011D01*
X111898430Y-104338815D01*
X111880342Y-104317940D01*
X111859826Y-104299428D01*
X111857779Y-104291902D01*
X111852675Y-104286011D01*
X111848743Y-104258668D01*
X111841494Y-104232006D01*
X111843840Y-104224570D01*
X111842731Y-104216853D01*
X111854208Y-104191721D01*
X111862523Y-104165376D01*
X111869350Y-104158563D01*
X111871756Y-104153297D01*
X111886168Y-104139173D01*
X111891174Y-104135008D01*
X111977782Y-104077139D01*
X112062111Y-103992809D01*
X112066482Y-103989173D01*
X112093545Y-103977465D01*
X112119425Y-103963334D01*
X112128455Y-103962363D01*
X112130608Y-103961432D01*
X112133181Y-103961854D01*
X112145783Y-103960500D01*
X119574217Y-103960500D01*
X119641256Y-103980185D01*
X119661899Y-103996820D01*
X119702214Y-104037136D01*
X119702218Y-104037139D01*
X119866079Y-104146628D01*
X119866092Y-104146635D01*
X119991831Y-104198717D01*
X120048165Y-104222051D01*
X120048169Y-104222051D01*
X120048170Y-104222052D01*
X120241456Y-104260500D01*
X120241459Y-104260500D01*
X120438543Y-104260500D01*
X120581788Y-104232006D01*
X120631835Y-104222051D01*
X120813914Y-104146632D01*
X120977782Y-104037139D01*
X121117139Y-103897782D01*
X121226632Y-103733914D01*
X121302051Y-103551835D01*
X121318304Y-103470127D01*
X121340500Y-103358543D01*
X121340500Y-103161456D01*
X121302052Y-102968170D01*
X121302051Y-102968169D01*
X121302051Y-102968165D01*
X121277279Y-102908360D01*
X121226635Y-102786092D01*
X121226628Y-102786079D01*
X121117139Y-102622218D01*
X121117136Y-102622214D01*
X120977785Y-102482863D01*
X120977781Y-102482860D01*
X120813920Y-102373371D01*
X120813907Y-102373364D01*
X120631839Y-102297950D01*
X120631829Y-102297947D01*
X120438543Y-102259500D01*
X120438541Y-102259500D01*
X120241459Y-102259500D01*
X120241457Y-102259500D01*
X120048170Y-102297947D01*
X120048160Y-102297950D01*
X119922354Y-102350061D01*
X119874902Y-102359500D01*
X118048391Y-102359500D01*
X117981352Y-102339815D01*
X117935597Y-102287011D01*
X117925653Y-102217853D01*
X117928613Y-102203417D01*
X117940500Y-102159057D01*
X117940500Y-98690097D01*
X117960185Y-98623058D01*
X117976819Y-98602416D01*
X118742415Y-97836820D01*
X118803738Y-97803335D01*
X118830096Y-97800501D01*
X118898997Y-97800501D01*
X118899000Y-97800501D01*
X119051728Y-97759577D01*
X119101847Y-97730639D01*
X119188659Y-97680520D01*
X119300463Y-97568716D01*
X119300463Y-97568714D01*
X119310671Y-97558507D01*
X119310673Y-97558504D01*
X119767003Y-97102173D01*
X119818690Y-97071194D01*
X119823481Y-97069739D01*
X119823497Y-97069737D01*
X119969179Y-97009394D01*
X119969189Y-97009386D01*
X119974463Y-97006568D01*
X119977277Y-97005981D01*
X119979416Y-97004061D01*
X120011274Y-96998899D01*
X120042864Y-96992318D01*
X120045547Y-96993345D01*
G37*
%TD.AperFunction*%
%TA.AperFunction,NonConductor*%
G36*
X113848773Y-106893886D02*
G01*
X113896384Y-106945023D01*
X113909500Y-107000528D01*
X113909500Y-107338181D01*
X113900142Y-107370048D01*
X113891696Y-107402200D01*
X113890334Y-107403449D01*
X113889815Y-107405220D01*
X113864716Y-107426968D01*
X113840226Y-107449451D01*
X113838405Y-107449766D01*
X113837011Y-107450975D01*
X113804130Y-107455702D01*
X113771381Y-107461375D01*
X113769216Y-107460722D01*
X113767853Y-107460919D01*
X113737245Y-107452407D01*
X113733154Y-107450679D01*
X113712445Y-107440127D01*
X113693955Y-107434119D01*
X113689076Y-107432058D01*
X113665973Y-107413171D01*
X113641337Y-107396326D01*
X113638806Y-107390962D01*
X113634982Y-107387836D01*
X113629779Y-107371832D01*
X113615714Y-107342023D01*
X113608650Y-107306510D01*
X113591658Y-107221087D01*
X113584896Y-107204764D01*
X113577428Y-107135295D01*
X113596354Y-107088424D01*
X113645084Y-107015495D01*
X113659444Y-106980827D01*
X113670939Y-106953076D01*
X113714779Y-106898672D01*
X113781074Y-106876607D01*
X113848773Y-106893886D01*
G37*
%TD.AperFunction*%
%TA.AperFunction,NonConductor*%
G36*
X115315703Y-106848170D02*
G01*
X115322181Y-106854202D01*
X115855798Y-107387819D01*
X115889283Y-107449142D01*
X115884299Y-107518834D01*
X115842427Y-107574767D01*
X115776963Y-107599184D01*
X115768117Y-107599500D01*
X115234500Y-107599500D01*
X115167461Y-107579815D01*
X115121706Y-107527011D01*
X115110500Y-107475500D01*
X115110500Y-106941883D01*
X115130185Y-106874844D01*
X115182989Y-106829089D01*
X115252147Y-106819145D01*
X115315703Y-106848170D01*
G37*
%TD.AperFunction*%
%TA.AperFunction,NonConductor*%
G36*
X109159079Y-100419047D02*
G01*
X109204834Y-100471851D01*
X109214778Y-100541009D01*
X109185753Y-100604565D01*
X109179721Y-100611043D01*
X108719481Y-101071282D01*
X108719475Y-101071290D01*
X108640426Y-101208209D01*
X108640423Y-101208214D01*
X108620101Y-101284058D01*
X108599499Y-101360943D01*
X108599499Y-101360944D01*
X108599499Y-101360945D01*
X108599500Y-101453491D01*
X108599500Y-102873425D01*
X108579815Y-102940464D01*
X108527011Y-102986219D01*
X108457853Y-102996163D01*
X108394297Y-102967138D01*
X108356523Y-102908360D01*
X108353883Y-102897617D01*
X108339738Y-102826508D01*
X108339737Y-102826507D01*
X108339737Y-102826503D01*
X108339735Y-102826498D01*
X108279397Y-102680827D01*
X108279390Y-102680814D01*
X108191789Y-102549711D01*
X108191786Y-102549707D01*
X108080292Y-102438213D01*
X108080288Y-102438210D01*
X107949185Y-102350609D01*
X107949172Y-102350602D01*
X107803501Y-102290264D01*
X107803489Y-102290261D01*
X107648845Y-102259500D01*
X107648842Y-102259500D01*
X107491158Y-102259500D01*
X107491155Y-102259500D01*
X107336510Y-102290261D01*
X107336498Y-102290264D01*
X107190827Y-102350602D01*
X107190814Y-102350609D01*
X107059711Y-102438210D01*
X107059707Y-102438213D01*
X106948213Y-102549707D01*
X106948210Y-102549711D01*
X106860609Y-102680814D01*
X106860602Y-102680827D01*
X106800264Y-102826498D01*
X106800261Y-102826510D01*
X106769500Y-102981153D01*
X106769500Y-103138846D01*
X106800261Y-103293489D01*
X106800264Y-103293501D01*
X106860602Y-103439172D01*
X106860609Y-103439185D01*
X106948210Y-103570288D01*
X106948213Y-103570292D01*
X107059707Y-103681786D01*
X107059711Y-103681789D01*
X107190814Y-103769390D01*
X107190827Y-103769397D01*
X107312689Y-103819873D01*
X107336503Y-103829737D01*
X107491153Y-103860499D01*
X107491156Y-103860500D01*
X107491158Y-103860500D01*
X107648844Y-103860500D01*
X107648845Y-103860499D01*
X107803497Y-103829737D01*
X107916166Y-103783067D01*
X107949172Y-103769397D01*
X107949172Y-103769396D01*
X107949179Y-103769394D01*
X108080289Y-103681789D01*
X108191789Y-103570289D01*
X108279394Y-103439179D01*
X108339737Y-103293497D01*
X108353870Y-103222447D01*
X108353883Y-103222383D01*
X108386268Y-103160472D01*
X108446983Y-103125898D01*
X108516753Y-103129637D01*
X108573425Y-103170504D01*
X108599006Y-103235522D01*
X108599500Y-103246574D01*
X108599500Y-103743330D01*
X108599499Y-103743348D01*
X108599499Y-103909054D01*
X108599498Y-103909054D01*
X108640423Y-104061785D01*
X108662637Y-104100259D01*
X108662638Y-104100263D01*
X108662639Y-104100263D01*
X108715441Y-104191721D01*
X108719479Y-104198714D01*
X108719481Y-104198717D01*
X108838349Y-104317585D01*
X108838354Y-104317589D01*
X110361284Y-105840520D01*
X110361286Y-105840521D01*
X110361290Y-105840524D01*
X110431557Y-105881092D01*
X110498216Y-105919577D01*
X110650943Y-105960501D01*
X110650945Y-105960501D01*
X110816654Y-105960501D01*
X110816670Y-105960500D01*
X112169100Y-105960500D01*
X112195576Y-105968274D01*
X112222813Y-105972737D01*
X112228629Y-105977979D01*
X112236139Y-105980185D01*
X112254207Y-106001037D01*
X112274710Y-106019519D01*
X112278424Y-106028985D01*
X112281894Y-106032989D01*
X112288739Y-106051905D01*
X112289874Y-106056072D01*
X112308342Y-106148913D01*
X112328287Y-106197066D01*
X112330356Y-106204659D01*
X112329818Y-106232041D01*
X112332746Y-106259273D01*
X112329108Y-106268285D01*
X112328986Y-106274515D01*
X112322977Y-106283473D01*
X112316858Y-106298633D01*
X112317789Y-106299131D01*
X112314914Y-106304508D01*
X112258342Y-106441086D01*
X112258340Y-106441092D01*
X112229500Y-106586079D01*
X112229500Y-106586082D01*
X112229500Y-106733918D01*
X112229500Y-106733920D01*
X112229499Y-106733920D01*
X112258340Y-106878906D01*
X112258342Y-106878913D01*
X112265104Y-106895239D01*
X112272570Y-106964708D01*
X112253644Y-107011577D01*
X112204918Y-107084500D01*
X112204912Y-107084511D01*
X112148343Y-107221082D01*
X112148340Y-107221092D01*
X112119500Y-107366079D01*
X112119500Y-107513922D01*
X112128926Y-107561309D01*
X112122699Y-107630900D01*
X112079836Y-107686078D01*
X112013946Y-107709322D01*
X112007309Y-107709500D01*
X110054305Y-107709500D01*
X110032242Y-107703021D01*
X110009330Y-107701056D01*
X109996068Y-107692399D01*
X109987266Y-107689815D01*
X109978596Y-107683704D01*
X109972270Y-107678827D01*
X109929491Y-107636048D01*
X109837629Y-107574669D01*
X109834144Y-107572340D01*
X109834141Y-107572338D01*
X109806575Y-107553919D01*
X109806563Y-107553912D01*
X109669992Y-107497343D01*
X109669982Y-107497340D01*
X109524995Y-107468500D01*
X109524993Y-107468500D01*
X109254500Y-107468500D01*
X109187461Y-107448815D01*
X109141706Y-107396011D01*
X109130500Y-107344500D01*
X109130500Y-107196079D01*
X109101659Y-107051092D01*
X109101658Y-107051091D01*
X109101658Y-107051087D01*
X109092413Y-107028768D01*
X109045087Y-106914511D01*
X109045080Y-106914498D01*
X108962951Y-106791584D01*
X108962948Y-106791580D01*
X108934048Y-106762680D01*
X108900563Y-106701357D01*
X108905547Y-106631665D01*
X108934047Y-106587319D01*
X108942951Y-106578416D01*
X109025084Y-106455495D01*
X109081658Y-106318913D01*
X109110500Y-106173918D01*
X109110500Y-106026082D01*
X109110500Y-106026079D01*
X109081659Y-105881092D01*
X109081658Y-105881091D01*
X109081658Y-105881087D01*
X109042478Y-105786498D01*
X109025087Y-105744511D01*
X109025080Y-105744498D01*
X108942951Y-105621584D01*
X108942948Y-105621580D01*
X108838419Y-105517051D01*
X108838415Y-105517048D01*
X108715501Y-105434919D01*
X108715488Y-105434912D01*
X108578917Y-105378343D01*
X108578907Y-105378340D01*
X108433920Y-105349500D01*
X108433918Y-105349500D01*
X108286082Y-105349500D01*
X108286080Y-105349500D01*
X108141092Y-105378340D01*
X108141082Y-105378343D01*
X108004511Y-105434912D01*
X108004498Y-105434919D01*
X107881584Y-105517048D01*
X107881580Y-105517051D01*
X107777051Y-105621580D01*
X107777048Y-105621584D01*
X107694919Y-105744498D01*
X107694912Y-105744511D01*
X107638343Y-105881082D01*
X107638340Y-105881092D01*
X107609500Y-106026079D01*
X107609500Y-106026082D01*
X107609500Y-106173918D01*
X107609500Y-106173920D01*
X107609499Y-106173920D01*
X107638340Y-106318907D01*
X107638343Y-106318917D01*
X107694912Y-106455488D01*
X107694919Y-106455501D01*
X107777048Y-106578415D01*
X107777051Y-106578419D01*
X107805951Y-106607319D01*
X107839436Y-106668642D01*
X107834452Y-106738334D01*
X107805955Y-106782678D01*
X107797046Y-106791586D01*
X107797046Y-106791587D01*
X107714919Y-106914498D01*
X107714912Y-106914511D01*
X107658343Y-107051082D01*
X107658340Y-107051092D01*
X107629500Y-107196079D01*
X107629500Y-107196082D01*
X107629500Y-107343918D01*
X107629500Y-107343920D01*
X107629499Y-107343920D01*
X107658340Y-107488907D01*
X107658343Y-107488917D01*
X107678694Y-107538048D01*
X107686163Y-107607517D01*
X107654888Y-107669996D01*
X107594799Y-107705648D01*
X107564133Y-107709500D01*
X107237757Y-107709500D01*
X107170718Y-107689815D01*
X107124963Y-107637011D01*
X107115019Y-107567853D01*
X107116140Y-107561308D01*
X107140500Y-107438844D01*
X107140500Y-107281155D01*
X107140499Y-107281153D01*
X107134913Y-107253069D01*
X107109737Y-107126503D01*
X107100965Y-107105325D01*
X107049397Y-106980827D01*
X107049390Y-106980814D01*
X106961789Y-106849711D01*
X106961786Y-106849707D01*
X106850295Y-106738216D01*
X106847419Y-106735856D01*
X106846316Y-106734237D01*
X106845982Y-106733903D01*
X106846045Y-106733839D01*
X106808083Y-106678111D01*
X106806210Y-106608267D01*
X106842396Y-106548497D01*
X106847419Y-106544144D01*
X106850281Y-106541793D01*
X106850289Y-106541789D01*
X106961789Y-106430289D01*
X107049394Y-106299179D01*
X107109737Y-106153497D01*
X107140500Y-105998842D01*
X107140500Y-105841158D01*
X107140500Y-105841155D01*
X107140499Y-105841153D01*
X107129627Y-105786498D01*
X107109737Y-105686503D01*
X107069972Y-105590500D01*
X107049397Y-105540827D01*
X107049390Y-105540814D01*
X106961789Y-105409711D01*
X106961786Y-105409707D01*
X106850292Y-105298213D01*
X106850288Y-105298210D01*
X106719185Y-105210609D01*
X106719172Y-105210602D01*
X106573501Y-105150264D01*
X106573489Y-105150261D01*
X106418845Y-105119500D01*
X106418842Y-105119500D01*
X106261158Y-105119500D01*
X106261155Y-105119500D01*
X106106510Y-105150261D01*
X106106498Y-105150264D01*
X105987450Y-105199575D01*
X105917980Y-105207044D01*
X105892546Y-105199575D01*
X105773498Y-105150264D01*
X105773486Y-105150261D01*
X105618842Y-105119500D01*
X105618839Y-105119500D01*
X105461155Y-105119500D01*
X105461152Y-105119500D01*
X105306507Y-105150261D01*
X105306495Y-105150264D01*
X105160824Y-105210602D01*
X105160811Y-105210609D01*
X105029708Y-105298210D01*
X105029704Y-105298213D01*
X104922181Y-105405737D01*
X104860858Y-105439222D01*
X104791166Y-105434238D01*
X104735233Y-105392366D01*
X104710816Y-105326902D01*
X104710500Y-105318056D01*
X104710500Y-100688405D01*
X104730185Y-100621366D01*
X104782989Y-100575611D01*
X104852147Y-100565667D01*
X104915703Y-100594692D01*
X104937602Y-100619514D01*
X104978210Y-100680288D01*
X104978213Y-100680292D01*
X105089707Y-100791786D01*
X105089711Y-100791789D01*
X105220814Y-100879390D01*
X105220827Y-100879397D01*
X105366498Y-100939735D01*
X105366503Y-100939737D01*
X105412291Y-100948844D01*
X105469691Y-100960263D01*
X105531602Y-100992648D01*
X105566176Y-101053364D01*
X105569500Y-101081880D01*
X105569500Y-101118846D01*
X105600261Y-101273489D01*
X105600264Y-101273501D01*
X105660602Y-101419172D01*
X105660609Y-101419185D01*
X105748210Y-101550288D01*
X105748213Y-101550292D01*
X105859707Y-101661786D01*
X105859711Y-101661789D01*
X105990814Y-101749390D01*
X105990827Y-101749397D01*
X106118898Y-101802445D01*
X106136503Y-101809737D01*
X106291153Y-101840499D01*
X106291156Y-101840500D01*
X106291158Y-101840500D01*
X106448844Y-101840500D01*
X106448845Y-101840499D01*
X106603497Y-101809737D01*
X106749179Y-101749394D01*
X106880289Y-101661789D01*
X106991789Y-101550289D01*
X107079394Y-101419179D01*
X107139737Y-101273497D01*
X107170500Y-101118842D01*
X107170500Y-100961158D01*
X107170500Y-100961155D01*
X107170499Y-100961153D01*
X107166239Y-100939735D01*
X107139737Y-100806503D01*
X107138374Y-100803212D01*
X107079397Y-100660827D01*
X107079390Y-100660814D01*
X107033579Y-100592253D01*
X107012701Y-100525575D01*
X107031186Y-100458195D01*
X107083164Y-100411505D01*
X107136681Y-100399362D01*
X109092040Y-100399362D01*
X109159079Y-100419047D01*
G37*
%TD.AperFunction*%
%TA.AperFunction,NonConductor*%
G36*
X107901352Y-97919185D02*
G01*
X107947107Y-97971989D01*
X107957051Y-98041147D01*
X107928026Y-98104703D01*
X107881765Y-98138061D01*
X107744511Y-98194912D01*
X107744498Y-98194919D01*
X107621584Y-98277048D01*
X107621580Y-98277051D01*
X107517051Y-98381580D01*
X107517048Y-98381584D01*
X107434919Y-98504498D01*
X107434912Y-98504511D01*
X107378343Y-98641082D01*
X107378340Y-98641092D01*
X107349500Y-98786079D01*
X107349500Y-98786082D01*
X107349500Y-98933918D01*
X107349500Y-98933920D01*
X107349499Y-98933920D01*
X107372624Y-99050170D01*
X107366397Y-99119762D01*
X107323534Y-99174939D01*
X107257645Y-99198184D01*
X107251007Y-99198362D01*
X106378903Y-99198362D01*
X106356850Y-99191886D01*
X106333947Y-99189926D01*
X106320674Y-99181263D01*
X106311864Y-99178677D01*
X106303210Y-99172579D01*
X106296878Y-99167699D01*
X106217659Y-99088480D01*
X106130847Y-99038360D01*
X106080728Y-99009423D01*
X105928000Y-98968499D01*
X105769886Y-98968499D01*
X105762290Y-98968499D01*
X105762274Y-98968500D01*
X104690057Y-98968500D01*
X104531942Y-98968500D01*
X104379215Y-99009423D01*
X104379214Y-99009423D01*
X104379212Y-99009424D01*
X104379209Y-99009425D01*
X104329096Y-99038359D01*
X104329095Y-99038360D01*
X104297303Y-99056715D01*
X104242285Y-99088479D01*
X104242282Y-99088481D01*
X104130478Y-99200286D01*
X103571284Y-99759481D01*
X103459483Y-99871281D01*
X103459481Y-99871284D01*
X103380423Y-100008214D01*
X103374508Y-100030288D01*
X103339499Y-100160943D01*
X103339499Y-100160945D01*
X103339499Y-100319054D01*
X103339498Y-100319054D01*
X103378495Y-100464590D01*
X103380423Y-100471785D01*
X103459481Y-100608716D01*
X103459483Y-100608718D01*
X103473181Y-100622416D01*
X103506666Y-100683739D01*
X103509500Y-100710097D01*
X103509500Y-106845200D01*
X103489815Y-106912239D01*
X103488602Y-106914091D01*
X103410609Y-107030814D01*
X103410602Y-107030827D01*
X103350264Y-107176498D01*
X103350261Y-107176510D01*
X103319500Y-107331153D01*
X103319500Y-107488846D01*
X103333914Y-107561309D01*
X103332036Y-107582292D01*
X103335035Y-107603147D01*
X103328984Y-107616394D01*
X103327687Y-107630900D01*
X103314762Y-107647538D01*
X103306010Y-107666703D01*
X103293758Y-107674576D01*
X103284824Y-107686078D01*
X103264955Y-107693087D01*
X103247232Y-107704477D01*
X103222648Y-107708011D01*
X103218934Y-107709322D01*
X103212297Y-107709500D01*
X103032584Y-107709500D01*
X102965545Y-107689815D01*
X102919790Y-107637011D01*
X102914653Y-107623819D01*
X102913037Y-107618846D01*
X102889873Y-107547555D01*
X102889871Y-107547552D01*
X102889871Y-107547550D01*
X102839887Y-107449451D01*
X102811232Y-107393212D01*
X102709414Y-107253072D01*
X102586928Y-107130586D01*
X102446788Y-107028768D01*
X102314931Y-106961584D01*
X102292447Y-106950128D01*
X102292446Y-106950127D01*
X102292445Y-106950127D01*
X102127701Y-106896598D01*
X102127699Y-106896597D01*
X102127698Y-106896597D01*
X101990352Y-106874844D01*
X101956611Y-106869500D01*
X101783389Y-106869500D01*
X101712896Y-106880664D01*
X101643603Y-106871709D01*
X101590152Y-106826712D01*
X101569513Y-106759960D01*
X101569500Y-106758191D01*
X101569500Y-101351097D01*
X101589185Y-101284058D01*
X101605819Y-101263416D01*
X104933416Y-97935819D01*
X104994739Y-97902334D01*
X105021097Y-97899500D01*
X107834313Y-97899500D01*
X107901352Y-97919185D01*
G37*
%TD.AperFunction*%
%TA.AperFunction,NonConductor*%
G36*
X126715703Y-100305384D02*
G01*
X126722181Y-100311416D01*
X129649692Y-103238927D01*
X129683177Y-103300250D01*
X129678193Y-103369942D01*
X129636321Y-103425875D01*
X129570857Y-103450292D01*
X129523694Y-103444539D01*
X129437701Y-103416598D01*
X129437699Y-103416597D01*
X129437698Y-103416597D01*
X129306271Y-103395781D01*
X129266611Y-103389500D01*
X129093389Y-103389500D01*
X129053728Y-103395781D01*
X128922302Y-103416597D01*
X128757552Y-103470128D01*
X128603208Y-103548770D01*
X128542723Y-103592715D01*
X128476917Y-103616195D01*
X128408863Y-103600369D01*
X128382157Y-103580078D01*
X128320292Y-103518213D01*
X128320288Y-103518210D01*
X128189185Y-103430609D01*
X128189172Y-103430602D01*
X128043501Y-103370264D01*
X128043489Y-103370261D01*
X127888845Y-103339500D01*
X127888842Y-103339500D01*
X127731158Y-103339500D01*
X127731155Y-103339500D01*
X127576510Y-103370261D01*
X127576498Y-103370264D01*
X127430827Y-103430602D01*
X127430814Y-103430609D01*
X127299711Y-103518210D01*
X127299707Y-103518213D01*
X127188213Y-103629707D01*
X127188210Y-103629711D01*
X127100609Y-103760814D01*
X127100602Y-103760827D01*
X127040264Y-103906498D01*
X127040261Y-103906510D01*
X127009500Y-104061153D01*
X127009500Y-104228846D01*
X127040261Y-104383489D01*
X127040264Y-104383501D01*
X127100602Y-104529172D01*
X127100609Y-104529185D01*
X127188210Y-104660288D01*
X127188213Y-104660292D01*
X127299707Y-104771786D01*
X127299711Y-104771789D01*
X127430814Y-104859390D01*
X127430827Y-104859397D01*
X127576498Y-104919735D01*
X127576503Y-104919737D01*
X127722823Y-104948842D01*
X127731153Y-104950499D01*
X127731156Y-104950500D01*
X127731158Y-104950500D01*
X127888844Y-104950500D01*
X127888845Y-104950499D01*
X128043497Y-104919737D01*
X128043511Y-104919730D01*
X128048376Y-104918256D01*
X128118243Y-104917629D01*
X128177358Y-104954874D01*
X128194863Y-104980620D01*
X128209982Y-105010292D01*
X128238768Y-105066788D01*
X128340586Y-105206928D01*
X128463072Y-105329414D01*
X128603212Y-105431232D01*
X128757555Y-105509873D01*
X128922299Y-105563402D01*
X129093389Y-105590500D01*
X129093390Y-105590500D01*
X129266610Y-105590500D01*
X129266611Y-105590500D01*
X129437701Y-105563402D01*
X129602445Y-105509873D01*
X129756788Y-105431232D01*
X129896928Y-105329414D01*
X130019414Y-105206928D01*
X130121232Y-105066788D01*
X130157023Y-104996542D01*
X130204995Y-104945748D01*
X130272816Y-104928952D01*
X130338951Y-104951488D01*
X130370608Y-104983946D01*
X130388208Y-105010286D01*
X130388213Y-105010292D01*
X130499707Y-105121786D01*
X130499711Y-105121789D01*
X130630814Y-105209390D01*
X130630827Y-105209397D01*
X130771580Y-105267698D01*
X130776503Y-105269737D01*
X130870645Y-105288463D01*
X130910691Y-105296429D01*
X130938814Y-105311139D01*
X130967703Y-105324333D01*
X130969560Y-105327222D01*
X130972602Y-105328814D01*
X130988308Y-105356396D01*
X131005477Y-105383111D01*
X131006137Y-105387705D01*
X131007176Y-105389529D01*
X131010500Y-105418046D01*
X131010500Y-105626116D01*
X130990815Y-105693155D01*
X130974181Y-105713797D01*
X129658481Y-107029496D01*
X129658475Y-107029504D01*
X129614702Y-107105323D01*
X129614702Y-107105324D01*
X129579423Y-107166429D01*
X129538499Y-107319157D01*
X129538499Y-107319159D01*
X129538499Y-107487260D01*
X129538500Y-107487273D01*
X129538500Y-108378539D01*
X129518815Y-108445578D01*
X129466011Y-108491333D01*
X129396853Y-108501277D01*
X129333297Y-108472252D01*
X129326819Y-108466220D01*
X126378523Y-105517924D01*
X126345038Y-105456601D01*
X126350022Y-105386909D01*
X126391894Y-105330976D01*
X126397303Y-105327147D01*
X126420289Y-105311789D01*
X126531789Y-105200289D01*
X126619394Y-105069179D01*
X126679737Y-104923497D01*
X126710500Y-104768842D01*
X126710500Y-104611158D01*
X126710500Y-104611155D01*
X126710499Y-104611153D01*
X126706348Y-104590284D01*
X126679737Y-104456503D01*
X126668080Y-104428360D01*
X126619397Y-104310827D01*
X126619390Y-104310814D01*
X126531398Y-104179125D01*
X126510520Y-104112447D01*
X126510500Y-104110234D01*
X126510500Y-100399097D01*
X126530185Y-100332058D01*
X126582989Y-100286303D01*
X126652147Y-100276359D01*
X126715703Y-100305384D01*
G37*
%TD.AperFunction*%
%TA.AperFunction,NonConductor*%
G36*
X131044097Y-107444865D02*
G01*
X131088444Y-107473366D01*
X131208432Y-107593354D01*
X131208435Y-107593356D01*
X131212218Y-107597139D01*
X131278225Y-107641243D01*
X131278819Y-107641651D01*
X131300435Y-107668174D01*
X131322357Y-107694405D01*
X131322456Y-107695193D01*
X131322959Y-107695811D01*
X131326802Y-107729799D01*
X131331065Y-107763730D01*
X131330721Y-107764447D01*
X131330811Y-107765239D01*
X131315669Y-107795909D01*
X131300911Y-107826758D01*
X131299928Y-107827794D01*
X131299882Y-107827889D01*
X131299782Y-107827948D01*
X131296344Y-107831577D01*
X131228210Y-107899711D01*
X131140609Y-108030814D01*
X131140602Y-108030827D01*
X131080264Y-108176498D01*
X131080261Y-108176510D01*
X131049500Y-108331153D01*
X131049500Y-108488846D01*
X131080261Y-108643489D01*
X131080264Y-108643501D01*
X131140602Y-108789172D01*
X131140609Y-108789185D01*
X131216617Y-108902938D01*
X131226104Y-108933238D01*
X131237199Y-108962982D01*
X131236468Y-108966338D01*
X131237495Y-108969615D01*
X131229096Y-109000229D01*
X131222348Y-109031255D01*
X131219566Y-109034970D01*
X131219011Y-109036996D01*
X131201197Y-109059509D01*
X131143063Y-109117644D01*
X131081740Y-109151130D01*
X131012048Y-109146146D01*
X131007929Y-109144525D01*
X130973498Y-109130263D01*
X130973490Y-109130261D01*
X130839308Y-109103570D01*
X130777397Y-109071185D01*
X130742823Y-109010469D01*
X130739500Y-108981953D01*
X130739500Y-107698310D01*
X130759185Y-107631271D01*
X130775815Y-107610633D01*
X130913082Y-107473365D01*
X130974405Y-107439881D01*
X131044097Y-107444865D01*
G37*
%TD.AperFunction*%
%TA.AperFunction,NonConductor*%
G36*
X119923061Y-106811185D02*
G01*
X119968816Y-106863989D01*
X119978760Y-106933147D01*
X119977639Y-106939691D01*
X119949500Y-107081153D01*
X119949500Y-107238846D01*
X119980261Y-107393489D01*
X119980264Y-107393501D01*
X120040602Y-107539172D01*
X120040609Y-107539185D01*
X120128210Y-107670288D01*
X120128213Y-107670292D01*
X120239707Y-107781786D01*
X120239711Y-107781789D01*
X120370814Y-107869390D01*
X120370827Y-107869397D01*
X120491028Y-107919185D01*
X120516503Y-107929737D01*
X120631860Y-107952683D01*
X120671153Y-107960499D01*
X120671156Y-107960500D01*
X120671158Y-107960500D01*
X120828844Y-107960500D01*
X120828845Y-107960499D01*
X120983497Y-107929737D01*
X121129179Y-107869394D01*
X121260289Y-107781789D01*
X121371789Y-107670289D01*
X121459394Y-107539179D01*
X121459863Y-107538048D01*
X121485037Y-107477271D01*
X121519737Y-107393497D01*
X121550500Y-107238842D01*
X121550500Y-107081158D01*
X121550500Y-107081155D01*
X121550499Y-107081153D01*
X121522361Y-106939691D01*
X121528588Y-106870100D01*
X121571451Y-106814922D01*
X121637341Y-106791678D01*
X121643978Y-106791500D01*
X121913719Y-106791500D01*
X121980758Y-106811185D01*
X122026513Y-106863989D01*
X122036457Y-106933147D01*
X122024204Y-106971794D01*
X121960129Y-107097549D01*
X121960127Y-107097554D01*
X121960127Y-107097555D01*
X121949394Y-107130588D01*
X121906597Y-107262302D01*
X121882702Y-107413171D01*
X121879500Y-107433389D01*
X121879500Y-107606611D01*
X121882491Y-107625495D01*
X121905932Y-107773501D01*
X121906598Y-107777701D01*
X121960127Y-107942445D01*
X122030632Y-108080821D01*
X122031465Y-108082454D01*
X122044361Y-108151123D01*
X122018085Y-108215864D01*
X121968436Y-108253309D01*
X121950823Y-108260604D01*
X121950814Y-108260609D01*
X121819711Y-108348210D01*
X121819707Y-108348213D01*
X121708213Y-108459707D01*
X121708210Y-108459711D01*
X121620609Y-108590814D01*
X121620602Y-108590827D01*
X121560264Y-108736498D01*
X121560261Y-108736510D01*
X121529500Y-108891153D01*
X121529500Y-109048846D01*
X121555650Y-109180309D01*
X121549423Y-109249900D01*
X121506560Y-109305078D01*
X121440670Y-109328322D01*
X121434033Y-109328500D01*
X120239766Y-109328500D01*
X120172727Y-109308815D01*
X120170875Y-109307602D01*
X120039185Y-109219609D01*
X120039172Y-109219602D01*
X119893501Y-109159264D01*
X119893489Y-109159261D01*
X119738845Y-109128500D01*
X119738842Y-109128500D01*
X119581158Y-109128500D01*
X119581156Y-109128500D01*
X119426505Y-109159262D01*
X119420671Y-109161032D01*
X119419863Y-109158370D01*
X119362246Y-109164534D01*
X119299783Y-109133226D01*
X119296646Y-109130197D01*
X117169630Y-107003181D01*
X117136145Y-106941858D01*
X117141129Y-106872166D01*
X117183001Y-106816233D01*
X117248465Y-106791816D01*
X117257311Y-106791500D01*
X119856022Y-106791500D01*
X119923061Y-106811185D01*
G37*
%TD.AperFunction*%
%TA.AperFunction,NonConductor*%
G36*
X124553677Y-106811185D02*
G01*
X124574319Y-106827819D01*
X127064319Y-109317819D01*
X127097804Y-109379142D01*
X127092820Y-109448834D01*
X127050948Y-109504767D01*
X126985484Y-109529184D01*
X126976638Y-109529500D01*
X123722884Y-109529500D01*
X123655845Y-109509815D01*
X123650248Y-109505999D01*
X123642215Y-109500193D01*
X123590502Y-109448480D01*
X123497393Y-109394724D01*
X123453571Y-109369423D01*
X123300843Y-109328499D01*
X123225967Y-109328499D01*
X123158928Y-109308814D01*
X123113173Y-109256010D01*
X123103229Y-109186852D01*
X123104350Y-109180307D01*
X123130500Y-109048844D01*
X123130500Y-108891155D01*
X123101516Y-108745446D01*
X123107743Y-108675854D01*
X123150606Y-108620677D01*
X123203733Y-108598781D01*
X123237701Y-108593402D01*
X123402445Y-108539873D01*
X123556788Y-108461232D01*
X123696928Y-108359414D01*
X123819414Y-108236928D01*
X123921232Y-108096788D01*
X123999873Y-107942445D01*
X124053402Y-107777701D01*
X124080500Y-107606611D01*
X124080500Y-107433389D01*
X124053402Y-107262299D01*
X123999873Y-107097555D01*
X123993221Y-107084500D01*
X123935796Y-106971794D01*
X123922900Y-106903125D01*
X123949177Y-106838385D01*
X124006283Y-106798128D01*
X124046281Y-106791500D01*
X124486638Y-106791500D01*
X124553677Y-106811185D01*
G37*
%TD.AperFunction*%
%TA.AperFunction,NonConductor*%
G36*
X104260279Y-109230185D02*
G01*
X104306034Y-109282989D01*
X104315978Y-109352147D01*
X104307801Y-109381952D01*
X104267950Y-109478160D01*
X104267947Y-109478170D01*
X104229500Y-109671456D01*
X104229500Y-109689522D01*
X104209815Y-109756561D01*
X104157011Y-109802316D01*
X104087853Y-109812260D01*
X104036620Y-109789700D01*
X104035354Y-109791595D01*
X103899185Y-109700609D01*
X103899172Y-109700602D01*
X103753501Y-109640264D01*
X103753489Y-109640261D01*
X103598845Y-109609500D01*
X103598842Y-109609500D01*
X103441158Y-109609500D01*
X103441153Y-109609500D01*
X103308691Y-109635848D01*
X103290669Y-109634235D01*
X103272904Y-109637688D01*
X103256590Y-109631186D01*
X103239099Y-109629621D01*
X103224808Y-109618519D01*
X103207999Y-109611820D01*
X103197790Y-109597530D01*
X103183922Y-109586757D01*
X103177901Y-109569691D01*
X103167383Y-109554968D01*
X103162488Y-109525998D01*
X103160678Y-109520867D01*
X103160650Y-109520323D01*
X103160500Y-109517273D01*
X103160500Y-109391158D01*
X103152259Y-109349730D01*
X103151810Y-109340592D01*
X103157938Y-109315157D01*
X103160271Y-109289098D01*
X103165992Y-109281733D01*
X103168177Y-109272666D01*
X103187084Y-109254581D01*
X103203134Y-109233922D01*
X103211929Y-109230819D01*
X103218670Y-109224372D01*
X103244355Y-109219380D01*
X103269024Y-109210678D01*
X103275660Y-109210500D01*
X104193240Y-109210500D01*
X104260279Y-109230185D01*
G37*
%TD.AperFunction*%
%TA.AperFunction,NonConductor*%
G36*
X104473519Y-110445614D02*
G01*
X104519948Y-110474870D01*
X104592214Y-110547136D01*
X104592218Y-110547139D01*
X104756079Y-110656628D01*
X104756092Y-110656635D01*
X104938160Y-110732049D01*
X104938165Y-110732051D01*
X104938169Y-110732051D01*
X104938170Y-110732052D01*
X105052946Y-110754883D01*
X105114856Y-110787268D01*
X105149431Y-110847984D01*
X105145691Y-110917753D01*
X105104824Y-110974425D01*
X105039806Y-111000006D01*
X105028754Y-111000500D01*
X104320182Y-111000500D01*
X104253143Y-110980815D01*
X104207388Y-110928011D01*
X104197444Y-110858853D01*
X104217080Y-110807609D01*
X104229390Y-110789185D01*
X104229390Y-110789184D01*
X104229394Y-110789179D01*
X104232265Y-110782249D01*
X104249655Y-110740264D01*
X104289737Y-110643497D01*
X104310650Y-110538359D01*
X104343034Y-110476449D01*
X104403750Y-110441875D01*
X104473519Y-110445614D01*
G37*
%TD.AperFunction*%
%TA.AperFunction,NonConductor*%
G36*
X114783597Y-108820185D02*
G01*
X114829352Y-108872989D01*
X114839296Y-108942147D01*
X114810271Y-109005703D01*
X114785451Y-109027599D01*
X114698797Y-109085501D01*
X114695786Y-109087512D01*
X114692756Y-109089537D01*
X112419112Y-111363181D01*
X112357789Y-111396666D01*
X112331431Y-111399500D01*
X109799987Y-111399500D01*
X109732948Y-111379815D01*
X109687193Y-111327011D01*
X109677249Y-111257853D01*
X109685426Y-111228048D01*
X109699735Y-111193501D01*
X109699737Y-111193497D01*
X109730500Y-111038842D01*
X109730500Y-110881158D01*
X109730500Y-110881155D01*
X109730499Y-110881153D01*
X109722542Y-110841153D01*
X109699737Y-110726503D01*
X109692694Y-110709500D01*
X109639397Y-110580827D01*
X109639390Y-110580814D01*
X109551789Y-110449711D01*
X109551786Y-110449707D01*
X109440292Y-110338213D01*
X109440288Y-110338210D01*
X109309185Y-110250609D01*
X109309172Y-110250602D01*
X109163501Y-110190264D01*
X109163489Y-110190261D01*
X109008845Y-110159500D01*
X109008842Y-110159500D01*
X108851158Y-110159500D01*
X108851155Y-110159500D01*
X108696510Y-110190261D01*
X108696498Y-110190264D01*
X108550827Y-110250602D01*
X108550814Y-110250609D01*
X108419711Y-110338210D01*
X108419707Y-110338213D01*
X108308213Y-110449707D01*
X108308210Y-110449711D01*
X108220609Y-110580814D01*
X108220602Y-110580827D01*
X108160264Y-110726498D01*
X108160261Y-110726510D01*
X108129500Y-110881153D01*
X108129500Y-111038846D01*
X108160261Y-111193489D01*
X108160264Y-111193501D01*
X108220602Y-111339172D01*
X108220609Y-111339185D01*
X108290357Y-111443569D01*
X108311235Y-111510246D01*
X108292751Y-111577627D01*
X108274937Y-111600141D01*
X108212860Y-111662218D01*
X108103371Y-111826079D01*
X108103366Y-111826088D01*
X108046315Y-111963824D01*
X108002474Y-112018227D01*
X107936180Y-112040292D01*
X107868481Y-112023013D01*
X107844073Y-112004052D01*
X107079376Y-111239355D01*
X107079374Y-111239352D01*
X106960503Y-111120481D01*
X106960495Y-111120475D01*
X106865276Y-111065501D01*
X106865274Y-111065500D01*
X106823576Y-111041425D01*
X106823575Y-111041424D01*
X106811049Y-111038067D01*
X106670843Y-111000499D01*
X106512729Y-111000499D01*
X106505133Y-111000499D01*
X106505117Y-111000500D01*
X105431246Y-111000500D01*
X105364207Y-110980815D01*
X105318452Y-110928011D01*
X105308508Y-110858853D01*
X105337533Y-110795297D01*
X105396311Y-110757523D01*
X105407054Y-110754883D01*
X105486176Y-110739144D01*
X105521835Y-110732051D01*
X105670441Y-110670497D01*
X105703907Y-110656635D01*
X105703907Y-110656634D01*
X105703914Y-110656632D01*
X105867782Y-110547139D01*
X106007139Y-110407782D01*
X106116632Y-110243914D01*
X106192051Y-110061835D01*
X106218332Y-109929712D01*
X106230500Y-109868543D01*
X106230500Y-109671456D01*
X106192052Y-109478170D01*
X106192051Y-109478169D01*
X106192051Y-109478165D01*
X106157489Y-109394724D01*
X106152199Y-109381952D01*
X106144730Y-109312483D01*
X106176005Y-109250004D01*
X106236095Y-109214352D01*
X106266760Y-109210500D01*
X108290310Y-109210500D01*
X108357349Y-109230185D01*
X108403104Y-109282989D01*
X108404867Y-109287039D01*
X108425358Y-109336510D01*
X108430606Y-109349179D01*
X108430607Y-109349182D01*
X108518210Y-109480288D01*
X108518213Y-109480292D01*
X108629707Y-109591786D01*
X108629711Y-109591789D01*
X108760814Y-109679390D01*
X108760827Y-109679397D01*
X108864891Y-109722501D01*
X108906503Y-109739737D01*
X109061153Y-109770499D01*
X109061156Y-109770500D01*
X109061158Y-109770500D01*
X109218844Y-109770500D01*
X109218845Y-109770499D01*
X109373497Y-109739737D01*
X109519179Y-109679394D01*
X109650289Y-109591789D01*
X109761789Y-109480289D01*
X109849394Y-109349179D01*
X109875129Y-109287047D01*
X109918969Y-109232644D01*
X109985263Y-109210579D01*
X109989690Y-109210500D01*
X111748120Y-109210500D01*
X111815159Y-109230185D01*
X111860914Y-109282989D01*
X111870858Y-109352147D01*
X111869737Y-109358692D01*
X111859500Y-109410155D01*
X111859500Y-109567846D01*
X111890261Y-109722489D01*
X111890264Y-109722501D01*
X111950602Y-109868172D01*
X111950609Y-109868185D01*
X112038210Y-109999288D01*
X112038213Y-109999292D01*
X112149707Y-110110786D01*
X112149711Y-110110789D01*
X112280814Y-110198390D01*
X112280827Y-110198397D01*
X112390731Y-110243920D01*
X112426503Y-110258737D01*
X112581153Y-110289499D01*
X112581156Y-110289500D01*
X112581158Y-110289500D01*
X112738844Y-110289500D01*
X112738845Y-110289499D01*
X112893497Y-110258737D01*
X113039179Y-110198394D01*
X113170289Y-110110789D01*
X113281789Y-109999289D01*
X113369394Y-109868179D01*
X113429737Y-109722497D01*
X113447877Y-109631300D01*
X113480260Y-109569394D01*
X113540975Y-109534819D01*
X113545555Y-109533917D01*
X113547701Y-109533402D01*
X113559713Y-109529499D01*
X113712445Y-109479873D01*
X113866788Y-109401232D01*
X114006928Y-109299414D01*
X114129414Y-109176928D01*
X114231232Y-109036788D01*
X114309873Y-108882445D01*
X114309874Y-108882440D01*
X114311739Y-108877941D01*
X114312774Y-108878370D01*
X114313379Y-108873911D01*
X114331938Y-108852134D01*
X114348084Y-108828517D01*
X114354312Y-108825883D01*
X114358701Y-108820735D01*
X114386089Y-108812449D01*
X114412439Y-108801310D01*
X114420685Y-108801983D01*
X114425578Y-108800504D01*
X114426590Y-108800500D01*
X114430943Y-108800500D01*
X114589057Y-108800500D01*
X114716558Y-108800500D01*
X114783597Y-108820185D01*
G37*
%TD.AperFunction*%
%TA.AperFunction,NonConductor*%
G36*
X144054783Y-95499848D02*
G01*
X144100744Y-95552472D01*
X144112146Y-95603238D01*
X144190293Y-103766124D01*
X144171251Y-103833349D01*
X144118888Y-103879607D01*
X144049828Y-103890212D01*
X143985997Y-103861797D01*
X143951738Y-103814764D01*
X143929395Y-103760823D01*
X143929390Y-103760814D01*
X143841789Y-103629711D01*
X143841786Y-103629707D01*
X143730292Y-103518213D01*
X143730288Y-103518210D01*
X143599185Y-103430609D01*
X143599172Y-103430602D01*
X143453501Y-103370264D01*
X143453489Y-103370261D01*
X143298845Y-103339500D01*
X143298842Y-103339500D01*
X143141158Y-103339500D01*
X143141155Y-103339500D01*
X142986510Y-103370261D01*
X142986498Y-103370264D01*
X142840827Y-103430602D01*
X142840814Y-103430609D01*
X142709711Y-103518210D01*
X142709707Y-103518213D01*
X142598213Y-103629707D01*
X142598210Y-103629711D01*
X142510609Y-103760814D01*
X142510602Y-103760827D01*
X142450264Y-103906498D01*
X142450261Y-103906510D01*
X142419500Y-104061153D01*
X142419500Y-104218846D01*
X142450261Y-104373489D01*
X142450264Y-104373501D01*
X142510602Y-104519172D01*
X142510608Y-104519183D01*
X142542297Y-104566609D01*
X142563174Y-104633286D01*
X142544689Y-104700666D01*
X142492710Y-104747356D01*
X142477516Y-104753428D01*
X142464934Y-104757517D01*
X142447147Y-104763296D01*
X142296311Y-104840152D01*
X142159365Y-104939648D01*
X142159360Y-104939652D01*
X142039652Y-105059360D01*
X142039648Y-105059365D01*
X141940152Y-105196311D01*
X141884911Y-105304727D01*
X141836936Y-105355523D01*
X141769115Y-105372318D01*
X141705535Y-105351534D01*
X141689185Y-105340609D01*
X141689172Y-105340602D01*
X141543501Y-105280264D01*
X141543489Y-105280261D01*
X141388845Y-105249500D01*
X141388842Y-105249500D01*
X141231158Y-105249500D01*
X141231155Y-105249500D01*
X141076510Y-105280261D01*
X141076498Y-105280264D01*
X140930827Y-105340602D01*
X140930811Y-105340611D01*
X140908434Y-105355563D01*
X140841757Y-105376440D01*
X140774377Y-105357955D01*
X140729060Y-105308754D01*
X140724854Y-105300500D01*
X140714544Y-105280264D01*
X140708142Y-105267699D01*
X140686298Y-105237634D01*
X140594759Y-105111641D01*
X140458359Y-104975241D01*
X140302302Y-104861859D01*
X140130429Y-104774285D01*
X139946972Y-104714676D01*
X139946970Y-104714675D01*
X139946969Y-104714675D01*
X139800614Y-104691495D01*
X139756449Y-104684500D01*
X139013551Y-104684500D01*
X138977697Y-104690178D01*
X138823030Y-104714675D01*
X138639568Y-104774286D01*
X138467692Y-104861861D01*
X138446576Y-104877203D01*
X138380769Y-104900681D01*
X138312716Y-104884854D01*
X138264023Y-104834746D01*
X138252665Y-104796937D01*
X138251689Y-104797132D01*
X138219738Y-104636510D01*
X138219737Y-104636503D01*
X138219735Y-104636498D01*
X138159397Y-104490827D01*
X138159390Y-104490814D01*
X138071789Y-104359711D01*
X138071786Y-104359707D01*
X137960292Y-104248213D01*
X137960288Y-104248210D01*
X137829185Y-104160609D01*
X137829172Y-104160602D01*
X137683501Y-104100264D01*
X137683489Y-104100261D01*
X137528845Y-104069500D01*
X137528842Y-104069500D01*
X137371158Y-104069500D01*
X137371155Y-104069500D01*
X137216510Y-104100261D01*
X137216498Y-104100264D01*
X137070827Y-104160602D01*
X137070814Y-104160609D01*
X136939711Y-104248210D01*
X136939707Y-104248213D01*
X136828213Y-104359707D01*
X136828210Y-104359711D01*
X136740609Y-104490814D01*
X136740602Y-104490827D01*
X136680264Y-104636498D01*
X136680261Y-104636510D01*
X136649500Y-104791153D01*
X136649500Y-104948846D01*
X136680261Y-105103489D01*
X136680264Y-105103501D01*
X136740602Y-105249172D01*
X136740609Y-105249185D01*
X136807490Y-105349279D01*
X136828368Y-105415957D01*
X136809883Y-105483337D01*
X136792075Y-105505846D01*
X136788211Y-105509709D01*
X136788210Y-105509711D01*
X136700609Y-105640814D01*
X136700602Y-105640827D01*
X136640264Y-105786498D01*
X136640261Y-105786510D01*
X136609500Y-105941153D01*
X136609500Y-106098846D01*
X136640261Y-106253489D01*
X136640264Y-106253501D01*
X136700602Y-106399172D01*
X136700609Y-106399185D01*
X136788210Y-106530288D01*
X136788213Y-106530292D01*
X136899707Y-106641786D01*
X136899711Y-106641789D01*
X137030814Y-106729390D01*
X137030827Y-106729397D01*
X137159461Y-106782678D01*
X137176503Y-106789737D01*
X137312738Y-106816836D01*
X137331153Y-106820499D01*
X137331156Y-106820500D01*
X137331158Y-106820500D01*
X137488844Y-106820500D01*
X137488845Y-106820499D01*
X137643497Y-106789737D01*
X137789179Y-106729394D01*
X137920289Y-106641789D01*
X137937279Y-106624799D01*
X137998601Y-106591312D01*
X138068293Y-106596295D01*
X138124227Y-106638165D01*
X138125252Y-106639555D01*
X138175241Y-106708359D01*
X138311641Y-106844759D01*
X138467698Y-106958141D01*
X138639571Y-107045715D01*
X138823028Y-107105324D01*
X139013551Y-107135500D01*
X139415193Y-107135500D01*
X139482232Y-107155185D01*
X139527987Y-107207989D01*
X139536810Y-107235308D01*
X139569104Y-107397659D01*
X139569106Y-107397667D01*
X139636983Y-107561540D01*
X139636990Y-107561553D01*
X139735535Y-107709034D01*
X139735538Y-107709038D01*
X139860961Y-107834461D01*
X139860965Y-107834464D01*
X140008446Y-107933009D01*
X140008459Y-107933016D01*
X140074813Y-107960500D01*
X140172334Y-108000894D01*
X140172336Y-108000894D01*
X140172341Y-108000896D01*
X140346304Y-108035499D01*
X140346307Y-108035500D01*
X140346309Y-108035500D01*
X140523693Y-108035500D01*
X140523694Y-108035499D01*
X140599106Y-108020499D01*
X140697658Y-108000896D01*
X140697661Y-108000894D01*
X140697666Y-108000894D01*
X140861547Y-107933013D01*
X141009035Y-107834464D01*
X141134464Y-107709035D01*
X141156133Y-107676604D01*
X141209745Y-107631799D01*
X141279069Y-107623090D01*
X141342097Y-107653244D01*
X141362338Y-107676602D01*
X141398213Y-107730292D01*
X141509707Y-107841786D01*
X141509711Y-107841789D01*
X141640814Y-107929390D01*
X141640827Y-107929397D01*
X141754519Y-107976489D01*
X141786503Y-107989737D01*
X141941153Y-108020499D01*
X141941156Y-108020500D01*
X141941158Y-108020500D01*
X142098844Y-108020500D01*
X142098845Y-108020499D01*
X142253497Y-107989737D01*
X142342954Y-107952682D01*
X142412423Y-107945214D01*
X142474902Y-107976489D01*
X142493508Y-107998353D01*
X142528210Y-108050288D01*
X142528213Y-108050292D01*
X142639707Y-108161786D01*
X142639711Y-108161789D01*
X142770814Y-108249390D01*
X142770827Y-108249397D01*
X142916498Y-108309735D01*
X142916503Y-108309737D01*
X143071153Y-108340499D01*
X143071156Y-108340500D01*
X143071158Y-108340500D01*
X143228844Y-108340500D01*
X143228845Y-108340499D01*
X143383497Y-108309737D01*
X143502111Y-108260606D01*
X143529172Y-108249397D01*
X143529172Y-108249396D01*
X143529179Y-108249394D01*
X143660289Y-108161789D01*
X143771789Y-108050289D01*
X143859394Y-107919179D01*
X143919737Y-107773497D01*
X143950500Y-107618842D01*
X143950500Y-107461158D01*
X143950500Y-107461155D01*
X143950499Y-107461153D01*
X143937871Y-107397667D01*
X143919737Y-107306503D01*
X143909237Y-107281153D01*
X143859397Y-107160827D01*
X143859390Y-107160814D01*
X143771789Y-107029711D01*
X143771786Y-107029707D01*
X143745863Y-107003784D01*
X143712378Y-106942461D01*
X143717362Y-106872769D01*
X143759234Y-106816836D01*
X143795223Y-106798173D01*
X143922849Y-106756705D01*
X144039114Y-106697464D01*
X144107782Y-106684569D01*
X144172522Y-106710845D01*
X144212780Y-106767951D01*
X144219402Y-106806763D01*
X144265940Y-111668044D01*
X144246898Y-111735269D01*
X144194535Y-111781527D01*
X144125475Y-111792132D01*
X144061644Y-111763717D01*
X144027385Y-111716683D01*
X143979397Y-111600826D01*
X143979390Y-111600814D01*
X143891789Y-111469711D01*
X143891786Y-111469707D01*
X143780292Y-111358213D01*
X143780288Y-111358210D01*
X143649185Y-111270609D01*
X143649172Y-111270602D01*
X143503501Y-111210264D01*
X143503489Y-111210261D01*
X143348845Y-111179500D01*
X143348842Y-111179500D01*
X143191158Y-111179500D01*
X143191155Y-111179500D01*
X143036510Y-111210261D01*
X143036498Y-111210264D01*
X142890828Y-111270602D01*
X142890816Y-111270609D01*
X142883785Y-111275307D01*
X142817107Y-111296182D01*
X142749727Y-111277695D01*
X142746007Y-111275304D01*
X142649185Y-111210609D01*
X142649172Y-111210602D01*
X142503501Y-111150264D01*
X142503489Y-111150261D01*
X142348845Y-111119500D01*
X142348842Y-111119500D01*
X142191158Y-111119500D01*
X142191155Y-111119500D01*
X142036510Y-111150261D01*
X142036498Y-111150264D01*
X141890827Y-111210602D01*
X141890814Y-111210609D01*
X141759711Y-111298210D01*
X141759707Y-111298213D01*
X141648213Y-111409707D01*
X141648210Y-111409711D01*
X141560609Y-111540814D01*
X141560602Y-111540827D01*
X141500264Y-111686498D01*
X141500261Y-111686508D01*
X141490358Y-111736295D01*
X141457973Y-111798206D01*
X141397257Y-111832780D01*
X141327487Y-111829039D01*
X141270815Y-111788173D01*
X141254179Y-111759554D01*
X141248773Y-111746503D01*
X141233013Y-111708453D01*
X141233009Y-111708446D01*
X141134464Y-111560965D01*
X141134461Y-111560961D01*
X141009038Y-111435538D01*
X141004767Y-111432033D01*
X140965432Y-111374287D01*
X140963561Y-111304442D01*
X140999748Y-111244674D01*
X141059239Y-111214562D01*
X141083497Y-111209737D01*
X141229179Y-111149394D01*
X141360289Y-111061789D01*
X141471789Y-110950289D01*
X141559394Y-110819179D01*
X141619737Y-110673497D01*
X141650500Y-110518842D01*
X141650500Y-110361158D01*
X141650500Y-110361155D01*
X141650499Y-110361153D01*
X141645936Y-110338213D01*
X141619737Y-110206503D01*
X141619735Y-110206498D01*
X141559397Y-110060827D01*
X141559390Y-110060814D01*
X141471790Y-109929712D01*
X141441789Y-109899711D01*
X141395911Y-109853833D01*
X141362428Y-109792513D01*
X141361977Y-109741962D01*
X141362420Y-109739738D01*
X141370203Y-109700609D01*
X141380500Y-109648844D01*
X141380500Y-109491155D01*
X141380499Y-109491153D01*
X141377924Y-109478210D01*
X141349737Y-109336503D01*
X141347152Y-109330263D01*
X141289397Y-109190827D01*
X141289390Y-109190814D01*
X141201789Y-109059711D01*
X141201786Y-109059707D01*
X141090292Y-108948213D01*
X141090288Y-108948210D01*
X140959185Y-108860609D01*
X140959172Y-108860602D01*
X140813501Y-108800264D01*
X140813489Y-108800261D01*
X140658845Y-108769500D01*
X140658842Y-108769500D01*
X140501158Y-108769500D01*
X140501155Y-108769500D01*
X140346510Y-108800261D01*
X140346498Y-108800264D01*
X140200827Y-108860602D01*
X140200814Y-108860609D01*
X140069711Y-108948210D01*
X140069707Y-108948213D01*
X139958213Y-109059707D01*
X139958210Y-109059711D01*
X139870609Y-109190814D01*
X139870602Y-109190827D01*
X139810264Y-109336498D01*
X139810261Y-109336510D01*
X139779500Y-109491153D01*
X139779500Y-109648846D01*
X139810261Y-109803489D01*
X139810264Y-109803501D01*
X139870602Y-109949172D01*
X139870609Y-109949185D01*
X139958210Y-110080288D01*
X139958213Y-110080292D01*
X140034086Y-110156165D01*
X140067571Y-110217488D01*
X140068022Y-110268037D01*
X140049500Y-110361153D01*
X140049500Y-110518846D01*
X140080261Y-110673489D01*
X140080264Y-110673501D01*
X140140602Y-110819172D01*
X140140609Y-110819185D01*
X140228210Y-110950288D01*
X140228213Y-110950292D01*
X140320821Y-111042900D01*
X140354306Y-111104223D01*
X140349322Y-111173915D01*
X140307450Y-111229848D01*
X140257332Y-111252198D01*
X140172340Y-111269104D01*
X140172332Y-111269106D01*
X140008459Y-111336983D01*
X140008446Y-111336990D01*
X139860965Y-111435535D01*
X139860961Y-111435538D01*
X139735538Y-111560961D01*
X139735535Y-111560965D01*
X139636990Y-111708446D01*
X139636983Y-111708459D01*
X139569106Y-111872332D01*
X139569104Y-111872340D01*
X139536810Y-112034692D01*
X139504425Y-112096603D01*
X139443709Y-112131177D01*
X139415193Y-112134500D01*
X139013551Y-112134500D01*
X138977697Y-112140178D01*
X138823030Y-112164675D01*
X138639568Y-112224286D01*
X138467697Y-112311859D01*
X138379603Y-112375864D01*
X138311641Y-112425241D01*
X138311639Y-112425243D01*
X138311638Y-112425243D01*
X138175242Y-112561639D01*
X138077794Y-112695764D01*
X138022463Y-112738429D01*
X137952850Y-112744408D01*
X137891055Y-112711802D01*
X137889795Y-112710559D01*
X137778717Y-112599481D01*
X137778709Y-112599475D01*
X137641790Y-112520426D01*
X137641786Y-112520424D01*
X137641784Y-112520423D01*
X137489057Y-112479500D01*
X137489056Y-112479500D01*
X135484500Y-112479500D01*
X135417461Y-112459815D01*
X135371706Y-112407011D01*
X135360500Y-112355500D01*
X135360500Y-112211155D01*
X135360499Y-112211153D01*
X135350439Y-112160577D01*
X135329737Y-112056503D01*
X135314737Y-112020289D01*
X135269397Y-111910827D01*
X135269390Y-111910814D01*
X135181789Y-111779711D01*
X135181786Y-111779707D01*
X135070292Y-111668213D01*
X135070288Y-111668210D01*
X134939185Y-111580609D01*
X134939172Y-111580602D01*
X134793501Y-111520264D01*
X134793489Y-111520261D01*
X134638845Y-111489500D01*
X134638842Y-111489500D01*
X134481158Y-111489500D01*
X134481155Y-111489500D01*
X134326510Y-111520261D01*
X134326498Y-111520264D01*
X134180827Y-111580602D01*
X134180814Y-111580609D01*
X134049711Y-111668210D01*
X134049707Y-111668213D01*
X133938213Y-111779707D01*
X133938210Y-111779711D01*
X133850609Y-111910814D01*
X133850602Y-111910827D01*
X133790264Y-112056498D01*
X133790261Y-112056510D01*
X133759500Y-112211153D01*
X133759500Y-112355500D01*
X133739815Y-112422539D01*
X133687011Y-112468294D01*
X133635500Y-112479500D01*
X132494617Y-112479500D01*
X132427578Y-112459815D01*
X132381823Y-112407011D01*
X132371879Y-112337853D01*
X132400904Y-112274297D01*
X132447165Y-112240939D01*
X132499172Y-112219397D01*
X132499172Y-112219396D01*
X132499179Y-112219394D01*
X132630289Y-112131789D01*
X132741789Y-112020289D01*
X132829394Y-111889179D01*
X132889737Y-111743497D01*
X132920500Y-111588842D01*
X132920500Y-111431158D01*
X132920500Y-111431155D01*
X132920499Y-111431153D01*
X132910287Y-111379815D01*
X132889737Y-111276503D01*
X132870412Y-111229848D01*
X132829397Y-111130827D01*
X132829390Y-111130814D01*
X132741789Y-110999711D01*
X132741786Y-110999707D01*
X132630292Y-110888213D01*
X132630288Y-110888210D01*
X132499185Y-110800609D01*
X132499172Y-110800602D01*
X132353501Y-110740264D01*
X132353489Y-110740261D01*
X132198845Y-110709500D01*
X132198842Y-110709500D01*
X132041158Y-110709500D01*
X132041155Y-110709500D01*
X131886510Y-110740261D01*
X131886498Y-110740264D01*
X131740827Y-110800602D01*
X131740814Y-110800609D01*
X131609711Y-110888210D01*
X131609707Y-110888213D01*
X131498211Y-110999709D01*
X131495152Y-111003437D01*
X131437403Y-111042766D01*
X131367558Y-111044631D01*
X131311624Y-111012445D01*
X131216137Y-110916958D01*
X131099768Y-110800590D01*
X131089753Y-110782249D01*
X131075744Y-110766741D01*
X131073345Y-110752200D01*
X131066284Y-110739268D01*
X131067774Y-110718422D01*
X131064374Y-110697803D01*
X131070216Y-110684275D01*
X131071268Y-110669577D01*
X131083792Y-110652846D01*
X131092079Y-110633661D01*
X131110730Y-110616860D01*
X131113139Y-110613643D01*
X131118270Y-110610002D01*
X131119167Y-110609398D01*
X131119179Y-110609394D01*
X131250289Y-110521789D01*
X131251928Y-110520149D01*
X131258821Y-110515516D01*
X131269881Y-110512018D01*
X131295901Y-110498651D01*
X131441728Y-110459577D01*
X131519415Y-110414724D01*
X131578659Y-110380520D01*
X131690463Y-110268716D01*
X131690463Y-110268714D01*
X131700667Y-110258511D01*
X131700671Y-110258506D01*
X133009506Y-108949671D01*
X133009511Y-108949667D01*
X133019714Y-108939463D01*
X133019716Y-108939463D01*
X133131520Y-108827659D01*
X133210577Y-108690727D01*
X133241721Y-108574495D01*
X133251500Y-108538001D01*
X133251500Y-108381153D01*
X133669500Y-108381153D01*
X133669500Y-108538846D01*
X133700261Y-108693489D01*
X133700264Y-108693501D01*
X133760602Y-108839172D01*
X133760609Y-108839185D01*
X133848210Y-108970288D01*
X133848213Y-108970292D01*
X133959707Y-109081786D01*
X133959711Y-109081789D01*
X134090814Y-109169390D01*
X134090827Y-109169397D01*
X134236498Y-109229735D01*
X134236503Y-109229737D01*
X134391153Y-109260499D01*
X134391156Y-109260500D01*
X134391158Y-109260500D01*
X134548844Y-109260500D01*
X134548845Y-109260499D01*
X134703497Y-109229737D01*
X134822828Y-109180309D01*
X134849172Y-109169397D01*
X134849172Y-109169396D01*
X134849179Y-109169394D01*
X134980289Y-109081789D01*
X135091789Y-108970289D01*
X135179394Y-108839179D01*
X135239737Y-108693497D01*
X135270500Y-108538842D01*
X135270500Y-108381158D01*
X135270500Y-108381155D01*
X135270499Y-108381153D01*
X135263946Y-108348210D01*
X135239737Y-108226503D01*
X135227612Y-108197231D01*
X135179397Y-108080827D01*
X135179390Y-108080814D01*
X135091789Y-107949711D01*
X135091786Y-107949707D01*
X134980292Y-107838213D01*
X134980288Y-107838210D01*
X134849185Y-107750609D01*
X134849172Y-107750602D01*
X134703501Y-107690264D01*
X134703489Y-107690261D01*
X134548845Y-107659500D01*
X134548842Y-107659500D01*
X134391158Y-107659500D01*
X134391155Y-107659500D01*
X134236510Y-107690261D01*
X134236498Y-107690264D01*
X134090827Y-107750602D01*
X134090814Y-107750609D01*
X133959711Y-107838210D01*
X133959707Y-107838213D01*
X133848213Y-107949707D01*
X133848210Y-107949711D01*
X133760609Y-108080814D01*
X133760602Y-108080827D01*
X133700264Y-108226498D01*
X133700261Y-108226510D01*
X133669500Y-108381153D01*
X133251500Y-108381153D01*
X133251500Y-108379886D01*
X133251500Y-97219778D01*
X137769500Y-97219778D01*
X137769500Y-97440221D01*
X137803985Y-97657952D01*
X137872103Y-97867603D01*
X137872104Y-97867606D01*
X137918338Y-97958343D01*
X137969871Y-98059481D01*
X137972187Y-98064025D01*
X138101752Y-98242358D01*
X138101756Y-98242363D01*
X138257636Y-98398243D01*
X138257641Y-98398247D01*
X138301335Y-98429992D01*
X138435978Y-98527815D01*
X138559211Y-98590606D01*
X138632393Y-98627895D01*
X138632396Y-98627896D01*
X138737221Y-98661955D01*
X138842049Y-98696015D01*
X139059778Y-98730500D01*
X139059779Y-98730500D01*
X139280221Y-98730500D01*
X139280222Y-98730500D01*
X139497951Y-98696015D01*
X139707606Y-98627895D01*
X139904022Y-98527815D01*
X140082365Y-98398242D01*
X140132536Y-98348070D01*
X140193857Y-98314586D01*
X140263548Y-98319570D01*
X140319482Y-98361441D01*
X140336398Y-98392419D01*
X140366202Y-98472328D01*
X140366206Y-98472335D01*
X140452452Y-98587544D01*
X140452455Y-98587547D01*
X140567664Y-98673793D01*
X140567671Y-98673797D01*
X140702517Y-98724091D01*
X140702516Y-98724091D01*
X140709444Y-98724835D01*
X140762127Y-98730500D01*
X141875786Y-98730499D01*
X141942825Y-98750184D01*
X141988580Y-98802987D01*
X141998524Y-98872146D01*
X141982199Y-98914762D01*
X141983479Y-98915446D01*
X141980602Y-98920827D01*
X141920264Y-99066498D01*
X141920261Y-99066510D01*
X141889500Y-99221153D01*
X141889500Y-99378846D01*
X141920261Y-99533489D01*
X141920264Y-99533501D01*
X141980602Y-99679172D01*
X141980609Y-99679185D01*
X142068210Y-99810288D01*
X142068213Y-99810292D01*
X142179707Y-99921786D01*
X142179711Y-99921789D01*
X142310814Y-100009390D01*
X142310827Y-100009397D01*
X142456498Y-100069735D01*
X142456503Y-100069737D01*
X142611153Y-100100499D01*
X142611156Y-100100500D01*
X142611158Y-100100500D01*
X142768844Y-100100500D01*
X142768845Y-100100499D01*
X142923497Y-100069737D01*
X143069179Y-100009394D01*
X143200289Y-99921789D01*
X143311789Y-99810289D01*
X143399394Y-99679179D01*
X143459737Y-99533497D01*
X143490500Y-99378842D01*
X143490500Y-99221158D01*
X143490500Y-99221155D01*
X143490499Y-99221153D01*
X143484677Y-99191886D01*
X143459737Y-99066503D01*
X143448080Y-99038360D01*
X143399397Y-98920827D01*
X143399390Y-98920814D01*
X143311789Y-98789711D01*
X143311786Y-98789707D01*
X143200292Y-98678213D01*
X143200288Y-98678210D01*
X143103129Y-98613290D01*
X143058324Y-98559678D01*
X143049617Y-98490353D01*
X143055838Y-98466855D01*
X143057988Y-98461092D01*
X143104091Y-98337483D01*
X143110500Y-98277873D01*
X143110499Y-96382128D01*
X143105226Y-96333079D01*
X143104091Y-96322516D01*
X143053797Y-96187671D01*
X143053793Y-96187664D01*
X142967547Y-96072455D01*
X142967544Y-96072452D01*
X142852335Y-95986206D01*
X142852328Y-95986202D01*
X142717482Y-95935908D01*
X142717483Y-95935908D01*
X142657883Y-95929501D01*
X142657881Y-95929500D01*
X142657873Y-95929500D01*
X142657864Y-95929500D01*
X140762129Y-95929500D01*
X140762123Y-95929501D01*
X140702516Y-95935908D01*
X140567671Y-95986202D01*
X140567664Y-95986206D01*
X140452455Y-96072452D01*
X140452452Y-96072455D01*
X140366206Y-96187664D01*
X140366203Y-96187669D01*
X140336398Y-96267581D01*
X140294526Y-96323514D01*
X140229062Y-96347931D01*
X140160789Y-96333079D01*
X140132535Y-96311928D01*
X140082363Y-96261756D01*
X140082358Y-96261752D01*
X139904025Y-96132187D01*
X139904024Y-96132186D01*
X139904022Y-96132185D01*
X139786791Y-96072452D01*
X139707606Y-96032104D01*
X139707603Y-96032103D01*
X139497952Y-95963985D01*
X139389086Y-95946742D01*
X139280222Y-95929500D01*
X139059778Y-95929500D01*
X138987201Y-95940995D01*
X138842047Y-95963985D01*
X138632396Y-96032103D01*
X138632393Y-96032104D01*
X138435974Y-96132187D01*
X138257641Y-96261752D01*
X138257636Y-96261756D01*
X138101756Y-96417636D01*
X138101752Y-96417641D01*
X137972187Y-96595974D01*
X137872104Y-96792393D01*
X137872103Y-96792396D01*
X137803985Y-97002047D01*
X137769500Y-97219778D01*
X133251500Y-97219778D01*
X133251500Y-97130060D01*
X133251501Y-97130047D01*
X133251501Y-96961944D01*
X133251501Y-96961943D01*
X133210577Y-96809216D01*
X133210573Y-96809209D01*
X133131524Y-96672290D01*
X133131518Y-96672282D01*
X132794573Y-96335337D01*
X132761088Y-96274014D01*
X132760637Y-96271847D01*
X132738783Y-96161981D01*
X132729737Y-96116503D01*
X132711492Y-96072455D01*
X132669397Y-95970827D01*
X132669390Y-95970814D01*
X132581789Y-95839711D01*
X132581786Y-95839707D01*
X132478898Y-95736819D01*
X132445413Y-95675496D01*
X132450397Y-95605804D01*
X132492269Y-95549871D01*
X132557733Y-95525454D01*
X132566084Y-95525139D01*
X143987669Y-95480426D01*
X144054783Y-95499848D01*
G37*
%TD.AperFunction*%
%TA.AperFunction,NonConductor*%
G36*
X121832539Y-110549185D02*
G01*
X121878294Y-110601989D01*
X121889500Y-110653500D01*
X121889500Y-110828541D01*
X121889500Y-110828543D01*
X121889499Y-110828543D01*
X121927947Y-111021829D01*
X121927950Y-111021839D01*
X122003364Y-111203907D01*
X122003371Y-111203920D01*
X122112860Y-111367781D01*
X122112863Y-111367785D01*
X122252214Y-111507136D01*
X122252218Y-111507139D01*
X122416079Y-111616628D01*
X122416092Y-111616635D01*
X122578503Y-111683907D01*
X122598165Y-111692051D01*
X122598169Y-111692051D01*
X122598170Y-111692052D01*
X122791456Y-111730500D01*
X122791459Y-111730500D01*
X122988543Y-111730500D01*
X123118582Y-111704632D01*
X123181835Y-111692051D01*
X123363914Y-111616632D01*
X123527782Y-111507139D01*
X123667139Y-111367782D01*
X123776632Y-111203914D01*
X123852051Y-111021835D01*
X123867998Y-110941666D01*
X123890149Y-110830308D01*
X123922534Y-110768397D01*
X123983250Y-110733823D01*
X124011766Y-110730500D01*
X126799903Y-110730500D01*
X126829343Y-110739144D01*
X126859330Y-110745668D01*
X126864345Y-110749422D01*
X126866942Y-110750185D01*
X126887584Y-110766819D01*
X126969993Y-110849228D01*
X126996873Y-110889456D01*
X127050604Y-111019176D01*
X127050609Y-111019185D01*
X127138210Y-111150288D01*
X127138213Y-111150292D01*
X127249707Y-111261786D01*
X127249711Y-111261789D01*
X127380814Y-111349390D01*
X127380827Y-111349397D01*
X127526440Y-111409711D01*
X127526503Y-111409737D01*
X127656213Y-111435538D01*
X127681153Y-111440499D01*
X127681156Y-111440500D01*
X127725500Y-111440500D01*
X127792539Y-111460185D01*
X127838294Y-111512989D01*
X127849500Y-111564500D01*
X127849500Y-112375864D01*
X127829815Y-112442903D01*
X127777011Y-112488658D01*
X127725500Y-112499864D01*
X125280519Y-112499864D01*
X125239598Y-112510828D01*
X125239598Y-112510829D01*
X125203793Y-112520423D01*
X125127793Y-112540787D01*
X125127788Y-112540790D01*
X124990869Y-112619839D01*
X124990861Y-112619845D01*
X123859511Y-113751196D01*
X123798188Y-113784681D01*
X123728496Y-113779697D01*
X123702939Y-113766617D01*
X123589185Y-113690609D01*
X123589172Y-113690602D01*
X123443501Y-113630264D01*
X123443489Y-113630261D01*
X123288845Y-113599500D01*
X123288842Y-113599500D01*
X123131158Y-113599500D01*
X123131156Y-113599500D01*
X122976504Y-113630262D01*
X122973193Y-113631267D01*
X122971373Y-113631283D01*
X122970530Y-113631451D01*
X122970498Y-113631290D01*
X122903326Y-113631888D01*
X122849521Y-113600286D01*
X120055171Y-110805936D01*
X120045074Y-110787445D01*
X120030995Y-110771771D01*
X120028665Y-110757394D01*
X120021686Y-110744613D01*
X120023188Y-110723597D01*
X120019819Y-110702801D01*
X120025631Y-110689448D01*
X120026670Y-110674921D01*
X120039296Y-110658054D01*
X120047705Y-110638737D01*
X120066182Y-110622139D01*
X120068542Y-110618988D01*
X120073943Y-110615164D01*
X120170289Y-110550789D01*
X120170288Y-110550789D01*
X120170876Y-110550397D01*
X120237553Y-110529520D01*
X120239766Y-110529500D01*
X121765500Y-110529500D01*
X121832539Y-110549185D01*
G37*
%TD.AperFunction*%
%TA.AperFunction,NonConductor*%
G36*
X110235304Y-113220185D02*
G01*
X110281059Y-113272989D01*
X110291003Y-113342147D01*
X110289882Y-113348692D01*
X110269500Y-113451155D01*
X110269500Y-113608846D01*
X110300260Y-113763488D01*
X110300263Y-113763497D01*
X110319567Y-113810103D01*
X110321136Y-113824709D01*
X110327450Y-113837976D01*
X110324795Y-113858750D01*
X110327034Y-113879572D01*
X110320301Y-113893933D01*
X110318596Y-113907282D01*
X110304064Y-113928567D01*
X110299985Y-113937270D01*
X110296501Y-113941420D01*
X110208211Y-114029711D01*
X110152816Y-114112614D01*
X110148456Y-114117810D01*
X110124783Y-114133555D01*
X110102966Y-114151789D01*
X110096067Y-114152655D01*
X110090280Y-114156505D01*
X110061853Y-114156952D01*
X110033641Y-114160496D01*
X110027369Y-114157495D01*
X110020419Y-114157605D01*
X109996261Y-114142612D01*
X109970613Y-114130341D01*
X109965795Y-114125774D01*
X109285947Y-113445926D01*
X109252462Y-113384603D01*
X109257446Y-113314911D01*
X109299318Y-113258978D01*
X109326166Y-113243688D01*
X109407648Y-113209937D01*
X109455098Y-113200500D01*
X110168265Y-113200500D01*
X110235304Y-113220185D01*
G37*
%TD.AperFunction*%
%TA.AperFunction,NonConductor*%
G36*
X144169381Y-114391638D02*
G01*
X144176670Y-114389969D01*
X144202941Y-114399441D01*
X144230150Y-114405768D01*
X144235362Y-114411131D01*
X144242398Y-114413668D01*
X144259379Y-114435842D01*
X144278846Y-114455872D01*
X144280879Y-114463917D01*
X144284879Y-114469140D01*
X144286178Y-114484882D01*
X144293172Y-114512555D01*
X144296337Y-114843144D01*
X144277295Y-114910369D01*
X144224932Y-114956627D01*
X144155872Y-114967232D01*
X144092041Y-114938817D01*
X144057782Y-114891783D01*
X143999397Y-114750827D01*
X143999390Y-114750814D01*
X143935793Y-114655635D01*
X143931641Y-114642376D01*
X143923194Y-114631346D01*
X143921407Y-114609691D01*
X143914915Y-114588958D01*
X143918590Y-114575559D01*
X143917448Y-114561713D01*
X143927650Y-114542531D01*
X143933399Y-114521577D01*
X143944408Y-114511027D01*
X143950259Y-114500028D01*
X143974408Y-114482280D01*
X143978281Y-114478569D01*
X143980408Y-114477376D01*
X144073685Y-114429850D01*
X144102198Y-114409133D01*
X144108564Y-114405567D01*
X144135785Y-114399332D01*
X144162096Y-114389944D01*
X144169381Y-114391638D01*
G37*
%TD.AperFunction*%
%TA.AperFunction,NonConductor*%
G36*
X140853763Y-114004542D02*
G01*
X140950821Y-114069394D01*
X140951159Y-114069534D01*
X140956248Y-114072220D01*
X140977298Y-114092681D01*
X141000172Y-114111082D01*
X141002064Y-114116752D01*
X141006350Y-114120918D01*
X141012996Y-114149509D01*
X141022291Y-114177358D01*
X141021060Y-114184195D01*
X141022171Y-114188973D01*
X141018194Y-114200114D01*
X141012935Y-114229338D01*
X140960264Y-114356498D01*
X140960261Y-114356510D01*
X140929500Y-114511153D01*
X140929500Y-114668846D01*
X140948912Y-114766438D01*
X140942685Y-114836030D01*
X140899821Y-114891207D01*
X140833932Y-114914451D01*
X140813411Y-114913849D01*
X140774813Y-114909500D01*
X140774809Y-114909500D01*
X140505191Y-114909500D01*
X140505186Y-114909500D01*
X140237280Y-114939686D01*
X140237268Y-114939688D01*
X139974405Y-114999684D01*
X139974397Y-114999687D01*
X139719917Y-115088734D01*
X139477005Y-115205714D01*
X139442270Y-115227539D01*
X139375033Y-115246537D01*
X139308198Y-115226167D01*
X139262986Y-115172898D01*
X139253750Y-115103642D01*
X139254677Y-115098384D01*
X139269914Y-115021789D01*
X139270500Y-115018843D01*
X139270500Y-114861155D01*
X139270499Y-114861153D01*
X139245146Y-114733691D01*
X139251373Y-114664100D01*
X139294236Y-114608922D01*
X139360126Y-114585678D01*
X139366763Y-114585500D01*
X139756448Y-114585500D01*
X139756449Y-114585500D01*
X139946972Y-114555324D01*
X140130429Y-114495715D01*
X140302302Y-114408141D01*
X140458359Y-114294759D01*
X140594759Y-114158359D01*
X140684558Y-114034760D01*
X140739888Y-113992095D01*
X140809501Y-113986116D01*
X140853763Y-114004542D01*
G37*
%TD.AperFunction*%
%TA.AperFunction,NonConductor*%
G36*
X118665703Y-111115384D02*
G01*
X118672181Y-111121416D01*
X120519252Y-112968487D01*
X120552737Y-113029810D01*
X120547753Y-113099502D01*
X120505881Y-113155435D01*
X120479024Y-113170729D01*
X120376089Y-113213366D01*
X120376079Y-113213371D01*
X120212218Y-113322860D01*
X120212214Y-113322863D01*
X120072863Y-113462214D01*
X120072860Y-113462218D01*
X119963371Y-113626079D01*
X119963364Y-113626092D01*
X119887950Y-113808160D01*
X119887947Y-113808170D01*
X119849500Y-114001456D01*
X119849500Y-114548666D01*
X119829815Y-114615705D01*
X119777011Y-114661460D01*
X119707853Y-114671404D01*
X119663501Y-114656054D01*
X119642137Y-114643719D01*
X119512269Y-114608922D01*
X119495766Y-114604500D01*
X119344234Y-114604500D01*
X119197863Y-114643719D01*
X119066635Y-114719485D01*
X119066632Y-114719487D01*
X118959487Y-114826632D01*
X118959485Y-114826635D01*
X118883719Y-114957863D01*
X118857501Y-115055714D01*
X118844500Y-115104234D01*
X118844500Y-115255766D01*
X118852191Y-115284471D01*
X118854854Y-115294407D01*
X118853191Y-115364257D01*
X118814028Y-115422119D01*
X118749800Y-115449623D01*
X118735079Y-115450500D01*
X114324921Y-115450500D01*
X114257882Y-115430815D01*
X114212127Y-115378011D01*
X114202183Y-115308853D01*
X114205146Y-115294407D01*
X114206457Y-115289515D01*
X114215500Y-115255766D01*
X114215500Y-115104234D01*
X114176281Y-114957865D01*
X114100515Y-114826635D01*
X113993365Y-114719485D01*
X113897436Y-114664100D01*
X113862136Y-114643719D01*
X113732269Y-114608922D01*
X113715766Y-114604500D01*
X113564234Y-114604500D01*
X113417862Y-114643719D01*
X113396499Y-114656054D01*
X113328598Y-114672525D01*
X113262572Y-114649673D01*
X113219382Y-114594751D01*
X113210500Y-114548666D01*
X113210500Y-114001456D01*
X113172052Y-113808170D01*
X113172051Y-113808169D01*
X113172051Y-113808165D01*
X113159643Y-113778210D01*
X113096635Y-113626092D01*
X113096628Y-113626079D01*
X112987139Y-113462218D01*
X112987136Y-113462214D01*
X112909216Y-113384294D01*
X112908272Y-113382565D01*
X112906573Y-113381569D01*
X112891599Y-113352031D01*
X112875731Y-113322971D01*
X112875871Y-113321005D01*
X112874981Y-113319249D01*
X112878352Y-113286310D01*
X112880715Y-113253279D01*
X112881895Y-113251702D01*
X112882096Y-113249743D01*
X112902744Y-113223851D01*
X112922587Y-113197346D01*
X112924820Y-113196170D01*
X112925660Y-113195118D01*
X112931850Y-113192470D01*
X112957140Y-113179159D01*
X112964785Y-113176571D01*
X113018459Y-113165895D01*
X113113558Y-113126503D01*
X113182340Y-113098013D01*
X113275897Y-113035500D01*
X113329829Y-112999464D01*
X114672665Y-111656626D01*
X114733988Y-111623142D01*
X114803679Y-111628126D01*
X114859613Y-111669997D01*
X114884030Y-111735462D01*
X114881963Y-111768499D01*
X114869500Y-111831154D01*
X114869500Y-111988846D01*
X114900261Y-112143489D01*
X114900264Y-112143501D01*
X114960602Y-112289172D01*
X114960609Y-112289185D01*
X115048210Y-112420288D01*
X115048213Y-112420292D01*
X115159707Y-112531786D01*
X115159711Y-112531789D01*
X115290814Y-112619390D01*
X115290827Y-112619397D01*
X115436498Y-112679735D01*
X115436503Y-112679737D01*
X115589177Y-112710106D01*
X115591153Y-112710499D01*
X115591156Y-112710500D01*
X115591158Y-112710500D01*
X115748844Y-112710500D01*
X115748845Y-112710499D01*
X115903497Y-112679737D01*
X116049179Y-112619394D01*
X116128253Y-112566558D01*
X116194928Y-112545680D01*
X116244592Y-112555098D01*
X116376503Y-112609737D01*
X116475325Y-112629394D01*
X116531153Y-112640499D01*
X116531156Y-112640500D01*
X116531158Y-112640500D01*
X116688844Y-112640500D01*
X116688845Y-112640499D01*
X116843497Y-112609737D01*
X116989179Y-112549394D01*
X117120289Y-112461789D01*
X117231789Y-112350289D01*
X117265940Y-112299179D01*
X117288371Y-112265609D01*
X117341983Y-112220804D01*
X117391473Y-112210500D01*
X117558543Y-112210500D01*
X117688582Y-112184632D01*
X117751835Y-112172051D01*
X117933914Y-112096632D01*
X118097782Y-111987139D01*
X118237139Y-111847782D01*
X118346632Y-111683914D01*
X118422051Y-111501835D01*
X118436111Y-111431153D01*
X118460500Y-111308543D01*
X118460500Y-111209097D01*
X118480185Y-111142058D01*
X118532989Y-111096303D01*
X118602147Y-111086359D01*
X118665703Y-111115384D01*
G37*
%TD.AperFunction*%
%TA.AperFunction,NonConductor*%
G36*
X142390322Y-115137166D02*
G01*
X142415615Y-115138975D01*
X142423751Y-115145065D01*
X142433643Y-115147403D01*
X142451251Y-115165651D01*
X142471549Y-115180846D01*
X142476392Y-115191706D01*
X142482158Y-115197682D01*
X142493900Y-115230965D01*
X142520261Y-115363491D01*
X142520264Y-115363501D01*
X142580602Y-115509172D01*
X142583479Y-115514554D01*
X142581774Y-115515465D01*
X142599977Y-115573610D01*
X142581488Y-115640989D01*
X142529507Y-115687676D01*
X142460536Y-115698848D01*
X142396474Y-115670959D01*
X142388316Y-115663497D01*
X142242078Y-115517259D01*
X142165495Y-115456187D01*
X142125354Y-115398999D01*
X142122504Y-115329188D01*
X142157849Y-115268917D01*
X142173917Y-115256138D01*
X142218771Y-115226167D01*
X142240289Y-115211789D01*
X142284601Y-115167477D01*
X142293521Y-115162606D01*
X142299756Y-115154580D01*
X142323667Y-115146144D01*
X142345924Y-115133991D01*
X142356062Y-115134716D01*
X142365646Y-115131335D01*
X142390322Y-115137166D01*
G37*
%TD.AperFunction*%
%TA.AperFunction,NonConductor*%
G36*
X138294426Y-115721259D02*
G01*
X138391155Y-115740500D01*
X138391158Y-115740500D01*
X138548844Y-115740500D01*
X138554907Y-115739903D01*
X138555177Y-115742650D01*
X138612916Y-115747778D01*
X138668123Y-115790603D01*
X138691413Y-115856477D01*
X138675391Y-115924485D01*
X138672589Y-115929171D01*
X138535714Y-116147005D01*
X138418735Y-116389915D01*
X138411541Y-116410475D01*
X138370818Y-116467251D01*
X138305865Y-116492997D01*
X138237304Y-116479540D01*
X138186902Y-116431152D01*
X138170500Y-116369519D01*
X138170500Y-116005837D01*
X138147761Y-115862274D01*
X138156715Y-115792981D01*
X138201711Y-115739529D01*
X138268463Y-115718889D01*
X138294426Y-115721259D01*
G37*
%TD.AperFunction*%
%TA.AperFunction,NonConductor*%
G36*
X123772161Y-116797144D02*
G01*
X123777352Y-116797011D01*
X123803078Y-116812620D01*
X123829996Y-116826095D01*
X123832646Y-116830561D01*
X123837085Y-116833255D01*
X123850289Y-116860297D01*
X123865648Y-116886184D01*
X123866589Y-116893682D01*
X123867741Y-116896040D01*
X123867327Y-116899556D01*
X123869500Y-116916850D01*
X123869500Y-117267097D01*
X123849815Y-117334136D01*
X123797011Y-117379891D01*
X123727853Y-117389835D01*
X123664297Y-117360810D01*
X123630940Y-117314552D01*
X123629396Y-117310826D01*
X123629390Y-117310814D01*
X123541789Y-117179711D01*
X123541786Y-117179707D01*
X123437522Y-117075443D01*
X123436119Y-117072874D01*
X123433618Y-117071357D01*
X123419479Y-117042401D01*
X123404037Y-117014120D01*
X123404245Y-117011201D01*
X123402962Y-117008572D01*
X123406722Y-116976571D01*
X123409021Y-116944428D01*
X123410774Y-116942085D01*
X123411116Y-116939180D01*
X123431582Y-116914290D01*
X123450893Y-116888495D01*
X123454198Y-116886786D01*
X123455493Y-116885212D01*
X123464737Y-116881339D01*
X123487208Y-116869726D01*
X123494004Y-116867538D01*
X123583497Y-116849737D01*
X123702712Y-116800356D01*
X123707505Y-116798814D01*
X123737592Y-116798037D01*
X123767517Y-116794820D01*
X123772161Y-116797144D01*
G37*
%TD.AperFunction*%
%TA.AperFunction,NonConductor*%
G36*
X144230175Y-115289515D02*
G01*
X144282577Y-115335730D01*
X144301674Y-115400668D01*
X144312561Y-116537830D01*
X144311909Y-116551772D01*
X144277278Y-116886655D01*
X144275347Y-116899108D01*
X144205039Y-117237734D01*
X144201853Y-117249926D01*
X144097545Y-117579652D01*
X144093139Y-117591459D01*
X143955896Y-117908910D01*
X143950314Y-117920207D01*
X143781570Y-118222076D01*
X143774870Y-118232750D01*
X143576350Y-118515943D01*
X143568602Y-118525880D01*
X143342370Y-118787458D01*
X143333652Y-118796559D01*
X143082038Y-119033823D01*
X143072443Y-119041991D01*
X142798047Y-119252495D01*
X142787671Y-119259647D01*
X142493327Y-119441214D01*
X142482280Y-119447277D01*
X142171028Y-119598031D01*
X142159422Y-119602941D01*
X141834468Y-119721329D01*
X141822424Y-119725035D01*
X141581820Y-119785884D01*
X141512000Y-119783237D01*
X141454695Y-119743263D01*
X141428099Y-119678654D01*
X141440655Y-119609922D01*
X141488377Y-119558889D01*
X141510451Y-119548632D01*
X141560079Y-119531267D01*
X141802997Y-119414284D01*
X142031289Y-119270838D01*
X142242085Y-119102734D01*
X142432734Y-118912085D01*
X142600838Y-118701289D01*
X142744284Y-118472997D01*
X142861267Y-118230079D01*
X142950316Y-117975591D01*
X143010312Y-117712732D01*
X143040500Y-117444809D01*
X143040500Y-117175191D01*
X143010312Y-116907268D01*
X142950316Y-116644409D01*
X142944409Y-116627529D01*
X142926109Y-116575229D01*
X142861267Y-116389921D01*
X142749682Y-116158213D01*
X142744285Y-116147005D01*
X142727002Y-116119500D01*
X142600838Y-115918711D01*
X142600837Y-115918709D01*
X142599321Y-115916297D01*
X142580321Y-115849060D01*
X142600689Y-115782225D01*
X142653956Y-115737011D01*
X142723213Y-115727773D01*
X142773438Y-115750212D01*
X142774646Y-115748405D01*
X142910814Y-115839390D01*
X142910827Y-115839397D01*
X143048963Y-115896614D01*
X143056503Y-115899737D01*
X143180919Y-115924485D01*
X143211153Y-115930499D01*
X143211156Y-115930500D01*
X143211158Y-115930500D01*
X143368844Y-115930500D01*
X143368845Y-115930499D01*
X143523497Y-115899737D01*
X143669179Y-115839394D01*
X143800289Y-115751789D01*
X143911789Y-115640289D01*
X143999394Y-115509179D01*
X144007542Y-115489509D01*
X144062068Y-115357870D01*
X144063793Y-115358584D01*
X144097299Y-115307436D01*
X144161106Y-115278968D01*
X144230175Y-115289515D01*
G37*
%TD.AperFunction*%
%TA.AperFunction,NonConductor*%
G36*
X138262758Y-117997092D02*
G01*
X138292834Y-117999861D01*
X138296842Y-118002990D01*
X138301852Y-118003858D01*
X138324096Y-118024274D01*
X138347902Y-118042864D01*
X138351141Y-118049096D01*
X138353327Y-118051102D01*
X138364181Y-118074180D01*
X138418734Y-118230082D01*
X138535714Y-118472994D01*
X138561159Y-118513489D01*
X138679162Y-118701289D01*
X138765645Y-118809735D01*
X138828993Y-118889172D01*
X138847266Y-118912085D01*
X139037915Y-119102734D01*
X139248711Y-119270838D01*
X139477003Y-119414284D01*
X139719921Y-119531267D01*
X139910722Y-119598031D01*
X139974397Y-119620312D01*
X139974409Y-119620316D01*
X140046068Y-119636671D01*
X140107045Y-119670779D01*
X140139904Y-119732440D01*
X140134209Y-119802077D01*
X140091770Y-119857581D01*
X140026060Y-119881330D01*
X140018819Y-119881562D01*
X136633582Y-119890959D01*
X136566488Y-119871460D01*
X136520587Y-119818783D01*
X136510452Y-119749653D01*
X136527471Y-119705062D01*
X136526521Y-119704554D01*
X136529390Y-119699184D01*
X136529394Y-119699179D01*
X136589737Y-119553497D01*
X136620500Y-119398842D01*
X136620500Y-119294500D01*
X136640185Y-119227461D01*
X136692989Y-119181706D01*
X136744500Y-119170500D01*
X136834162Y-119170500D01*
X137059660Y-119134784D01*
X137102581Y-119120838D01*
X137276799Y-119064231D01*
X137480228Y-118960579D01*
X137664937Y-118826379D01*
X137826379Y-118664937D01*
X137960579Y-118480228D01*
X138064231Y-118276799D01*
X138129209Y-118076816D01*
X138146254Y-118051888D01*
X138161265Y-118025684D01*
X138165776Y-118023338D01*
X138168647Y-118019141D01*
X138196462Y-118007385D01*
X138223258Y-117993456D01*
X138228321Y-117993922D01*
X138233005Y-117991943D01*
X138262758Y-117997092D01*
G37*
%TD.AperFunction*%
%TA.AperFunction,NonConductor*%
G36*
X127815942Y-113720549D02*
G01*
X127836584Y-113737183D01*
X129594775Y-115495374D01*
X129594785Y-115495385D01*
X129599115Y-115499715D01*
X129599116Y-115499716D01*
X129710920Y-115611520D01*
X129777694Y-115650071D01*
X129797731Y-115661639D01*
X129797733Y-115661641D01*
X129835424Y-115683402D01*
X129847851Y-115690577D01*
X130000579Y-115731501D01*
X130000582Y-115731501D01*
X130166289Y-115731501D01*
X130166305Y-115731500D01*
X130573695Y-115731500D01*
X130573711Y-115731501D01*
X130581307Y-115731501D01*
X130739418Y-115731501D01*
X130739421Y-115731501D01*
X130892149Y-115690577D01*
X130942268Y-115661639D01*
X131029080Y-115611520D01*
X131140884Y-115499716D01*
X131140885Y-115499713D01*
X131202782Y-115437817D01*
X131264106Y-115404333D01*
X131290462Y-115401500D01*
X135257638Y-115401500D01*
X135324677Y-115421185D01*
X135370432Y-115473989D01*
X135380376Y-115543147D01*
X135375571Y-115563810D01*
X135327031Y-115713201D01*
X135323317Y-115724631D01*
X135283879Y-115782306D01*
X135219520Y-115809504D01*
X135181195Y-115807929D01*
X135088545Y-115789500D01*
X135088541Y-115789500D01*
X134891459Y-115789500D01*
X134891457Y-115789500D01*
X134698170Y-115827947D01*
X134698160Y-115827950D01*
X134516092Y-115903364D01*
X134516079Y-115903371D01*
X134352218Y-116012860D01*
X134352214Y-116012863D01*
X134212863Y-116152214D01*
X134212860Y-116152218D01*
X134103371Y-116316079D01*
X134103363Y-116316093D01*
X134099636Y-116325093D01*
X134055793Y-116379495D01*
X133989498Y-116401557D01*
X133921800Y-116384275D01*
X133897396Y-116365317D01*
X133830292Y-116298213D01*
X133830288Y-116298210D01*
X133699185Y-116210609D01*
X133699172Y-116210602D01*
X133553501Y-116150264D01*
X133553489Y-116150261D01*
X133398845Y-116119500D01*
X133398842Y-116119500D01*
X133241158Y-116119500D01*
X133241155Y-116119500D01*
X133086510Y-116150261D01*
X133086498Y-116150264D01*
X132940827Y-116210602D01*
X132940814Y-116210609D01*
X132809711Y-116298210D01*
X132809707Y-116298213D01*
X132698213Y-116409707D01*
X132698210Y-116409711D01*
X132610609Y-116540814D01*
X132610602Y-116540827D01*
X132550264Y-116686498D01*
X132550261Y-116686510D01*
X132519500Y-116841153D01*
X132519500Y-116998846D01*
X132550261Y-117153489D01*
X132550264Y-117153501D01*
X132610602Y-117299172D01*
X132610609Y-117299185D01*
X132698210Y-117430288D01*
X132698213Y-117430292D01*
X132809707Y-117541786D01*
X132809711Y-117541789D01*
X132940814Y-117629390D01*
X132940827Y-117629397D01*
X133086498Y-117689735D01*
X133086503Y-117689737D01*
X133194686Y-117711256D01*
X133241153Y-117720499D01*
X133241156Y-117720500D01*
X133241158Y-117720500D01*
X133398844Y-117720500D01*
X133398845Y-117720499D01*
X133553497Y-117689737D01*
X133698414Y-117629711D01*
X133699172Y-117629397D01*
X133699172Y-117629396D01*
X133699179Y-117629394D01*
X133830289Y-117541789D01*
X133941789Y-117430289D01*
X133975060Y-117380494D01*
X134028671Y-117335691D01*
X134097996Y-117326983D01*
X134161024Y-117357137D01*
X134181264Y-117380495D01*
X134212860Y-117427781D01*
X134212863Y-117427785D01*
X134352215Y-117567137D01*
X134352218Y-117567139D01*
X134446921Y-117630417D01*
X134491724Y-117684027D01*
X134500432Y-117753352D01*
X134470278Y-117816380D01*
X134446921Y-117836619D01*
X134369713Y-117888208D01*
X134369707Y-117888213D01*
X134258213Y-117999707D01*
X134258210Y-117999711D01*
X134170609Y-118130814D01*
X134170602Y-118130827D01*
X134110264Y-118276498D01*
X134110261Y-118276510D01*
X134079500Y-118431153D01*
X134079500Y-118588846D01*
X134110261Y-118743489D01*
X134110264Y-118743501D01*
X134170602Y-118889172D01*
X134170609Y-118889185D01*
X134258210Y-119020288D01*
X134258213Y-119020292D01*
X134369707Y-119131786D01*
X134369711Y-119131789D01*
X134500814Y-119219390D01*
X134500827Y-119219397D01*
X134646498Y-119279735D01*
X134646503Y-119279737D01*
X134740499Y-119298434D01*
X134801153Y-119310499D01*
X134801156Y-119310500D01*
X134900163Y-119310500D01*
X134967202Y-119330185D01*
X135012957Y-119382989D01*
X135021780Y-119410308D01*
X135050261Y-119553491D01*
X135050264Y-119553501D01*
X135110602Y-119699172D01*
X135110609Y-119699184D01*
X135112877Y-119702579D01*
X135133752Y-119769257D01*
X135115265Y-119836637D01*
X135063284Y-119883325D01*
X135010116Y-119895466D01*
X122874304Y-119929151D01*
X122807210Y-119909652D01*
X122761309Y-119856975D01*
X122751174Y-119787845D01*
X122780022Y-119724209D01*
X122805066Y-119702051D01*
X122880289Y-119651789D01*
X122991789Y-119540289D01*
X123079394Y-119409179D01*
X123139737Y-119263497D01*
X123152432Y-119199676D01*
X123184816Y-119137765D01*
X123245532Y-119103191D01*
X123315301Y-119106930D01*
X123342940Y-119120765D01*
X123370814Y-119139390D01*
X123370827Y-119139397D01*
X123491028Y-119189185D01*
X123516503Y-119199737D01*
X123655880Y-119227461D01*
X123671153Y-119230499D01*
X123671156Y-119230500D01*
X123671158Y-119230500D01*
X123828844Y-119230500D01*
X123828845Y-119230499D01*
X123983497Y-119199737D01*
X124129179Y-119139394D01*
X124260289Y-119051789D01*
X124364257Y-118947820D01*
X124425578Y-118914337D01*
X124495270Y-118919321D01*
X124524816Y-118935181D01*
X124559772Y-118960579D01*
X124642353Y-119002656D01*
X124763196Y-119064229D01*
X124763198Y-119064229D01*
X124763201Y-119064231D01*
X124822508Y-119083501D01*
X124980339Y-119134784D01*
X125205838Y-119170500D01*
X125205843Y-119170500D01*
X125434162Y-119170500D01*
X125659660Y-119134784D01*
X125702581Y-119120838D01*
X125876799Y-119064231D01*
X126080228Y-118960579D01*
X126264937Y-118826379D01*
X126426379Y-118664937D01*
X126430558Y-118659185D01*
X126457385Y-118622261D01*
X126512715Y-118579594D01*
X126582328Y-118573615D01*
X126644123Y-118606220D01*
X126645385Y-118607464D01*
X126699707Y-118661786D01*
X126699711Y-118661789D01*
X126830814Y-118749390D01*
X126830827Y-118749397D01*
X126972819Y-118808211D01*
X126976503Y-118809737D01*
X127131153Y-118840499D01*
X127131156Y-118840500D01*
X127131158Y-118840500D01*
X127288844Y-118840500D01*
X127288845Y-118840499D01*
X127443497Y-118809737D01*
X127589179Y-118749394D01*
X127720289Y-118661789D01*
X127831789Y-118550289D01*
X127919394Y-118419179D01*
X127979737Y-118273497D01*
X128010500Y-118118842D01*
X128010500Y-117961158D01*
X128010500Y-117961155D01*
X128010499Y-117961153D01*
X128004139Y-117929179D01*
X127979737Y-117806503D01*
X127970207Y-117783496D01*
X127919396Y-117660825D01*
X127919395Y-117660824D01*
X127919394Y-117660821D01*
X127896375Y-117626372D01*
X127890402Y-117607294D01*
X127879896Y-117590286D01*
X127880175Y-117574634D01*
X127875498Y-117559696D01*
X127880786Y-117540416D01*
X127881144Y-117520428D01*
X127893159Y-117495315D01*
X127893982Y-117492316D01*
X127896344Y-117488640D01*
X127916632Y-117458278D01*
X127970242Y-117413476D01*
X128039567Y-117404769D01*
X128102595Y-117434924D01*
X128107412Y-117439491D01*
X128209707Y-117541786D01*
X128209711Y-117541789D01*
X128340814Y-117629390D01*
X128340827Y-117629397D01*
X128486498Y-117689735D01*
X128486503Y-117689737D01*
X128594686Y-117711256D01*
X128641153Y-117720499D01*
X128641156Y-117720500D01*
X128641158Y-117720500D01*
X128798844Y-117720500D01*
X128798845Y-117720499D01*
X128953497Y-117689737D01*
X129098414Y-117629711D01*
X129099172Y-117629397D01*
X129099172Y-117629396D01*
X129099179Y-117629394D01*
X129230289Y-117541789D01*
X129341789Y-117430289D01*
X129429394Y-117299179D01*
X129489737Y-117153497D01*
X129520500Y-116998842D01*
X129520500Y-116841158D01*
X129520500Y-116841155D01*
X129520499Y-116841153D01*
X129511745Y-116797144D01*
X129489737Y-116686503D01*
X129489735Y-116686498D01*
X129429397Y-116540827D01*
X129429390Y-116540814D01*
X129341789Y-116409711D01*
X129341786Y-116409707D01*
X129230292Y-116298213D01*
X129230288Y-116298210D01*
X129099185Y-116210609D01*
X129099172Y-116210602D01*
X128953501Y-116150264D01*
X128953489Y-116150261D01*
X128798845Y-116119500D01*
X128798842Y-116119500D01*
X128641158Y-116119500D01*
X128641155Y-116119500D01*
X128486510Y-116150261D01*
X128486498Y-116150264D01*
X128340827Y-116210602D01*
X128340814Y-116210609D01*
X128209711Y-116298210D01*
X128209707Y-116298213D01*
X128098213Y-116409707D01*
X128023369Y-116521718D01*
X127969756Y-116566522D01*
X127900431Y-116575229D01*
X127837404Y-116545074D01*
X127832586Y-116540507D01*
X127730292Y-116438213D01*
X127730288Y-116438210D01*
X127599185Y-116350609D01*
X127599172Y-116350602D01*
X127453501Y-116290264D01*
X127453489Y-116290261D01*
X127298845Y-116259500D01*
X127298842Y-116259500D01*
X127141158Y-116259500D01*
X127141155Y-116259500D01*
X126986510Y-116290261D01*
X126986498Y-116290264D01*
X126941952Y-116308716D01*
X126872483Y-116316185D01*
X126810004Y-116284909D01*
X126774352Y-116224820D01*
X126770500Y-116194155D01*
X126770500Y-116005837D01*
X126734784Y-115780339D01*
X126696819Y-115663497D01*
X126664231Y-115563201D01*
X126664229Y-115563198D01*
X126664229Y-115563196D01*
X126581682Y-115401190D01*
X126560579Y-115359772D01*
X126426379Y-115175063D01*
X126264937Y-115013621D01*
X126080228Y-114879421D01*
X126021866Y-114849684D01*
X125939898Y-114807919D01*
X125889102Y-114759944D01*
X125872307Y-114692123D01*
X125893090Y-114628544D01*
X125919394Y-114589179D01*
X125979737Y-114443497D01*
X126010500Y-114288842D01*
X126010500Y-114131158D01*
X126010500Y-114131155D01*
X126010499Y-114131153D01*
X125990321Y-114029711D01*
X125979737Y-113976503D01*
X125963486Y-113937270D01*
X125936582Y-113872316D01*
X125929113Y-113802847D01*
X125960388Y-113740368D01*
X126020477Y-113704716D01*
X126051143Y-113700864D01*
X127748903Y-113700864D01*
X127815942Y-113720549D01*
G37*
%TD.AperFunction*%
%TA.AperFunction,NonConductor*%
G36*
X112131889Y-95624819D02*
G01*
X112177850Y-95677443D01*
X112188064Y-95746562D01*
X112179821Y-95776844D01*
X112171266Y-95797499D01*
X112171263Y-95797510D01*
X112140502Y-95952153D01*
X112140502Y-96109846D01*
X112171263Y-96264489D01*
X112171266Y-96264501D01*
X112231604Y-96410172D01*
X112231611Y-96410185D01*
X112295372Y-96505609D01*
X112316250Y-96572286D01*
X112297766Y-96639667D01*
X112245787Y-96686357D01*
X112192270Y-96698500D01*
X104807669Y-96698500D01*
X104807653Y-96698499D01*
X104800057Y-96698499D01*
X104641943Y-96698499D01*
X104534587Y-96727265D01*
X104489210Y-96739424D01*
X104489209Y-96739425D01*
X104445489Y-96764668D01*
X104445487Y-96764669D01*
X104352290Y-96818475D01*
X104352282Y-96818481D01*
X104270264Y-96900500D01*
X104240480Y-96930284D01*
X104240478Y-96930286D01*
X103111284Y-98059481D01*
X103026481Y-98144284D01*
X102778662Y-98392102D01*
X102717339Y-98425586D01*
X102647647Y-98420602D01*
X102591714Y-98378730D01*
X102576421Y-98351876D01*
X102565084Y-98324505D01*
X102565082Y-98324502D01*
X102565080Y-98324498D01*
X102482951Y-98201584D01*
X102482948Y-98201580D01*
X102378419Y-98097051D01*
X102378415Y-98097048D01*
X102255501Y-98014919D01*
X102255488Y-98014912D01*
X102118917Y-97958343D01*
X102118907Y-97958340D01*
X101973920Y-97929500D01*
X101973918Y-97929500D01*
X101826082Y-97929500D01*
X101826080Y-97929500D01*
X101681092Y-97958340D01*
X101681082Y-97958343D01*
X101544511Y-98014912D01*
X101544498Y-98014919D01*
X101421584Y-98097048D01*
X101421580Y-98097051D01*
X101317051Y-98201580D01*
X101317048Y-98201584D01*
X101234919Y-98324498D01*
X101234912Y-98324511D01*
X101178343Y-98461082D01*
X101178340Y-98461092D01*
X101149500Y-98606079D01*
X101149500Y-98606082D01*
X101149500Y-98753918D01*
X101149500Y-98753920D01*
X101149499Y-98753920D01*
X101178340Y-98898907D01*
X101178343Y-98898917D01*
X101234912Y-99035488D01*
X101234919Y-99035501D01*
X101317048Y-99158415D01*
X101317051Y-99158419D01*
X101421580Y-99262948D01*
X101421584Y-99262951D01*
X101544498Y-99345080D01*
X101544502Y-99345082D01*
X101544505Y-99345084D01*
X101571873Y-99356420D01*
X101626275Y-99400260D01*
X101648341Y-99466554D01*
X101631062Y-99534253D01*
X101612101Y-99558662D01*
X100600286Y-100570478D01*
X100488481Y-100682282D01*
X100488477Y-100682287D01*
X100443124Y-100760843D01*
X100443124Y-100760844D01*
X100409423Y-100819214D01*
X100406455Y-100830292D01*
X100368499Y-100971943D01*
X100368499Y-100971945D01*
X100368499Y-101140046D01*
X100368500Y-101140059D01*
X100368500Y-108256537D01*
X100368499Y-108256555D01*
X100368499Y-108422261D01*
X100368498Y-108422261D01*
X100409423Y-108574992D01*
X100418562Y-108590821D01*
X100488477Y-108711919D01*
X100488481Y-108711924D01*
X100607349Y-108830792D01*
X100607355Y-108830797D01*
X101615271Y-109838713D01*
X101615273Y-109838716D01*
X101692053Y-109915496D01*
X101707470Y-109934283D01*
X101738207Y-109980284D01*
X101738213Y-109980292D01*
X101849707Y-110091786D01*
X101849711Y-110091789D01*
X101980814Y-110179390D01*
X101980827Y-110179397D01*
X102103633Y-110230264D01*
X102126503Y-110239737D01*
X102268776Y-110268037D01*
X102281153Y-110270499D01*
X102281156Y-110270500D01*
X102281158Y-110270500D01*
X102438844Y-110270500D01*
X102571308Y-110244151D01*
X102640900Y-110250378D01*
X102696077Y-110293241D01*
X102719322Y-110359131D01*
X102719500Y-110365768D01*
X102719500Y-110488846D01*
X102750261Y-110643489D01*
X102750264Y-110643501D01*
X102810602Y-110789172D01*
X102810609Y-110789185D01*
X102822920Y-110807609D01*
X102843798Y-110874286D01*
X102825314Y-110941666D01*
X102773335Y-110988357D01*
X102719818Y-111000500D01*
X101674500Y-111000500D01*
X101607461Y-110980815D01*
X101561706Y-110928011D01*
X101550500Y-110876500D01*
X101550500Y-110841155D01*
X101550499Y-110841153D01*
X101542431Y-110800591D01*
X101519737Y-110686503D01*
X101514940Y-110674921D01*
X101459397Y-110540827D01*
X101459390Y-110540814D01*
X101371789Y-110409711D01*
X101371786Y-110409707D01*
X101260292Y-110298213D01*
X101260288Y-110298210D01*
X101129185Y-110210609D01*
X101129172Y-110210602D01*
X100983501Y-110150264D01*
X100983489Y-110150261D01*
X100828845Y-110119500D01*
X100828842Y-110119500D01*
X100671158Y-110119500D01*
X100671155Y-110119500D01*
X100516510Y-110150261D01*
X100516498Y-110150264D01*
X100370827Y-110210602D01*
X100370814Y-110210609D01*
X100239711Y-110298210D01*
X100239707Y-110298213D01*
X100128213Y-110409707D01*
X100128210Y-110409711D01*
X100040609Y-110540814D01*
X100040602Y-110540827D01*
X99980264Y-110686498D01*
X99980261Y-110686510D01*
X99949500Y-110841153D01*
X99949500Y-110876500D01*
X99929815Y-110943539D01*
X99877011Y-110989294D01*
X99825500Y-111000500D01*
X99518046Y-111000500D01*
X99451007Y-110980815D01*
X99405252Y-110928011D01*
X99396429Y-110900691D01*
X99382429Y-110830308D01*
X99369737Y-110766503D01*
X99354824Y-110730500D01*
X99309397Y-110620827D01*
X99309390Y-110620814D01*
X99221789Y-110489711D01*
X99221786Y-110489707D01*
X99110292Y-110378213D01*
X99110288Y-110378210D01*
X98979185Y-110290609D01*
X98979172Y-110290602D01*
X98833501Y-110230264D01*
X98833489Y-110230261D01*
X98678845Y-110199500D01*
X98678842Y-110199500D01*
X98521158Y-110199500D01*
X98521155Y-110199500D01*
X98366510Y-110230261D01*
X98366498Y-110230264D01*
X98220827Y-110290602D01*
X98220814Y-110290609D01*
X98089711Y-110378210D01*
X98089707Y-110378213D01*
X97978213Y-110489707D01*
X97978210Y-110489711D01*
X97890609Y-110620814D01*
X97890602Y-110620827D01*
X97830264Y-110766498D01*
X97830261Y-110766510D01*
X97803571Y-110900691D01*
X97771186Y-110962602D01*
X97710471Y-110997176D01*
X97681954Y-111000500D01*
X97341098Y-111000500D01*
X97274059Y-110980815D01*
X97253417Y-110964181D01*
X96374573Y-110085337D01*
X96341088Y-110024014D01*
X96340637Y-110021847D01*
X96340499Y-110021153D01*
X96309737Y-109866503D01*
X96287269Y-109812260D01*
X96249397Y-109720827D01*
X96249390Y-109720814D01*
X96161789Y-109589711D01*
X96161786Y-109589707D01*
X96050292Y-109478213D01*
X96050288Y-109478210D01*
X95919185Y-109390609D01*
X95919172Y-109390602D01*
X95773501Y-109330264D01*
X95773489Y-109330261D01*
X95618845Y-109299500D01*
X95618842Y-109299500D01*
X95461158Y-109299500D01*
X95461155Y-109299500D01*
X95306510Y-109330261D01*
X95306498Y-109330264D01*
X95160827Y-109390602D01*
X95160814Y-109390609D01*
X95029711Y-109478210D01*
X95029707Y-109478213D01*
X94918213Y-109589707D01*
X94918210Y-109589711D01*
X94830609Y-109720814D01*
X94830602Y-109720827D01*
X94770264Y-109866498D01*
X94770261Y-109866510D01*
X94739500Y-110021153D01*
X94739500Y-110178846D01*
X94770261Y-110333489D01*
X94770264Y-110333501D01*
X94830602Y-110479172D01*
X94830609Y-110479185D01*
X94918210Y-110610288D01*
X94918213Y-110610292D01*
X95029707Y-110721786D01*
X95029711Y-110721789D01*
X95160814Y-110809390D01*
X95160827Y-110809397D01*
X95306498Y-110869735D01*
X95306503Y-110869737D01*
X95363895Y-110881153D01*
X95461849Y-110900638D01*
X95523760Y-110933023D01*
X95525337Y-110934572D01*
X96672284Y-112081520D01*
X96672286Y-112081521D01*
X96672290Y-112081524D01*
X96758293Y-112131177D01*
X96809216Y-112160577D01*
X96961943Y-112201501D01*
X96961945Y-112201501D01*
X97127654Y-112201501D01*
X97127670Y-112201500D01*
X106291689Y-112201500D01*
X106358728Y-112221185D01*
X106379370Y-112237819D01*
X108781418Y-114639867D01*
X108814903Y-114701190D01*
X108809919Y-114770882D01*
X108768047Y-114826815D01*
X108713137Y-114850021D01*
X108680337Y-114855216D01*
X108463196Y-114925770D01*
X108259771Y-115029421D01*
X108075061Y-115163622D01*
X107913622Y-115325061D01*
X107779421Y-115509771D01*
X107675770Y-115713196D01*
X107605538Y-115929349D01*
X107566100Y-115987024D01*
X107501741Y-116014222D01*
X107459676Y-116010421D01*
X107459472Y-116011451D01*
X107298845Y-115979500D01*
X107298842Y-115979500D01*
X107141158Y-115979500D01*
X107141155Y-115979500D01*
X106986510Y-116010261D01*
X106986498Y-116010264D01*
X106840827Y-116070602D01*
X106840814Y-116070609D01*
X106709711Y-116158210D01*
X106709707Y-116158213D01*
X106598213Y-116269707D01*
X106598210Y-116269711D01*
X106510609Y-116400814D01*
X106510604Y-116400824D01*
X106455869Y-116532966D01*
X106412028Y-116587369D01*
X106345733Y-116609434D01*
X106278034Y-116592155D01*
X106245452Y-116564174D01*
X106241787Y-116559708D01*
X106130292Y-116448213D01*
X106130288Y-116448210D01*
X105999185Y-116360609D01*
X105999172Y-116360602D01*
X105853501Y-116300264D01*
X105853489Y-116300261D01*
X105698845Y-116269500D01*
X105698842Y-116269500D01*
X105541158Y-116269500D01*
X105541155Y-116269500D01*
X105386510Y-116300261D01*
X105386498Y-116300264D01*
X105240827Y-116360602D01*
X105240814Y-116360609D01*
X105109711Y-116448210D01*
X105109707Y-116448213D01*
X104998213Y-116559707D01*
X104998210Y-116559711D01*
X104910609Y-116690814D01*
X104910602Y-116690827D01*
X104850264Y-116836498D01*
X104850261Y-116836510D01*
X104819500Y-116991153D01*
X104819500Y-117148846D01*
X104850261Y-117303489D01*
X104850264Y-117303501D01*
X104910602Y-117449172D01*
X104910609Y-117449185D01*
X104998210Y-117580288D01*
X104998213Y-117580292D01*
X105109707Y-117691786D01*
X105109711Y-117691789D01*
X105240814Y-117779390D01*
X105240827Y-117779397D01*
X105378975Y-117836619D01*
X105386503Y-117839737D01*
X105541153Y-117870499D01*
X105541156Y-117870500D01*
X105541158Y-117870500D01*
X105698844Y-117870500D01*
X105698845Y-117870499D01*
X105853497Y-117839737D01*
X105966166Y-117793067D01*
X105999172Y-117779397D01*
X105999172Y-117779396D01*
X105999179Y-117779394D01*
X106101155Y-117711255D01*
X106167831Y-117690378D01*
X106235211Y-117708862D01*
X106281902Y-117760841D01*
X106288705Y-117778362D01*
X106290262Y-117783496D01*
X106350602Y-117929172D01*
X106350609Y-117929185D01*
X106438210Y-118060288D01*
X106438213Y-118060292D01*
X106549707Y-118171786D01*
X106549711Y-118171789D01*
X106592275Y-118200230D01*
X106637080Y-118253843D01*
X106645787Y-118323168D01*
X106626486Y-118372222D01*
X106560612Y-118470809D01*
X106560602Y-118470827D01*
X106500264Y-118616498D01*
X106500261Y-118616510D01*
X106469500Y-118771153D01*
X106469500Y-118928846D01*
X106500261Y-119083489D01*
X106500264Y-119083501D01*
X106560602Y-119229172D01*
X106560609Y-119229185D01*
X106648210Y-119360288D01*
X106648213Y-119360292D01*
X106759707Y-119471786D01*
X106759711Y-119471789D01*
X106890814Y-119559390D01*
X106890827Y-119559397D01*
X107036498Y-119619735D01*
X107036503Y-119619737D01*
X107155912Y-119643489D01*
X107191153Y-119650499D01*
X107191156Y-119650500D01*
X107191158Y-119650500D01*
X107348844Y-119650500D01*
X107348845Y-119650499D01*
X107503497Y-119619737D01*
X107646511Y-119560499D01*
X107649172Y-119559397D01*
X107649172Y-119559396D01*
X107649179Y-119559394D01*
X107780289Y-119471789D01*
X107891789Y-119360289D01*
X107979394Y-119229179D01*
X108021821Y-119126748D01*
X108065660Y-119072348D01*
X108131954Y-119050282D01*
X108199653Y-119067560D01*
X108209266Y-119073885D01*
X108248974Y-119102734D01*
X108259772Y-119110579D01*
X108377374Y-119170500D01*
X108463196Y-119214229D01*
X108463198Y-119214229D01*
X108463201Y-119214231D01*
X108579592Y-119252049D01*
X108680339Y-119284784D01*
X108905838Y-119320500D01*
X108905843Y-119320500D01*
X109134162Y-119320500D01*
X109359660Y-119284784D01*
X109422752Y-119264284D01*
X109576799Y-119214231D01*
X109780228Y-119110579D01*
X109964937Y-118976379D01*
X110126379Y-118814937D01*
X110260579Y-118630228D01*
X110364231Y-118426799D01*
X110434784Y-118209660D01*
X110447272Y-118130814D01*
X110470500Y-117984162D01*
X110470500Y-116627529D01*
X110472573Y-116620467D01*
X110471329Y-116613213D01*
X110482285Y-116587393D01*
X110490185Y-116560490D01*
X110495746Y-116555671D01*
X110498622Y-116548894D01*
X110521800Y-116533095D01*
X110542989Y-116514735D01*
X110550272Y-116513687D01*
X110556355Y-116509542D01*
X110584389Y-116508782D01*
X110612147Y-116504791D01*
X110620565Y-116507801D01*
X110626200Y-116507649D01*
X110642437Y-116515623D01*
X110658689Y-116521436D01*
X110669568Y-116528018D01*
X110673070Y-116531520D01*
X110721899Y-116559711D01*
X110776722Y-116591363D01*
X110809995Y-116610574D01*
X110809996Y-116610574D01*
X110810001Y-116610577D01*
X110962729Y-116651500D01*
X111120843Y-116651500D01*
X121245500Y-116651500D01*
X121312539Y-116671185D01*
X121358294Y-116723989D01*
X121369500Y-116775500D01*
X121369500Y-116788846D01*
X121400261Y-116943489D01*
X121400264Y-116943501D01*
X121460602Y-117089172D01*
X121460609Y-117089185D01*
X121548210Y-117220288D01*
X121548213Y-117220292D01*
X121659707Y-117331786D01*
X121659711Y-117331789D01*
X121790814Y-117419390D01*
X121790827Y-117419397D01*
X121935931Y-117479500D01*
X121936503Y-117479737D01*
X122019693Y-117496284D01*
X122081602Y-117528668D01*
X122116176Y-117589384D01*
X122119500Y-117617901D01*
X122119500Y-117768846D01*
X122150261Y-117923489D01*
X122150264Y-117923501D01*
X122210602Y-118069172D01*
X122210613Y-118069192D01*
X122211513Y-118070539D01*
X122211767Y-118071351D01*
X122213479Y-118074554D01*
X122212871Y-118074878D01*
X122232386Y-118137218D01*
X122213896Y-118204597D01*
X122161914Y-118251283D01*
X122155201Y-118254253D01*
X122144219Y-118258728D01*
X122136503Y-118260263D01*
X121990821Y-118320606D01*
X121988391Y-118322229D01*
X121979848Y-118325711D01*
X121951236Y-118328621D01*
X121923078Y-118334478D01*
X121916908Y-118332112D01*
X121910337Y-118332781D01*
X121884692Y-118319760D01*
X121857839Y-118309464D01*
X121853928Y-118304140D01*
X121848038Y-118301149D01*
X121833506Y-118276333D01*
X121816480Y-118253151D01*
X121813917Y-118243967D01*
X121813820Y-118243997D01*
X121813013Y-118241338D01*
X121812731Y-118240856D01*
X121812747Y-118240461D01*
X121812049Y-118238160D01*
X121736635Y-118056092D01*
X121736628Y-118056079D01*
X121627139Y-117892218D01*
X121627136Y-117892214D01*
X121487785Y-117752863D01*
X121487781Y-117752860D01*
X121323920Y-117643371D01*
X121323907Y-117643364D01*
X121141839Y-117567950D01*
X121141829Y-117567947D01*
X120948543Y-117529500D01*
X120948541Y-117529500D01*
X120751459Y-117529500D01*
X120751457Y-117529500D01*
X120558170Y-117567947D01*
X120558160Y-117567950D01*
X120376092Y-117643364D01*
X120376081Y-117643370D01*
X120247469Y-117729306D01*
X120180792Y-117750183D01*
X120113412Y-117731698D01*
X120075477Y-117695094D01*
X120031789Y-117629711D01*
X120031786Y-117629707D01*
X119920292Y-117518213D01*
X119920288Y-117518210D01*
X119789185Y-117430609D01*
X119789172Y-117430602D01*
X119643501Y-117370264D01*
X119643489Y-117370261D01*
X119488845Y-117339500D01*
X119488842Y-117339500D01*
X119331158Y-117339500D01*
X119331155Y-117339500D01*
X119176510Y-117370261D01*
X119176498Y-117370264D01*
X119030827Y-117430602D01*
X119030814Y-117430609D01*
X118899711Y-117518210D01*
X118899707Y-117518213D01*
X118788213Y-117629707D01*
X118788210Y-117629711D01*
X118700609Y-117760814D01*
X118700602Y-117760827D01*
X118640264Y-117906498D01*
X118640261Y-117906510D01*
X118609500Y-118061154D01*
X118609500Y-118218846D01*
X118640261Y-118373489D01*
X118640264Y-118373501D01*
X118700602Y-118519172D01*
X118700609Y-118519185D01*
X118788210Y-118650288D01*
X118788213Y-118650292D01*
X118810240Y-118672319D01*
X118843725Y-118733642D01*
X118838741Y-118803334D01*
X118810240Y-118847681D01*
X118738213Y-118919707D01*
X118738210Y-118919711D01*
X118650609Y-119050814D01*
X118650602Y-119050827D01*
X118590264Y-119196498D01*
X118590261Y-119196510D01*
X118559500Y-119351153D01*
X118559500Y-119508846D01*
X118590261Y-119663489D01*
X118590264Y-119663501D01*
X118634288Y-119769786D01*
X118641757Y-119839256D01*
X118610481Y-119901735D01*
X118550392Y-119937386D01*
X118520071Y-119941238D01*
X114577799Y-119952180D01*
X114510705Y-119932681D01*
X114464804Y-119880004D01*
X114454669Y-119810874D01*
X114462892Y-119780733D01*
X114519737Y-119643497D01*
X114550500Y-119488842D01*
X114550500Y-119331158D01*
X114550500Y-119331155D01*
X114550499Y-119331153D01*
X114543208Y-119294500D01*
X114519737Y-119176503D01*
X114519735Y-119176498D01*
X114459397Y-119030827D01*
X114459389Y-119030813D01*
X114440575Y-119002656D01*
X114419696Y-118935979D01*
X114438180Y-118868599D01*
X114455991Y-118846086D01*
X114511789Y-118790289D01*
X114599394Y-118659179D01*
X114659737Y-118513497D01*
X114690500Y-118358842D01*
X114690500Y-118201158D01*
X114690500Y-118201155D01*
X114690499Y-118201153D01*
X114684658Y-118171789D01*
X114659737Y-118046503D01*
X114650142Y-118023338D01*
X114599397Y-117900827D01*
X114599390Y-117900814D01*
X114511789Y-117769711D01*
X114511786Y-117769707D01*
X114400292Y-117658213D01*
X114400288Y-117658210D01*
X114269185Y-117570609D01*
X114269172Y-117570602D01*
X114123501Y-117510264D01*
X114123489Y-117510261D01*
X113968845Y-117479500D01*
X113968842Y-117479500D01*
X113811158Y-117479500D01*
X113811155Y-117479500D01*
X113656510Y-117510261D01*
X113656498Y-117510264D01*
X113510827Y-117570602D01*
X113510814Y-117570609D01*
X113379711Y-117658210D01*
X113379707Y-117658213D01*
X113268213Y-117769707D01*
X113268210Y-117769711D01*
X113189837Y-117887004D01*
X113136224Y-117931809D01*
X113066899Y-117940516D01*
X113003872Y-117910361D01*
X112990882Y-117896779D01*
X112987133Y-117892211D01*
X112847785Y-117752863D01*
X112847781Y-117752860D01*
X112683920Y-117643371D01*
X112683907Y-117643364D01*
X112501839Y-117567950D01*
X112501829Y-117567947D01*
X112308543Y-117529500D01*
X112308541Y-117529500D01*
X112111459Y-117529500D01*
X112111457Y-117529500D01*
X111918170Y-117567947D01*
X111918160Y-117567950D01*
X111736092Y-117643364D01*
X111736079Y-117643371D01*
X111572218Y-117752860D01*
X111572214Y-117752863D01*
X111432863Y-117892214D01*
X111432860Y-117892218D01*
X111323371Y-118056079D01*
X111323364Y-118056092D01*
X111247950Y-118238160D01*
X111247947Y-118238170D01*
X111209500Y-118431456D01*
X111209500Y-118431459D01*
X111209500Y-119228541D01*
X111209500Y-119228543D01*
X111209499Y-119228543D01*
X111247947Y-119421829D01*
X111247950Y-119421839D01*
X111323364Y-119603907D01*
X111323371Y-119603920D01*
X111433209Y-119768303D01*
X111454087Y-119834980D01*
X111435603Y-119902361D01*
X111383624Y-119949051D01*
X111330451Y-119961194D01*
X94680207Y-120007412D01*
X94680195Y-120007412D01*
X94670860Y-120007436D01*
X94669381Y-120007055D01*
X94606147Y-120007610D01*
X94605832Y-120007611D01*
X94605770Y-120007593D01*
X94600468Y-120007509D01*
X94230559Y-119992484D01*
X94218363Y-119991383D01*
X93854830Y-119940381D01*
X93842803Y-119938084D01*
X93486051Y-119851472D01*
X93474309Y-119847999D01*
X93339006Y-119800600D01*
X93282245Y-119759858D01*
X93256521Y-119694896D01*
X93270002Y-119626339D01*
X93318407Y-119575954D01*
X93386369Y-119559736D01*
X93393887Y-119560353D01*
X93395191Y-119560500D01*
X93395193Y-119560500D01*
X93664812Y-119560500D01*
X93664812Y-119560499D01*
X93932732Y-119530312D01*
X94195591Y-119470316D01*
X94450079Y-119381267D01*
X94692997Y-119264284D01*
X94921289Y-119120838D01*
X95132085Y-118952734D01*
X95322734Y-118762085D01*
X95490838Y-118551289D01*
X95634284Y-118322997D01*
X95751267Y-118080079D01*
X95840316Y-117825591D01*
X95900312Y-117562732D01*
X95913106Y-117449185D01*
X95922280Y-117367766D01*
X95949347Y-117303352D01*
X96006941Y-117263797D01*
X96076778Y-117261660D01*
X96136685Y-117297618D01*
X96167640Y-117360256D01*
X96169500Y-117381650D01*
X96169500Y-117984162D01*
X96205215Y-118209660D01*
X96275770Y-118426803D01*
X96358334Y-118588842D01*
X96379421Y-118630228D01*
X96513621Y-118814937D01*
X96675063Y-118976379D01*
X96859772Y-119110579D01*
X96913128Y-119137765D01*
X97063196Y-119214229D01*
X97063198Y-119214229D01*
X97063201Y-119214231D01*
X97179592Y-119252049D01*
X97280339Y-119284784D01*
X97505838Y-119320500D01*
X97505843Y-119320500D01*
X97734162Y-119320500D01*
X97959660Y-119284784D01*
X98022752Y-119264284D01*
X98176799Y-119214231D01*
X98380228Y-119110579D01*
X98543395Y-118992029D01*
X98609201Y-118968549D01*
X98677255Y-118984374D01*
X98725950Y-119034479D01*
X98730842Y-119044895D01*
X98790602Y-119189172D01*
X98790609Y-119189185D01*
X98878210Y-119320288D01*
X98878213Y-119320292D01*
X98989707Y-119431786D01*
X98989711Y-119431789D01*
X99120814Y-119519390D01*
X99120827Y-119519397D01*
X99220060Y-119560500D01*
X99266503Y-119579737D01*
X99418252Y-119609922D01*
X99421153Y-119610499D01*
X99421156Y-119610500D01*
X99421158Y-119610500D01*
X99578844Y-119610500D01*
X99578845Y-119610499D01*
X99733497Y-119579737D01*
X99879179Y-119519394D01*
X100010289Y-119431789D01*
X100121789Y-119320289D01*
X100209394Y-119189179D01*
X100269737Y-119043497D01*
X100300500Y-118888842D01*
X100300500Y-118731158D01*
X100300500Y-118731155D01*
X100300499Y-118731153D01*
X100269737Y-118576503D01*
X100258879Y-118550289D01*
X100209397Y-118430827D01*
X100209390Y-118430814D01*
X100150520Y-118342709D01*
X100129642Y-118276031D01*
X100148127Y-118208651D01*
X100165937Y-118186140D01*
X100241789Y-118110289D01*
X100329394Y-117979179D01*
X100336859Y-117961158D01*
X100350102Y-117929185D01*
X100389737Y-117833497D01*
X100392487Y-117819667D01*
X100424872Y-117757758D01*
X100485587Y-117723183D01*
X100555356Y-117726922D01*
X100582996Y-117740757D01*
X100640814Y-117779390D01*
X100640827Y-117779397D01*
X100778975Y-117836619D01*
X100786503Y-117839737D01*
X100941153Y-117870499D01*
X100941156Y-117870500D01*
X100941158Y-117870500D01*
X101098844Y-117870500D01*
X101098845Y-117870499D01*
X101253497Y-117839737D01*
X101366166Y-117793067D01*
X101399172Y-117779397D01*
X101399172Y-117779396D01*
X101399179Y-117779394D01*
X101530289Y-117691789D01*
X101641789Y-117580289D01*
X101729394Y-117449179D01*
X101731203Y-117444813D01*
X101785158Y-117314552D01*
X101789737Y-117303497D01*
X101820500Y-117148842D01*
X101820500Y-116991158D01*
X101820500Y-116991155D01*
X101820499Y-116991153D01*
X101811020Y-116943501D01*
X101789737Y-116836503D01*
X101785426Y-116826095D01*
X101729397Y-116690827D01*
X101729390Y-116690814D01*
X101641789Y-116559711D01*
X101641786Y-116559707D01*
X101530292Y-116448213D01*
X101530288Y-116448210D01*
X101399185Y-116360609D01*
X101399172Y-116360602D01*
X101253501Y-116300264D01*
X101253489Y-116300261D01*
X101098845Y-116269500D01*
X101098842Y-116269500D01*
X100941158Y-116269500D01*
X100941155Y-116269500D01*
X100786510Y-116300261D01*
X100786498Y-116300264D01*
X100640827Y-116360602D01*
X100640816Y-116360608D01*
X100553791Y-116418756D01*
X100487113Y-116439633D01*
X100419733Y-116421148D01*
X100373044Y-116369168D01*
X100370346Y-116363120D01*
X100369394Y-116360821D01*
X100369393Y-116360819D01*
X100369392Y-116360817D01*
X100369390Y-116360814D01*
X100281789Y-116229711D01*
X100281786Y-116229707D01*
X100170292Y-116118213D01*
X100170288Y-116118210D01*
X100039185Y-116030609D01*
X100039172Y-116030602D01*
X99893501Y-115970264D01*
X99893489Y-115970261D01*
X99738845Y-115939500D01*
X99738842Y-115939500D01*
X99581158Y-115939500D01*
X99581155Y-115939500D01*
X99426510Y-115970261D01*
X99426498Y-115970264D01*
X99280827Y-116030602D01*
X99280816Y-116030608D01*
X99233751Y-116062056D01*
X99167073Y-116082933D01*
X99099693Y-116064448D01*
X99053003Y-116012468D01*
X99042388Y-115978350D01*
X99034784Y-115930339D01*
X98990153Y-115792981D01*
X98964231Y-115713201D01*
X98964229Y-115713198D01*
X98964229Y-115713196D01*
X98864397Y-115517266D01*
X98860579Y-115509772D01*
X98726379Y-115325063D01*
X98564937Y-115163621D01*
X98380228Y-115029421D01*
X98365249Y-115021789D01*
X98176803Y-114925770D01*
X97959660Y-114855215D01*
X97734162Y-114819500D01*
X97734157Y-114819500D01*
X97505843Y-114819500D01*
X97505838Y-114819500D01*
X97280339Y-114855215D01*
X97063196Y-114925770D01*
X96859771Y-115029421D01*
X96675061Y-115163622D01*
X96513622Y-115325061D01*
X96379421Y-115509771D01*
X96275770Y-115713196D01*
X96205215Y-115930339D01*
X96169500Y-116155837D01*
X96169500Y-116938349D01*
X96149815Y-117005388D01*
X96097011Y-117051143D01*
X96027853Y-117061087D01*
X95964297Y-117032062D01*
X95926523Y-116973284D01*
X95922280Y-116952233D01*
X95904993Y-116798814D01*
X95900312Y-116757268D01*
X95840316Y-116494409D01*
X95751267Y-116239921D01*
X95634284Y-115997003D01*
X95490838Y-115768711D01*
X95322734Y-115557915D01*
X95166009Y-115401190D01*
X95132524Y-115339867D01*
X95137508Y-115270175D01*
X95179380Y-115214242D01*
X95244844Y-115189825D01*
X95277882Y-115191892D01*
X95321155Y-115200500D01*
X95321158Y-115200500D01*
X95478844Y-115200500D01*
X95478845Y-115200499D01*
X95633497Y-115169737D01*
X95779179Y-115109394D01*
X95910289Y-115021789D01*
X96021789Y-114910289D01*
X96109394Y-114779179D01*
X96110807Y-114775769D01*
X96141698Y-114701190D01*
X96169737Y-114633497D01*
X96200500Y-114478842D01*
X96200500Y-114321158D01*
X96200500Y-114321155D01*
X96200499Y-114321153D01*
X96178552Y-114210821D01*
X96169737Y-114166503D01*
X96169735Y-114166498D01*
X96109397Y-114020827D01*
X96109390Y-114020814D01*
X96021789Y-113889711D01*
X96021786Y-113889707D01*
X95910292Y-113778213D01*
X95910288Y-113778210D01*
X95779185Y-113690609D01*
X95779172Y-113690602D01*
X95633501Y-113630264D01*
X95633489Y-113630261D01*
X95478845Y-113599500D01*
X95478842Y-113599500D01*
X95321158Y-113599500D01*
X95321155Y-113599500D01*
X95166510Y-113630261D01*
X95166498Y-113630264D01*
X95020827Y-113690602D01*
X95020814Y-113690609D01*
X94889711Y-113778210D01*
X94889706Y-113778214D01*
X94847813Y-113820107D01*
X94786490Y-113853591D01*
X94716798Y-113848606D01*
X94660865Y-113806734D01*
X94645572Y-113779877D01*
X94629397Y-113740827D01*
X94629390Y-113740814D01*
X94541789Y-113609711D01*
X94541786Y-113609707D01*
X94430292Y-113498213D01*
X94430288Y-113498210D01*
X94299185Y-113410609D01*
X94299172Y-113410602D01*
X94153501Y-113350264D01*
X94153489Y-113350261D01*
X93998845Y-113319500D01*
X93998842Y-113319500D01*
X93841158Y-113319500D01*
X93841155Y-113319500D01*
X93686510Y-113350261D01*
X93686498Y-113350264D01*
X93540827Y-113410602D01*
X93540814Y-113410609D01*
X93409711Y-113498210D01*
X93409707Y-113498213D01*
X93298213Y-113609707D01*
X93298210Y-113609711D01*
X93210609Y-113740814D01*
X93210602Y-113740827D01*
X93150264Y-113886498D01*
X93150261Y-113886510D01*
X93119500Y-114041153D01*
X93119500Y-114198846D01*
X93150261Y-114353489D01*
X93150264Y-114353501D01*
X93210602Y-114499172D01*
X93210609Y-114499185D01*
X93272161Y-114591303D01*
X93293039Y-114657980D01*
X93274555Y-114725361D01*
X93222576Y-114772051D01*
X93182943Y-114783414D01*
X93127280Y-114789686D01*
X93127268Y-114789688D01*
X92864405Y-114849684D01*
X92864397Y-114849687D01*
X92609917Y-114938734D01*
X92367005Y-115055714D01*
X92138712Y-115199161D01*
X91927915Y-115367265D01*
X91737265Y-115557915D01*
X91569161Y-115768712D01*
X91425714Y-115997005D01*
X91308734Y-116239917D01*
X91219687Y-116494397D01*
X91219684Y-116494405D01*
X91159688Y-116757268D01*
X91159686Y-116757280D01*
X91129500Y-117025186D01*
X91129500Y-117218061D01*
X91109815Y-117285100D01*
X91057011Y-117330855D01*
X90987853Y-117340799D01*
X90924297Y-117311774D01*
X90886523Y-117252996D01*
X90885232Y-117248254D01*
X90845298Y-117089185D01*
X90803390Y-116922252D01*
X90801003Y-116910268D01*
X90747166Y-116547107D01*
X90745972Y-116534924D01*
X90728216Y-116168242D01*
X90728227Y-116156024D01*
X90744737Y-115828725D01*
X90744878Y-115826390D01*
X90745726Y-115814256D01*
X90749298Y-115801125D01*
X90749445Y-115761106D01*
X90749731Y-115757021D01*
X90749874Y-115756634D01*
X90750046Y-115753318D01*
X90750199Y-115751789D01*
X90753615Y-115717683D01*
X90751356Y-115703861D01*
X90749733Y-115683402D01*
X90749807Y-115663497D01*
X90802937Y-101293389D01*
X92129500Y-101293389D01*
X92129500Y-101466611D01*
X92156598Y-101637701D01*
X92210127Y-101802445D01*
X92288768Y-101956788D01*
X92390586Y-102096928D01*
X92513072Y-102219414D01*
X92653212Y-102321232D01*
X92807555Y-102399873D01*
X92972299Y-102453402D01*
X93143389Y-102480500D01*
X93143390Y-102480500D01*
X93316610Y-102480500D01*
X93316611Y-102480500D01*
X93487701Y-102453402D01*
X93652445Y-102399873D01*
X93806788Y-102321232D01*
X93946928Y-102219414D01*
X94069414Y-102096928D01*
X94171232Y-101956788D01*
X94249873Y-101802445D01*
X94303402Y-101637701D01*
X94330500Y-101466611D01*
X94330500Y-101293389D01*
X94303402Y-101122299D01*
X94249873Y-100957555D01*
X94171232Y-100803212D01*
X94069414Y-100663072D01*
X93946928Y-100540586D01*
X93806788Y-100438768D01*
X93752847Y-100411284D01*
X93652447Y-100360128D01*
X93652446Y-100360127D01*
X93652445Y-100360127D01*
X93487701Y-100306598D01*
X93487699Y-100306597D01*
X93487698Y-100306597D01*
X93356271Y-100285781D01*
X93316611Y-100279500D01*
X93143389Y-100279500D01*
X93103728Y-100285781D01*
X92972302Y-100306597D01*
X92807552Y-100360128D01*
X92653211Y-100438768D01*
X92599164Y-100478036D01*
X92513072Y-100540586D01*
X92513070Y-100540588D01*
X92513069Y-100540588D01*
X92390588Y-100663069D01*
X92390588Y-100663070D01*
X92390586Y-100663072D01*
X92356420Y-100710097D01*
X92288768Y-100803211D01*
X92210128Y-100957552D01*
X92156597Y-101122302D01*
X92153787Y-101140046D01*
X92129500Y-101293389D01*
X90802937Y-101293389D01*
X90806827Y-100241153D01*
X96159500Y-100241153D01*
X96159500Y-100398846D01*
X96190261Y-100553489D01*
X96190264Y-100553501D01*
X96250602Y-100699172D01*
X96250609Y-100699185D01*
X96338210Y-100830288D01*
X96338213Y-100830292D01*
X96449707Y-100941786D01*
X96449711Y-100941789D01*
X96580814Y-101029390D01*
X96580827Y-101029397D01*
X96707534Y-101081880D01*
X96726503Y-101089737D01*
X96872823Y-101118842D01*
X96881153Y-101120499D01*
X96881156Y-101120500D01*
X96881158Y-101120500D01*
X97038844Y-101120500D01*
X97038845Y-101120499D01*
X97193497Y-101089737D01*
X97339179Y-101029394D01*
X97470289Y-100941789D01*
X97581789Y-100830289D01*
X97669394Y-100699179D01*
X97729737Y-100553497D01*
X97760500Y-100398842D01*
X97760500Y-100241158D01*
X97760500Y-100241155D01*
X97760499Y-100241153D01*
X97745863Y-100167575D01*
X97729737Y-100086503D01*
X97697796Y-100009390D01*
X97669397Y-99940827D01*
X97669390Y-99940814D01*
X97581789Y-99809711D01*
X97581786Y-99809707D01*
X97470292Y-99698213D01*
X97470288Y-99698210D01*
X97339185Y-99610609D01*
X97339172Y-99610602D01*
X97193501Y-99550264D01*
X97193489Y-99550261D01*
X97038845Y-99519500D01*
X97038842Y-99519500D01*
X96881158Y-99519500D01*
X96881155Y-99519500D01*
X96726510Y-99550261D01*
X96726498Y-99550264D01*
X96580827Y-99610602D01*
X96580814Y-99610609D01*
X96449711Y-99698210D01*
X96449707Y-99698213D01*
X96338213Y-99809707D01*
X96338210Y-99809711D01*
X96250609Y-99940814D01*
X96250602Y-99940827D01*
X96190264Y-100086498D01*
X96190261Y-100086510D01*
X96159500Y-100241153D01*
X90806827Y-100241153D01*
X90823204Y-95811609D01*
X90843136Y-95744643D01*
X90896109Y-95699084D01*
X90946716Y-95688069D01*
X112064774Y-95605397D01*
X112131889Y-95624819D01*
G37*
%TD.AperFunction*%
M02*
