%TF.GenerationSoftware,KiCad,Pcbnew,9.0.3*%
%TF.CreationDate,2025-09-25T12:47:50+01:00*%
%TF.ProjectId,power_bank,706f7765-725f-4626-916e-6b2e6b696361,rev?*%
%TF.SameCoordinates,Original*%
%TF.FileFunction,Copper,L4,Bot*%
%TF.FilePolarity,Positive*%
%FSLAX46Y46*%
G04 Gerber Fmt 4.6, Leading zero omitted, Abs format (unit mm)*
G04 Created by KiCad (PCBNEW 9.0.3) date 2025-09-25 12:47:50*
%MOMM*%
%LPD*%
G01*
G04 APERTURE LIST*
G04 Aperture macros list*
%AMRoundRect*
0 Rectangle with rounded corners*
0 $1 Rounding radius*
0 $2 $3 $4 $5 $6 $7 $8 $9 X,Y pos of 4 corners*
0 Add a 4 corners polygon primitive as box body*
4,1,4,$2,$3,$4,$5,$6,$7,$8,$9,$2,$3,0*
0 Add four circle primitives for the rounded corners*
1,1,$1+$1,$2,$3*
1,1,$1+$1,$4,$5*
1,1,$1+$1,$6,$7*
1,1,$1+$1,$8,$9*
0 Add four rect primitives between the rounded corners*
20,1,$1+$1,$2,$3,$4,$5,0*
20,1,$1+$1,$4,$5,$6,$7,0*
20,1,$1+$1,$6,$7,$8,$9,0*
20,1,$1+$1,$8,$9,$2,$3,0*%
G04 Aperture macros list end*
%TA.AperFunction,ComponentPad*%
%ADD10C,3.800000*%
%TD*%
%TA.AperFunction,HeatsinkPad*%
%ADD11O,1.800000X1.150000*%
%TD*%
%TA.AperFunction,HeatsinkPad*%
%ADD12O,2.000000X1.450000*%
%TD*%
%TA.AperFunction,ComponentPad*%
%ADD13R,1.200000X1.200000*%
%TD*%
%TA.AperFunction,ComponentPad*%
%ADD14C,1.200000*%
%TD*%
%TA.AperFunction,HeatsinkPad*%
%ADD15O,1.900000X3.500000*%
%TD*%
%TA.AperFunction,ComponentPad*%
%ADD16R,1.800000X1.800000*%
%TD*%
%TA.AperFunction,ComponentPad*%
%ADD17C,1.800000*%
%TD*%
%TA.AperFunction,HeatsinkPad*%
%ADD18O,1.000000X2.100000*%
%TD*%
%TA.AperFunction,HeatsinkPad*%
%ADD19O,1.000000X1.600000*%
%TD*%
%TA.AperFunction,SMDPad,CuDef*%
%ADD20RoundRect,0.250000X0.475000X-0.250000X0.475000X0.250000X-0.475000X0.250000X-0.475000X-0.250000X0*%
%TD*%
%TA.AperFunction,SMDPad,CuDef*%
%ADD21RoundRect,0.250000X-0.250000X-0.475000X0.250000X-0.475000X0.250000X0.475000X-0.250000X0.475000X0*%
%TD*%
%TA.AperFunction,SMDPad,CuDef*%
%ADD22RoundRect,0.225000X0.225000X0.250000X-0.225000X0.250000X-0.225000X-0.250000X0.225000X-0.250000X0*%
%TD*%
%TA.AperFunction,SMDPad,CuDef*%
%ADD23RoundRect,0.200000X-0.275000X0.200000X-0.275000X-0.200000X0.275000X-0.200000X0.275000X0.200000X0*%
%TD*%
%TA.AperFunction,SMDPad,CuDef*%
%ADD24RoundRect,0.162500X-0.162500X0.447500X-0.162500X-0.447500X0.162500X-0.447500X0.162500X0.447500X0*%
%TD*%
%TA.AperFunction,SMDPad,CuDef*%
%ADD25RoundRect,0.162500X0.447500X0.162500X-0.447500X0.162500X-0.447500X-0.162500X0.447500X-0.162500X0*%
%TD*%
%TA.AperFunction,SMDPad,CuDef*%
%ADD26RoundRect,0.162500X0.162500X-0.447500X0.162500X0.447500X-0.162500X0.447500X-0.162500X-0.447500X0*%
%TD*%
%TA.AperFunction,SMDPad,CuDef*%
%ADD27RoundRect,0.250000X-0.475000X0.250000X-0.475000X-0.250000X0.475000X-0.250000X0.475000X0.250000X0*%
%TD*%
%TA.AperFunction,SMDPad,CuDef*%
%ADD28RoundRect,0.250000X0.250000X0.475000X-0.250000X0.475000X-0.250000X-0.475000X0.250000X-0.475000X0*%
%TD*%
%TA.AperFunction,SMDPad,CuDef*%
%ADD29RoundRect,0.250000X0.312500X0.625000X-0.312500X0.625000X-0.312500X-0.625000X0.312500X-0.625000X0*%
%TD*%
%TA.AperFunction,ViaPad*%
%ADD30C,1.000000*%
%TD*%
%TA.AperFunction,ViaPad*%
%ADD31C,0.600000*%
%TD*%
%TA.AperFunction,ViaPad*%
%ADD32C,1.200000*%
%TD*%
%TA.AperFunction,ViaPad*%
%ADD33C,0.500000*%
%TD*%
%TA.AperFunction,Conductor*%
%ADD34C,0.600000*%
%TD*%
%TA.AperFunction,Conductor*%
%ADD35C,0.200000*%
%TD*%
%TA.AperFunction,Conductor*%
%ADD36C,0.800000*%
%TD*%
G04 APERTURE END LIST*
D10*
%TO.P,H2,1,1*%
%TO.N,GND*%
X93530000Y-117160000D03*
%TD*%
D11*
%TO.P,J4,6,Shield*%
%TO.N,GND*%
X143185000Y-113510000D03*
D12*
X139385000Y-113360000D03*
X139385000Y-105910000D03*
D11*
X143185000Y-105760000D03*
%TD*%
D13*
%TO.P,C1,1*%
%TO.N,VSYS*%
X124180000Y-104490000D03*
D14*
%TO.P,C1,2*%
%TO.N,GND*%
X129180000Y-104490000D03*
%TD*%
D10*
%TO.P,H1,1,1*%
%TO.N,GND*%
X140640000Y-117310000D03*
%TD*%
D15*
%TO.P,J1,5,Shield*%
%TO.N,GND*%
X109020000Y-117070000D03*
X97620000Y-117070000D03*
%TD*%
%TO.P,J2,5,Shield*%
%TO.N,GND*%
X136720000Y-116920000D03*
X125320000Y-116920000D03*
%TD*%
D16*
%TO.P,D3,1,K*%
%TO.N,GND*%
X141710000Y-97330000D03*
D17*
%TO.P,D3,2,A*%
%TO.N,Net-(D3-A)*%
X139170000Y-97330000D03*
%TD*%
D18*
%TO.P,J5,S1,SHIELD*%
%TO.N,GND*%
X112210000Y-114650000D03*
D19*
X112210000Y-118830000D03*
D18*
X120850000Y-114650000D03*
D19*
X120850000Y-118830000D03*
%TD*%
D20*
%TO.P,CBAT1..7,1*%
%TO.N,VSYS*%
X127190000Y-102870000D03*
%TO.P,CBAT1..7,2*%
%TO.N,GND*%
X127190000Y-100970000D03*
%TD*%
D21*
%TO.P,CBAT1..4,1*%
%TO.N,VBAT+*%
X95290000Y-106010000D03*
%TO.P,CBAT1..4,2*%
%TO.N,GND*%
X97190000Y-106010000D03*
%TD*%
%TO.P,CBAT1..1,1*%
%TO.N,VBAT+*%
X95260000Y-101910000D03*
%TO.P,CBAT1..1,2*%
%TO.N,GND*%
X97160000Y-101910000D03*
%TD*%
D22*
%TO.P,CIN1..5,1*%
%TO.N,GND*%
X123090000Y-101290000D03*
%TO.P,CIN1..5,2*%
%TO.N,VMID*%
X121540000Y-101290000D03*
%TD*%
D23*
%TO.P,RNTC2,1*%
%TO.N,VMID*%
X126100000Y-106085000D03*
%TO.P,RNTC2,2*%
%TO.N,VING*%
X126100000Y-107735000D03*
%TD*%
D24*
%TO.P,Q3,1,D*%
%TO.N,VOUT1*%
X104380000Y-109610000D03*
%TO.P,Q3,2,G*%
%TO.N,VOUT1G*%
X106280000Y-109610000D03*
%TO.P,Q3,3,S*%
%TO.N,VMID*%
X105330000Y-112230000D03*
%TD*%
D25*
%TO.P,Q1,1,D*%
%TO.N,VIN*%
X130400000Y-105990000D03*
%TO.P,Q1,2,G*%
%TO.N,VING*%
X130400000Y-107890000D03*
%TO.P,Q1,3,S*%
%TO.N,VMID*%
X127780000Y-106940000D03*
%TD*%
D21*
%TO.P,CBAT1..5,1*%
%TO.N,VBAT+*%
X95290000Y-108100000D03*
%TO.P,CBAT1..5,2*%
%TO.N,GND*%
X97190000Y-108100000D03*
%TD*%
D25*
%TO.P,Q4,1,D*%
%TO.N,VBUS*%
X125550000Y-110900000D03*
%TO.P,Q4,2,G*%
%TO.N,VBUSG*%
X125550000Y-112800000D03*
%TO.P,Q4,3,S*%
%TO.N,VMID*%
X122930000Y-111850000D03*
%TD*%
D26*
%TO.P,Q2,1,D*%
%TO.N,VOUT2*%
X135460000Y-113790000D03*
%TO.P,Q2,2,G*%
%TO.N,VOUT2G*%
X133560000Y-113790000D03*
%TO.P,Q2,3,S*%
%TO.N,VMID*%
X134510000Y-111170000D03*
%TD*%
D20*
%TO.P,CBAT1..6,1*%
%TO.N,VSYS*%
X125140000Y-102870000D03*
%TO.P,CBAT1..6,2*%
%TO.N,GND*%
X125140000Y-100970000D03*
%TD*%
D27*
%TO.P,CBAT1..9,1*%
%TO.N,VSYS*%
X131310000Y-100980000D03*
%TO.P,CBAT1..9,2*%
%TO.N,GND*%
X131310000Y-102880000D03*
%TD*%
D28*
%TO.P,CIN1..6,1*%
%TO.N,GND*%
X121860000Y-99510000D03*
%TO.P,CIN1..6,2*%
%TO.N,VMID*%
X119960000Y-99510000D03*
%TD*%
D20*
%TO.P,CBAT1..8,1*%
%TO.N,VSYS*%
X129260000Y-102870000D03*
%TO.P,CBAT1..8,2*%
%TO.N,GND*%
X129260000Y-100970000D03*
%TD*%
D29*
%TO.P,RNTC1,1*%
%TO.N,VMID*%
X121612500Y-103220000D03*
%TO.P,RNTC1,2*%
%TO.N,VSYS*%
X118687500Y-103220000D03*
%TD*%
D21*
%TO.P,CBAT1..3,1*%
%TO.N,VBAT+*%
X95280000Y-103950000D03*
%TO.P,CBAT1..3,2*%
%TO.N,GND*%
X97180000Y-103950000D03*
%TD*%
D30*
%TO.N,VSYS*%
X111340000Y-103300000D03*
X120340000Y-103260000D03*
D31*
%TO.N,GND*%
X142690000Y-99300000D03*
X123750000Y-118430000D03*
X141730000Y-114590000D03*
X127810000Y-104140000D03*
X122920000Y-117690000D03*
X113890000Y-118280000D03*
X99500000Y-118810000D03*
X99620000Y-117600000D03*
X134880000Y-118510000D03*
X113750000Y-119410000D03*
X103520000Y-110410000D03*
X107270000Y-118850000D03*
X143220000Y-104140000D03*
X96960000Y-100320000D03*
X141330000Y-113360000D03*
X135820000Y-119320000D03*
X141310000Y-106050000D03*
X143290000Y-115130000D03*
X127220000Y-117060000D03*
X122170000Y-116710000D03*
X138470000Y-114940000D03*
X137450000Y-104870000D03*
X120750000Y-107160000D03*
X107060000Y-117550000D03*
X123350000Y-116080000D03*
X110830000Y-114540000D03*
X111070000Y-113530000D03*
X122180000Y-115370000D03*
X107570000Y-103060000D03*
X143150000Y-107540000D03*
X143270000Y-111980000D03*
X122370000Y-119030000D03*
X137410000Y-106020000D03*
X119360000Y-119430000D03*
X119410000Y-118140000D03*
X93920000Y-114120000D03*
X95400000Y-114400000D03*
X142270000Y-111920000D03*
X107220000Y-116780000D03*
X127210000Y-118040000D03*
X128020000Y-99520000D03*
X99660000Y-116740000D03*
X127810000Y-104150000D03*
X142020000Y-107220000D03*
%TO.N,VBAT+*%
X123345000Y-99385000D03*
D32*
X93230000Y-101380000D03*
D31*
X95540000Y-110100000D03*
D32*
%TO.N,/POWER_SOC/ledx*%
X101870000Y-107970000D03*
X113290000Y-108460000D03*
D30*
%TO.N,VMID*%
X136960000Y-113920000D03*
D32*
X122980000Y-107520000D03*
D30*
X116341000Y-105891000D03*
X108990000Y-112300000D03*
D32*
X123460000Y-102800000D03*
D30*
X117460000Y-111210000D03*
X122890000Y-110730000D03*
D31*
%TO.N,VBUS*%
X127760000Y-110640000D03*
X119590000Y-96300000D03*
X119660000Y-109929000D03*
D33*
%TO.N,LED3*%
X112870000Y-107440000D03*
X108360000Y-106100000D03*
X108100000Y-98860000D03*
X108380000Y-107270000D03*
D31*
%TO.N,DMA1*%
X113760000Y-96571000D03*
X100750000Y-110920000D03*
X100750000Y-110920000D03*
X100750000Y-110920000D03*
%TO.N,DPA1*%
X112941002Y-96031000D03*
X98600000Y-111000000D03*
%TO.N,DMA2*%
X112600000Y-97900000D03*
X132120000Y-111510000D03*
%TO.N,DPA2*%
X111840000Y-98470000D03*
X111840000Y-98470000D03*
X130230000Y-111630000D03*
X111840000Y-98470000D03*
%TO.N,DPC*%
X116610000Y-111840000D03*
X106370000Y-101040000D03*
X106340000Y-107360000D03*
X106340000Y-105920000D03*
%TO.N,DMC*%
X111260000Y-100483775D03*
X115670000Y-111910000D03*
%TO.N,CC1*%
X111440000Y-99197862D03*
X115640000Y-110690000D03*
%TO.N,CC2*%
X105600000Y-100170000D03*
X105539997Y-105920000D03*
X108930000Y-110960000D03*
X105240000Y-107280000D03*
%TO.N,DMB*%
X131850000Y-108410000D03*
X112660000Y-109489000D03*
X122330000Y-108970000D03*
X134470000Y-108460000D03*
X109140000Y-108970000D03*
X140850000Y-110440000D03*
%TO.N,DPB*%
X140580000Y-109570000D03*
X110540000Y-102080000D03*
%TO.N,VING*%
X120760000Y-96540000D03*
X125910000Y-104690000D03*
%TO.N,VOUT2G*%
X116552851Y-95997809D03*
X131130000Y-111940000D03*
%TO.N,VOUT1G*%
X115740000Y-96020000D03*
X104120000Y-107410000D03*
%TO.N,VBUSG*%
X118740000Y-96430000D03*
X125210000Y-114210000D03*
X123210000Y-114400000D03*
D33*
%TO.N,LED1*%
X113030000Y-105930000D03*
X113030000Y-105930000D03*
X113030000Y-105930000D03*
X110010000Y-98550000D03*
%TO.N,LED2*%
X112980000Y-106660000D03*
X101900000Y-98680000D03*
D31*
%TO.N,VIN*%
X131010000Y-104500000D03*
X121900000Y-96310000D03*
D30*
X131850000Y-106820000D03*
%TO.N,VOUT2*%
X134990000Y-116790000D03*
D31*
X131960000Y-96350000D03*
X134560000Y-112290000D03*
X130740000Y-109900000D03*
X117194972Y-96474972D03*
%TO.N,VOUT1*%
X114790000Y-96350000D03*
D30*
X105230000Y-109770000D03*
D31*
X102360000Y-109470000D03*
%TD*%
D34*
%TO.N,VSYS*%
X127190000Y-102870000D02*
X129260000Y-102870000D01*
X120110000Y-103030000D02*
X119427500Y-103030000D01*
X124180000Y-104490000D02*
X124180000Y-103830000D01*
X129420000Y-102870000D02*
X131310000Y-100980000D01*
X119427500Y-103030000D02*
X119267500Y-103190000D01*
X120340000Y-103260000D02*
X120110000Y-103030000D01*
X125140000Y-102870000D02*
X127190000Y-102870000D01*
X124180000Y-103830000D02*
X125140000Y-102870000D01*
X129260000Y-102870000D02*
X129420000Y-102870000D01*
D35*
%TO.N,GND*%
X123410000Y-100970000D02*
X123090000Y-101290000D01*
X123090000Y-100740000D02*
X121860000Y-99510000D01*
X130790000Y-102880000D02*
X131310000Y-102880000D01*
X96960000Y-101710000D02*
X97160000Y-101910000D01*
X128020000Y-99730000D02*
X129260000Y-100970000D01*
X97190000Y-106010000D02*
X97190000Y-108100000D01*
X127810000Y-104150000D02*
X128840000Y-104150000D01*
X129180000Y-104490000D02*
X130790000Y-102880000D01*
X97180000Y-106000000D02*
X97190000Y-106010000D01*
X96960000Y-100320000D02*
X96960000Y-101710000D01*
X97180000Y-103950000D02*
X97180000Y-106000000D01*
X123090000Y-101290000D02*
X123090000Y-100740000D01*
X97160000Y-103930000D02*
X97180000Y-103950000D01*
X97160000Y-101910000D02*
X97160000Y-103930000D01*
X128020000Y-99520000D02*
X128020000Y-99730000D01*
X129260000Y-100970000D02*
X125140000Y-100970000D01*
X125140000Y-100970000D02*
X123410000Y-100970000D01*
X128840000Y-104150000D02*
X129180000Y-104490000D01*
D36*
%TO.N,VBAT+*%
X95280000Y-103950000D02*
X95280000Y-106000000D01*
X95280000Y-106000000D02*
X95290000Y-106010000D01*
X95260000Y-101910000D02*
X95260000Y-103930000D01*
X93230000Y-101380000D02*
X94730000Y-101380000D01*
X95260000Y-103930000D02*
X95280000Y-103950000D01*
X95290000Y-106010000D02*
X95290000Y-108100000D01*
X94730000Y-101380000D02*
X95260000Y-101910000D01*
D35*
X95540000Y-110100000D02*
X95290000Y-109850000D01*
X95290000Y-109850000D02*
X95290000Y-108100000D01*
D36*
%TO.N,VMID*%
X121612500Y-103220000D02*
X121612500Y-103732500D01*
X126925000Y-106085000D02*
X127780000Y-106940000D01*
X121612500Y-101362500D02*
X121540000Y-101290000D01*
X122979000Y-105691000D02*
X123571000Y-105691000D01*
X116341000Y-105720000D02*
X116341000Y-105891000D01*
X123460000Y-102800000D02*
X122032500Y-102800000D01*
X123571000Y-105691000D02*
X123965000Y-106085000D01*
X106570000Y-112300000D02*
X106500000Y-112230000D01*
X121612500Y-106152500D02*
X122980000Y-107520000D01*
X121612500Y-103544550D02*
X121612500Y-103220000D01*
X108990000Y-112300000D02*
X106570000Y-112300000D01*
X121003525Y-102366475D02*
X120381050Y-101744000D01*
X121612500Y-102975450D02*
X121003525Y-102366475D01*
X117350000Y-110510000D02*
X117350000Y-107807050D01*
X121612500Y-103220000D02*
X121612500Y-101362500D01*
X126100000Y-106085000D02*
X126925000Y-106085000D01*
X136960000Y-113920000D02*
X136960000Y-111510000D01*
X121540000Y-101290000D02*
X119960000Y-99710000D01*
X118015576Y-101744000D02*
X116341000Y-103418576D01*
X117460000Y-111210000D02*
X117460000Y-110620000D01*
X119960000Y-99710000D02*
X119960000Y-99480000D01*
X116341000Y-103418576D02*
X116341000Y-105720000D01*
X121612500Y-103220000D02*
X121612500Y-106152500D01*
X106500000Y-112230000D02*
X105330000Y-112230000D01*
X123965000Y-106085000D02*
X126100000Y-106085000D01*
X122890000Y-110730000D02*
X122890000Y-111810000D01*
X120381050Y-101744000D02*
X118015576Y-101744000D01*
X122890000Y-111810000D02*
X122930000Y-111850000D01*
X117350000Y-107807050D02*
X121612500Y-103544550D01*
X117460000Y-110620000D02*
X117350000Y-110510000D01*
X121612500Y-103220000D02*
X121612500Y-102975450D01*
X136620000Y-111170000D02*
X134510000Y-111170000D01*
X122979000Y-105099000D02*
X122979000Y-105691000D01*
X121612500Y-103732500D02*
X122979000Y-105099000D01*
X122032500Y-102800000D02*
X121612500Y-103220000D01*
X136960000Y-111510000D02*
X136620000Y-111170000D01*
D35*
%TO.N,VBUS*%
X127760000Y-110640000D02*
X127760000Y-110660000D01*
X127520000Y-110900000D02*
X125550000Y-110900000D01*
X127760000Y-110660000D02*
X127520000Y-110900000D01*
%TO.N,LED3*%
X108550000Y-107440000D02*
X108380000Y-107270000D01*
X112870000Y-107440000D02*
X108550000Y-107440000D01*
X108360000Y-106100000D02*
X108360000Y-98850000D01*
X108360000Y-98850000D02*
X108200000Y-98690000D01*
%TO.N,DMA1*%
X113188943Y-96631000D02*
X113289943Y-96530000D01*
X102250000Y-96700000D02*
X112622057Y-96700000D01*
X112691057Y-96631000D02*
X113188943Y-96631000D01*
X113440000Y-96530000D02*
X113480000Y-96570000D01*
X100750000Y-98170000D02*
X100780000Y-98170000D01*
X112622057Y-96700000D02*
X112691057Y-96631000D01*
X100780000Y-98170000D02*
X102250000Y-96700000D01*
X113289943Y-96530000D02*
X113440000Y-96530000D01*
X100750000Y-98170000D02*
X100750000Y-110920000D01*
X100730000Y-98150000D02*
X100750000Y-98170000D01*
X113759000Y-96570000D02*
X113760000Y-96571000D01*
X113480000Y-96570000D02*
X113759000Y-96570000D01*
%TO.N,DPA1*%
X112701849Y-96030000D02*
X100350000Y-96030000D01*
X100350000Y-96030000D02*
X100180000Y-96200000D01*
X98540000Y-97770000D02*
X98540000Y-110940000D01*
X112871849Y-96200000D02*
X112701849Y-96030000D01*
X98540000Y-110940000D02*
X98600000Y-111000000D01*
X100280000Y-96030000D02*
X98540000Y-97770000D01*
%TO.N,DMA2*%
X133090000Y-110630000D02*
X132210000Y-111510000D01*
X132210000Y-111510000D02*
X132120000Y-111510000D01*
X133090000Y-99695000D02*
X133090000Y-110725000D01*
X133080000Y-99685000D02*
X133090000Y-99695000D01*
X131410000Y-97900000D02*
X133090000Y-99580000D01*
X112600000Y-97900000D02*
X131410000Y-97900000D01*
X133090000Y-99580000D02*
X133090000Y-99695000D01*
X133090000Y-110725000D02*
X133080000Y-110735000D01*
%TO.N,DPA2*%
X111840000Y-98470000D02*
X111871000Y-98501000D01*
X132689000Y-99979000D02*
X132689000Y-109171000D01*
X119200000Y-98430000D02*
X131140000Y-98430000D01*
X132689000Y-109171000D02*
X130230000Y-111630000D01*
X119129000Y-98501000D02*
X119200000Y-98430000D01*
X131140000Y-98430000D02*
X132689000Y-99979000D01*
X111871000Y-98501000D02*
X119129000Y-98501000D01*
%TO.N,DPC*%
X106370000Y-101040000D02*
X106370000Y-105890000D01*
X111491000Y-112511000D02*
X115939000Y-112511000D01*
X106370000Y-105890000D02*
X106340000Y-105920000D01*
X106340000Y-107360000D02*
X111491000Y-112511000D01*
X115939000Y-112511000D02*
X116610000Y-111840000D01*
%TO.N,DMC*%
X114930000Y-104153775D02*
X114930000Y-104420000D01*
X114930000Y-111170000D02*
X115670000Y-111910000D01*
X111260000Y-100483775D02*
X114930000Y-104153775D01*
X114930000Y-104420000D02*
X114930000Y-111170000D01*
%TO.N,CC1*%
X111440000Y-99197862D02*
X115260000Y-103017862D01*
X115331000Y-110381000D02*
X115640000Y-110690000D01*
X115260000Y-103660000D02*
X115331000Y-103731000D01*
X115260000Y-103017862D02*
X115260000Y-103660000D01*
X115331000Y-103731000D02*
X115331000Y-110381000D01*
X111440000Y-99197862D02*
X111440000Y-99250000D01*
%TO.N,CC2*%
X105240000Y-107280000D02*
X108920000Y-110960000D01*
X105600000Y-105880000D02*
X105600000Y-100170000D01*
X105560000Y-105920000D02*
X105600000Y-105880000D01*
X105539997Y-105920000D02*
X105560000Y-105920000D01*
X108920000Y-110960000D02*
X108930000Y-110960000D01*
%TO.N,DMB*%
X141180000Y-110200000D02*
X141040000Y-110340000D01*
X141040000Y-110340000D02*
X141040000Y-110360000D01*
X141020000Y-108540000D02*
X141180000Y-108700000D01*
X141180000Y-108700000D02*
X141180000Y-110200000D01*
X131290000Y-108970000D02*
X131850000Y-108410000D01*
X140940000Y-108460000D02*
X141020000Y-108540000D01*
X134470000Y-108460000D02*
X140940000Y-108460000D01*
X112139000Y-109489000D02*
X112130000Y-109480000D01*
X109650000Y-109480000D02*
X109140000Y-108970000D01*
X122330000Y-108970000D02*
X131290000Y-108970000D01*
X112130000Y-109480000D02*
X109650000Y-109480000D01*
X112660000Y-109489000D02*
X112139000Y-109489000D01*
%TO.N,DPB*%
X133620000Y-99300000D02*
X133620000Y-108800000D01*
X111669000Y-97171000D02*
X115069000Y-97171000D01*
X131460000Y-97140000D02*
X133620000Y-99300000D01*
X140190000Y-109200000D02*
X140460000Y-109470000D01*
X115100000Y-97140000D02*
X131460000Y-97140000D01*
X133620000Y-108800000D02*
X133660000Y-108800000D01*
X133660000Y-108800000D02*
X134060000Y-109200000D01*
X110540000Y-102080000D02*
X110660000Y-101960000D01*
X110560000Y-98350000D02*
X111669000Y-97241000D01*
X134060000Y-109200000D02*
X140190000Y-109200000D01*
X115069000Y-97171000D02*
X115100000Y-97140000D01*
X110560000Y-102130000D02*
X110560000Y-98350000D01*
X111669000Y-97241000D02*
X111669000Y-97171000D01*
%TO.N,VING*%
X128755000Y-107735000D02*
X126100000Y-107735000D01*
X128910000Y-106180000D02*
X128910000Y-107890000D01*
X127480000Y-104690000D02*
X128940000Y-106150000D01*
X128940000Y-106150000D02*
X128910000Y-106180000D01*
X128910000Y-107890000D02*
X130400000Y-107890000D01*
X125910000Y-104690000D02*
X127480000Y-104690000D01*
X128910000Y-107890000D02*
X128755000Y-107735000D01*
%TO.N,VOUT2G*%
X131180000Y-112860000D02*
X132630000Y-112860000D01*
X131130000Y-111940000D02*
X131180000Y-111990000D01*
X131180000Y-111990000D02*
X131180000Y-112860000D01*
X132630000Y-112860000D02*
X133560000Y-113790000D01*
%TO.N,VOUT1G*%
X104120000Y-107450000D02*
X106280000Y-109610000D01*
X104120000Y-107410000D02*
X104120000Y-107450000D01*
%TO.N,VBUSG*%
X125210000Y-113140000D02*
X125550000Y-112800000D01*
X125210000Y-114210000D02*
X125210000Y-113140000D01*
%TO.N,LED1*%
X109840000Y-98720000D02*
X110010000Y-98550000D01*
X111120000Y-105930000D02*
X110980000Y-105790000D01*
X109840000Y-104940000D02*
X109840000Y-98720000D01*
X110960000Y-105790000D02*
X109940000Y-104770000D01*
X113030000Y-105930000D02*
X111120000Y-105930000D01*
X110980000Y-105790000D02*
X110960000Y-105790000D01*
%TO.N,LED2*%
X102200000Y-106030000D02*
X102200000Y-98710000D01*
X102830000Y-106660000D02*
X102200000Y-106030000D01*
X102100000Y-98880000D02*
X101900000Y-98680000D01*
X112980000Y-106660000D02*
X102830000Y-106660000D01*
%TO.N,VIN*%
X131010000Y-105380000D02*
X130400000Y-105990000D01*
D36*
X131850000Y-106820000D02*
X131230000Y-106820000D01*
X131230000Y-106820000D02*
X130400000Y-105990000D01*
D35*
X131010000Y-104500000D02*
X131010000Y-105380000D01*
%TO.N,VOUT2*%
X134560000Y-112290000D02*
X134560000Y-112890000D01*
D34*
X135460000Y-115350000D02*
X135460000Y-113790000D01*
X134830000Y-116210000D02*
X134830000Y-115980000D01*
X134990000Y-116370000D02*
X134830000Y-116210000D01*
D35*
X119341057Y-95699000D02*
X131309000Y-95699000D01*
X131309000Y-95699000D02*
X131960000Y-96350000D01*
X117465401Y-96204543D02*
X117695457Y-96204543D01*
D34*
X134830000Y-115980000D02*
X135460000Y-115350000D01*
D35*
X117695457Y-96204543D02*
X118071000Y-95829000D01*
D34*
X134990000Y-116790000D02*
X134990000Y-116370000D01*
D35*
X119211057Y-95829000D02*
X119341057Y-95699000D01*
X118071000Y-95829000D02*
X119211057Y-95829000D01*
X117194972Y-96474972D02*
X117465401Y-96204543D01*
X134560000Y-112890000D02*
X135460000Y-113790000D01*
%TO.N,VOUT1*%
X102500000Y-109610000D02*
X104380000Y-109610000D01*
X102360000Y-109470000D02*
X102500000Y-109610000D01*
D36*
X105230000Y-109770000D02*
X104540000Y-109770000D01*
X104540000Y-109770000D02*
X104380000Y-109610000D01*
%TD*%
%TA.AperFunction,NonConductor*%
G36*
X130906942Y-99050185D02*
G01*
X130927584Y-99066819D01*
X131628584Y-99767819D01*
X131662069Y-99829142D01*
X131657085Y-99898834D01*
X131615213Y-99954767D01*
X131549749Y-99979184D01*
X131540903Y-99979500D01*
X130784998Y-99979500D01*
X130784980Y-99979501D01*
X130682203Y-99990000D01*
X130682200Y-99990001D01*
X130515668Y-100045185D01*
X130515663Y-100045187D01*
X130435882Y-100094397D01*
X130366344Y-100137288D01*
X130366342Y-100137289D01*
X130360197Y-100141080D01*
X130359301Y-100139628D01*
X130302843Y-100162405D01*
X130234201Y-100149364D01*
X130209579Y-100131436D01*
X130209319Y-100131766D01*
X130203658Y-100127290D01*
X130203656Y-100127288D01*
X130089218Y-100056702D01*
X130054336Y-100035187D01*
X130054331Y-100035185D01*
X130052862Y-100034698D01*
X129887797Y-99980001D01*
X129887795Y-99980000D01*
X129785016Y-99969500D01*
X129785009Y-99969500D01*
X129160097Y-99969500D01*
X129093058Y-99949815D01*
X129072416Y-99933181D01*
X128853692Y-99714457D01*
X128820207Y-99653134D01*
X128819756Y-99602583D01*
X128820500Y-99598842D01*
X128820500Y-99441155D01*
X128820499Y-99441153D01*
X128806246Y-99369500D01*
X128789737Y-99286503D01*
X128775387Y-99251858D01*
X128754716Y-99201952D01*
X128747247Y-99132482D01*
X128778523Y-99070003D01*
X128838612Y-99034351D01*
X128869277Y-99030500D01*
X130839903Y-99030500D01*
X130906942Y-99050185D01*
G37*
%TD.AperFunction*%
%TA.AperFunction,NonConductor*%
G36*
X127202199Y-99039742D02*
G01*
X127233996Y-99047858D01*
X127235560Y-99049538D01*
X127237762Y-99050185D01*
X127259235Y-99074967D01*
X127281606Y-99098994D01*
X127282013Y-99101254D01*
X127283517Y-99102989D01*
X127288185Y-99135460D01*
X127294013Y-99167754D01*
X127293255Y-99170720D01*
X127293461Y-99172147D01*
X127285284Y-99201952D01*
X127250264Y-99286498D01*
X127250261Y-99286510D01*
X127219500Y-99441153D01*
X127219500Y-99598846D01*
X127250261Y-99753489D01*
X127250264Y-99753501D01*
X127268716Y-99798048D01*
X127276185Y-99867517D01*
X127244909Y-99929996D01*
X127184820Y-99965648D01*
X127154155Y-99969500D01*
X126664998Y-99969500D01*
X126664980Y-99969501D01*
X126562203Y-99980000D01*
X126562200Y-99980001D01*
X126395668Y-100035185D01*
X126395663Y-100035187D01*
X126246342Y-100127289D01*
X126241909Y-100130795D01*
X126177113Y-100156934D01*
X126108471Y-100143892D01*
X126088091Y-100130795D01*
X126083657Y-100127289D01*
X126083656Y-100127288D01*
X125979812Y-100063237D01*
X125934336Y-100035187D01*
X125934331Y-100035185D01*
X125932862Y-100034698D01*
X125767797Y-99980001D01*
X125767795Y-99980000D01*
X125665010Y-99969500D01*
X124614998Y-99969500D01*
X124614980Y-99969501D01*
X124512203Y-99980000D01*
X124512200Y-99980001D01*
X124345668Y-100035185D01*
X124345663Y-100035187D01*
X124196342Y-100127289D01*
X124072289Y-100251342D01*
X124072288Y-100251344D01*
X124038208Y-100306598D01*
X124035741Y-100310597D01*
X124028153Y-100317421D01*
X124023915Y-100326703D01*
X124002615Y-100340391D01*
X123983793Y-100357321D01*
X123972157Y-100359965D01*
X123965137Y-100364477D01*
X123930202Y-100369500D01*
X123683404Y-100369500D01*
X123616365Y-100349815D01*
X123570610Y-100297011D01*
X123560666Y-100227853D01*
X123589691Y-100164297D01*
X123635952Y-100130939D01*
X123724172Y-100094397D01*
X123724172Y-100094396D01*
X123724179Y-100094394D01*
X123855289Y-100006789D01*
X123966789Y-99895289D01*
X124054394Y-99764179D01*
X124114737Y-99618497D01*
X124145500Y-99463842D01*
X124145500Y-99306158D01*
X124145500Y-99306155D01*
X124145499Y-99306153D01*
X124120146Y-99178691D01*
X124126373Y-99109100D01*
X124169236Y-99053922D01*
X124235126Y-99030678D01*
X124241763Y-99030500D01*
X127170723Y-99030500D01*
X127202199Y-99039742D01*
G37*
%TD.AperFunction*%
%TA.AperFunction,NonConductor*%
G36*
X118902539Y-99121185D02*
G01*
X118948294Y-99173989D01*
X118959500Y-99225500D01*
X118959500Y-100035001D01*
X118959501Y-100035019D01*
X118970000Y-100137796D01*
X118970001Y-100137799D01*
X119025185Y-100304331D01*
X119025187Y-100304336D01*
X119041392Y-100330609D01*
X119117288Y-100453656D01*
X119241344Y-100577712D01*
X119300114Y-100613961D01*
X119346838Y-100665909D01*
X119358061Y-100734872D01*
X119330217Y-100798954D01*
X119272149Y-100837810D01*
X119235017Y-100843500D01*
X117926879Y-100843500D01*
X117752917Y-100878103D01*
X117752909Y-100878105D01*
X117702002Y-100899191D01*
X117701988Y-100899197D01*
X117697259Y-100901157D01*
X117589029Y-100945987D01*
X117520681Y-100991656D01*
X117514822Y-100995571D01*
X117441537Y-101044537D01*
X115876405Y-102609669D01*
X115868460Y-102614006D01*
X115863035Y-102621255D01*
X115838272Y-102630491D01*
X115815082Y-102643154D01*
X115806053Y-102642508D01*
X115797571Y-102645672D01*
X115771748Y-102640055D01*
X115745390Y-102638170D01*
X115736337Y-102632352D01*
X115729298Y-102630821D01*
X115701045Y-102609671D01*
X115628716Y-102537342D01*
X115628713Y-102537340D01*
X112404554Y-99313181D01*
X112371069Y-99251858D01*
X112376053Y-99182166D01*
X112417925Y-99126233D01*
X112483389Y-99101816D01*
X112492235Y-99101500D01*
X118835500Y-99101500D01*
X118902539Y-99121185D01*
G37*
%TD.AperFunction*%
%TA.AperFunction,NonConductor*%
G36*
X131981325Y-103873039D02*
G01*
X132008201Y-103875047D01*
X132014991Y-103880164D01*
X132023312Y-103881925D01*
X132042477Y-103900875D01*
X132064002Y-103917095D01*
X132066948Y-103925072D01*
X132072995Y-103931051D01*
X132078872Y-103957354D01*
X132088211Y-103982636D01*
X132088500Y-103991091D01*
X132088500Y-105696471D01*
X132068815Y-105763510D01*
X132016011Y-105809265D01*
X131954633Y-105819495D01*
X131954633Y-105819500D01*
X131954606Y-105819500D01*
X131952356Y-105819875D01*
X131948545Y-105819500D01*
X131948541Y-105819500D01*
X131751459Y-105819500D01*
X131751454Y-105819500D01*
X131678910Y-105833930D01*
X131609318Y-105827703D01*
X131554141Y-105784840D01*
X131530897Y-105718950D01*
X131546965Y-105650953D01*
X131547223Y-105650502D01*
X131548544Y-105648215D01*
X131569577Y-105611785D01*
X131610500Y-105459058D01*
X131610500Y-105300943D01*
X131610500Y-105079765D01*
X131630185Y-105012726D01*
X131631398Y-105010874D01*
X131648687Y-104985000D01*
X131719394Y-104879179D01*
X131720213Y-104877203D01*
X131762842Y-104774285D01*
X131779737Y-104733497D01*
X131810500Y-104578842D01*
X131810500Y-104421158D01*
X131810500Y-104421155D01*
X131810499Y-104421153D01*
X131801020Y-104373501D01*
X131779737Y-104266503D01*
X131759997Y-104218846D01*
X131719397Y-104120827D01*
X131719390Y-104120814D01*
X131687702Y-104073390D01*
X131686106Y-104068293D01*
X131682309Y-104064539D01*
X131675775Y-104035301D01*
X131666824Y-104006713D01*
X131668236Y-104001563D01*
X131667072Y-103996351D01*
X131677382Y-103968222D01*
X131685308Y-103939333D01*
X131689280Y-103935764D01*
X131691119Y-103930750D01*
X131715000Y-103912661D01*
X131737287Y-103892642D01*
X131743696Y-103890925D01*
X131746816Y-103888563D01*
X131764902Y-103885247D01*
X131781261Y-103880867D01*
X131786028Y-103880499D01*
X131835008Y-103880499D01*
X131937797Y-103869999D01*
X131942578Y-103868414D01*
X131954957Y-103867459D01*
X131981325Y-103873039D01*
G37*
%TD.AperFunction*%
%TA.AperFunction,NonConductor*%
G36*
X107163392Y-103751067D02*
G01*
X107190812Y-103769389D01*
X107190827Y-103769397D01*
X107312689Y-103819873D01*
X107336503Y-103829737D01*
X107488639Y-103859999D01*
X107491153Y-103860499D01*
X107491156Y-103860500D01*
X107635500Y-103860500D01*
X107702539Y-103880185D01*
X107748294Y-103932989D01*
X107759500Y-103984500D01*
X107759500Y-105610232D01*
X107739815Y-105677271D01*
X107738603Y-105679122D01*
X107694914Y-105744508D01*
X107638343Y-105881082D01*
X107638340Y-105881094D01*
X107622706Y-105959691D01*
X107607995Y-105987814D01*
X107594802Y-106016703D01*
X107591912Y-106018560D01*
X107590321Y-106021602D01*
X107562735Y-106037310D01*
X107536024Y-106054477D01*
X107531430Y-106055137D01*
X107529605Y-106056177D01*
X107501089Y-106059500D01*
X107264500Y-106059500D01*
X107197461Y-106039815D01*
X107151706Y-105987011D01*
X107140500Y-105935500D01*
X107140500Y-105841155D01*
X107140499Y-105841153D01*
X107137684Y-105826999D01*
X107109737Y-105686503D01*
X107049394Y-105540821D01*
X106991397Y-105454022D01*
X106970520Y-105387346D01*
X106970500Y-105385133D01*
X106970500Y-103854168D01*
X106990185Y-103787129D01*
X107042989Y-103741374D01*
X107112147Y-103731430D01*
X107163392Y-103751067D01*
G37*
%TD.AperFunction*%
%TA.AperFunction,NonConductor*%
G36*
X110527942Y-97320185D02*
G01*
X110573697Y-97372989D01*
X110583641Y-97442147D01*
X110554616Y-97505703D01*
X110548602Y-97512161D01*
X110312589Y-97748175D01*
X110278706Y-97782058D01*
X110217383Y-97815542D01*
X110166833Y-97815993D01*
X110083920Y-97799500D01*
X110083918Y-97799500D01*
X109936082Y-97799500D01*
X109936080Y-97799500D01*
X109791092Y-97828340D01*
X109791082Y-97828343D01*
X109654511Y-97884912D01*
X109654498Y-97884919D01*
X109531584Y-97967048D01*
X109531580Y-97967051D01*
X109427051Y-98071580D01*
X109427048Y-98071584D01*
X109344919Y-98194498D01*
X109344912Y-98194511D01*
X109288343Y-98331082D01*
X109288340Y-98331092D01*
X109259500Y-98476079D01*
X109259500Y-98549973D01*
X109258452Y-98553540D01*
X109255275Y-98582066D01*
X109239499Y-98640943D01*
X109239499Y-98809046D01*
X109239500Y-98809059D01*
X109239500Y-105019057D01*
X109272931Y-105143821D01*
X109280423Y-105171783D01*
X109280426Y-105171790D01*
X109359475Y-105308709D01*
X109359479Y-105308714D01*
X109359480Y-105308716D01*
X109471284Y-105420520D01*
X109471286Y-105420521D01*
X109471290Y-105420524D01*
X109538034Y-105459058D01*
X109608216Y-105499577D01*
X109760943Y-105540500D01*
X109809903Y-105540500D01*
X109876942Y-105560185D01*
X109897584Y-105576819D01*
X110168584Y-105847819D01*
X110202069Y-105909142D01*
X110197085Y-105978834D01*
X110155213Y-106034767D01*
X110089749Y-106059184D01*
X110080903Y-106059500D01*
X109218911Y-106059500D01*
X109151872Y-106039815D01*
X109106117Y-105987011D01*
X109097294Y-105959691D01*
X109090367Y-105924873D01*
X109081658Y-105881087D01*
X109025084Y-105744505D01*
X108981396Y-105679121D01*
X108960520Y-105612444D01*
X108960500Y-105610232D01*
X108960500Y-98770945D01*
X108960500Y-98770943D01*
X108938161Y-98687573D01*
X108919577Y-98618215D01*
X108881274Y-98551873D01*
X108881274Y-98551872D01*
X108840522Y-98481287D01*
X108840521Y-98481286D01*
X108840520Y-98481284D01*
X108728716Y-98369480D01*
X108728715Y-98369479D01*
X108724385Y-98365149D01*
X108724374Y-98365139D01*
X108568718Y-98209483D01*
X108568716Y-98209481D01*
X108431785Y-98130423D01*
X108279057Y-98089499D01*
X108120943Y-98089499D01*
X108062066Y-98105275D01*
X108029973Y-98109500D01*
X108026080Y-98109500D01*
X107881092Y-98138340D01*
X107881082Y-98138343D01*
X107744511Y-98194912D01*
X107744498Y-98194919D01*
X107621584Y-98277048D01*
X107621580Y-98277051D01*
X107517051Y-98381580D01*
X107517048Y-98381584D01*
X107434919Y-98504498D01*
X107434912Y-98504511D01*
X107378343Y-98641082D01*
X107378340Y-98641092D01*
X107349500Y-98786079D01*
X107349500Y-98786082D01*
X107349500Y-98933918D01*
X107349500Y-98933920D01*
X107349499Y-98933920D01*
X107378340Y-99078907D01*
X107378343Y-99078917D01*
X107434912Y-99215488D01*
X107434919Y-99215501D01*
X107517048Y-99338415D01*
X107517051Y-99338419D01*
X107621581Y-99442949D01*
X107621584Y-99442951D01*
X107704392Y-99498281D01*
X107749195Y-99551891D01*
X107759500Y-99601382D01*
X107759500Y-102135500D01*
X107739815Y-102202539D01*
X107687011Y-102248294D01*
X107635500Y-102259500D01*
X107491155Y-102259500D01*
X107336510Y-102290261D01*
X107336498Y-102290264D01*
X107190827Y-102350602D01*
X107190816Y-102350608D01*
X107163390Y-102368934D01*
X107096712Y-102389811D01*
X107029332Y-102371326D01*
X106982643Y-102319346D01*
X106970500Y-102265831D01*
X106970500Y-101619765D01*
X106990185Y-101552726D01*
X106991398Y-101550874D01*
X107079390Y-101419185D01*
X107079390Y-101419184D01*
X107079394Y-101419179D01*
X107139737Y-101273497D01*
X107170500Y-101118842D01*
X107170500Y-100961158D01*
X107170500Y-100961155D01*
X107170499Y-100961153D01*
X107158174Y-100899191D01*
X107139737Y-100806503D01*
X107138374Y-100803212D01*
X107079397Y-100660827D01*
X107079390Y-100660814D01*
X106991789Y-100529711D01*
X106991786Y-100529707D01*
X106880292Y-100418213D01*
X106880288Y-100418210D01*
X106749185Y-100330609D01*
X106749172Y-100330602D01*
X106603501Y-100270264D01*
X106603491Y-100270261D01*
X106500308Y-100249736D01*
X106438397Y-100217350D01*
X106403823Y-100156634D01*
X106400500Y-100128119D01*
X106400500Y-100091155D01*
X106400499Y-100091153D01*
X106391356Y-100045187D01*
X106369737Y-99936503D01*
X106352666Y-99895289D01*
X106309397Y-99790827D01*
X106309390Y-99790814D01*
X106221789Y-99659711D01*
X106221786Y-99659707D01*
X106110292Y-99548213D01*
X106110288Y-99548210D01*
X105979185Y-99460609D01*
X105979172Y-99460602D01*
X105833501Y-99400264D01*
X105833489Y-99400261D01*
X105678845Y-99369500D01*
X105678842Y-99369500D01*
X105521158Y-99369500D01*
X105521155Y-99369500D01*
X105366510Y-99400261D01*
X105366498Y-99400264D01*
X105220827Y-99460602D01*
X105220814Y-99460609D01*
X105089711Y-99548210D01*
X105089707Y-99548213D01*
X104978213Y-99659707D01*
X104978210Y-99659711D01*
X104890609Y-99790814D01*
X104890602Y-99790827D01*
X104830264Y-99936498D01*
X104830261Y-99936510D01*
X104799500Y-100091153D01*
X104799500Y-100248846D01*
X104830261Y-100403489D01*
X104830264Y-100403501D01*
X104890602Y-100549172D01*
X104890609Y-100549185D01*
X104931579Y-100610500D01*
X104977239Y-100678835D01*
X104978602Y-100680874D01*
X104999480Y-100747551D01*
X104999500Y-100749765D01*
X104999500Y-105277056D01*
X104979815Y-105344095D01*
X104963181Y-105364737D01*
X104918210Y-105409707D01*
X104918207Y-105409711D01*
X104830606Y-105540814D01*
X104830599Y-105540827D01*
X104770261Y-105686498D01*
X104770258Y-105686510D01*
X104739497Y-105841153D01*
X104739497Y-105935500D01*
X104719812Y-106002539D01*
X104667008Y-106048294D01*
X104615497Y-106059500D01*
X103130098Y-106059500D01*
X103063059Y-106039815D01*
X103042417Y-106023181D01*
X102836819Y-105817583D01*
X102803334Y-105756260D01*
X102800500Y-105729902D01*
X102800500Y-98630945D01*
X102800500Y-98630943D01*
X102759577Y-98478216D01*
X102753018Y-98466855D01*
X102680524Y-98341290D01*
X102680518Y-98341282D01*
X102568717Y-98229481D01*
X102568716Y-98229480D01*
X102445933Y-98158592D01*
X102420253Y-98138886D01*
X102378419Y-98097051D01*
X102378415Y-98097048D01*
X102255501Y-98014919D01*
X102255488Y-98014912D01*
X102118917Y-97958343D01*
X102118903Y-97958339D01*
X102114544Y-97957472D01*
X102052634Y-97925085D01*
X102018062Y-97864368D01*
X102021805Y-97794598D01*
X102051057Y-97748177D01*
X102462416Y-97336819D01*
X102523739Y-97303334D01*
X102550097Y-97300500D01*
X110460903Y-97300500D01*
X110527942Y-97320185D01*
G37*
%TD.AperFunction*%
%TA.AperFunction,NonConductor*%
G36*
X117543833Y-103591754D02*
G01*
X117599767Y-103633625D01*
X117624184Y-103699089D01*
X117624500Y-103707935D01*
X117624500Y-103895000D01*
X117624501Y-103895019D01*
X117635000Y-103997796D01*
X117635001Y-103997799D01*
X117690185Y-104164331D01*
X117690187Y-104164336D01*
X117703937Y-104186628D01*
X117782288Y-104313656D01*
X117906344Y-104437712D01*
X118055666Y-104529814D01*
X118222203Y-104584999D01*
X118324991Y-104595500D01*
X118988688Y-104595499D01*
X119055727Y-104615183D01*
X119101482Y-104667987D01*
X119111426Y-104737146D01*
X119082401Y-104800702D01*
X119076369Y-104807180D01*
X117462664Y-106420885D01*
X117401341Y-106454370D01*
X117331649Y-106449386D01*
X117275716Y-106407514D01*
X117251299Y-106342050D01*
X117260422Y-106285752D01*
X117303049Y-106182839D01*
X117303051Y-106182835D01*
X117332504Y-106034767D01*
X117341500Y-105989543D01*
X117341500Y-105792456D01*
X117303052Y-105599171D01*
X117303051Y-105599165D01*
X117250939Y-105473354D01*
X117241500Y-105425902D01*
X117241500Y-103842937D01*
X117250145Y-103813493D01*
X117256668Y-103783511D01*
X117260422Y-103778495D01*
X117261185Y-103775898D01*
X117277810Y-103755265D01*
X117412823Y-103620251D01*
X117474141Y-103586770D01*
X117543833Y-103591754D01*
G37*
%TD.AperFunction*%
%TA.AperFunction,NonConductor*%
G36*
X101543374Y-99344328D02*
G01*
X101544380Y-99345000D01*
X101589190Y-99398605D01*
X101599500Y-99448109D01*
X101599500Y-105943330D01*
X101599499Y-105943348D01*
X101599499Y-106109054D01*
X101599498Y-106109054D01*
X101619266Y-106182829D01*
X101640423Y-106261785D01*
X101662013Y-106299179D01*
X101696839Y-106359500D01*
X101719479Y-106398715D01*
X101838349Y-106517585D01*
X101838355Y-106517590D01*
X101978584Y-106657819D01*
X102012069Y-106719142D01*
X102007085Y-106788834D01*
X101965213Y-106844767D01*
X101899749Y-106869184D01*
X101890903Y-106869500D01*
X101783389Y-106869500D01*
X101751192Y-106874599D01*
X101612301Y-106896597D01*
X101612297Y-106896598D01*
X101512817Y-106928921D01*
X101442976Y-106930916D01*
X101383144Y-106894835D01*
X101352316Y-106832134D01*
X101350500Y-106810990D01*
X101350500Y-99447441D01*
X101370185Y-99380402D01*
X101422989Y-99334647D01*
X101492147Y-99324703D01*
X101543374Y-99344328D01*
G37*
%TD.AperFunction*%
%TA.AperFunction,NonConductor*%
G36*
X129671390Y-106759347D02*
G01*
X129678397Y-106761530D01*
X129678398Y-106761531D01*
X129832113Y-106809430D01*
X129898909Y-106815500D01*
X129900614Y-106815499D01*
X129900926Y-106815591D01*
X129901727Y-106815628D01*
X129901718Y-106815823D01*
X129930067Y-106824141D01*
X129960065Y-106830667D01*
X129965063Y-106834409D01*
X129967654Y-106835169D01*
X129988319Y-106851818D01*
X129989320Y-106852819D01*
X130022805Y-106914142D01*
X130017821Y-106983834D01*
X129975949Y-107039767D01*
X129910485Y-107064184D01*
X129901661Y-107064500D01*
X129898901Y-107064500D01*
X129832117Y-107070568D01*
X129832106Y-107070571D01*
X129671390Y-107120652D01*
X129643983Y-107121103D01*
X129616853Y-107125005D01*
X129609554Y-107121671D01*
X129601530Y-107121804D01*
X129578229Y-107107366D01*
X129553297Y-107095980D01*
X129548958Y-107089229D01*
X129542138Y-107085003D01*
X129530343Y-107060262D01*
X129515523Y-107037202D01*
X129513870Y-107025711D01*
X129512070Y-107021934D01*
X129510500Y-107002267D01*
X129510500Y-106877732D01*
X129530185Y-106810693D01*
X129582989Y-106764938D01*
X129652147Y-106754994D01*
X129671390Y-106759347D01*
G37*
%TD.AperFunction*%
%TA.AperFunction,NonConductor*%
G36*
X111369465Y-101443172D02*
G01*
X111377629Y-101450639D01*
X114293181Y-104366191D01*
X114326666Y-104427514D01*
X114329500Y-104453872D01*
X114329500Y-107643796D01*
X114309815Y-107710835D01*
X114257011Y-107756590D01*
X114187853Y-107766534D01*
X114124297Y-107737509D01*
X114117819Y-107731477D01*
X114006930Y-107620588D01*
X114006928Y-107620586D01*
X113866788Y-107518768D01*
X113808054Y-107488842D01*
X113712447Y-107440128D01*
X113712446Y-107440127D01*
X113712445Y-107440127D01*
X113699011Y-107435762D01*
X113690240Y-107429764D01*
X113679818Y-107427688D01*
X113661899Y-107410386D01*
X113641337Y-107396326D01*
X113635870Y-107385252D01*
X113629556Y-107379155D01*
X113619364Y-107351816D01*
X113616645Y-107346307D01*
X113616144Y-107344184D01*
X113591658Y-107221087D01*
X113581069Y-107195522D01*
X113578772Y-107185787D01*
X113580136Y-107160489D01*
X113577428Y-107135295D01*
X113582123Y-107123667D01*
X113582536Y-107116018D01*
X113588611Y-107107598D01*
X113596354Y-107088424D01*
X113645084Y-107015495D01*
X113701658Y-106878913D01*
X113714208Y-106815823D01*
X113730500Y-106733920D01*
X113730500Y-106586079D01*
X113701659Y-106441092D01*
X113701658Y-106441091D01*
X113701658Y-106441087D01*
X113687752Y-106407514D01*
X113684721Y-106400196D01*
X113677252Y-106330727D01*
X113693151Y-106291362D01*
X113692215Y-106290862D01*
X113695080Y-106285500D01*
X113695084Y-106285495D01*
X113751658Y-106148913D01*
X113771673Y-106048294D01*
X113780500Y-106003920D01*
X113780500Y-105856079D01*
X113751659Y-105711092D01*
X113751658Y-105711091D01*
X113751658Y-105711087D01*
X113725463Y-105647847D01*
X113695087Y-105574511D01*
X113695080Y-105574498D01*
X113612951Y-105451584D01*
X113612948Y-105451580D01*
X113508419Y-105347051D01*
X113508415Y-105347048D01*
X113385501Y-105264919D01*
X113385488Y-105264912D01*
X113248917Y-105208343D01*
X113248907Y-105208340D01*
X113103920Y-105179500D01*
X113103918Y-105179500D01*
X112956082Y-105179500D01*
X112956080Y-105179500D01*
X112811092Y-105208340D01*
X112811082Y-105208343D01*
X112674511Y-105264912D01*
X112674498Y-105264919D01*
X112609124Y-105308602D01*
X112542447Y-105329480D01*
X112540233Y-105329500D01*
X111416617Y-105329500D01*
X111401129Y-105325350D01*
X111387383Y-105326005D01*
X111354617Y-105312887D01*
X111347458Y-105308754D01*
X111315530Y-105290320D01*
X111289849Y-105270614D01*
X110476819Y-104457584D01*
X110443334Y-104396261D01*
X110440500Y-104369903D01*
X110440500Y-104114784D01*
X110460185Y-104047745D01*
X110512989Y-104001990D01*
X110582147Y-103992046D01*
X110645703Y-104021071D01*
X110652181Y-104027103D01*
X110702214Y-104077136D01*
X110702218Y-104077139D01*
X110866079Y-104186628D01*
X110866092Y-104186635D01*
X111028996Y-104254111D01*
X111048165Y-104262051D01*
X111048169Y-104262051D01*
X111048170Y-104262052D01*
X111241456Y-104300500D01*
X111241459Y-104300500D01*
X111438543Y-104300500D01*
X111609418Y-104266510D01*
X111631835Y-104262051D01*
X111813914Y-104186632D01*
X111977782Y-104077139D01*
X112117139Y-103937782D01*
X112226632Y-103773914D01*
X112236096Y-103751067D01*
X112302049Y-103591839D01*
X112302051Y-103591835D01*
X112314632Y-103528582D01*
X112340500Y-103398543D01*
X112340500Y-103201456D01*
X112302052Y-103008170D01*
X112302051Y-103008169D01*
X112302051Y-103008165D01*
X112301297Y-103006344D01*
X112226635Y-102826092D01*
X112226628Y-102826079D01*
X112117139Y-102662218D01*
X112117136Y-102662214D01*
X111977785Y-102522863D01*
X111977781Y-102522860D01*
X111813920Y-102413371D01*
X111813907Y-102413364D01*
X111631839Y-102337950D01*
X111631829Y-102337947D01*
X111438934Y-102299577D01*
X111377023Y-102267192D01*
X111342449Y-102206476D01*
X111341727Y-102165086D01*
X111339903Y-102164907D01*
X111340500Y-102158844D01*
X111340500Y-102001155D01*
X111340499Y-102001153D01*
X111324368Y-101920060D01*
X111309737Y-101846503D01*
X111309735Y-101846498D01*
X111249397Y-101700827D01*
X111249390Y-101700814D01*
X111186846Y-101607211D01*
X111165968Y-101540534D01*
X111184452Y-101473153D01*
X111236431Y-101426463D01*
X111305401Y-101415287D01*
X111369465Y-101443172D01*
G37*
%TD.AperFunction*%
%TA.AperFunction,NonConductor*%
G36*
X144054783Y-95499848D02*
G01*
X144100744Y-95552472D01*
X144112146Y-95603238D01*
X144190293Y-103766124D01*
X144171251Y-103833349D01*
X144118888Y-103879607D01*
X144049828Y-103890212D01*
X143985997Y-103861797D01*
X143951738Y-103814764D01*
X143929395Y-103760823D01*
X143929390Y-103760814D01*
X143841789Y-103629711D01*
X143841786Y-103629707D01*
X143730292Y-103518213D01*
X143730288Y-103518210D01*
X143599185Y-103430609D01*
X143599172Y-103430602D01*
X143453501Y-103370264D01*
X143453489Y-103370261D01*
X143298845Y-103339500D01*
X143298842Y-103339500D01*
X143141158Y-103339500D01*
X143141155Y-103339500D01*
X142986510Y-103370261D01*
X142986498Y-103370264D01*
X142840827Y-103430602D01*
X142840814Y-103430609D01*
X142709711Y-103518210D01*
X142709707Y-103518213D01*
X142598213Y-103629707D01*
X142598210Y-103629711D01*
X142510609Y-103760814D01*
X142510602Y-103760827D01*
X142450264Y-103906498D01*
X142450261Y-103906510D01*
X142419500Y-104061153D01*
X142419500Y-104218846D01*
X142450261Y-104373489D01*
X142450264Y-104373501D01*
X142510602Y-104519172D01*
X142510608Y-104519183D01*
X142542297Y-104566609D01*
X142563174Y-104633286D01*
X142544689Y-104700666D01*
X142492710Y-104747356D01*
X142477516Y-104753428D01*
X142464934Y-104757517D01*
X142447147Y-104763296D01*
X142296311Y-104840152D01*
X142159365Y-104939648D01*
X142159360Y-104939652D01*
X142039652Y-105059360D01*
X142039648Y-105059365D01*
X141940152Y-105196311D01*
X141884911Y-105304727D01*
X141836936Y-105355523D01*
X141769115Y-105372318D01*
X141705535Y-105351534D01*
X141689185Y-105340609D01*
X141689172Y-105340602D01*
X141543501Y-105280264D01*
X141543489Y-105280261D01*
X141388845Y-105249500D01*
X141388842Y-105249500D01*
X141231158Y-105249500D01*
X141231155Y-105249500D01*
X141076510Y-105280261D01*
X141076498Y-105280264D01*
X140930827Y-105340602D01*
X140930811Y-105340611D01*
X140908434Y-105355563D01*
X140841757Y-105376440D01*
X140774377Y-105357955D01*
X140729060Y-105308754D01*
X140708142Y-105267699D01*
X140691109Y-105244255D01*
X140594759Y-105111641D01*
X140458359Y-104975241D01*
X140302302Y-104861859D01*
X140130429Y-104774285D01*
X139946972Y-104714676D01*
X139946970Y-104714675D01*
X139946969Y-104714675D01*
X139800614Y-104691495D01*
X139756449Y-104684500D01*
X139013551Y-104684500D01*
X138977697Y-104690178D01*
X138823030Y-104714675D01*
X138639568Y-104774286D01*
X138467692Y-104861861D01*
X138446576Y-104877203D01*
X138380769Y-104900681D01*
X138312716Y-104884854D01*
X138264023Y-104834746D01*
X138252665Y-104796937D01*
X138251689Y-104797132D01*
X138229284Y-104684500D01*
X138219737Y-104636503D01*
X138219735Y-104636498D01*
X138159397Y-104490827D01*
X138159390Y-104490814D01*
X138071789Y-104359711D01*
X138071786Y-104359707D01*
X137960292Y-104248213D01*
X137960288Y-104248210D01*
X137829185Y-104160609D01*
X137829172Y-104160602D01*
X137683501Y-104100264D01*
X137683489Y-104100261D01*
X137528845Y-104069500D01*
X137528842Y-104069500D01*
X137371158Y-104069500D01*
X137371155Y-104069500D01*
X137216510Y-104100261D01*
X137216498Y-104100264D01*
X137070827Y-104160602D01*
X137070814Y-104160609D01*
X136939711Y-104248210D01*
X136939707Y-104248213D01*
X136828213Y-104359707D01*
X136828210Y-104359711D01*
X136740609Y-104490814D01*
X136740602Y-104490827D01*
X136680264Y-104636498D01*
X136680261Y-104636510D01*
X136649500Y-104791153D01*
X136649500Y-104948846D01*
X136680261Y-105103489D01*
X136680264Y-105103501D01*
X136740602Y-105249172D01*
X136740609Y-105249185D01*
X136807490Y-105349279D01*
X136828368Y-105415957D01*
X136809883Y-105483337D01*
X136792075Y-105505846D01*
X136788211Y-105509709D01*
X136788210Y-105509711D01*
X136700609Y-105640814D01*
X136700602Y-105640827D01*
X136640264Y-105786498D01*
X136640261Y-105786510D01*
X136609500Y-105941153D01*
X136609500Y-106098846D01*
X136640261Y-106253489D01*
X136640264Y-106253501D01*
X136700602Y-106399172D01*
X136700609Y-106399185D01*
X136788210Y-106530288D01*
X136788213Y-106530292D01*
X136899707Y-106641786D01*
X136899711Y-106641789D01*
X137030814Y-106729390D01*
X137030827Y-106729397D01*
X137154992Y-106780827D01*
X137176503Y-106789737D01*
X137312738Y-106816836D01*
X137331153Y-106820499D01*
X137331156Y-106820500D01*
X137331158Y-106820500D01*
X137488844Y-106820500D01*
X137488845Y-106820499D01*
X137643497Y-106789737D01*
X137789179Y-106729394D01*
X137920289Y-106641789D01*
X137937279Y-106624799D01*
X137998601Y-106591312D01*
X138068293Y-106596295D01*
X138124227Y-106638165D01*
X138125252Y-106639555D01*
X138175241Y-106708359D01*
X138311641Y-106844759D01*
X138467698Y-106958141D01*
X138639571Y-107045715D01*
X138823028Y-107105324D01*
X139013551Y-107135500D01*
X139415193Y-107135500D01*
X139482232Y-107155185D01*
X139527987Y-107207989D01*
X139536810Y-107235308D01*
X139569104Y-107397659D01*
X139569106Y-107397667D01*
X139636983Y-107561540D01*
X139636990Y-107561553D01*
X139707187Y-107666609D01*
X139728065Y-107733286D01*
X139709581Y-107800667D01*
X139657602Y-107847357D01*
X139604085Y-107859500D01*
X135049766Y-107859500D01*
X134982727Y-107839815D01*
X134980875Y-107838602D01*
X134849185Y-107750609D01*
X134849172Y-107750602D01*
X134703501Y-107690264D01*
X134703489Y-107690261D01*
X134548845Y-107659500D01*
X134548842Y-107659500D01*
X134391158Y-107659500D01*
X134368690Y-107663969D01*
X134299099Y-107657740D01*
X134243922Y-107614877D01*
X134220678Y-107548987D01*
X134220500Y-107542351D01*
X134220500Y-99220941D01*
X134219909Y-99218734D01*
X134190532Y-99109100D01*
X134179577Y-99068215D01*
X134144880Y-99008118D01*
X134144880Y-99008117D01*
X134100524Y-98931290D01*
X134100521Y-98931286D01*
X134100520Y-98931284D01*
X133988716Y-98819480D01*
X133988715Y-98819479D01*
X133984385Y-98815149D01*
X133984374Y-98815139D01*
X132389013Y-97219778D01*
X137769500Y-97219778D01*
X137769500Y-97440222D01*
X137779871Y-97505703D01*
X137803985Y-97657952D01*
X137872103Y-97867603D01*
X137872104Y-97867606D01*
X137972187Y-98064025D01*
X138101752Y-98242358D01*
X138101756Y-98242363D01*
X138257636Y-98398243D01*
X138257641Y-98398247D01*
X138352073Y-98466855D01*
X138435978Y-98527815D01*
X138559211Y-98590606D01*
X138632393Y-98627895D01*
X138632396Y-98627896D01*
X138737221Y-98661955D01*
X138842049Y-98696015D01*
X139059778Y-98730500D01*
X139059779Y-98730500D01*
X139280221Y-98730500D01*
X139280222Y-98730500D01*
X139497951Y-98696015D01*
X139707606Y-98627895D01*
X139904022Y-98527815D01*
X140082365Y-98398242D01*
X140132536Y-98348070D01*
X140193857Y-98314586D01*
X140263548Y-98319570D01*
X140319482Y-98361441D01*
X140336398Y-98392419D01*
X140366202Y-98472328D01*
X140366206Y-98472335D01*
X140452452Y-98587544D01*
X140452455Y-98587547D01*
X140567664Y-98673793D01*
X140567671Y-98673797D01*
X140702517Y-98724091D01*
X140702516Y-98724091D01*
X140709444Y-98724835D01*
X140762127Y-98730500D01*
X141875786Y-98730499D01*
X141942825Y-98750184D01*
X141988580Y-98802987D01*
X141998524Y-98872146D01*
X141982199Y-98914762D01*
X141983479Y-98915446D01*
X141980602Y-98920827D01*
X141920264Y-99066498D01*
X141920261Y-99066510D01*
X141889500Y-99221153D01*
X141889500Y-99378846D01*
X141920261Y-99533489D01*
X141920264Y-99533501D01*
X141980602Y-99679172D01*
X141980609Y-99679185D01*
X142068210Y-99810288D01*
X142068213Y-99810292D01*
X142179707Y-99921786D01*
X142179711Y-99921789D01*
X142310814Y-100009390D01*
X142310827Y-100009397D01*
X142440810Y-100063237D01*
X142456503Y-100069737D01*
X142611153Y-100100499D01*
X142611156Y-100100500D01*
X142611158Y-100100500D01*
X142768844Y-100100500D01*
X142768845Y-100100499D01*
X142923497Y-100069737D01*
X143069179Y-100009394D01*
X143200289Y-99921789D01*
X143311789Y-99810289D01*
X143399394Y-99679179D01*
X143459737Y-99533497D01*
X143490500Y-99378842D01*
X143490500Y-99221158D01*
X143490500Y-99221155D01*
X143490499Y-99221153D01*
X143478082Y-99158730D01*
X143459737Y-99066503D01*
X143435554Y-99008119D01*
X143399397Y-98920827D01*
X143399390Y-98920814D01*
X143311789Y-98789711D01*
X143311786Y-98789707D01*
X143200292Y-98678213D01*
X143200288Y-98678210D01*
X143103129Y-98613290D01*
X143058324Y-98559678D01*
X143049617Y-98490353D01*
X143055838Y-98466855D01*
X143081428Y-98398247D01*
X143104091Y-98337483D01*
X143110500Y-98277873D01*
X143110499Y-96382128D01*
X143104091Y-96322517D01*
X143095506Y-96299500D01*
X143053797Y-96187671D01*
X143053793Y-96187664D01*
X142967547Y-96072455D01*
X142967544Y-96072452D01*
X142852335Y-95986206D01*
X142852328Y-95986202D01*
X142717482Y-95935908D01*
X142717483Y-95935908D01*
X142657883Y-95929501D01*
X142657881Y-95929500D01*
X142657873Y-95929500D01*
X142657864Y-95929500D01*
X140762129Y-95929500D01*
X140762123Y-95929501D01*
X140702516Y-95935908D01*
X140567671Y-95986202D01*
X140567664Y-95986206D01*
X140452455Y-96072452D01*
X140452452Y-96072455D01*
X140366206Y-96187664D01*
X140366203Y-96187669D01*
X140336398Y-96267581D01*
X140294526Y-96323514D01*
X140229062Y-96347931D01*
X140160789Y-96333079D01*
X140132535Y-96311928D01*
X140082363Y-96261756D01*
X140082358Y-96261752D01*
X139904025Y-96132187D01*
X139904024Y-96132186D01*
X139904022Y-96132185D01*
X139786791Y-96072452D01*
X139707606Y-96032104D01*
X139707603Y-96032103D01*
X139497952Y-95963985D01*
X139389086Y-95946742D01*
X139280222Y-95929500D01*
X139059778Y-95929500D01*
X138987201Y-95940995D01*
X138842047Y-95963985D01*
X138632396Y-96032103D01*
X138632393Y-96032104D01*
X138435974Y-96132187D01*
X138257641Y-96261752D01*
X138257636Y-96261756D01*
X138101756Y-96417636D01*
X138101752Y-96417641D01*
X137972187Y-96595974D01*
X137872104Y-96792393D01*
X137872103Y-96792396D01*
X137803985Y-97002047D01*
X137803985Y-97002049D01*
X137769500Y-97219778D01*
X132389013Y-97219778D01*
X132379749Y-97210514D01*
X132346264Y-97149191D01*
X132351248Y-97079499D01*
X132393120Y-97023566D01*
X132398539Y-97019731D01*
X132470289Y-96971789D01*
X132581786Y-96860292D01*
X132581789Y-96860289D01*
X132669394Y-96729179D01*
X132729737Y-96583497D01*
X132760500Y-96428842D01*
X132760500Y-96271158D01*
X132760500Y-96271155D01*
X132760499Y-96271153D01*
X132743892Y-96187664D01*
X132729737Y-96116503D01*
X132711492Y-96072455D01*
X132669397Y-95970827D01*
X132669390Y-95970814D01*
X132581789Y-95839711D01*
X132581786Y-95839707D01*
X132478898Y-95736819D01*
X132445413Y-95675496D01*
X132450397Y-95605804D01*
X132492269Y-95549871D01*
X132557733Y-95525454D01*
X132566076Y-95525139D01*
X143987669Y-95480426D01*
X144054783Y-95499848D01*
G37*
%TD.AperFunction*%
%TA.AperFunction,NonConductor*%
G36*
X125185815Y-107005185D02*
G01*
X125231570Y-107057989D01*
X125241514Y-107127147D01*
X125224893Y-107173650D01*
X125181522Y-107245393D01*
X125130913Y-107407807D01*
X125126066Y-107461153D01*
X125124500Y-107478384D01*
X125124500Y-107991616D01*
X125130914Y-108062196D01*
X125167540Y-108179736D01*
X125176538Y-108208611D01*
X125177688Y-108278471D01*
X125140887Y-108337863D01*
X125077818Y-108367931D01*
X125058152Y-108369500D01*
X123966459Y-108369500D01*
X123899420Y-108349815D01*
X123853665Y-108297011D01*
X123843721Y-108227853D01*
X123866141Y-108172615D01*
X123896678Y-108130584D01*
X123921232Y-108096788D01*
X123999873Y-107942445D01*
X124053402Y-107777701D01*
X124080500Y-107606611D01*
X124080500Y-107433389D01*
X124053402Y-107262299D01*
X124016203Y-107147815D01*
X124014209Y-107077977D01*
X124050289Y-107018144D01*
X124112990Y-106987316D01*
X124134135Y-106985500D01*
X125118776Y-106985500D01*
X125185815Y-107005185D01*
G37*
%TD.AperFunction*%
%TA.AperFunction,NonConductor*%
G36*
X108156275Y-107989664D02*
G01*
X108161087Y-107991658D01*
X108161091Y-107991658D01*
X108161092Y-107991659D01*
X108306079Y-108020500D01*
X108306082Y-108020500D01*
X108379975Y-108020500D01*
X108412067Y-108024725D01*
X108438421Y-108031786D01*
X108470942Y-108040500D01*
X108470943Y-108040500D01*
X108681459Y-108040500D01*
X108748498Y-108060185D01*
X108794253Y-108112989D01*
X108804197Y-108182147D01*
X108775172Y-108245703D01*
X108750350Y-108267602D01*
X108629711Y-108348210D01*
X108629707Y-108348213D01*
X108518211Y-108459709D01*
X108510322Y-108471517D01*
X108456709Y-108516321D01*
X108387384Y-108525027D01*
X108324357Y-108494871D01*
X108319540Y-108490305D01*
X108021142Y-108191907D01*
X107987657Y-108130584D01*
X107992641Y-108060892D01*
X108034513Y-108004959D01*
X108099977Y-107980542D01*
X108156275Y-107989664D01*
G37*
%TD.AperFunction*%
%TA.AperFunction,NonConductor*%
G36*
X112165538Y-108060185D02*
G01*
X112211293Y-108112989D01*
X112221237Y-108182147D01*
X112217655Y-108197545D01*
X112217735Y-108197564D01*
X112216597Y-108202301D01*
X112189500Y-108373389D01*
X112189500Y-108546610D01*
X112216598Y-108717702D01*
X112217737Y-108722448D01*
X112215820Y-108722908D01*
X112216348Y-108741620D01*
X112220676Y-108768313D01*
X112217320Y-108776023D01*
X112217558Y-108784430D01*
X112203586Y-108807582D01*
X112192795Y-108832379D01*
X112183681Y-108840566D01*
X112181458Y-108844251D01*
X112166540Y-108855966D01*
X112162603Y-108858597D01*
X112095927Y-108879479D01*
X112093705Y-108879499D01*
X112043347Y-108879499D01*
X112043331Y-108879500D01*
X110039945Y-108879500D01*
X109972906Y-108859815D01*
X109927151Y-108807011D01*
X109918328Y-108779691D01*
X109909738Y-108736510D01*
X109909737Y-108736503D01*
X109906131Y-108727797D01*
X109849397Y-108590827D01*
X109849390Y-108590814D01*
X109761789Y-108459711D01*
X109761786Y-108459707D01*
X109650292Y-108348213D01*
X109650288Y-108348210D01*
X109529650Y-108267602D01*
X109484845Y-108213990D01*
X109476138Y-108144665D01*
X109506292Y-108081637D01*
X109565736Y-108044918D01*
X109598541Y-108040500D01*
X112098499Y-108040500D01*
X112165538Y-108060185D01*
G37*
%TD.AperFunction*%
%TA.AperFunction,NonConductor*%
G36*
X103262539Y-107280185D02*
G01*
X103308294Y-107332989D01*
X103319500Y-107384500D01*
X103319500Y-107488846D01*
X103350261Y-107643489D01*
X103350264Y-107643501D01*
X103410602Y-107789172D01*
X103410609Y-107789185D01*
X103498210Y-107920288D01*
X103498213Y-107920292D01*
X103609707Y-108031786D01*
X103609711Y-108031789D01*
X103740814Y-108119390D01*
X103740827Y-108119397D01*
X103801831Y-108144665D01*
X103886503Y-108179737D01*
X103991918Y-108200705D01*
X104008672Y-108209469D01*
X104027151Y-108213489D01*
X104052187Y-108232231D01*
X104053825Y-108233088D01*
X104055405Y-108234640D01*
X104126833Y-108306068D01*
X104160318Y-108367391D01*
X104155334Y-108437083D01*
X104113462Y-108493016D01*
X104076043Y-108512134D01*
X103943400Y-108553468D01*
X103805608Y-108636766D01*
X103691766Y-108750608D01*
X103659598Y-108803821D01*
X103626485Y-108858597D01*
X103608468Y-108888400D01*
X103597876Y-108922391D01*
X103559138Y-108980538D01*
X103495113Y-109008512D01*
X103479491Y-109009500D01*
X103081298Y-109009500D01*
X103014259Y-108989815D01*
X102985445Y-108964166D01*
X102981783Y-108959704D01*
X102870292Y-108848213D01*
X102790337Y-108794788D01*
X102745533Y-108741175D01*
X102736826Y-108671850D01*
X102758912Y-108618800D01*
X102811229Y-108546792D01*
X102811228Y-108546792D01*
X102811232Y-108546788D01*
X102889873Y-108392445D01*
X102943402Y-108227701D01*
X102970500Y-108056611D01*
X102970500Y-107883389D01*
X102943402Y-107712299D01*
X102889873Y-107547555D01*
X102835475Y-107440793D01*
X102834967Y-107438089D01*
X102833167Y-107436011D01*
X102828558Y-107403961D01*
X102822580Y-107372126D01*
X102823614Y-107369576D01*
X102823223Y-107366853D01*
X102836676Y-107337394D01*
X102848856Y-107307385D01*
X102851105Y-107305799D01*
X102852248Y-107303297D01*
X102879491Y-107285788D01*
X102905963Y-107267128D01*
X102909419Y-107266555D01*
X102911026Y-107265523D01*
X102945961Y-107260500D01*
X103195500Y-107260500D01*
X103262539Y-107280185D01*
G37*
%TD.AperFunction*%
%TA.AperFunction,NonConductor*%
G36*
X116867699Y-106834228D02*
G01*
X116903351Y-106894317D01*
X116900857Y-106964142D01*
X116870884Y-107012664D01*
X116650539Y-107233009D01*
X116618368Y-107281158D01*
X116615466Y-107285501D01*
X116551987Y-107380503D01*
X116527290Y-107440127D01*
X116524387Y-107447134D01*
X116524386Y-107447137D01*
X116484105Y-107544383D01*
X116484103Y-107544391D01*
X116450871Y-107711460D01*
X116450872Y-107711461D01*
X116449500Y-107718359D01*
X116449500Y-110068059D01*
X116429815Y-110135098D01*
X116377011Y-110180853D01*
X116307853Y-110190797D01*
X116244297Y-110161772D01*
X116237819Y-110155740D01*
X116150292Y-110068213D01*
X116150288Y-110068210D01*
X116019185Y-109980609D01*
X116019170Y-109980601D01*
X116008043Y-109975992D01*
X115953641Y-109932149D01*
X115931579Y-109865854D01*
X115931500Y-109861433D01*
X115931500Y-106980740D01*
X115951185Y-106913701D01*
X116003989Y-106867946D01*
X116073147Y-106858002D01*
X116079682Y-106859121D01*
X116125831Y-106868301D01*
X116242456Y-106891500D01*
X116242459Y-106891500D01*
X116439543Y-106891500D01*
X116602309Y-106859123D01*
X116632835Y-106853051D01*
X116735751Y-106810421D01*
X116805220Y-106802953D01*
X116867699Y-106834228D01*
G37*
%TD.AperFunction*%
%TA.AperFunction,NonConductor*%
G36*
X144172522Y-106710845D02*
G01*
X144212780Y-106767951D01*
X144219402Y-106806763D01*
X144265940Y-111668044D01*
X144246898Y-111735269D01*
X144194535Y-111781527D01*
X144125475Y-111792132D01*
X144061644Y-111763717D01*
X144027385Y-111716683D01*
X143979397Y-111600826D01*
X143979390Y-111600814D01*
X143891789Y-111469711D01*
X143891786Y-111469707D01*
X143780292Y-111358213D01*
X143780288Y-111358210D01*
X143649185Y-111270609D01*
X143649172Y-111270602D01*
X143503501Y-111210264D01*
X143503489Y-111210261D01*
X143348845Y-111179500D01*
X143348842Y-111179500D01*
X143191158Y-111179500D01*
X143191155Y-111179500D01*
X143036510Y-111210261D01*
X143036498Y-111210264D01*
X142890828Y-111270602D01*
X142890816Y-111270609D01*
X142883785Y-111275307D01*
X142817107Y-111296182D01*
X142749727Y-111277695D01*
X142746007Y-111275304D01*
X142649185Y-111210609D01*
X142649172Y-111210602D01*
X142503501Y-111150264D01*
X142503489Y-111150261D01*
X142348845Y-111119500D01*
X142348842Y-111119500D01*
X142191158Y-111119500D01*
X142191155Y-111119500D01*
X142036510Y-111150261D01*
X142036498Y-111150264D01*
X141890827Y-111210602D01*
X141890814Y-111210609D01*
X141759711Y-111298210D01*
X141759707Y-111298213D01*
X141648213Y-111409707D01*
X141648210Y-111409711D01*
X141560609Y-111540814D01*
X141560602Y-111540827D01*
X141500264Y-111686498D01*
X141500261Y-111686508D01*
X141490358Y-111736295D01*
X141457973Y-111798206D01*
X141397257Y-111832780D01*
X141327487Y-111829039D01*
X141270815Y-111788173D01*
X141254179Y-111759554D01*
X141248773Y-111746503D01*
X141233013Y-111708453D01*
X141233009Y-111708446D01*
X141134464Y-111560965D01*
X141134461Y-111560961D01*
X141009038Y-111435538D01*
X141004767Y-111432033D01*
X140965432Y-111374287D01*
X140963561Y-111304442D01*
X140999748Y-111244674D01*
X141059239Y-111214562D01*
X141083497Y-111209737D01*
X141219264Y-111153501D01*
X141229172Y-111149397D01*
X141229172Y-111149396D01*
X141229179Y-111149394D01*
X141360289Y-111061789D01*
X141471789Y-110950289D01*
X141559394Y-110819179D01*
X141619737Y-110673497D01*
X141628289Y-110630499D01*
X141656756Y-110576077D01*
X141655570Y-110575167D01*
X141660516Y-110568719D01*
X141660520Y-110568716D01*
X141717867Y-110469388D01*
X141739577Y-110431785D01*
X141780501Y-110279057D01*
X141780501Y-110120943D01*
X141780501Y-110113348D01*
X141780500Y-110113330D01*
X141780500Y-108620944D01*
X141780500Y-108620943D01*
X141762919Y-108555331D01*
X141739577Y-108468215D01*
X141710639Y-108418095D01*
X141660520Y-108331284D01*
X141548716Y-108219480D01*
X141548715Y-108219479D01*
X141544385Y-108215149D01*
X141544374Y-108215139D01*
X141427590Y-108098355D01*
X141427588Y-108098352D01*
X141379265Y-108050029D01*
X141345780Y-107988706D01*
X141350764Y-107919014D01*
X141392636Y-107863081D01*
X141458100Y-107838664D01*
X141526373Y-107853516D01*
X141535837Y-107859246D01*
X141640814Y-107929390D01*
X141640827Y-107929397D01*
X141754519Y-107976489D01*
X141786503Y-107989737D01*
X141941153Y-108020499D01*
X141941156Y-108020500D01*
X141941158Y-108020500D01*
X142098844Y-108020500D01*
X142098845Y-108020499D01*
X142253497Y-107989737D01*
X142342954Y-107952682D01*
X142412423Y-107945214D01*
X142474902Y-107976489D01*
X142493508Y-107998353D01*
X142528210Y-108050288D01*
X142528213Y-108050292D01*
X142639707Y-108161786D01*
X142639711Y-108161789D01*
X142770814Y-108249390D01*
X142770827Y-108249397D01*
X142885779Y-108297011D01*
X142916503Y-108309737D01*
X143057901Y-108337863D01*
X143071153Y-108340499D01*
X143071156Y-108340500D01*
X143071158Y-108340500D01*
X143228844Y-108340500D01*
X143228845Y-108340499D01*
X143383497Y-108309737D01*
X143502111Y-108260606D01*
X143529172Y-108249397D01*
X143529172Y-108249396D01*
X143529179Y-108249394D01*
X143660289Y-108161789D01*
X143771789Y-108050289D01*
X143859394Y-107919179D01*
X143919737Y-107773497D01*
X143950500Y-107618842D01*
X143950500Y-107461158D01*
X143950500Y-107461155D01*
X143950499Y-107461153D01*
X143947459Y-107445871D01*
X143919737Y-107306503D01*
X143908743Y-107279961D01*
X143859397Y-107160827D01*
X143859390Y-107160814D01*
X143771789Y-107029711D01*
X143771786Y-107029707D01*
X143745863Y-107003784D01*
X143712378Y-106942461D01*
X143717362Y-106872769D01*
X143759234Y-106816836D01*
X143795223Y-106798173D01*
X143922849Y-106756705D01*
X144039114Y-106697464D01*
X144107782Y-106684569D01*
X144172522Y-106710845D01*
G37*
%TD.AperFunction*%
%TA.AperFunction,NonConductor*%
G36*
X114248834Y-109160022D02*
G01*
X114304767Y-109201894D01*
X114329184Y-109267358D01*
X114329500Y-109276204D01*
X114329500Y-111083330D01*
X114329499Y-111083348D01*
X114329499Y-111249054D01*
X114329498Y-111249054D01*
X114370423Y-111401786D01*
X114370424Y-111401787D01*
X114392775Y-111440500D01*
X114449480Y-111538716D01*
X114449482Y-111538718D01*
X114568349Y-111657585D01*
X114568355Y-111657590D01*
X114609584Y-111698819D01*
X114643069Y-111760142D01*
X114638085Y-111829834D01*
X114596213Y-111885767D01*
X114530749Y-111910184D01*
X114521903Y-111910500D01*
X111791097Y-111910500D01*
X111724058Y-111890815D01*
X111703416Y-111874181D01*
X110121416Y-110292181D01*
X110087931Y-110230858D01*
X110092915Y-110161166D01*
X110134787Y-110105233D01*
X110200251Y-110080816D01*
X110209097Y-110080500D01*
X112010026Y-110080500D01*
X112025794Y-110081507D01*
X112034067Y-110082567D01*
X112059943Y-110089501D01*
X112088149Y-110089501D01*
X112096004Y-110090508D01*
X112121044Y-110101483D01*
X112147275Y-110109186D01*
X112149127Y-110110399D01*
X112280814Y-110198390D01*
X112280827Y-110198397D01*
X112426498Y-110258735D01*
X112426503Y-110258737D01*
X112532469Y-110279815D01*
X112581153Y-110289499D01*
X112581156Y-110289500D01*
X112581158Y-110289500D01*
X112738844Y-110289500D01*
X112738845Y-110289499D01*
X112893497Y-110258737D01*
X113039179Y-110198394D01*
X113170289Y-110110789D01*
X113281789Y-109999289D01*
X113369394Y-109868179D01*
X113376859Y-109850158D01*
X113402517Y-109788212D01*
X113429737Y-109722497D01*
X113447877Y-109631300D01*
X113480260Y-109569394D01*
X113540975Y-109534819D01*
X113545555Y-109533917D01*
X113547701Y-109533402D01*
X113712445Y-109479873D01*
X113866788Y-109401232D01*
X114006928Y-109299414D01*
X114117819Y-109188523D01*
X114179142Y-109155038D01*
X114248834Y-109160022D01*
G37*
%TD.AperFunction*%
%TA.AperFunction,NonConductor*%
G36*
X133526188Y-111214677D02*
G01*
X133550147Y-111218397D01*
X133558611Y-111225898D01*
X133569300Y-111229598D01*
X133584288Y-111248656D01*
X133602435Y-111264740D01*
X133609534Y-111280758D01*
X133612492Y-111284519D01*
X133615110Y-111293338D01*
X133616736Y-111297007D01*
X133618050Y-111301675D01*
X133644106Y-111432666D01*
X133677871Y-111514186D01*
X133679861Y-111521252D01*
X133684500Y-111554851D01*
X133684500Y-111671098D01*
X133690568Y-111737882D01*
X133690571Y-111737893D01*
X133738467Y-111891599D01*
X133738469Y-111891603D01*
X133777684Y-111956473D01*
X133795520Y-112024028D01*
X133791225Y-112050485D01*
X133791451Y-112050530D01*
X133759500Y-112211155D01*
X133759500Y-112368846D01*
X133791451Y-112529472D01*
X133789147Y-112529930D01*
X133789671Y-112589386D01*
X133752415Y-112648495D01*
X133689118Y-112678078D01*
X133670391Y-112679500D01*
X133350097Y-112679500D01*
X133320656Y-112670855D01*
X133290670Y-112664332D01*
X133285654Y-112660577D01*
X133283058Y-112659815D01*
X133262416Y-112643181D01*
X133117590Y-112498355D01*
X133117588Y-112498352D01*
X132998717Y-112379481D01*
X132998716Y-112379480D01*
X132893427Y-112318692D01*
X132861785Y-112300423D01*
X132749100Y-112270228D01*
X132744648Y-112268664D01*
X132719968Y-112250911D01*
X132694008Y-112235088D01*
X132691880Y-112230707D01*
X132687928Y-112227865D01*
X132676763Y-112199587D01*
X132663479Y-112172240D01*
X132664057Y-112167405D01*
X132662269Y-112162877D01*
X132668164Y-112133051D01*
X132671774Y-112102865D01*
X132675104Y-112097944D01*
X132675818Y-112094334D01*
X132681645Y-112088280D01*
X132698082Y-112063996D01*
X132741786Y-112020292D01*
X132741789Y-112020289D01*
X132829394Y-111889179D01*
X132889737Y-111743497D01*
X132898290Y-111700497D01*
X132930671Y-111638589D01*
X132932167Y-111637066D01*
X133237574Y-111331659D01*
X133293161Y-111299567D01*
X133311785Y-111294577D01*
X133435377Y-111223219D01*
X133458935Y-111217504D01*
X133481104Y-111207679D01*
X133492280Y-111209414D01*
X133503273Y-111206747D01*
X133526188Y-111214677D01*
G37*
%TD.AperFunction*%
%TA.AperFunction,NonConductor*%
G36*
X133846572Y-109764495D02*
G01*
X133935080Y-109788211D01*
X133935082Y-109788211D01*
X133935083Y-109788212D01*
X133944773Y-109790808D01*
X133980942Y-109800500D01*
X133980943Y-109800500D01*
X139726167Y-109800500D01*
X139793206Y-109820185D01*
X139838961Y-109872989D01*
X139840728Y-109877048D01*
X139870602Y-109949172D01*
X139870609Y-109949185D01*
X139958210Y-110080288D01*
X139958213Y-110080292D01*
X140034086Y-110156165D01*
X140067571Y-110217488D01*
X140068022Y-110268037D01*
X140049500Y-110361153D01*
X140049500Y-110518846D01*
X140080261Y-110673489D01*
X140080264Y-110673501D01*
X140140602Y-110819172D01*
X140140609Y-110819185D01*
X140228210Y-110950288D01*
X140228213Y-110950292D01*
X140320821Y-111042900D01*
X140354306Y-111104223D01*
X140349322Y-111173915D01*
X140307450Y-111229848D01*
X140257332Y-111252198D01*
X140172340Y-111269104D01*
X140172332Y-111269106D01*
X140008459Y-111336983D01*
X140008446Y-111336990D01*
X139860965Y-111435535D01*
X139860961Y-111435538D01*
X139735538Y-111560961D01*
X139735535Y-111560965D01*
X139636990Y-111708446D01*
X139636983Y-111708459D01*
X139569106Y-111872332D01*
X139569104Y-111872340D01*
X139536810Y-112034692D01*
X139504425Y-112096603D01*
X139443709Y-112131177D01*
X139415193Y-112134500D01*
X139013551Y-112134500D01*
X138991447Y-112138001D01*
X138823030Y-112164675D01*
X138639568Y-112224286D01*
X138467697Y-112311859D01*
X138389265Y-112368844D01*
X138311641Y-112425241D01*
X138311639Y-112425243D01*
X138311638Y-112425243D01*
X138175242Y-112561639D01*
X138084818Y-112686097D01*
X138029487Y-112728762D01*
X137959874Y-112734741D01*
X137898079Y-112702135D01*
X137863722Y-112641296D01*
X137860500Y-112613211D01*
X137860500Y-111421311D01*
X137858926Y-111413398D01*
X137856965Y-111403535D01*
X137856162Y-111399500D01*
X137844164Y-111339179D01*
X137825895Y-111247334D01*
X137771532Y-111116091D01*
X137771532Y-111116090D01*
X137758016Y-111083459D01*
X137758009Y-111083446D01*
X137659465Y-110935966D01*
X137596988Y-110873489D01*
X137534035Y-110810536D01*
X137451155Y-110727656D01*
X137194041Y-110470540D01*
X137194038Y-110470537D01*
X137135747Y-110431588D01*
X137135740Y-110431584D01*
X137130699Y-110428216D01*
X137046547Y-110371987D01*
X136953623Y-110333497D01*
X136947983Y-110331161D01*
X136947978Y-110331158D01*
X136882666Y-110304105D01*
X136882658Y-110304103D01*
X136708696Y-110269500D01*
X136708692Y-110269500D01*
X136708691Y-110269500D01*
X135208486Y-110269500D01*
X135141447Y-110249815D01*
X135120804Y-110233180D01*
X135084391Y-110196767D01*
X135084391Y-110196766D01*
X135055659Y-110179397D01*
X134946602Y-110113469D01*
X134792887Y-110065570D01*
X134792885Y-110065569D01*
X134792883Y-110065569D01*
X134746117Y-110061319D01*
X134726091Y-110059500D01*
X134726088Y-110059500D01*
X134293901Y-110059500D01*
X134227117Y-110065568D01*
X134227106Y-110065571D01*
X134073401Y-110113467D01*
X133935608Y-110196766D01*
X133935607Y-110196767D01*
X133902181Y-110230194D01*
X133840858Y-110263679D01*
X133771166Y-110258695D01*
X133715233Y-110216823D01*
X133690816Y-110151359D01*
X133690500Y-110142513D01*
X133690500Y-109884275D01*
X133710185Y-109817236D01*
X133762989Y-109771481D01*
X133832147Y-109761537D01*
X133846572Y-109764495D01*
G37*
%TD.AperFunction*%
%TA.AperFunction,NonConductor*%
G36*
X136002539Y-112090185D02*
G01*
X136048294Y-112142989D01*
X136059500Y-112194500D01*
X136059500Y-112615709D01*
X136039815Y-112682748D01*
X135987011Y-112728503D01*
X135917853Y-112738447D01*
X135898610Y-112734095D01*
X135896602Y-112733469D01*
X135742887Y-112685570D01*
X135742884Y-112685569D01*
X135694298Y-112681154D01*
X135676091Y-112679500D01*
X135676088Y-112679500D01*
X135449609Y-112679500D01*
X135382570Y-112659815D01*
X135336815Y-112607011D01*
X135326871Y-112537853D01*
X135328725Y-112529507D01*
X135328549Y-112529472D01*
X135354354Y-112399738D01*
X135360500Y-112368842D01*
X135360500Y-112211158D01*
X135360500Y-112211156D01*
X135360056Y-112206646D01*
X135373079Y-112138001D01*
X135421147Y-112087294D01*
X135483460Y-112070500D01*
X135935500Y-112070500D01*
X136002539Y-112090185D01*
G37*
%TD.AperFunction*%
%TA.AperFunction,NonConductor*%
G36*
X144169381Y-114391638D02*
G01*
X144176670Y-114389969D01*
X144202941Y-114399441D01*
X144230150Y-114405768D01*
X144235362Y-114411131D01*
X144242398Y-114413668D01*
X144259379Y-114435842D01*
X144278846Y-114455872D01*
X144280879Y-114463917D01*
X144284879Y-114469140D01*
X144286178Y-114484882D01*
X144293172Y-114512555D01*
X144296337Y-114843144D01*
X144277295Y-114910369D01*
X144224932Y-114956627D01*
X144155872Y-114967232D01*
X144092041Y-114938817D01*
X144057782Y-114891783D01*
X143999397Y-114750827D01*
X143999390Y-114750814D01*
X143935793Y-114655635D01*
X143931641Y-114642376D01*
X143923194Y-114631346D01*
X143921407Y-114609691D01*
X143914915Y-114588958D01*
X143918590Y-114575559D01*
X143917448Y-114561713D01*
X143927650Y-114542531D01*
X143933399Y-114521577D01*
X143944408Y-114511027D01*
X143950259Y-114500028D01*
X143974408Y-114482280D01*
X143978281Y-114478569D01*
X143980408Y-114477376D01*
X144073685Y-114429850D01*
X144102198Y-114409133D01*
X144108564Y-114405567D01*
X144135785Y-114399332D01*
X144162096Y-114389944D01*
X144169381Y-114391638D01*
G37*
%TD.AperFunction*%
%TA.AperFunction,NonConductor*%
G36*
X140816230Y-113988917D02*
G01*
X140820769Y-113988954D01*
X140852754Y-114003874D01*
X140853205Y-114004169D01*
X140950821Y-114069394D01*
X140956546Y-114071765D01*
X140966252Y-114078114D01*
X141011580Y-114131285D01*
X141020966Y-114200522D01*
X141012935Y-114229338D01*
X140960264Y-114356498D01*
X140960261Y-114356510D01*
X140929500Y-114511153D01*
X140929500Y-114668846D01*
X140948912Y-114766438D01*
X140942685Y-114836030D01*
X140899821Y-114891207D01*
X140833932Y-114914451D01*
X140813411Y-114913849D01*
X140774813Y-114909500D01*
X140774809Y-114909500D01*
X140505191Y-114909500D01*
X140505186Y-114909500D01*
X140237280Y-114939686D01*
X140237268Y-114939688D01*
X139974405Y-114999684D01*
X139974397Y-114999687D01*
X139719917Y-115088734D01*
X139477005Y-115205714D01*
X139442270Y-115227539D01*
X139375033Y-115246537D01*
X139308198Y-115226167D01*
X139262986Y-115172898D01*
X139253750Y-115103642D01*
X139254677Y-115098384D01*
X139269914Y-115021787D01*
X139270500Y-115018843D01*
X139270500Y-114861155D01*
X139270499Y-114861153D01*
X139245146Y-114733691D01*
X139251373Y-114664100D01*
X139294236Y-114608922D01*
X139360126Y-114585678D01*
X139366763Y-114585500D01*
X139756448Y-114585500D01*
X139756449Y-114585500D01*
X139946972Y-114555324D01*
X140130429Y-114495715D01*
X140302302Y-114408141D01*
X140458359Y-114294759D01*
X140594759Y-114158359D01*
X140684558Y-114034760D01*
X140689293Y-114031109D01*
X140691821Y-114025691D01*
X140716642Y-114010019D01*
X140739888Y-113992095D01*
X140745844Y-113991583D01*
X140750901Y-113988391D01*
X140780259Y-113988627D01*
X140809501Y-113986116D01*
X140816230Y-113988917D01*
G37*
%TD.AperFunction*%
%TA.AperFunction,NonConductor*%
G36*
X142390322Y-115137166D02*
G01*
X142415615Y-115138975D01*
X142423751Y-115145065D01*
X142433643Y-115147403D01*
X142451251Y-115165651D01*
X142471549Y-115180846D01*
X142476392Y-115191706D01*
X142482158Y-115197682D01*
X142493900Y-115230965D01*
X142520261Y-115363491D01*
X142520264Y-115363501D01*
X142580602Y-115509172D01*
X142583479Y-115514554D01*
X142581774Y-115515465D01*
X142599977Y-115573610D01*
X142581488Y-115640989D01*
X142529507Y-115687676D01*
X142460536Y-115698848D01*
X142396474Y-115670959D01*
X142388316Y-115663497D01*
X142242078Y-115517259D01*
X142165495Y-115456187D01*
X142125354Y-115398999D01*
X142122504Y-115329188D01*
X142157849Y-115268917D01*
X142173917Y-115256138D01*
X142218771Y-115226167D01*
X142240289Y-115211789D01*
X142284601Y-115167477D01*
X142293521Y-115162606D01*
X142299756Y-115154580D01*
X142323667Y-115146144D01*
X142345924Y-115133991D01*
X142356062Y-115134716D01*
X142365646Y-115131335D01*
X142390322Y-115137166D01*
G37*
%TD.AperFunction*%
%TA.AperFunction,NonConductor*%
G36*
X138294426Y-115721259D02*
G01*
X138391155Y-115740500D01*
X138391158Y-115740500D01*
X138548844Y-115740500D01*
X138554907Y-115739903D01*
X138555177Y-115742650D01*
X138612916Y-115747778D01*
X138668123Y-115790603D01*
X138691413Y-115856477D01*
X138675391Y-115924485D01*
X138672589Y-115929171D01*
X138535714Y-116147005D01*
X138418735Y-116389915D01*
X138411541Y-116410475D01*
X138370818Y-116467251D01*
X138305865Y-116492997D01*
X138237304Y-116479540D01*
X138186902Y-116431152D01*
X138170500Y-116369519D01*
X138170500Y-116005837D01*
X138147761Y-115862274D01*
X138156715Y-115792981D01*
X138201711Y-115739529D01*
X138268463Y-115718889D01*
X138294426Y-115721259D01*
G37*
%TD.AperFunction*%
%TA.AperFunction,NonConductor*%
G36*
X123772161Y-116797144D02*
G01*
X123777352Y-116797011D01*
X123803078Y-116812620D01*
X123829996Y-116826095D01*
X123832646Y-116830561D01*
X123837085Y-116833255D01*
X123850289Y-116860297D01*
X123865648Y-116886184D01*
X123866589Y-116893682D01*
X123867741Y-116896040D01*
X123867327Y-116899556D01*
X123869500Y-116916850D01*
X123869500Y-117267097D01*
X123849815Y-117334136D01*
X123797011Y-117379891D01*
X123727853Y-117389835D01*
X123664297Y-117360810D01*
X123630940Y-117314552D01*
X123629396Y-117310826D01*
X123629390Y-117310814D01*
X123541789Y-117179711D01*
X123541786Y-117179707D01*
X123437522Y-117075443D01*
X123436119Y-117072874D01*
X123433618Y-117071357D01*
X123419479Y-117042401D01*
X123404037Y-117014120D01*
X123404245Y-117011201D01*
X123402962Y-117008572D01*
X123406722Y-116976571D01*
X123409021Y-116944428D01*
X123410774Y-116942085D01*
X123411116Y-116939180D01*
X123431582Y-116914290D01*
X123450893Y-116888495D01*
X123454198Y-116886786D01*
X123455493Y-116885212D01*
X123464737Y-116881339D01*
X123487208Y-116869726D01*
X123494004Y-116867538D01*
X123583497Y-116849737D01*
X123702712Y-116800356D01*
X123707505Y-116798814D01*
X123737592Y-116798037D01*
X123767517Y-116794820D01*
X123772161Y-116797144D01*
G37*
%TD.AperFunction*%
%TA.AperFunction,NonConductor*%
G36*
X144230175Y-115289515D02*
G01*
X144282577Y-115335730D01*
X144301674Y-115400668D01*
X144312561Y-116537830D01*
X144311909Y-116551772D01*
X144277278Y-116886655D01*
X144275347Y-116899108D01*
X144205039Y-117237734D01*
X144201853Y-117249926D01*
X144097545Y-117579652D01*
X144093139Y-117591459D01*
X143955896Y-117908910D01*
X143950314Y-117920207D01*
X143781570Y-118222076D01*
X143774870Y-118232750D01*
X143576350Y-118515943D01*
X143568602Y-118525880D01*
X143342370Y-118787458D01*
X143333652Y-118796559D01*
X143082038Y-119033823D01*
X143072443Y-119041991D01*
X142798047Y-119252495D01*
X142787671Y-119259647D01*
X142493327Y-119441214D01*
X142482280Y-119447277D01*
X142171028Y-119598031D01*
X142159422Y-119602941D01*
X141834468Y-119721329D01*
X141822424Y-119725035D01*
X141581820Y-119785884D01*
X141512000Y-119783237D01*
X141454695Y-119743263D01*
X141428099Y-119678654D01*
X141440655Y-119609922D01*
X141488377Y-119558889D01*
X141510451Y-119548632D01*
X141560079Y-119531267D01*
X141802997Y-119414284D01*
X142031289Y-119270838D01*
X142242085Y-119102734D01*
X142432734Y-118912085D01*
X142600838Y-118701289D01*
X142744284Y-118472997D01*
X142861267Y-118230079D01*
X142950316Y-117975591D01*
X143010312Y-117712732D01*
X143040500Y-117444809D01*
X143040500Y-117175191D01*
X143010312Y-116907268D01*
X142950316Y-116644409D01*
X142861267Y-116389921D01*
X142749682Y-116158213D01*
X142744285Y-116147005D01*
X142727002Y-116119500D01*
X142600838Y-115918711D01*
X142600837Y-115918709D01*
X142599321Y-115916297D01*
X142580321Y-115849060D01*
X142600689Y-115782225D01*
X142653956Y-115737011D01*
X142723213Y-115727773D01*
X142773438Y-115750212D01*
X142774646Y-115748405D01*
X142910814Y-115839390D01*
X142910827Y-115839397D01*
X143041443Y-115893499D01*
X143056503Y-115899737D01*
X143180919Y-115924485D01*
X143211153Y-115930499D01*
X143211156Y-115930500D01*
X143211158Y-115930500D01*
X143368844Y-115930500D01*
X143368845Y-115930499D01*
X143523497Y-115899737D01*
X143669179Y-115839394D01*
X143800289Y-115751789D01*
X143911789Y-115640289D01*
X143999394Y-115509179D01*
X143999667Y-115508519D01*
X144062068Y-115357870D01*
X144063793Y-115358584D01*
X144097299Y-115307436D01*
X144161106Y-115278968D01*
X144230175Y-115289515D01*
G37*
%TD.AperFunction*%
%TA.AperFunction,NonConductor*%
G36*
X138301852Y-118003858D02*
G01*
X138353327Y-118051102D01*
X138364181Y-118074180D01*
X138418734Y-118230082D01*
X138535714Y-118472994D01*
X138561159Y-118513489D01*
X138679162Y-118701289D01*
X138765645Y-118809735D01*
X138828993Y-118889172D01*
X138847266Y-118912085D01*
X139037915Y-119102734D01*
X139248711Y-119270838D01*
X139477003Y-119414284D01*
X139719921Y-119531267D01*
X139910722Y-119598031D01*
X139974397Y-119620312D01*
X139974409Y-119620316D01*
X140046068Y-119636671D01*
X140107045Y-119670779D01*
X140139904Y-119732440D01*
X140134209Y-119802077D01*
X140091770Y-119857581D01*
X140026060Y-119881330D01*
X140018819Y-119881562D01*
X136633582Y-119890959D01*
X136566488Y-119871460D01*
X136520587Y-119818783D01*
X136510452Y-119749653D01*
X136527471Y-119705062D01*
X136526521Y-119704554D01*
X136529390Y-119699184D01*
X136529394Y-119699179D01*
X136589737Y-119553497D01*
X136620500Y-119398842D01*
X136620500Y-119294500D01*
X136640185Y-119227461D01*
X136692989Y-119181706D01*
X136744500Y-119170500D01*
X136834162Y-119170500D01*
X137059660Y-119134784D01*
X137102581Y-119120838D01*
X137276799Y-119064231D01*
X137480228Y-118960579D01*
X137664937Y-118826379D01*
X137826379Y-118664937D01*
X137960579Y-118480228D01*
X138064231Y-118276799D01*
X138129209Y-118076816D01*
X138168647Y-118019141D01*
X138233005Y-117991943D01*
X138301852Y-118003858D01*
G37*
%TD.AperFunction*%
%TA.AperFunction,NonConductor*%
G36*
X99573472Y-95673982D02*
G01*
X99619433Y-95726606D01*
X99629647Y-95795725D01*
X99600871Y-95859394D01*
X99594522Y-95866240D01*
X98171286Y-97289478D01*
X98059481Y-97401282D01*
X98059479Y-97401284D01*
X98037000Y-97440221D01*
X98018200Y-97472784D01*
X97999311Y-97505499D01*
X97980423Y-97538214D01*
X97980423Y-97538215D01*
X97939499Y-97690943D01*
X97939499Y-97690945D01*
X97939499Y-97859046D01*
X97939500Y-97859059D01*
X97939500Y-99969524D01*
X97919815Y-100036563D01*
X97867011Y-100082318D01*
X97797853Y-100092262D01*
X97734297Y-100063237D01*
X97700939Y-100016977D01*
X97669395Y-99940823D01*
X97669390Y-99940814D01*
X97581789Y-99809711D01*
X97581786Y-99809707D01*
X97470292Y-99698213D01*
X97470288Y-99698210D01*
X97339185Y-99610609D01*
X97339172Y-99610602D01*
X97193501Y-99550264D01*
X97193489Y-99550261D01*
X97038845Y-99519500D01*
X97038842Y-99519500D01*
X96881158Y-99519500D01*
X96881155Y-99519500D01*
X96726510Y-99550261D01*
X96726498Y-99550264D01*
X96580827Y-99610602D01*
X96580814Y-99610609D01*
X96449711Y-99698210D01*
X96449707Y-99698213D01*
X96338213Y-99809707D01*
X96338210Y-99809711D01*
X96250609Y-99940814D01*
X96250602Y-99940827D01*
X96190264Y-100086498D01*
X96190261Y-100086510D01*
X96159500Y-100241153D01*
X96159500Y-100398846D01*
X96190261Y-100553489D01*
X96190264Y-100553501D01*
X96250602Y-100699172D01*
X96250609Y-100699184D01*
X96284687Y-100750185D01*
X96322322Y-100806510D01*
X96327789Y-100814691D01*
X96348667Y-100881368D01*
X96330183Y-100948748D01*
X96325489Y-100955797D01*
X96319562Y-100964069D01*
X96317288Y-100966344D01*
X96313293Y-100972820D01*
X96310802Y-100976298D01*
X96286507Y-100995291D01*
X96263589Y-101015905D01*
X96259235Y-101016613D01*
X96255758Y-101019332D01*
X96225047Y-101022176D01*
X96194626Y-101027126D01*
X96190580Y-101025368D01*
X96186186Y-101025775D01*
X96158821Y-101011568D01*
X96130544Y-100999282D01*
X96126774Y-100994931D01*
X96124175Y-100993582D01*
X96121374Y-100988699D01*
X96104463Y-100969182D01*
X96102714Y-100966346D01*
X95978657Y-100842289D01*
X95978656Y-100842288D01*
X95829334Y-100750186D01*
X95662797Y-100695001D01*
X95662795Y-100695000D01*
X95560016Y-100684500D01*
X95560009Y-100684500D01*
X95347583Y-100684500D01*
X95329439Y-100679172D01*
X95310530Y-100678835D01*
X95282312Y-100665334D01*
X95280544Y-100664815D01*
X95278692Y-100663602D01*
X95277894Y-100663069D01*
X95199219Y-100610500D01*
X95156547Y-100581987D01*
X95156545Y-100581986D01*
X95156542Y-100581984D01*
X95074118Y-100547844D01*
X94992666Y-100514105D01*
X94992658Y-100514103D01*
X94818696Y-100479500D01*
X94818692Y-100479500D01*
X94818691Y-100479500D01*
X93903141Y-100479500D01*
X93836102Y-100459815D01*
X93830255Y-100455818D01*
X93827279Y-100453656D01*
X93824553Y-100451675D01*
X93806792Y-100438770D01*
X93806789Y-100438769D01*
X93806790Y-100438769D01*
X93806788Y-100438768D01*
X93652445Y-100360127D01*
X93487701Y-100306598D01*
X93487699Y-100306597D01*
X93487698Y-100306597D01*
X93356271Y-100285781D01*
X93316611Y-100279500D01*
X93143389Y-100279500D01*
X93103728Y-100285781D01*
X92972302Y-100306597D01*
X92972299Y-100306598D01*
X92823427Y-100354970D01*
X92807552Y-100360128D01*
X92653211Y-100438768D01*
X92624243Y-100459815D01*
X92513072Y-100540586D01*
X92513070Y-100540588D01*
X92513069Y-100540588D01*
X92390588Y-100663069D01*
X92390588Y-100663070D01*
X92390586Y-100663072D01*
X92378889Y-100679172D01*
X92288768Y-100803211D01*
X92210128Y-100957552D01*
X92156597Y-101122302D01*
X92129500Y-101293389D01*
X92129500Y-101466611D01*
X92156598Y-101637701D01*
X92210127Y-101802445D01*
X92288768Y-101956788D01*
X92390586Y-102096928D01*
X92513072Y-102219414D01*
X92653212Y-102321232D01*
X92807555Y-102399873D01*
X92972299Y-102453402D01*
X93143389Y-102480500D01*
X93143390Y-102480500D01*
X93316610Y-102480500D01*
X93316611Y-102480500D01*
X93487701Y-102453402D01*
X93652445Y-102399873D01*
X93806788Y-102321232D01*
X93830255Y-102304181D01*
X93850301Y-102297029D01*
X93868206Y-102285523D01*
X93892230Y-102282068D01*
X93896061Y-102280702D01*
X93903141Y-102280500D01*
X94135501Y-102280500D01*
X94202540Y-102300185D01*
X94248295Y-102352989D01*
X94259501Y-102404500D01*
X94259501Y-102435018D01*
X94270000Y-102537796D01*
X94270001Y-102537799D01*
X94281612Y-102572838D01*
X94325186Y-102704334D01*
X94341039Y-102730036D01*
X94359500Y-102795132D01*
X94359500Y-103097479D01*
X94347884Y-103149879D01*
X94345188Y-103155660D01*
X94345186Y-103155665D01*
X94345186Y-103155666D01*
X94290001Y-103322203D01*
X94290001Y-103322204D01*
X94290000Y-103322204D01*
X94279500Y-103424983D01*
X94279500Y-104475001D01*
X94279501Y-104475019D01*
X94290000Y-104577796D01*
X94290001Y-104577799D01*
X94334134Y-104710982D01*
X94345186Y-104744334D01*
X94361039Y-104770036D01*
X94379500Y-104835132D01*
X94379500Y-105141081D01*
X94361040Y-105206174D01*
X94355186Y-105215666D01*
X94300001Y-105382203D01*
X94300001Y-105382204D01*
X94300000Y-105382204D01*
X94289500Y-105484983D01*
X94289500Y-105484996D01*
X94289501Y-106534999D01*
X94289501Y-106535019D01*
X94300000Y-106637796D01*
X94300001Y-106637799D01*
X94350050Y-106788834D01*
X94355186Y-106804334D01*
X94371039Y-106830036D01*
X94389500Y-106895132D01*
X94389500Y-107214867D01*
X94371040Y-107279961D01*
X94355187Y-107305663D01*
X94355186Y-107305665D01*
X94341719Y-107346307D01*
X94300001Y-107472203D01*
X94300001Y-107472204D01*
X94300000Y-107472204D01*
X94289500Y-107574983D01*
X94289500Y-108625001D01*
X94289501Y-108625019D01*
X94300000Y-108727796D01*
X94300001Y-108727799D01*
X94355185Y-108894331D01*
X94355187Y-108894336D01*
X94390069Y-108950888D01*
X94447288Y-109043656D01*
X94571344Y-109167712D01*
X94630596Y-109204258D01*
X94677321Y-109256204D01*
X94689500Y-109309797D01*
X94689500Y-109763330D01*
X94689499Y-109763348D01*
X94689499Y-109929054D01*
X94689498Y-109929054D01*
X94703227Y-109980289D01*
X94730163Y-110080816D01*
X94732527Y-110089636D01*
X94731832Y-110089821D01*
X94739500Y-110128364D01*
X94739500Y-110178846D01*
X94770261Y-110333489D01*
X94770263Y-110333497D01*
X94830602Y-110479172D01*
X94830609Y-110479185D01*
X94918210Y-110610288D01*
X94918213Y-110610292D01*
X95029707Y-110721786D01*
X95029711Y-110721789D01*
X95160814Y-110809390D01*
X95160827Y-110809397D01*
X95283633Y-110860264D01*
X95306503Y-110869737D01*
X95461153Y-110900499D01*
X95461156Y-110900500D01*
X95461158Y-110900500D01*
X95618844Y-110900500D01*
X95618845Y-110900499D01*
X95773497Y-110869737D01*
X95919179Y-110809394D01*
X96050289Y-110721789D01*
X96161789Y-110610289D01*
X96249394Y-110479179D01*
X96266385Y-110438160D01*
X96309737Y-110333497D01*
X96340500Y-110178842D01*
X96340500Y-110021158D01*
X96340500Y-110021155D01*
X96340499Y-110021153D01*
X96337851Y-110007842D01*
X96309737Y-109866503D01*
X96302967Y-109850158D01*
X96249397Y-109720827D01*
X96249390Y-109720814D01*
X96161789Y-109589711D01*
X96161786Y-109589707D01*
X96050292Y-109478213D01*
X96050284Y-109478207D01*
X95949215Y-109410675D01*
X95904409Y-109357063D01*
X95895702Y-109287738D01*
X95925856Y-109224711D01*
X95953008Y-109202035D01*
X96008656Y-109167712D01*
X96132712Y-109043656D01*
X96134461Y-109040819D01*
X96136169Y-109039283D01*
X96137193Y-109037989D01*
X96137414Y-109038163D01*
X96186406Y-108994096D01*
X96255368Y-108982872D01*
X96319451Y-109010713D01*
X96345537Y-109040817D01*
X96347288Y-109043656D01*
X96471344Y-109167712D01*
X96620666Y-109259814D01*
X96787203Y-109314999D01*
X96889991Y-109325500D01*
X97490008Y-109325499D01*
X97490016Y-109325498D01*
X97490019Y-109325498D01*
X97546302Y-109319748D01*
X97592797Y-109314999D01*
X97759334Y-109259814D01*
X97759340Y-109259809D01*
X97763097Y-109258059D01*
X97765924Y-109257629D01*
X97766189Y-109257542D01*
X97766203Y-109257587D01*
X97832175Y-109247568D01*
X97895958Y-109276089D01*
X97934197Y-109334567D01*
X97939500Y-109370442D01*
X97939500Y-110510030D01*
X97919815Y-110577069D01*
X97918602Y-110578921D01*
X97890609Y-110620814D01*
X97890602Y-110620827D01*
X97830264Y-110766498D01*
X97830261Y-110766510D01*
X97799500Y-110921153D01*
X97799500Y-111078846D01*
X97830261Y-111233489D01*
X97830264Y-111233501D01*
X97890602Y-111379172D01*
X97890609Y-111379185D01*
X97978210Y-111510288D01*
X97978213Y-111510292D01*
X98089707Y-111621786D01*
X98089711Y-111621789D01*
X98220814Y-111709390D01*
X98220827Y-111709397D01*
X98341919Y-111759554D01*
X98366503Y-111769737D01*
X98521153Y-111800499D01*
X98521156Y-111800500D01*
X98521158Y-111800500D01*
X98678844Y-111800500D01*
X98678845Y-111800499D01*
X98833497Y-111769737D01*
X98979179Y-111709394D01*
X99110289Y-111621789D01*
X99221789Y-111510289D01*
X99309394Y-111379179D01*
X99369737Y-111233497D01*
X99400500Y-111078842D01*
X99400500Y-110921158D01*
X99400500Y-110921155D01*
X99400499Y-110921153D01*
X99391020Y-110873501D01*
X99369737Y-110766503D01*
X99349996Y-110718844D01*
X99309397Y-110620827D01*
X99309390Y-110620814D01*
X99221789Y-110489711D01*
X99221786Y-110489707D01*
X99176819Y-110444740D01*
X99143334Y-110383417D01*
X99140500Y-110357059D01*
X99140500Y-98070097D01*
X99160185Y-98003058D01*
X99176819Y-97982416D01*
X99757953Y-97401282D01*
X100373645Y-96785589D01*
X100395287Y-96768320D01*
X100407253Y-96760791D01*
X100411785Y-96759577D01*
X100548716Y-96680519D01*
X100572269Y-96656965D01*
X100584062Y-96649546D01*
X100604811Y-96643669D01*
X100623739Y-96633334D01*
X100650097Y-96630500D01*
X101170903Y-96630500D01*
X101237942Y-96650185D01*
X101283697Y-96702989D01*
X101293641Y-96772147D01*
X101264616Y-96835703D01*
X101258584Y-96842181D01*
X100536356Y-97564407D01*
X100504766Y-97585517D01*
X100505253Y-97586360D01*
X100498216Y-97590422D01*
X100498215Y-97590423D01*
X100381254Y-97657951D01*
X100361284Y-97669481D01*
X100361281Y-97669483D01*
X100249483Y-97781281D01*
X100249481Y-97781284D01*
X100170423Y-97918214D01*
X100170423Y-97918215D01*
X100129499Y-98070943D01*
X100129499Y-98229057D01*
X100142359Y-98277049D01*
X100145275Y-98287932D01*
X100149500Y-98320026D01*
X100149500Y-110340234D01*
X100129815Y-110407273D01*
X100128602Y-110409125D01*
X100040609Y-110540814D01*
X100040602Y-110540827D01*
X99980264Y-110686498D01*
X99980261Y-110686510D01*
X99949500Y-110841153D01*
X99949500Y-110998846D01*
X99980261Y-111153489D01*
X99980264Y-111153501D01*
X100040602Y-111299172D01*
X100040609Y-111299185D01*
X100128210Y-111430288D01*
X100128213Y-111430292D01*
X100239707Y-111541786D01*
X100239711Y-111541789D01*
X100370814Y-111629390D01*
X100370827Y-111629397D01*
X100502428Y-111683907D01*
X100516503Y-111689737D01*
X100651969Y-111716683D01*
X100671153Y-111720499D01*
X100671156Y-111720500D01*
X100671158Y-111720500D01*
X100828844Y-111720500D01*
X100828845Y-111720499D01*
X100983497Y-111689737D01*
X101129179Y-111629394D01*
X101260289Y-111541789D01*
X101371789Y-111430289D01*
X101459394Y-111299179D01*
X101460083Y-111297517D01*
X101481570Y-111245642D01*
X101519737Y-111153497D01*
X101550500Y-110998842D01*
X101550500Y-110841158D01*
X101550500Y-110841155D01*
X101550499Y-110841153D01*
X101539537Y-110786046D01*
X101519737Y-110686503D01*
X101518548Y-110683632D01*
X101459397Y-110540827D01*
X101459390Y-110540814D01*
X101371398Y-110409125D01*
X101350520Y-110342447D01*
X101350500Y-110340234D01*
X101350500Y-109748047D01*
X101370185Y-109681008D01*
X101422989Y-109635253D01*
X101492147Y-109625309D01*
X101555703Y-109654334D01*
X101589061Y-109700595D01*
X101650602Y-109849172D01*
X101650609Y-109849185D01*
X101738210Y-109980288D01*
X101738213Y-109980292D01*
X101849707Y-110091786D01*
X101849711Y-110091789D01*
X101980814Y-110179390D01*
X101980827Y-110179397D01*
X102101677Y-110229454D01*
X102126503Y-110239737D01*
X102246867Y-110263679D01*
X102281153Y-110270499D01*
X102281156Y-110270500D01*
X102281158Y-110270500D01*
X102438844Y-110270500D01*
X102571308Y-110244151D01*
X102640900Y-110250378D01*
X102696077Y-110293241D01*
X102719322Y-110359131D01*
X102719500Y-110365768D01*
X102719500Y-110488846D01*
X102750261Y-110643489D01*
X102750264Y-110643501D01*
X102810602Y-110789172D01*
X102810609Y-110789185D01*
X102898210Y-110920288D01*
X102898213Y-110920292D01*
X103009707Y-111031786D01*
X103009711Y-111031789D01*
X103140814Y-111119390D01*
X103140827Y-111119397D01*
X103272447Y-111173915D01*
X103286503Y-111179737D01*
X103439967Y-111210263D01*
X103441153Y-111210499D01*
X103441156Y-111210500D01*
X103441158Y-111210500D01*
X103598844Y-111210500D01*
X103598845Y-111210499D01*
X103753497Y-111179737D01*
X103898414Y-111119711D01*
X103899172Y-111119397D01*
X103899172Y-111119396D01*
X103899179Y-111119394D01*
X104030289Y-111031789D01*
X104141789Y-110920289D01*
X104229394Y-110789179D01*
X104229397Y-110789172D01*
X104231069Y-110786046D01*
X104232377Y-110784714D01*
X104232779Y-110784113D01*
X104232892Y-110784189D01*
X104280031Y-110736202D01*
X104340427Y-110720499D01*
X104596097Y-110720499D01*
X104662880Y-110714431D01*
X104662882Y-110714430D01*
X104662887Y-110714430D01*
X104752841Y-110686398D01*
X104822701Y-110685247D01*
X104837181Y-110690222D01*
X104938165Y-110732051D01*
X104938169Y-110732051D01*
X104938170Y-110732052D01*
X105131456Y-110770500D01*
X105131459Y-110770500D01*
X105328543Y-110770500D01*
X105458582Y-110744632D01*
X105521835Y-110732051D01*
X105703914Y-110656632D01*
X105703924Y-110656625D01*
X105707016Y-110654973D01*
X105708835Y-110654593D01*
X105709543Y-110654301D01*
X105709598Y-110654435D01*
X105775418Y-110640724D01*
X105829629Y-110658207D01*
X105843398Y-110666531D01*
X105997113Y-110714430D01*
X106063909Y-110720500D01*
X106496090Y-110720499D01*
X106496098Y-110720499D01*
X106562882Y-110714431D01*
X106562885Y-110714430D01*
X106562887Y-110714430D01*
X106716602Y-110666531D01*
X106854388Y-110583236D01*
X106968236Y-110469388D01*
X107051531Y-110331602D01*
X107083362Y-110229450D01*
X107122097Y-110171306D01*
X107186122Y-110143331D01*
X107255108Y-110154412D01*
X107289427Y-110178662D01*
X108097908Y-110987143D01*
X108106179Y-111001782D01*
X108117291Y-111012268D01*
X108127887Y-111040203D01*
X108130579Y-111044966D01*
X108131280Y-111047795D01*
X108160263Y-111193497D01*
X108178129Y-111236630D01*
X108180365Y-111245642D01*
X108179261Y-111271644D01*
X108182043Y-111297517D01*
X108177803Y-111305985D01*
X108177402Y-111315449D01*
X108162414Y-111336728D01*
X108150767Y-111359996D01*
X108142623Y-111364827D01*
X108137169Y-111372572D01*
X108113056Y-111382370D01*
X108090678Y-111395648D01*
X108075776Y-111397519D01*
X108072439Y-111398876D01*
X108069445Y-111398315D01*
X108060013Y-111399500D01*
X106872782Y-111399500D01*
X106825329Y-111390061D01*
X106762666Y-111364105D01*
X106762658Y-111364103D01*
X106588696Y-111329500D01*
X106588692Y-111329500D01*
X106588691Y-111329500D01*
X106028486Y-111329500D01*
X105961447Y-111309815D01*
X105940804Y-111293180D01*
X105904391Y-111256767D01*
X105904391Y-111256766D01*
X105894545Y-111250814D01*
X105766602Y-111173469D01*
X105612887Y-111125570D01*
X105612885Y-111125569D01*
X105612883Y-111125569D01*
X105566117Y-111121319D01*
X105546091Y-111119500D01*
X105546088Y-111119500D01*
X105113901Y-111119500D01*
X105047117Y-111125568D01*
X105047106Y-111125571D01*
X104893401Y-111173467D01*
X104755608Y-111256766D01*
X104641766Y-111370608D01*
X104558469Y-111508397D01*
X104510569Y-111662116D01*
X104504500Y-111728911D01*
X104504500Y-111845148D01*
X104495062Y-111892596D01*
X104487778Y-111910184D01*
X104464105Y-111967337D01*
X104464103Y-111967341D01*
X104429500Y-112141304D01*
X104429500Y-112318693D01*
X104464103Y-112492658D01*
X104464105Y-112492662D01*
X104464106Y-112492666D01*
X104491789Y-112559500D01*
X104495062Y-112567401D01*
X104504500Y-112614851D01*
X104504500Y-112731098D01*
X104510568Y-112797882D01*
X104510571Y-112797893D01*
X104558467Y-112951598D01*
X104558468Y-112951600D01*
X104558469Y-112951602D01*
X104634359Y-113077139D01*
X104641766Y-113089391D01*
X104755608Y-113203233D01*
X104755610Y-113203234D01*
X104755612Y-113203236D01*
X104893398Y-113286531D01*
X105047113Y-113334430D01*
X105113909Y-113340500D01*
X105546090Y-113340499D01*
X105546098Y-113340499D01*
X105612882Y-113334431D01*
X105612885Y-113334430D01*
X105612887Y-113334430D01*
X105766602Y-113286531D01*
X105904388Y-113203236D01*
X105940804Y-113166820D01*
X105967734Y-113152114D01*
X105993551Y-113135523D01*
X105999749Y-113134631D01*
X106002126Y-113133334D01*
X106028486Y-113130500D01*
X106197219Y-113130500D01*
X106244672Y-113139939D01*
X106307334Y-113165895D01*
X106481303Y-113200499D01*
X106481307Y-113200500D01*
X106481308Y-113200500D01*
X106481309Y-113200500D01*
X108524902Y-113200500D01*
X108572354Y-113209939D01*
X108636725Y-113236602D01*
X108698165Y-113262051D01*
X108698169Y-113262051D01*
X108698170Y-113262052D01*
X108891456Y-113300500D01*
X108891459Y-113300500D01*
X109088543Y-113300500D01*
X109218582Y-113274632D01*
X109281835Y-113262051D01*
X109463914Y-113186632D01*
X109627782Y-113077139D01*
X109767139Y-112937782D01*
X109876632Y-112773914D01*
X109952051Y-112591835D01*
X109984185Y-112430289D01*
X109990500Y-112398543D01*
X109990500Y-112201456D01*
X109985397Y-112175803D01*
X109991624Y-112106211D01*
X110034487Y-112051034D01*
X110100376Y-112027789D01*
X110168373Y-112043856D01*
X110194695Y-112063930D01*
X110743833Y-112613068D01*
X110777318Y-112674391D01*
X110772334Y-112744083D01*
X110730462Y-112800016D01*
X110703607Y-112815309D01*
X110690826Y-112820603D01*
X110690814Y-112820609D01*
X110559711Y-112908210D01*
X110559707Y-112908213D01*
X110448213Y-113019707D01*
X110448210Y-113019711D01*
X110360609Y-113150814D01*
X110360602Y-113150827D01*
X110300264Y-113296498D01*
X110300261Y-113296510D01*
X110269500Y-113451153D01*
X110269500Y-113608846D01*
X110300260Y-113763488D01*
X110300263Y-113763497D01*
X110319567Y-113810103D01*
X110327034Y-113879572D01*
X110295758Y-113942051D01*
X110292687Y-113945234D01*
X110208210Y-114029711D01*
X110120609Y-114160814D01*
X110120602Y-114160827D01*
X110060264Y-114306498D01*
X110060261Y-114306510D01*
X110029500Y-114461153D01*
X110029500Y-114618846D01*
X110060261Y-114773489D01*
X110060264Y-114773501D01*
X110120602Y-114919172D01*
X110120609Y-114919185D01*
X110208210Y-115050288D01*
X110208213Y-115050292D01*
X110319707Y-115161786D01*
X110319711Y-115161789D01*
X110450814Y-115249390D01*
X110450827Y-115249397D01*
X110596498Y-115309735D01*
X110596503Y-115309737D01*
X110747976Y-115339867D01*
X110751153Y-115340499D01*
X110751156Y-115340500D01*
X110751158Y-115340500D01*
X110908844Y-115340500D01*
X110908845Y-115340499D01*
X111063497Y-115309737D01*
X111063509Y-115309731D01*
X111069324Y-115307969D01*
X111069898Y-115309861D01*
X111130312Y-115303363D01*
X111192793Y-115334634D01*
X111228449Y-115394720D01*
X111229920Y-115401202D01*
X111247947Y-115491829D01*
X111247950Y-115491839D01*
X111323364Y-115673907D01*
X111323371Y-115673920D01*
X111432860Y-115837781D01*
X111432863Y-115837785D01*
X111572214Y-115977136D01*
X111572218Y-115977139D01*
X111736079Y-116086628D01*
X111736092Y-116086635D01*
X111881840Y-116147005D01*
X111918165Y-116162051D01*
X111918169Y-116162051D01*
X111918170Y-116162052D01*
X112111456Y-116200500D01*
X112111459Y-116200500D01*
X112308543Y-116200500D01*
X112438582Y-116174632D01*
X112501835Y-116162051D01*
X112683914Y-116086632D01*
X112847782Y-115977139D01*
X112987139Y-115837782D01*
X113052540Y-115739903D01*
X113100017Y-115668848D01*
X113101474Y-115669821D01*
X113144595Y-115625903D01*
X113212729Y-115610426D01*
X113278414Y-115634242D01*
X113280502Y-115635809D01*
X113286632Y-115640512D01*
X113286635Y-115640515D01*
X113403375Y-115707915D01*
X113412521Y-115713196D01*
X113417865Y-115716281D01*
X113564234Y-115755500D01*
X113564236Y-115755500D01*
X113715764Y-115755500D01*
X113715766Y-115755500D01*
X113862135Y-115716281D01*
X113993365Y-115640515D01*
X114100515Y-115533365D01*
X114176281Y-115402135D01*
X114215500Y-115255766D01*
X114215500Y-115104234D01*
X114176281Y-114957865D01*
X114100515Y-114826635D01*
X113993365Y-114719485D01*
X113897436Y-114664100D01*
X113862136Y-114643719D01*
X113772535Y-114619711D01*
X113715766Y-114604500D01*
X113564234Y-114604500D01*
X113417862Y-114643719D01*
X113396499Y-114656054D01*
X113328598Y-114672525D01*
X113262572Y-114649673D01*
X113219382Y-114594751D01*
X113210500Y-114548666D01*
X113210500Y-114001456D01*
X113172052Y-113808170D01*
X113172051Y-113808169D01*
X113172051Y-113808165D01*
X113159315Y-113777417D01*
X113096635Y-113626092D01*
X113096628Y-113626079D01*
X112987139Y-113462218D01*
X112987136Y-113462214D01*
X112848103Y-113323181D01*
X112814618Y-113261858D01*
X112819602Y-113192166D01*
X112861474Y-113136233D01*
X112926938Y-113111816D01*
X112935784Y-113111500D01*
X115852331Y-113111500D01*
X115852347Y-113111501D01*
X115859943Y-113111501D01*
X116018054Y-113111501D01*
X116018057Y-113111501D01*
X116170785Y-113070577D01*
X116220904Y-113041639D01*
X116307716Y-112991520D01*
X116419520Y-112879716D01*
X116419520Y-112879714D01*
X116429728Y-112869507D01*
X116429729Y-112869504D01*
X116624661Y-112674572D01*
X116685983Y-112641089D01*
X116688150Y-112640638D01*
X116746085Y-112629113D01*
X116843497Y-112609737D01*
X116989179Y-112549394D01*
X117120289Y-112461789D01*
X117231789Y-112350289D01*
X117265940Y-112299179D01*
X117288371Y-112265609D01*
X117341983Y-112220804D01*
X117391473Y-112210500D01*
X117558543Y-112210500D01*
X117688582Y-112184632D01*
X117751835Y-112172051D01*
X117933914Y-112096632D01*
X118097782Y-111987139D01*
X118237139Y-111847782D01*
X118346632Y-111683914D01*
X118422051Y-111501835D01*
X118439643Y-111413397D01*
X118460500Y-111308543D01*
X118460500Y-111111456D01*
X118431465Y-110965496D01*
X118422051Y-110918165D01*
X118369939Y-110792354D01*
X118360500Y-110744902D01*
X118360500Y-110531306D01*
X118360499Y-110531304D01*
X118325896Y-110357341D01*
X118325893Y-110357332D01*
X118315235Y-110331602D01*
X118293524Y-110279185D01*
X118259939Y-110198102D01*
X118250500Y-110150650D01*
X118250500Y-109850153D01*
X118859500Y-109850153D01*
X118859500Y-110007846D01*
X118890261Y-110162489D01*
X118890264Y-110162501D01*
X118950602Y-110308172D01*
X118950609Y-110308185D01*
X119038210Y-110439288D01*
X119038213Y-110439292D01*
X119149707Y-110550786D01*
X119149711Y-110550789D01*
X119280814Y-110638390D01*
X119280827Y-110638397D01*
X119393935Y-110685247D01*
X119426503Y-110698737D01*
X119554016Y-110724101D01*
X119581153Y-110729499D01*
X119581156Y-110729500D01*
X119581158Y-110729500D01*
X119738844Y-110729500D01*
X119738845Y-110729499D01*
X119893497Y-110698737D01*
X120026859Y-110643497D01*
X120039172Y-110638397D01*
X120039172Y-110638396D01*
X120039179Y-110638394D01*
X120170289Y-110550789D01*
X120281789Y-110439289D01*
X120369394Y-110308179D01*
X120371082Y-110304105D01*
X120406959Y-110217488D01*
X120429737Y-110162497D01*
X120460500Y-110007842D01*
X120460500Y-109850158D01*
X120460500Y-109850155D01*
X120460499Y-109850153D01*
X120460304Y-109849172D01*
X120429737Y-109695503D01*
X120423066Y-109679397D01*
X120369397Y-109549827D01*
X120369390Y-109549814D01*
X120281789Y-109418711D01*
X120281786Y-109418707D01*
X120170292Y-109307213D01*
X120170288Y-109307210D01*
X120039185Y-109219609D01*
X120039172Y-109219602D01*
X119893501Y-109159264D01*
X119893489Y-109159261D01*
X119738845Y-109128500D01*
X119738842Y-109128500D01*
X119581158Y-109128500D01*
X119581155Y-109128500D01*
X119426510Y-109159261D01*
X119426498Y-109159264D01*
X119280827Y-109219602D01*
X119280814Y-109219609D01*
X119149711Y-109307210D01*
X119149707Y-109307213D01*
X119038213Y-109418707D01*
X119038210Y-109418711D01*
X118950609Y-109549814D01*
X118950602Y-109549827D01*
X118890264Y-109695498D01*
X118890261Y-109695510D01*
X118859500Y-109850153D01*
X118250500Y-109850153D01*
X118250500Y-108231411D01*
X118270185Y-108164372D01*
X118286819Y-108143730D01*
X119099391Y-107331158D01*
X120500319Y-105930230D01*
X120561642Y-105896745D01*
X120631334Y-105901729D01*
X120687267Y-105943601D01*
X120711684Y-106009065D01*
X120712000Y-106017911D01*
X120712000Y-106247284D01*
X120709764Y-106247284D01*
X120698587Y-106306100D01*
X120650503Y-106356792D01*
X120612416Y-106371184D01*
X120516508Y-106390261D01*
X120516498Y-106390264D01*
X120370827Y-106450602D01*
X120370814Y-106450609D01*
X120249809Y-106531462D01*
X120249803Y-106531467D01*
X120239711Y-106538211D01*
X120128211Y-106649711D01*
X120121467Y-106659803D01*
X120121462Y-106659809D01*
X120040609Y-106780814D01*
X120040602Y-106780827D01*
X119980264Y-106926498D01*
X119980261Y-106926510D01*
X119949500Y-107081153D01*
X119949500Y-107238846D01*
X119980261Y-107393489D01*
X119980264Y-107393501D01*
X120040602Y-107539172D01*
X120040609Y-107539185D01*
X120128210Y-107670288D01*
X120128213Y-107670292D01*
X120239707Y-107781786D01*
X120239711Y-107781789D01*
X120370814Y-107869390D01*
X120370827Y-107869397D01*
X120515593Y-107929360D01*
X120516503Y-107929737D01*
X120631860Y-107952683D01*
X120671153Y-107960499D01*
X120671156Y-107960500D01*
X120671158Y-107960500D01*
X120828844Y-107960500D01*
X120828845Y-107960499D01*
X120983497Y-107929737D01*
X121129179Y-107869394D01*
X121260289Y-107781789D01*
X121371789Y-107670289D01*
X121459394Y-107539179D01*
X121466368Y-107522341D01*
X121510208Y-107467937D01*
X121576502Y-107445871D01*
X121644201Y-107463149D01*
X121668611Y-107482111D01*
X121867267Y-107680767D01*
X121900752Y-107742090D01*
X121902059Y-107749047D01*
X121906597Y-107777699D01*
X121926259Y-107838211D01*
X121960127Y-107942445D01*
X122031048Y-108081637D01*
X122031465Y-108082454D01*
X122044361Y-108151123D01*
X122018085Y-108215864D01*
X121968436Y-108253309D01*
X121950823Y-108260604D01*
X121950814Y-108260609D01*
X121819711Y-108348210D01*
X121819707Y-108348213D01*
X121708213Y-108459707D01*
X121708210Y-108459711D01*
X121620609Y-108590814D01*
X121620602Y-108590827D01*
X121560264Y-108736498D01*
X121560261Y-108736510D01*
X121529500Y-108891153D01*
X121529500Y-109048846D01*
X121560261Y-109203489D01*
X121560264Y-109203501D01*
X121620602Y-109349172D01*
X121620609Y-109349185D01*
X121708210Y-109480288D01*
X121708213Y-109480292D01*
X121819707Y-109591786D01*
X121819711Y-109591789D01*
X121950814Y-109679390D01*
X121950827Y-109679397D01*
X122096498Y-109739735D01*
X122096503Y-109739737D01*
X122134925Y-109747379D01*
X122176616Y-109755673D01*
X122238527Y-109788058D01*
X122273101Y-109848773D01*
X122269362Y-109918543D01*
X122240107Y-109964971D01*
X122112860Y-110092218D01*
X122003371Y-110256079D01*
X122003364Y-110256092D01*
X121927950Y-110438160D01*
X121927947Y-110438170D01*
X121889500Y-110631456D01*
X121889500Y-110631459D01*
X121889500Y-110828541D01*
X121889500Y-110828543D01*
X121889499Y-110828543D01*
X121927947Y-111021829D01*
X121927950Y-111021839D01*
X121979010Y-111145111D01*
X121986479Y-111214581D01*
X121959592Y-111268292D01*
X121961393Y-111269703D01*
X121956766Y-111275608D01*
X121873469Y-111413397D01*
X121825569Y-111567116D01*
X121819500Y-111633911D01*
X121819500Y-112066098D01*
X121825568Y-112132882D01*
X121825571Y-112132893D01*
X121873467Y-112286598D01*
X121873468Y-112286600D01*
X121873469Y-112286602D01*
X121949015Y-112411569D01*
X121956766Y-112424391D01*
X122070608Y-112538233D01*
X122070610Y-112538234D01*
X122070612Y-112538236D01*
X122208398Y-112621531D01*
X122362113Y-112669430D01*
X122428909Y-112675500D01*
X122545144Y-112675499D01*
X122592598Y-112684938D01*
X122611864Y-112692918D01*
X122667334Y-112715895D01*
X122809048Y-112744083D01*
X122841304Y-112750499D01*
X122841308Y-112750500D01*
X122841309Y-112750500D01*
X123018693Y-112750500D01*
X123018694Y-112750499D01*
X123192666Y-112715895D01*
X123267402Y-112684937D01*
X123314854Y-112675499D01*
X123431097Y-112675499D01*
X123497882Y-112669431D01*
X123497885Y-112669430D01*
X123497887Y-112669430D01*
X123651602Y-112621531D01*
X123789388Y-112538236D01*
X123903236Y-112424388D01*
X123986531Y-112286602D01*
X124034430Y-112132887D01*
X124040500Y-112066091D01*
X124040499Y-111633910D01*
X124040499Y-111633909D01*
X124040499Y-111633901D01*
X124034431Y-111567117D01*
X124034428Y-111567106D01*
X123986532Y-111413401D01*
X123986531Y-111413400D01*
X123986531Y-111413398D01*
X123903236Y-111275612D01*
X123903234Y-111275610D01*
X123903233Y-111275608D01*
X123851300Y-111223675D01*
X123817815Y-111162352D01*
X123822799Y-111092660D01*
X123824420Y-111088541D01*
X123852051Y-111021835D01*
X123872188Y-110920602D01*
X123890500Y-110828543D01*
X123890500Y-110683911D01*
X124439500Y-110683911D01*
X124439501Y-111116090D01*
X124439500Y-111116098D01*
X124445568Y-111182882D01*
X124445571Y-111182893D01*
X124493467Y-111336598D01*
X124493468Y-111336600D01*
X124493469Y-111336602D01*
X124573934Y-111469707D01*
X124576766Y-111474391D01*
X124690608Y-111588233D01*
X124690610Y-111588234D01*
X124690612Y-111588236D01*
X124828398Y-111671531D01*
X124982113Y-111719430D01*
X125048909Y-111725500D01*
X126051090Y-111725499D01*
X126051097Y-111725499D01*
X126117882Y-111719431D01*
X126117885Y-111719430D01*
X126117887Y-111719430D01*
X126271602Y-111671531D01*
X126409388Y-111588236D01*
X126460804Y-111536820D01*
X126522127Y-111503334D01*
X126548486Y-111500500D01*
X127433331Y-111500500D01*
X127433347Y-111500501D01*
X127440943Y-111500501D01*
X127599054Y-111500501D01*
X127599057Y-111500501D01*
X127751785Y-111459577D01*
X127753438Y-111458622D01*
X127756050Y-111457115D01*
X127818053Y-111440500D01*
X127838844Y-111440500D01*
X127838845Y-111440499D01*
X127993497Y-111409737D01*
X128139179Y-111349394D01*
X128270289Y-111261789D01*
X128381789Y-111150289D01*
X128469394Y-111019179D01*
X128473938Y-111008210D01*
X128509995Y-110921158D01*
X128529737Y-110873497D01*
X128560500Y-110718842D01*
X128560500Y-110561158D01*
X128560500Y-110561155D01*
X128560499Y-110561153D01*
X128552669Y-110521789D01*
X128529737Y-110406503D01*
X128509257Y-110357059D01*
X128469397Y-110260827D01*
X128469390Y-110260814D01*
X128381789Y-110129711D01*
X128381786Y-110129707D01*
X128270292Y-110018213D01*
X128270288Y-110018210D01*
X128139185Y-109930609D01*
X128139172Y-109930602D01*
X127993501Y-109870264D01*
X127993489Y-109870261D01*
X127838845Y-109839500D01*
X127838842Y-109839500D01*
X127681158Y-109839500D01*
X127681155Y-109839500D01*
X127526510Y-109870261D01*
X127526498Y-109870264D01*
X127380827Y-109930602D01*
X127380814Y-109930609D01*
X127249711Y-110018210D01*
X127249707Y-110018213D01*
X127138213Y-110129707D01*
X127138210Y-110129711D01*
X127061584Y-110244391D01*
X127007972Y-110289196D01*
X126958482Y-110299500D01*
X126548486Y-110299500D01*
X126481447Y-110279815D01*
X126460804Y-110263180D01*
X126409392Y-110211767D01*
X126409391Y-110211766D01*
X126374704Y-110190797D01*
X126271602Y-110128469D01*
X126117887Y-110080570D01*
X126117885Y-110080569D01*
X126117883Y-110080569D01*
X126071117Y-110076319D01*
X126051091Y-110074500D01*
X126051088Y-110074500D01*
X125048901Y-110074500D01*
X124982117Y-110080568D01*
X124982106Y-110080571D01*
X124828401Y-110128467D01*
X124690608Y-110211766D01*
X124576766Y-110325608D01*
X124493469Y-110463397D01*
X124445569Y-110617116D01*
X124439500Y-110683911D01*
X123890500Y-110683911D01*
X123890500Y-110631456D01*
X123852052Y-110438170D01*
X123852051Y-110438169D01*
X123852051Y-110438165D01*
X123840506Y-110410292D01*
X123776635Y-110256092D01*
X123776628Y-110256079D01*
X123667139Y-110092218D01*
X123667136Y-110092214D01*
X123527785Y-109952863D01*
X123527781Y-109952860D01*
X123363920Y-109843371D01*
X123363907Y-109843364D01*
X123281090Y-109809061D01*
X123226686Y-109765220D01*
X123204621Y-109698926D01*
X123221900Y-109631227D01*
X123273037Y-109583616D01*
X123328542Y-109570500D01*
X129838265Y-109570500D01*
X129905304Y-109590185D01*
X129951059Y-109642989D01*
X129961003Y-109712147D01*
X129959882Y-109718692D01*
X129939500Y-109821155D01*
X129939500Y-109978846D01*
X129970261Y-110133489D01*
X129970264Y-110133501D01*
X130030602Y-110279172D01*
X130030609Y-110279185D01*
X130118210Y-110410288D01*
X130118213Y-110410292D01*
X130229708Y-110521787D01*
X130229711Y-110521789D01*
X130259497Y-110541691D01*
X130273008Y-110557858D01*
X130289874Y-110570484D01*
X130294963Y-110584128D01*
X130304302Y-110595303D01*
X130306927Y-110616206D01*
X130314291Y-110635948D01*
X130311195Y-110650179D01*
X130313010Y-110664628D01*
X130303917Y-110683632D01*
X130299439Y-110704221D01*
X130284556Y-110724101D01*
X130282856Y-110727656D01*
X130278288Y-110732475D01*
X130215338Y-110795425D01*
X130154015Y-110828910D01*
X130151849Y-110829361D01*
X129996508Y-110860261D01*
X129996498Y-110860264D01*
X129850827Y-110920602D01*
X129850814Y-110920609D01*
X129719711Y-111008210D01*
X129719707Y-111008213D01*
X129608213Y-111119707D01*
X129608210Y-111119711D01*
X129520609Y-111250814D01*
X129520602Y-111250827D01*
X129460264Y-111396498D01*
X129460261Y-111396510D01*
X129429500Y-111551153D01*
X129429500Y-111708846D01*
X129460261Y-111863489D01*
X129460264Y-111863501D01*
X129520602Y-112009172D01*
X129520609Y-112009185D01*
X129608210Y-112140288D01*
X129608213Y-112140292D01*
X129719707Y-112251786D01*
X129719711Y-112251789D01*
X129850814Y-112339390D01*
X129850827Y-112339397D01*
X129993620Y-112398543D01*
X129996503Y-112399737D01*
X130130647Y-112426420D01*
X130151153Y-112430499D01*
X130151156Y-112430500D01*
X130151158Y-112430500D01*
X130308843Y-112430500D01*
X130329353Y-112426420D01*
X130393621Y-112413636D01*
X130401525Y-112414343D01*
X130408964Y-112411569D01*
X130435829Y-112417412D01*
X130463211Y-112419863D01*
X130471219Y-112425110D01*
X130477237Y-112426420D01*
X130505492Y-112447571D01*
X130543180Y-112485258D01*
X130576666Y-112546580D01*
X130579500Y-112572940D01*
X130579500Y-112939057D01*
X130615398Y-113073028D01*
X130620423Y-113091783D01*
X130620426Y-113091790D01*
X130699475Y-113228709D01*
X130699479Y-113228714D01*
X130699480Y-113228716D01*
X130811284Y-113340520D01*
X130811286Y-113340521D01*
X130811290Y-113340524D01*
X130932683Y-113410609D01*
X130948216Y-113419577D01*
X131100943Y-113460500D01*
X131259057Y-113460500D01*
X132329903Y-113460500D01*
X132396942Y-113480185D01*
X132417584Y-113496819D01*
X132698181Y-113777417D01*
X132731666Y-113838740D01*
X132734500Y-113865098D01*
X132734500Y-114291098D01*
X132740568Y-114357882D01*
X132740571Y-114357893D01*
X132788467Y-114511598D01*
X132788468Y-114511600D01*
X132788469Y-114511602D01*
X132860218Y-114630289D01*
X132871766Y-114649391D01*
X132985608Y-114763233D01*
X132985610Y-114763234D01*
X132985612Y-114763236D01*
X133123398Y-114846531D01*
X133277113Y-114894430D01*
X133343909Y-114900500D01*
X133776090Y-114900499D01*
X133776098Y-114900499D01*
X133842882Y-114894431D01*
X133842885Y-114894430D01*
X133842887Y-114894430D01*
X133996602Y-114846531D01*
X134134388Y-114763236D01*
X134248236Y-114649388D01*
X134331531Y-114511602D01*
X134379430Y-114357887D01*
X134385500Y-114291091D01*
X134385499Y-113864094D01*
X134391737Y-113842849D01*
X134393317Y-113820762D01*
X134401388Y-113809979D01*
X134405183Y-113797057D01*
X134421919Y-113782555D01*
X134435189Y-113764829D01*
X134447807Y-113760122D01*
X134457987Y-113751302D01*
X134479905Y-113748150D01*
X134500653Y-113740412D01*
X134513813Y-113743274D01*
X134527146Y-113741358D01*
X134547289Y-113750557D01*
X134568926Y-113755264D01*
X134586651Y-113768532D01*
X134590702Y-113770383D01*
X134597180Y-113776415D01*
X134598181Y-113777416D01*
X134631666Y-113838739D01*
X134634500Y-113865097D01*
X134634500Y-114291098D01*
X134640568Y-114357882D01*
X134640569Y-114357887D01*
X134649300Y-114385904D01*
X134653885Y-114400618D01*
X134659500Y-114437507D01*
X134659500Y-114967060D01*
X134639815Y-115034099D01*
X134623181Y-115054741D01*
X134319711Y-115358211D01*
X134283202Y-115394720D01*
X134208209Y-115469712D01*
X134120609Y-115600814D01*
X134120602Y-115600827D01*
X134060264Y-115746498D01*
X134060261Y-115746510D01*
X134029500Y-115901153D01*
X134029500Y-116199522D01*
X134009815Y-116266561D01*
X133957011Y-116312316D01*
X133887853Y-116322260D01*
X133836620Y-116299700D01*
X133835354Y-116301595D01*
X133699185Y-116210609D01*
X133699172Y-116210602D01*
X133553501Y-116150264D01*
X133553489Y-116150261D01*
X133398845Y-116119500D01*
X133398842Y-116119500D01*
X133241158Y-116119500D01*
X133241155Y-116119500D01*
X133086510Y-116150261D01*
X133086498Y-116150264D01*
X132940827Y-116210602D01*
X132940814Y-116210609D01*
X132809711Y-116298210D01*
X132809707Y-116298213D01*
X132698213Y-116409707D01*
X132698210Y-116409711D01*
X132610609Y-116540814D01*
X132610602Y-116540827D01*
X132550264Y-116686498D01*
X132550261Y-116686510D01*
X132519500Y-116841153D01*
X132519500Y-116998846D01*
X132550261Y-117153489D01*
X132550264Y-117153501D01*
X132610602Y-117299172D01*
X132610609Y-117299185D01*
X132698210Y-117430288D01*
X132698213Y-117430292D01*
X132809707Y-117541786D01*
X132809711Y-117541789D01*
X132940814Y-117629390D01*
X132940827Y-117629397D01*
X133086498Y-117689735D01*
X133086503Y-117689737D01*
X133194686Y-117711256D01*
X133241153Y-117720499D01*
X133241156Y-117720500D01*
X133241158Y-117720500D01*
X133398844Y-117720500D01*
X133398845Y-117720499D01*
X133553497Y-117689737D01*
X133698414Y-117629711D01*
X133699172Y-117629397D01*
X133699172Y-117629396D01*
X133699179Y-117629394D01*
X133830289Y-117541789D01*
X133941789Y-117430289D01*
X133975060Y-117380494D01*
X134028671Y-117335691D01*
X134097996Y-117326983D01*
X134161024Y-117357137D01*
X134181264Y-117380495D01*
X134212860Y-117427781D01*
X134212863Y-117427785D01*
X134352215Y-117567137D01*
X134352218Y-117567139D01*
X134446921Y-117630417D01*
X134491724Y-117684027D01*
X134500432Y-117753352D01*
X134470278Y-117816380D01*
X134446921Y-117836619D01*
X134369713Y-117888208D01*
X134369707Y-117888213D01*
X134258213Y-117999707D01*
X134258210Y-117999711D01*
X134170609Y-118130814D01*
X134170602Y-118130827D01*
X134110264Y-118276498D01*
X134110261Y-118276510D01*
X134079500Y-118431153D01*
X134079500Y-118588846D01*
X134110261Y-118743489D01*
X134110264Y-118743501D01*
X134170602Y-118889172D01*
X134170609Y-118889185D01*
X134258210Y-119020288D01*
X134258213Y-119020292D01*
X134369707Y-119131786D01*
X134369711Y-119131789D01*
X134500814Y-119219390D01*
X134500827Y-119219397D01*
X134646498Y-119279735D01*
X134646503Y-119279737D01*
X134740499Y-119298434D01*
X134801153Y-119310499D01*
X134801156Y-119310500D01*
X134900163Y-119310500D01*
X134967202Y-119330185D01*
X135012957Y-119382989D01*
X135021780Y-119410308D01*
X135050261Y-119553491D01*
X135050264Y-119553501D01*
X135110602Y-119699172D01*
X135110609Y-119699184D01*
X135112877Y-119702579D01*
X135133752Y-119769257D01*
X135115265Y-119836637D01*
X135063284Y-119883325D01*
X135010116Y-119895466D01*
X122874304Y-119929151D01*
X122807210Y-119909652D01*
X122761309Y-119856975D01*
X122751174Y-119787845D01*
X122780022Y-119724209D01*
X122805066Y-119702051D01*
X122880289Y-119651789D01*
X122991789Y-119540289D01*
X123079394Y-119409179D01*
X123139737Y-119263497D01*
X123152432Y-119199676D01*
X123184816Y-119137765D01*
X123245532Y-119103191D01*
X123315301Y-119106930D01*
X123342940Y-119120765D01*
X123370814Y-119139390D01*
X123370827Y-119139397D01*
X123491028Y-119189185D01*
X123516503Y-119199737D01*
X123655880Y-119227461D01*
X123671153Y-119230499D01*
X123671156Y-119230500D01*
X123671158Y-119230500D01*
X123828844Y-119230500D01*
X123828845Y-119230499D01*
X123983497Y-119199737D01*
X124129179Y-119139394D01*
X124260289Y-119051789D01*
X124364257Y-118947820D01*
X124425578Y-118914337D01*
X124495270Y-118919321D01*
X124524816Y-118935181D01*
X124559772Y-118960579D01*
X124642353Y-119002656D01*
X124763196Y-119064229D01*
X124763198Y-119064229D01*
X124763201Y-119064231D01*
X124822508Y-119083501D01*
X124980339Y-119134784D01*
X125205838Y-119170500D01*
X125205843Y-119170500D01*
X125434162Y-119170500D01*
X125659660Y-119134784D01*
X125702581Y-119120838D01*
X125876799Y-119064231D01*
X126080228Y-118960579D01*
X126264937Y-118826379D01*
X126426379Y-118664937D01*
X126430558Y-118659185D01*
X126457385Y-118622261D01*
X126512715Y-118579594D01*
X126582328Y-118573615D01*
X126644123Y-118606220D01*
X126645385Y-118607464D01*
X126699707Y-118661786D01*
X126699711Y-118661789D01*
X126830814Y-118749390D01*
X126830827Y-118749397D01*
X126972819Y-118808211D01*
X126976503Y-118809737D01*
X127131153Y-118840499D01*
X127131156Y-118840500D01*
X127131158Y-118840500D01*
X127288844Y-118840500D01*
X127288845Y-118840499D01*
X127443497Y-118809737D01*
X127589179Y-118749394D01*
X127720289Y-118661789D01*
X127831789Y-118550289D01*
X127919394Y-118419179D01*
X127979737Y-118273497D01*
X128010500Y-118118842D01*
X128010500Y-117961158D01*
X128010500Y-117961155D01*
X128010499Y-117961153D01*
X128004139Y-117929179D01*
X127979737Y-117806503D01*
X127970207Y-117783496D01*
X127919396Y-117660825D01*
X127919395Y-117660824D01*
X127919394Y-117660821D01*
X127896375Y-117626372D01*
X127890402Y-117607294D01*
X127879896Y-117590286D01*
X127880175Y-117574634D01*
X127875498Y-117559696D01*
X127880786Y-117540416D01*
X127881144Y-117520428D01*
X127893159Y-117495315D01*
X127893982Y-117492316D01*
X127896344Y-117488640D01*
X127916632Y-117458278D01*
X127970242Y-117413476D01*
X128039567Y-117404769D01*
X128102595Y-117434924D01*
X128107412Y-117439491D01*
X128209707Y-117541786D01*
X128209711Y-117541789D01*
X128340814Y-117629390D01*
X128340827Y-117629397D01*
X128486498Y-117689735D01*
X128486503Y-117689737D01*
X128594686Y-117711256D01*
X128641153Y-117720499D01*
X128641156Y-117720500D01*
X128641158Y-117720500D01*
X128798844Y-117720500D01*
X128798845Y-117720499D01*
X128953497Y-117689737D01*
X129098414Y-117629711D01*
X129099172Y-117629397D01*
X129099172Y-117629396D01*
X129099179Y-117629394D01*
X129230289Y-117541789D01*
X129341789Y-117430289D01*
X129429394Y-117299179D01*
X129489737Y-117153497D01*
X129520500Y-116998842D01*
X129520500Y-116841158D01*
X129520500Y-116841155D01*
X129520499Y-116841153D01*
X129511745Y-116797144D01*
X129489737Y-116686503D01*
X129489735Y-116686498D01*
X129429397Y-116540827D01*
X129429390Y-116540814D01*
X129341789Y-116409711D01*
X129341786Y-116409707D01*
X129230292Y-116298213D01*
X129230288Y-116298210D01*
X129099185Y-116210609D01*
X129099172Y-116210602D01*
X128953501Y-116150264D01*
X128953489Y-116150261D01*
X128798845Y-116119500D01*
X128798842Y-116119500D01*
X128641158Y-116119500D01*
X128641155Y-116119500D01*
X128486510Y-116150261D01*
X128486498Y-116150264D01*
X128340827Y-116210602D01*
X128340814Y-116210609D01*
X128209711Y-116298210D01*
X128209707Y-116298213D01*
X128098213Y-116409707D01*
X128023369Y-116521718D01*
X127969756Y-116566522D01*
X127900431Y-116575229D01*
X127837404Y-116545074D01*
X127832586Y-116540507D01*
X127730292Y-116438213D01*
X127730288Y-116438210D01*
X127599185Y-116350609D01*
X127599172Y-116350602D01*
X127453501Y-116290264D01*
X127453489Y-116290261D01*
X127298845Y-116259500D01*
X127298842Y-116259500D01*
X127141158Y-116259500D01*
X127141155Y-116259500D01*
X126986510Y-116290261D01*
X126986498Y-116290264D01*
X126941952Y-116308716D01*
X126872483Y-116316185D01*
X126810004Y-116284909D01*
X126774352Y-116224820D01*
X126770500Y-116194155D01*
X126770500Y-116005837D01*
X126734784Y-115780339D01*
X126689352Y-115640515D01*
X126664231Y-115563201D01*
X126664229Y-115563198D01*
X126664229Y-115563196D01*
X126582164Y-115402135D01*
X126560579Y-115359772D01*
X126426379Y-115175063D01*
X126264937Y-115013621D01*
X126080228Y-114879421D01*
X126015676Y-114846530D01*
X125939898Y-114807919D01*
X125889102Y-114759944D01*
X125872307Y-114692123D01*
X125893090Y-114628544D01*
X125919394Y-114589179D01*
X125979737Y-114443497D01*
X126010500Y-114288842D01*
X126010500Y-114131158D01*
X126010500Y-114131155D01*
X126010499Y-114131153D01*
X125989521Y-114025691D01*
X125979737Y-113976503D01*
X125943787Y-113889711D01*
X125919397Y-113830827D01*
X125919392Y-113830818D01*
X125919132Y-113830429D01*
X125911088Y-113818391D01*
X125890210Y-113751715D01*
X125908693Y-113684334D01*
X125960671Y-113637643D01*
X126014190Y-113625499D01*
X126051097Y-113625499D01*
X126117882Y-113619431D01*
X126117885Y-113619430D01*
X126117887Y-113619430D01*
X126271602Y-113571531D01*
X126409388Y-113488236D01*
X126523236Y-113374388D01*
X126606531Y-113236602D01*
X126654430Y-113082887D01*
X126660500Y-113016091D01*
X126660499Y-112583910D01*
X126660499Y-112583909D01*
X126660499Y-112583901D01*
X126654431Y-112517117D01*
X126654428Y-112517106D01*
X126606532Y-112363401D01*
X126606531Y-112363400D01*
X126606531Y-112363398D01*
X126523236Y-112225612D01*
X126523234Y-112225610D01*
X126523233Y-112225608D01*
X126409391Y-112111766D01*
X126384361Y-112096635D01*
X126271602Y-112028469D01*
X126117887Y-111980570D01*
X126117885Y-111980569D01*
X126117883Y-111980569D01*
X126071117Y-111976319D01*
X126051091Y-111974500D01*
X126051088Y-111974500D01*
X125048901Y-111974500D01*
X124982117Y-111980568D01*
X124982106Y-111980571D01*
X124828401Y-112028467D01*
X124690608Y-112111766D01*
X124576766Y-112225608D01*
X124493469Y-112363397D01*
X124445569Y-112517116D01*
X124439500Y-112583911D01*
X124439500Y-113016098D01*
X124445568Y-113082882D01*
X124445571Y-113082893D01*
X124493467Y-113236598D01*
X124493468Y-113236600D01*
X124493469Y-113236602D01*
X124576764Y-113374388D01*
X124576766Y-113374391D01*
X124581393Y-113380297D01*
X124579266Y-113381962D01*
X124587879Y-113397724D01*
X124604477Y-113423551D01*
X124605364Y-113429724D01*
X124606659Y-113432093D01*
X124609500Y-113458486D01*
X124609500Y-113630234D01*
X124589815Y-113697273D01*
X124588602Y-113699125D01*
X124500609Y-113830814D01*
X124500602Y-113830827D01*
X124440264Y-113976498D01*
X124440261Y-113976510D01*
X124409500Y-114131153D01*
X124409500Y-114288846D01*
X124440261Y-114443489D01*
X124440264Y-114443501D01*
X124500602Y-114589172D01*
X124500609Y-114589185D01*
X124584258Y-114714374D01*
X124605136Y-114781052D01*
X124586651Y-114848432D01*
X124554042Y-114883582D01*
X124375069Y-115013616D01*
X124375060Y-115013623D01*
X124213622Y-115175061D01*
X124079419Y-115359774D01*
X124049424Y-115418642D01*
X124001449Y-115469438D01*
X123933628Y-115486232D01*
X123867493Y-115463694D01*
X123860297Y-115458216D01*
X123729185Y-115370609D01*
X123729172Y-115370602D01*
X123615755Y-115323624D01*
X123561351Y-115279783D01*
X123539286Y-115213489D01*
X123556565Y-115145790D01*
X123594314Y-115105962D01*
X123720289Y-115021789D01*
X123831789Y-114910289D01*
X123919394Y-114779179D01*
X123920807Y-114775769D01*
X123953376Y-114697139D01*
X123979737Y-114633497D01*
X124010500Y-114478842D01*
X124010500Y-114321158D01*
X124010500Y-114321155D01*
X124010499Y-114321153D01*
X123986170Y-114198846D01*
X123979737Y-114166503D01*
X123977386Y-114160827D01*
X123919397Y-114020827D01*
X123919390Y-114020814D01*
X123831789Y-113889711D01*
X123831786Y-113889707D01*
X123720292Y-113778213D01*
X123720288Y-113778210D01*
X123589185Y-113690609D01*
X123589172Y-113690602D01*
X123443501Y-113630264D01*
X123443489Y-113630261D01*
X123288845Y-113599500D01*
X123288842Y-113599500D01*
X123131158Y-113599500D01*
X123131155Y-113599500D01*
X122976510Y-113630261D01*
X122976498Y-113630264D01*
X122830827Y-113690602D01*
X122830814Y-113690609D01*
X122699711Y-113778210D01*
X122699707Y-113778213D01*
X122588213Y-113889707D01*
X122588210Y-113889711D01*
X122500609Y-114020814D01*
X122500602Y-114020827D01*
X122440264Y-114166498D01*
X122440261Y-114166510D01*
X122409500Y-114321153D01*
X122409500Y-114448373D01*
X122389815Y-114515412D01*
X122337011Y-114561167D01*
X122267853Y-114571111D01*
X122261309Y-114569990D01*
X122258846Y-114569500D01*
X122258842Y-114569500D01*
X122101158Y-114569500D01*
X122101153Y-114569500D01*
X121998691Y-114589881D01*
X121929099Y-114583654D01*
X121873922Y-114540791D01*
X121850678Y-114474901D01*
X121850500Y-114468264D01*
X121850500Y-114001456D01*
X121812052Y-113808170D01*
X121812051Y-113808169D01*
X121812051Y-113808165D01*
X121799315Y-113777417D01*
X121736635Y-113626092D01*
X121736628Y-113626079D01*
X121627139Y-113462218D01*
X121627136Y-113462214D01*
X121487785Y-113322863D01*
X121487781Y-113322860D01*
X121323920Y-113213371D01*
X121323907Y-113213364D01*
X121141839Y-113137950D01*
X121141829Y-113137947D01*
X120948543Y-113099500D01*
X120948541Y-113099500D01*
X120751459Y-113099500D01*
X120751457Y-113099500D01*
X120558170Y-113137947D01*
X120558160Y-113137950D01*
X120376092Y-113213364D01*
X120376079Y-113213371D01*
X120212218Y-113322860D01*
X120212214Y-113322863D01*
X120072863Y-113462214D01*
X120072860Y-113462218D01*
X119963371Y-113626079D01*
X119963364Y-113626092D01*
X119887950Y-113808160D01*
X119887947Y-113808170D01*
X119849500Y-114001456D01*
X119849500Y-114548666D01*
X119829815Y-114615705D01*
X119777011Y-114661460D01*
X119707853Y-114671404D01*
X119663501Y-114656054D01*
X119642137Y-114643719D01*
X119515139Y-114609691D01*
X119495766Y-114604500D01*
X119344234Y-114604500D01*
X119197863Y-114643719D01*
X119066635Y-114719485D01*
X119066632Y-114719487D01*
X118959487Y-114826632D01*
X118959485Y-114826635D01*
X118883719Y-114957863D01*
X118857761Y-115054741D01*
X118844500Y-115104234D01*
X118844500Y-115255766D01*
X118858345Y-115307436D01*
X118883719Y-115402136D01*
X118919260Y-115463694D01*
X118959485Y-115533365D01*
X119066635Y-115640515D01*
X119148320Y-115687676D01*
X119192521Y-115713196D01*
X119197865Y-115716281D01*
X119344234Y-115755500D01*
X119344236Y-115755500D01*
X119495764Y-115755500D01*
X119495766Y-115755500D01*
X119642135Y-115716281D01*
X119773365Y-115640515D01*
X119773374Y-115640505D01*
X119779488Y-115635815D01*
X119844656Y-115610617D01*
X119913101Y-115624650D01*
X119959025Y-115669488D01*
X119959983Y-115668849D01*
X119963009Y-115673378D01*
X119963094Y-115673461D01*
X119963228Y-115673706D01*
X120072860Y-115837781D01*
X120072863Y-115837785D01*
X120212214Y-115977136D01*
X120212218Y-115977139D01*
X120376079Y-116086628D01*
X120376092Y-116086635D01*
X120521840Y-116147005D01*
X120558165Y-116162051D01*
X120558169Y-116162051D01*
X120558170Y-116162052D01*
X120751456Y-116200500D01*
X120751459Y-116200500D01*
X120948543Y-116200500D01*
X121078582Y-116174632D01*
X121141835Y-116162051D01*
X121323914Y-116086632D01*
X121347286Y-116071014D01*
X121413964Y-116050137D01*
X121481344Y-116068621D01*
X121528035Y-116120600D01*
X121539211Y-116189569D01*
X121519280Y-116243008D01*
X121460609Y-116330814D01*
X121460602Y-116330827D01*
X121400264Y-116476498D01*
X121400261Y-116476510D01*
X121369500Y-116631153D01*
X121369500Y-116788846D01*
X121400261Y-116943489D01*
X121400264Y-116943501D01*
X121460602Y-117089172D01*
X121460609Y-117089185D01*
X121548210Y-117220288D01*
X121548213Y-117220292D01*
X121659707Y-117331786D01*
X121659711Y-117331789D01*
X121790814Y-117419390D01*
X121790827Y-117419397D01*
X121935931Y-117479500D01*
X121936503Y-117479737D01*
X122019693Y-117496284D01*
X122081602Y-117528668D01*
X122116176Y-117589384D01*
X122119500Y-117617901D01*
X122119500Y-117768846D01*
X122150261Y-117923489D01*
X122150264Y-117923501D01*
X122210602Y-118069172D01*
X122210613Y-118069192D01*
X122211513Y-118070539D01*
X122211767Y-118071351D01*
X122213479Y-118074554D01*
X122212871Y-118074878D01*
X122232386Y-118137218D01*
X122213896Y-118204597D01*
X122161914Y-118251283D01*
X122155201Y-118254253D01*
X122144219Y-118258728D01*
X122136503Y-118260263D01*
X121990821Y-118320606D01*
X121988391Y-118322229D01*
X121979848Y-118325711D01*
X121951236Y-118328621D01*
X121923078Y-118334478D01*
X121916908Y-118332112D01*
X121910337Y-118332781D01*
X121884692Y-118319760D01*
X121857839Y-118309464D01*
X121853928Y-118304140D01*
X121848038Y-118301149D01*
X121833506Y-118276333D01*
X121816480Y-118253151D01*
X121813917Y-118243967D01*
X121813820Y-118243997D01*
X121813013Y-118241338D01*
X121812731Y-118240856D01*
X121812747Y-118240461D01*
X121812049Y-118238160D01*
X121736635Y-118056092D01*
X121736628Y-118056079D01*
X121627139Y-117892218D01*
X121627136Y-117892214D01*
X121487785Y-117752863D01*
X121487781Y-117752860D01*
X121323920Y-117643371D01*
X121323907Y-117643364D01*
X121141839Y-117567950D01*
X121141829Y-117567947D01*
X120948543Y-117529500D01*
X120948541Y-117529500D01*
X120751459Y-117529500D01*
X120751457Y-117529500D01*
X120558170Y-117567947D01*
X120558160Y-117567950D01*
X120376092Y-117643364D01*
X120376081Y-117643370D01*
X120247469Y-117729306D01*
X120180792Y-117750183D01*
X120113412Y-117731698D01*
X120075477Y-117695094D01*
X120031789Y-117629711D01*
X120031786Y-117629707D01*
X119920292Y-117518213D01*
X119920288Y-117518210D01*
X119789185Y-117430609D01*
X119789172Y-117430602D01*
X119643501Y-117370264D01*
X119643489Y-117370261D01*
X119488845Y-117339500D01*
X119488842Y-117339500D01*
X119331158Y-117339500D01*
X119331155Y-117339500D01*
X119176510Y-117370261D01*
X119176498Y-117370264D01*
X119030827Y-117430602D01*
X119030814Y-117430609D01*
X118899711Y-117518210D01*
X118899707Y-117518213D01*
X118788213Y-117629707D01*
X118788210Y-117629711D01*
X118700609Y-117760814D01*
X118700602Y-117760827D01*
X118640264Y-117906498D01*
X118640261Y-117906510D01*
X118609500Y-118061154D01*
X118609500Y-118218846D01*
X118640261Y-118373489D01*
X118640264Y-118373501D01*
X118700602Y-118519172D01*
X118700609Y-118519185D01*
X118788210Y-118650288D01*
X118788213Y-118650292D01*
X118810240Y-118672319D01*
X118843725Y-118733642D01*
X118838741Y-118803334D01*
X118810240Y-118847681D01*
X118738213Y-118919707D01*
X118738210Y-118919711D01*
X118650609Y-119050814D01*
X118650602Y-119050827D01*
X118590264Y-119196498D01*
X118590261Y-119196510D01*
X118559500Y-119351153D01*
X118559500Y-119508846D01*
X118590261Y-119663489D01*
X118590264Y-119663501D01*
X118634288Y-119769786D01*
X118641757Y-119839256D01*
X118610481Y-119901735D01*
X118550392Y-119937386D01*
X118520071Y-119941238D01*
X114577799Y-119952180D01*
X114510705Y-119932681D01*
X114464804Y-119880004D01*
X114454669Y-119810874D01*
X114462892Y-119780733D01*
X114519737Y-119643497D01*
X114550500Y-119488842D01*
X114550500Y-119331158D01*
X114550500Y-119331155D01*
X114550499Y-119331153D01*
X114543208Y-119294500D01*
X114519737Y-119176503D01*
X114519735Y-119176498D01*
X114459397Y-119030827D01*
X114459389Y-119030813D01*
X114440575Y-119002656D01*
X114419696Y-118935979D01*
X114438180Y-118868599D01*
X114455991Y-118846086D01*
X114511789Y-118790289D01*
X114599394Y-118659179D01*
X114659737Y-118513497D01*
X114690500Y-118358842D01*
X114690500Y-118201158D01*
X114690500Y-118201155D01*
X114690499Y-118201153D01*
X114684658Y-118171789D01*
X114659737Y-118046503D01*
X114659735Y-118046498D01*
X114599397Y-117900827D01*
X114599390Y-117900814D01*
X114511789Y-117769711D01*
X114511786Y-117769707D01*
X114400292Y-117658213D01*
X114400288Y-117658210D01*
X114269185Y-117570609D01*
X114269172Y-117570602D01*
X114123501Y-117510264D01*
X114123489Y-117510261D01*
X113968845Y-117479500D01*
X113968842Y-117479500D01*
X113811158Y-117479500D01*
X113811155Y-117479500D01*
X113656510Y-117510261D01*
X113656498Y-117510264D01*
X113510827Y-117570602D01*
X113510814Y-117570609D01*
X113379711Y-117658210D01*
X113379707Y-117658213D01*
X113268213Y-117769707D01*
X113268210Y-117769711D01*
X113189837Y-117887004D01*
X113136224Y-117931809D01*
X113066899Y-117940516D01*
X113003872Y-117910361D01*
X112990882Y-117896779D01*
X112987133Y-117892211D01*
X112847785Y-117752863D01*
X112847781Y-117752860D01*
X112683920Y-117643371D01*
X112683907Y-117643364D01*
X112501839Y-117567950D01*
X112501829Y-117567947D01*
X112308543Y-117529500D01*
X112308541Y-117529500D01*
X112111459Y-117529500D01*
X112111457Y-117529500D01*
X111918170Y-117567947D01*
X111918160Y-117567950D01*
X111736092Y-117643364D01*
X111736079Y-117643371D01*
X111572218Y-117752860D01*
X111572214Y-117752863D01*
X111432863Y-117892214D01*
X111432860Y-117892218D01*
X111323371Y-118056079D01*
X111323364Y-118056092D01*
X111247950Y-118238160D01*
X111247947Y-118238170D01*
X111209500Y-118431456D01*
X111209500Y-118431459D01*
X111209500Y-119228541D01*
X111209500Y-119228543D01*
X111209499Y-119228543D01*
X111247947Y-119421829D01*
X111247950Y-119421839D01*
X111323364Y-119603907D01*
X111323371Y-119603920D01*
X111433209Y-119768303D01*
X111454087Y-119834980D01*
X111435603Y-119902361D01*
X111383624Y-119949051D01*
X111330451Y-119961194D01*
X94680207Y-120007412D01*
X94680195Y-120007412D01*
X94670860Y-120007436D01*
X94669381Y-120007055D01*
X94606147Y-120007610D01*
X94605832Y-120007611D01*
X94605770Y-120007593D01*
X94600468Y-120007509D01*
X94230559Y-119992484D01*
X94218363Y-119991383D01*
X93854830Y-119940381D01*
X93842803Y-119938084D01*
X93486051Y-119851472D01*
X93474309Y-119847999D01*
X93339006Y-119800600D01*
X93282245Y-119759858D01*
X93256521Y-119694896D01*
X93270002Y-119626339D01*
X93318407Y-119575954D01*
X93386369Y-119559736D01*
X93393887Y-119560353D01*
X93395191Y-119560500D01*
X93395193Y-119560500D01*
X93664812Y-119560500D01*
X93664812Y-119560499D01*
X93932732Y-119530312D01*
X94195591Y-119470316D01*
X94450079Y-119381267D01*
X94692997Y-119264284D01*
X94921289Y-119120838D01*
X95132085Y-118952734D01*
X95322734Y-118762085D01*
X95490838Y-118551289D01*
X95634284Y-118322997D01*
X95751267Y-118080079D01*
X95840316Y-117825591D01*
X95900312Y-117562732D01*
X95913106Y-117449185D01*
X95922280Y-117367766D01*
X95949347Y-117303352D01*
X96006941Y-117263797D01*
X96076778Y-117261660D01*
X96136685Y-117297618D01*
X96167640Y-117360256D01*
X96169500Y-117381650D01*
X96169500Y-117984162D01*
X96205215Y-118209660D01*
X96275770Y-118426803D01*
X96358334Y-118588842D01*
X96379421Y-118630228D01*
X96513621Y-118814937D01*
X96675063Y-118976379D01*
X96859772Y-119110579D01*
X96913128Y-119137765D01*
X97063196Y-119214229D01*
X97063198Y-119214229D01*
X97063201Y-119214231D01*
X97179592Y-119252049D01*
X97280339Y-119284784D01*
X97505838Y-119320500D01*
X97505843Y-119320500D01*
X97734162Y-119320500D01*
X97959660Y-119284784D01*
X98022752Y-119264284D01*
X98176799Y-119214231D01*
X98380228Y-119110579D01*
X98543395Y-118992029D01*
X98609201Y-118968549D01*
X98677255Y-118984374D01*
X98725950Y-119034479D01*
X98730842Y-119044895D01*
X98790602Y-119189172D01*
X98790609Y-119189185D01*
X98878210Y-119320288D01*
X98878213Y-119320292D01*
X98989707Y-119431786D01*
X98989711Y-119431789D01*
X99120814Y-119519390D01*
X99120827Y-119519397D01*
X99220060Y-119560500D01*
X99266503Y-119579737D01*
X99418252Y-119609922D01*
X99421153Y-119610499D01*
X99421156Y-119610500D01*
X99421158Y-119610500D01*
X99578844Y-119610500D01*
X99578845Y-119610499D01*
X99733497Y-119579737D01*
X99879179Y-119519394D01*
X100010289Y-119431789D01*
X100121789Y-119320289D01*
X100209394Y-119189179D01*
X100269737Y-119043497D01*
X100300500Y-118888842D01*
X100300500Y-118731158D01*
X100300500Y-118731155D01*
X100300499Y-118731153D01*
X100269737Y-118576503D01*
X100258879Y-118550289D01*
X100209397Y-118430827D01*
X100209390Y-118430814D01*
X100150520Y-118342709D01*
X100129642Y-118276031D01*
X100148127Y-118208651D01*
X100165937Y-118186140D01*
X100241789Y-118110289D01*
X100329394Y-117979179D01*
X100336859Y-117961158D01*
X100350102Y-117929185D01*
X100389737Y-117833497D01*
X100392487Y-117819667D01*
X100424872Y-117757758D01*
X100485587Y-117723183D01*
X100555356Y-117726922D01*
X100582996Y-117740757D01*
X100640814Y-117779390D01*
X100640827Y-117779397D01*
X100778975Y-117836619D01*
X100786503Y-117839737D01*
X100941153Y-117870499D01*
X100941156Y-117870500D01*
X100941158Y-117870500D01*
X101098844Y-117870500D01*
X101098845Y-117870499D01*
X101253497Y-117839737D01*
X101366166Y-117793067D01*
X101399172Y-117779397D01*
X101399172Y-117779396D01*
X101399179Y-117779394D01*
X101530289Y-117691789D01*
X101641789Y-117580289D01*
X101729394Y-117449179D01*
X101731203Y-117444813D01*
X101785158Y-117314552D01*
X101789737Y-117303497D01*
X101820500Y-117148842D01*
X101820500Y-116991158D01*
X101820500Y-116991155D01*
X101820499Y-116991153D01*
X104819500Y-116991153D01*
X104819500Y-117148846D01*
X104850261Y-117303489D01*
X104850264Y-117303501D01*
X104910602Y-117449172D01*
X104910609Y-117449185D01*
X104998210Y-117580288D01*
X104998213Y-117580292D01*
X105109707Y-117691786D01*
X105109711Y-117691789D01*
X105240814Y-117779390D01*
X105240827Y-117779397D01*
X105378975Y-117836619D01*
X105386503Y-117839737D01*
X105541153Y-117870499D01*
X105541156Y-117870500D01*
X105541158Y-117870500D01*
X105698844Y-117870500D01*
X105698845Y-117870499D01*
X105853497Y-117839737D01*
X105966166Y-117793067D01*
X105999172Y-117779397D01*
X105999172Y-117779396D01*
X105999179Y-117779394D01*
X106101155Y-117711255D01*
X106167831Y-117690378D01*
X106235211Y-117708862D01*
X106281902Y-117760841D01*
X106288705Y-117778362D01*
X106290262Y-117783496D01*
X106350602Y-117929172D01*
X106350609Y-117929185D01*
X106438210Y-118060288D01*
X106438213Y-118060292D01*
X106549707Y-118171786D01*
X106549711Y-118171789D01*
X106592275Y-118200230D01*
X106637080Y-118253843D01*
X106645787Y-118323168D01*
X106626486Y-118372222D01*
X106560612Y-118470809D01*
X106560602Y-118470827D01*
X106500264Y-118616498D01*
X106500261Y-118616510D01*
X106469500Y-118771153D01*
X106469500Y-118928846D01*
X106500261Y-119083489D01*
X106500264Y-119083501D01*
X106560602Y-119229172D01*
X106560609Y-119229185D01*
X106648210Y-119360288D01*
X106648213Y-119360292D01*
X106759707Y-119471786D01*
X106759711Y-119471789D01*
X106890814Y-119559390D01*
X106890827Y-119559397D01*
X107036498Y-119619735D01*
X107036503Y-119619737D01*
X107155912Y-119643489D01*
X107191153Y-119650499D01*
X107191156Y-119650500D01*
X107191158Y-119650500D01*
X107348844Y-119650500D01*
X107348845Y-119650499D01*
X107503497Y-119619737D01*
X107646511Y-119560499D01*
X107649172Y-119559397D01*
X107649172Y-119559396D01*
X107649179Y-119559394D01*
X107780289Y-119471789D01*
X107891789Y-119360289D01*
X107979394Y-119229179D01*
X108021821Y-119126748D01*
X108065660Y-119072348D01*
X108131954Y-119050282D01*
X108199653Y-119067560D01*
X108209266Y-119073885D01*
X108248974Y-119102734D01*
X108259772Y-119110579D01*
X108377374Y-119170500D01*
X108463196Y-119214229D01*
X108463198Y-119214229D01*
X108463201Y-119214231D01*
X108579592Y-119252049D01*
X108680339Y-119284784D01*
X108905838Y-119320500D01*
X108905843Y-119320500D01*
X109134162Y-119320500D01*
X109359660Y-119284784D01*
X109422752Y-119264284D01*
X109576799Y-119214231D01*
X109780228Y-119110579D01*
X109964937Y-118976379D01*
X110126379Y-118814937D01*
X110260579Y-118630228D01*
X110364231Y-118426799D01*
X110434784Y-118209660D01*
X110447272Y-118130814D01*
X110470500Y-117984162D01*
X110470500Y-116155837D01*
X110434784Y-115930339D01*
X110390153Y-115792981D01*
X110364231Y-115713201D01*
X110364229Y-115713198D01*
X110364229Y-115713196D01*
X110272600Y-115533365D01*
X110260579Y-115509772D01*
X110126379Y-115325063D01*
X109964937Y-115163621D01*
X109780228Y-115029421D01*
X109765249Y-115021789D01*
X109576803Y-114925770D01*
X109359660Y-114855215D01*
X109134162Y-114819500D01*
X109134157Y-114819500D01*
X108905843Y-114819500D01*
X108905838Y-114819500D01*
X108680339Y-114855215D01*
X108463196Y-114925770D01*
X108259771Y-115029421D01*
X108075061Y-115163622D01*
X107913622Y-115325061D01*
X107779421Y-115509771D01*
X107675770Y-115713196D01*
X107605538Y-115929349D01*
X107566100Y-115987024D01*
X107501741Y-116014222D01*
X107459676Y-116010421D01*
X107459472Y-116011451D01*
X107298845Y-115979500D01*
X107298842Y-115979500D01*
X107141158Y-115979500D01*
X107141155Y-115979500D01*
X106986510Y-116010261D01*
X106986498Y-116010264D01*
X106840827Y-116070602D01*
X106840814Y-116070609D01*
X106709711Y-116158210D01*
X106709707Y-116158213D01*
X106598213Y-116269707D01*
X106598210Y-116269711D01*
X106510609Y-116400814D01*
X106510604Y-116400824D01*
X106455869Y-116532966D01*
X106412028Y-116587369D01*
X106345733Y-116609434D01*
X106278034Y-116592155D01*
X106245452Y-116564174D01*
X106241787Y-116559708D01*
X106130292Y-116448213D01*
X106130288Y-116448210D01*
X105999185Y-116360609D01*
X105999172Y-116360602D01*
X105853501Y-116300264D01*
X105853489Y-116300261D01*
X105698845Y-116269500D01*
X105698842Y-116269500D01*
X105541158Y-116269500D01*
X105541155Y-116269500D01*
X105386510Y-116300261D01*
X105386498Y-116300264D01*
X105240827Y-116360602D01*
X105240814Y-116360609D01*
X105109711Y-116448210D01*
X105109707Y-116448213D01*
X104998213Y-116559707D01*
X104998210Y-116559711D01*
X104910609Y-116690814D01*
X104910602Y-116690827D01*
X104850264Y-116836498D01*
X104850261Y-116836510D01*
X104819500Y-116991153D01*
X101820499Y-116991153D01*
X101811020Y-116943501D01*
X101789737Y-116836503D01*
X101785426Y-116826095D01*
X101729397Y-116690827D01*
X101729390Y-116690814D01*
X101641789Y-116559711D01*
X101641786Y-116559707D01*
X101530292Y-116448213D01*
X101530288Y-116448210D01*
X101399185Y-116360609D01*
X101399172Y-116360602D01*
X101253501Y-116300264D01*
X101253489Y-116300261D01*
X101098845Y-116269500D01*
X101098842Y-116269500D01*
X100941158Y-116269500D01*
X100941155Y-116269500D01*
X100786510Y-116300261D01*
X100786498Y-116300264D01*
X100640827Y-116360602D01*
X100640816Y-116360608D01*
X100553791Y-116418756D01*
X100487113Y-116439633D01*
X100419733Y-116421148D01*
X100373044Y-116369168D01*
X100370346Y-116363120D01*
X100369394Y-116360821D01*
X100369393Y-116360819D01*
X100369392Y-116360817D01*
X100369390Y-116360814D01*
X100281789Y-116229711D01*
X100281786Y-116229707D01*
X100170292Y-116118213D01*
X100170288Y-116118210D01*
X100039185Y-116030609D01*
X100039172Y-116030602D01*
X99893501Y-115970264D01*
X99893489Y-115970261D01*
X99738845Y-115939500D01*
X99738842Y-115939500D01*
X99581158Y-115939500D01*
X99581155Y-115939500D01*
X99426510Y-115970261D01*
X99426498Y-115970264D01*
X99280827Y-116030602D01*
X99280816Y-116030608D01*
X99233751Y-116062056D01*
X99167073Y-116082933D01*
X99099693Y-116064448D01*
X99053003Y-116012468D01*
X99042388Y-115978350D01*
X99034784Y-115930339D01*
X98990153Y-115792981D01*
X98964231Y-115713201D01*
X98964229Y-115713198D01*
X98964229Y-115713196D01*
X98872600Y-115533365D01*
X98860579Y-115509772D01*
X98726379Y-115325063D01*
X98564937Y-115163621D01*
X98380228Y-115029421D01*
X98365249Y-115021789D01*
X98176803Y-114925770D01*
X97959660Y-114855215D01*
X97734162Y-114819500D01*
X97734157Y-114819500D01*
X97505843Y-114819500D01*
X97505838Y-114819500D01*
X97280339Y-114855215D01*
X97063196Y-114925770D01*
X96859771Y-115029421D01*
X96675061Y-115163622D01*
X96513622Y-115325061D01*
X96379421Y-115509771D01*
X96275770Y-115713196D01*
X96205215Y-115930339D01*
X96169500Y-116155837D01*
X96169500Y-116938349D01*
X96149815Y-117005388D01*
X96097011Y-117051143D01*
X96027853Y-117061087D01*
X95964297Y-117032062D01*
X95926523Y-116973284D01*
X95922280Y-116952233D01*
X95904993Y-116798814D01*
X95900312Y-116757268D01*
X95840316Y-116494409D01*
X95834050Y-116476503D01*
X95810679Y-116409711D01*
X95751267Y-116239921D01*
X95634284Y-115997003D01*
X95490838Y-115768711D01*
X95322734Y-115557915D01*
X95166009Y-115401190D01*
X95132524Y-115339867D01*
X95137508Y-115270175D01*
X95179380Y-115214242D01*
X95244844Y-115189825D01*
X95277882Y-115191892D01*
X95321155Y-115200500D01*
X95321158Y-115200500D01*
X95478844Y-115200500D01*
X95478845Y-115200499D01*
X95633497Y-115169737D01*
X95779179Y-115109394D01*
X95910289Y-115021789D01*
X96021789Y-114910289D01*
X96109394Y-114779179D01*
X96110807Y-114775769D01*
X96143376Y-114697139D01*
X96169737Y-114633497D01*
X96200500Y-114478842D01*
X96200500Y-114321158D01*
X96200500Y-114321155D01*
X96200499Y-114321153D01*
X96176170Y-114198846D01*
X96169737Y-114166503D01*
X96167386Y-114160827D01*
X96109397Y-114020827D01*
X96109390Y-114020814D01*
X96021789Y-113889711D01*
X96021786Y-113889707D01*
X95910292Y-113778213D01*
X95910288Y-113778210D01*
X95779185Y-113690609D01*
X95779172Y-113690602D01*
X95633501Y-113630264D01*
X95633489Y-113630261D01*
X95478845Y-113599500D01*
X95478842Y-113599500D01*
X95321158Y-113599500D01*
X95321155Y-113599500D01*
X95166510Y-113630261D01*
X95166498Y-113630264D01*
X95020827Y-113690602D01*
X95020814Y-113690609D01*
X94889711Y-113778210D01*
X94889706Y-113778214D01*
X94847813Y-113820107D01*
X94786490Y-113853591D01*
X94716798Y-113848606D01*
X94660865Y-113806734D01*
X94645572Y-113779877D01*
X94629397Y-113740827D01*
X94629390Y-113740814D01*
X94541789Y-113609711D01*
X94541786Y-113609707D01*
X94430292Y-113498213D01*
X94430288Y-113498210D01*
X94299185Y-113410609D01*
X94299172Y-113410602D01*
X94153501Y-113350264D01*
X94153489Y-113350261D01*
X93998845Y-113319500D01*
X93998842Y-113319500D01*
X93841158Y-113319500D01*
X93841155Y-113319500D01*
X93686510Y-113350261D01*
X93686498Y-113350264D01*
X93540827Y-113410602D01*
X93540814Y-113410609D01*
X93409711Y-113498210D01*
X93409707Y-113498213D01*
X93298213Y-113609707D01*
X93298210Y-113609711D01*
X93210609Y-113740814D01*
X93210602Y-113740827D01*
X93150264Y-113886498D01*
X93150261Y-113886510D01*
X93119500Y-114041153D01*
X93119500Y-114198846D01*
X93150261Y-114353489D01*
X93150264Y-114353501D01*
X93210602Y-114499172D01*
X93210609Y-114499185D01*
X93272161Y-114591303D01*
X93293039Y-114657980D01*
X93274555Y-114725361D01*
X93222576Y-114772051D01*
X93182943Y-114783414D01*
X93127280Y-114789686D01*
X93127268Y-114789688D01*
X92864405Y-114849684D01*
X92864397Y-114849687D01*
X92609917Y-114938734D01*
X92367005Y-115055714D01*
X92138712Y-115199161D01*
X91927915Y-115367265D01*
X91737265Y-115557915D01*
X91569161Y-115768712D01*
X91425714Y-115997005D01*
X91308734Y-116239917D01*
X91219687Y-116494397D01*
X91219684Y-116494405D01*
X91159688Y-116757268D01*
X91159686Y-116757280D01*
X91129500Y-117025186D01*
X91129500Y-117218061D01*
X91109815Y-117285100D01*
X91057011Y-117330855D01*
X90987853Y-117340799D01*
X90924297Y-117311774D01*
X90886523Y-117252996D01*
X90885232Y-117248254D01*
X90845298Y-117089185D01*
X90803390Y-116922252D01*
X90801003Y-116910268D01*
X90747166Y-116547107D01*
X90745972Y-116534924D01*
X90745703Y-116529369D01*
X90728216Y-116168242D01*
X90728227Y-116156024D01*
X90744737Y-115828725D01*
X90744878Y-115826390D01*
X90745726Y-115814256D01*
X90749298Y-115801125D01*
X90749445Y-115761106D01*
X90749731Y-115757021D01*
X90749874Y-115756634D01*
X90750046Y-115753318D01*
X90750199Y-115751789D01*
X90753615Y-115717683D01*
X90751356Y-115703861D01*
X90749733Y-115683402D01*
X90749785Y-115669488D01*
X90823204Y-95811609D01*
X90843136Y-95744643D01*
X90896109Y-95699084D01*
X90946716Y-95688069D01*
X99506357Y-95654560D01*
X99573472Y-95673982D01*
G37*
%TD.AperFunction*%
M02*
