%TF.GenerationSoftware,KiCad,Pcbnew,9.0.3*%
%TF.CreationDate,2025-10-08T16:43:24+01:00*%
%TF.ProjectId,power_bank,706f7765-725f-4626-916e-6b2e6b696361,rev?*%
%TF.SameCoordinates,Original*%
%TF.FileFunction,Paste,Top*%
%TF.FilePolarity,Positive*%
%FSLAX46Y46*%
G04 Gerber Fmt 4.6, Leading zero omitted, Abs format (unit mm)*
G04 Created by KiCad (PCBNEW 9.0.3) date 2025-10-08 16:43:24*
%MOMM*%
%LPD*%
G01*
G04 APERTURE LIST*
G04 Aperture macros list*
%AMRoundRect*
0 Rectangle with rounded corners*
0 $1 Rounding radius*
0 $2 $3 $4 $5 $6 $7 $8 $9 X,Y pos of 4 corners*
0 Add a 4 corners polygon primitive as box body*
4,1,4,$2,$3,$4,$5,$6,$7,$8,$9,$2,$3,0*
0 Add four circle primitives for the rounded corners*
1,1,$1+$1,$2,$3*
1,1,$1+$1,$4,$5*
1,1,$1+$1,$6,$7*
1,1,$1+$1,$8,$9*
0 Add four rect primitives between the rounded corners*
20,1,$1+$1,$2,$3,$4,$5,0*
20,1,$1+$1,$4,$5,$6,$7,0*
20,1,$1+$1,$6,$7,$8,$9,0*
20,1,$1+$1,$8,$9,$2,$3,0*%
G04 Aperture macros list end*
%ADD10RoundRect,0.225000X-0.250000X0.225000X-0.250000X-0.225000X0.250000X-0.225000X0.250000X0.225000X0*%
%ADD11RoundRect,0.218750X-0.256250X0.218750X-0.256250X-0.218750X0.256250X-0.218750X0.256250X0.218750X0*%
%ADD12RoundRect,0.225000X-0.225000X-0.250000X0.225000X-0.250000X0.225000X0.250000X-0.225000X0.250000X0*%
%ADD13RoundRect,0.250000X0.830000X0.310000X-0.830000X0.310000X-0.830000X-0.310000X0.830000X-0.310000X0*%
%ADD14RoundRect,0.232500X-0.232500X-0.232500X0.232500X-0.232500X0.232500X0.232500X-0.232500X0.232500X0*%
%ADD15RoundRect,0.062500X-0.350000X-0.062500X0.350000X-0.062500X0.350000X0.062500X-0.350000X0.062500X0*%
%ADD16RoundRect,0.062500X-0.062500X-0.350000X0.062500X-0.350000X0.062500X0.350000X-0.062500X0.350000X0*%
%ADD17RoundRect,0.200000X-0.275000X0.200000X-0.275000X-0.200000X0.275000X-0.200000X0.275000X0.200000X0*%
%ADD18RoundRect,0.218750X0.218750X0.256250X-0.218750X0.256250X-0.218750X-0.256250X0.218750X-0.256250X0*%
%ADD19RoundRect,0.218750X0.256250X-0.218750X0.256250X0.218750X-0.256250X0.218750X-0.256250X-0.218750X0*%
%ADD20RoundRect,0.250000X-0.250000X-0.475000X0.250000X-0.475000X0.250000X0.475000X-0.250000X0.475000X0*%
%ADD21RoundRect,0.200000X0.275000X-0.200000X0.275000X0.200000X-0.275000X0.200000X-0.275000X-0.200000X0*%
%ADD22RoundRect,0.250000X0.250000X0.475000X-0.250000X0.475000X-0.250000X-0.475000X0.250000X-0.475000X0*%
%ADD23R,1.300000X0.450000*%
%ADD24R,1.100000X2.500000*%
%ADD25R,2.700000X3.600000*%
%ADD26RoundRect,0.250000X0.475000X-0.250000X0.475000X0.250000X-0.475000X0.250000X-0.475000X-0.250000X0*%
%ADD27RoundRect,0.150000X-0.150000X-0.500000X0.150000X-0.500000X0.150000X0.500000X-0.150000X0.500000X0*%
%ADD28RoundRect,0.075000X-0.075000X-0.575000X0.075000X-0.575000X0.075000X0.575000X-0.075000X0.575000X0*%
G04 APERTURE END LIST*
D10*
%TO.C,CIN1..7*%
X121650000Y-98760000D03*
X121650000Y-100310000D03*
%TD*%
D11*
%TO.C,D6*%
X103480000Y-96202500D03*
X103480000Y-97777500D03*
%TD*%
D10*
%TO.C,CIN1..8*%
X120160000Y-98590000D03*
X120160000Y-100140000D03*
%TD*%
D12*
%TO.C,CIN1..3*%
X114535000Y-107870000D03*
X116085000Y-107870000D03*
%TD*%
D13*
%TO.C,SW1*%
X141985000Y-101960000D03*
X135255000Y-101960000D03*
%TD*%
D14*
%TO.C,U4*%
X113830000Y-99960000D03*
X113830000Y-101110000D03*
X113830000Y-102260000D03*
X113830000Y-103410000D03*
X114980000Y-99960000D03*
X114980000Y-101110000D03*
X114980000Y-102260000D03*
X114980000Y-103410000D03*
X116130000Y-99960000D03*
X116130000Y-101110000D03*
X116130000Y-102260000D03*
X116130000Y-103410000D03*
X117280000Y-99960000D03*
X117280000Y-101110000D03*
X117280000Y-102260000D03*
X117280000Y-103410000D03*
D15*
X112617500Y-99435000D03*
X112617500Y-99935000D03*
X112617500Y-100435000D03*
X112617500Y-100935000D03*
X112617500Y-101435000D03*
X112617500Y-101935000D03*
X112617500Y-102435000D03*
X112617500Y-102935000D03*
X112617500Y-103435000D03*
X112617500Y-103935000D03*
D16*
X113305000Y-104622500D03*
X113805000Y-104622500D03*
X114305000Y-104622500D03*
X114805000Y-104622500D03*
X115305000Y-104622500D03*
X115805000Y-104622500D03*
X116305000Y-104622500D03*
X116805000Y-104622500D03*
X117305000Y-104622500D03*
X117805000Y-104622500D03*
D15*
X118492500Y-103935000D03*
X118492500Y-103435000D03*
X118492500Y-102935000D03*
X118492500Y-102435000D03*
X118492500Y-101935000D03*
X118492500Y-101435000D03*
X118492500Y-100935000D03*
X118492500Y-100435000D03*
X118492500Y-99935000D03*
X118492500Y-99435000D03*
D16*
X117805000Y-98747500D03*
X117305000Y-98747500D03*
X116805000Y-98747500D03*
X116305000Y-98747500D03*
X115805000Y-98747500D03*
X115305000Y-98747500D03*
X114805000Y-98747500D03*
X114305000Y-98747500D03*
X113805000Y-98747500D03*
X113305000Y-98747500D03*
%TD*%
D17*
%TO.C,R4*%
X110130000Y-96075000D03*
X110130000Y-97725000D03*
%TD*%
D18*
%TO.C,D4*%
X121247500Y-108180000D03*
X119672500Y-108180000D03*
%TD*%
D19*
%TO.C,D1*%
X108550000Y-97655000D03*
X108550000Y-96080000D03*
%TD*%
D20*
%TO.C,CIN1..10*%
X133640000Y-111370000D03*
X135540000Y-111370000D03*
%TD*%
D17*
%TO.C,R1*%
X124240000Y-111025000D03*
X124240000Y-112675000D03*
%TD*%
D21*
%TO.C,R5*%
X101840000Y-97705000D03*
X101840000Y-96055000D03*
%TD*%
D22*
%TO.C,CIN1..11*%
X106620000Y-111450000D03*
X104720000Y-111450000D03*
%TD*%
D23*
%TO.C,J4*%
X139335000Y-110935000D03*
X139335000Y-110285000D03*
X139335000Y-109635000D03*
X139335000Y-108985000D03*
X139335000Y-108335000D03*
%TD*%
D17*
%TO.C,R9*%
X109975000Y-105002500D03*
X109975000Y-106652500D03*
%TD*%
%TO.C,R8*%
X111525000Y-105032500D03*
X111525000Y-106682500D03*
%TD*%
%TO.C,R7*%
X119615000Y-105037500D03*
X119615000Y-106687500D03*
%TD*%
%TO.C,R12*%
X118120000Y-106110000D03*
X118120000Y-107760000D03*
%TD*%
D20*
%TO.C,CIN1..12*%
X119420000Y-111470000D03*
X121320000Y-111470000D03*
%TD*%
D24*
%TO.C,J1*%
X106820000Y-114320000D03*
X104320000Y-114320000D03*
X102320000Y-114320000D03*
X99820000Y-114320000D03*
%TD*%
D11*
%TO.C,D5*%
X106810000Y-96162500D03*
X106810000Y-97737500D03*
%TD*%
D17*
%TO.C,R11*%
X137180000Y-96190000D03*
X137180000Y-97840000D03*
%TD*%
D25*
%TO.C,L2*%
X101200000Y-104820000D03*
X92900000Y-104820000D03*
%TD*%
D24*
%TO.C,J2*%
X134520000Y-114170000D03*
X132020000Y-114170000D03*
X130020000Y-114170000D03*
X127520000Y-114170000D03*
%TD*%
D17*
%TO.C,R10*%
X133080000Y-100905000D03*
X133080000Y-102555000D03*
%TD*%
D12*
%TO.C,CIN1..4*%
X108535000Y-103320000D03*
X110085000Y-103320000D03*
%TD*%
D26*
%TO.C,CIN1..9*%
X135250000Y-107280000D03*
X135250000Y-105380000D03*
%TD*%
D19*
%TO.C,D2*%
X105150000Y-97750000D03*
X105150000Y-96175000D03*
%TD*%
D27*
%TO.C,J5*%
X113330000Y-114035000D03*
X114130000Y-114035000D03*
D28*
X115280000Y-114035000D03*
X116280000Y-114035000D03*
X116780000Y-114035000D03*
X117780000Y-114035000D03*
D27*
X118930000Y-114035000D03*
X119730000Y-114035000D03*
X119730000Y-114035000D03*
X118930000Y-114035000D03*
D28*
X118280000Y-114035000D03*
X117280000Y-114035000D03*
X115780000Y-114035000D03*
X114780000Y-114035000D03*
D27*
X114130000Y-114035000D03*
X113330000Y-114035000D03*
%TD*%
M02*
