%TF.GenerationSoftware,KiCad,Pcbnew,9.0.3*%
%TF.CreationDate,2025-09-25T12:47:50+01:00*%
%TF.ProjectId,power_bank,706f7765-725f-4626-916e-6b2e6b696361,rev?*%
%TF.SameCoordinates,Original*%
%TF.FileFunction,Legend,Top*%
%TF.FilePolarity,Positive*%
%FSLAX46Y46*%
G04 Gerber Fmt 4.6, Leading zero omitted, Abs format (unit mm)*
G04 Created by KiCad (PCBNEW 9.0.3) date 2025-09-25 12:47:50*
%MOMM*%
%LPD*%
G01*
G04 APERTURE LIST*
%ADD10C,0.150000*%
%ADD11C,0.100000*%
%ADD12C,0.300000*%
%ADD13C,0.120000*%
%ADD14C,0.000000*%
%ADD15C,0.200000*%
%ADD16C,0.127000*%
G04 APERTURE END LIST*
D10*
X123849580Y-99490951D02*
X123897200Y-99538570D01*
X123897200Y-99538570D02*
X123944819Y-99681427D01*
X123944819Y-99681427D02*
X123944819Y-99776665D01*
X123944819Y-99776665D02*
X123897200Y-99919522D01*
X123897200Y-99919522D02*
X123801961Y-100014760D01*
X123801961Y-100014760D02*
X123706723Y-100062379D01*
X123706723Y-100062379D02*
X123516247Y-100109998D01*
X123516247Y-100109998D02*
X123373390Y-100109998D01*
X123373390Y-100109998D02*
X123182914Y-100062379D01*
X123182914Y-100062379D02*
X123087676Y-100014760D01*
X123087676Y-100014760D02*
X122992438Y-99919522D01*
X122992438Y-99919522D02*
X122944819Y-99776665D01*
X122944819Y-99776665D02*
X122944819Y-99681427D01*
X122944819Y-99681427D02*
X122992438Y-99538570D01*
X122992438Y-99538570D02*
X123040057Y-99490951D01*
X123944819Y-99062379D02*
X122944819Y-99062379D01*
X123944819Y-98586189D02*
X122944819Y-98586189D01*
X122944819Y-98586189D02*
X123944819Y-98014761D01*
X123944819Y-98014761D02*
X122944819Y-98014761D01*
X123944819Y-97014761D02*
X123944819Y-97586189D01*
X123944819Y-97300475D02*
X122944819Y-97300475D01*
X122944819Y-97300475D02*
X123087676Y-97395713D01*
X123087676Y-97395713D02*
X123182914Y-97490951D01*
X123182914Y-97490951D02*
X123230533Y-97586189D01*
X123849580Y-96586189D02*
X123897200Y-96538570D01*
X123897200Y-96538570D02*
X123944819Y-96586189D01*
X123944819Y-96586189D02*
X123897200Y-96633808D01*
X123897200Y-96633808D02*
X123849580Y-96586189D01*
X123849580Y-96586189D02*
X123944819Y-96586189D01*
X123849580Y-96109999D02*
X123897200Y-96062380D01*
X123897200Y-96062380D02*
X123944819Y-96109999D01*
X123944819Y-96109999D02*
X123897200Y-96157618D01*
X123897200Y-96157618D02*
X123849580Y-96109999D01*
X123849580Y-96109999D02*
X123944819Y-96109999D01*
X122944819Y-95729047D02*
X122944819Y-95062381D01*
X122944819Y-95062381D02*
X123944819Y-95490952D01*
X105364819Y-97728094D02*
X104364819Y-97728094D01*
X104364819Y-97728094D02*
X104364819Y-97489999D01*
X104364819Y-97489999D02*
X104412438Y-97347142D01*
X104412438Y-97347142D02*
X104507676Y-97251904D01*
X104507676Y-97251904D02*
X104602914Y-97204285D01*
X104602914Y-97204285D02*
X104793390Y-97156666D01*
X104793390Y-97156666D02*
X104936247Y-97156666D01*
X104936247Y-97156666D02*
X105126723Y-97204285D01*
X105126723Y-97204285D02*
X105221961Y-97251904D01*
X105221961Y-97251904D02*
X105317200Y-97347142D01*
X105317200Y-97347142D02*
X105364819Y-97489999D01*
X105364819Y-97489999D02*
X105364819Y-97728094D01*
X104364819Y-96299523D02*
X104364819Y-96489999D01*
X104364819Y-96489999D02*
X104412438Y-96585237D01*
X104412438Y-96585237D02*
X104460057Y-96632856D01*
X104460057Y-96632856D02*
X104602914Y-96728094D01*
X104602914Y-96728094D02*
X104793390Y-96775713D01*
X104793390Y-96775713D02*
X105174342Y-96775713D01*
X105174342Y-96775713D02*
X105269580Y-96728094D01*
X105269580Y-96728094D02*
X105317200Y-96680475D01*
X105317200Y-96680475D02*
X105364819Y-96585237D01*
X105364819Y-96585237D02*
X105364819Y-96394761D01*
X105364819Y-96394761D02*
X105317200Y-96299523D01*
X105317200Y-96299523D02*
X105269580Y-96251904D01*
X105269580Y-96251904D02*
X105174342Y-96204285D01*
X105174342Y-96204285D02*
X104936247Y-96204285D01*
X104936247Y-96204285D02*
X104841009Y-96251904D01*
X104841009Y-96251904D02*
X104793390Y-96299523D01*
X104793390Y-96299523D02*
X104745771Y-96394761D01*
X104745771Y-96394761D02*
X104745771Y-96585237D01*
X104745771Y-96585237D02*
X104793390Y-96680475D01*
X104793390Y-96680475D02*
X104841009Y-96728094D01*
X104841009Y-96728094D02*
X104936247Y-96775713D01*
X121949580Y-101245951D02*
X121997200Y-101293570D01*
X121997200Y-101293570D02*
X122044819Y-101436427D01*
X122044819Y-101436427D02*
X122044819Y-101531665D01*
X122044819Y-101531665D02*
X121997200Y-101674522D01*
X121997200Y-101674522D02*
X121901961Y-101769760D01*
X121901961Y-101769760D02*
X121806723Y-101817379D01*
X121806723Y-101817379D02*
X121616247Y-101864998D01*
X121616247Y-101864998D02*
X121473390Y-101864998D01*
X121473390Y-101864998D02*
X121282914Y-101817379D01*
X121282914Y-101817379D02*
X121187676Y-101769760D01*
X121187676Y-101769760D02*
X121092438Y-101674522D01*
X121092438Y-101674522D02*
X121044819Y-101531665D01*
X121044819Y-101531665D02*
X121044819Y-101436427D01*
X121044819Y-101436427D02*
X121092438Y-101293570D01*
X121092438Y-101293570D02*
X121140057Y-101245951D01*
X122044819Y-100817379D02*
X121044819Y-100817379D01*
X122044819Y-100341189D02*
X121044819Y-100341189D01*
X121044819Y-100341189D02*
X122044819Y-99769761D01*
X122044819Y-99769761D02*
X121044819Y-99769761D01*
X122044819Y-98769761D02*
X122044819Y-99341189D01*
X122044819Y-99055475D02*
X121044819Y-99055475D01*
X121044819Y-99055475D02*
X121187676Y-99150713D01*
X121187676Y-99150713D02*
X121282914Y-99245951D01*
X121282914Y-99245951D02*
X121330533Y-99341189D01*
X121949580Y-98341189D02*
X121997200Y-98293570D01*
X121997200Y-98293570D02*
X122044819Y-98341189D01*
X122044819Y-98341189D02*
X121997200Y-98388808D01*
X121997200Y-98388808D02*
X121949580Y-98341189D01*
X121949580Y-98341189D02*
X122044819Y-98341189D01*
X121949580Y-97864999D02*
X121997200Y-97817380D01*
X121997200Y-97817380D02*
X122044819Y-97864999D01*
X122044819Y-97864999D02*
X121997200Y-97912618D01*
X121997200Y-97912618D02*
X121949580Y-97864999D01*
X121949580Y-97864999D02*
X122044819Y-97864999D01*
X121473390Y-97245952D02*
X121425771Y-97341190D01*
X121425771Y-97341190D02*
X121378152Y-97388809D01*
X121378152Y-97388809D02*
X121282914Y-97436428D01*
X121282914Y-97436428D02*
X121235295Y-97436428D01*
X121235295Y-97436428D02*
X121140057Y-97388809D01*
X121140057Y-97388809D02*
X121092438Y-97341190D01*
X121092438Y-97341190D02*
X121044819Y-97245952D01*
X121044819Y-97245952D02*
X121044819Y-97055476D01*
X121044819Y-97055476D02*
X121092438Y-96960238D01*
X121092438Y-96960238D02*
X121140057Y-96912619D01*
X121140057Y-96912619D02*
X121235295Y-96865000D01*
X121235295Y-96865000D02*
X121282914Y-96865000D01*
X121282914Y-96865000D02*
X121378152Y-96912619D01*
X121378152Y-96912619D02*
X121425771Y-96960238D01*
X121425771Y-96960238D02*
X121473390Y-97055476D01*
X121473390Y-97055476D02*
X121473390Y-97245952D01*
X121473390Y-97245952D02*
X121521009Y-97341190D01*
X121521009Y-97341190D02*
X121568628Y-97388809D01*
X121568628Y-97388809D02*
X121663866Y-97436428D01*
X121663866Y-97436428D02*
X121854342Y-97436428D01*
X121854342Y-97436428D02*
X121949580Y-97388809D01*
X121949580Y-97388809D02*
X121997200Y-97341190D01*
X121997200Y-97341190D02*
X122044819Y-97245952D01*
X122044819Y-97245952D02*
X122044819Y-97055476D01*
X122044819Y-97055476D02*
X121997200Y-96960238D01*
X121997200Y-96960238D02*
X121949580Y-96912619D01*
X121949580Y-96912619D02*
X121854342Y-96865000D01*
X121854342Y-96865000D02*
X121663866Y-96865000D01*
X121663866Y-96865000D02*
X121568628Y-96912619D01*
X121568628Y-96912619D02*
X121521009Y-96960238D01*
X121521009Y-96960238D02*
X121473390Y-97055476D01*
X113334048Y-109639580D02*
X113286429Y-109687200D01*
X113286429Y-109687200D02*
X113143572Y-109734819D01*
X113143572Y-109734819D02*
X113048334Y-109734819D01*
X113048334Y-109734819D02*
X112905477Y-109687200D01*
X112905477Y-109687200D02*
X112810239Y-109591961D01*
X112810239Y-109591961D02*
X112762620Y-109496723D01*
X112762620Y-109496723D02*
X112715001Y-109306247D01*
X112715001Y-109306247D02*
X112715001Y-109163390D01*
X112715001Y-109163390D02*
X112762620Y-108972914D01*
X112762620Y-108972914D02*
X112810239Y-108877676D01*
X112810239Y-108877676D02*
X112905477Y-108782438D01*
X112905477Y-108782438D02*
X113048334Y-108734819D01*
X113048334Y-108734819D02*
X113143572Y-108734819D01*
X113143572Y-108734819D02*
X113286429Y-108782438D01*
X113286429Y-108782438D02*
X113334048Y-108830057D01*
X113762620Y-109734819D02*
X113762620Y-108734819D01*
X114238810Y-109734819D02*
X114238810Y-108734819D01*
X114238810Y-108734819D02*
X114810238Y-109734819D01*
X114810238Y-109734819D02*
X114810238Y-108734819D01*
X115810238Y-109734819D02*
X115238810Y-109734819D01*
X115524524Y-109734819D02*
X115524524Y-108734819D01*
X115524524Y-108734819D02*
X115429286Y-108877676D01*
X115429286Y-108877676D02*
X115334048Y-108972914D01*
X115334048Y-108972914D02*
X115238810Y-109020533D01*
X116238810Y-109639580D02*
X116286429Y-109687200D01*
X116286429Y-109687200D02*
X116238810Y-109734819D01*
X116238810Y-109734819D02*
X116191191Y-109687200D01*
X116191191Y-109687200D02*
X116238810Y-109639580D01*
X116238810Y-109639580D02*
X116238810Y-109734819D01*
X116715000Y-109639580D02*
X116762619Y-109687200D01*
X116762619Y-109687200D02*
X116715000Y-109734819D01*
X116715000Y-109734819D02*
X116667381Y-109687200D01*
X116667381Y-109687200D02*
X116715000Y-109639580D01*
X116715000Y-109639580D02*
X116715000Y-109734819D01*
X117095952Y-108734819D02*
X117714999Y-108734819D01*
X117714999Y-108734819D02*
X117381666Y-109115771D01*
X117381666Y-109115771D02*
X117524523Y-109115771D01*
X117524523Y-109115771D02*
X117619761Y-109163390D01*
X117619761Y-109163390D02*
X117667380Y-109211009D01*
X117667380Y-109211009D02*
X117714999Y-109306247D01*
X117714999Y-109306247D02*
X117714999Y-109544342D01*
X117714999Y-109544342D02*
X117667380Y-109639580D01*
X117667380Y-109639580D02*
X117619761Y-109687200D01*
X117619761Y-109687200D02*
X117524523Y-109734819D01*
X117524523Y-109734819D02*
X117238809Y-109734819D01*
X117238809Y-109734819D02*
X117143571Y-109687200D01*
X117143571Y-109687200D02*
X117095952Y-109639580D01*
X137286667Y-105477200D02*
X137429524Y-105524819D01*
X137429524Y-105524819D02*
X137667619Y-105524819D01*
X137667619Y-105524819D02*
X137762857Y-105477200D01*
X137762857Y-105477200D02*
X137810476Y-105429580D01*
X137810476Y-105429580D02*
X137858095Y-105334342D01*
X137858095Y-105334342D02*
X137858095Y-105239104D01*
X137858095Y-105239104D02*
X137810476Y-105143866D01*
X137810476Y-105143866D02*
X137762857Y-105096247D01*
X137762857Y-105096247D02*
X137667619Y-105048628D01*
X137667619Y-105048628D02*
X137477143Y-105001009D01*
X137477143Y-105001009D02*
X137381905Y-104953390D01*
X137381905Y-104953390D02*
X137334286Y-104905771D01*
X137334286Y-104905771D02*
X137286667Y-104810533D01*
X137286667Y-104810533D02*
X137286667Y-104715295D01*
X137286667Y-104715295D02*
X137334286Y-104620057D01*
X137334286Y-104620057D02*
X137381905Y-104572438D01*
X137381905Y-104572438D02*
X137477143Y-104524819D01*
X137477143Y-104524819D02*
X137715238Y-104524819D01*
X137715238Y-104524819D02*
X137858095Y-104572438D01*
X138191429Y-104524819D02*
X138429524Y-105524819D01*
X138429524Y-105524819D02*
X138620000Y-104810533D01*
X138620000Y-104810533D02*
X138810476Y-105524819D01*
X138810476Y-105524819D02*
X139048572Y-104524819D01*
X139953333Y-105524819D02*
X139381905Y-105524819D01*
X139667619Y-105524819D02*
X139667619Y-104524819D01*
X139667619Y-104524819D02*
X139572381Y-104667676D01*
X139572381Y-104667676D02*
X139477143Y-104762914D01*
X139477143Y-104762914D02*
X139381905Y-104810533D01*
D11*
X92024360Y-113412419D02*
X92214836Y-113412419D01*
X92214836Y-113412419D02*
X92310074Y-113460038D01*
X92310074Y-113460038D02*
X92405312Y-113555276D01*
X92405312Y-113555276D02*
X92452931Y-113745752D01*
X92452931Y-113745752D02*
X92452931Y-114079085D01*
X92452931Y-114079085D02*
X92405312Y-114269561D01*
X92405312Y-114269561D02*
X92310074Y-114364800D01*
X92310074Y-114364800D02*
X92214836Y-114412419D01*
X92214836Y-114412419D02*
X92024360Y-114412419D01*
X92024360Y-114412419D02*
X91929122Y-114364800D01*
X91929122Y-114364800D02*
X91833884Y-114269561D01*
X91833884Y-114269561D02*
X91786265Y-114079085D01*
X91786265Y-114079085D02*
X91786265Y-113745752D01*
X91786265Y-113745752D02*
X91833884Y-113555276D01*
X91833884Y-113555276D02*
X91929122Y-113460038D01*
X91929122Y-113460038D02*
X92024360Y-113412419D01*
X92881503Y-114317180D02*
X92929122Y-114364800D01*
X92929122Y-114364800D02*
X92881503Y-114412419D01*
X92881503Y-114412419D02*
X92833884Y-114364800D01*
X92833884Y-114364800D02*
X92881503Y-114317180D01*
X92881503Y-114317180D02*
X92881503Y-114412419D01*
X93357693Y-114412419D02*
X93357693Y-113412419D01*
X93929121Y-114412419D02*
X93500550Y-113840990D01*
X93929121Y-113412419D02*
X93357693Y-113983847D01*
X94786264Y-114412419D02*
X94786264Y-113888609D01*
X94786264Y-113888609D02*
X94738645Y-113793371D01*
X94738645Y-113793371D02*
X94643407Y-113745752D01*
X94643407Y-113745752D02*
X94452931Y-113745752D01*
X94452931Y-113745752D02*
X94357693Y-113793371D01*
X94786264Y-114364800D02*
X94691026Y-114412419D01*
X94691026Y-114412419D02*
X94452931Y-114412419D01*
X94452931Y-114412419D02*
X94357693Y-114364800D01*
X94357693Y-114364800D02*
X94310074Y-114269561D01*
X94310074Y-114269561D02*
X94310074Y-114174323D01*
X94310074Y-114174323D02*
X94357693Y-114079085D01*
X94357693Y-114079085D02*
X94452931Y-114031466D01*
X94452931Y-114031466D02*
X94691026Y-114031466D01*
X94691026Y-114031466D02*
X94786264Y-113983847D01*
X95262455Y-114412419D02*
X95262455Y-113745752D01*
X95262455Y-113936228D02*
X95310074Y-113840990D01*
X95310074Y-113840990D02*
X95357693Y-113793371D01*
X95357693Y-113793371D02*
X95452931Y-113745752D01*
X95452931Y-113745752D02*
X95548169Y-113745752D01*
X95881503Y-114412419D02*
X95881503Y-113745752D01*
X95881503Y-113412419D02*
X95833884Y-113460038D01*
X95833884Y-113460038D02*
X95881503Y-113507657D01*
X95881503Y-113507657D02*
X95929122Y-113460038D01*
X95929122Y-113460038D02*
X95881503Y-113412419D01*
X95881503Y-113412419D02*
X95881503Y-113507657D01*
X96357693Y-114412419D02*
X96357693Y-113745752D01*
X96357693Y-113840990D02*
X96405312Y-113793371D01*
X96405312Y-113793371D02*
X96500550Y-113745752D01*
X96500550Y-113745752D02*
X96643407Y-113745752D01*
X96643407Y-113745752D02*
X96738645Y-113793371D01*
X96738645Y-113793371D02*
X96786264Y-113888609D01*
X96786264Y-113888609D02*
X96786264Y-114412419D01*
X96786264Y-113888609D02*
X96833883Y-113793371D01*
X96833883Y-113793371D02*
X96929121Y-113745752D01*
X96929121Y-113745752D02*
X97071978Y-113745752D01*
X97071978Y-113745752D02*
X97167217Y-113793371D01*
X97167217Y-113793371D02*
X97214836Y-113888609D01*
X97214836Y-113888609D02*
X97214836Y-114412419D01*
D10*
X114793095Y-96839819D02*
X114793095Y-97649342D01*
X114793095Y-97649342D02*
X114840714Y-97744580D01*
X114840714Y-97744580D02*
X114888333Y-97792200D01*
X114888333Y-97792200D02*
X114983571Y-97839819D01*
X114983571Y-97839819D02*
X115174047Y-97839819D01*
X115174047Y-97839819D02*
X115269285Y-97792200D01*
X115269285Y-97792200D02*
X115316904Y-97744580D01*
X115316904Y-97744580D02*
X115364523Y-97649342D01*
X115364523Y-97649342D02*
X115364523Y-96839819D01*
X116269285Y-97173152D02*
X116269285Y-97839819D01*
X116031190Y-96792200D02*
X115793095Y-97506485D01*
X115793095Y-97506485D02*
X116412142Y-97506485D01*
X92768095Y-114764819D02*
X92768095Y-113764819D01*
X92768095Y-114241009D02*
X93339523Y-114241009D01*
X93339523Y-114764819D02*
X93339523Y-113764819D01*
X93768095Y-113860057D02*
X93815714Y-113812438D01*
X93815714Y-113812438D02*
X93910952Y-113764819D01*
X93910952Y-113764819D02*
X94149047Y-113764819D01*
X94149047Y-113764819D02*
X94244285Y-113812438D01*
X94244285Y-113812438D02*
X94291904Y-113860057D01*
X94291904Y-113860057D02*
X94339523Y-113955295D01*
X94339523Y-113955295D02*
X94339523Y-114050533D01*
X94339523Y-114050533D02*
X94291904Y-114193390D01*
X94291904Y-114193390D02*
X93720476Y-114764819D01*
X93720476Y-114764819D02*
X94339523Y-114764819D01*
X112014819Y-97066666D02*
X111538628Y-97399999D01*
X112014819Y-97638094D02*
X111014819Y-97638094D01*
X111014819Y-97638094D02*
X111014819Y-97257142D01*
X111014819Y-97257142D02*
X111062438Y-97161904D01*
X111062438Y-97161904D02*
X111110057Y-97114285D01*
X111110057Y-97114285D02*
X111205295Y-97066666D01*
X111205295Y-97066666D02*
X111348152Y-97066666D01*
X111348152Y-97066666D02*
X111443390Y-97114285D01*
X111443390Y-97114285D02*
X111491009Y-97161904D01*
X111491009Y-97161904D02*
X111538628Y-97257142D01*
X111538628Y-97257142D02*
X111538628Y-97638094D01*
X111348152Y-96209523D02*
X112014819Y-96209523D01*
X110967200Y-96447618D02*
X111681485Y-96685713D01*
X111681485Y-96685713D02*
X111681485Y-96066666D01*
X119721905Y-110064819D02*
X119721905Y-109064819D01*
X119721905Y-109064819D02*
X119960000Y-109064819D01*
X119960000Y-109064819D02*
X120102857Y-109112438D01*
X120102857Y-109112438D02*
X120198095Y-109207676D01*
X120198095Y-109207676D02*
X120245714Y-109302914D01*
X120245714Y-109302914D02*
X120293333Y-109493390D01*
X120293333Y-109493390D02*
X120293333Y-109636247D01*
X120293333Y-109636247D02*
X120245714Y-109826723D01*
X120245714Y-109826723D02*
X120198095Y-109921961D01*
X120198095Y-109921961D02*
X120102857Y-110017200D01*
X120102857Y-110017200D02*
X119960000Y-110064819D01*
X119960000Y-110064819D02*
X119721905Y-110064819D01*
X121150476Y-109398152D02*
X121150476Y-110064819D01*
X120912381Y-109017200D02*
X120674286Y-109731485D01*
X120674286Y-109731485D02*
X121293333Y-109731485D01*
D12*
X96818572Y-110099757D02*
X96675715Y-110028328D01*
X96675715Y-110028328D02*
X96461429Y-110028328D01*
X96461429Y-110028328D02*
X96247143Y-110099757D01*
X96247143Y-110099757D02*
X96104286Y-110242614D01*
X96104286Y-110242614D02*
X96032857Y-110385471D01*
X96032857Y-110385471D02*
X95961429Y-110671185D01*
X95961429Y-110671185D02*
X95961429Y-110885471D01*
X95961429Y-110885471D02*
X96032857Y-111171185D01*
X96032857Y-111171185D02*
X96104286Y-111314042D01*
X96104286Y-111314042D02*
X96247143Y-111456900D01*
X96247143Y-111456900D02*
X96461429Y-111528328D01*
X96461429Y-111528328D02*
X96604286Y-111528328D01*
X96604286Y-111528328D02*
X96818572Y-111456900D01*
X96818572Y-111456900D02*
X96890000Y-111385471D01*
X96890000Y-111385471D02*
X96890000Y-110885471D01*
X96890000Y-110885471D02*
X96604286Y-110885471D01*
X97747143Y-110028328D02*
X97747143Y-110385471D01*
X97390000Y-110242614D02*
X97747143Y-110385471D01*
X97747143Y-110385471D02*
X98104286Y-110242614D01*
X97532857Y-110671185D02*
X97747143Y-110385471D01*
X97747143Y-110385471D02*
X97961429Y-110671185D01*
X98890000Y-110028328D02*
X98890000Y-110385471D01*
X98532857Y-110242614D02*
X98890000Y-110385471D01*
X98890000Y-110385471D02*
X99247143Y-110242614D01*
X98675714Y-110671185D02*
X98890000Y-110385471D01*
X98890000Y-110385471D02*
X99104286Y-110671185D01*
X100032857Y-110028328D02*
X100032857Y-110385471D01*
X99675714Y-110242614D02*
X100032857Y-110385471D01*
X100032857Y-110385471D02*
X100390000Y-110242614D01*
X99818571Y-110671185D02*
X100032857Y-110385471D01*
X100032857Y-110385471D02*
X100247143Y-110671185D01*
D11*
X101515312Y-119127180D02*
X101467693Y-119174800D01*
X101467693Y-119174800D02*
X101324836Y-119222419D01*
X101324836Y-119222419D02*
X101229598Y-119222419D01*
X101229598Y-119222419D02*
X101086741Y-119174800D01*
X101086741Y-119174800D02*
X100991503Y-119079561D01*
X100991503Y-119079561D02*
X100943884Y-118984323D01*
X100943884Y-118984323D02*
X100896265Y-118793847D01*
X100896265Y-118793847D02*
X100896265Y-118650990D01*
X100896265Y-118650990D02*
X100943884Y-118460514D01*
X100943884Y-118460514D02*
X100991503Y-118365276D01*
X100991503Y-118365276D02*
X101086741Y-118270038D01*
X101086741Y-118270038D02*
X101229598Y-118222419D01*
X101229598Y-118222419D02*
X101324836Y-118222419D01*
X101324836Y-118222419D02*
X101467693Y-118270038D01*
X101467693Y-118270038D02*
X101515312Y-118317657D01*
X101943884Y-119222419D02*
X101943884Y-118222419D01*
X101943884Y-118698609D02*
X102515312Y-118698609D01*
X102515312Y-119222419D02*
X102515312Y-118222419D01*
X102991503Y-118698609D02*
X103324836Y-118698609D01*
X103467693Y-119222419D02*
X102991503Y-119222419D01*
X102991503Y-119222419D02*
X102991503Y-118222419D01*
X102991503Y-118222419D02*
X103467693Y-118222419D01*
X104229598Y-118698609D02*
X103896265Y-118698609D01*
X103896265Y-119222419D02*
X103896265Y-118222419D01*
X103896265Y-118222419D02*
X104372455Y-118222419D01*
X105515313Y-119222419D02*
X105515313Y-118222419D01*
X106086741Y-119222419D02*
X105658170Y-118650990D01*
X106086741Y-118222419D02*
X105515313Y-118793847D01*
D10*
X107574819Y-97605594D02*
X106574819Y-97605594D01*
X106574819Y-97605594D02*
X106574819Y-97367499D01*
X106574819Y-97367499D02*
X106622438Y-97224642D01*
X106622438Y-97224642D02*
X106717676Y-97129404D01*
X106717676Y-97129404D02*
X106812914Y-97081785D01*
X106812914Y-97081785D02*
X107003390Y-97034166D01*
X107003390Y-97034166D02*
X107146247Y-97034166D01*
X107146247Y-97034166D02*
X107336723Y-97081785D01*
X107336723Y-97081785D02*
X107431961Y-97129404D01*
X107431961Y-97129404D02*
X107527200Y-97224642D01*
X107527200Y-97224642D02*
X107574819Y-97367499D01*
X107574819Y-97367499D02*
X107574819Y-97605594D01*
X107574819Y-96081785D02*
X107574819Y-96653213D01*
X107574819Y-96367499D02*
X106574819Y-96367499D01*
X106574819Y-96367499D02*
X106717676Y-96462737D01*
X106717676Y-96462737D02*
X106812914Y-96557975D01*
X106812914Y-96557975D02*
X106860533Y-96653213D01*
X132232857Y-110049580D02*
X132185238Y-110097200D01*
X132185238Y-110097200D02*
X132042381Y-110144819D01*
X132042381Y-110144819D02*
X131947143Y-110144819D01*
X131947143Y-110144819D02*
X131804286Y-110097200D01*
X131804286Y-110097200D02*
X131709048Y-110001961D01*
X131709048Y-110001961D02*
X131661429Y-109906723D01*
X131661429Y-109906723D02*
X131613810Y-109716247D01*
X131613810Y-109716247D02*
X131613810Y-109573390D01*
X131613810Y-109573390D02*
X131661429Y-109382914D01*
X131661429Y-109382914D02*
X131709048Y-109287676D01*
X131709048Y-109287676D02*
X131804286Y-109192438D01*
X131804286Y-109192438D02*
X131947143Y-109144819D01*
X131947143Y-109144819D02*
X132042381Y-109144819D01*
X132042381Y-109144819D02*
X132185238Y-109192438D01*
X132185238Y-109192438D02*
X132232857Y-109240057D01*
X132661429Y-110144819D02*
X132661429Y-109144819D01*
X133137619Y-110144819D02*
X133137619Y-109144819D01*
X133137619Y-109144819D02*
X133709047Y-110144819D01*
X133709047Y-110144819D02*
X133709047Y-109144819D01*
X134709047Y-110144819D02*
X134137619Y-110144819D01*
X134423333Y-110144819D02*
X134423333Y-109144819D01*
X134423333Y-109144819D02*
X134328095Y-109287676D01*
X134328095Y-109287676D02*
X134232857Y-109382914D01*
X134232857Y-109382914D02*
X134137619Y-109430533D01*
X135137619Y-110049580D02*
X135185238Y-110097200D01*
X135185238Y-110097200D02*
X135137619Y-110144819D01*
X135137619Y-110144819D02*
X135090000Y-110097200D01*
X135090000Y-110097200D02*
X135137619Y-110049580D01*
X135137619Y-110049580D02*
X135137619Y-110144819D01*
X135613809Y-110049580D02*
X135661428Y-110097200D01*
X135661428Y-110097200D02*
X135613809Y-110144819D01*
X135613809Y-110144819D02*
X135566190Y-110097200D01*
X135566190Y-110097200D02*
X135613809Y-110049580D01*
X135613809Y-110049580D02*
X135613809Y-110144819D01*
X136613808Y-110144819D02*
X136042380Y-110144819D01*
X136328094Y-110144819D02*
X136328094Y-109144819D01*
X136328094Y-109144819D02*
X136232856Y-109287676D01*
X136232856Y-109287676D02*
X136137618Y-109382914D01*
X136137618Y-109382914D02*
X136042380Y-109430533D01*
X137232856Y-109144819D02*
X137328094Y-109144819D01*
X137328094Y-109144819D02*
X137423332Y-109192438D01*
X137423332Y-109192438D02*
X137470951Y-109240057D01*
X137470951Y-109240057D02*
X137518570Y-109335295D01*
X137518570Y-109335295D02*
X137566189Y-109525771D01*
X137566189Y-109525771D02*
X137566189Y-109763866D01*
X137566189Y-109763866D02*
X137518570Y-109954342D01*
X137518570Y-109954342D02*
X137470951Y-110049580D01*
X137470951Y-110049580D02*
X137423332Y-110097200D01*
X137423332Y-110097200D02*
X137328094Y-110144819D01*
X137328094Y-110144819D02*
X137232856Y-110144819D01*
X137232856Y-110144819D02*
X137137618Y-110097200D01*
X137137618Y-110097200D02*
X137089999Y-110049580D01*
X137089999Y-110049580D02*
X137042380Y-109954342D01*
X137042380Y-109954342D02*
X136994761Y-109763866D01*
X136994761Y-109763866D02*
X136994761Y-109525771D01*
X136994761Y-109525771D02*
X137042380Y-109335295D01*
X137042380Y-109335295D02*
X137089999Y-109240057D01*
X137089999Y-109240057D02*
X137137618Y-109192438D01*
X137137618Y-109192438D02*
X137232856Y-109144819D01*
X126124819Y-112016666D02*
X125648628Y-112349999D01*
X126124819Y-112588094D02*
X125124819Y-112588094D01*
X125124819Y-112588094D02*
X125124819Y-112207142D01*
X125124819Y-112207142D02*
X125172438Y-112111904D01*
X125172438Y-112111904D02*
X125220057Y-112064285D01*
X125220057Y-112064285D02*
X125315295Y-112016666D01*
X125315295Y-112016666D02*
X125458152Y-112016666D01*
X125458152Y-112016666D02*
X125553390Y-112064285D01*
X125553390Y-112064285D02*
X125601009Y-112111904D01*
X125601009Y-112111904D02*
X125648628Y-112207142D01*
X125648628Y-112207142D02*
X125648628Y-112588094D01*
X126124819Y-111064285D02*
X126124819Y-111635713D01*
X126124819Y-111349999D02*
X125124819Y-111349999D01*
X125124819Y-111349999D02*
X125267676Y-111445237D01*
X125267676Y-111445237D02*
X125362914Y-111540475D01*
X125362914Y-111540475D02*
X125410533Y-111635713D01*
X100864819Y-97046666D02*
X100388628Y-97379999D01*
X100864819Y-97618094D02*
X99864819Y-97618094D01*
X99864819Y-97618094D02*
X99864819Y-97237142D01*
X99864819Y-97237142D02*
X99912438Y-97141904D01*
X99912438Y-97141904D02*
X99960057Y-97094285D01*
X99960057Y-97094285D02*
X100055295Y-97046666D01*
X100055295Y-97046666D02*
X100198152Y-97046666D01*
X100198152Y-97046666D02*
X100293390Y-97094285D01*
X100293390Y-97094285D02*
X100341009Y-97141904D01*
X100341009Y-97141904D02*
X100388628Y-97237142D01*
X100388628Y-97237142D02*
X100388628Y-97618094D01*
X99864819Y-96141904D02*
X99864819Y-96618094D01*
X99864819Y-96618094D02*
X100341009Y-96665713D01*
X100341009Y-96665713D02*
X100293390Y-96618094D01*
X100293390Y-96618094D02*
X100245771Y-96522856D01*
X100245771Y-96522856D02*
X100245771Y-96284761D01*
X100245771Y-96284761D02*
X100293390Y-96189523D01*
X100293390Y-96189523D02*
X100341009Y-96141904D01*
X100341009Y-96141904D02*
X100436247Y-96094285D01*
X100436247Y-96094285D02*
X100674342Y-96094285D01*
X100674342Y-96094285D02*
X100769580Y-96141904D01*
X100769580Y-96141904D02*
X100817200Y-96189523D01*
X100817200Y-96189523D02*
X100864819Y-96284761D01*
X100864819Y-96284761D02*
X100864819Y-96522856D01*
X100864819Y-96522856D02*
X100817200Y-96618094D01*
X100817200Y-96618094D02*
X100769580Y-96665713D01*
X103312857Y-113489580D02*
X103265238Y-113537200D01*
X103265238Y-113537200D02*
X103122381Y-113584819D01*
X103122381Y-113584819D02*
X103027143Y-113584819D01*
X103027143Y-113584819D02*
X102884286Y-113537200D01*
X102884286Y-113537200D02*
X102789048Y-113441961D01*
X102789048Y-113441961D02*
X102741429Y-113346723D01*
X102741429Y-113346723D02*
X102693810Y-113156247D01*
X102693810Y-113156247D02*
X102693810Y-113013390D01*
X102693810Y-113013390D02*
X102741429Y-112822914D01*
X102741429Y-112822914D02*
X102789048Y-112727676D01*
X102789048Y-112727676D02*
X102884286Y-112632438D01*
X102884286Y-112632438D02*
X103027143Y-112584819D01*
X103027143Y-112584819D02*
X103122381Y-112584819D01*
X103122381Y-112584819D02*
X103265238Y-112632438D01*
X103265238Y-112632438D02*
X103312857Y-112680057D01*
X103741429Y-113584819D02*
X103741429Y-112584819D01*
X104217619Y-113584819D02*
X104217619Y-112584819D01*
X104217619Y-112584819D02*
X104789047Y-113584819D01*
X104789047Y-113584819D02*
X104789047Y-112584819D01*
X105789047Y-113584819D02*
X105217619Y-113584819D01*
X105503333Y-113584819D02*
X105503333Y-112584819D01*
X105503333Y-112584819D02*
X105408095Y-112727676D01*
X105408095Y-112727676D02*
X105312857Y-112822914D01*
X105312857Y-112822914D02*
X105217619Y-112870533D01*
X106217619Y-113489580D02*
X106265238Y-113537200D01*
X106265238Y-113537200D02*
X106217619Y-113584819D01*
X106217619Y-113584819D02*
X106170000Y-113537200D01*
X106170000Y-113537200D02*
X106217619Y-113489580D01*
X106217619Y-113489580D02*
X106217619Y-113584819D01*
X106693809Y-113489580D02*
X106741428Y-113537200D01*
X106741428Y-113537200D02*
X106693809Y-113584819D01*
X106693809Y-113584819D02*
X106646190Y-113537200D01*
X106646190Y-113537200D02*
X106693809Y-113489580D01*
X106693809Y-113489580D02*
X106693809Y-113584819D01*
X107693808Y-113584819D02*
X107122380Y-113584819D01*
X107408094Y-113584819D02*
X107408094Y-112584819D01*
X107408094Y-112584819D02*
X107312856Y-112727676D01*
X107312856Y-112727676D02*
X107217618Y-112822914D01*
X107217618Y-112822914D02*
X107122380Y-112870533D01*
X108646189Y-113584819D02*
X108074761Y-113584819D01*
X108360475Y-113584819D02*
X108360475Y-112584819D01*
X108360475Y-112584819D02*
X108265237Y-112727676D01*
X108265237Y-112727676D02*
X108169999Y-112822914D01*
X108169999Y-112822914D02*
X108074761Y-112870533D01*
X137189819Y-109968333D02*
X137904104Y-109968333D01*
X137904104Y-109968333D02*
X138046961Y-110015952D01*
X138046961Y-110015952D02*
X138142200Y-110111190D01*
X138142200Y-110111190D02*
X138189819Y-110254047D01*
X138189819Y-110254047D02*
X138189819Y-110349285D01*
X137523152Y-109063571D02*
X138189819Y-109063571D01*
X137142200Y-109301666D02*
X137856485Y-109539761D01*
X137856485Y-109539761D02*
X137856485Y-108920714D01*
X111859819Y-105994166D02*
X111383628Y-106327499D01*
X111859819Y-106565594D02*
X110859819Y-106565594D01*
X110859819Y-106565594D02*
X110859819Y-106184642D01*
X110859819Y-106184642D02*
X110907438Y-106089404D01*
X110907438Y-106089404D02*
X110955057Y-106041785D01*
X110955057Y-106041785D02*
X111050295Y-105994166D01*
X111050295Y-105994166D02*
X111193152Y-105994166D01*
X111193152Y-105994166D02*
X111288390Y-106041785D01*
X111288390Y-106041785D02*
X111336009Y-106089404D01*
X111336009Y-106089404D02*
X111383628Y-106184642D01*
X111383628Y-106184642D02*
X111383628Y-106565594D01*
X111859819Y-105517975D02*
X111859819Y-105327499D01*
X111859819Y-105327499D02*
X111812200Y-105232261D01*
X111812200Y-105232261D02*
X111764580Y-105184642D01*
X111764580Y-105184642D02*
X111621723Y-105089404D01*
X111621723Y-105089404D02*
X111431247Y-105041785D01*
X111431247Y-105041785D02*
X111050295Y-105041785D01*
X111050295Y-105041785D02*
X110955057Y-105089404D01*
X110955057Y-105089404D02*
X110907438Y-105137023D01*
X110907438Y-105137023D02*
X110859819Y-105232261D01*
X110859819Y-105232261D02*
X110859819Y-105422737D01*
X110859819Y-105422737D02*
X110907438Y-105517975D01*
X110907438Y-105517975D02*
X110955057Y-105565594D01*
X110955057Y-105565594D02*
X111050295Y-105613213D01*
X111050295Y-105613213D02*
X111288390Y-105613213D01*
X111288390Y-105613213D02*
X111383628Y-105565594D01*
X111383628Y-105565594D02*
X111431247Y-105517975D01*
X111431247Y-105517975D02*
X111478866Y-105422737D01*
X111478866Y-105422737D02*
X111478866Y-105232261D01*
X111478866Y-105232261D02*
X111431247Y-105137023D01*
X111431247Y-105137023D02*
X111383628Y-105089404D01*
X111383628Y-105089404D02*
X111288390Y-105041785D01*
D11*
X126294360Y-98372419D02*
X126484836Y-98372419D01*
X126484836Y-98372419D02*
X126580074Y-98420038D01*
X126580074Y-98420038D02*
X126675312Y-98515276D01*
X126675312Y-98515276D02*
X126722931Y-98705752D01*
X126722931Y-98705752D02*
X126722931Y-99039085D01*
X126722931Y-99039085D02*
X126675312Y-99229561D01*
X126675312Y-99229561D02*
X126580074Y-99324800D01*
X126580074Y-99324800D02*
X126484836Y-99372419D01*
X126484836Y-99372419D02*
X126294360Y-99372419D01*
X126294360Y-99372419D02*
X126199122Y-99324800D01*
X126199122Y-99324800D02*
X126103884Y-99229561D01*
X126103884Y-99229561D02*
X126056265Y-99039085D01*
X126056265Y-99039085D02*
X126056265Y-98705752D01*
X126056265Y-98705752D02*
X126103884Y-98515276D01*
X126103884Y-98515276D02*
X126199122Y-98420038D01*
X126199122Y-98420038D02*
X126294360Y-98372419D01*
X127151503Y-99277180D02*
X127199122Y-99324800D01*
X127199122Y-99324800D02*
X127151503Y-99372419D01*
X127151503Y-99372419D02*
X127103884Y-99324800D01*
X127103884Y-99324800D02*
X127151503Y-99277180D01*
X127151503Y-99277180D02*
X127151503Y-99372419D01*
X127627693Y-99372419D02*
X127627693Y-98372419D01*
X128199121Y-99372419D02*
X127770550Y-98800990D01*
X128199121Y-98372419D02*
X127627693Y-98943847D01*
X129056264Y-99372419D02*
X129056264Y-98848609D01*
X129056264Y-98848609D02*
X129008645Y-98753371D01*
X129008645Y-98753371D02*
X128913407Y-98705752D01*
X128913407Y-98705752D02*
X128722931Y-98705752D01*
X128722931Y-98705752D02*
X128627693Y-98753371D01*
X129056264Y-99324800D02*
X128961026Y-99372419D01*
X128961026Y-99372419D02*
X128722931Y-99372419D01*
X128722931Y-99372419D02*
X128627693Y-99324800D01*
X128627693Y-99324800D02*
X128580074Y-99229561D01*
X128580074Y-99229561D02*
X128580074Y-99134323D01*
X128580074Y-99134323D02*
X128627693Y-99039085D01*
X128627693Y-99039085D02*
X128722931Y-98991466D01*
X128722931Y-98991466D02*
X128961026Y-98991466D01*
X128961026Y-98991466D02*
X129056264Y-98943847D01*
X129532455Y-99372419D02*
X129532455Y-98705752D01*
X129532455Y-98896228D02*
X129580074Y-98800990D01*
X129580074Y-98800990D02*
X129627693Y-98753371D01*
X129627693Y-98753371D02*
X129722931Y-98705752D01*
X129722931Y-98705752D02*
X129818169Y-98705752D01*
X130151503Y-99372419D02*
X130151503Y-98705752D01*
X130151503Y-98372419D02*
X130103884Y-98420038D01*
X130103884Y-98420038D02*
X130151503Y-98467657D01*
X130151503Y-98467657D02*
X130199122Y-98420038D01*
X130199122Y-98420038D02*
X130151503Y-98372419D01*
X130151503Y-98372419D02*
X130151503Y-98467657D01*
X130627693Y-99372419D02*
X130627693Y-98705752D01*
X130627693Y-98800990D02*
X130675312Y-98753371D01*
X130675312Y-98753371D02*
X130770550Y-98705752D01*
X130770550Y-98705752D02*
X130913407Y-98705752D01*
X130913407Y-98705752D02*
X131008645Y-98753371D01*
X131008645Y-98753371D02*
X131056264Y-98848609D01*
X131056264Y-98848609D02*
X131056264Y-99372419D01*
X131056264Y-98848609D02*
X131103883Y-98753371D01*
X131103883Y-98753371D02*
X131199121Y-98705752D01*
X131199121Y-98705752D02*
X131341978Y-98705752D01*
X131341978Y-98705752D02*
X131437217Y-98753371D01*
X131437217Y-98753371D02*
X131484836Y-98848609D01*
X131484836Y-98848609D02*
X131484836Y-99372419D01*
D10*
X113409819Y-106024166D02*
X112933628Y-106357499D01*
X113409819Y-106595594D02*
X112409819Y-106595594D01*
X112409819Y-106595594D02*
X112409819Y-106214642D01*
X112409819Y-106214642D02*
X112457438Y-106119404D01*
X112457438Y-106119404D02*
X112505057Y-106071785D01*
X112505057Y-106071785D02*
X112600295Y-106024166D01*
X112600295Y-106024166D02*
X112743152Y-106024166D01*
X112743152Y-106024166D02*
X112838390Y-106071785D01*
X112838390Y-106071785D02*
X112886009Y-106119404D01*
X112886009Y-106119404D02*
X112933628Y-106214642D01*
X112933628Y-106214642D02*
X112933628Y-106595594D01*
X112838390Y-105452737D02*
X112790771Y-105547975D01*
X112790771Y-105547975D02*
X112743152Y-105595594D01*
X112743152Y-105595594D02*
X112647914Y-105643213D01*
X112647914Y-105643213D02*
X112600295Y-105643213D01*
X112600295Y-105643213D02*
X112505057Y-105595594D01*
X112505057Y-105595594D02*
X112457438Y-105547975D01*
X112457438Y-105547975D02*
X112409819Y-105452737D01*
X112409819Y-105452737D02*
X112409819Y-105262261D01*
X112409819Y-105262261D02*
X112457438Y-105167023D01*
X112457438Y-105167023D02*
X112505057Y-105119404D01*
X112505057Y-105119404D02*
X112600295Y-105071785D01*
X112600295Y-105071785D02*
X112647914Y-105071785D01*
X112647914Y-105071785D02*
X112743152Y-105119404D01*
X112743152Y-105119404D02*
X112790771Y-105167023D01*
X112790771Y-105167023D02*
X112838390Y-105262261D01*
X112838390Y-105262261D02*
X112838390Y-105452737D01*
X112838390Y-105452737D02*
X112886009Y-105547975D01*
X112886009Y-105547975D02*
X112933628Y-105595594D01*
X112933628Y-105595594D02*
X113028866Y-105643213D01*
X113028866Y-105643213D02*
X113219342Y-105643213D01*
X113219342Y-105643213D02*
X113314580Y-105595594D01*
X113314580Y-105595594D02*
X113362200Y-105547975D01*
X113362200Y-105547975D02*
X113409819Y-105452737D01*
X113409819Y-105452737D02*
X113409819Y-105262261D01*
X113409819Y-105262261D02*
X113362200Y-105167023D01*
X113362200Y-105167023D02*
X113314580Y-105119404D01*
X113314580Y-105119404D02*
X113219342Y-105071785D01*
X113219342Y-105071785D02*
X113028866Y-105071785D01*
X113028866Y-105071785D02*
X112933628Y-105119404D01*
X112933628Y-105119404D02*
X112886009Y-105167023D01*
X112886009Y-105167023D02*
X112838390Y-105262261D01*
X127063333Y-98514580D02*
X127015714Y-98562200D01*
X127015714Y-98562200D02*
X126872857Y-98609819D01*
X126872857Y-98609819D02*
X126777619Y-98609819D01*
X126777619Y-98609819D02*
X126634762Y-98562200D01*
X126634762Y-98562200D02*
X126539524Y-98466961D01*
X126539524Y-98466961D02*
X126491905Y-98371723D01*
X126491905Y-98371723D02*
X126444286Y-98181247D01*
X126444286Y-98181247D02*
X126444286Y-98038390D01*
X126444286Y-98038390D02*
X126491905Y-97847914D01*
X126491905Y-97847914D02*
X126539524Y-97752676D01*
X126539524Y-97752676D02*
X126634762Y-97657438D01*
X126634762Y-97657438D02*
X126777619Y-97609819D01*
X126777619Y-97609819D02*
X126872857Y-97609819D01*
X126872857Y-97609819D02*
X127015714Y-97657438D01*
X127015714Y-97657438D02*
X127063333Y-97705057D01*
X128015714Y-98609819D02*
X127444286Y-98609819D01*
X127730000Y-98609819D02*
X127730000Y-97609819D01*
X127730000Y-97609819D02*
X127634762Y-97752676D01*
X127634762Y-97752676D02*
X127539524Y-97847914D01*
X127539524Y-97847914D02*
X127444286Y-97895533D01*
X139878095Y-114914819D02*
X139878095Y-113914819D01*
X139878095Y-114391009D02*
X140449523Y-114391009D01*
X140449523Y-114914819D02*
X140449523Y-113914819D01*
X141449523Y-114914819D02*
X140878095Y-114914819D01*
X141163809Y-114914819D02*
X141163809Y-113914819D01*
X141163809Y-113914819D02*
X141068571Y-114057676D01*
X141068571Y-114057676D02*
X140973333Y-114152914D01*
X140973333Y-114152914D02*
X140878095Y-114200533D01*
X121499819Y-106029166D02*
X121023628Y-106362499D01*
X121499819Y-106600594D02*
X120499819Y-106600594D01*
X120499819Y-106600594D02*
X120499819Y-106219642D01*
X120499819Y-106219642D02*
X120547438Y-106124404D01*
X120547438Y-106124404D02*
X120595057Y-106076785D01*
X120595057Y-106076785D02*
X120690295Y-106029166D01*
X120690295Y-106029166D02*
X120833152Y-106029166D01*
X120833152Y-106029166D02*
X120928390Y-106076785D01*
X120928390Y-106076785D02*
X120976009Y-106124404D01*
X120976009Y-106124404D02*
X121023628Y-106219642D01*
X121023628Y-106219642D02*
X121023628Y-106600594D01*
X120499819Y-105695832D02*
X120499819Y-105029166D01*
X120499819Y-105029166D02*
X121499819Y-105457737D01*
X120004819Y-107577857D02*
X119528628Y-107911190D01*
X120004819Y-108149285D02*
X119004819Y-108149285D01*
X119004819Y-108149285D02*
X119004819Y-107768333D01*
X119004819Y-107768333D02*
X119052438Y-107673095D01*
X119052438Y-107673095D02*
X119100057Y-107625476D01*
X119100057Y-107625476D02*
X119195295Y-107577857D01*
X119195295Y-107577857D02*
X119338152Y-107577857D01*
X119338152Y-107577857D02*
X119433390Y-107625476D01*
X119433390Y-107625476D02*
X119481009Y-107673095D01*
X119481009Y-107673095D02*
X119528628Y-107768333D01*
X119528628Y-107768333D02*
X119528628Y-108149285D01*
X120004819Y-106625476D02*
X120004819Y-107196904D01*
X120004819Y-106911190D02*
X119004819Y-106911190D01*
X119004819Y-106911190D02*
X119147676Y-107006428D01*
X119147676Y-107006428D02*
X119242914Y-107101666D01*
X119242914Y-107101666D02*
X119290533Y-107196904D01*
X119100057Y-106244523D02*
X119052438Y-106196904D01*
X119052438Y-106196904D02*
X119004819Y-106101666D01*
X119004819Y-106101666D02*
X119004819Y-105863571D01*
X119004819Y-105863571D02*
X119052438Y-105768333D01*
X119052438Y-105768333D02*
X119100057Y-105720714D01*
X119100057Y-105720714D02*
X119195295Y-105673095D01*
X119195295Y-105673095D02*
X119290533Y-105673095D01*
X119290533Y-105673095D02*
X119433390Y-105720714D01*
X119433390Y-105720714D02*
X120004819Y-106292142D01*
X120004819Y-106292142D02*
X120004819Y-105673095D01*
X118012857Y-110149580D02*
X117965238Y-110197200D01*
X117965238Y-110197200D02*
X117822381Y-110244819D01*
X117822381Y-110244819D02*
X117727143Y-110244819D01*
X117727143Y-110244819D02*
X117584286Y-110197200D01*
X117584286Y-110197200D02*
X117489048Y-110101961D01*
X117489048Y-110101961D02*
X117441429Y-110006723D01*
X117441429Y-110006723D02*
X117393810Y-109816247D01*
X117393810Y-109816247D02*
X117393810Y-109673390D01*
X117393810Y-109673390D02*
X117441429Y-109482914D01*
X117441429Y-109482914D02*
X117489048Y-109387676D01*
X117489048Y-109387676D02*
X117584286Y-109292438D01*
X117584286Y-109292438D02*
X117727143Y-109244819D01*
X117727143Y-109244819D02*
X117822381Y-109244819D01*
X117822381Y-109244819D02*
X117965238Y-109292438D01*
X117965238Y-109292438D02*
X118012857Y-109340057D01*
X118441429Y-110244819D02*
X118441429Y-109244819D01*
X118917619Y-110244819D02*
X118917619Y-109244819D01*
X118917619Y-109244819D02*
X119489047Y-110244819D01*
X119489047Y-110244819D02*
X119489047Y-109244819D01*
X120489047Y-110244819D02*
X119917619Y-110244819D01*
X120203333Y-110244819D02*
X120203333Y-109244819D01*
X120203333Y-109244819D02*
X120108095Y-109387676D01*
X120108095Y-109387676D02*
X120012857Y-109482914D01*
X120012857Y-109482914D02*
X119917619Y-109530533D01*
X120917619Y-110149580D02*
X120965238Y-110197200D01*
X120965238Y-110197200D02*
X120917619Y-110244819D01*
X120917619Y-110244819D02*
X120870000Y-110197200D01*
X120870000Y-110197200D02*
X120917619Y-110149580D01*
X120917619Y-110149580D02*
X120917619Y-110244819D01*
X121393809Y-110149580D02*
X121441428Y-110197200D01*
X121441428Y-110197200D02*
X121393809Y-110244819D01*
X121393809Y-110244819D02*
X121346190Y-110197200D01*
X121346190Y-110197200D02*
X121393809Y-110149580D01*
X121393809Y-110149580D02*
X121393809Y-110244819D01*
X122393808Y-110244819D02*
X121822380Y-110244819D01*
X122108094Y-110244819D02*
X122108094Y-109244819D01*
X122108094Y-109244819D02*
X122012856Y-109387676D01*
X122012856Y-109387676D02*
X121917618Y-109482914D01*
X121917618Y-109482914D02*
X121822380Y-109530533D01*
X122774761Y-109340057D02*
X122822380Y-109292438D01*
X122822380Y-109292438D02*
X122917618Y-109244819D01*
X122917618Y-109244819D02*
X123155713Y-109244819D01*
X123155713Y-109244819D02*
X123250951Y-109292438D01*
X123250951Y-109292438D02*
X123298570Y-109340057D01*
X123298570Y-109340057D02*
X123346189Y-109435295D01*
X123346189Y-109435295D02*
X123346189Y-109530533D01*
X123346189Y-109530533D02*
X123298570Y-109673390D01*
X123298570Y-109673390D02*
X122727142Y-110244819D01*
X122727142Y-110244819D02*
X123346189Y-110244819D01*
X110774819Y-117403333D02*
X111489104Y-117403333D01*
X111489104Y-117403333D02*
X111631961Y-117450952D01*
X111631961Y-117450952D02*
X111727200Y-117546190D01*
X111727200Y-117546190D02*
X111774819Y-117689047D01*
X111774819Y-117689047D02*
X111774819Y-117784285D01*
X111774819Y-116403333D02*
X111774819Y-116974761D01*
X111774819Y-116689047D02*
X110774819Y-116689047D01*
X110774819Y-116689047D02*
X110917676Y-116784285D01*
X110917676Y-116784285D02*
X111012914Y-116879523D01*
X111012914Y-116879523D02*
X111060533Y-116974761D01*
X108694819Y-97688094D02*
X107694819Y-97688094D01*
X107694819Y-97688094D02*
X107694819Y-97449999D01*
X107694819Y-97449999D02*
X107742438Y-97307142D01*
X107742438Y-97307142D02*
X107837676Y-97211904D01*
X107837676Y-97211904D02*
X107932914Y-97164285D01*
X107932914Y-97164285D02*
X108123390Y-97116666D01*
X108123390Y-97116666D02*
X108266247Y-97116666D01*
X108266247Y-97116666D02*
X108456723Y-97164285D01*
X108456723Y-97164285D02*
X108551961Y-97211904D01*
X108551961Y-97211904D02*
X108647200Y-97307142D01*
X108647200Y-97307142D02*
X108694819Y-97449999D01*
X108694819Y-97449999D02*
X108694819Y-97688094D01*
X107694819Y-96211904D02*
X107694819Y-96688094D01*
X107694819Y-96688094D02*
X108171009Y-96735713D01*
X108171009Y-96735713D02*
X108123390Y-96688094D01*
X108123390Y-96688094D02*
X108075771Y-96592856D01*
X108075771Y-96592856D02*
X108075771Y-96354761D01*
X108075771Y-96354761D02*
X108123390Y-96259523D01*
X108123390Y-96259523D02*
X108171009Y-96211904D01*
X108171009Y-96211904D02*
X108266247Y-96164285D01*
X108266247Y-96164285D02*
X108504342Y-96164285D01*
X108504342Y-96164285D02*
X108599580Y-96211904D01*
X108599580Y-96211904D02*
X108647200Y-96259523D01*
X108647200Y-96259523D02*
X108694819Y-96354761D01*
X108694819Y-96354761D02*
X108694819Y-96592856D01*
X108694819Y-96592856D02*
X108647200Y-96688094D01*
X108647200Y-96688094D02*
X108599580Y-96735713D01*
X139064819Y-97657857D02*
X138588628Y-97991190D01*
X139064819Y-98229285D02*
X138064819Y-98229285D01*
X138064819Y-98229285D02*
X138064819Y-97848333D01*
X138064819Y-97848333D02*
X138112438Y-97753095D01*
X138112438Y-97753095D02*
X138160057Y-97705476D01*
X138160057Y-97705476D02*
X138255295Y-97657857D01*
X138255295Y-97657857D02*
X138398152Y-97657857D01*
X138398152Y-97657857D02*
X138493390Y-97705476D01*
X138493390Y-97705476D02*
X138541009Y-97753095D01*
X138541009Y-97753095D02*
X138588628Y-97848333D01*
X138588628Y-97848333D02*
X138588628Y-98229285D01*
X139064819Y-96705476D02*
X139064819Y-97276904D01*
X139064819Y-96991190D02*
X138064819Y-96991190D01*
X138064819Y-96991190D02*
X138207676Y-97086428D01*
X138207676Y-97086428D02*
X138302914Y-97181666D01*
X138302914Y-97181666D02*
X138350533Y-97276904D01*
X139064819Y-95753095D02*
X139064819Y-96324523D01*
X139064819Y-96038809D02*
X138064819Y-96038809D01*
X138064819Y-96038809D02*
X138207676Y-96134047D01*
X138207676Y-96134047D02*
X138302914Y-96229285D01*
X138302914Y-96229285D02*
X138350533Y-96324523D01*
X78213333Y-112514819D02*
X77737143Y-112514819D01*
X77737143Y-112514819D02*
X77737143Y-111514819D01*
X78499048Y-111610057D02*
X78546667Y-111562438D01*
X78546667Y-111562438D02*
X78641905Y-111514819D01*
X78641905Y-111514819D02*
X78880000Y-111514819D01*
X78880000Y-111514819D02*
X78975238Y-111562438D01*
X78975238Y-111562438D02*
X79022857Y-111610057D01*
X79022857Y-111610057D02*
X79070476Y-111705295D01*
X79070476Y-111705295D02*
X79070476Y-111800533D01*
X79070476Y-111800533D02*
X79022857Y-111943390D01*
X79022857Y-111943390D02*
X78451429Y-112514819D01*
X78451429Y-112514819D02*
X79070476Y-112514819D01*
X138474819Y-117253333D02*
X139189104Y-117253333D01*
X139189104Y-117253333D02*
X139331961Y-117300952D01*
X139331961Y-117300952D02*
X139427200Y-117396190D01*
X139427200Y-117396190D02*
X139474819Y-117539047D01*
X139474819Y-117539047D02*
X139474819Y-117634285D01*
X138570057Y-116824761D02*
X138522438Y-116777142D01*
X138522438Y-116777142D02*
X138474819Y-116681904D01*
X138474819Y-116681904D02*
X138474819Y-116443809D01*
X138474819Y-116443809D02*
X138522438Y-116348571D01*
X138522438Y-116348571D02*
X138570057Y-116300952D01*
X138570057Y-116300952D02*
X138665295Y-116253333D01*
X138665295Y-116253333D02*
X138760533Y-116253333D01*
X138760533Y-116253333D02*
X138903390Y-116300952D01*
X138903390Y-116300952D02*
X139474819Y-116872380D01*
X139474819Y-116872380D02*
X139474819Y-116253333D01*
X134964819Y-102372857D02*
X134488628Y-102706190D01*
X134964819Y-102944285D02*
X133964819Y-102944285D01*
X133964819Y-102944285D02*
X133964819Y-102563333D01*
X133964819Y-102563333D02*
X134012438Y-102468095D01*
X134012438Y-102468095D02*
X134060057Y-102420476D01*
X134060057Y-102420476D02*
X134155295Y-102372857D01*
X134155295Y-102372857D02*
X134298152Y-102372857D01*
X134298152Y-102372857D02*
X134393390Y-102420476D01*
X134393390Y-102420476D02*
X134441009Y-102468095D01*
X134441009Y-102468095D02*
X134488628Y-102563333D01*
X134488628Y-102563333D02*
X134488628Y-102944285D01*
X134964819Y-101420476D02*
X134964819Y-101991904D01*
X134964819Y-101706190D02*
X133964819Y-101706190D01*
X133964819Y-101706190D02*
X134107676Y-101801428D01*
X134107676Y-101801428D02*
X134202914Y-101896666D01*
X134202914Y-101896666D02*
X134250533Y-101991904D01*
X133964819Y-100801428D02*
X133964819Y-100706190D01*
X133964819Y-100706190D02*
X134012438Y-100610952D01*
X134012438Y-100610952D02*
X134060057Y-100563333D01*
X134060057Y-100563333D02*
X134155295Y-100515714D01*
X134155295Y-100515714D02*
X134345771Y-100468095D01*
X134345771Y-100468095D02*
X134583866Y-100468095D01*
X134583866Y-100468095D02*
X134774342Y-100515714D01*
X134774342Y-100515714D02*
X134869580Y-100563333D01*
X134869580Y-100563333D02*
X134917200Y-100610952D01*
X134917200Y-100610952D02*
X134964819Y-100706190D01*
X134964819Y-100706190D02*
X134964819Y-100801428D01*
X134964819Y-100801428D02*
X134917200Y-100896666D01*
X134917200Y-100896666D02*
X134869580Y-100944285D01*
X134869580Y-100944285D02*
X134774342Y-100991904D01*
X134774342Y-100991904D02*
X134583866Y-101039523D01*
X134583866Y-101039523D02*
X134345771Y-101039523D01*
X134345771Y-101039523D02*
X134155295Y-100991904D01*
X134155295Y-100991904D02*
X134060057Y-100944285D01*
X134060057Y-100944285D02*
X134012438Y-100896666D01*
X134012438Y-100896666D02*
X133964819Y-100801428D01*
X107429048Y-102249580D02*
X107381429Y-102297200D01*
X107381429Y-102297200D02*
X107238572Y-102344819D01*
X107238572Y-102344819D02*
X107143334Y-102344819D01*
X107143334Y-102344819D02*
X107000477Y-102297200D01*
X107000477Y-102297200D02*
X106905239Y-102201961D01*
X106905239Y-102201961D02*
X106857620Y-102106723D01*
X106857620Y-102106723D02*
X106810001Y-101916247D01*
X106810001Y-101916247D02*
X106810001Y-101773390D01*
X106810001Y-101773390D02*
X106857620Y-101582914D01*
X106857620Y-101582914D02*
X106905239Y-101487676D01*
X106905239Y-101487676D02*
X107000477Y-101392438D01*
X107000477Y-101392438D02*
X107143334Y-101344819D01*
X107143334Y-101344819D02*
X107238572Y-101344819D01*
X107238572Y-101344819D02*
X107381429Y-101392438D01*
X107381429Y-101392438D02*
X107429048Y-101440057D01*
X107857620Y-102344819D02*
X107857620Y-101344819D01*
X108333810Y-102344819D02*
X108333810Y-101344819D01*
X108333810Y-101344819D02*
X108905238Y-102344819D01*
X108905238Y-102344819D02*
X108905238Y-101344819D01*
X109905238Y-102344819D02*
X109333810Y-102344819D01*
X109619524Y-102344819D02*
X109619524Y-101344819D01*
X109619524Y-101344819D02*
X109524286Y-101487676D01*
X109524286Y-101487676D02*
X109429048Y-101582914D01*
X109429048Y-101582914D02*
X109333810Y-101630533D01*
X110333810Y-102249580D02*
X110381429Y-102297200D01*
X110381429Y-102297200D02*
X110333810Y-102344819D01*
X110333810Y-102344819D02*
X110286191Y-102297200D01*
X110286191Y-102297200D02*
X110333810Y-102249580D01*
X110333810Y-102249580D02*
X110333810Y-102344819D01*
X110810000Y-102249580D02*
X110857619Y-102297200D01*
X110857619Y-102297200D02*
X110810000Y-102344819D01*
X110810000Y-102344819D02*
X110762381Y-102297200D01*
X110762381Y-102297200D02*
X110810000Y-102249580D01*
X110810000Y-102249580D02*
X110810000Y-102344819D01*
X111714761Y-101678152D02*
X111714761Y-102344819D01*
X111476666Y-101297200D02*
X111238571Y-102011485D01*
X111238571Y-102011485D02*
X111857618Y-102011485D01*
D12*
X128598572Y-93909757D02*
X128455715Y-93838328D01*
X128455715Y-93838328D02*
X128241429Y-93838328D01*
X128241429Y-93838328D02*
X128027143Y-93909757D01*
X128027143Y-93909757D02*
X127884286Y-94052614D01*
X127884286Y-94052614D02*
X127812857Y-94195471D01*
X127812857Y-94195471D02*
X127741429Y-94481185D01*
X127741429Y-94481185D02*
X127741429Y-94695471D01*
X127741429Y-94695471D02*
X127812857Y-94981185D01*
X127812857Y-94981185D02*
X127884286Y-95124042D01*
X127884286Y-95124042D02*
X128027143Y-95266900D01*
X128027143Y-95266900D02*
X128241429Y-95338328D01*
X128241429Y-95338328D02*
X128384286Y-95338328D01*
X128384286Y-95338328D02*
X128598572Y-95266900D01*
X128598572Y-95266900D02*
X128670000Y-95195471D01*
X128670000Y-95195471D02*
X128670000Y-94695471D01*
X128670000Y-94695471D02*
X128384286Y-94695471D01*
X129527143Y-93838328D02*
X129527143Y-94195471D01*
X129170000Y-94052614D02*
X129527143Y-94195471D01*
X129527143Y-94195471D02*
X129884286Y-94052614D01*
X129312857Y-94481185D02*
X129527143Y-94195471D01*
X129527143Y-94195471D02*
X129741429Y-94481185D01*
X130670000Y-93838328D02*
X130670000Y-94195471D01*
X130312857Y-94052614D02*
X130670000Y-94195471D01*
X130670000Y-94195471D02*
X131027143Y-94052614D01*
X130455714Y-94481185D02*
X130670000Y-94195471D01*
X130670000Y-94195471D02*
X130884286Y-94481185D01*
X131812857Y-93838328D02*
X131812857Y-94195471D01*
X131455714Y-94052614D02*
X131812857Y-94195471D01*
X131812857Y-94195471D02*
X132170000Y-94052614D01*
X131598571Y-94481185D02*
X131812857Y-94195471D01*
X131812857Y-94195471D02*
X132027143Y-94481185D01*
D11*
X133295312Y-102937180D02*
X133247693Y-102984800D01*
X133247693Y-102984800D02*
X133104836Y-103032419D01*
X133104836Y-103032419D02*
X133009598Y-103032419D01*
X133009598Y-103032419D02*
X132866741Y-102984800D01*
X132866741Y-102984800D02*
X132771503Y-102889561D01*
X132771503Y-102889561D02*
X132723884Y-102794323D01*
X132723884Y-102794323D02*
X132676265Y-102603847D01*
X132676265Y-102603847D02*
X132676265Y-102460990D01*
X132676265Y-102460990D02*
X132723884Y-102270514D01*
X132723884Y-102270514D02*
X132771503Y-102175276D01*
X132771503Y-102175276D02*
X132866741Y-102080038D01*
X132866741Y-102080038D02*
X133009598Y-102032419D01*
X133009598Y-102032419D02*
X133104836Y-102032419D01*
X133104836Y-102032419D02*
X133247693Y-102080038D01*
X133247693Y-102080038D02*
X133295312Y-102127657D01*
X133723884Y-103032419D02*
X133723884Y-102032419D01*
X133723884Y-102508609D02*
X134295312Y-102508609D01*
X134295312Y-103032419D02*
X134295312Y-102032419D01*
X134771503Y-102508609D02*
X135104836Y-102508609D01*
X135247693Y-103032419D02*
X134771503Y-103032419D01*
X134771503Y-103032419D02*
X134771503Y-102032419D01*
X134771503Y-102032419D02*
X135247693Y-102032419D01*
X136009598Y-102508609D02*
X135676265Y-102508609D01*
X135676265Y-103032419D02*
X135676265Y-102032419D01*
X135676265Y-102032419D02*
X136152455Y-102032419D01*
X137295313Y-103032419D02*
X137295313Y-102032419D01*
X137866741Y-103032419D02*
X137438170Y-102460990D01*
X137866741Y-102032419D02*
X137295313Y-102603847D01*
D10*
X133929580Y-108210951D02*
X133977200Y-108258570D01*
X133977200Y-108258570D02*
X134024819Y-108401427D01*
X134024819Y-108401427D02*
X134024819Y-108496665D01*
X134024819Y-108496665D02*
X133977200Y-108639522D01*
X133977200Y-108639522D02*
X133881961Y-108734760D01*
X133881961Y-108734760D02*
X133786723Y-108782379D01*
X133786723Y-108782379D02*
X133596247Y-108829998D01*
X133596247Y-108829998D02*
X133453390Y-108829998D01*
X133453390Y-108829998D02*
X133262914Y-108782379D01*
X133262914Y-108782379D02*
X133167676Y-108734760D01*
X133167676Y-108734760D02*
X133072438Y-108639522D01*
X133072438Y-108639522D02*
X133024819Y-108496665D01*
X133024819Y-108496665D02*
X133024819Y-108401427D01*
X133024819Y-108401427D02*
X133072438Y-108258570D01*
X133072438Y-108258570D02*
X133120057Y-108210951D01*
X134024819Y-107782379D02*
X133024819Y-107782379D01*
X134024819Y-107306189D02*
X133024819Y-107306189D01*
X133024819Y-107306189D02*
X134024819Y-106734761D01*
X134024819Y-106734761D02*
X133024819Y-106734761D01*
X134024819Y-105734761D02*
X134024819Y-106306189D01*
X134024819Y-106020475D02*
X133024819Y-106020475D01*
X133024819Y-106020475D02*
X133167676Y-106115713D01*
X133167676Y-106115713D02*
X133262914Y-106210951D01*
X133262914Y-106210951D02*
X133310533Y-106306189D01*
X133929580Y-105306189D02*
X133977200Y-105258570D01*
X133977200Y-105258570D02*
X134024819Y-105306189D01*
X134024819Y-105306189D02*
X133977200Y-105353808D01*
X133977200Y-105353808D02*
X133929580Y-105306189D01*
X133929580Y-105306189D02*
X134024819Y-105306189D01*
X133929580Y-104829999D02*
X133977200Y-104782380D01*
X133977200Y-104782380D02*
X134024819Y-104829999D01*
X134024819Y-104829999D02*
X133977200Y-104877618D01*
X133977200Y-104877618D02*
X133929580Y-104829999D01*
X133929580Y-104829999D02*
X134024819Y-104829999D01*
X134024819Y-104306190D02*
X134024819Y-104115714D01*
X134024819Y-104115714D02*
X133977200Y-104020476D01*
X133977200Y-104020476D02*
X133929580Y-103972857D01*
X133929580Y-103972857D02*
X133786723Y-103877619D01*
X133786723Y-103877619D02*
X133596247Y-103830000D01*
X133596247Y-103830000D02*
X133215295Y-103830000D01*
X133215295Y-103830000D02*
X133120057Y-103877619D01*
X133120057Y-103877619D02*
X133072438Y-103925238D01*
X133072438Y-103925238D02*
X133024819Y-104020476D01*
X133024819Y-104020476D02*
X133024819Y-104210952D01*
X133024819Y-104210952D02*
X133072438Y-104306190D01*
X133072438Y-104306190D02*
X133120057Y-104353809D01*
X133120057Y-104353809D02*
X133215295Y-104401428D01*
X133215295Y-104401428D02*
X133453390Y-104401428D01*
X133453390Y-104401428D02*
X133548628Y-104353809D01*
X133548628Y-104353809D02*
X133596247Y-104306190D01*
X133596247Y-104306190D02*
X133643866Y-104210952D01*
X133643866Y-104210952D02*
X133643866Y-104020476D01*
X133643866Y-104020476D02*
X133596247Y-103925238D01*
X133596247Y-103925238D02*
X133548628Y-103877619D01*
X133548628Y-103877619D02*
X133453390Y-103830000D01*
X104174819Y-97700594D02*
X103174819Y-97700594D01*
X103174819Y-97700594D02*
X103174819Y-97462499D01*
X103174819Y-97462499D02*
X103222438Y-97319642D01*
X103222438Y-97319642D02*
X103317676Y-97224404D01*
X103317676Y-97224404D02*
X103412914Y-97176785D01*
X103412914Y-97176785D02*
X103603390Y-97129166D01*
X103603390Y-97129166D02*
X103746247Y-97129166D01*
X103746247Y-97129166D02*
X103936723Y-97176785D01*
X103936723Y-97176785D02*
X104031961Y-97224404D01*
X104031961Y-97224404D02*
X104127200Y-97319642D01*
X104127200Y-97319642D02*
X104174819Y-97462499D01*
X104174819Y-97462499D02*
X104174819Y-97700594D01*
X103270057Y-96748213D02*
X103222438Y-96700594D01*
X103222438Y-96700594D02*
X103174819Y-96605356D01*
X103174819Y-96605356D02*
X103174819Y-96367261D01*
X103174819Y-96367261D02*
X103222438Y-96272023D01*
X103222438Y-96272023D02*
X103270057Y-96224404D01*
X103270057Y-96224404D02*
X103365295Y-96176785D01*
X103365295Y-96176785D02*
X103460533Y-96176785D01*
X103460533Y-96176785D02*
X103603390Y-96224404D01*
X103603390Y-96224404D02*
X104174819Y-96795832D01*
X104174819Y-96795832D02*
X104174819Y-96176785D01*
X139701905Y-100744819D02*
X139701905Y-99744819D01*
X139701905Y-99744819D02*
X139940000Y-99744819D01*
X139940000Y-99744819D02*
X140082857Y-99792438D01*
X140082857Y-99792438D02*
X140178095Y-99887676D01*
X140178095Y-99887676D02*
X140225714Y-99982914D01*
X140225714Y-99982914D02*
X140273333Y-100173390D01*
X140273333Y-100173390D02*
X140273333Y-100316247D01*
X140273333Y-100316247D02*
X140225714Y-100506723D01*
X140225714Y-100506723D02*
X140178095Y-100601961D01*
X140178095Y-100601961D02*
X140082857Y-100697200D01*
X140082857Y-100697200D02*
X139940000Y-100744819D01*
X139940000Y-100744819D02*
X139701905Y-100744819D01*
X140606667Y-99744819D02*
X141225714Y-99744819D01*
X141225714Y-99744819D02*
X140892381Y-100125771D01*
X140892381Y-100125771D02*
X141035238Y-100125771D01*
X141035238Y-100125771D02*
X141130476Y-100173390D01*
X141130476Y-100173390D02*
X141178095Y-100221009D01*
X141178095Y-100221009D02*
X141225714Y-100316247D01*
X141225714Y-100316247D02*
X141225714Y-100554342D01*
X141225714Y-100554342D02*
X141178095Y-100649580D01*
X141178095Y-100649580D02*
X141130476Y-100697200D01*
X141130476Y-100697200D02*
X141035238Y-100744819D01*
X141035238Y-100744819D02*
X140749524Y-100744819D01*
X140749524Y-100744819D02*
X140654286Y-100697200D01*
X140654286Y-100697200D02*
X140606667Y-100649580D01*
X116196666Y-111589819D02*
X116196666Y-112304104D01*
X116196666Y-112304104D02*
X116149047Y-112446961D01*
X116149047Y-112446961D02*
X116053809Y-112542200D01*
X116053809Y-112542200D02*
X115910952Y-112589819D01*
X115910952Y-112589819D02*
X115815714Y-112589819D01*
X117149047Y-111589819D02*
X116672857Y-111589819D01*
X116672857Y-111589819D02*
X116625238Y-112066009D01*
X116625238Y-112066009D02*
X116672857Y-112018390D01*
X116672857Y-112018390D02*
X116768095Y-111970771D01*
X116768095Y-111970771D02*
X117006190Y-111970771D01*
X117006190Y-111970771D02*
X117101428Y-112018390D01*
X117101428Y-112018390D02*
X117149047Y-112066009D01*
X117149047Y-112066009D02*
X117196666Y-112161247D01*
X117196666Y-112161247D02*
X117196666Y-112399342D01*
X117196666Y-112399342D02*
X117149047Y-112494580D01*
X117149047Y-112494580D02*
X117101428Y-112542200D01*
X117101428Y-112542200D02*
X117006190Y-112589819D01*
X117006190Y-112589819D02*
X116768095Y-112589819D01*
X116768095Y-112589819D02*
X116672857Y-112542200D01*
X116672857Y-112542200D02*
X116625238Y-112494580D01*
D13*
%TO.C,CIN1..7*%
X121140000Y-99394420D02*
X121140000Y-99675580D01*
X122160000Y-99394420D02*
X122160000Y-99675580D01*
%TO.C,D6*%
X102745000Y-95505000D02*
X102745000Y-97790000D01*
X104215000Y-95505000D02*
X102745000Y-95505000D01*
X104215000Y-97790000D02*
X104215000Y-95505000D01*
%TO.C,CIN1..8*%
X119650000Y-99224420D02*
X119650000Y-99505580D01*
X120670000Y-99224420D02*
X120670000Y-99505580D01*
%TO.C,CIN1..3*%
X115169420Y-107360000D02*
X115450580Y-107360000D01*
X115169420Y-108380000D02*
X115450580Y-108380000D01*
%TO.C,SW1*%
X135210000Y-101160000D02*
X135210000Y-99850000D01*
X135210000Y-104070000D02*
X135210000Y-102760000D01*
X139223333Y-102595000D02*
X139223333Y-101325000D01*
X142030000Y-99850000D02*
X135210000Y-99850000D01*
X142030000Y-101160000D02*
X142030000Y-99850000D01*
X142030000Y-104070000D02*
X135210000Y-104070000D01*
X142030000Y-104070000D02*
X142030000Y-102760000D01*
X142270000Y-104310000D02*
X140887000Y-104310000D01*
X142270000Y-104310000D02*
X142270000Y-102927000D01*
X140430000Y-102595000D02*
X136810000Y-102595000D01*
X136810000Y-101325000D01*
X140430000Y-101325000D01*
X140430000Y-102595000D01*
X140430000Y-102595000D02*
X139223333Y-102595000D01*
X139223333Y-101325000D01*
X140430000Y-101325000D01*
X140430000Y-102595000D01*
G36*
X140430000Y-102595000D02*
G01*
X139223333Y-102595000D01*
X139223333Y-101325000D01*
X140430000Y-101325000D01*
X140430000Y-102595000D01*
G37*
D14*
%TO.C,G\u002A\u002A\u002A*%
G36*
X94202395Y-112564259D02*
G01*
X94286053Y-112564519D01*
X94415138Y-112565103D01*
X94525508Y-112565823D01*
X94618458Y-112566713D01*
X94695279Y-112567803D01*
X94757265Y-112569128D01*
X94805709Y-112570718D01*
X94841904Y-112572606D01*
X94867144Y-112574825D01*
X94882721Y-112577406D01*
X94888757Y-112579551D01*
X94900868Y-112593218D01*
X94920955Y-112624779D01*
X94948818Y-112673877D01*
X94984259Y-112740153D01*
X95027076Y-112823247D01*
X95050466Y-112869551D01*
X95084665Y-112938090D01*
X95115502Y-113000782D01*
X95141935Y-113055435D01*
X95162919Y-113099854D01*
X95177411Y-113131849D01*
X95184369Y-113149227D01*
X95184745Y-113151717D01*
X95173334Y-113153721D01*
X95146164Y-113155342D01*
X95107481Y-113156399D01*
X95068054Y-113156717D01*
X94956317Y-113156717D01*
X94911504Y-113071717D01*
X94890674Y-113031361D01*
X94877554Y-113001429D01*
X94870351Y-112974745D01*
X94867270Y-112944135D01*
X94866517Y-112902423D01*
X94866487Y-112891717D01*
X94865820Y-112845479D01*
X94863394Y-112813907D01*
X94858212Y-112791679D01*
X94849277Y-112773475D01*
X94842428Y-112763285D01*
X94819003Y-112739363D01*
X94787390Y-112718455D01*
X94752451Y-112702389D01*
X94719052Y-112692996D01*
X94692057Y-112692104D01*
X94676682Y-112700947D01*
X94663543Y-112709813D01*
X94643579Y-112716500D01*
X94620534Y-112728305D01*
X94595912Y-112750222D01*
X94588672Y-112758880D01*
X94570906Y-112787152D01*
X94562783Y-112816774D01*
X94561161Y-112848823D01*
X94566591Y-112902149D01*
X94584692Y-112943382D01*
X94618183Y-112977778D01*
X94633559Y-112988850D01*
X94665886Y-113016456D01*
X94693241Y-113054417D01*
X94708020Y-113082099D01*
X94722694Y-113114538D01*
X94731725Y-113139824D01*
X94733356Y-113152951D01*
X94733030Y-113153417D01*
X94720804Y-113155679D01*
X94693078Y-113156549D01*
X94654314Y-113155980D01*
X94620370Y-113154567D01*
X94514514Y-113149016D01*
X94432796Y-112985289D01*
X94406696Y-112932222D01*
X94384044Y-112884694D01*
X94366273Y-112845830D01*
X94354815Y-112818756D01*
X94351078Y-112806895D01*
X94342970Y-112792633D01*
X94323280Y-112777885D01*
X94321563Y-112776973D01*
X94309168Y-112772213D01*
X94291043Y-112768516D01*
X94264833Y-112765760D01*
X94228184Y-112763824D01*
X94178740Y-112762586D01*
X94114147Y-112761924D01*
X94032050Y-112761717D01*
X94026323Y-112761717D01*
X93760598Y-112761717D01*
X93727119Y-112814217D01*
X93711126Y-112841922D01*
X93689392Y-112883238D01*
X93664281Y-112933487D01*
X93638158Y-112987995D01*
X93625991Y-113014217D01*
X93558342Y-113161717D01*
X93443676Y-113161717D01*
X93398867Y-113161109D01*
X93362857Y-113159458D01*
X93339449Y-113157019D01*
X93332344Y-113154217D01*
X93337458Y-113143742D01*
X93350395Y-113117552D01*
X93370070Y-113077839D01*
X93395395Y-113026796D01*
X93425282Y-112966614D01*
X93458644Y-112899484D01*
X93478373Y-112859808D01*
X93614196Y-112586717D01*
X93620791Y-112586717D01*
X93625793Y-112591717D01*
X93630795Y-112586717D01*
X93625793Y-112581717D01*
X93620791Y-112586717D01*
X93614196Y-112586717D01*
X93621068Y-112572900D01*
X93663446Y-112567611D01*
X93681095Y-112566677D01*
X93716817Y-112565871D01*
X93768678Y-112565203D01*
X93834746Y-112564682D01*
X93913085Y-112564317D01*
X94001763Y-112564118D01*
X94098844Y-112564096D01*
X94202395Y-112564259D01*
G37*
G36*
X94603528Y-110744092D02*
G01*
X94634914Y-110745747D01*
X94651119Y-110748260D01*
X94652255Y-110748914D01*
X94656346Y-110761088D01*
X94662330Y-110788869D01*
X94669504Y-110828034D01*
X94677161Y-110874360D01*
X94684600Y-110923623D01*
X94691114Y-110971599D01*
X94695240Y-111006717D01*
X94702385Y-111030235D01*
X94717332Y-111037740D01*
X94743414Y-111041569D01*
X94778015Y-111051371D01*
X94825339Y-111068390D01*
X94839662Y-111073923D01*
X94893074Y-111094763D01*
X94928409Y-111055740D01*
X94950691Y-111030506D01*
X94980718Y-110995669D01*
X95013497Y-110957045D01*
X95028801Y-110938798D01*
X95056767Y-110906481D01*
X95080432Y-110881313D01*
X95096733Y-110866431D01*
X95102084Y-110863798D01*
X95115547Y-110872026D01*
X95139629Y-110889815D01*
X95170804Y-110914247D01*
X95205545Y-110942405D01*
X95240325Y-110971372D01*
X95271618Y-110998232D01*
X95295899Y-111020067D01*
X95309639Y-111033961D01*
X95311457Y-111036982D01*
X95308017Y-111049676D01*
X95298591Y-111077228D01*
X95284520Y-111115888D01*
X95267145Y-111161902D01*
X95262448Y-111174100D01*
X95213440Y-111300881D01*
X95260662Y-111348799D01*
X95287471Y-111377012D01*
X95310217Y-111402719D01*
X95322578Y-111418448D01*
X95337273Y-111440179D01*
X95495910Y-111405759D01*
X95549367Y-111394367D01*
X95595501Y-111384928D01*
X95630990Y-111378092D01*
X95652508Y-111374506D01*
X95657458Y-111374249D01*
X95661737Y-111384245D01*
X95671268Y-111409363D01*
X95684660Y-111445859D01*
X95700521Y-111489990D01*
X95701214Y-111491938D01*
X95742059Y-111606717D01*
X95689322Y-111654751D01*
X95651803Y-111687911D01*
X95609236Y-111724059D01*
X95579754Y-111748183D01*
X95546101Y-111778053D01*
X95527566Y-111801454D01*
X95524360Y-111812648D01*
X95528841Y-111828420D01*
X95533286Y-111831717D01*
X95540528Y-111840537D01*
X95549636Y-111867428D01*
X95560796Y-111913031D01*
X95571098Y-111962266D01*
X95582171Y-112017816D01*
X95694411Y-112040435D01*
X95741111Y-112049985D01*
X95781918Y-112058588D01*
X95812023Y-112065212D01*
X95825644Y-112068530D01*
X95833454Y-112072057D01*
X95838491Y-112079523D01*
X95841080Y-112094309D01*
X95841547Y-112119796D01*
X95840215Y-112159362D01*
X95838264Y-112199701D01*
X95834774Y-112252235D01*
X95830351Y-112293984D01*
X95825410Y-112321768D01*
X95820880Y-112332197D01*
X95806790Y-112337403D01*
X95778169Y-112345705D01*
X95739982Y-112355705D01*
X95718225Y-112361058D01*
X95658703Y-112375407D01*
X95615837Y-112386068D01*
X95586850Y-112394128D01*
X95568970Y-112400672D01*
X95559420Y-112406784D01*
X95555426Y-112413551D01*
X95554214Y-112422058D01*
X95553961Y-112425310D01*
X95549974Y-112445171D01*
X95540962Y-112478233D01*
X95528525Y-112518827D01*
X95521751Y-112539492D01*
X95508713Y-112578813D01*
X95498501Y-112610414D01*
X95492513Y-112629922D01*
X95491527Y-112633945D01*
X95498815Y-112641656D01*
X95518270Y-112658572D01*
X95546283Y-112681599D01*
X95559054Y-112691811D01*
X95594858Y-112720728D01*
X95628781Y-112748984D01*
X95654543Y-112771331D01*
X95658416Y-112774862D01*
X95690251Y-112804327D01*
X95610700Y-112923022D01*
X95582209Y-112965267D01*
X95557907Y-113000801D01*
X95539826Y-113026690D01*
X95530000Y-113040000D01*
X95528845Y-113041148D01*
X95519027Y-113038042D01*
X95493702Y-113029919D01*
X95456399Y-113017912D01*
X95410647Y-113003157D01*
X95396490Y-112998587D01*
X95266439Y-112956594D01*
X95241671Y-112906655D01*
X95230329Y-112883638D01*
X95211024Y-112844291D01*
X95184562Y-112790260D01*
X95151745Y-112723193D01*
X95113380Y-112644736D01*
X95070269Y-112556538D01*
X95023216Y-112460245D01*
X94973027Y-112357505D01*
X94920505Y-112249965D01*
X94866454Y-112139272D01*
X94811678Y-112027074D01*
X94756983Y-111915017D01*
X94703171Y-111804750D01*
X94651047Y-111697919D01*
X94601415Y-111596171D01*
X94555080Y-111501154D01*
X94512845Y-111414516D01*
X94475515Y-111337903D01*
X94443893Y-111272962D01*
X94418785Y-111221342D01*
X94400994Y-111184688D01*
X94396926Y-111176282D01*
X94314541Y-111005847D01*
X94345980Y-110876282D01*
X94374992Y-110756717D01*
X94381090Y-110756717D01*
X94386092Y-110761717D01*
X94391094Y-110756717D01*
X94641193Y-110756717D01*
X94646195Y-110761717D01*
X94651197Y-110756717D01*
X94646195Y-110751717D01*
X94641193Y-110756717D01*
X94391094Y-110756717D01*
X94386092Y-110751717D01*
X94381090Y-110756717D01*
X94374992Y-110756717D01*
X94377419Y-110746717D01*
X94511004Y-110743914D01*
X94560909Y-110743434D01*
X94603528Y-110744092D01*
G37*
G36*
X94064919Y-110937507D02*
G01*
X94084260Y-110949823D01*
X94091191Y-110961469D01*
X94106056Y-110989332D01*
X94127988Y-111031666D01*
X94156120Y-111086729D01*
X94189587Y-111152774D01*
X94227520Y-111228057D01*
X94269055Y-111310833D01*
X94313324Y-111399357D01*
X94359462Y-111491886D01*
X94406600Y-111586673D01*
X94453874Y-111681975D01*
X94500417Y-111776046D01*
X94545361Y-111867142D01*
X94587841Y-111953518D01*
X94626991Y-112033429D01*
X94661942Y-112105131D01*
X94691830Y-112166878D01*
X94715788Y-112216927D01*
X94732949Y-112253532D01*
X94742446Y-112274948D01*
X94742834Y-112275915D01*
X94753777Y-112304812D01*
X94757278Y-112321676D01*
X94753340Y-112333037D01*
X94742865Y-112344529D01*
X94737145Y-112349379D01*
X94729337Y-112353387D01*
X94717535Y-112356658D01*
X94699837Y-112359303D01*
X94674336Y-112361428D01*
X94639129Y-112363142D01*
X94592312Y-112364554D01*
X94531979Y-112365770D01*
X94456226Y-112366900D01*
X94363149Y-112368052D01*
X94319674Y-112368554D01*
X94228327Y-112369370D01*
X94140401Y-112369729D01*
X94058560Y-112369650D01*
X93985467Y-112369154D01*
X93923784Y-112368260D01*
X93876173Y-112366988D01*
X93845298Y-112365359D01*
X93840878Y-112364940D01*
X93802771Y-112360446D01*
X93780208Y-112355891D01*
X93768837Y-112349098D01*
X93764306Y-112337893D01*
X93762842Y-112325941D01*
X93765458Y-112294469D01*
X93776242Y-112253727D01*
X93792468Y-112211223D01*
X93811412Y-112174463D01*
X93824273Y-112156776D01*
X93848181Y-112135545D01*
X93877721Y-112115668D01*
X93880806Y-112113957D01*
X93920321Y-112082541D01*
X93945333Y-112041597D01*
X93955967Y-111995243D01*
X93952346Y-111947600D01*
X93934593Y-111902785D01*
X93902831Y-111864919D01*
X93872760Y-111844970D01*
X93818110Y-111827212D01*
X93765192Y-111828824D01*
X93716273Y-111849185D01*
X93673623Y-111887674D01*
X93662408Y-111902636D01*
X93649842Y-111923442D01*
X93643717Y-111943489D01*
X93642849Y-111969897D01*
X93645504Y-112004190D01*
X93652009Y-112071663D01*
X93382057Y-112616548D01*
X93112104Y-113161434D01*
X93001304Y-113160542D01*
X92954595Y-113159347D01*
X92918352Y-113156801D01*
X92896031Y-113153229D01*
X92890503Y-113150030D01*
X92891855Y-113146717D01*
X93100586Y-113146717D01*
X93105588Y-113151717D01*
X93110590Y-113146717D01*
X93105588Y-113141717D01*
X93100586Y-113146717D01*
X92891855Y-113146717D01*
X92894986Y-113139044D01*
X92908444Y-113110603D01*
X92930893Y-113064677D01*
X92962346Y-113001235D01*
X93002820Y-112920248D01*
X93052329Y-112821687D01*
X93110888Y-112705522D01*
X93178512Y-112571724D01*
X93255216Y-112420262D01*
X93341014Y-112251107D01*
X93435922Y-112064229D01*
X93539955Y-111859599D01*
X93567720Y-111805018D01*
X93611305Y-111719857D01*
X93652575Y-111640199D01*
X93690575Y-111567822D01*
X93724349Y-111504499D01*
X93752941Y-111452005D01*
X93775395Y-111412118D01*
X93790756Y-111386611D01*
X93797970Y-111377291D01*
X93809819Y-111374049D01*
X93821134Y-111374998D01*
X93833013Y-111381780D01*
X93846554Y-111396039D01*
X93862856Y-111419420D01*
X93883016Y-111453566D01*
X93908135Y-111500122D01*
X93939309Y-111560730D01*
X93977638Y-111637036D01*
X93995540Y-111672969D01*
X94035165Y-111752703D01*
X94066757Y-111816758D01*
X94091212Y-111867352D01*
X94109425Y-111906703D01*
X94122293Y-111937030D01*
X94130712Y-111960551D01*
X94135576Y-111979484D01*
X94137782Y-111996049D01*
X94138226Y-112012464D01*
X94137951Y-112025667D01*
X94138426Y-112064840D01*
X94144135Y-112093920D01*
X94157545Y-112122626D01*
X94166284Y-112137259D01*
X94188024Y-112167842D01*
X94210812Y-112186640D01*
X94240421Y-112196459D01*
X94282622Y-112200107D01*
X94296057Y-112200387D01*
X94348927Y-112192588D01*
X94391898Y-112169719D01*
X94423477Y-112134862D01*
X94442173Y-112091095D01*
X94446491Y-112041498D01*
X94434940Y-111989152D01*
X94416364Y-111952128D01*
X94398802Y-111928305D01*
X94383246Y-111913788D01*
X94377834Y-111911717D01*
X94361567Y-111905328D01*
X94341364Y-111885380D01*
X94316405Y-111850697D01*
X94285868Y-111800104D01*
X94248933Y-111732425D01*
X94238093Y-111711717D01*
X94208673Y-111654417D01*
X94176183Y-111589940D01*
X94141755Y-111520649D01*
X94106523Y-111448908D01*
X94071618Y-111377080D01*
X94038174Y-111307529D01*
X94007323Y-111242619D01*
X93980199Y-111184714D01*
X93957933Y-111136176D01*
X93941660Y-111099371D01*
X93932511Y-111076661D01*
X93930913Y-111070758D01*
X93935760Y-111055403D01*
X93948510Y-111028677D01*
X93966476Y-110996177D01*
X93967766Y-110993989D01*
X93988112Y-110961214D01*
X94003356Y-110942418D01*
X94017634Y-110933841D01*
X94035082Y-110931721D01*
X94036243Y-110931717D01*
X94064919Y-110937507D01*
G37*
D13*
%TO.C,U4*%
X112445000Y-99050000D02*
X112445000Y-98815000D01*
X112445000Y-104795000D02*
X112445000Y-104320000D01*
X112920000Y-98575000D02*
X112745000Y-98575000D01*
X112920000Y-104795000D02*
X112445000Y-104795000D01*
X118190000Y-98575000D02*
X118665000Y-98575000D01*
X118190000Y-104795000D02*
X118665000Y-104795000D01*
X118665000Y-98575000D02*
X118665000Y-99050000D01*
X118665000Y-104795000D02*
X118665000Y-104320000D01*
X112445000Y-98575000D02*
X112205000Y-98245000D01*
X112685000Y-98245000D01*
X112445000Y-98575000D01*
G36*
X112445000Y-98575000D02*
G01*
X112205000Y-98245000D01*
X112685000Y-98245000D01*
X112445000Y-98575000D01*
G37*
%TO.C,R4*%
X109607500Y-96662742D02*
X109607500Y-97137258D01*
X110652500Y-96662742D02*
X110652500Y-97137258D01*
%TO.C,D4*%
X119660000Y-108915000D02*
X121945000Y-108915000D01*
X121945000Y-107445000D02*
X119660000Y-107445000D01*
X121945000Y-108915000D02*
X121945000Y-107445000D01*
%TO.C,D1*%
X107815000Y-96067500D02*
X107815000Y-98352500D01*
X107815000Y-98352500D02*
X109285000Y-98352500D01*
X109285000Y-98352500D02*
X109285000Y-96067500D01*
%TO.C,CIN1..10*%
X134328748Y-110635000D02*
X134851252Y-110635000D01*
X134328748Y-112105000D02*
X134851252Y-112105000D01*
%TO.C,R1*%
X123717500Y-111612742D02*
X123717500Y-112087258D01*
X124762500Y-111612742D02*
X124762500Y-112087258D01*
%TO.C,R5*%
X101317500Y-97117258D02*
X101317500Y-96642742D01*
X102362500Y-97117258D02*
X102362500Y-96642742D01*
%TO.C,CIN1..11*%
X105931252Y-110715000D02*
X105408748Y-110715000D01*
X105931252Y-112185000D02*
X105408748Y-112185000D01*
D10*
%TO.C,J4*%
X138410000Y-110710000D02*
X138410000Y-111435000D01*
X138410000Y-111435000D02*
X138835000Y-111435000D01*
X138835000Y-107835000D02*
X138835000Y-106835000D01*
X138835000Y-111435000D02*
X138835000Y-112435000D01*
X140585000Y-113785000D02*
X141985000Y-113785000D01*
X141985000Y-105485000D02*
X140585000Y-105485000D01*
X144385000Y-113785000D02*
X144535000Y-113785000D01*
X144535000Y-105485000D02*
X144385000Y-105485000D01*
X144535000Y-105785000D02*
X144535000Y-105485000D01*
X144535000Y-113485000D02*
X144985000Y-113485000D01*
X144535000Y-113785000D02*
X144535000Y-113485000D01*
X144985000Y-105785000D02*
X144535000Y-105785000D01*
D13*
%TO.C,R9*%
X109452500Y-105590242D02*
X109452500Y-106064758D01*
X110497500Y-105590242D02*
X110497500Y-106064758D01*
D14*
%TO.C,G\u002A\u002A\u002A*%
G36*
X128472395Y-97524259D02*
G01*
X128556053Y-97524519D01*
X128685138Y-97525103D01*
X128795508Y-97525823D01*
X128888458Y-97526713D01*
X128965279Y-97527803D01*
X129027265Y-97529128D01*
X129075709Y-97530718D01*
X129111904Y-97532606D01*
X129137144Y-97534825D01*
X129152721Y-97537406D01*
X129158757Y-97539551D01*
X129170868Y-97553218D01*
X129190955Y-97584779D01*
X129218818Y-97633877D01*
X129254259Y-97700153D01*
X129297076Y-97783247D01*
X129320466Y-97829551D01*
X129354665Y-97898090D01*
X129385502Y-97960782D01*
X129411935Y-98015435D01*
X129432919Y-98059854D01*
X129447411Y-98091849D01*
X129454369Y-98109227D01*
X129454745Y-98111717D01*
X129443334Y-98113721D01*
X129416164Y-98115342D01*
X129377481Y-98116399D01*
X129338054Y-98116717D01*
X129226317Y-98116717D01*
X129181504Y-98031717D01*
X129160674Y-97991361D01*
X129147554Y-97961429D01*
X129140351Y-97934745D01*
X129137270Y-97904135D01*
X129136517Y-97862423D01*
X129136487Y-97851717D01*
X129135820Y-97805479D01*
X129133394Y-97773907D01*
X129128212Y-97751679D01*
X129119277Y-97733475D01*
X129112428Y-97723285D01*
X129089003Y-97699363D01*
X129057390Y-97678455D01*
X129022451Y-97662389D01*
X128989052Y-97652996D01*
X128962057Y-97652104D01*
X128946682Y-97660947D01*
X128933543Y-97669813D01*
X128913579Y-97676500D01*
X128890534Y-97688305D01*
X128865912Y-97710222D01*
X128858672Y-97718880D01*
X128840906Y-97747152D01*
X128832783Y-97776774D01*
X128831161Y-97808823D01*
X128836591Y-97862149D01*
X128854692Y-97903382D01*
X128888183Y-97937778D01*
X128903559Y-97948850D01*
X128935886Y-97976456D01*
X128963241Y-98014417D01*
X128978020Y-98042099D01*
X128992694Y-98074538D01*
X129001725Y-98099824D01*
X129003356Y-98112951D01*
X129003030Y-98113417D01*
X128990804Y-98115679D01*
X128963078Y-98116549D01*
X128924314Y-98115980D01*
X128890370Y-98114567D01*
X128784514Y-98109016D01*
X128702796Y-97945289D01*
X128676696Y-97892222D01*
X128654044Y-97844694D01*
X128636273Y-97805830D01*
X128624815Y-97778756D01*
X128621078Y-97766895D01*
X128612970Y-97752633D01*
X128593280Y-97737885D01*
X128591563Y-97736973D01*
X128579168Y-97732213D01*
X128561043Y-97728516D01*
X128534833Y-97725760D01*
X128498184Y-97723824D01*
X128448740Y-97722586D01*
X128384147Y-97721924D01*
X128302050Y-97721717D01*
X128296323Y-97721717D01*
X128030598Y-97721717D01*
X127997119Y-97774217D01*
X127981126Y-97801922D01*
X127959392Y-97843238D01*
X127934281Y-97893487D01*
X127908158Y-97947995D01*
X127895991Y-97974217D01*
X127828342Y-98121717D01*
X127713676Y-98121717D01*
X127668867Y-98121109D01*
X127632857Y-98119458D01*
X127609449Y-98117019D01*
X127602344Y-98114217D01*
X127607458Y-98103742D01*
X127620395Y-98077552D01*
X127640070Y-98037839D01*
X127665395Y-97986796D01*
X127695282Y-97926614D01*
X127728644Y-97859484D01*
X127748373Y-97819808D01*
X127884196Y-97546717D01*
X127890791Y-97546717D01*
X127895793Y-97551717D01*
X127900795Y-97546717D01*
X127895793Y-97541717D01*
X127890791Y-97546717D01*
X127884196Y-97546717D01*
X127891068Y-97532900D01*
X127933446Y-97527611D01*
X127951095Y-97526677D01*
X127986817Y-97525871D01*
X128038678Y-97525203D01*
X128104746Y-97524682D01*
X128183085Y-97524317D01*
X128271763Y-97524118D01*
X128368844Y-97524096D01*
X128472395Y-97524259D01*
G37*
G36*
X128873528Y-95704092D02*
G01*
X128904914Y-95705747D01*
X128921119Y-95708260D01*
X128922255Y-95708914D01*
X128926346Y-95721088D01*
X128932330Y-95748869D01*
X128939504Y-95788034D01*
X128947161Y-95834360D01*
X128954600Y-95883623D01*
X128961114Y-95931599D01*
X128965240Y-95966717D01*
X128972385Y-95990235D01*
X128987332Y-95997740D01*
X129013414Y-96001569D01*
X129048015Y-96011371D01*
X129095339Y-96028390D01*
X129109662Y-96033923D01*
X129163074Y-96054763D01*
X129198409Y-96015740D01*
X129220691Y-95990506D01*
X129250718Y-95955669D01*
X129283497Y-95917045D01*
X129298801Y-95898798D01*
X129326767Y-95866481D01*
X129350432Y-95841313D01*
X129366733Y-95826431D01*
X129372084Y-95823798D01*
X129385547Y-95832026D01*
X129409629Y-95849815D01*
X129440804Y-95874247D01*
X129475545Y-95902405D01*
X129510325Y-95931372D01*
X129541618Y-95958232D01*
X129565899Y-95980067D01*
X129579639Y-95993961D01*
X129581457Y-95996982D01*
X129578017Y-96009676D01*
X129568591Y-96037228D01*
X129554520Y-96075888D01*
X129537145Y-96121902D01*
X129532448Y-96134100D01*
X129483440Y-96260881D01*
X129530662Y-96308799D01*
X129557471Y-96337012D01*
X129580217Y-96362719D01*
X129592578Y-96378448D01*
X129607273Y-96400179D01*
X129765910Y-96365759D01*
X129819367Y-96354367D01*
X129865501Y-96344928D01*
X129900990Y-96338092D01*
X129922508Y-96334506D01*
X129927458Y-96334249D01*
X129931737Y-96344245D01*
X129941268Y-96369363D01*
X129954660Y-96405859D01*
X129970521Y-96449990D01*
X129971214Y-96451938D01*
X130012059Y-96566717D01*
X129959322Y-96614751D01*
X129921803Y-96647911D01*
X129879236Y-96684059D01*
X129849754Y-96708183D01*
X129816101Y-96738053D01*
X129797566Y-96761454D01*
X129794360Y-96772648D01*
X129798841Y-96788420D01*
X129803286Y-96791717D01*
X129810528Y-96800537D01*
X129819636Y-96827428D01*
X129830796Y-96873031D01*
X129841098Y-96922266D01*
X129852171Y-96977816D01*
X129964411Y-97000435D01*
X130011111Y-97009985D01*
X130051918Y-97018588D01*
X130082023Y-97025212D01*
X130095644Y-97028530D01*
X130103454Y-97032057D01*
X130108491Y-97039523D01*
X130111080Y-97054309D01*
X130111547Y-97079796D01*
X130110215Y-97119362D01*
X130108264Y-97159701D01*
X130104774Y-97212235D01*
X130100351Y-97253984D01*
X130095410Y-97281768D01*
X130090880Y-97292197D01*
X130076790Y-97297403D01*
X130048169Y-97305705D01*
X130009982Y-97315705D01*
X129988225Y-97321058D01*
X129928703Y-97335407D01*
X129885837Y-97346068D01*
X129856850Y-97354128D01*
X129838970Y-97360672D01*
X129829420Y-97366784D01*
X129825426Y-97373551D01*
X129824214Y-97382058D01*
X129823961Y-97385310D01*
X129819974Y-97405171D01*
X129810962Y-97438233D01*
X129798525Y-97478827D01*
X129791751Y-97499492D01*
X129778713Y-97538813D01*
X129768501Y-97570414D01*
X129762513Y-97589922D01*
X129761527Y-97593945D01*
X129768815Y-97601656D01*
X129788270Y-97618572D01*
X129816283Y-97641599D01*
X129829054Y-97651811D01*
X129864858Y-97680728D01*
X129898781Y-97708984D01*
X129924543Y-97731331D01*
X129928416Y-97734862D01*
X129960251Y-97764327D01*
X129880700Y-97883022D01*
X129852209Y-97925267D01*
X129827907Y-97960801D01*
X129809826Y-97986690D01*
X129800000Y-98000000D01*
X129798845Y-98001148D01*
X129789027Y-97998042D01*
X129763702Y-97989919D01*
X129726399Y-97977912D01*
X129680647Y-97963157D01*
X129666490Y-97958587D01*
X129536439Y-97916594D01*
X129511671Y-97866655D01*
X129500329Y-97843638D01*
X129481024Y-97804291D01*
X129454562Y-97750260D01*
X129421745Y-97683193D01*
X129383380Y-97604736D01*
X129340269Y-97516538D01*
X129293216Y-97420245D01*
X129243027Y-97317505D01*
X129190505Y-97209965D01*
X129136454Y-97099272D01*
X129081678Y-96987074D01*
X129026983Y-96875017D01*
X128973171Y-96764750D01*
X128921047Y-96657919D01*
X128871415Y-96556171D01*
X128825080Y-96461154D01*
X128782845Y-96374516D01*
X128745515Y-96297903D01*
X128713893Y-96232962D01*
X128688785Y-96181342D01*
X128670994Y-96144688D01*
X128666926Y-96136282D01*
X128584541Y-95965847D01*
X128615980Y-95836282D01*
X128644992Y-95716717D01*
X128651090Y-95716717D01*
X128656092Y-95721717D01*
X128661094Y-95716717D01*
X128911193Y-95716717D01*
X128916195Y-95721717D01*
X128921197Y-95716717D01*
X128916195Y-95711717D01*
X128911193Y-95716717D01*
X128661094Y-95716717D01*
X128656092Y-95711717D01*
X128651090Y-95716717D01*
X128644992Y-95716717D01*
X128647419Y-95706717D01*
X128781004Y-95703914D01*
X128830909Y-95703434D01*
X128873528Y-95704092D01*
G37*
G36*
X128334919Y-95897507D02*
G01*
X128354260Y-95909823D01*
X128361191Y-95921469D01*
X128376056Y-95949332D01*
X128397988Y-95991666D01*
X128426120Y-96046729D01*
X128459587Y-96112774D01*
X128497520Y-96188057D01*
X128539055Y-96270833D01*
X128583324Y-96359357D01*
X128629462Y-96451886D01*
X128676600Y-96546673D01*
X128723874Y-96641975D01*
X128770417Y-96736046D01*
X128815361Y-96827142D01*
X128857841Y-96913518D01*
X128896991Y-96993429D01*
X128931942Y-97065131D01*
X128961830Y-97126878D01*
X128985788Y-97176927D01*
X129002949Y-97213532D01*
X129012446Y-97234948D01*
X129012834Y-97235915D01*
X129023777Y-97264812D01*
X129027278Y-97281676D01*
X129023340Y-97293037D01*
X129012865Y-97304529D01*
X129007145Y-97309379D01*
X128999337Y-97313387D01*
X128987535Y-97316658D01*
X128969837Y-97319303D01*
X128944336Y-97321428D01*
X128909129Y-97323142D01*
X128862312Y-97324554D01*
X128801979Y-97325770D01*
X128726226Y-97326900D01*
X128633149Y-97328052D01*
X128589674Y-97328554D01*
X128498327Y-97329370D01*
X128410401Y-97329729D01*
X128328560Y-97329650D01*
X128255467Y-97329154D01*
X128193784Y-97328260D01*
X128146173Y-97326988D01*
X128115298Y-97325359D01*
X128110878Y-97324940D01*
X128072771Y-97320446D01*
X128050208Y-97315891D01*
X128038837Y-97309098D01*
X128034306Y-97297893D01*
X128032842Y-97285941D01*
X128035458Y-97254469D01*
X128046242Y-97213727D01*
X128062468Y-97171223D01*
X128081412Y-97134463D01*
X128094273Y-97116776D01*
X128118181Y-97095545D01*
X128147721Y-97075668D01*
X128150806Y-97073957D01*
X128190321Y-97042541D01*
X128215333Y-97001597D01*
X128225967Y-96955243D01*
X128222346Y-96907600D01*
X128204593Y-96862785D01*
X128172831Y-96824919D01*
X128142760Y-96804970D01*
X128088110Y-96787212D01*
X128035192Y-96788824D01*
X127986273Y-96809185D01*
X127943623Y-96847674D01*
X127932408Y-96862636D01*
X127919842Y-96883442D01*
X127913717Y-96903489D01*
X127912849Y-96929897D01*
X127915504Y-96964190D01*
X127922009Y-97031663D01*
X127652057Y-97576548D01*
X127382104Y-98121434D01*
X127271304Y-98120542D01*
X127224595Y-98119347D01*
X127188352Y-98116801D01*
X127166031Y-98113229D01*
X127160503Y-98110030D01*
X127161855Y-98106717D01*
X127370586Y-98106717D01*
X127375588Y-98111717D01*
X127380590Y-98106717D01*
X127375588Y-98101717D01*
X127370586Y-98106717D01*
X127161855Y-98106717D01*
X127164986Y-98099044D01*
X127178444Y-98070603D01*
X127200893Y-98024677D01*
X127232346Y-97961235D01*
X127272820Y-97880248D01*
X127322329Y-97781687D01*
X127380888Y-97665522D01*
X127448512Y-97531724D01*
X127525216Y-97380262D01*
X127611014Y-97211107D01*
X127705922Y-97024229D01*
X127809955Y-96819599D01*
X127837720Y-96765018D01*
X127881305Y-96679857D01*
X127922575Y-96600199D01*
X127960575Y-96527822D01*
X127994349Y-96464499D01*
X128022941Y-96412005D01*
X128045395Y-96372118D01*
X128060756Y-96346611D01*
X128067970Y-96337291D01*
X128079819Y-96334049D01*
X128091134Y-96334998D01*
X128103013Y-96341780D01*
X128116554Y-96356039D01*
X128132856Y-96379420D01*
X128153016Y-96413566D01*
X128178135Y-96460122D01*
X128209309Y-96520730D01*
X128247638Y-96597036D01*
X128265540Y-96632969D01*
X128305165Y-96712703D01*
X128336757Y-96776758D01*
X128361212Y-96827352D01*
X128379425Y-96866703D01*
X128392293Y-96897030D01*
X128400712Y-96920551D01*
X128405576Y-96939484D01*
X128407782Y-96956049D01*
X128408226Y-96972464D01*
X128407951Y-96985667D01*
X128408426Y-97024840D01*
X128414135Y-97053920D01*
X128427545Y-97082626D01*
X128436284Y-97097259D01*
X128458024Y-97127842D01*
X128480812Y-97146640D01*
X128510421Y-97156459D01*
X128552622Y-97160107D01*
X128566057Y-97160387D01*
X128618927Y-97152588D01*
X128661898Y-97129719D01*
X128693477Y-97094862D01*
X128712173Y-97051095D01*
X128716491Y-97001498D01*
X128704940Y-96949152D01*
X128686364Y-96912128D01*
X128668802Y-96888305D01*
X128653246Y-96873788D01*
X128647834Y-96871717D01*
X128631567Y-96865328D01*
X128611364Y-96845380D01*
X128586405Y-96810697D01*
X128555868Y-96760104D01*
X128518933Y-96692425D01*
X128508093Y-96671717D01*
X128478673Y-96614417D01*
X128446183Y-96549940D01*
X128411755Y-96480649D01*
X128376523Y-96408908D01*
X128341618Y-96337080D01*
X128308174Y-96267529D01*
X128277323Y-96202619D01*
X128250199Y-96144714D01*
X128227933Y-96096176D01*
X128211660Y-96059371D01*
X128202511Y-96036661D01*
X128200913Y-96030758D01*
X128205760Y-96015403D01*
X128218510Y-95988677D01*
X128236476Y-95956177D01*
X128237766Y-95953989D01*
X128258112Y-95921214D01*
X128273356Y-95902418D01*
X128287634Y-95893841D01*
X128305082Y-95891721D01*
X128306243Y-95891717D01*
X128334919Y-95897507D01*
G37*
D13*
%TO.C,R8*%
X111002500Y-105620242D02*
X111002500Y-106094758D01*
X112047500Y-105620242D02*
X112047500Y-106094758D01*
D15*
%TO.C,C1*%
X121030000Y-104490000D02*
G75*
G02*
X120830000Y-104490000I-100000J0D01*
G01*
X120830000Y-104490000D02*
G75*
G02*
X121030000Y-104490000I100000J0D01*
G01*
D16*
X131680000Y-104490000D02*
G75*
G02*
X121680000Y-104490000I-5000000J0D01*
G01*
X121680000Y-104490000D02*
G75*
G02*
X131680000Y-104490000I5000000J0D01*
G01*
D13*
%TO.C,R7*%
X119092500Y-105625242D02*
X119092500Y-106099758D01*
X120137500Y-105625242D02*
X120137500Y-106099758D01*
%TO.C,R12*%
X117597500Y-106697742D02*
X117597500Y-107172258D01*
X118642500Y-106697742D02*
X118642500Y-107172258D01*
%TO.C,CIN1..12*%
X120108748Y-110735000D02*
X120631252Y-110735000D01*
X120108748Y-112205000D02*
X120631252Y-112205000D01*
%TO.C,J1*%
X97175000Y-119120000D02*
X97175000Y-120170000D01*
X107720000Y-115950000D02*
X98920000Y-115950000D01*
X107720000Y-115950000D02*
X107720000Y-115195000D01*
X109465000Y-119120000D02*
X109465000Y-120170000D01*
%TO.C,D5*%
X106075000Y-95465000D02*
X106075000Y-97750000D01*
X107545000Y-95465000D02*
X106075000Y-95465000D01*
X107545000Y-97750000D02*
X107545000Y-95465000D01*
%TO.C,R11*%
X136657500Y-96777742D02*
X136657500Y-97252258D01*
X137702500Y-96777742D02*
X137702500Y-97252258D01*
%TO.C,L2*%
X91750000Y-99520000D02*
X102350000Y-99520000D01*
X91750000Y-102720000D02*
X91750000Y-99520000D01*
X91750000Y-110120000D02*
X91750000Y-106920000D01*
X102350000Y-99520000D02*
X102350000Y-102720000D01*
X102350000Y-106920000D02*
X102350000Y-110120000D01*
X102350000Y-110120000D02*
X91750000Y-110120000D01*
%TO.C,J2*%
X124875000Y-118970000D02*
X124875000Y-120020000D01*
X135420000Y-115800000D02*
X126620000Y-115800000D01*
X135420000Y-115800000D02*
X135420000Y-115045000D01*
X137165000Y-118970000D02*
X137165000Y-120020000D01*
%TO.C,R10*%
X132557500Y-101492742D02*
X132557500Y-101967258D01*
X133602500Y-101492742D02*
X133602500Y-101967258D01*
%TO.C,CIN1..4*%
X109169420Y-102810000D02*
X109450580Y-102810000D01*
X109169420Y-103830000D02*
X109450580Y-103830000D01*
%TO.C,CIN1..9*%
X134515000Y-106591252D02*
X134515000Y-106068748D01*
X135985000Y-106591252D02*
X135985000Y-106068748D01*
%TO.C,D2*%
X104415000Y-96162500D02*
X104415000Y-98447500D01*
X104415000Y-98447500D02*
X105885000Y-98447500D01*
X105885000Y-98447500D02*
X105885000Y-96162500D01*
%TO.C,D3*%
X142000000Y-96250000D02*
X142000000Y-96094000D01*
X142000000Y-98566000D02*
X142000000Y-98410000D01*
X138768563Y-96250000D02*
G75*
G02*
X142000000Y-96094484I1671437J-1080000D01*
G01*
X139399039Y-96250000D02*
G75*
G02*
X141480961Y-96250000I1040961J-1080000D01*
G01*
X141480961Y-98410000D02*
G75*
G02*
X139399039Y-98410000I-1040961J1080000D01*
G01*
X142000000Y-98565516D02*
G75*
G02*
X138768563Y-98410000I-1560000J1235516D01*
G01*
%TO.C,J5*%
X111830000Y-115880000D02*
X111830000Y-117880000D01*
X111830000Y-119780000D02*
X111830000Y-121680000D01*
X111830000Y-121680000D02*
X121230000Y-121680000D01*
X121230000Y-115880000D02*
X121230000Y-117880000D01*
X121230000Y-119780000D02*
X121230000Y-121680000D01*
%TD*%
M02*
