%TF.GenerationSoftware,KiCad,Pcbnew,9.0.3*%
%TF.CreationDate,2025-10-08T16:43:24+01:00*%
%TF.ProjectId,power_bank,706f7765-725f-4626-916e-6b2e6b696361,rev?*%
%TF.SameCoordinates,Original*%
%TF.FileFunction,Soldermask,Bot*%
%TF.FilePolarity,Negative*%
%FSLAX46Y46*%
G04 Gerber Fmt 4.6, Leading zero omitted, Abs format (unit mm)*
G04 Created by KiCad (PCBNEW 9.0.3) date 2025-10-08 16:43:24*
%MOMM*%
%LPD*%
G01*
G04 APERTURE LIST*
G04 Aperture macros list*
%AMRoundRect*
0 Rectangle with rounded corners*
0 $1 Rounding radius*
0 $2 $3 $4 $5 $6 $7 $8 $9 X,Y pos of 4 corners*
0 Add a 4 corners polygon primitive as box body*
4,1,4,$2,$3,$4,$5,$6,$7,$8,$9,$2,$3,0*
0 Add four circle primitives for the rounded corners*
1,1,$1+$1,$2,$3*
1,1,$1+$1,$4,$5*
1,1,$1+$1,$6,$7*
1,1,$1+$1,$8,$9*
0 Add four rect primitives between the rounded corners*
20,1,$1+$1,$2,$3,$4,$5,0*
20,1,$1+$1,$4,$5,$6,$7,0*
20,1,$1+$1,$6,$7,$8,$9,0*
20,1,$1+$1,$8,$9,$2,$3,0*%
G04 Aperture macros list end*
%ADD10C,3.800000*%
%ADD11O,0.800000X0.800000*%
%ADD12O,1.800000X1.150000*%
%ADD13O,2.000000X1.450000*%
%ADD14RoundRect,0.102000X-0.600000X-0.600000X0.600000X-0.600000X0.600000X0.600000X-0.600000X0.600000X0*%
%ADD15C,1.404000*%
%ADD16C,1.100000*%
%ADD17O,1.900000X3.500000*%
%ADD18R,1.800000X1.800000*%
%ADD19C,1.800000*%
%ADD20C,0.650000*%
%ADD21O,1.000000X2.100000*%
%ADD22O,1.000000X1.600000*%
%ADD23RoundRect,0.250000X0.475000X-0.250000X0.475000X0.250000X-0.475000X0.250000X-0.475000X-0.250000X0*%
%ADD24RoundRect,0.250000X-0.250000X-0.475000X0.250000X-0.475000X0.250000X0.475000X-0.250000X0.475000X0*%
%ADD25RoundRect,0.225000X0.225000X0.250000X-0.225000X0.250000X-0.225000X-0.250000X0.225000X-0.250000X0*%
%ADD26RoundRect,0.200000X-0.275000X0.200000X-0.275000X-0.200000X0.275000X-0.200000X0.275000X0.200000X0*%
%ADD27RoundRect,0.162500X-0.162500X0.447500X-0.162500X-0.447500X0.162500X-0.447500X0.162500X0.447500X0*%
%ADD28RoundRect,0.162500X0.447500X0.162500X-0.447500X0.162500X-0.447500X-0.162500X0.447500X-0.162500X0*%
%ADD29RoundRect,0.162500X0.162500X-0.447500X0.162500X0.447500X-0.162500X0.447500X-0.162500X-0.447500X0*%
%ADD30RoundRect,0.250000X-0.475000X0.250000X-0.475000X-0.250000X0.475000X-0.250000X0.475000X0.250000X0*%
%ADD31RoundRect,0.250000X0.250000X0.475000X-0.250000X0.475000X-0.250000X-0.475000X0.250000X-0.475000X0*%
%ADD32RoundRect,0.250000X0.312500X0.625000X-0.312500X0.625000X-0.312500X-0.625000X0.312500X-0.625000X0*%
G04 APERTURE END LIST*
D10*
%TO.C,H2*%
X93530000Y-117160000D03*
%TD*%
D11*
%TO.C,J4*%
X140435000Y-112135000D03*
X140435000Y-107135000D03*
D12*
X143185000Y-113510000D03*
D13*
X139385000Y-113360000D03*
X139385000Y-105910000D03*
D12*
X143185000Y-105760000D03*
%TD*%
D14*
%TO.C,C1*%
X124180000Y-104490000D03*
D15*
X129180000Y-104490000D03*
%TD*%
D10*
%TO.C,H1*%
X140640000Y-117310000D03*
%TD*%
D16*
%TO.C,J1*%
X105620000Y-117070000D03*
X101020000Y-117070000D03*
D17*
X109020000Y-117070000D03*
X97620000Y-117070000D03*
%TD*%
D16*
%TO.C,J2*%
X133320000Y-116920000D03*
X128720000Y-116920000D03*
D17*
X136720000Y-116920000D03*
X125320000Y-116920000D03*
%TD*%
D18*
%TO.C,D3*%
X141710000Y-97330000D03*
D19*
X139170000Y-97330000D03*
%TD*%
D20*
%TO.C,J5*%
X113640000Y-115175000D03*
X119420000Y-115175000D03*
D21*
X112210000Y-114675000D03*
D22*
X112210000Y-118855000D03*
D21*
X120850000Y-114675000D03*
D22*
X120850000Y-118855000D03*
%TD*%
D23*
%TO.C,CBAT1..7*%
X127190000Y-102870000D03*
X127190000Y-100970000D03*
%TD*%
D24*
%TO.C,CBAT1..4*%
X95290000Y-106010000D03*
X97190000Y-106010000D03*
%TD*%
%TO.C,CBAT1..1*%
X95260000Y-101910000D03*
X97160000Y-101910000D03*
%TD*%
D25*
%TO.C,CIN1..5*%
X123090000Y-101290000D03*
X121540000Y-101290000D03*
%TD*%
D26*
%TO.C,RNTC2*%
X126100000Y-106085000D03*
X126100000Y-107735000D03*
%TD*%
D27*
%TO.C,Q3*%
X104380000Y-109610000D03*
X106280000Y-109610000D03*
X105330000Y-112230000D03*
%TD*%
D28*
%TO.C,Q1*%
X130400000Y-105990000D03*
X130400000Y-107890000D03*
X127780000Y-106940000D03*
%TD*%
D24*
%TO.C,CBAT1..5*%
X95290000Y-108100000D03*
X97190000Y-108100000D03*
%TD*%
D28*
%TO.C,Q4*%
X125550000Y-110900000D03*
X125550000Y-112800000D03*
X122930000Y-111850000D03*
%TD*%
D29*
%TO.C,Q2*%
X135460000Y-113790000D03*
X133560000Y-113790000D03*
X134510000Y-111170000D03*
%TD*%
D23*
%TO.C,CBAT1..6*%
X125140000Y-102870000D03*
X125140000Y-100970000D03*
%TD*%
D30*
%TO.C,CBAT1..9*%
X131310000Y-100980000D03*
X131310000Y-102880000D03*
%TD*%
D31*
%TO.C,CIN1..6*%
X121860000Y-99510000D03*
X119960000Y-99510000D03*
%TD*%
D23*
%TO.C,CBAT1..8*%
X129260000Y-102870000D03*
X129260000Y-100970000D03*
%TD*%
D32*
%TO.C,RNTC1*%
X121612500Y-103220000D03*
X118687500Y-103220000D03*
%TD*%
D24*
%TO.C,CBAT1..3*%
X95280000Y-103950000D03*
X97180000Y-103950000D03*
%TD*%
M02*
