%TF.GenerationSoftware,KiCad,Pcbnew,9.0.3*%
%TF.CreationDate,2025-09-25T12:47:50+01:00*%
%TF.ProjectId,power_bank,706f7765-725f-4626-916e-6b2e6b696361,rev?*%
%TF.SameCoordinates,Original*%
%TF.FileFunction,Legend,Bot*%
%TF.FilePolarity,Positive*%
%FSLAX46Y46*%
G04 Gerber Fmt 4.6, Leading zero omitted, Abs format (unit mm)*
G04 Created by KiCad (PCBNEW 9.0.3) date 2025-09-25 12:47:50*
%MOMM*%
%LPD*%
G01*
G04 APERTURE LIST*
%ADD10C,0.150000*%
%ADD11C,0.000000*%
%ADD12C,0.120000*%
G04 APERTURE END LIST*
D10*
X129229580Y-99491428D02*
X129277200Y-99443809D01*
X129277200Y-99443809D02*
X129324819Y-99300952D01*
X129324819Y-99300952D02*
X129324819Y-99205714D01*
X129324819Y-99205714D02*
X129277200Y-99062857D01*
X129277200Y-99062857D02*
X129181961Y-98967619D01*
X129181961Y-98967619D02*
X129086723Y-98920000D01*
X129086723Y-98920000D02*
X128896247Y-98872381D01*
X128896247Y-98872381D02*
X128753390Y-98872381D01*
X128753390Y-98872381D02*
X128562914Y-98920000D01*
X128562914Y-98920000D02*
X128467676Y-98967619D01*
X128467676Y-98967619D02*
X128372438Y-99062857D01*
X128372438Y-99062857D02*
X128324819Y-99205714D01*
X128324819Y-99205714D02*
X128324819Y-99300952D01*
X128324819Y-99300952D02*
X128372438Y-99443809D01*
X128372438Y-99443809D02*
X128420057Y-99491428D01*
X128801009Y-100253333D02*
X128848628Y-100396190D01*
X128848628Y-100396190D02*
X128896247Y-100443809D01*
X128896247Y-100443809D02*
X128991485Y-100491428D01*
X128991485Y-100491428D02*
X129134342Y-100491428D01*
X129134342Y-100491428D02*
X129229580Y-100443809D01*
X129229580Y-100443809D02*
X129277200Y-100396190D01*
X129277200Y-100396190D02*
X129324819Y-100300952D01*
X129324819Y-100300952D02*
X129324819Y-99920000D01*
X129324819Y-99920000D02*
X128324819Y-99920000D01*
X128324819Y-99920000D02*
X128324819Y-100253333D01*
X128324819Y-100253333D02*
X128372438Y-100348571D01*
X128372438Y-100348571D02*
X128420057Y-100396190D01*
X128420057Y-100396190D02*
X128515295Y-100443809D01*
X128515295Y-100443809D02*
X128610533Y-100443809D01*
X128610533Y-100443809D02*
X128705771Y-100396190D01*
X128705771Y-100396190D02*
X128753390Y-100348571D01*
X128753390Y-100348571D02*
X128801009Y-100253333D01*
X128801009Y-100253333D02*
X128801009Y-99920000D01*
X129039104Y-100872381D02*
X129039104Y-101348571D01*
X129324819Y-100777143D02*
X128324819Y-101110476D01*
X128324819Y-101110476D02*
X129324819Y-101443809D01*
X128324819Y-101634286D02*
X128324819Y-102205714D01*
X129324819Y-101920000D02*
X128324819Y-101920000D01*
X129324819Y-103062857D02*
X129324819Y-102491429D01*
X129324819Y-102777143D02*
X128324819Y-102777143D01*
X128324819Y-102777143D02*
X128467676Y-102681905D01*
X128467676Y-102681905D02*
X128562914Y-102586667D01*
X128562914Y-102586667D02*
X128610533Y-102491429D01*
X129229580Y-103491429D02*
X129277200Y-103539048D01*
X129277200Y-103539048D02*
X129324819Y-103491429D01*
X129324819Y-103491429D02*
X129277200Y-103443810D01*
X129277200Y-103443810D02*
X129229580Y-103491429D01*
X129229580Y-103491429D02*
X129324819Y-103491429D01*
X129229580Y-103967619D02*
X129277200Y-104015238D01*
X129277200Y-104015238D02*
X129324819Y-103967619D01*
X129324819Y-103967619D02*
X129277200Y-103920000D01*
X129277200Y-103920000D02*
X129229580Y-103967619D01*
X129229580Y-103967619D02*
X129324819Y-103967619D01*
X128324819Y-104348571D02*
X128324819Y-105015237D01*
X128324819Y-105015237D02*
X129324819Y-104586666D01*
X98668571Y-108049580D02*
X98716190Y-108097200D01*
X98716190Y-108097200D02*
X98859047Y-108144819D01*
X98859047Y-108144819D02*
X98954285Y-108144819D01*
X98954285Y-108144819D02*
X99097142Y-108097200D01*
X99097142Y-108097200D02*
X99192380Y-108001961D01*
X99192380Y-108001961D02*
X99239999Y-107906723D01*
X99239999Y-107906723D02*
X99287618Y-107716247D01*
X99287618Y-107716247D02*
X99287618Y-107573390D01*
X99287618Y-107573390D02*
X99239999Y-107382914D01*
X99239999Y-107382914D02*
X99192380Y-107287676D01*
X99192380Y-107287676D02*
X99097142Y-107192438D01*
X99097142Y-107192438D02*
X98954285Y-107144819D01*
X98954285Y-107144819D02*
X98859047Y-107144819D01*
X98859047Y-107144819D02*
X98716190Y-107192438D01*
X98716190Y-107192438D02*
X98668571Y-107240057D01*
X97906666Y-107621009D02*
X97763809Y-107668628D01*
X97763809Y-107668628D02*
X97716190Y-107716247D01*
X97716190Y-107716247D02*
X97668571Y-107811485D01*
X97668571Y-107811485D02*
X97668571Y-107954342D01*
X97668571Y-107954342D02*
X97716190Y-108049580D01*
X97716190Y-108049580D02*
X97763809Y-108097200D01*
X97763809Y-108097200D02*
X97859047Y-108144819D01*
X97859047Y-108144819D02*
X98239999Y-108144819D01*
X98239999Y-108144819D02*
X98239999Y-107144819D01*
X98239999Y-107144819D02*
X97906666Y-107144819D01*
X97906666Y-107144819D02*
X97811428Y-107192438D01*
X97811428Y-107192438D02*
X97763809Y-107240057D01*
X97763809Y-107240057D02*
X97716190Y-107335295D01*
X97716190Y-107335295D02*
X97716190Y-107430533D01*
X97716190Y-107430533D02*
X97763809Y-107525771D01*
X97763809Y-107525771D02*
X97811428Y-107573390D01*
X97811428Y-107573390D02*
X97906666Y-107621009D01*
X97906666Y-107621009D02*
X98239999Y-107621009D01*
X97287618Y-107859104D02*
X96811428Y-107859104D01*
X97382856Y-108144819D02*
X97049523Y-107144819D01*
X97049523Y-107144819D02*
X96716190Y-108144819D01*
X96525713Y-107144819D02*
X95954285Y-107144819D01*
X96239999Y-108144819D02*
X96239999Y-107144819D01*
X95097142Y-108144819D02*
X95668570Y-108144819D01*
X95382856Y-108144819D02*
X95382856Y-107144819D01*
X95382856Y-107144819D02*
X95478094Y-107287676D01*
X95478094Y-107287676D02*
X95573332Y-107382914D01*
X95573332Y-107382914D02*
X95668570Y-107430533D01*
X94668570Y-108049580D02*
X94620951Y-108097200D01*
X94620951Y-108097200D02*
X94668570Y-108144819D01*
X94668570Y-108144819D02*
X94716189Y-108097200D01*
X94716189Y-108097200D02*
X94668570Y-108049580D01*
X94668570Y-108049580D02*
X94668570Y-108144819D01*
X94192380Y-108049580D02*
X94144761Y-108097200D01*
X94144761Y-108097200D02*
X94192380Y-108144819D01*
X94192380Y-108144819D02*
X94239999Y-108097200D01*
X94239999Y-108097200D02*
X94192380Y-108049580D01*
X94192380Y-108049580D02*
X94192380Y-108144819D01*
X93287619Y-107478152D02*
X93287619Y-108144819D01*
X93525714Y-107097200D02*
X93763809Y-107811485D01*
X93763809Y-107811485D02*
X93144762Y-107811485D01*
X98638571Y-103949580D02*
X98686190Y-103997200D01*
X98686190Y-103997200D02*
X98829047Y-104044819D01*
X98829047Y-104044819D02*
X98924285Y-104044819D01*
X98924285Y-104044819D02*
X99067142Y-103997200D01*
X99067142Y-103997200D02*
X99162380Y-103901961D01*
X99162380Y-103901961D02*
X99209999Y-103806723D01*
X99209999Y-103806723D02*
X99257618Y-103616247D01*
X99257618Y-103616247D02*
X99257618Y-103473390D01*
X99257618Y-103473390D02*
X99209999Y-103282914D01*
X99209999Y-103282914D02*
X99162380Y-103187676D01*
X99162380Y-103187676D02*
X99067142Y-103092438D01*
X99067142Y-103092438D02*
X98924285Y-103044819D01*
X98924285Y-103044819D02*
X98829047Y-103044819D01*
X98829047Y-103044819D02*
X98686190Y-103092438D01*
X98686190Y-103092438D02*
X98638571Y-103140057D01*
X97876666Y-103521009D02*
X97733809Y-103568628D01*
X97733809Y-103568628D02*
X97686190Y-103616247D01*
X97686190Y-103616247D02*
X97638571Y-103711485D01*
X97638571Y-103711485D02*
X97638571Y-103854342D01*
X97638571Y-103854342D02*
X97686190Y-103949580D01*
X97686190Y-103949580D02*
X97733809Y-103997200D01*
X97733809Y-103997200D02*
X97829047Y-104044819D01*
X97829047Y-104044819D02*
X98209999Y-104044819D01*
X98209999Y-104044819D02*
X98209999Y-103044819D01*
X98209999Y-103044819D02*
X97876666Y-103044819D01*
X97876666Y-103044819D02*
X97781428Y-103092438D01*
X97781428Y-103092438D02*
X97733809Y-103140057D01*
X97733809Y-103140057D02*
X97686190Y-103235295D01*
X97686190Y-103235295D02*
X97686190Y-103330533D01*
X97686190Y-103330533D02*
X97733809Y-103425771D01*
X97733809Y-103425771D02*
X97781428Y-103473390D01*
X97781428Y-103473390D02*
X97876666Y-103521009D01*
X97876666Y-103521009D02*
X98209999Y-103521009D01*
X97257618Y-103759104D02*
X96781428Y-103759104D01*
X97352856Y-104044819D02*
X97019523Y-103044819D01*
X97019523Y-103044819D02*
X96686190Y-104044819D01*
X96495713Y-103044819D02*
X95924285Y-103044819D01*
X96209999Y-104044819D02*
X96209999Y-103044819D01*
X95067142Y-104044819D02*
X95638570Y-104044819D01*
X95352856Y-104044819D02*
X95352856Y-103044819D01*
X95352856Y-103044819D02*
X95448094Y-103187676D01*
X95448094Y-103187676D02*
X95543332Y-103282914D01*
X95543332Y-103282914D02*
X95638570Y-103330533D01*
X94638570Y-103949580D02*
X94590951Y-103997200D01*
X94590951Y-103997200D02*
X94638570Y-104044819D01*
X94638570Y-104044819D02*
X94686189Y-103997200D01*
X94686189Y-103997200D02*
X94638570Y-103949580D01*
X94638570Y-103949580D02*
X94638570Y-104044819D01*
X94162380Y-103949580D02*
X94114761Y-103997200D01*
X94114761Y-103997200D02*
X94162380Y-104044819D01*
X94162380Y-104044819D02*
X94209999Y-103997200D01*
X94209999Y-103997200D02*
X94162380Y-103949580D01*
X94162380Y-103949580D02*
X94162380Y-104044819D01*
X93162381Y-104044819D02*
X93733809Y-104044819D01*
X93448095Y-104044819D02*
X93448095Y-103044819D01*
X93448095Y-103044819D02*
X93543333Y-103187676D01*
X93543333Y-103187676D02*
X93638571Y-103282914D01*
X93638571Y-103282914D02*
X93733809Y-103330533D01*
X124195951Y-100219580D02*
X124243570Y-100267200D01*
X124243570Y-100267200D02*
X124386427Y-100314819D01*
X124386427Y-100314819D02*
X124481665Y-100314819D01*
X124481665Y-100314819D02*
X124624522Y-100267200D01*
X124624522Y-100267200D02*
X124719760Y-100171961D01*
X124719760Y-100171961D02*
X124767379Y-100076723D01*
X124767379Y-100076723D02*
X124814998Y-99886247D01*
X124814998Y-99886247D02*
X124814998Y-99743390D01*
X124814998Y-99743390D02*
X124767379Y-99552914D01*
X124767379Y-99552914D02*
X124719760Y-99457676D01*
X124719760Y-99457676D02*
X124624522Y-99362438D01*
X124624522Y-99362438D02*
X124481665Y-99314819D01*
X124481665Y-99314819D02*
X124386427Y-99314819D01*
X124386427Y-99314819D02*
X124243570Y-99362438D01*
X124243570Y-99362438D02*
X124195951Y-99410057D01*
X123767379Y-100314819D02*
X123767379Y-99314819D01*
X123291189Y-100314819D02*
X123291189Y-99314819D01*
X123291189Y-99314819D02*
X122719761Y-100314819D01*
X122719761Y-100314819D02*
X122719761Y-99314819D01*
X121719761Y-100314819D02*
X122291189Y-100314819D01*
X122005475Y-100314819D02*
X122005475Y-99314819D01*
X122005475Y-99314819D02*
X122100713Y-99457676D01*
X122100713Y-99457676D02*
X122195951Y-99552914D01*
X122195951Y-99552914D02*
X122291189Y-99600533D01*
X121291189Y-100219580D02*
X121243570Y-100267200D01*
X121243570Y-100267200D02*
X121291189Y-100314819D01*
X121291189Y-100314819D02*
X121338808Y-100267200D01*
X121338808Y-100267200D02*
X121291189Y-100219580D01*
X121291189Y-100219580D02*
X121291189Y-100314819D01*
X120814999Y-100219580D02*
X120767380Y-100267200D01*
X120767380Y-100267200D02*
X120814999Y-100314819D01*
X120814999Y-100314819D02*
X120862618Y-100267200D01*
X120862618Y-100267200D02*
X120814999Y-100219580D01*
X120814999Y-100219580D02*
X120814999Y-100314819D01*
X119862619Y-99314819D02*
X120338809Y-99314819D01*
X120338809Y-99314819D02*
X120386428Y-99791009D01*
X120386428Y-99791009D02*
X120338809Y-99743390D01*
X120338809Y-99743390D02*
X120243571Y-99695771D01*
X120243571Y-99695771D02*
X120005476Y-99695771D01*
X120005476Y-99695771D02*
X119910238Y-99743390D01*
X119910238Y-99743390D02*
X119862619Y-99791009D01*
X119862619Y-99791009D02*
X119815000Y-99886247D01*
X119815000Y-99886247D02*
X119815000Y-100124342D01*
X119815000Y-100124342D02*
X119862619Y-100219580D01*
X119862619Y-100219580D02*
X119910238Y-100267200D01*
X119910238Y-100267200D02*
X120005476Y-100314819D01*
X120005476Y-100314819D02*
X120243571Y-100314819D01*
X120243571Y-100314819D02*
X120338809Y-100267200D01*
X120338809Y-100267200D02*
X120386428Y-100219580D01*
X125124819Y-105338571D02*
X124648628Y-105005238D01*
X125124819Y-104767143D02*
X124124819Y-104767143D01*
X124124819Y-104767143D02*
X124124819Y-105148095D01*
X124124819Y-105148095D02*
X124172438Y-105243333D01*
X124172438Y-105243333D02*
X124220057Y-105290952D01*
X124220057Y-105290952D02*
X124315295Y-105338571D01*
X124315295Y-105338571D02*
X124458152Y-105338571D01*
X124458152Y-105338571D02*
X124553390Y-105290952D01*
X124553390Y-105290952D02*
X124601009Y-105243333D01*
X124601009Y-105243333D02*
X124648628Y-105148095D01*
X124648628Y-105148095D02*
X124648628Y-104767143D01*
X125124819Y-105767143D02*
X124124819Y-105767143D01*
X124124819Y-105767143D02*
X125124819Y-106338571D01*
X125124819Y-106338571D02*
X124124819Y-106338571D01*
X124124819Y-106671905D02*
X124124819Y-107243333D01*
X125124819Y-106957619D02*
X124124819Y-106957619D01*
X125029580Y-108148095D02*
X125077200Y-108100476D01*
X125077200Y-108100476D02*
X125124819Y-107957619D01*
X125124819Y-107957619D02*
X125124819Y-107862381D01*
X125124819Y-107862381D02*
X125077200Y-107719524D01*
X125077200Y-107719524D02*
X124981961Y-107624286D01*
X124981961Y-107624286D02*
X124886723Y-107576667D01*
X124886723Y-107576667D02*
X124696247Y-107529048D01*
X124696247Y-107529048D02*
X124553390Y-107529048D01*
X124553390Y-107529048D02*
X124362914Y-107576667D01*
X124362914Y-107576667D02*
X124267676Y-107624286D01*
X124267676Y-107624286D02*
X124172438Y-107719524D01*
X124172438Y-107719524D02*
X124124819Y-107862381D01*
X124124819Y-107862381D02*
X124124819Y-107957619D01*
X124124819Y-107957619D02*
X124172438Y-108100476D01*
X124172438Y-108100476D02*
X124220057Y-108148095D01*
X124220057Y-108529048D02*
X124172438Y-108576667D01*
X124172438Y-108576667D02*
X124124819Y-108671905D01*
X124124819Y-108671905D02*
X124124819Y-108910000D01*
X124124819Y-108910000D02*
X124172438Y-109005238D01*
X124172438Y-109005238D02*
X124220057Y-109052857D01*
X124220057Y-109052857D02*
X124315295Y-109100476D01*
X124315295Y-109100476D02*
X124410533Y-109100476D01*
X124410533Y-109100476D02*
X124553390Y-109052857D01*
X124553390Y-109052857D02*
X125124819Y-108481429D01*
X125124819Y-108481429D02*
X125124819Y-109100476D01*
X103280057Y-110824761D02*
X103232438Y-110729523D01*
X103232438Y-110729523D02*
X103137200Y-110634285D01*
X103137200Y-110634285D02*
X102994342Y-110491428D01*
X102994342Y-110491428D02*
X102946723Y-110396190D01*
X102946723Y-110396190D02*
X102946723Y-110300952D01*
X103184819Y-110348571D02*
X103137200Y-110253333D01*
X103137200Y-110253333D02*
X103041961Y-110158095D01*
X103041961Y-110158095D02*
X102851485Y-110110476D01*
X102851485Y-110110476D02*
X102518152Y-110110476D01*
X102518152Y-110110476D02*
X102327676Y-110158095D01*
X102327676Y-110158095D02*
X102232438Y-110253333D01*
X102232438Y-110253333D02*
X102184819Y-110348571D01*
X102184819Y-110348571D02*
X102184819Y-110539047D01*
X102184819Y-110539047D02*
X102232438Y-110634285D01*
X102232438Y-110634285D02*
X102327676Y-110729523D01*
X102327676Y-110729523D02*
X102518152Y-110777142D01*
X102518152Y-110777142D02*
X102851485Y-110777142D01*
X102851485Y-110777142D02*
X103041961Y-110729523D01*
X103041961Y-110729523D02*
X103137200Y-110634285D01*
X103137200Y-110634285D02*
X103184819Y-110539047D01*
X103184819Y-110539047D02*
X103184819Y-110348571D01*
X102184819Y-111110476D02*
X102184819Y-111729523D01*
X102184819Y-111729523D02*
X102565771Y-111396190D01*
X102565771Y-111396190D02*
X102565771Y-111539047D01*
X102565771Y-111539047D02*
X102613390Y-111634285D01*
X102613390Y-111634285D02*
X102661009Y-111681904D01*
X102661009Y-111681904D02*
X102756247Y-111729523D01*
X102756247Y-111729523D02*
X102994342Y-111729523D01*
X102994342Y-111729523D02*
X103089580Y-111681904D01*
X103089580Y-111681904D02*
X103137200Y-111634285D01*
X103137200Y-111634285D02*
X103184819Y-111539047D01*
X103184819Y-111539047D02*
X103184819Y-111253333D01*
X103184819Y-111253333D02*
X103137200Y-111158095D01*
X103137200Y-111158095D02*
X103089580Y-111110476D01*
X129185238Y-104890057D02*
X129280476Y-104842438D01*
X129280476Y-104842438D02*
X129375714Y-104747200D01*
X129375714Y-104747200D02*
X129518571Y-104604342D01*
X129518571Y-104604342D02*
X129613809Y-104556723D01*
X129613809Y-104556723D02*
X129709047Y-104556723D01*
X129661428Y-104794819D02*
X129756666Y-104747200D01*
X129756666Y-104747200D02*
X129851904Y-104651961D01*
X129851904Y-104651961D02*
X129899523Y-104461485D01*
X129899523Y-104461485D02*
X129899523Y-104128152D01*
X129899523Y-104128152D02*
X129851904Y-103937676D01*
X129851904Y-103937676D02*
X129756666Y-103842438D01*
X129756666Y-103842438D02*
X129661428Y-103794819D01*
X129661428Y-103794819D02*
X129470952Y-103794819D01*
X129470952Y-103794819D02*
X129375714Y-103842438D01*
X129375714Y-103842438D02*
X129280476Y-103937676D01*
X129280476Y-103937676D02*
X129232857Y-104128152D01*
X129232857Y-104128152D02*
X129232857Y-104461485D01*
X129232857Y-104461485D02*
X129280476Y-104651961D01*
X129280476Y-104651961D02*
X129375714Y-104747200D01*
X129375714Y-104747200D02*
X129470952Y-104794819D01*
X129470952Y-104794819D02*
X129661428Y-104794819D01*
X128280476Y-104794819D02*
X128851904Y-104794819D01*
X128566190Y-104794819D02*
X128566190Y-103794819D01*
X128566190Y-103794819D02*
X128661428Y-103937676D01*
X128661428Y-103937676D02*
X128756666Y-104032914D01*
X128756666Y-104032914D02*
X128851904Y-104080533D01*
X98668571Y-110139580D02*
X98716190Y-110187200D01*
X98716190Y-110187200D02*
X98859047Y-110234819D01*
X98859047Y-110234819D02*
X98954285Y-110234819D01*
X98954285Y-110234819D02*
X99097142Y-110187200D01*
X99097142Y-110187200D02*
X99192380Y-110091961D01*
X99192380Y-110091961D02*
X99239999Y-109996723D01*
X99239999Y-109996723D02*
X99287618Y-109806247D01*
X99287618Y-109806247D02*
X99287618Y-109663390D01*
X99287618Y-109663390D02*
X99239999Y-109472914D01*
X99239999Y-109472914D02*
X99192380Y-109377676D01*
X99192380Y-109377676D02*
X99097142Y-109282438D01*
X99097142Y-109282438D02*
X98954285Y-109234819D01*
X98954285Y-109234819D02*
X98859047Y-109234819D01*
X98859047Y-109234819D02*
X98716190Y-109282438D01*
X98716190Y-109282438D02*
X98668571Y-109330057D01*
X97906666Y-109711009D02*
X97763809Y-109758628D01*
X97763809Y-109758628D02*
X97716190Y-109806247D01*
X97716190Y-109806247D02*
X97668571Y-109901485D01*
X97668571Y-109901485D02*
X97668571Y-110044342D01*
X97668571Y-110044342D02*
X97716190Y-110139580D01*
X97716190Y-110139580D02*
X97763809Y-110187200D01*
X97763809Y-110187200D02*
X97859047Y-110234819D01*
X97859047Y-110234819D02*
X98239999Y-110234819D01*
X98239999Y-110234819D02*
X98239999Y-109234819D01*
X98239999Y-109234819D02*
X97906666Y-109234819D01*
X97906666Y-109234819D02*
X97811428Y-109282438D01*
X97811428Y-109282438D02*
X97763809Y-109330057D01*
X97763809Y-109330057D02*
X97716190Y-109425295D01*
X97716190Y-109425295D02*
X97716190Y-109520533D01*
X97716190Y-109520533D02*
X97763809Y-109615771D01*
X97763809Y-109615771D02*
X97811428Y-109663390D01*
X97811428Y-109663390D02*
X97906666Y-109711009D01*
X97906666Y-109711009D02*
X98239999Y-109711009D01*
X97287618Y-109949104D02*
X96811428Y-109949104D01*
X97382856Y-110234819D02*
X97049523Y-109234819D01*
X97049523Y-109234819D02*
X96716190Y-110234819D01*
X96525713Y-109234819D02*
X95954285Y-109234819D01*
X96239999Y-110234819D02*
X96239999Y-109234819D01*
X95097142Y-110234819D02*
X95668570Y-110234819D01*
X95382856Y-110234819D02*
X95382856Y-109234819D01*
X95382856Y-109234819D02*
X95478094Y-109377676D01*
X95478094Y-109377676D02*
X95573332Y-109472914D01*
X95573332Y-109472914D02*
X95668570Y-109520533D01*
X94668570Y-110139580D02*
X94620951Y-110187200D01*
X94620951Y-110187200D02*
X94668570Y-110234819D01*
X94668570Y-110234819D02*
X94716189Y-110187200D01*
X94716189Y-110187200D02*
X94668570Y-110139580D01*
X94668570Y-110139580D02*
X94668570Y-110234819D01*
X94192380Y-110139580D02*
X94144761Y-110187200D01*
X94144761Y-110187200D02*
X94192380Y-110234819D01*
X94192380Y-110234819D02*
X94239999Y-110187200D01*
X94239999Y-110187200D02*
X94192380Y-110139580D01*
X94192380Y-110139580D02*
X94192380Y-110234819D01*
X93240000Y-109234819D02*
X93716190Y-109234819D01*
X93716190Y-109234819D02*
X93763809Y-109711009D01*
X93763809Y-109711009D02*
X93716190Y-109663390D01*
X93716190Y-109663390D02*
X93620952Y-109615771D01*
X93620952Y-109615771D02*
X93382857Y-109615771D01*
X93382857Y-109615771D02*
X93287619Y-109663390D01*
X93287619Y-109663390D02*
X93240000Y-109711009D01*
X93240000Y-109711009D02*
X93192381Y-109806247D01*
X93192381Y-109806247D02*
X93192381Y-110044342D01*
X93192381Y-110044342D02*
X93240000Y-110139580D01*
X93240000Y-110139580D02*
X93287619Y-110187200D01*
X93287619Y-110187200D02*
X93382857Y-110234819D01*
X93382857Y-110234819D02*
X93620952Y-110234819D01*
X93620952Y-110234819D02*
X93716190Y-110187200D01*
X93716190Y-110187200D02*
X93763809Y-110139580D01*
X124335238Y-109800057D02*
X124430476Y-109752438D01*
X124430476Y-109752438D02*
X124525714Y-109657200D01*
X124525714Y-109657200D02*
X124668571Y-109514342D01*
X124668571Y-109514342D02*
X124763809Y-109466723D01*
X124763809Y-109466723D02*
X124859047Y-109466723D01*
X124811428Y-109704819D02*
X124906666Y-109657200D01*
X124906666Y-109657200D02*
X125001904Y-109561961D01*
X125001904Y-109561961D02*
X125049523Y-109371485D01*
X125049523Y-109371485D02*
X125049523Y-109038152D01*
X125049523Y-109038152D02*
X125001904Y-108847676D01*
X125001904Y-108847676D02*
X124906666Y-108752438D01*
X124906666Y-108752438D02*
X124811428Y-108704819D01*
X124811428Y-108704819D02*
X124620952Y-108704819D01*
X124620952Y-108704819D02*
X124525714Y-108752438D01*
X124525714Y-108752438D02*
X124430476Y-108847676D01*
X124430476Y-108847676D02*
X124382857Y-109038152D01*
X124382857Y-109038152D02*
X124382857Y-109371485D01*
X124382857Y-109371485D02*
X124430476Y-109561961D01*
X124430476Y-109561961D02*
X124525714Y-109657200D01*
X124525714Y-109657200D02*
X124620952Y-109704819D01*
X124620952Y-109704819D02*
X124811428Y-109704819D01*
X123525714Y-109038152D02*
X123525714Y-109704819D01*
X123763809Y-108657200D02*
X124001904Y-109371485D01*
X124001904Y-109371485D02*
X123382857Y-109371485D01*
X137660057Y-112384761D02*
X137612438Y-112289523D01*
X137612438Y-112289523D02*
X137517200Y-112194285D01*
X137517200Y-112194285D02*
X137374342Y-112051428D01*
X137374342Y-112051428D02*
X137326723Y-111956190D01*
X137326723Y-111956190D02*
X137326723Y-111860952D01*
X137564819Y-111908571D02*
X137517200Y-111813333D01*
X137517200Y-111813333D02*
X137421961Y-111718095D01*
X137421961Y-111718095D02*
X137231485Y-111670476D01*
X137231485Y-111670476D02*
X136898152Y-111670476D01*
X136898152Y-111670476D02*
X136707676Y-111718095D01*
X136707676Y-111718095D02*
X136612438Y-111813333D01*
X136612438Y-111813333D02*
X136564819Y-111908571D01*
X136564819Y-111908571D02*
X136564819Y-112099047D01*
X136564819Y-112099047D02*
X136612438Y-112194285D01*
X136612438Y-112194285D02*
X136707676Y-112289523D01*
X136707676Y-112289523D02*
X136898152Y-112337142D01*
X136898152Y-112337142D02*
X137231485Y-112337142D01*
X137231485Y-112337142D02*
X137421961Y-112289523D01*
X137421961Y-112289523D02*
X137517200Y-112194285D01*
X137517200Y-112194285D02*
X137564819Y-112099047D01*
X137564819Y-112099047D02*
X137564819Y-111908571D01*
X136660057Y-112718095D02*
X136612438Y-112765714D01*
X136612438Y-112765714D02*
X136564819Y-112860952D01*
X136564819Y-112860952D02*
X136564819Y-113099047D01*
X136564819Y-113099047D02*
X136612438Y-113194285D01*
X136612438Y-113194285D02*
X136660057Y-113241904D01*
X136660057Y-113241904D02*
X136755295Y-113289523D01*
X136755295Y-113289523D02*
X136850533Y-113289523D01*
X136850533Y-113289523D02*
X136993390Y-113241904D01*
X136993390Y-113241904D02*
X137564819Y-112670476D01*
X137564819Y-112670476D02*
X137564819Y-113289523D01*
X125429580Y-94061428D02*
X125477200Y-94013809D01*
X125477200Y-94013809D02*
X125524819Y-93870952D01*
X125524819Y-93870952D02*
X125524819Y-93775714D01*
X125524819Y-93775714D02*
X125477200Y-93632857D01*
X125477200Y-93632857D02*
X125381961Y-93537619D01*
X125381961Y-93537619D02*
X125286723Y-93490000D01*
X125286723Y-93490000D02*
X125096247Y-93442381D01*
X125096247Y-93442381D02*
X124953390Y-93442381D01*
X124953390Y-93442381D02*
X124762914Y-93490000D01*
X124762914Y-93490000D02*
X124667676Y-93537619D01*
X124667676Y-93537619D02*
X124572438Y-93632857D01*
X124572438Y-93632857D02*
X124524819Y-93775714D01*
X124524819Y-93775714D02*
X124524819Y-93870952D01*
X124524819Y-93870952D02*
X124572438Y-94013809D01*
X124572438Y-94013809D02*
X124620057Y-94061428D01*
X125001009Y-94823333D02*
X125048628Y-94966190D01*
X125048628Y-94966190D02*
X125096247Y-95013809D01*
X125096247Y-95013809D02*
X125191485Y-95061428D01*
X125191485Y-95061428D02*
X125334342Y-95061428D01*
X125334342Y-95061428D02*
X125429580Y-95013809D01*
X125429580Y-95013809D02*
X125477200Y-94966190D01*
X125477200Y-94966190D02*
X125524819Y-94870952D01*
X125524819Y-94870952D02*
X125524819Y-94490000D01*
X125524819Y-94490000D02*
X124524819Y-94490000D01*
X124524819Y-94490000D02*
X124524819Y-94823333D01*
X124524819Y-94823333D02*
X124572438Y-94918571D01*
X124572438Y-94918571D02*
X124620057Y-94966190D01*
X124620057Y-94966190D02*
X124715295Y-95013809D01*
X124715295Y-95013809D02*
X124810533Y-95013809D01*
X124810533Y-95013809D02*
X124905771Y-94966190D01*
X124905771Y-94966190D02*
X124953390Y-94918571D01*
X124953390Y-94918571D02*
X125001009Y-94823333D01*
X125001009Y-94823333D02*
X125001009Y-94490000D01*
X125239104Y-95442381D02*
X125239104Y-95918571D01*
X125524819Y-95347143D02*
X124524819Y-95680476D01*
X124524819Y-95680476D02*
X125524819Y-96013809D01*
X124524819Y-96204286D02*
X124524819Y-96775714D01*
X125524819Y-96490000D02*
X124524819Y-96490000D01*
X125524819Y-97632857D02*
X125524819Y-97061429D01*
X125524819Y-97347143D02*
X124524819Y-97347143D01*
X124524819Y-97347143D02*
X124667676Y-97251905D01*
X124667676Y-97251905D02*
X124762914Y-97156667D01*
X124762914Y-97156667D02*
X124810533Y-97061429D01*
X125429580Y-98061429D02*
X125477200Y-98109048D01*
X125477200Y-98109048D02*
X125524819Y-98061429D01*
X125524819Y-98061429D02*
X125477200Y-98013810D01*
X125477200Y-98013810D02*
X125429580Y-98061429D01*
X125429580Y-98061429D02*
X125524819Y-98061429D01*
X125429580Y-98537619D02*
X125477200Y-98585238D01*
X125477200Y-98585238D02*
X125524819Y-98537619D01*
X125524819Y-98537619D02*
X125477200Y-98490000D01*
X125477200Y-98490000D02*
X125429580Y-98537619D01*
X125429580Y-98537619D02*
X125524819Y-98537619D01*
X124524819Y-99442380D02*
X124524819Y-99251904D01*
X124524819Y-99251904D02*
X124572438Y-99156666D01*
X124572438Y-99156666D02*
X124620057Y-99109047D01*
X124620057Y-99109047D02*
X124762914Y-99013809D01*
X124762914Y-99013809D02*
X124953390Y-98966190D01*
X124953390Y-98966190D02*
X125334342Y-98966190D01*
X125334342Y-98966190D02*
X125429580Y-99013809D01*
X125429580Y-99013809D02*
X125477200Y-99061428D01*
X125477200Y-99061428D02*
X125524819Y-99156666D01*
X125524819Y-99156666D02*
X125524819Y-99347142D01*
X125524819Y-99347142D02*
X125477200Y-99442380D01*
X125477200Y-99442380D02*
X125429580Y-99489999D01*
X125429580Y-99489999D02*
X125334342Y-99537618D01*
X125334342Y-99537618D02*
X125096247Y-99537618D01*
X125096247Y-99537618D02*
X125001009Y-99489999D01*
X125001009Y-99489999D02*
X124953390Y-99442380D01*
X124953390Y-99442380D02*
X124905771Y-99347142D01*
X124905771Y-99347142D02*
X124905771Y-99156666D01*
X124905771Y-99156666D02*
X124953390Y-99061428D01*
X124953390Y-99061428D02*
X125001009Y-99013809D01*
X125001009Y-99013809D02*
X125096247Y-98966190D01*
X129989580Y-99501428D02*
X130037200Y-99453809D01*
X130037200Y-99453809D02*
X130084819Y-99310952D01*
X130084819Y-99310952D02*
X130084819Y-99215714D01*
X130084819Y-99215714D02*
X130037200Y-99072857D01*
X130037200Y-99072857D02*
X129941961Y-98977619D01*
X129941961Y-98977619D02*
X129846723Y-98930000D01*
X129846723Y-98930000D02*
X129656247Y-98882381D01*
X129656247Y-98882381D02*
X129513390Y-98882381D01*
X129513390Y-98882381D02*
X129322914Y-98930000D01*
X129322914Y-98930000D02*
X129227676Y-98977619D01*
X129227676Y-98977619D02*
X129132438Y-99072857D01*
X129132438Y-99072857D02*
X129084819Y-99215714D01*
X129084819Y-99215714D02*
X129084819Y-99310952D01*
X129084819Y-99310952D02*
X129132438Y-99453809D01*
X129132438Y-99453809D02*
X129180057Y-99501428D01*
X129561009Y-100263333D02*
X129608628Y-100406190D01*
X129608628Y-100406190D02*
X129656247Y-100453809D01*
X129656247Y-100453809D02*
X129751485Y-100501428D01*
X129751485Y-100501428D02*
X129894342Y-100501428D01*
X129894342Y-100501428D02*
X129989580Y-100453809D01*
X129989580Y-100453809D02*
X130037200Y-100406190D01*
X130037200Y-100406190D02*
X130084819Y-100310952D01*
X130084819Y-100310952D02*
X130084819Y-99930000D01*
X130084819Y-99930000D02*
X129084819Y-99930000D01*
X129084819Y-99930000D02*
X129084819Y-100263333D01*
X129084819Y-100263333D02*
X129132438Y-100358571D01*
X129132438Y-100358571D02*
X129180057Y-100406190D01*
X129180057Y-100406190D02*
X129275295Y-100453809D01*
X129275295Y-100453809D02*
X129370533Y-100453809D01*
X129370533Y-100453809D02*
X129465771Y-100406190D01*
X129465771Y-100406190D02*
X129513390Y-100358571D01*
X129513390Y-100358571D02*
X129561009Y-100263333D01*
X129561009Y-100263333D02*
X129561009Y-99930000D01*
X129799104Y-100882381D02*
X129799104Y-101358571D01*
X130084819Y-100787143D02*
X129084819Y-101120476D01*
X129084819Y-101120476D02*
X130084819Y-101453809D01*
X129084819Y-101644286D02*
X129084819Y-102215714D01*
X130084819Y-101930000D02*
X129084819Y-101930000D01*
X130084819Y-103072857D02*
X130084819Y-102501429D01*
X130084819Y-102787143D02*
X129084819Y-102787143D01*
X129084819Y-102787143D02*
X129227676Y-102691905D01*
X129227676Y-102691905D02*
X129322914Y-102596667D01*
X129322914Y-102596667D02*
X129370533Y-102501429D01*
X129989580Y-103501429D02*
X130037200Y-103549048D01*
X130037200Y-103549048D02*
X130084819Y-103501429D01*
X130084819Y-103501429D02*
X130037200Y-103453810D01*
X130037200Y-103453810D02*
X129989580Y-103501429D01*
X129989580Y-103501429D02*
X130084819Y-103501429D01*
X129989580Y-103977619D02*
X130037200Y-104025238D01*
X130037200Y-104025238D02*
X130084819Y-103977619D01*
X130084819Y-103977619D02*
X130037200Y-103930000D01*
X130037200Y-103930000D02*
X129989580Y-103977619D01*
X129989580Y-103977619D02*
X130084819Y-103977619D01*
X130084819Y-104501428D02*
X130084819Y-104691904D01*
X130084819Y-104691904D02*
X130037200Y-104787142D01*
X130037200Y-104787142D02*
X129989580Y-104834761D01*
X129989580Y-104834761D02*
X129846723Y-104929999D01*
X129846723Y-104929999D02*
X129656247Y-104977618D01*
X129656247Y-104977618D02*
X129275295Y-104977618D01*
X129275295Y-104977618D02*
X129180057Y-104929999D01*
X129180057Y-104929999D02*
X129132438Y-104882380D01*
X129132438Y-104882380D02*
X129084819Y-104787142D01*
X129084819Y-104787142D02*
X129084819Y-104596666D01*
X129084819Y-104596666D02*
X129132438Y-104501428D01*
X129132438Y-104501428D02*
X129180057Y-104453809D01*
X129180057Y-104453809D02*
X129275295Y-104406190D01*
X129275295Y-104406190D02*
X129513390Y-104406190D01*
X129513390Y-104406190D02*
X129608628Y-104453809D01*
X129608628Y-104453809D02*
X129656247Y-104501428D01*
X129656247Y-104501428D02*
X129703866Y-104596666D01*
X129703866Y-104596666D02*
X129703866Y-104787142D01*
X129703866Y-104787142D02*
X129656247Y-104882380D01*
X129656247Y-104882380D02*
X129608628Y-104929999D01*
X129608628Y-104929999D02*
X129513390Y-104977618D01*
X122790951Y-98189580D02*
X122838570Y-98237200D01*
X122838570Y-98237200D02*
X122981427Y-98284819D01*
X122981427Y-98284819D02*
X123076665Y-98284819D01*
X123076665Y-98284819D02*
X123219522Y-98237200D01*
X123219522Y-98237200D02*
X123314760Y-98141961D01*
X123314760Y-98141961D02*
X123362379Y-98046723D01*
X123362379Y-98046723D02*
X123409998Y-97856247D01*
X123409998Y-97856247D02*
X123409998Y-97713390D01*
X123409998Y-97713390D02*
X123362379Y-97522914D01*
X123362379Y-97522914D02*
X123314760Y-97427676D01*
X123314760Y-97427676D02*
X123219522Y-97332438D01*
X123219522Y-97332438D02*
X123076665Y-97284819D01*
X123076665Y-97284819D02*
X122981427Y-97284819D01*
X122981427Y-97284819D02*
X122838570Y-97332438D01*
X122838570Y-97332438D02*
X122790951Y-97380057D01*
X122362379Y-98284819D02*
X122362379Y-97284819D01*
X121886189Y-98284819D02*
X121886189Y-97284819D01*
X121886189Y-97284819D02*
X121314761Y-98284819D01*
X121314761Y-98284819D02*
X121314761Y-97284819D01*
X120314761Y-98284819D02*
X120886189Y-98284819D01*
X120600475Y-98284819D02*
X120600475Y-97284819D01*
X120600475Y-97284819D02*
X120695713Y-97427676D01*
X120695713Y-97427676D02*
X120790951Y-97522914D01*
X120790951Y-97522914D02*
X120886189Y-97570533D01*
X119886189Y-98189580D02*
X119838570Y-98237200D01*
X119838570Y-98237200D02*
X119886189Y-98284819D01*
X119886189Y-98284819D02*
X119933808Y-98237200D01*
X119933808Y-98237200D02*
X119886189Y-98189580D01*
X119886189Y-98189580D02*
X119886189Y-98284819D01*
X119409999Y-98189580D02*
X119362380Y-98237200D01*
X119362380Y-98237200D02*
X119409999Y-98284819D01*
X119409999Y-98284819D02*
X119457618Y-98237200D01*
X119457618Y-98237200D02*
X119409999Y-98189580D01*
X119409999Y-98189580D02*
X119409999Y-98284819D01*
X118505238Y-97284819D02*
X118695714Y-97284819D01*
X118695714Y-97284819D02*
X118790952Y-97332438D01*
X118790952Y-97332438D02*
X118838571Y-97380057D01*
X118838571Y-97380057D02*
X118933809Y-97522914D01*
X118933809Y-97522914D02*
X118981428Y-97713390D01*
X118981428Y-97713390D02*
X118981428Y-98094342D01*
X118981428Y-98094342D02*
X118933809Y-98189580D01*
X118933809Y-98189580D02*
X118886190Y-98237200D01*
X118886190Y-98237200D02*
X118790952Y-98284819D01*
X118790952Y-98284819D02*
X118600476Y-98284819D01*
X118600476Y-98284819D02*
X118505238Y-98237200D01*
X118505238Y-98237200D02*
X118457619Y-98189580D01*
X118457619Y-98189580D02*
X118410000Y-98094342D01*
X118410000Y-98094342D02*
X118410000Y-97856247D01*
X118410000Y-97856247D02*
X118457619Y-97761009D01*
X118457619Y-97761009D02*
X118505238Y-97713390D01*
X118505238Y-97713390D02*
X118600476Y-97665771D01*
X118600476Y-97665771D02*
X118790952Y-97665771D01*
X118790952Y-97665771D02*
X118886190Y-97713390D01*
X118886190Y-97713390D02*
X118933809Y-97761009D01*
X118933809Y-97761009D02*
X118981428Y-97856247D01*
X131299580Y-99491428D02*
X131347200Y-99443809D01*
X131347200Y-99443809D02*
X131394819Y-99300952D01*
X131394819Y-99300952D02*
X131394819Y-99205714D01*
X131394819Y-99205714D02*
X131347200Y-99062857D01*
X131347200Y-99062857D02*
X131251961Y-98967619D01*
X131251961Y-98967619D02*
X131156723Y-98920000D01*
X131156723Y-98920000D02*
X130966247Y-98872381D01*
X130966247Y-98872381D02*
X130823390Y-98872381D01*
X130823390Y-98872381D02*
X130632914Y-98920000D01*
X130632914Y-98920000D02*
X130537676Y-98967619D01*
X130537676Y-98967619D02*
X130442438Y-99062857D01*
X130442438Y-99062857D02*
X130394819Y-99205714D01*
X130394819Y-99205714D02*
X130394819Y-99300952D01*
X130394819Y-99300952D02*
X130442438Y-99443809D01*
X130442438Y-99443809D02*
X130490057Y-99491428D01*
X130871009Y-100253333D02*
X130918628Y-100396190D01*
X130918628Y-100396190D02*
X130966247Y-100443809D01*
X130966247Y-100443809D02*
X131061485Y-100491428D01*
X131061485Y-100491428D02*
X131204342Y-100491428D01*
X131204342Y-100491428D02*
X131299580Y-100443809D01*
X131299580Y-100443809D02*
X131347200Y-100396190D01*
X131347200Y-100396190D02*
X131394819Y-100300952D01*
X131394819Y-100300952D02*
X131394819Y-99920000D01*
X131394819Y-99920000D02*
X130394819Y-99920000D01*
X130394819Y-99920000D02*
X130394819Y-100253333D01*
X130394819Y-100253333D02*
X130442438Y-100348571D01*
X130442438Y-100348571D02*
X130490057Y-100396190D01*
X130490057Y-100396190D02*
X130585295Y-100443809D01*
X130585295Y-100443809D02*
X130680533Y-100443809D01*
X130680533Y-100443809D02*
X130775771Y-100396190D01*
X130775771Y-100396190D02*
X130823390Y-100348571D01*
X130823390Y-100348571D02*
X130871009Y-100253333D01*
X130871009Y-100253333D02*
X130871009Y-99920000D01*
X131109104Y-100872381D02*
X131109104Y-101348571D01*
X131394819Y-100777143D02*
X130394819Y-101110476D01*
X130394819Y-101110476D02*
X131394819Y-101443809D01*
X130394819Y-101634286D02*
X130394819Y-102205714D01*
X131394819Y-101920000D02*
X130394819Y-101920000D01*
X131394819Y-103062857D02*
X131394819Y-102491429D01*
X131394819Y-102777143D02*
X130394819Y-102777143D01*
X130394819Y-102777143D02*
X130537676Y-102681905D01*
X130537676Y-102681905D02*
X130632914Y-102586667D01*
X130632914Y-102586667D02*
X130680533Y-102491429D01*
X131299580Y-103491429D02*
X131347200Y-103539048D01*
X131347200Y-103539048D02*
X131394819Y-103491429D01*
X131394819Y-103491429D02*
X131347200Y-103443810D01*
X131347200Y-103443810D02*
X131299580Y-103491429D01*
X131299580Y-103491429D02*
X131394819Y-103491429D01*
X131299580Y-103967619D02*
X131347200Y-104015238D01*
X131347200Y-104015238D02*
X131394819Y-103967619D01*
X131394819Y-103967619D02*
X131347200Y-103920000D01*
X131347200Y-103920000D02*
X131299580Y-103967619D01*
X131299580Y-103967619D02*
X131394819Y-103967619D01*
X130823390Y-104586666D02*
X130775771Y-104491428D01*
X130775771Y-104491428D02*
X130728152Y-104443809D01*
X130728152Y-104443809D02*
X130632914Y-104396190D01*
X130632914Y-104396190D02*
X130585295Y-104396190D01*
X130585295Y-104396190D02*
X130490057Y-104443809D01*
X130490057Y-104443809D02*
X130442438Y-104491428D01*
X130442438Y-104491428D02*
X130394819Y-104586666D01*
X130394819Y-104586666D02*
X130394819Y-104777142D01*
X130394819Y-104777142D02*
X130442438Y-104872380D01*
X130442438Y-104872380D02*
X130490057Y-104919999D01*
X130490057Y-104919999D02*
X130585295Y-104967618D01*
X130585295Y-104967618D02*
X130632914Y-104967618D01*
X130632914Y-104967618D02*
X130728152Y-104919999D01*
X130728152Y-104919999D02*
X130775771Y-104872380D01*
X130775771Y-104872380D02*
X130823390Y-104777142D01*
X130823390Y-104777142D02*
X130823390Y-104586666D01*
X130823390Y-104586666D02*
X130871009Y-104491428D01*
X130871009Y-104491428D02*
X130918628Y-104443809D01*
X130918628Y-104443809D02*
X131013866Y-104396190D01*
X131013866Y-104396190D02*
X131204342Y-104396190D01*
X131204342Y-104396190D02*
X131299580Y-104443809D01*
X131299580Y-104443809D02*
X131347200Y-104491428D01*
X131347200Y-104491428D02*
X131394819Y-104586666D01*
X131394819Y-104586666D02*
X131394819Y-104777142D01*
X131394819Y-104777142D02*
X131347200Y-104872380D01*
X131347200Y-104872380D02*
X131299580Y-104919999D01*
X131299580Y-104919999D02*
X131204342Y-104967618D01*
X131204342Y-104967618D02*
X131013866Y-104967618D01*
X131013866Y-104967618D02*
X130918628Y-104919999D01*
X130918628Y-104919999D02*
X130871009Y-104872380D01*
X130871009Y-104872380D02*
X130823390Y-104777142D01*
X121711428Y-101764819D02*
X122044761Y-101288628D01*
X122282856Y-101764819D02*
X122282856Y-100764819D01*
X122282856Y-100764819D02*
X121901904Y-100764819D01*
X121901904Y-100764819D02*
X121806666Y-100812438D01*
X121806666Y-100812438D02*
X121759047Y-100860057D01*
X121759047Y-100860057D02*
X121711428Y-100955295D01*
X121711428Y-100955295D02*
X121711428Y-101098152D01*
X121711428Y-101098152D02*
X121759047Y-101193390D01*
X121759047Y-101193390D02*
X121806666Y-101241009D01*
X121806666Y-101241009D02*
X121901904Y-101288628D01*
X121901904Y-101288628D02*
X122282856Y-101288628D01*
X121282856Y-101764819D02*
X121282856Y-100764819D01*
X121282856Y-100764819D02*
X120711428Y-101764819D01*
X120711428Y-101764819D02*
X120711428Y-100764819D01*
X120378094Y-100764819D02*
X119806666Y-100764819D01*
X120092380Y-101764819D02*
X120092380Y-100764819D01*
X118901904Y-101669580D02*
X118949523Y-101717200D01*
X118949523Y-101717200D02*
X119092380Y-101764819D01*
X119092380Y-101764819D02*
X119187618Y-101764819D01*
X119187618Y-101764819D02*
X119330475Y-101717200D01*
X119330475Y-101717200D02*
X119425713Y-101621961D01*
X119425713Y-101621961D02*
X119473332Y-101526723D01*
X119473332Y-101526723D02*
X119520951Y-101336247D01*
X119520951Y-101336247D02*
X119520951Y-101193390D01*
X119520951Y-101193390D02*
X119473332Y-101002914D01*
X119473332Y-101002914D02*
X119425713Y-100907676D01*
X119425713Y-100907676D02*
X119330475Y-100812438D01*
X119330475Y-100812438D02*
X119187618Y-100764819D01*
X119187618Y-100764819D02*
X119092380Y-100764819D01*
X119092380Y-100764819D02*
X118949523Y-100812438D01*
X118949523Y-100812438D02*
X118901904Y-100860057D01*
X117949523Y-101764819D02*
X118520951Y-101764819D01*
X118235237Y-101764819D02*
X118235237Y-100764819D01*
X118235237Y-100764819D02*
X118330475Y-100907676D01*
X118330475Y-100907676D02*
X118425713Y-101002914D01*
X118425713Y-101002914D02*
X118520951Y-101050533D01*
X98658571Y-105989580D02*
X98706190Y-106037200D01*
X98706190Y-106037200D02*
X98849047Y-106084819D01*
X98849047Y-106084819D02*
X98944285Y-106084819D01*
X98944285Y-106084819D02*
X99087142Y-106037200D01*
X99087142Y-106037200D02*
X99182380Y-105941961D01*
X99182380Y-105941961D02*
X99229999Y-105846723D01*
X99229999Y-105846723D02*
X99277618Y-105656247D01*
X99277618Y-105656247D02*
X99277618Y-105513390D01*
X99277618Y-105513390D02*
X99229999Y-105322914D01*
X99229999Y-105322914D02*
X99182380Y-105227676D01*
X99182380Y-105227676D02*
X99087142Y-105132438D01*
X99087142Y-105132438D02*
X98944285Y-105084819D01*
X98944285Y-105084819D02*
X98849047Y-105084819D01*
X98849047Y-105084819D02*
X98706190Y-105132438D01*
X98706190Y-105132438D02*
X98658571Y-105180057D01*
X97896666Y-105561009D02*
X97753809Y-105608628D01*
X97753809Y-105608628D02*
X97706190Y-105656247D01*
X97706190Y-105656247D02*
X97658571Y-105751485D01*
X97658571Y-105751485D02*
X97658571Y-105894342D01*
X97658571Y-105894342D02*
X97706190Y-105989580D01*
X97706190Y-105989580D02*
X97753809Y-106037200D01*
X97753809Y-106037200D02*
X97849047Y-106084819D01*
X97849047Y-106084819D02*
X98229999Y-106084819D01*
X98229999Y-106084819D02*
X98229999Y-105084819D01*
X98229999Y-105084819D02*
X97896666Y-105084819D01*
X97896666Y-105084819D02*
X97801428Y-105132438D01*
X97801428Y-105132438D02*
X97753809Y-105180057D01*
X97753809Y-105180057D02*
X97706190Y-105275295D01*
X97706190Y-105275295D02*
X97706190Y-105370533D01*
X97706190Y-105370533D02*
X97753809Y-105465771D01*
X97753809Y-105465771D02*
X97801428Y-105513390D01*
X97801428Y-105513390D02*
X97896666Y-105561009D01*
X97896666Y-105561009D02*
X98229999Y-105561009D01*
X97277618Y-105799104D02*
X96801428Y-105799104D01*
X97372856Y-106084819D02*
X97039523Y-105084819D01*
X97039523Y-105084819D02*
X96706190Y-106084819D01*
X96515713Y-105084819D02*
X95944285Y-105084819D01*
X96229999Y-106084819D02*
X96229999Y-105084819D01*
X95087142Y-106084819D02*
X95658570Y-106084819D01*
X95372856Y-106084819D02*
X95372856Y-105084819D01*
X95372856Y-105084819D02*
X95468094Y-105227676D01*
X95468094Y-105227676D02*
X95563332Y-105322914D01*
X95563332Y-105322914D02*
X95658570Y-105370533D01*
X94658570Y-105989580D02*
X94610951Y-106037200D01*
X94610951Y-106037200D02*
X94658570Y-106084819D01*
X94658570Y-106084819D02*
X94706189Y-106037200D01*
X94706189Y-106037200D02*
X94658570Y-105989580D01*
X94658570Y-105989580D02*
X94658570Y-106084819D01*
X94182380Y-105989580D02*
X94134761Y-106037200D01*
X94134761Y-106037200D02*
X94182380Y-106084819D01*
X94182380Y-106084819D02*
X94229999Y-106037200D01*
X94229999Y-106037200D02*
X94182380Y-105989580D01*
X94182380Y-105989580D02*
X94182380Y-106084819D01*
X93801428Y-105084819D02*
X93182381Y-105084819D01*
X93182381Y-105084819D02*
X93515714Y-105465771D01*
X93515714Y-105465771D02*
X93372857Y-105465771D01*
X93372857Y-105465771D02*
X93277619Y-105513390D01*
X93277619Y-105513390D02*
X93230000Y-105561009D01*
X93230000Y-105561009D02*
X93182381Y-105656247D01*
X93182381Y-105656247D02*
X93182381Y-105894342D01*
X93182381Y-105894342D02*
X93230000Y-105989580D01*
X93230000Y-105989580D02*
X93277619Y-106037200D01*
X93277619Y-106037200D02*
X93372857Y-106084819D01*
X93372857Y-106084819D02*
X93658571Y-106084819D01*
X93658571Y-106084819D02*
X93753809Y-106037200D01*
X93753809Y-106037200D02*
X93801428Y-105989580D01*
D11*
%TO.C,G\u002A\u002A\u002A*%
G36*
X104135713Y-116747738D02*
G01*
X104142521Y-116766757D01*
X104151297Y-116794664D01*
X104158887Y-116820793D01*
X104178169Y-116905243D01*
X104185753Y-116981204D01*
X104181590Y-117050605D01*
X104165630Y-117115372D01*
X104150355Y-117152845D01*
X104137368Y-117177401D01*
X104126128Y-117190053D01*
X104113851Y-117193850D01*
X104112912Y-117193863D01*
X104097092Y-117188604D01*
X104086690Y-117170852D01*
X104086577Y-117170528D01*
X104081478Y-117151391D01*
X104075588Y-117122606D01*
X104070092Y-117090028D01*
X104069541Y-117086316D01*
X104065862Y-117057762D01*
X104064622Y-117034210D01*
X104066177Y-117010760D01*
X104070885Y-116982507D01*
X104079101Y-116944550D01*
X104080201Y-116939719D01*
X104095174Y-116874728D01*
X104107217Y-116823931D01*
X104116614Y-116786230D01*
X104123652Y-116760527D01*
X104128616Y-116745723D01*
X104131790Y-116740722D01*
X104131915Y-116740710D01*
X104135713Y-116747738D01*
G37*
G36*
X103245107Y-117187270D02*
G01*
X103257949Y-117211537D01*
X103272324Y-117244992D01*
X103286961Y-117284686D01*
X103300271Y-117326576D01*
X103309087Y-117357798D01*
X103314931Y-117382992D01*
X103318217Y-117406578D01*
X103319360Y-117432979D01*
X103318775Y-117466615D01*
X103317135Y-117506275D01*
X103313698Y-117564490D01*
X103309131Y-117608803D01*
X103303074Y-117640920D01*
X103295167Y-117662544D01*
X103285049Y-117675381D01*
X103280805Y-117678176D01*
X103254066Y-117685666D01*
X103228757Y-117681195D01*
X103215016Y-117671331D01*
X103195453Y-117640645D01*
X103180310Y-117598886D01*
X103170359Y-117550174D01*
X103166370Y-117498629D01*
X103169113Y-117448373D01*
X103171017Y-117436065D01*
X103179316Y-117392226D01*
X103188761Y-117346635D01*
X103198743Y-117301777D01*
X103208651Y-117260137D01*
X103217877Y-117224200D01*
X103225809Y-117196451D01*
X103231838Y-117179376D01*
X103235066Y-117175140D01*
X103245107Y-117187270D01*
G37*
G36*
X103422573Y-117120637D02*
G01*
X103427552Y-117126262D01*
X103433380Y-117133420D01*
X103445014Y-117152832D01*
X103455694Y-117180367D01*
X103460743Y-117199431D01*
X103468414Y-117232028D01*
X103477449Y-117264921D01*
X103482134Y-117279806D01*
X103493436Y-117329030D01*
X103498240Y-117387021D01*
X103496865Y-117448985D01*
X103489627Y-117510133D01*
X103476845Y-117565672D01*
X103460380Y-117607856D01*
X103442681Y-117634629D01*
X103423651Y-117650338D01*
X103405580Y-117653739D01*
X103391878Y-117645062D01*
X103385589Y-117633385D01*
X103376032Y-117611275D01*
X103365054Y-117583062D01*
X103362717Y-117576699D01*
X103351577Y-117542253D01*
X103344573Y-117509524D01*
X103341805Y-117475702D01*
X103343378Y-117437977D01*
X103349395Y-117393541D01*
X103359959Y-117339584D01*
X103373618Y-117279806D01*
X103386733Y-117224501D01*
X103396710Y-117182741D01*
X103404207Y-117152912D01*
X103409883Y-117133400D01*
X103414397Y-117122593D01*
X103418407Y-117118876D01*
X103422573Y-117120637D01*
G37*
G36*
X103808883Y-116997261D02*
G01*
X103823869Y-117023942D01*
X103839073Y-117064987D01*
X103852688Y-117113735D01*
X103860626Y-117150021D01*
X103865850Y-117186297D01*
X103868834Y-117227395D01*
X103870052Y-117278144D01*
X103870131Y-117291525D01*
X103870042Y-117336482D01*
X103869138Y-117369249D01*
X103867013Y-117393256D01*
X103863261Y-117411934D01*
X103857475Y-117428712D01*
X103852548Y-117439972D01*
X103839453Y-117463450D01*
X103821941Y-117488481D01*
X103802985Y-117511512D01*
X103785557Y-117528991D01*
X103772630Y-117537364D01*
X103770826Y-117537634D01*
X103764014Y-117531129D01*
X103754321Y-117514627D01*
X103749324Y-117504096D01*
X103736762Y-117462267D01*
X103729718Y-117406455D01*
X103728208Y-117337305D01*
X103732246Y-117255461D01*
X103741239Y-117166517D01*
X103747291Y-117120009D01*
X103753479Y-117077761D01*
X103759321Y-117042687D01*
X103764337Y-117017700D01*
X103767649Y-117006447D01*
X103780532Y-116988209D01*
X103794357Y-116985249D01*
X103808883Y-116997261D01*
G37*
G36*
X103988289Y-116888802D02*
G01*
X103996596Y-116906860D01*
X104006350Y-116934416D01*
X104016649Y-116968577D01*
X104026588Y-117006453D01*
X104035262Y-117045149D01*
X104038798Y-117063658D01*
X104043143Y-117098338D01*
X104044692Y-117133809D01*
X104043583Y-117157093D01*
X104038118Y-117184651D01*
X104028051Y-117219774D01*
X104014910Y-117258406D01*
X104000220Y-117296492D01*
X103985507Y-117329976D01*
X103972298Y-117354804D01*
X103965788Y-117363795D01*
X103947428Y-117377852D01*
X103930603Y-117380376D01*
X103919071Y-117370955D01*
X103918227Y-117369016D01*
X103914495Y-117348486D01*
X103913736Y-117317707D01*
X103915815Y-117281746D01*
X103920596Y-117245668D01*
X103921675Y-117239854D01*
X103925084Y-117216662D01*
X103928795Y-117182012D01*
X103932425Y-117140055D01*
X103935588Y-117094945D01*
X103936436Y-117080575D01*
X103941502Y-117016856D01*
X103948808Y-116964159D01*
X103958091Y-116923606D01*
X103969091Y-116896321D01*
X103981547Y-116883426D01*
X103982337Y-116883134D01*
X103988289Y-116888802D01*
G37*
G36*
X103611391Y-117063509D02*
G01*
X103621449Y-117076760D01*
X103632107Y-117102235D01*
X103644046Y-117141107D01*
X103654011Y-117178815D01*
X103666561Y-117231538D01*
X103674794Y-117275084D01*
X103679538Y-117315031D01*
X103681621Y-117356956D01*
X103681789Y-117365909D01*
X103682045Y-117403648D01*
X103680928Y-117430501D01*
X103677590Y-117451198D01*
X103671184Y-117470471D01*
X103660863Y-117493050D01*
X103657946Y-117499005D01*
X103640638Y-117530667D01*
X103623463Y-117556101D01*
X103608147Y-117573347D01*
X103596418Y-117580445D01*
X103590145Y-117575916D01*
X103586484Y-117562267D01*
X103580977Y-117539726D01*
X103577749Y-117525914D01*
X103568953Y-117495333D01*
X103556612Y-117461204D01*
X103549709Y-117444887D01*
X103539082Y-117417357D01*
X103532163Y-117391498D01*
X103530648Y-117378742D01*
X103532113Y-117358588D01*
X103536125Y-117328111D01*
X103542112Y-117290276D01*
X103549503Y-117248051D01*
X103557727Y-117204402D01*
X103566210Y-117162296D01*
X103574381Y-117124699D01*
X103581669Y-117094579D01*
X103587501Y-117074902D01*
X103590356Y-117068987D01*
X103601253Y-117061309D01*
X103611391Y-117063509D01*
G37*
G36*
X104201689Y-115785723D02*
G01*
X104198209Y-115807603D01*
X104190621Y-115836583D01*
X104179965Y-115869036D01*
X104167277Y-115901337D01*
X104157937Y-115921527D01*
X104116948Y-115986422D01*
X104064101Y-116041388D01*
X103999944Y-116085997D01*
X103925024Y-116119821D01*
X103889990Y-116130844D01*
X103841650Y-116140847D01*
X103782617Y-116147687D01*
X103717536Y-116151189D01*
X103651052Y-116151178D01*
X103587809Y-116147478D01*
X103554087Y-116143522D01*
X103505443Y-116135022D01*
X103465182Y-116125048D01*
X103435236Y-116114258D01*
X103417534Y-116103312D01*
X103413454Y-116095553D01*
X103419961Y-116084149D01*
X103437837Y-116067217D01*
X103464613Y-116046486D01*
X103497819Y-116023689D01*
X103534986Y-116000553D01*
X103573646Y-115978810D01*
X103597059Y-115966896D01*
X103631770Y-115951507D01*
X103677401Y-115933849D01*
X103734900Y-115913596D01*
X103805212Y-115890420D01*
X103889286Y-115863993D01*
X103935652Y-115849800D01*
X103996542Y-115831440D01*
X104052600Y-115814808D01*
X104102100Y-115800395D01*
X104143317Y-115788693D01*
X104174523Y-115780191D01*
X104193991Y-115775383D01*
X104200023Y-115774567D01*
X104201689Y-115785723D01*
G37*
G36*
X101853152Y-113855889D02*
G01*
X101868100Y-113872338D01*
X101888412Y-113897029D01*
X101912217Y-113927736D01*
X101923180Y-113942396D01*
X101951510Y-113979507D01*
X101980771Y-114015818D01*
X102007860Y-114047602D01*
X102029672Y-114071130D01*
X102033251Y-114074633D01*
X102074906Y-114114389D01*
X102088221Y-114214233D01*
X102100042Y-114288129D01*
X102114961Y-114357815D01*
X102132130Y-114420015D01*
X102150701Y-114471448D01*
X102159902Y-114491423D01*
X102168992Y-114514513D01*
X102175623Y-114540945D01*
X102179293Y-114566572D01*
X102179500Y-114587242D01*
X102175743Y-114598806D01*
X102173021Y-114599953D01*
X102165781Y-114594687D01*
X102149534Y-114580109D01*
X102126226Y-114558053D01*
X102097802Y-114530350D01*
X102074941Y-114507615D01*
X102030249Y-114461364D01*
X101997102Y-114423699D01*
X101974685Y-114393648D01*
X101964446Y-114375568D01*
X101948407Y-114347813D01*
X101926237Y-114317680D01*
X101909268Y-114298550D01*
X101872488Y-114261241D01*
X101870093Y-114186442D01*
X101864830Y-114115679D01*
X101854147Y-114049170D01*
X101838846Y-113991159D01*
X101827888Y-113962436D01*
X101818337Y-113936779D01*
X101812569Y-113913436D01*
X101811793Y-113905343D01*
X101815908Y-113884379D01*
X101826007Y-113864741D01*
X101838719Y-113851984D01*
X101845441Y-113849911D01*
X101853152Y-113855889D01*
G37*
G36*
X104111362Y-113439855D02*
G01*
X104149041Y-113443292D01*
X104171687Y-113449507D01*
X104179126Y-113458335D01*
X104172366Y-113464139D01*
X104155315Y-113471477D01*
X104145986Y-113474526D01*
X104129841Y-113479604D01*
X104116370Y-113485134D01*
X104103658Y-113492851D01*
X104089793Y-113504489D01*
X104072862Y-113521782D01*
X104050951Y-113546464D01*
X104022147Y-113580268D01*
X103999032Y-113607705D01*
X103916601Y-113708303D01*
X103834102Y-113813963D01*
X103754698Y-113920469D01*
X103681556Y-114023608D01*
X103636645Y-114090223D01*
X103610497Y-114129421D01*
X103586939Y-114163701D01*
X103567402Y-114191064D01*
X103553318Y-114209511D01*
X103546118Y-114217041D01*
X103545813Y-114217117D01*
X103542804Y-114209777D01*
X103540422Y-114189635D01*
X103538902Y-114159513D01*
X103538461Y-114128250D01*
X103538821Y-114089045D01*
X103540501Y-114058709D01*
X103544401Y-114031981D01*
X103551423Y-114003598D01*
X103562466Y-113968298D01*
X103569384Y-113947577D01*
X103582377Y-113910884D01*
X103594948Y-113878690D01*
X103605668Y-113854451D01*
X103613110Y-113841624D01*
X103613155Y-113841574D01*
X103625807Y-113831562D01*
X103648348Y-113817227D01*
X103676643Y-113801139D01*
X103687119Y-113795582D01*
X103754100Y-113756235D01*
X103807235Y-113715243D01*
X103845726Y-113673242D01*
X103852290Y-113663712D01*
X103862975Y-113646534D01*
X103869632Y-113632189D01*
X103872974Y-113616472D01*
X103873713Y-113595174D01*
X103872564Y-113564092D01*
X103871774Y-113548737D01*
X103869790Y-113514298D01*
X103867775Y-113485074D01*
X103866018Y-113465025D01*
X103865181Y-113458910D01*
X103866666Y-113454518D01*
X103874587Y-113451020D01*
X103890903Y-113448143D01*
X103917571Y-113445617D01*
X103956552Y-113443169D01*
X103991614Y-113441385D01*
X104058828Y-113439215D01*
X104111362Y-113439855D01*
G37*
G36*
X104803618Y-115247797D02*
G01*
X104803731Y-115266923D01*
X104802521Y-115294372D01*
X104801803Y-115305075D01*
X104798945Y-115330747D01*
X104793519Y-115361288D01*
X104785047Y-115398634D01*
X104773050Y-115444724D01*
X104757048Y-115501494D01*
X104736562Y-115570882D01*
X104733679Y-115580482D01*
X104716366Y-115636974D01*
X104699496Y-115690031D01*
X104683846Y-115737364D01*
X104670188Y-115776687D01*
X104659298Y-115805714D01*
X104651951Y-115822158D01*
X104651645Y-115822685D01*
X104628598Y-115854917D01*
X104594359Y-115893947D01*
X104550848Y-115938069D01*
X104499980Y-115985574D01*
X104443674Y-116034755D01*
X104383847Y-116083905D01*
X104322416Y-116131316D01*
X104261299Y-116175280D01*
X104237723Y-116191283D01*
X104122904Y-116259254D01*
X104000127Y-116315206D01*
X103867755Y-116359856D01*
X103830116Y-116370078D01*
X103757231Y-116389537D01*
X103697230Y-116407037D01*
X103647627Y-116423434D01*
X103605935Y-116439582D01*
X103569667Y-116456338D01*
X103551594Y-116465867D01*
X103533657Y-116477076D01*
X103508038Y-116494866D01*
X103476820Y-116517612D01*
X103442085Y-116543684D01*
X103405915Y-116571455D01*
X103370394Y-116599297D01*
X103337604Y-116625583D01*
X103309627Y-116648683D01*
X103288546Y-116666972D01*
X103276444Y-116678820D01*
X103274480Y-116682471D01*
X103282033Y-116680141D01*
X103300760Y-116671843D01*
X103327977Y-116658831D01*
X103360999Y-116642355D01*
X103366805Y-116639398D01*
X103439110Y-116603740D01*
X103503542Y-116575208D01*
X103564273Y-116552506D01*
X103625472Y-116534337D01*
X103691312Y-116519404D01*
X103765962Y-116506410D01*
X103819729Y-116498590D01*
X103898589Y-116486861D01*
X103965485Y-116474635D01*
X104024066Y-116460846D01*
X104077983Y-116444429D01*
X104130887Y-116424320D01*
X104186428Y-116399453D01*
X104226004Y-116380068D01*
X104273843Y-116355370D01*
X104324243Y-116328226D01*
X104372373Y-116301309D01*
X104413400Y-116277293D01*
X104428122Y-116268231D01*
X104465322Y-116245060D01*
X104491388Y-116229638D01*
X104508249Y-116221132D01*
X104517832Y-116218715D01*
X104522065Y-116221554D01*
X104522897Y-116227427D01*
X104516189Y-116241141D01*
X104496973Y-116261057D01*
X104466608Y-116286177D01*
X104426455Y-116315503D01*
X104377874Y-116348038D01*
X104322225Y-116382785D01*
X104266116Y-116415756D01*
X104222487Y-116439407D01*
X104182497Y-116457758D01*
X104141422Y-116472488D01*
X104094536Y-116485276D01*
X104037114Y-116497805D01*
X104033121Y-116498607D01*
X103922639Y-116522806D01*
X103825761Y-116548426D01*
X103742939Y-116575315D01*
X103674625Y-116603317D01*
X103621271Y-116632280D01*
X103602918Y-116645083D01*
X103586829Y-116660022D01*
X103578066Y-116673366D01*
X103577526Y-116676183D01*
X103580019Y-116683634D01*
X103588243Y-116679038D01*
X103603901Y-116670378D01*
X103631145Y-116659529D01*
X103666307Y-116647675D01*
X103705714Y-116636001D01*
X103745696Y-116625691D01*
X103770538Y-116620225D01*
X103797381Y-116615669D01*
X103836257Y-116610218D01*
X103883632Y-116604309D01*
X103935969Y-116598381D01*
X103989734Y-116592872D01*
X103995859Y-116592284D01*
X104062478Y-116585659D01*
X104116399Y-116579400D01*
X104160512Y-116572808D01*
X104197710Y-116565183D01*
X104230882Y-116555823D01*
X104262920Y-116544030D01*
X104296716Y-116529102D01*
X104335160Y-116510340D01*
X104336068Y-116509885D01*
X104369461Y-116493638D01*
X104397644Y-116480869D01*
X104417815Y-116472780D01*
X104427168Y-116470576D01*
X104427383Y-116470706D01*
X104426926Y-116479681D01*
X104420984Y-116497924D01*
X104414989Y-116512203D01*
X104409367Y-116524839D01*
X104402186Y-116541444D01*
X104392912Y-116563298D01*
X104381012Y-116591682D01*
X104365955Y-116627877D01*
X104347208Y-116673165D01*
X104324238Y-116728825D01*
X104296513Y-116796139D01*
X104263500Y-116876387D01*
X104256542Y-116893309D01*
X104241383Y-116929427D01*
X104227944Y-116960061D01*
X104217487Y-116982430D01*
X104211275Y-116993755D01*
X104210545Y-116994528D01*
X104207605Y-116988943D01*
X104204550Y-116970955D01*
X104201845Y-116943778D01*
X104200673Y-116926077D01*
X104193897Y-116865171D01*
X104179592Y-116795887D01*
X104168120Y-116752429D01*
X104155190Y-116706558D01*
X104145785Y-116673692D01*
X104139237Y-116651784D01*
X104134876Y-116638787D01*
X104132033Y-116632654D01*
X104130039Y-116631338D01*
X104128814Y-116632163D01*
X104126242Y-116640355D01*
X104120786Y-116661521D01*
X104112997Y-116693393D01*
X104103426Y-116733703D01*
X104092624Y-116780182D01*
X104088685Y-116797354D01*
X104077494Y-116845231D01*
X104067145Y-116887502D01*
X104058219Y-116921951D01*
X104051296Y-116946363D01*
X104046959Y-116958522D01*
X104046149Y-116959473D01*
X104041840Y-116952464D01*
X104034568Y-116933554D01*
X104025475Y-116905916D01*
X104018702Y-116883297D01*
X104008852Y-116850502D01*
X103999944Y-116823257D01*
X103993188Y-116805142D01*
X103990506Y-116799940D01*
X103984624Y-116803099D01*
X103974332Y-116817740D01*
X103961504Y-116841038D01*
X103956598Y-116851060D01*
X103945525Y-116875194D01*
X103937643Y-116895706D01*
X103932196Y-116916390D01*
X103928425Y-116941044D01*
X103925573Y-116973461D01*
X103922882Y-117017439D01*
X103922686Y-117020932D01*
X103919629Y-117068448D01*
X103916207Y-117102488D01*
X103911843Y-117125202D01*
X103905960Y-117138738D01*
X103897981Y-117145247D01*
X103888876Y-117146865D01*
X103884958Y-117139872D01*
X103879065Y-117121198D01*
X103872305Y-117094479D01*
X103870492Y-117086434D01*
X103855422Y-117028291D01*
X103838768Y-116983040D01*
X103820912Y-116951354D01*
X103802242Y-116933906D01*
X103783141Y-116931370D01*
X103781978Y-116931711D01*
X103769022Y-116940051D01*
X103758065Y-116957192D01*
X103748567Y-116984768D01*
X103739989Y-117024417D01*
X103731793Y-117077773D01*
X103730391Y-117088387D01*
X103722444Y-117141200D01*
X103714217Y-117178755D01*
X103705575Y-117201421D01*
X103696385Y-117209568D01*
X103687947Y-117205247D01*
X103683496Y-117194903D01*
X103676849Y-117172790D01*
X103668999Y-117142434D01*
X103662854Y-117116088D01*
X103651303Y-117070089D01*
X103639952Y-117038215D01*
X103627951Y-117019000D01*
X103614445Y-117010978D01*
X103602051Y-117011616D01*
X103588577Y-117017190D01*
X103577716Y-117027493D01*
X103568557Y-117044729D01*
X103560190Y-117071103D01*
X103551704Y-117108820D01*
X103543281Y-117153895D01*
X103535944Y-117193950D01*
X103529216Y-117228308D01*
X103523687Y-117254130D01*
X103519946Y-117268576D01*
X103519051Y-117270568D01*
X103512799Y-117271799D01*
X103505781Y-117262457D01*
X103497406Y-117241190D01*
X103487084Y-117206641D01*
X103480534Y-117182143D01*
X103469834Y-117143729D01*
X103460337Y-117117035D01*
X103450412Y-117098413D01*
X103438428Y-117084215D01*
X103435528Y-117081482D01*
X103419352Y-117067993D01*
X103409763Y-117064676D01*
X103402743Y-117070225D01*
X103402394Y-117070704D01*
X103397800Y-117082142D01*
X103390735Y-117105904D01*
X103381999Y-117139034D01*
X103372389Y-117178574D01*
X103367316Y-117200663D01*
X103357801Y-117241212D01*
X103348951Y-117275763D01*
X103341491Y-117301716D01*
X103336149Y-117316469D01*
X103334330Y-117318870D01*
X103328988Y-117311990D01*
X103321590Y-117294125D01*
X103315164Y-117273946D01*
X103300900Y-117231114D01*
X103283328Y-117189306D01*
X103264436Y-117152601D01*
X103246212Y-117125075D01*
X103238320Y-117116352D01*
X103230072Y-117108482D01*
X103223927Y-117104131D01*
X103219008Y-117105142D01*
X103214433Y-117113363D01*
X103209325Y-117130638D01*
X103202803Y-117158813D01*
X103193988Y-117199734D01*
X103190221Y-117217302D01*
X103179886Y-117263255D01*
X103170903Y-117298993D01*
X103163646Y-117323291D01*
X103158490Y-117334922D01*
X103155810Y-117332658D01*
X103155614Y-117330590D01*
X103154609Y-117320308D01*
X103152196Y-117297603D01*
X103148711Y-117265581D01*
X103144489Y-117227347D01*
X103143371Y-117217302D01*
X103138118Y-117159123D01*
X103133771Y-117088820D01*
X103130361Y-117009444D01*
X103127918Y-116924044D01*
X103126474Y-116835673D01*
X103126058Y-116747381D01*
X103126701Y-116662218D01*
X103128435Y-116583236D01*
X103131289Y-116513486D01*
X103135295Y-116456019D01*
X103135672Y-116451988D01*
X103148704Y-116315620D01*
X103191890Y-116266430D01*
X103203176Y-116253036D01*
X103212328Y-116242114D01*
X103220982Y-116233485D01*
X103230770Y-116226971D01*
X103243327Y-116222393D01*
X103260286Y-116219573D01*
X103283282Y-116218332D01*
X103313946Y-116218491D01*
X103353915Y-116219873D01*
X103404820Y-116222298D01*
X103468297Y-116225589D01*
X103534555Y-116228993D01*
X103637158Y-116233845D01*
X103725204Y-116237301D01*
X103799701Y-116239368D01*
X103861655Y-116240052D01*
X103912073Y-116239360D01*
X103951962Y-116237297D01*
X103982329Y-116233871D01*
X103993183Y-116231879D01*
X104027408Y-116222240D01*
X104070446Y-116206645D01*
X104117640Y-116187059D01*
X104164334Y-116165446D01*
X104205869Y-116143770D01*
X104216098Y-116137864D01*
X104242661Y-116119990D01*
X104274467Y-116095508D01*
X104305762Y-116068915D01*
X104314035Y-116061343D01*
X104336857Y-116038677D01*
X104359833Y-116012871D01*
X104383621Y-115982850D01*
X104408878Y-115947537D01*
X104436264Y-115905857D01*
X104466436Y-115856735D01*
X104500052Y-115799094D01*
X104537769Y-115731859D01*
X104580246Y-115653954D01*
X104628140Y-115564303D01*
X104682110Y-115461831D01*
X104690550Y-115445708D01*
X104717755Y-115393973D01*
X104742711Y-115347029D01*
X104764487Y-115306582D01*
X104782154Y-115274342D01*
X104794784Y-115252015D01*
X104801446Y-115241310D01*
X104802164Y-115240618D01*
X104803618Y-115247797D01*
G37*
G36*
X102892896Y-113039265D02*
G01*
X102908432Y-113061508D01*
X102920855Y-113084509D01*
X102930700Y-113110606D01*
X102938500Y-113142135D01*
X102944790Y-113181434D01*
X102950106Y-113230842D01*
X102954980Y-113292695D01*
X102956727Y-113318415D01*
X102962689Y-113399609D01*
X102969218Y-113468419D01*
X102976781Y-113528086D01*
X102985844Y-113581852D01*
X102996874Y-113632958D01*
X103008500Y-113678021D01*
X103025038Y-113728396D01*
X103046605Y-113780045D01*
X103070795Y-113827860D01*
X103095199Y-113866736D01*
X103101260Y-113874723D01*
X103117157Y-113895240D01*
X103127820Y-113912347D01*
X103133472Y-113929240D01*
X103134331Y-113949116D01*
X103130619Y-113975172D01*
X103122557Y-114010606D01*
X103113188Y-114047602D01*
X103099221Y-114106633D01*
X103086168Y-114170274D01*
X103074604Y-114234925D01*
X103065106Y-114296989D01*
X103058248Y-114352867D01*
X103054608Y-114398961D01*
X103054172Y-114416348D01*
X103056812Y-114448068D01*
X103065634Y-114478885D01*
X103082063Y-114511729D01*
X103107521Y-114549529D01*
X103137559Y-114588037D01*
X103165509Y-114620205D01*
X103188502Y-114640620D01*
X103209477Y-114651014D01*
X103231379Y-114653115D01*
X103245149Y-114651314D01*
X103279948Y-114637375D01*
X103306264Y-114611807D01*
X103321301Y-114577534D01*
X103322656Y-114570251D01*
X103327007Y-114540726D01*
X103331286Y-114511504D01*
X103331778Y-114508128D01*
X103335500Y-114493990D01*
X103343677Y-114478331D01*
X103357995Y-114458875D01*
X103380142Y-114433349D01*
X103411803Y-114399478D01*
X103414365Y-114396793D01*
X103492686Y-114314779D01*
X103438244Y-114420255D01*
X103333414Y-114638433D01*
X103241877Y-114861317D01*
X103163331Y-115089939D01*
X103097475Y-115325329D01*
X103044006Y-115568519D01*
X103002623Y-115820541D01*
X102984042Y-115971131D01*
X102979863Y-116008423D01*
X102975742Y-116043466D01*
X102972309Y-116070980D01*
X102971012Y-116080513D01*
X102969275Y-116100301D01*
X102971396Y-116106320D01*
X102976658Y-116099744D01*
X102984351Y-116081745D01*
X102993759Y-116053498D01*
X102999512Y-116033635D01*
X103042478Y-115890893D01*
X103093654Y-115742333D01*
X103151347Y-115592131D01*
X103213859Y-115444463D01*
X103279493Y-115303506D01*
X103346555Y-115173436D01*
X103355490Y-115157183D01*
X103423735Y-115038455D01*
X103492685Y-114927959D01*
X103564476Y-114822813D01*
X103641243Y-114720136D01*
X103725121Y-114617047D01*
X103818247Y-114510666D01*
X103901783Y-114420255D01*
X103938284Y-114380770D01*
X103982623Y-114331546D01*
X104033031Y-114274645D01*
X104087742Y-114212130D01*
X104144987Y-114146063D01*
X104202996Y-114078507D01*
X104260002Y-114011524D01*
X104314238Y-113947177D01*
X104363933Y-113887527D01*
X104407320Y-113834639D01*
X104442631Y-113790573D01*
X104452739Y-113777637D01*
X104470449Y-113755730D01*
X104484794Y-113739737D01*
X104492944Y-113732790D01*
X104493346Y-113732712D01*
X104496458Y-113733793D01*
X104499319Y-113738828D01*
X104502658Y-113750505D01*
X104507209Y-113771512D01*
X104513701Y-113804537D01*
X104515668Y-113814749D01*
X104522521Y-113844243D01*
X104530663Y-113870755D01*
X104536038Y-113883749D01*
X104543030Y-113901434D01*
X104540861Y-113914110D01*
X104537100Y-113919977D01*
X104530715Y-113927400D01*
X104514873Y-113945309D01*
X104490578Y-113972583D01*
X104458837Y-114008103D01*
X104420656Y-114050750D01*
X104377042Y-114099405D01*
X104329000Y-114152948D01*
X104277538Y-114210259D01*
X104223660Y-114270220D01*
X104168374Y-114331712D01*
X104112686Y-114393614D01*
X104057601Y-114454807D01*
X104004126Y-114514173D01*
X103953268Y-114570591D01*
X103906032Y-114622943D01*
X103863425Y-114670108D01*
X103826453Y-114710968D01*
X103796123Y-114744403D01*
X103785361Y-114756232D01*
X103767234Y-114776228D01*
X103742122Y-114804058D01*
X103713456Y-114835913D01*
X103686908Y-114865486D01*
X103660288Y-114895159D01*
X103636298Y-114921869D01*
X103617496Y-114942767D01*
X103606442Y-114955006D01*
X103606161Y-114955316D01*
X103592710Y-114971457D01*
X103572193Y-114997756D01*
X103546544Y-115031597D01*
X103517698Y-115070364D01*
X103487588Y-115111442D01*
X103458149Y-115152214D01*
X103431315Y-115190064D01*
X103412548Y-115217179D01*
X103336962Y-115334337D01*
X103265653Y-115457124D01*
X103200712Y-115581566D01*
X103144229Y-115703693D01*
X103104821Y-115801664D01*
X103084998Y-115856393D01*
X103071434Y-115897300D01*
X103064129Y-115924881D01*
X103063083Y-115939631D01*
X103068297Y-115942046D01*
X103079769Y-115932621D01*
X103097501Y-115911853D01*
X103104841Y-115902445D01*
X103163003Y-115829025D01*
X103231013Y-115747124D01*
X103307105Y-115658707D01*
X103389508Y-115565742D01*
X103476454Y-115470196D01*
X103566175Y-115374037D01*
X103656901Y-115279230D01*
X103746864Y-115187745D01*
X103752939Y-115181664D01*
X103825782Y-115109186D01*
X103890286Y-115045918D01*
X103948838Y-114989706D01*
X104003825Y-114938400D01*
X104057635Y-114889845D01*
X104112656Y-114841890D01*
X104171274Y-114792382D01*
X104235878Y-114739168D01*
X104308856Y-114680096D01*
X104312783Y-114676938D01*
X104358726Y-114639135D01*
X104411901Y-114593976D01*
X104468296Y-114544956D01*
X104523898Y-114495571D01*
X104574697Y-114449316D01*
X104584959Y-114439787D01*
X104624627Y-114403247D01*
X104661053Y-114370553D01*
X104692544Y-114343154D01*
X104717406Y-114322504D01*
X104733945Y-114310053D01*
X104739944Y-114306966D01*
X104752047Y-114313196D01*
X104764834Y-114328396D01*
X104766040Y-114330405D01*
X104775913Y-114361483D01*
X104771333Y-114396015D01*
X104752156Y-114434525D01*
X104729214Y-114465030D01*
X104676095Y-114524226D01*
X104613170Y-114587411D01*
X104539842Y-114655090D01*
X104455514Y-114727768D01*
X104359587Y-114805949D01*
X104251467Y-114890137D01*
X104130554Y-114980836D01*
X104042399Y-115045275D01*
X103979425Y-115091147D01*
X103926358Y-115130486D01*
X103880236Y-115165622D01*
X103838093Y-115198882D01*
X103796966Y-115232596D01*
X103753892Y-115269092D01*
X103718160Y-115300009D01*
X103624306Y-115386065D01*
X103536442Y-115475190D01*
X103456590Y-115565096D01*
X103386771Y-115653494D01*
X103329008Y-115738094D01*
X103323747Y-115746627D01*
X103308399Y-115773902D01*
X103300512Y-115792398D01*
X103300114Y-115800910D01*
X103307234Y-115798232D01*
X103321900Y-115783157D01*
X103322909Y-115781965D01*
X103340505Y-115763167D01*
X103368070Y-115736328D01*
X103403495Y-115703322D01*
X103444669Y-115666023D01*
X103489483Y-115626304D01*
X103535827Y-115586039D01*
X103581593Y-115547101D01*
X103624670Y-115511364D01*
X103655598Y-115486481D01*
X103787750Y-115385564D01*
X103927830Y-115285585D01*
X104077895Y-115185145D01*
X104240002Y-115082846D01*
X104325443Y-115031024D01*
X104400755Y-114985470D01*
X104466292Y-114944764D01*
X104526023Y-114906317D01*
X104583915Y-114867539D01*
X104643936Y-114825841D01*
X104689876Y-114793144D01*
X104731838Y-114763321D01*
X104762874Y-114742441D01*
X104784628Y-114730165D01*
X104798744Y-114726154D01*
X104806865Y-114730065D01*
X104810634Y-114741561D01*
X104811696Y-114760300D01*
X104811733Y-114767932D01*
X104813085Y-114789473D01*
X104816714Y-114821072D01*
X104821968Y-114857439D01*
X104824979Y-114875629D01*
X104838230Y-114952074D01*
X104791899Y-115043483D01*
X104745992Y-115131414D01*
X104700979Y-115212524D01*
X104657844Y-115285206D01*
X104617573Y-115347847D01*
X104581151Y-115398837D01*
X104554991Y-115430668D01*
X104524183Y-115462170D01*
X104491305Y-115489492D01*
X104454058Y-115513849D01*
X104410140Y-115536456D01*
X104357251Y-115558528D01*
X104293089Y-115581280D01*
X104233817Y-115600255D01*
X104182899Y-115616699D01*
X104120476Y-115637943D01*
X104049512Y-115662892D01*
X103972972Y-115690452D01*
X103893824Y-115719528D01*
X103815031Y-115749026D01*
X103739560Y-115777851D01*
X103670376Y-115804910D01*
X103610445Y-115829107D01*
X103585748Y-115839421D01*
X103519828Y-115867532D01*
X103465918Y-115891250D01*
X103421570Y-115912100D01*
X103384330Y-115931606D01*
X103351748Y-115951292D01*
X103321372Y-115972681D01*
X103290752Y-115997298D01*
X103257435Y-116026667D01*
X103218971Y-116062311D01*
X103202905Y-116077432D01*
X103077495Y-116195700D01*
X103077495Y-116435270D01*
X103077414Y-116504099D01*
X103077104Y-116559244D01*
X103076461Y-116602647D01*
X103075385Y-116636250D01*
X103073773Y-116661994D01*
X103071524Y-116681821D01*
X103068535Y-116697672D01*
X103064706Y-116711491D01*
X103062689Y-116717542D01*
X103052854Y-116751213D01*
X103044833Y-116787807D01*
X103042408Y-116803214D01*
X103036479Y-116830257D01*
X103024319Y-116863886D01*
X103005005Y-116906404D01*
X102985117Y-116945801D01*
X102966298Y-116981253D01*
X102949716Y-117011143D01*
X102936795Y-117033002D01*
X102928958Y-117044363D01*
X102927581Y-117045416D01*
X102922557Y-117038559D01*
X102914689Y-117020507D01*
X102905604Y-116995034D01*
X102904838Y-116992678D01*
X102897714Y-116967477D01*
X102892477Y-116940381D01*
X102888725Y-116907939D01*
X102886058Y-116866702D01*
X102884111Y-116814502D01*
X102880410Y-116689062D01*
X102905170Y-116640013D01*
X102922684Y-116604800D01*
X102933636Y-116580409D01*
X102938690Y-116563811D01*
X102938509Y-116551974D01*
X102933759Y-116541866D01*
X102928300Y-116534488D01*
X102916637Y-116512506D01*
X102910256Y-116487154D01*
X102910225Y-116486821D01*
X102907611Y-116467361D01*
X102904448Y-116455868D01*
X102903968Y-116455196D01*
X102896657Y-116457927D01*
X102881401Y-116468799D01*
X102864521Y-116482857D01*
X102841888Y-116505292D01*
X102829244Y-116525600D01*
X102823325Y-116547408D01*
X102812385Y-116588546D01*
X102795566Y-116619753D01*
X102785024Y-116630901D01*
X102776361Y-116636014D01*
X102772982Y-116629546D01*
X102772432Y-116618612D01*
X102771577Y-116602737D01*
X102769481Y-116574898D01*
X102766437Y-116538684D01*
X102762737Y-116497681D01*
X102761714Y-116486788D01*
X102751352Y-116377406D01*
X102775448Y-116338980D01*
X102788388Y-116316642D01*
X102795381Y-116297737D01*
X102797925Y-116275911D01*
X102797530Y-116245224D01*
X102796060Y-116216006D01*
X102792765Y-116197051D01*
X102785371Y-116183001D01*
X102771604Y-116168499D01*
X102760772Y-116158643D01*
X102733089Y-116127494D01*
X102713381Y-116092664D01*
X102702824Y-116057671D01*
X102702596Y-116026035D01*
X102709934Y-116006591D01*
X102716523Y-116000955D01*
X102725249Y-116006269D01*
X102733825Y-116016362D01*
X102750912Y-116033351D01*
X102773943Y-116050464D01*
X102798314Y-116064911D01*
X102819422Y-116073898D01*
X102830918Y-116075268D01*
X102834941Y-116070828D01*
X102832285Y-116059255D01*
X102822187Y-116038480D01*
X102808390Y-116014103D01*
X102778505Y-115965943D01*
X102751038Y-115929375D01*
X102722973Y-115901339D01*
X102691294Y-115878777D01*
X102656940Y-115860498D01*
X102602015Y-115827433D01*
X102548010Y-115782184D01*
X102498291Y-115727998D01*
X102456224Y-115668125D01*
X102454370Y-115665021D01*
X102424875Y-115620567D01*
X102398123Y-115591478D01*
X102374121Y-115577759D01*
X102365461Y-115576576D01*
X102353330Y-115578571D01*
X102350888Y-115581032D01*
X102354328Y-115589374D01*
X102363617Y-115608385D01*
X102377213Y-115634970D01*
X102388878Y-115657209D01*
X102426307Y-115727986D01*
X102456898Y-115786121D01*
X102481216Y-115832736D01*
X102499828Y-115868948D01*
X102513298Y-115895879D01*
X102522193Y-115914648D01*
X102527077Y-115926375D01*
X102528517Y-115932180D01*
X102528222Y-115933129D01*
X102520423Y-115930900D01*
X102503309Y-115921441D01*
X102480248Y-115906653D01*
X102474695Y-115902863D01*
X102446835Y-115883632D01*
X102411434Y-115859183D01*
X102373802Y-115833182D01*
X102350129Y-115816821D01*
X102318990Y-115794397D01*
X102291753Y-115773131D01*
X102271612Y-115755619D01*
X102262385Y-115745513D01*
X102251477Y-115733147D01*
X102231144Y-115713784D01*
X102204272Y-115690053D01*
X102173742Y-115664586D01*
X102173054Y-115664029D01*
X102125706Y-115623187D01*
X102089198Y-115585641D01*
X102060247Y-115548003D01*
X102059348Y-115546669D01*
X102041113Y-115520333D01*
X102024795Y-115499934D01*
X102007435Y-115483144D01*
X101986074Y-115467639D01*
X101957751Y-115451092D01*
X101919507Y-115431179D01*
X101899689Y-115421209D01*
X101819606Y-115381109D01*
X101819606Y-115320318D01*
X101811922Y-115236238D01*
X101788818Y-115154393D01*
X101776266Y-115124432D01*
X101765533Y-115096326D01*
X101758578Y-115069280D01*
X101757102Y-115055817D01*
X101750925Y-115017726D01*
X101732006Y-114974650D01*
X101710585Y-114940343D01*
X101686639Y-114905538D01*
X101715777Y-114803530D01*
X101727025Y-114766258D01*
X101737575Y-114735091D01*
X101746410Y-114712778D01*
X101752511Y-114702068D01*
X101753561Y-114701522D01*
X101762237Y-114706822D01*
X101779029Y-114721170D01*
X101801338Y-114742237D01*
X101821407Y-114762357D01*
X101853496Y-114797156D01*
X101874740Y-114824829D01*
X101886790Y-114847631D01*
X101889129Y-114854836D01*
X101901477Y-114885927D01*
X101922096Y-114922797D01*
X101947823Y-114960578D01*
X101975493Y-114994399D01*
X101988537Y-115007799D01*
X102027258Y-115039157D01*
X102077962Y-115071810D01*
X102137281Y-115104121D01*
X102201850Y-115134452D01*
X102268303Y-115161167D01*
X102333272Y-115182628D01*
X102365879Y-115191295D01*
X102395641Y-115199822D01*
X102420859Y-115209509D01*
X102436238Y-115218311D01*
X102436555Y-115218598D01*
X102446875Y-115229519D01*
X102464870Y-115249867D01*
X102488263Y-115277021D01*
X102514779Y-115308359D01*
X102523251Y-115318481D01*
X102549121Y-115348850D01*
X102571588Y-115374051D01*
X102588748Y-115392037D01*
X102598696Y-115400762D01*
X102600220Y-115401206D01*
X102600912Y-115392752D01*
X102599163Y-115371836D01*
X102595306Y-115341371D01*
X102589675Y-115304274D01*
X102587961Y-115293905D01*
X102579619Y-115243931D01*
X102574000Y-115206979D01*
X102571349Y-115180642D01*
X102571911Y-115162515D01*
X102575928Y-115150192D01*
X102583645Y-115141265D01*
X102595306Y-115133330D01*
X102604802Y-115127747D01*
X102632969Y-115106124D01*
X102663054Y-115074690D01*
X102691065Y-115038099D01*
X102712359Y-115002322D01*
X102727456Y-114956861D01*
X102729372Y-114906710D01*
X102717964Y-114851207D01*
X102693090Y-114789690D01*
X102654606Y-114721499D01*
X102650383Y-114714877D01*
X102629778Y-114683460D01*
X102611968Y-114657442D01*
X102598728Y-114639336D01*
X102591835Y-114631656D01*
X102591532Y-114631555D01*
X102582403Y-114637672D01*
X102568573Y-114654612D01*
X102552052Y-114679087D01*
X102534848Y-114707808D01*
X102518972Y-114737486D01*
X102506430Y-114764831D01*
X102501063Y-114779652D01*
X102492414Y-114804626D01*
X102484465Y-114821886D01*
X102478894Y-114827813D01*
X102478768Y-114827773D01*
X102471714Y-114819628D01*
X102459388Y-114800133D01*
X102443228Y-114772049D01*
X102424671Y-114738137D01*
X102405154Y-114701160D01*
X102386114Y-114663879D01*
X102368987Y-114629056D01*
X102355210Y-114599453D01*
X102346221Y-114577831D01*
X102343412Y-114567616D01*
X102345774Y-114552381D01*
X102352452Y-114526145D01*
X102362422Y-114492593D01*
X102374641Y-114455455D01*
X102406207Y-114363910D01*
X102394174Y-114322516D01*
X102385035Y-114288005D01*
X102382540Y-114263941D01*
X102388164Y-114246024D01*
X102403382Y-114229954D01*
X102429671Y-114211430D01*
X102433060Y-114209216D01*
X102466736Y-114184629D01*
X102499666Y-114155976D01*
X102528984Y-114126229D01*
X102551827Y-114098360D01*
X102565330Y-114075342D01*
X102567051Y-114070158D01*
X102567976Y-114055279D01*
X102567035Y-114028238D01*
X102564438Y-113992359D01*
X102560397Y-113950968D01*
X102558247Y-113932121D01*
X102544258Y-113814749D01*
X102611963Y-113642863D01*
X102636753Y-113581945D01*
X102666358Y-113512413D01*
X102698446Y-113439548D01*
X102730684Y-113368633D01*
X102760741Y-113304948D01*
X102765483Y-113295185D01*
X102795778Y-113232294D01*
X102819380Y-113181268D01*
X102837062Y-113140250D01*
X102849598Y-113107380D01*
X102857763Y-113080797D01*
X102861258Y-113065119D01*
X102871218Y-113010844D01*
X102892896Y-113039265D01*
G37*
G36*
X135915713Y-100557738D02*
G01*
X135922521Y-100576757D01*
X135931297Y-100604664D01*
X135938887Y-100630793D01*
X135958169Y-100715243D01*
X135965753Y-100791204D01*
X135961590Y-100860605D01*
X135945630Y-100925372D01*
X135930355Y-100962845D01*
X135917368Y-100987401D01*
X135906128Y-101000053D01*
X135893851Y-101003850D01*
X135892912Y-101003863D01*
X135877092Y-100998604D01*
X135866690Y-100980852D01*
X135866577Y-100980528D01*
X135861478Y-100961391D01*
X135855588Y-100932606D01*
X135850092Y-100900028D01*
X135849541Y-100896316D01*
X135845862Y-100867762D01*
X135844622Y-100844210D01*
X135846177Y-100820760D01*
X135850885Y-100792507D01*
X135859101Y-100754550D01*
X135860201Y-100749719D01*
X135875174Y-100684728D01*
X135887217Y-100633931D01*
X135896614Y-100596230D01*
X135903652Y-100570527D01*
X135908616Y-100555723D01*
X135911790Y-100550722D01*
X135911915Y-100550710D01*
X135915713Y-100557738D01*
G37*
G36*
X135025107Y-100997270D02*
G01*
X135037949Y-101021537D01*
X135052324Y-101054992D01*
X135066961Y-101094686D01*
X135080271Y-101136576D01*
X135089087Y-101167798D01*
X135094931Y-101192992D01*
X135098217Y-101216578D01*
X135099360Y-101242979D01*
X135098775Y-101276615D01*
X135097135Y-101316275D01*
X135093698Y-101374490D01*
X135089131Y-101418803D01*
X135083074Y-101450920D01*
X135075167Y-101472544D01*
X135065049Y-101485381D01*
X135060805Y-101488176D01*
X135034066Y-101495666D01*
X135008757Y-101491195D01*
X134995016Y-101481331D01*
X134975453Y-101450645D01*
X134960310Y-101408886D01*
X134950359Y-101360174D01*
X134946370Y-101308629D01*
X134949113Y-101258373D01*
X134951017Y-101246065D01*
X134959316Y-101202226D01*
X134968761Y-101156635D01*
X134978743Y-101111777D01*
X134988651Y-101070137D01*
X134997877Y-101034200D01*
X135005809Y-101006451D01*
X135011838Y-100989376D01*
X135015066Y-100985140D01*
X135025107Y-100997270D01*
G37*
G36*
X135202573Y-100930637D02*
G01*
X135207552Y-100936262D01*
X135213380Y-100943420D01*
X135225014Y-100962832D01*
X135235694Y-100990367D01*
X135240743Y-101009431D01*
X135248414Y-101042028D01*
X135257449Y-101074921D01*
X135262134Y-101089806D01*
X135273436Y-101139030D01*
X135278240Y-101197021D01*
X135276865Y-101258985D01*
X135269627Y-101320133D01*
X135256845Y-101375672D01*
X135240380Y-101417856D01*
X135222681Y-101444629D01*
X135203651Y-101460338D01*
X135185580Y-101463739D01*
X135171878Y-101455062D01*
X135165589Y-101443385D01*
X135156032Y-101421275D01*
X135145054Y-101393062D01*
X135142717Y-101386699D01*
X135131577Y-101352253D01*
X135124573Y-101319524D01*
X135121805Y-101285702D01*
X135123378Y-101247977D01*
X135129395Y-101203541D01*
X135139959Y-101149584D01*
X135153618Y-101089806D01*
X135166733Y-101034501D01*
X135176710Y-100992741D01*
X135184207Y-100962912D01*
X135189883Y-100943400D01*
X135194397Y-100932593D01*
X135198407Y-100928876D01*
X135202573Y-100930637D01*
G37*
G36*
X135588883Y-100807261D02*
G01*
X135603869Y-100833942D01*
X135619073Y-100874987D01*
X135632688Y-100923735D01*
X135640626Y-100960021D01*
X135645850Y-100996297D01*
X135648834Y-101037395D01*
X135650052Y-101088144D01*
X135650131Y-101101525D01*
X135650042Y-101146482D01*
X135649138Y-101179249D01*
X135647013Y-101203256D01*
X135643261Y-101221934D01*
X135637475Y-101238712D01*
X135632548Y-101249972D01*
X135619453Y-101273450D01*
X135601941Y-101298481D01*
X135582985Y-101321512D01*
X135565557Y-101338991D01*
X135552630Y-101347364D01*
X135550826Y-101347634D01*
X135544014Y-101341129D01*
X135534321Y-101324627D01*
X135529324Y-101314096D01*
X135516762Y-101272267D01*
X135509718Y-101216455D01*
X135508208Y-101147305D01*
X135512246Y-101065461D01*
X135521239Y-100976517D01*
X135527291Y-100930009D01*
X135533479Y-100887761D01*
X135539321Y-100852687D01*
X135544337Y-100827700D01*
X135547649Y-100816447D01*
X135560532Y-100798209D01*
X135574357Y-100795249D01*
X135588883Y-100807261D01*
G37*
G36*
X135768289Y-100698802D02*
G01*
X135776596Y-100716860D01*
X135786350Y-100744416D01*
X135796649Y-100778577D01*
X135806588Y-100816453D01*
X135815262Y-100855149D01*
X135818798Y-100873658D01*
X135823143Y-100908338D01*
X135824692Y-100943809D01*
X135823583Y-100967093D01*
X135818118Y-100994651D01*
X135808051Y-101029774D01*
X135794910Y-101068406D01*
X135780220Y-101106492D01*
X135765507Y-101139976D01*
X135752298Y-101164804D01*
X135745788Y-101173795D01*
X135727428Y-101187852D01*
X135710603Y-101190376D01*
X135699071Y-101180955D01*
X135698227Y-101179016D01*
X135694495Y-101158486D01*
X135693736Y-101127707D01*
X135695815Y-101091746D01*
X135700596Y-101055668D01*
X135701675Y-101049854D01*
X135705084Y-101026662D01*
X135708795Y-100992012D01*
X135712425Y-100950055D01*
X135715588Y-100904945D01*
X135716436Y-100890575D01*
X135721502Y-100826856D01*
X135728808Y-100774159D01*
X135738091Y-100733606D01*
X135749091Y-100706321D01*
X135761547Y-100693426D01*
X135762337Y-100693134D01*
X135768289Y-100698802D01*
G37*
G36*
X135391391Y-100873509D02*
G01*
X135401449Y-100886760D01*
X135412107Y-100912235D01*
X135424046Y-100951107D01*
X135434011Y-100988815D01*
X135446561Y-101041538D01*
X135454794Y-101085084D01*
X135459538Y-101125031D01*
X135461621Y-101166956D01*
X135461789Y-101175909D01*
X135462045Y-101213648D01*
X135460928Y-101240501D01*
X135457590Y-101261198D01*
X135451184Y-101280471D01*
X135440863Y-101303050D01*
X135437946Y-101309005D01*
X135420638Y-101340667D01*
X135403463Y-101366101D01*
X135388147Y-101383347D01*
X135376418Y-101390445D01*
X135370145Y-101385916D01*
X135366484Y-101372267D01*
X135360977Y-101349726D01*
X135357749Y-101335914D01*
X135348953Y-101305333D01*
X135336612Y-101271204D01*
X135329709Y-101254887D01*
X135319082Y-101227357D01*
X135312163Y-101201498D01*
X135310648Y-101188742D01*
X135312113Y-101168588D01*
X135316125Y-101138111D01*
X135322112Y-101100276D01*
X135329503Y-101058051D01*
X135337727Y-101014402D01*
X135346210Y-100972296D01*
X135354381Y-100934699D01*
X135361669Y-100904579D01*
X135367501Y-100884902D01*
X135370356Y-100878987D01*
X135381253Y-100871309D01*
X135391391Y-100873509D01*
G37*
G36*
X135981689Y-99595723D02*
G01*
X135978209Y-99617603D01*
X135970621Y-99646583D01*
X135959965Y-99679036D01*
X135947277Y-99711337D01*
X135937937Y-99731527D01*
X135896948Y-99796422D01*
X135844101Y-99851388D01*
X135779944Y-99895997D01*
X135705024Y-99929821D01*
X135669990Y-99940844D01*
X135621650Y-99950847D01*
X135562617Y-99957687D01*
X135497536Y-99961189D01*
X135431052Y-99961178D01*
X135367809Y-99957478D01*
X135334087Y-99953522D01*
X135285443Y-99945022D01*
X135245182Y-99935048D01*
X135215236Y-99924258D01*
X135197534Y-99913312D01*
X135193454Y-99905553D01*
X135199961Y-99894149D01*
X135217837Y-99877217D01*
X135244613Y-99856486D01*
X135277819Y-99833689D01*
X135314986Y-99810553D01*
X135353646Y-99788810D01*
X135377059Y-99776896D01*
X135411770Y-99761507D01*
X135457401Y-99743849D01*
X135514900Y-99723596D01*
X135585212Y-99700420D01*
X135669286Y-99673993D01*
X135715652Y-99659800D01*
X135776542Y-99641440D01*
X135832600Y-99624808D01*
X135882100Y-99610395D01*
X135923317Y-99598693D01*
X135954523Y-99590191D01*
X135973991Y-99585383D01*
X135980023Y-99584567D01*
X135981689Y-99595723D01*
G37*
G36*
X133633152Y-97665889D02*
G01*
X133648100Y-97682338D01*
X133668412Y-97707029D01*
X133692217Y-97737736D01*
X133703180Y-97752396D01*
X133731510Y-97789507D01*
X133760771Y-97825818D01*
X133787860Y-97857602D01*
X133809672Y-97881130D01*
X133813251Y-97884633D01*
X133854906Y-97924389D01*
X133868221Y-98024233D01*
X133880042Y-98098129D01*
X133894961Y-98167815D01*
X133912130Y-98230015D01*
X133930701Y-98281448D01*
X133939902Y-98301423D01*
X133948992Y-98324513D01*
X133955623Y-98350945D01*
X133959293Y-98376572D01*
X133959500Y-98397242D01*
X133955743Y-98408806D01*
X133953021Y-98409953D01*
X133945781Y-98404687D01*
X133929534Y-98390109D01*
X133906226Y-98368053D01*
X133877802Y-98340350D01*
X133854941Y-98317615D01*
X133810249Y-98271364D01*
X133777102Y-98233699D01*
X133754685Y-98203648D01*
X133744446Y-98185568D01*
X133728407Y-98157813D01*
X133706237Y-98127680D01*
X133689268Y-98108550D01*
X133652488Y-98071241D01*
X133650093Y-97996442D01*
X133644830Y-97925679D01*
X133634147Y-97859170D01*
X133618846Y-97801159D01*
X133607888Y-97772436D01*
X133598337Y-97746779D01*
X133592569Y-97723436D01*
X133591793Y-97715343D01*
X133595908Y-97694379D01*
X133606007Y-97674741D01*
X133618719Y-97661984D01*
X133625441Y-97659911D01*
X133633152Y-97665889D01*
G37*
G36*
X135891362Y-97249855D02*
G01*
X135929041Y-97253292D01*
X135951687Y-97259507D01*
X135959126Y-97268335D01*
X135952366Y-97274139D01*
X135935315Y-97281477D01*
X135925986Y-97284526D01*
X135909841Y-97289604D01*
X135896370Y-97295134D01*
X135883658Y-97302851D01*
X135869793Y-97314489D01*
X135852862Y-97331782D01*
X135830951Y-97356464D01*
X135802147Y-97390268D01*
X135779032Y-97417705D01*
X135696601Y-97518303D01*
X135614102Y-97623963D01*
X135534698Y-97730469D01*
X135461556Y-97833608D01*
X135416645Y-97900223D01*
X135390497Y-97939421D01*
X135366939Y-97973701D01*
X135347402Y-98001064D01*
X135333318Y-98019511D01*
X135326118Y-98027041D01*
X135325813Y-98027117D01*
X135322804Y-98019777D01*
X135320422Y-97999635D01*
X135318902Y-97969513D01*
X135318461Y-97938250D01*
X135318821Y-97899045D01*
X135320501Y-97868709D01*
X135324401Y-97841981D01*
X135331423Y-97813598D01*
X135342466Y-97778298D01*
X135349384Y-97757577D01*
X135362377Y-97720884D01*
X135374948Y-97688690D01*
X135385668Y-97664451D01*
X135393110Y-97651624D01*
X135393155Y-97651574D01*
X135405807Y-97641562D01*
X135428348Y-97627227D01*
X135456643Y-97611139D01*
X135467119Y-97605582D01*
X135534100Y-97566235D01*
X135587235Y-97525243D01*
X135625726Y-97483242D01*
X135632290Y-97473712D01*
X135642975Y-97456534D01*
X135649632Y-97442189D01*
X135652974Y-97426472D01*
X135653713Y-97405174D01*
X135652564Y-97374092D01*
X135651774Y-97358737D01*
X135649790Y-97324298D01*
X135647775Y-97295074D01*
X135646018Y-97275025D01*
X135645181Y-97268910D01*
X135646666Y-97264518D01*
X135654587Y-97261020D01*
X135670903Y-97258143D01*
X135697571Y-97255617D01*
X135736552Y-97253169D01*
X135771614Y-97251385D01*
X135838828Y-97249215D01*
X135891362Y-97249855D01*
G37*
G36*
X136583618Y-99057797D02*
G01*
X136583731Y-99076923D01*
X136582521Y-99104372D01*
X136581803Y-99115075D01*
X136578945Y-99140747D01*
X136573519Y-99171288D01*
X136565047Y-99208634D01*
X136553050Y-99254724D01*
X136537048Y-99311494D01*
X136516562Y-99380882D01*
X136513679Y-99390482D01*
X136496366Y-99446974D01*
X136479496Y-99500031D01*
X136463846Y-99547364D01*
X136450188Y-99586687D01*
X136439298Y-99615714D01*
X136431951Y-99632158D01*
X136431645Y-99632685D01*
X136408598Y-99664917D01*
X136374359Y-99703947D01*
X136330848Y-99748069D01*
X136279980Y-99795574D01*
X136223674Y-99844755D01*
X136163847Y-99893905D01*
X136102416Y-99941316D01*
X136041299Y-99985280D01*
X136017723Y-100001283D01*
X135902904Y-100069254D01*
X135780127Y-100125206D01*
X135647755Y-100169856D01*
X135610116Y-100180078D01*
X135537231Y-100199537D01*
X135477230Y-100217037D01*
X135427627Y-100233434D01*
X135385935Y-100249582D01*
X135349667Y-100266338D01*
X135331594Y-100275867D01*
X135313657Y-100287076D01*
X135288038Y-100304866D01*
X135256820Y-100327612D01*
X135222085Y-100353684D01*
X135185915Y-100381455D01*
X135150394Y-100409297D01*
X135117604Y-100435583D01*
X135089627Y-100458683D01*
X135068546Y-100476972D01*
X135056444Y-100488820D01*
X135054480Y-100492471D01*
X135062033Y-100490141D01*
X135080760Y-100481843D01*
X135107977Y-100468831D01*
X135140999Y-100452355D01*
X135146805Y-100449398D01*
X135219110Y-100413740D01*
X135283542Y-100385208D01*
X135344273Y-100362506D01*
X135405472Y-100344337D01*
X135471312Y-100329404D01*
X135545962Y-100316410D01*
X135599729Y-100308590D01*
X135678589Y-100296861D01*
X135745485Y-100284635D01*
X135804066Y-100270846D01*
X135857983Y-100254429D01*
X135910887Y-100234320D01*
X135966428Y-100209453D01*
X136006004Y-100190068D01*
X136053843Y-100165370D01*
X136104243Y-100138226D01*
X136152373Y-100111309D01*
X136193400Y-100087293D01*
X136208122Y-100078231D01*
X136245322Y-100055060D01*
X136271388Y-100039638D01*
X136288249Y-100031132D01*
X136297832Y-100028715D01*
X136302065Y-100031554D01*
X136302897Y-100037427D01*
X136296189Y-100051141D01*
X136276973Y-100071057D01*
X136246608Y-100096177D01*
X136206455Y-100125503D01*
X136157874Y-100158038D01*
X136102225Y-100192785D01*
X136046116Y-100225756D01*
X136002487Y-100249407D01*
X135962497Y-100267758D01*
X135921422Y-100282488D01*
X135874536Y-100295276D01*
X135817114Y-100307805D01*
X135813121Y-100308607D01*
X135702639Y-100332806D01*
X135605761Y-100358426D01*
X135522939Y-100385315D01*
X135454625Y-100413317D01*
X135401271Y-100442280D01*
X135382918Y-100455083D01*
X135366829Y-100470022D01*
X135358066Y-100483366D01*
X135357526Y-100486183D01*
X135360019Y-100493634D01*
X135368243Y-100489038D01*
X135383901Y-100480378D01*
X135411145Y-100469529D01*
X135446307Y-100457675D01*
X135485714Y-100446001D01*
X135525696Y-100435691D01*
X135550538Y-100430225D01*
X135577381Y-100425669D01*
X135616257Y-100420218D01*
X135663632Y-100414309D01*
X135715969Y-100408381D01*
X135769734Y-100402872D01*
X135775859Y-100402284D01*
X135842478Y-100395659D01*
X135896399Y-100389400D01*
X135940512Y-100382808D01*
X135977710Y-100375183D01*
X136010882Y-100365823D01*
X136042920Y-100354030D01*
X136076716Y-100339102D01*
X136115160Y-100320340D01*
X136116068Y-100319885D01*
X136149461Y-100303638D01*
X136177644Y-100290869D01*
X136197815Y-100282780D01*
X136207168Y-100280576D01*
X136207383Y-100280706D01*
X136206926Y-100289681D01*
X136200984Y-100307924D01*
X136194989Y-100322203D01*
X136189367Y-100334839D01*
X136182186Y-100351444D01*
X136172912Y-100373298D01*
X136161012Y-100401682D01*
X136145955Y-100437877D01*
X136127208Y-100483165D01*
X136104238Y-100538825D01*
X136076513Y-100606139D01*
X136043500Y-100686387D01*
X136036542Y-100703309D01*
X136021383Y-100739427D01*
X136007944Y-100770061D01*
X135997487Y-100792430D01*
X135991275Y-100803755D01*
X135990545Y-100804528D01*
X135987605Y-100798943D01*
X135984550Y-100780955D01*
X135981845Y-100753778D01*
X135980673Y-100736077D01*
X135973897Y-100675171D01*
X135959592Y-100605887D01*
X135948120Y-100562429D01*
X135935190Y-100516558D01*
X135925785Y-100483692D01*
X135919237Y-100461784D01*
X135914876Y-100448787D01*
X135912033Y-100442654D01*
X135910039Y-100441338D01*
X135908814Y-100442163D01*
X135906242Y-100450355D01*
X135900786Y-100471521D01*
X135892997Y-100503393D01*
X135883426Y-100543703D01*
X135872624Y-100590182D01*
X135868685Y-100607354D01*
X135857494Y-100655231D01*
X135847145Y-100697502D01*
X135838219Y-100731951D01*
X135831296Y-100756363D01*
X135826959Y-100768522D01*
X135826149Y-100769473D01*
X135821840Y-100762464D01*
X135814568Y-100743554D01*
X135805475Y-100715916D01*
X135798702Y-100693297D01*
X135788852Y-100660502D01*
X135779944Y-100633257D01*
X135773188Y-100615142D01*
X135770506Y-100609940D01*
X135764624Y-100613099D01*
X135754332Y-100627740D01*
X135741504Y-100651038D01*
X135736598Y-100661060D01*
X135725525Y-100685194D01*
X135717643Y-100705706D01*
X135712196Y-100726390D01*
X135708425Y-100751044D01*
X135705573Y-100783461D01*
X135702882Y-100827439D01*
X135702686Y-100830932D01*
X135699629Y-100878448D01*
X135696207Y-100912488D01*
X135691843Y-100935202D01*
X135685960Y-100948738D01*
X135677981Y-100955247D01*
X135668876Y-100956865D01*
X135664958Y-100949872D01*
X135659065Y-100931198D01*
X135652305Y-100904479D01*
X135650492Y-100896434D01*
X135635422Y-100838291D01*
X135618768Y-100793040D01*
X135600912Y-100761354D01*
X135582242Y-100743906D01*
X135563141Y-100741370D01*
X135561978Y-100741711D01*
X135549022Y-100750051D01*
X135538065Y-100767192D01*
X135528567Y-100794768D01*
X135519989Y-100834417D01*
X135511793Y-100887773D01*
X135510391Y-100898387D01*
X135502444Y-100951200D01*
X135494217Y-100988755D01*
X135485575Y-101011421D01*
X135476385Y-101019568D01*
X135467947Y-101015247D01*
X135463496Y-101004903D01*
X135456849Y-100982790D01*
X135448999Y-100952434D01*
X135442854Y-100926088D01*
X135431303Y-100880089D01*
X135419952Y-100848215D01*
X135407951Y-100829000D01*
X135394445Y-100820978D01*
X135382051Y-100821616D01*
X135368577Y-100827190D01*
X135357716Y-100837493D01*
X135348557Y-100854729D01*
X135340190Y-100881103D01*
X135331704Y-100918820D01*
X135323281Y-100963895D01*
X135315944Y-101003950D01*
X135309216Y-101038308D01*
X135303687Y-101064130D01*
X135299946Y-101078576D01*
X135299051Y-101080568D01*
X135292799Y-101081799D01*
X135285781Y-101072457D01*
X135277406Y-101051190D01*
X135267084Y-101016641D01*
X135260534Y-100992143D01*
X135249834Y-100953729D01*
X135240337Y-100927035D01*
X135230412Y-100908413D01*
X135218428Y-100894215D01*
X135215528Y-100891482D01*
X135199352Y-100877993D01*
X135189763Y-100874676D01*
X135182743Y-100880225D01*
X135182394Y-100880704D01*
X135177800Y-100892142D01*
X135170735Y-100915904D01*
X135161999Y-100949034D01*
X135152389Y-100988574D01*
X135147316Y-101010663D01*
X135137801Y-101051212D01*
X135128951Y-101085763D01*
X135121491Y-101111716D01*
X135116149Y-101126469D01*
X135114330Y-101128870D01*
X135108988Y-101121990D01*
X135101590Y-101104125D01*
X135095164Y-101083946D01*
X135080900Y-101041114D01*
X135063328Y-100999306D01*
X135044436Y-100962601D01*
X135026212Y-100935075D01*
X135018320Y-100926352D01*
X135010072Y-100918482D01*
X135003927Y-100914131D01*
X134999008Y-100915142D01*
X134994433Y-100923363D01*
X134989325Y-100940638D01*
X134982803Y-100968813D01*
X134973988Y-101009734D01*
X134970221Y-101027302D01*
X134959886Y-101073255D01*
X134950903Y-101108993D01*
X134943646Y-101133291D01*
X134938490Y-101144922D01*
X134935810Y-101142658D01*
X134935614Y-101140590D01*
X134934609Y-101130308D01*
X134932196Y-101107603D01*
X134928711Y-101075581D01*
X134924489Y-101037347D01*
X134923371Y-101027302D01*
X134918118Y-100969123D01*
X134913771Y-100898820D01*
X134910361Y-100819444D01*
X134907918Y-100734044D01*
X134906474Y-100645673D01*
X134906058Y-100557381D01*
X134906701Y-100472218D01*
X134908435Y-100393236D01*
X134911289Y-100323486D01*
X134915295Y-100266019D01*
X134915672Y-100261988D01*
X134928704Y-100125620D01*
X134971890Y-100076430D01*
X134983176Y-100063036D01*
X134992328Y-100052114D01*
X135000982Y-100043485D01*
X135010770Y-100036971D01*
X135023327Y-100032393D01*
X135040286Y-100029573D01*
X135063282Y-100028332D01*
X135093946Y-100028491D01*
X135133915Y-100029873D01*
X135184820Y-100032298D01*
X135248297Y-100035589D01*
X135314555Y-100038993D01*
X135417158Y-100043845D01*
X135505204Y-100047301D01*
X135579701Y-100049368D01*
X135641655Y-100050052D01*
X135692073Y-100049360D01*
X135731962Y-100047297D01*
X135762329Y-100043871D01*
X135773183Y-100041879D01*
X135807408Y-100032240D01*
X135850446Y-100016645D01*
X135897640Y-99997059D01*
X135944334Y-99975446D01*
X135985869Y-99953770D01*
X135996098Y-99947864D01*
X136022661Y-99929990D01*
X136054467Y-99905508D01*
X136085762Y-99878915D01*
X136094035Y-99871343D01*
X136116857Y-99848677D01*
X136139833Y-99822871D01*
X136163621Y-99792850D01*
X136188878Y-99757537D01*
X136216264Y-99715857D01*
X136246436Y-99666735D01*
X136280052Y-99609094D01*
X136317769Y-99541859D01*
X136360246Y-99463954D01*
X136408140Y-99374303D01*
X136462110Y-99271831D01*
X136470550Y-99255708D01*
X136497755Y-99203973D01*
X136522711Y-99157029D01*
X136544487Y-99116582D01*
X136562154Y-99084342D01*
X136574784Y-99062015D01*
X136581446Y-99051310D01*
X136582164Y-99050618D01*
X136583618Y-99057797D01*
G37*
G36*
X134672896Y-96849265D02*
G01*
X134688432Y-96871508D01*
X134700855Y-96894509D01*
X134710700Y-96920606D01*
X134718500Y-96952135D01*
X134724790Y-96991434D01*
X134730106Y-97040842D01*
X134734980Y-97102695D01*
X134736727Y-97128415D01*
X134742689Y-97209609D01*
X134749218Y-97278419D01*
X134756781Y-97338086D01*
X134765844Y-97391852D01*
X134776874Y-97442958D01*
X134788500Y-97488021D01*
X134805038Y-97538396D01*
X134826605Y-97590045D01*
X134850795Y-97637860D01*
X134875199Y-97676736D01*
X134881260Y-97684723D01*
X134897157Y-97705240D01*
X134907820Y-97722347D01*
X134913472Y-97739240D01*
X134914331Y-97759116D01*
X134910619Y-97785172D01*
X134902557Y-97820606D01*
X134893188Y-97857602D01*
X134879221Y-97916633D01*
X134866168Y-97980274D01*
X134854604Y-98044925D01*
X134845106Y-98106989D01*
X134838248Y-98162867D01*
X134834608Y-98208961D01*
X134834172Y-98226348D01*
X134836812Y-98258068D01*
X134845634Y-98288885D01*
X134862063Y-98321729D01*
X134887521Y-98359529D01*
X134917559Y-98398037D01*
X134945509Y-98430205D01*
X134968502Y-98450620D01*
X134989477Y-98461014D01*
X135011379Y-98463115D01*
X135025149Y-98461314D01*
X135059948Y-98447375D01*
X135086264Y-98421807D01*
X135101301Y-98387534D01*
X135102656Y-98380251D01*
X135107007Y-98350726D01*
X135111286Y-98321504D01*
X135111778Y-98318128D01*
X135115500Y-98303990D01*
X135123677Y-98288331D01*
X135137995Y-98268875D01*
X135160142Y-98243349D01*
X135191803Y-98209478D01*
X135194365Y-98206793D01*
X135272686Y-98124779D01*
X135218244Y-98230255D01*
X135113414Y-98448433D01*
X135021877Y-98671317D01*
X134943331Y-98899939D01*
X134877475Y-99135329D01*
X134824006Y-99378519D01*
X134782623Y-99630541D01*
X134764042Y-99781131D01*
X134759863Y-99818423D01*
X134755742Y-99853466D01*
X134752309Y-99880980D01*
X134751012Y-99890513D01*
X134749275Y-99910301D01*
X134751396Y-99916320D01*
X134756658Y-99909744D01*
X134764351Y-99891745D01*
X134773759Y-99863498D01*
X134779512Y-99843635D01*
X134822478Y-99700893D01*
X134873654Y-99552333D01*
X134931347Y-99402131D01*
X134993859Y-99254463D01*
X135059493Y-99113506D01*
X135126555Y-98983436D01*
X135135490Y-98967183D01*
X135203735Y-98848455D01*
X135272685Y-98737959D01*
X135344476Y-98632813D01*
X135421243Y-98530136D01*
X135505121Y-98427047D01*
X135598247Y-98320666D01*
X135681783Y-98230255D01*
X135718284Y-98190770D01*
X135762623Y-98141546D01*
X135813031Y-98084645D01*
X135867742Y-98022130D01*
X135924987Y-97956063D01*
X135982996Y-97888507D01*
X136040002Y-97821524D01*
X136094238Y-97757177D01*
X136143933Y-97697527D01*
X136187320Y-97644639D01*
X136222631Y-97600573D01*
X136232739Y-97587637D01*
X136250449Y-97565730D01*
X136264794Y-97549737D01*
X136272944Y-97542790D01*
X136273346Y-97542712D01*
X136276458Y-97543793D01*
X136279319Y-97548828D01*
X136282658Y-97560505D01*
X136287209Y-97581512D01*
X136293701Y-97614537D01*
X136295668Y-97624749D01*
X136302521Y-97654243D01*
X136310663Y-97680755D01*
X136316038Y-97693749D01*
X136323030Y-97711434D01*
X136320861Y-97724110D01*
X136317100Y-97729977D01*
X136310715Y-97737400D01*
X136294873Y-97755309D01*
X136270578Y-97782583D01*
X136238837Y-97818103D01*
X136200656Y-97860750D01*
X136157042Y-97909405D01*
X136109000Y-97962948D01*
X136057538Y-98020259D01*
X136003660Y-98080220D01*
X135948374Y-98141712D01*
X135892686Y-98203614D01*
X135837601Y-98264807D01*
X135784126Y-98324173D01*
X135733268Y-98380591D01*
X135686032Y-98432943D01*
X135643425Y-98480108D01*
X135606453Y-98520968D01*
X135576123Y-98554403D01*
X135565361Y-98566232D01*
X135547234Y-98586228D01*
X135522122Y-98614058D01*
X135493456Y-98645913D01*
X135466908Y-98675486D01*
X135440288Y-98705159D01*
X135416298Y-98731869D01*
X135397496Y-98752767D01*
X135386442Y-98765006D01*
X135386161Y-98765316D01*
X135372710Y-98781457D01*
X135352193Y-98807756D01*
X135326544Y-98841597D01*
X135297698Y-98880364D01*
X135267588Y-98921442D01*
X135238149Y-98962214D01*
X135211315Y-99000064D01*
X135192548Y-99027179D01*
X135116962Y-99144337D01*
X135045653Y-99267124D01*
X134980712Y-99391566D01*
X134924229Y-99513693D01*
X134884821Y-99611664D01*
X134864998Y-99666393D01*
X134851434Y-99707300D01*
X134844129Y-99734881D01*
X134843083Y-99749631D01*
X134848297Y-99752046D01*
X134859769Y-99742621D01*
X134877501Y-99721853D01*
X134884841Y-99712445D01*
X134943003Y-99639025D01*
X135011013Y-99557124D01*
X135087105Y-99468707D01*
X135169508Y-99375742D01*
X135256454Y-99280196D01*
X135346175Y-99184037D01*
X135436901Y-99089230D01*
X135526864Y-98997745D01*
X135532939Y-98991664D01*
X135605782Y-98919186D01*
X135670286Y-98855918D01*
X135728838Y-98799706D01*
X135783825Y-98748400D01*
X135837635Y-98699845D01*
X135892656Y-98651890D01*
X135951274Y-98602382D01*
X136015878Y-98549168D01*
X136088856Y-98490096D01*
X136092783Y-98486938D01*
X136138726Y-98449135D01*
X136191901Y-98403976D01*
X136248296Y-98354956D01*
X136303898Y-98305571D01*
X136354697Y-98259316D01*
X136364959Y-98249787D01*
X136404627Y-98213247D01*
X136441053Y-98180553D01*
X136472544Y-98153154D01*
X136497406Y-98132504D01*
X136513945Y-98120053D01*
X136519944Y-98116966D01*
X136532047Y-98123196D01*
X136544834Y-98138396D01*
X136546040Y-98140405D01*
X136555913Y-98171483D01*
X136551333Y-98206015D01*
X136532156Y-98244525D01*
X136509214Y-98275030D01*
X136456095Y-98334226D01*
X136393170Y-98397411D01*
X136319842Y-98465090D01*
X136235514Y-98537768D01*
X136139587Y-98615949D01*
X136031467Y-98700137D01*
X135910554Y-98790836D01*
X135822399Y-98855275D01*
X135759425Y-98901147D01*
X135706358Y-98940486D01*
X135660236Y-98975622D01*
X135618093Y-99008882D01*
X135576966Y-99042596D01*
X135533892Y-99079092D01*
X135498160Y-99110009D01*
X135404306Y-99196065D01*
X135316442Y-99285190D01*
X135236590Y-99375096D01*
X135166771Y-99463494D01*
X135109008Y-99548094D01*
X135103747Y-99556627D01*
X135088399Y-99583902D01*
X135080512Y-99602398D01*
X135080114Y-99610910D01*
X135087234Y-99608232D01*
X135101900Y-99593157D01*
X135102909Y-99591965D01*
X135120505Y-99573167D01*
X135148070Y-99546328D01*
X135183495Y-99513322D01*
X135224669Y-99476023D01*
X135269483Y-99436304D01*
X135315827Y-99396039D01*
X135361593Y-99357101D01*
X135404670Y-99321364D01*
X135435598Y-99296481D01*
X135567750Y-99195564D01*
X135707830Y-99095585D01*
X135857895Y-98995145D01*
X136020002Y-98892846D01*
X136105443Y-98841024D01*
X136180755Y-98795470D01*
X136246292Y-98754764D01*
X136306023Y-98716317D01*
X136363915Y-98677539D01*
X136423936Y-98635841D01*
X136469876Y-98603144D01*
X136511838Y-98573321D01*
X136542874Y-98552441D01*
X136564628Y-98540165D01*
X136578744Y-98536154D01*
X136586865Y-98540065D01*
X136590634Y-98551561D01*
X136591696Y-98570300D01*
X136591733Y-98577932D01*
X136593085Y-98599473D01*
X136596714Y-98631072D01*
X136601968Y-98667439D01*
X136604979Y-98685629D01*
X136618230Y-98762074D01*
X136571899Y-98853483D01*
X136525992Y-98941414D01*
X136480979Y-99022524D01*
X136437844Y-99095206D01*
X136397573Y-99157847D01*
X136361151Y-99208837D01*
X136334991Y-99240668D01*
X136304183Y-99272170D01*
X136271305Y-99299492D01*
X136234058Y-99323849D01*
X136190140Y-99346456D01*
X136137251Y-99368528D01*
X136073089Y-99391280D01*
X136013817Y-99410255D01*
X135962899Y-99426699D01*
X135900476Y-99447943D01*
X135829512Y-99472892D01*
X135752972Y-99500452D01*
X135673824Y-99529528D01*
X135595031Y-99559026D01*
X135519560Y-99587851D01*
X135450376Y-99614910D01*
X135390445Y-99639107D01*
X135365748Y-99649421D01*
X135299828Y-99677532D01*
X135245918Y-99701250D01*
X135201570Y-99722100D01*
X135164330Y-99741606D01*
X135131748Y-99761292D01*
X135101372Y-99782681D01*
X135070752Y-99807298D01*
X135037435Y-99836667D01*
X134998971Y-99872311D01*
X134982905Y-99887432D01*
X134857495Y-100005700D01*
X134857495Y-100245270D01*
X134857414Y-100314099D01*
X134857104Y-100369244D01*
X134856461Y-100412647D01*
X134855385Y-100446250D01*
X134853773Y-100471994D01*
X134851524Y-100491821D01*
X134848535Y-100507672D01*
X134844706Y-100521491D01*
X134842689Y-100527542D01*
X134832854Y-100561213D01*
X134824833Y-100597807D01*
X134822408Y-100613214D01*
X134816479Y-100640257D01*
X134804319Y-100673886D01*
X134785005Y-100716404D01*
X134765117Y-100755801D01*
X134746298Y-100791253D01*
X134729716Y-100821143D01*
X134716795Y-100843002D01*
X134708958Y-100854363D01*
X134707581Y-100855416D01*
X134702557Y-100848559D01*
X134694689Y-100830507D01*
X134685604Y-100805034D01*
X134684838Y-100802678D01*
X134677714Y-100777477D01*
X134672477Y-100750381D01*
X134668725Y-100717939D01*
X134666058Y-100676702D01*
X134664111Y-100624502D01*
X134660410Y-100499062D01*
X134685170Y-100450013D01*
X134702684Y-100414800D01*
X134713636Y-100390409D01*
X134718690Y-100373811D01*
X134718509Y-100361974D01*
X134713759Y-100351866D01*
X134708300Y-100344488D01*
X134696637Y-100322506D01*
X134690256Y-100297154D01*
X134690225Y-100296821D01*
X134687611Y-100277361D01*
X134684448Y-100265868D01*
X134683968Y-100265196D01*
X134676657Y-100267927D01*
X134661401Y-100278799D01*
X134644521Y-100292857D01*
X134621888Y-100315292D01*
X134609244Y-100335600D01*
X134603325Y-100357408D01*
X134592385Y-100398546D01*
X134575566Y-100429753D01*
X134565024Y-100440901D01*
X134556361Y-100446014D01*
X134552982Y-100439546D01*
X134552432Y-100428612D01*
X134551577Y-100412737D01*
X134549481Y-100384898D01*
X134546437Y-100348684D01*
X134542737Y-100307681D01*
X134541714Y-100296788D01*
X134531352Y-100187406D01*
X134555448Y-100148980D01*
X134568388Y-100126642D01*
X134575381Y-100107737D01*
X134577925Y-100085911D01*
X134577530Y-100055224D01*
X134576060Y-100026006D01*
X134572765Y-100007051D01*
X134565371Y-99993001D01*
X134551604Y-99978499D01*
X134540772Y-99968643D01*
X134513089Y-99937494D01*
X134493381Y-99902664D01*
X134482824Y-99867671D01*
X134482596Y-99836035D01*
X134489934Y-99816591D01*
X134496523Y-99810955D01*
X134505249Y-99816269D01*
X134513825Y-99826362D01*
X134530912Y-99843351D01*
X134553943Y-99860464D01*
X134578314Y-99874911D01*
X134599422Y-99883898D01*
X134610918Y-99885268D01*
X134614941Y-99880828D01*
X134612285Y-99869255D01*
X134602187Y-99848480D01*
X134588390Y-99824103D01*
X134558505Y-99775943D01*
X134531038Y-99739375D01*
X134502973Y-99711339D01*
X134471294Y-99688777D01*
X134436940Y-99670498D01*
X134382015Y-99637433D01*
X134328010Y-99592184D01*
X134278291Y-99537998D01*
X134236224Y-99478125D01*
X134234370Y-99475021D01*
X134204875Y-99430567D01*
X134178123Y-99401478D01*
X134154121Y-99387759D01*
X134145461Y-99386576D01*
X134133330Y-99388571D01*
X134130888Y-99391032D01*
X134134328Y-99399374D01*
X134143617Y-99418385D01*
X134157213Y-99444970D01*
X134168878Y-99467209D01*
X134206307Y-99537986D01*
X134236898Y-99596121D01*
X134261216Y-99642736D01*
X134279828Y-99678948D01*
X134293298Y-99705879D01*
X134302193Y-99724648D01*
X134307077Y-99736375D01*
X134308517Y-99742180D01*
X134308222Y-99743129D01*
X134300423Y-99740900D01*
X134283309Y-99731441D01*
X134260248Y-99716653D01*
X134254695Y-99712863D01*
X134226835Y-99693632D01*
X134191434Y-99669183D01*
X134153802Y-99643182D01*
X134130129Y-99626821D01*
X134098990Y-99604397D01*
X134071753Y-99583131D01*
X134051612Y-99565619D01*
X134042385Y-99555513D01*
X134031477Y-99543147D01*
X134011144Y-99523784D01*
X133984272Y-99500053D01*
X133953742Y-99474586D01*
X133953054Y-99474029D01*
X133905706Y-99433187D01*
X133869198Y-99395641D01*
X133840247Y-99358003D01*
X133839348Y-99356669D01*
X133821113Y-99330333D01*
X133804795Y-99309934D01*
X133787435Y-99293144D01*
X133766074Y-99277639D01*
X133737751Y-99261092D01*
X133699507Y-99241179D01*
X133679689Y-99231209D01*
X133599606Y-99191109D01*
X133599606Y-99130318D01*
X133591922Y-99046238D01*
X133568818Y-98964393D01*
X133556266Y-98934432D01*
X133545533Y-98906326D01*
X133538578Y-98879280D01*
X133537102Y-98865817D01*
X133530925Y-98827726D01*
X133512006Y-98784650D01*
X133490585Y-98750343D01*
X133466639Y-98715538D01*
X133495777Y-98613530D01*
X133507025Y-98576258D01*
X133517575Y-98545091D01*
X133526410Y-98522778D01*
X133532511Y-98512068D01*
X133533561Y-98511522D01*
X133542237Y-98516822D01*
X133559029Y-98531170D01*
X133581338Y-98552237D01*
X133601407Y-98572357D01*
X133633496Y-98607156D01*
X133654740Y-98634829D01*
X133666790Y-98657631D01*
X133669129Y-98664836D01*
X133681477Y-98695927D01*
X133702096Y-98732797D01*
X133727823Y-98770578D01*
X133755493Y-98804399D01*
X133768537Y-98817799D01*
X133807258Y-98849157D01*
X133857962Y-98881810D01*
X133917281Y-98914121D01*
X133981850Y-98944452D01*
X134048303Y-98971167D01*
X134113272Y-98992628D01*
X134145879Y-99001295D01*
X134175641Y-99009822D01*
X134200859Y-99019509D01*
X134216238Y-99028311D01*
X134216555Y-99028598D01*
X134226875Y-99039519D01*
X134244870Y-99059867D01*
X134268263Y-99087021D01*
X134294779Y-99118359D01*
X134303251Y-99128481D01*
X134329121Y-99158850D01*
X134351588Y-99184051D01*
X134368748Y-99202037D01*
X134378696Y-99210762D01*
X134380220Y-99211206D01*
X134380912Y-99202752D01*
X134379163Y-99181836D01*
X134375306Y-99151371D01*
X134369675Y-99114274D01*
X134367961Y-99103905D01*
X134359619Y-99053931D01*
X134354000Y-99016979D01*
X134351349Y-98990642D01*
X134351911Y-98972515D01*
X134355928Y-98960192D01*
X134363645Y-98951265D01*
X134375306Y-98943330D01*
X134384802Y-98937747D01*
X134412969Y-98916124D01*
X134443054Y-98884690D01*
X134471065Y-98848099D01*
X134492359Y-98812322D01*
X134507456Y-98766861D01*
X134509372Y-98716710D01*
X134497964Y-98661207D01*
X134473090Y-98599690D01*
X134434606Y-98531499D01*
X134430383Y-98524877D01*
X134409778Y-98493460D01*
X134391968Y-98467442D01*
X134378728Y-98449336D01*
X134371835Y-98441656D01*
X134371532Y-98441555D01*
X134362403Y-98447672D01*
X134348573Y-98464612D01*
X134332052Y-98489087D01*
X134314848Y-98517808D01*
X134298972Y-98547486D01*
X134286430Y-98574831D01*
X134281063Y-98589652D01*
X134272414Y-98614626D01*
X134264465Y-98631886D01*
X134258894Y-98637813D01*
X134258768Y-98637773D01*
X134251714Y-98629628D01*
X134239388Y-98610133D01*
X134223228Y-98582049D01*
X134204671Y-98548137D01*
X134185154Y-98511160D01*
X134166114Y-98473879D01*
X134148987Y-98439056D01*
X134135210Y-98409453D01*
X134126221Y-98387831D01*
X134123412Y-98377616D01*
X134125774Y-98362381D01*
X134132452Y-98336145D01*
X134142422Y-98302593D01*
X134154641Y-98265455D01*
X134186207Y-98173910D01*
X134174174Y-98132516D01*
X134165035Y-98098005D01*
X134162540Y-98073941D01*
X134168164Y-98056024D01*
X134183382Y-98039954D01*
X134209671Y-98021430D01*
X134213060Y-98019216D01*
X134246736Y-97994629D01*
X134279666Y-97965976D01*
X134308984Y-97936229D01*
X134331827Y-97908360D01*
X134345330Y-97885342D01*
X134347051Y-97880158D01*
X134347976Y-97865279D01*
X134347035Y-97838238D01*
X134344438Y-97802359D01*
X134340397Y-97760968D01*
X134338247Y-97742121D01*
X134324258Y-97624749D01*
X134391963Y-97452863D01*
X134416753Y-97391945D01*
X134446358Y-97322413D01*
X134478446Y-97249548D01*
X134510684Y-97178633D01*
X134540741Y-97114948D01*
X134545483Y-97105185D01*
X134575778Y-97042294D01*
X134599380Y-96991268D01*
X134617062Y-96950250D01*
X134629598Y-96917380D01*
X134637763Y-96890797D01*
X134641258Y-96875119D01*
X134651218Y-96820844D01*
X134672896Y-96849265D01*
G37*
D12*
%TO.C,CBAT1..7*%
X126455000Y-102181252D02*
X126455000Y-101658748D01*
X127925000Y-102181252D02*
X127925000Y-101658748D01*
%TO.C,CBAT1..4*%
X95978748Y-105275000D02*
X96501252Y-105275000D01*
X95978748Y-106745000D02*
X96501252Y-106745000D01*
%TO.C,CBAT1..1*%
X95948748Y-101175000D02*
X96471252Y-101175000D01*
X95948748Y-102645000D02*
X96471252Y-102645000D01*
%TO.C,CIN1..5*%
X122455580Y-100780000D02*
X122174420Y-100780000D01*
X122455580Y-101800000D02*
X122174420Y-101800000D01*
%TO.C,RNTC2*%
X125577500Y-106672742D02*
X125577500Y-107147258D01*
X126622500Y-106672742D02*
X126622500Y-107147258D01*
%TO.C,Q3*%
X103790000Y-111880000D02*
X103790000Y-110030000D01*
X103790000Y-111880000D02*
X104680000Y-111880000D01*
X106020000Y-111865000D02*
X106910000Y-111865000D01*
X106910000Y-111865000D02*
X106910000Y-110015000D01*
X103780000Y-109640000D02*
X103450000Y-109880000D01*
X103450000Y-109400000D01*
X103780000Y-109640000D01*
G36*
X103780000Y-109640000D02*
G01*
X103450000Y-109880000D01*
X103450000Y-109400000D01*
X103780000Y-109640000D01*
G37*
%TO.C,Q1*%
X128130000Y-105400000D02*
X128130000Y-106290000D01*
X128130000Y-105400000D02*
X129980000Y-105400000D01*
X128145000Y-107630000D02*
X128145000Y-108520000D01*
X128145000Y-108520000D02*
X129995000Y-108520000D01*
X130370000Y-105390000D02*
X130130000Y-105060000D01*
X130610000Y-105060000D01*
X130370000Y-105390000D01*
G36*
X130370000Y-105390000D02*
G01*
X130130000Y-105060000D01*
X130610000Y-105060000D01*
X130370000Y-105390000D01*
G37*
%TO.C,CBAT1..5*%
X95978748Y-107365000D02*
X96501252Y-107365000D01*
X95978748Y-108835000D02*
X96501252Y-108835000D01*
%TO.C,Q4*%
X123280000Y-110310000D02*
X123280000Y-111200000D01*
X123280000Y-110310000D02*
X125130000Y-110310000D01*
X123295000Y-112540000D02*
X123295000Y-113430000D01*
X123295000Y-113430000D02*
X125145000Y-113430000D01*
X125520000Y-110300000D02*
X125280000Y-109970000D01*
X125760000Y-109970000D01*
X125520000Y-110300000D01*
G36*
X125520000Y-110300000D02*
G01*
X125280000Y-109970000D01*
X125760000Y-109970000D01*
X125520000Y-110300000D01*
G37*
%TO.C,Q2*%
X132930000Y-111535000D02*
X132930000Y-113385000D01*
X133820000Y-111535000D02*
X132930000Y-111535000D01*
X136050000Y-111520000D02*
X135160000Y-111520000D01*
X136050000Y-111520000D02*
X136050000Y-113370000D01*
X136390000Y-114000000D02*
X136060000Y-113760000D01*
X136390000Y-113520000D01*
X136390000Y-114000000D01*
G36*
X136390000Y-114000000D02*
G01*
X136060000Y-113760000D01*
X136390000Y-113520000D01*
X136390000Y-114000000D01*
G37*
%TO.C,CBAT1..6*%
X124405000Y-102181252D02*
X124405000Y-101658748D01*
X125875000Y-102181252D02*
X125875000Y-101658748D01*
%TO.C,CBAT1..9*%
X130575000Y-101668748D02*
X130575000Y-102191252D01*
X132045000Y-101668748D02*
X132045000Y-102191252D01*
%TO.C,CIN1..6*%
X121171252Y-98775000D02*
X120648748Y-98775000D01*
X121171252Y-100245000D02*
X120648748Y-100245000D01*
%TO.C,CBAT1..8*%
X128525000Y-102181252D02*
X128525000Y-101658748D01*
X129995000Y-102181252D02*
X129995000Y-101658748D01*
%TO.C,RNTC1*%
X120877064Y-102310000D02*
X119422936Y-102310000D01*
X120877064Y-104130000D02*
X119422936Y-104130000D01*
%TO.C,CBAT1..3*%
X95968748Y-103215000D02*
X96491252Y-103215000D01*
X95968748Y-104685000D02*
X96491252Y-104685000D01*
%TD*%
M02*
