%TF.GenerationSoftware,KiCad,Pcbnew,9.0.3*%
%TF.CreationDate,2025-10-08T16:43:24+01:00*%
%TF.ProjectId,power_bank,706f7765-725f-4626-916e-6b2e6b696361,rev?*%
%TF.SameCoordinates,Original*%
%TF.FileFunction,Copper,L3,Inr*%
%TF.FilePolarity,Positive*%
%FSLAX46Y46*%
G04 Gerber Fmt 4.6, Leading zero omitted, Abs format (unit mm)*
G04 Created by KiCad (PCBNEW 9.0.3) date 2025-10-08 16:43:24*
%MOMM*%
%LPD*%
G01*
G04 APERTURE LIST*
%TA.AperFunction,ComponentPad*%
%ADD10C,3.800000*%
%TD*%
%TA.AperFunction,HeatsinkPad*%
%ADD11O,1.800000X1.150000*%
%TD*%
%TA.AperFunction,HeatsinkPad*%
%ADD12O,2.000000X1.450000*%
%TD*%
%TA.AperFunction,ComponentPad*%
%ADD13R,1.200000X1.200000*%
%TD*%
%TA.AperFunction,ComponentPad*%
%ADD14C,1.200000*%
%TD*%
%TA.AperFunction,HeatsinkPad*%
%ADD15O,1.900000X3.500000*%
%TD*%
%TA.AperFunction,ComponentPad*%
%ADD16R,1.800000X1.800000*%
%TD*%
%TA.AperFunction,ComponentPad*%
%ADD17C,1.800000*%
%TD*%
%TA.AperFunction,HeatsinkPad*%
%ADD18O,1.000000X2.100000*%
%TD*%
%TA.AperFunction,HeatsinkPad*%
%ADD19O,1.000000X1.600000*%
%TD*%
%TA.AperFunction,ViaPad*%
%ADD20C,1.000000*%
%TD*%
%TA.AperFunction,ViaPad*%
%ADD21C,0.600000*%
%TD*%
%TA.AperFunction,ViaPad*%
%ADD22C,1.200000*%
%TD*%
%TA.AperFunction,ViaPad*%
%ADD23C,0.500000*%
%TD*%
%TA.AperFunction,Conductor*%
%ADD24C,0.600000*%
%TD*%
%TA.AperFunction,Conductor*%
%ADD25C,0.200000*%
%TD*%
%TA.AperFunction,Conductor*%
%ADD26C,0.500000*%
%TD*%
%TA.AperFunction,Conductor*%
%ADD27C,0.800000*%
%TD*%
G04 APERTURE END LIST*
D10*
%TO.N,GND*%
%TO.C,H2*%
X93530000Y-117160000D03*
%TD*%
D11*
%TO.N,GND*%
%TO.C,J4*%
X143185000Y-113510000D03*
D12*
X139385000Y-113360000D03*
X139385000Y-105910000D03*
D11*
X143185000Y-105760000D03*
%TD*%
D13*
%TO.N,VSYS*%
%TO.C,C1*%
X124180000Y-104490000D03*
D14*
%TO.N,GND*%
X129180000Y-104490000D03*
%TD*%
D10*
%TO.N,GND*%
%TO.C,H1*%
X140640000Y-117310000D03*
%TD*%
D15*
%TO.N,GND*%
%TO.C,J1*%
X109020000Y-117070000D03*
X97620000Y-117070000D03*
%TD*%
%TO.N,GND*%
%TO.C,J2*%
X136720000Y-116920000D03*
X125320000Y-116920000D03*
%TD*%
D16*
%TO.N,GND*%
%TO.C,D3*%
X141710000Y-97330000D03*
D17*
%TO.N,Net-(D3-A)*%
X139170000Y-97330000D03*
%TD*%
D18*
%TO.N,GND*%
%TO.C,J5*%
X112210000Y-114675000D03*
D19*
X112210000Y-118855000D03*
D18*
X120850000Y-114675000D03*
D19*
X120850000Y-118855000D03*
%TD*%
D20*
%TO.N,VSYS*%
X111340000Y-103300000D03*
X120340000Y-103260000D03*
D21*
%TO.N,GND*%
X99500000Y-118810000D03*
X99620000Y-117600000D03*
X103930000Y-111001000D03*
X97130000Y-100830000D03*
X127520000Y-115670000D03*
X120750000Y-107160000D03*
X141970000Y-102960000D03*
X107760000Y-103190000D03*
X136410000Y-105380000D03*
X129270000Y-100280000D03*
X99820000Y-115840000D03*
%TO.N,VBAT+*%
X123345000Y-99385000D03*
D22*
X92900000Y-102430000D03*
D21*
X95540000Y-110100000D03*
D22*
%TO.N,/POWER_SOC/ledx*%
X101870000Y-107970000D03*
X113290000Y-108460000D03*
D20*
%TO.N,VMID*%
X136960000Y-113920000D03*
D22*
X122980000Y-107520000D03*
D20*
X116341000Y-105891000D03*
X108990000Y-112300000D03*
D22*
X123460000Y-102800000D03*
D20*
X117460000Y-111210000D03*
X122890000Y-110730000D03*
D21*
%TO.N,VBUS*%
X127760000Y-110640000D03*
X119590000Y-96300000D03*
X119660000Y-109929000D03*
D23*
%TO.N,LED3*%
X112870000Y-107440000D03*
X108360000Y-106100000D03*
X108100000Y-98860000D03*
X108380000Y-107270000D03*
D21*
%TO.N,DMA1*%
X113760000Y-96571000D03*
X100750000Y-110920000D03*
X100750000Y-110920000D03*
X100750000Y-110920000D03*
%TO.N,DPA1*%
X112941002Y-96031000D03*
X98600000Y-111000000D03*
%TO.N,DMA2*%
X112600000Y-97900000D03*
X132120000Y-111510000D03*
%TO.N,DPA2*%
X111840000Y-98470000D03*
X111840000Y-98470000D03*
X130230000Y-111630000D03*
X111840000Y-98470000D03*
%TO.N,DPC*%
X116610000Y-111840000D03*
X106370000Y-101040000D03*
X106340000Y-107360000D03*
X106340000Y-105920000D03*
%TO.N,DMC*%
X111260000Y-100483775D03*
X115670000Y-111910000D03*
%TO.N,CC1*%
X111440000Y-99197862D03*
X115640000Y-110690000D03*
%TO.N,CC2*%
X105600000Y-100170000D03*
X105539997Y-105920000D03*
X108930000Y-110960000D03*
X105240000Y-107280000D03*
%TO.N,DMB*%
X131850000Y-108410000D03*
X112660000Y-109489000D03*
X122330000Y-108970000D03*
X134470000Y-108460000D03*
X109140000Y-108970000D03*
X140850000Y-110440000D03*
%TO.N,DPB*%
X140580000Y-109570000D03*
X110540000Y-102080000D03*
%TO.N,VING*%
X120760000Y-96540000D03*
X125910000Y-104690000D03*
%TO.N,VOUT2G*%
X116552851Y-95997809D03*
X131130000Y-111940000D03*
%TO.N,VOUT1G*%
X115740000Y-96020000D03*
X104120000Y-107410000D03*
%TO.N,VBUSG*%
X118740000Y-96430000D03*
X125210000Y-114210000D03*
X123210000Y-114400000D03*
D23*
%TO.N,LED1*%
X113030000Y-105930000D03*
X113030000Y-105930000D03*
X113030000Y-105930000D03*
X110010000Y-98550000D03*
%TO.N,LED2*%
X112980000Y-106660000D03*
X101900000Y-98680000D03*
D21*
%TO.N,VIN*%
X131010000Y-104500000D03*
X121900000Y-96310000D03*
D20*
X131850000Y-106820000D03*
%TO.N,VOUT2*%
X134990000Y-116790000D03*
D21*
X131960000Y-96350000D03*
X134560000Y-112290000D03*
X130740000Y-109900000D03*
X117194972Y-96474972D03*
%TO.N,VOUT1*%
X114790000Y-96350000D03*
D20*
X105230000Y-109770000D03*
D21*
X102360000Y-109470000D03*
%TD*%
D24*
%TO.N,VSYS*%
X111340000Y-103300000D02*
X111650000Y-103300000D01*
X111790000Y-103160000D02*
X120240000Y-103160000D01*
X120240000Y-103160000D02*
X120340000Y-103260000D01*
X111650000Y-103300000D02*
X111790000Y-103160000D01*
D25*
%TO.N,VBAT+*%
X137780000Y-113490000D02*
X137780000Y-114440000D01*
X125359579Y-113100364D02*
X122408943Y-116051000D01*
X129451000Y-112519636D02*
X130011364Y-113080000D01*
X97041000Y-111601000D02*
X95540000Y-110100000D01*
X122408943Y-116051000D02*
X111041786Y-116051000D01*
X137780000Y-114440000D02*
X137419000Y-114801000D01*
X130660364Y-115131000D02*
X130079636Y-115131000D01*
X137419000Y-114801000D02*
X130990364Y-114801000D01*
X130079636Y-115131000D02*
X128049000Y-113100364D01*
X111041786Y-116051000D02*
X110660393Y-115669607D01*
X128049000Y-113100364D02*
X125359579Y-113100364D01*
X123345000Y-99385000D02*
X125201364Y-101241364D01*
X137410000Y-113080000D02*
X137410000Y-113120000D01*
X137410000Y-113120000D02*
X137780000Y-113490000D01*
X106591786Y-111601000D02*
X97041000Y-111601000D01*
X125201364Y-105190000D02*
X129451000Y-109439636D01*
X110660393Y-115669607D02*
X106591786Y-111601000D01*
X130990364Y-114801000D02*
X130660364Y-115131000D01*
X129451000Y-109439636D02*
X129451000Y-112519636D01*
X130011364Y-113080000D02*
X137410000Y-113080000D01*
X125201364Y-101241364D02*
X125201364Y-105190000D01*
D26*
%TO.N,/POWER_SOC/ledx*%
X108828925Y-108219000D02*
X108587925Y-108460000D01*
X108587925Y-108460000D02*
X102360000Y-108460000D01*
X109692075Y-108460000D02*
X109451075Y-108219000D01*
X109451075Y-108219000D02*
X108828925Y-108219000D01*
X102360000Y-108460000D02*
X101870000Y-107970000D01*
X113290000Y-108460000D02*
X109692075Y-108460000D01*
D27*
%TO.N,VMID*%
X136960000Y-113920000D02*
X136500000Y-113920000D01*
X128750000Y-109730000D02*
X124911000Y-105891000D01*
X117460000Y-111210000D02*
X117460000Y-111080000D01*
X136500000Y-113920000D02*
X136320000Y-114100000D01*
X115266793Y-109789000D02*
X112755793Y-112300000D01*
X112755793Y-112300000D02*
X108990000Y-112300000D01*
X130700000Y-114100000D02*
X130370000Y-114430000D01*
X128750000Y-112810000D02*
X128750000Y-109730000D01*
X116169000Y-109789000D02*
X115266793Y-109789000D01*
X124911000Y-105891000D02*
X116341000Y-105891000D01*
X136320000Y-114100000D02*
X130700000Y-114100000D01*
X130370000Y-114430000D02*
X128750000Y-112810000D01*
X117460000Y-111080000D02*
X116169000Y-109789000D01*
D25*
%TO.N,VBUS*%
X118819943Y-97200000D02*
X119590000Y-96429943D01*
X119299000Y-109929000D02*
X119200000Y-109830000D01*
X117340000Y-102080000D02*
X117340000Y-98390000D01*
X123221786Y-109929000D02*
X123422786Y-110130000D01*
X123422786Y-110130000D02*
X127100000Y-110130000D01*
X110291057Y-101479000D02*
X110821786Y-101479000D01*
X109939000Y-101831057D02*
X110291057Y-101479000D01*
X119590000Y-96429943D02*
X119590000Y-96300000D01*
X127760000Y-110750000D02*
X127740000Y-110770000D01*
X109939000Y-103629000D02*
X109939000Y-101831057D01*
X119200000Y-109830000D02*
X119147214Y-109830000D01*
X119147214Y-109830000D02*
X114276214Y-104959000D01*
X127610000Y-110640000D02*
X127760000Y-110640000D01*
X111269000Y-104959000D02*
X109939000Y-103629000D01*
X118530000Y-97200000D02*
X118819943Y-97200000D01*
X111422786Y-102080000D02*
X117340000Y-102080000D01*
X127100000Y-110130000D02*
X127610000Y-110640000D01*
X127760000Y-110640000D02*
X127760000Y-110750000D01*
X119660000Y-109929000D02*
X123221786Y-109929000D01*
X119660000Y-109929000D02*
X119299000Y-109929000D01*
X117340000Y-98390000D02*
X118530000Y-97200000D01*
X110821786Y-101479000D02*
X111422786Y-102080000D01*
X114276214Y-104959000D02*
X111269000Y-104959000D01*
%TO.N,VING*%
X125910000Y-100380000D02*
X125910000Y-104690000D01*
X121190000Y-96540000D02*
X122420000Y-97770000D01*
X125230000Y-99700000D02*
X125910000Y-100380000D01*
X120760000Y-96540000D02*
X121190000Y-96540000D01*
X123300000Y-97770000D02*
X125230000Y-99700000D01*
X122420000Y-97770000D02*
X123300000Y-97770000D01*
%TO.N,VOUT2G*%
X131130000Y-111680057D02*
X131130000Y-111940000D01*
X131611000Y-105926214D02*
X130139000Y-107398214D01*
X116552851Y-95997809D02*
X116552851Y-95885455D01*
X130139000Y-107398214D02*
X130139000Y-110689057D01*
X130139000Y-110689057D02*
X131130000Y-111680057D01*
X118470057Y-95850000D02*
X118491057Y-95829000D01*
X119009943Y-95850000D02*
X119190057Y-95850000D01*
X116552851Y-95885455D02*
X116588306Y-95850000D01*
X131611000Y-97441000D02*
X131611000Y-105926214D01*
X116588306Y-95850000D02*
X118470057Y-95850000D01*
X118491057Y-95829000D02*
X118988943Y-95829000D01*
X119190057Y-95850000D02*
X119341057Y-95699000D01*
X129869000Y-95699000D02*
X131611000Y-97441000D01*
X119341057Y-95699000D02*
X129869000Y-95699000D01*
X118988943Y-95829000D02*
X119009943Y-95850000D01*
%TO.N,VOUT1G*%
X104110000Y-100410000D02*
X104110000Y-107220000D01*
X104110000Y-107400000D02*
X104120000Y-107410000D01*
X106078805Y-99798862D02*
X105848943Y-99569000D01*
X104611000Y-99569000D02*
X103940000Y-100240000D01*
X115740000Y-96610000D02*
X112551138Y-99798862D01*
X104110000Y-107220000D02*
X104110000Y-107400000D01*
X112551138Y-99798862D02*
X106078805Y-99798862D01*
X105848943Y-99569000D02*
X104611000Y-99569000D01*
X115740000Y-96020000D02*
X115740000Y-96610000D01*
X103940000Y-100240000D02*
X104110000Y-100410000D01*
%TO.N,VBUSG*%
X116650000Y-100780000D02*
X116345225Y-101084775D01*
X116810000Y-100010000D02*
X116820000Y-100020000D01*
X116820000Y-100670000D02*
X116710000Y-100780000D01*
X116810000Y-97800000D02*
X116810000Y-100010000D01*
X116710000Y-100780000D02*
X116650000Y-100780000D01*
X113239232Y-105360000D02*
X114510000Y-106630768D01*
X122800000Y-114400000D02*
X123210000Y-114400000D01*
X110730000Y-105360000D02*
X113239232Y-105360000D01*
X116820000Y-100020000D02*
X116820000Y-100670000D01*
X114510000Y-108200000D02*
X116600000Y-108200000D01*
X110283140Y-100356859D02*
X109200000Y-101440000D01*
X116345225Y-101084775D02*
X111011056Y-101084775D01*
X118489000Y-96681000D02*
X117929000Y-96681000D01*
X111011056Y-101084775D02*
X110283140Y-100356859D01*
X109200000Y-101440000D02*
X109200000Y-103830000D01*
X117929000Y-96681000D02*
X116810000Y-97800000D01*
X118740000Y-96430000D02*
X118489000Y-96681000D01*
X109200000Y-103830000D02*
X110730000Y-105360000D01*
X116600000Y-108200000D02*
X122800000Y-114400000D01*
X114510000Y-106630768D02*
X114510000Y-108200000D01*
%TO.N,VIN*%
X123560000Y-96300000D02*
X131030000Y-103770000D01*
X131010000Y-103790000D02*
X131010000Y-104500000D01*
X121910000Y-96300000D02*
X123040000Y-96300000D01*
X121900000Y-96310000D02*
X121910000Y-96300000D01*
X123040000Y-96300000D02*
X123560000Y-96300000D01*
X131030000Y-103770000D02*
X131010000Y-103790000D01*
%TO.N,VOUT2*%
X131209943Y-109900000D02*
X130740000Y-109900000D01*
X131960000Y-96350000D02*
X132651000Y-97041000D01*
X132651000Y-108458943D02*
X131209943Y-109900000D01*
X132651000Y-97041000D02*
X132651000Y-108458943D01*
%TO.N,VOUT1*%
X102095793Y-109470000D02*
X102360000Y-109470000D01*
X103480000Y-98540000D02*
X100969000Y-101051000D01*
X100969000Y-101051000D02*
X100969000Y-108343207D01*
X113881943Y-97299000D02*
X104721000Y-97299000D01*
X114790000Y-96390943D02*
X113881943Y-97299000D01*
X100969000Y-108343207D02*
X102095793Y-109470000D01*
X114790000Y-96350000D02*
X114790000Y-96390943D01*
X104721000Y-97299000D02*
X103480000Y-98540000D01*
%TD*%
%TA.AperFunction,NonConductor*%
G36*
X131415283Y-95549329D02*
G01*
X131461244Y-95601953D01*
X131471458Y-95671073D01*
X131442682Y-95734741D01*
X131436334Y-95741587D01*
X131338210Y-95839711D01*
X131250609Y-95970814D01*
X131250603Y-95970826D01*
X131245309Y-95983607D01*
X131201467Y-96038010D01*
X131135172Y-96060073D01*
X131067473Y-96042792D01*
X131043068Y-96023833D01*
X130762772Y-95743537D01*
X130729287Y-95682214D01*
X130734271Y-95612522D01*
X130776143Y-95556589D01*
X130841607Y-95532172D01*
X130849952Y-95531857D01*
X131348167Y-95529907D01*
X131415283Y-95549329D01*
G37*
%TD.AperFunction*%
%TA.AperFunction,NonConductor*%
G36*
X123268874Y-96903134D02*
G01*
X123278137Y-96901848D01*
X123301862Y-96912820D01*
X123326942Y-96920185D01*
X123339275Y-96930123D01*
X123341553Y-96931177D01*
X123342573Y-96932780D01*
X123347584Y-96936819D01*
X123368583Y-96957818D01*
X123402068Y-97019141D01*
X123397084Y-97088833D01*
X123355212Y-97144766D01*
X123289748Y-97169183D01*
X123280902Y-97169499D01*
X123213339Y-97169499D01*
X123213339Y-97169498D01*
X123213331Y-97169500D01*
X122720098Y-97169500D01*
X122653059Y-97149815D01*
X122632417Y-97133181D01*
X122611417Y-97112181D01*
X122577932Y-97050858D01*
X122582916Y-96981166D01*
X122624788Y-96925233D01*
X122690252Y-96900816D01*
X122699098Y-96900500D01*
X122960943Y-96900500D01*
X123259903Y-96900500D01*
X123268874Y-96903134D01*
G37*
%TD.AperFunction*%
%TA.AperFunction,NonConductor*%
G36*
X111036202Y-97902362D02*
G01*
X111046282Y-97901096D01*
X111069159Y-97912039D01*
X111093493Y-97919185D01*
X111100145Y-97926862D01*
X111109311Y-97931247D01*
X111122641Y-97952823D01*
X111139248Y-97971989D01*
X111140693Y-97982044D01*
X111146034Y-97990688D01*
X111145582Y-98016045D01*
X111149192Y-98041147D01*
X111144938Y-98052247D01*
X111144791Y-98060546D01*
X111133001Y-98085190D01*
X111133479Y-98085446D01*
X111130602Y-98090827D01*
X111070264Y-98236498D01*
X111070261Y-98236510D01*
X111039500Y-98391153D01*
X111039500Y-98436434D01*
X111037263Y-98444051D01*
X111038533Y-98451887D01*
X111027560Y-98477095D01*
X111019815Y-98503473D01*
X111013105Y-98510303D01*
X111010648Y-98515950D01*
X110984391Y-98539536D01*
X110952204Y-98561043D01*
X110885527Y-98581921D01*
X110818147Y-98563437D01*
X110771456Y-98511458D01*
X110763263Y-98481743D01*
X110761689Y-98482057D01*
X110731659Y-98331092D01*
X110731658Y-98331091D01*
X110731658Y-98331087D01*
X110728932Y-98324505D01*
X110675087Y-98194511D01*
X110675080Y-98194498D01*
X110606854Y-98092391D01*
X110585976Y-98025714D01*
X110604460Y-97958333D01*
X110656439Y-97911643D01*
X110709956Y-97899500D01*
X111026454Y-97899500D01*
X111036202Y-97902362D01*
G37*
%TD.AperFunction*%
%TA.AperFunction,NonConductor*%
G36*
X109377083Y-97919185D02*
G01*
X109422838Y-97971989D01*
X109432782Y-98041147D01*
X109413146Y-98092391D01*
X109344919Y-98194498D01*
X109344912Y-98194511D01*
X109288343Y-98331082D01*
X109288340Y-98331092D01*
X109259500Y-98476079D01*
X109259500Y-98476082D01*
X109259500Y-98623918D01*
X109259500Y-98623920D01*
X109259499Y-98623920D01*
X109288340Y-98768907D01*
X109288343Y-98768917D01*
X109344912Y-98905488D01*
X109344919Y-98905501D01*
X109411717Y-99005471D01*
X109432595Y-99072149D01*
X109414110Y-99139529D01*
X109362131Y-99186219D01*
X109308615Y-99198362D01*
X108948993Y-99198362D01*
X108881954Y-99178677D01*
X108836199Y-99125873D01*
X108826255Y-99056715D01*
X108827376Y-99050170D01*
X108850500Y-98933920D01*
X108850500Y-98786079D01*
X108821659Y-98641092D01*
X108821658Y-98641091D01*
X108821658Y-98641087D01*
X108814547Y-98623920D01*
X108765087Y-98504511D01*
X108765080Y-98504498D01*
X108682951Y-98381584D01*
X108682948Y-98381580D01*
X108578419Y-98277051D01*
X108578415Y-98277048D01*
X108455501Y-98194919D01*
X108455488Y-98194912D01*
X108318235Y-98138061D01*
X108263831Y-98094220D01*
X108241766Y-98027926D01*
X108259045Y-97960227D01*
X108310182Y-97912616D01*
X108365687Y-97899500D01*
X109310044Y-97899500D01*
X109377083Y-97919185D01*
G37*
%TD.AperFunction*%
%TA.AperFunction,NonConductor*%
G36*
X116401258Y-96810370D02*
G01*
X116401434Y-96810337D01*
X116433876Y-96823325D01*
X116466031Y-96836095D01*
X116466190Y-96836261D01*
X116466299Y-96836305D01*
X116468152Y-96838308D01*
X116490457Y-96861571D01*
X116491632Y-96863212D01*
X116573183Y-96985261D01*
X116593859Y-97005937D01*
X116599789Y-97014216D01*
X116622823Y-97080180D01*
X116606537Y-97148125D01*
X116586662Y-97174102D01*
X116441286Y-97319478D01*
X116329481Y-97431282D01*
X116329479Y-97431285D01*
X116279361Y-97518094D01*
X116279359Y-97518096D01*
X116250425Y-97568209D01*
X116250424Y-97568210D01*
X116234544Y-97627472D01*
X116209499Y-97720943D01*
X116209499Y-97720945D01*
X116209499Y-97889046D01*
X116209500Y-97889059D01*
X116209500Y-99930939D01*
X116209499Y-99930943D01*
X116209499Y-100089057D01*
X116218757Y-100123610D01*
X116219371Y-100137059D01*
X116218971Y-100138691D01*
X116219500Y-100142706D01*
X116219500Y-100309902D01*
X116199815Y-100376941D01*
X116183181Y-100397583D01*
X116169480Y-100411284D01*
X116169474Y-100411288D01*
X116132809Y-100447955D01*
X116071487Y-100481441D01*
X116045127Y-100484275D01*
X113014324Y-100484275D01*
X112993081Y-100478037D01*
X112970992Y-100476458D01*
X112960206Y-100468384D01*
X112947285Y-100464590D01*
X112932787Y-100447858D01*
X112915058Y-100434587D01*
X112910349Y-100421964D01*
X112901530Y-100411786D01*
X112898378Y-100389870D01*
X112890640Y-100369123D01*
X112893503Y-100355960D01*
X112891586Y-100342628D01*
X112900784Y-100322485D01*
X112905491Y-100300850D01*
X112918761Y-100283121D01*
X112920611Y-100279072D01*
X112926641Y-100272595D01*
X113031658Y-100167578D01*
X113031659Y-100167575D01*
X116098506Y-97100728D01*
X116098511Y-97100724D01*
X116108714Y-97090520D01*
X116108716Y-97090520D01*
X116220520Y-96978716D01*
X116282261Y-96871775D01*
X116307488Y-96847721D01*
X116332525Y-96823717D01*
X116332699Y-96823682D01*
X116332827Y-96823561D01*
X116367065Y-96816961D01*
X116401095Y-96810306D01*
X116401258Y-96810370D01*
G37*
%TD.AperFunction*%
%TA.AperFunction,NonConductor*%
G36*
X129635942Y-96319185D02*
G01*
X129656584Y-96335819D01*
X130974181Y-97653416D01*
X131007666Y-97714739D01*
X131010500Y-97741097D01*
X131010500Y-102601903D01*
X130990815Y-102668942D01*
X130938011Y-102714697D01*
X130868853Y-102724641D01*
X130805297Y-102695616D01*
X130798819Y-102689584D01*
X129380172Y-101270937D01*
X129346687Y-101209614D01*
X129351671Y-101139922D01*
X129393543Y-101083989D01*
X129443659Y-101061639D01*
X129503497Y-101049737D01*
X129649179Y-100989394D01*
X129780289Y-100901789D01*
X129891789Y-100790289D01*
X129979394Y-100659179D01*
X130039737Y-100513497D01*
X130070500Y-100358842D01*
X130070500Y-100201158D01*
X130070500Y-100201155D01*
X130070499Y-100201153D01*
X130057750Y-100137059D01*
X130039737Y-100046503D01*
X129991871Y-99930943D01*
X129979397Y-99900827D01*
X129979390Y-99900814D01*
X129891789Y-99769711D01*
X129891786Y-99769707D01*
X129780292Y-99658213D01*
X129780288Y-99658210D01*
X129649185Y-99570609D01*
X129649172Y-99570602D01*
X129503501Y-99510264D01*
X129503489Y-99510261D01*
X129348845Y-99479500D01*
X129348842Y-99479500D01*
X129191158Y-99479500D01*
X129191155Y-99479500D01*
X129036510Y-99510261D01*
X129036498Y-99510264D01*
X128890827Y-99570602D01*
X128890814Y-99570609D01*
X128759711Y-99658210D01*
X128759707Y-99658213D01*
X128648213Y-99769707D01*
X128648210Y-99769711D01*
X128560609Y-99900814D01*
X128560602Y-99900827D01*
X128500264Y-100046498D01*
X128500262Y-100046507D01*
X128488360Y-100106339D01*
X128455974Y-100168249D01*
X128395258Y-100202823D01*
X128325489Y-100199082D01*
X128279062Y-100169827D01*
X124620416Y-96511181D01*
X124586931Y-96449858D01*
X124591915Y-96380166D01*
X124633787Y-96324233D01*
X124699251Y-96299816D01*
X124708097Y-96299500D01*
X129568903Y-96299500D01*
X129635942Y-96319185D01*
G37*
%TD.AperFunction*%
%TA.AperFunction,NonConductor*%
G36*
X120045547Y-96993345D02*
G01*
X120048386Y-96992886D01*
X120077975Y-97005766D01*
X120108111Y-97017309D01*
X120110615Y-97019974D01*
X120112449Y-97020773D01*
X120136031Y-97047027D01*
X120138211Y-97050289D01*
X120138214Y-97050293D01*
X120249707Y-97161786D01*
X120249711Y-97161789D01*
X120380814Y-97249390D01*
X120380827Y-97249397D01*
X120526498Y-97309735D01*
X120526503Y-97309737D01*
X120633263Y-97330973D01*
X120681153Y-97340499D01*
X120681156Y-97340500D01*
X120681158Y-97340500D01*
X120838844Y-97340500D01*
X120838845Y-97340499D01*
X120993497Y-97309737D01*
X120999678Y-97307176D01*
X121069144Y-97299703D01*
X121131626Y-97330973D01*
X121134816Y-97334051D01*
X122051284Y-98250520D01*
X122051286Y-98250521D01*
X122051290Y-98250524D01*
X122170883Y-98319570D01*
X122188216Y-98329577D01*
X122340943Y-98370501D01*
X122340945Y-98370501D01*
X122506654Y-98370501D01*
X122506670Y-98370500D01*
X122999903Y-98370500D01*
X123029343Y-98379144D01*
X123059330Y-98385668D01*
X123064345Y-98389422D01*
X123066942Y-98390185D01*
X123087584Y-98406819D01*
X123110757Y-98429992D01*
X123144242Y-98491315D01*
X123139258Y-98561007D01*
X123097386Y-98616940D01*
X123070529Y-98632234D01*
X122965824Y-98675604D01*
X122965814Y-98675609D01*
X122834711Y-98763210D01*
X122834707Y-98763213D01*
X122723213Y-98874707D01*
X122723210Y-98874711D01*
X122635609Y-99005814D01*
X122635602Y-99005827D01*
X122575264Y-99151498D01*
X122575261Y-99151510D01*
X122544500Y-99306153D01*
X122544500Y-99463846D01*
X122575261Y-99618489D01*
X122575264Y-99618501D01*
X122635602Y-99764172D01*
X122635609Y-99764185D01*
X122723210Y-99895288D01*
X122723213Y-99895292D01*
X122834707Y-100006786D01*
X122834711Y-100006789D01*
X122965814Y-100094390D01*
X122965827Y-100094397D01*
X123068824Y-100137059D01*
X123111503Y-100154737D01*
X123176044Y-100167575D01*
X123266849Y-100185638D01*
X123328760Y-100218023D01*
X123330339Y-100219574D01*
X124564545Y-101453780D01*
X124598030Y-101515103D01*
X124600864Y-101541461D01*
X124600864Y-102116349D01*
X124581179Y-102183388D01*
X124528375Y-102229143D01*
X124459217Y-102239087D01*
X124395661Y-102210062D01*
X124376546Y-102189235D01*
X124372298Y-102183388D01*
X124299414Y-102083072D01*
X124176928Y-101960586D01*
X124036788Y-101858768D01*
X123940558Y-101809737D01*
X123882447Y-101780128D01*
X123882446Y-101780127D01*
X123882445Y-101780127D01*
X123717701Y-101726598D01*
X123717699Y-101726597D01*
X123717698Y-101726597D01*
X123586271Y-101705781D01*
X123546611Y-101699500D01*
X123373389Y-101699500D01*
X123333728Y-101705781D01*
X123202302Y-101726597D01*
X123037552Y-101780128D01*
X122883211Y-101858768D01*
X122803256Y-101916859D01*
X122743072Y-101960586D01*
X122743070Y-101960588D01*
X122743069Y-101960588D01*
X122620588Y-102083069D01*
X122620588Y-102083070D01*
X122620586Y-102083072D01*
X122596409Y-102116349D01*
X122518768Y-102223211D01*
X122440128Y-102377552D01*
X122386597Y-102542302D01*
X122359500Y-102713389D01*
X122359500Y-102886610D01*
X122383611Y-103038846D01*
X122386598Y-103057701D01*
X122440127Y-103222445D01*
X122518768Y-103376788D01*
X122620586Y-103516928D01*
X122743072Y-103639414D01*
X122823519Y-103697862D01*
X122883213Y-103741233D01*
X123011794Y-103806747D01*
X123062590Y-103854721D01*
X123079500Y-103917232D01*
X123079500Y-104403389D01*
X123079501Y-104866500D01*
X123059817Y-104933539D01*
X123007013Y-104979294D01*
X122955501Y-104990500D01*
X116806098Y-104990500D01*
X116758646Y-104981061D01*
X116632839Y-104928950D01*
X116632829Y-104928947D01*
X116439543Y-104890500D01*
X116439541Y-104890500D01*
X116242459Y-104890500D01*
X116242457Y-104890500D01*
X116049170Y-104928947D01*
X116049160Y-104928950D01*
X115867092Y-105004364D01*
X115867079Y-105004371D01*
X115703218Y-105113860D01*
X115579444Y-105237634D01*
X115518121Y-105271118D01*
X115448429Y-105266134D01*
X115404082Y-105237633D01*
X114763804Y-104597355D01*
X114763802Y-104597352D01*
X114644931Y-104478481D01*
X114644930Y-104478480D01*
X114558118Y-104428360D01*
X114558118Y-104428359D01*
X114558114Y-104428358D01*
X114507999Y-104399423D01*
X114355271Y-104358499D01*
X114197157Y-104358499D01*
X114189561Y-104358499D01*
X114189545Y-104358500D01*
X111965469Y-104358500D01*
X111938960Y-104350716D01*
X111911699Y-104346235D01*
X111905910Y-104341011D01*
X111898430Y-104338815D01*
X111880342Y-104317940D01*
X111859826Y-104299428D01*
X111857779Y-104291902D01*
X111852675Y-104286011D01*
X111848743Y-104258668D01*
X111841494Y-104232006D01*
X111843840Y-104224570D01*
X111842731Y-104216853D01*
X111854208Y-104191721D01*
X111862523Y-104165376D01*
X111869350Y-104158563D01*
X111871756Y-104153297D01*
X111886168Y-104139173D01*
X111891174Y-104135008D01*
X111977782Y-104077139D01*
X112062111Y-103992809D01*
X112066482Y-103989173D01*
X112093545Y-103977465D01*
X112119425Y-103963334D01*
X112128455Y-103962363D01*
X112130608Y-103961432D01*
X112133181Y-103961854D01*
X112145783Y-103960500D01*
X119574217Y-103960500D01*
X119641256Y-103980185D01*
X119661899Y-103996820D01*
X119702214Y-104037136D01*
X119702218Y-104037139D01*
X119866079Y-104146628D01*
X119866092Y-104146635D01*
X120035616Y-104216853D01*
X120048165Y-104222051D01*
X120048169Y-104222051D01*
X120048170Y-104222052D01*
X120241456Y-104260500D01*
X120241459Y-104260500D01*
X120438543Y-104260500D01*
X120581788Y-104232006D01*
X120631835Y-104222051D01*
X120813914Y-104146632D01*
X120977782Y-104037139D01*
X121117139Y-103897782D01*
X121226632Y-103733914D01*
X121302051Y-103551835D01*
X121318304Y-103470127D01*
X121340500Y-103358543D01*
X121340500Y-103161456D01*
X121302052Y-102968170D01*
X121302051Y-102968169D01*
X121302051Y-102968165D01*
X121297223Y-102956510D01*
X121226635Y-102786092D01*
X121226628Y-102786079D01*
X121117139Y-102622218D01*
X121117136Y-102622214D01*
X120977785Y-102482863D01*
X120977781Y-102482860D01*
X120813920Y-102373371D01*
X120813907Y-102373364D01*
X120631839Y-102297950D01*
X120631829Y-102297947D01*
X120438543Y-102259500D01*
X120438541Y-102259500D01*
X120241459Y-102259500D01*
X120241457Y-102259500D01*
X120048170Y-102297947D01*
X120048160Y-102297950D01*
X119922354Y-102350061D01*
X119874902Y-102359500D01*
X118048391Y-102359500D01*
X117981352Y-102339815D01*
X117935597Y-102287011D01*
X117925653Y-102217853D01*
X117928613Y-102203417D01*
X117940500Y-102159057D01*
X117940500Y-98690097D01*
X117960185Y-98623058D01*
X117976819Y-98602416D01*
X118742415Y-97836820D01*
X118803738Y-97803335D01*
X118830096Y-97800501D01*
X118898997Y-97800501D01*
X118899000Y-97800501D01*
X119051728Y-97759577D01*
X119101847Y-97730639D01*
X119188659Y-97680520D01*
X119300463Y-97568716D01*
X119300463Y-97568714D01*
X119310671Y-97558507D01*
X119310673Y-97558504D01*
X119767003Y-97102173D01*
X119818690Y-97071194D01*
X119823481Y-97069739D01*
X119823497Y-97069737D01*
X119969179Y-97009394D01*
X119969189Y-97009386D01*
X119974463Y-97006568D01*
X119977277Y-97005981D01*
X119979416Y-97004061D01*
X120011274Y-96998899D01*
X120042864Y-96992318D01*
X120045547Y-96993345D01*
G37*
%TD.AperFunction*%
%TA.AperFunction,NonConductor*%
G36*
X113848773Y-106893886D02*
G01*
X113896384Y-106945023D01*
X113909500Y-107000528D01*
X113909500Y-107338181D01*
X113900142Y-107370048D01*
X113891696Y-107402200D01*
X113890334Y-107403449D01*
X113889815Y-107405220D01*
X113864716Y-107426968D01*
X113840226Y-107449451D01*
X113838405Y-107449766D01*
X113837011Y-107450975D01*
X113804130Y-107455702D01*
X113771381Y-107461375D01*
X113769216Y-107460722D01*
X113767853Y-107460919D01*
X113737245Y-107452407D01*
X113733154Y-107450679D01*
X113712445Y-107440127D01*
X113693955Y-107434119D01*
X113689076Y-107432058D01*
X113665973Y-107413171D01*
X113641337Y-107396326D01*
X113638806Y-107390962D01*
X113634982Y-107387836D01*
X113629779Y-107371832D01*
X113615714Y-107342023D01*
X113603607Y-107281158D01*
X113591658Y-107221087D01*
X113584896Y-107204764D01*
X113577428Y-107135295D01*
X113596354Y-107088424D01*
X113645084Y-107015495D01*
X113659444Y-106980827D01*
X113670939Y-106953076D01*
X113714779Y-106898672D01*
X113781074Y-106876607D01*
X113848773Y-106893886D01*
G37*
%TD.AperFunction*%
%TA.AperFunction,NonConductor*%
G36*
X115315703Y-106848170D02*
G01*
X115322181Y-106854202D01*
X115855798Y-107387819D01*
X115889283Y-107449142D01*
X115884299Y-107518834D01*
X115842427Y-107574767D01*
X115776963Y-107599184D01*
X115768117Y-107599500D01*
X115234500Y-107599500D01*
X115167461Y-107579815D01*
X115121706Y-107527011D01*
X115110500Y-107475500D01*
X115110500Y-106941883D01*
X115130185Y-106874844D01*
X115182989Y-106829089D01*
X115252147Y-106819145D01*
X115315703Y-106848170D01*
G37*
%TD.AperFunction*%
%TA.AperFunction,NonConductor*%
G36*
X109159079Y-100419047D02*
G01*
X109204834Y-100471851D01*
X109214778Y-100541009D01*
X109185753Y-100604565D01*
X109179721Y-100611043D01*
X108719481Y-101071282D01*
X108719475Y-101071290D01*
X108640426Y-101208209D01*
X108640423Y-101208214D01*
X108620101Y-101284058D01*
X108599499Y-101360943D01*
X108599499Y-101360944D01*
X108599499Y-101360945D01*
X108599500Y-101451789D01*
X108599500Y-102598435D01*
X108579815Y-102665474D01*
X108527011Y-102711229D01*
X108457853Y-102721173D01*
X108394297Y-102692148D01*
X108386241Y-102683873D01*
X108386097Y-102684018D01*
X108270292Y-102568213D01*
X108270288Y-102568210D01*
X108139185Y-102480609D01*
X108139172Y-102480602D01*
X107993501Y-102420264D01*
X107993489Y-102420261D01*
X107838845Y-102389500D01*
X107838842Y-102389500D01*
X107681158Y-102389500D01*
X107681155Y-102389500D01*
X107526510Y-102420261D01*
X107526498Y-102420264D01*
X107380827Y-102480602D01*
X107380814Y-102480609D01*
X107249711Y-102568210D01*
X107249707Y-102568213D01*
X107138213Y-102679707D01*
X107138210Y-102679711D01*
X107050609Y-102810814D01*
X107050602Y-102810827D01*
X106990264Y-102956498D01*
X106990261Y-102956510D01*
X106959500Y-103111153D01*
X106959500Y-103268846D01*
X106990261Y-103423489D01*
X106990264Y-103423501D01*
X107050602Y-103569172D01*
X107050609Y-103569185D01*
X107138210Y-103700288D01*
X107138213Y-103700292D01*
X107249707Y-103811786D01*
X107249711Y-103811789D01*
X107380814Y-103899390D01*
X107380827Y-103899397D01*
X107526498Y-103959735D01*
X107526503Y-103959737D01*
X107681153Y-103990499D01*
X107681156Y-103990500D01*
X107681158Y-103990500D01*
X107838844Y-103990500D01*
X107838845Y-103990499D01*
X107993497Y-103959737D01*
X108139179Y-103899394D01*
X108270289Y-103811789D01*
X108321579Y-103760499D01*
X108386097Y-103695982D01*
X108387602Y-103697487D01*
X108437365Y-103663574D01*
X108507209Y-103661688D01*
X108566986Y-103697862D01*
X108597716Y-103760611D01*
X108599499Y-103781565D01*
X108599499Y-103909054D01*
X108599498Y-103909054D01*
X108640423Y-104061786D01*
X108640424Y-104061787D01*
X108662775Y-104100500D01*
X108719480Y-104198716D01*
X108719482Y-104198718D01*
X108838349Y-104317585D01*
X108838354Y-104317589D01*
X110361284Y-105840520D01*
X110361286Y-105840521D01*
X110361290Y-105840524D01*
X110431557Y-105881092D01*
X110498216Y-105919577D01*
X110650943Y-105960501D01*
X110650945Y-105960501D01*
X110816654Y-105960501D01*
X110816670Y-105960500D01*
X112169100Y-105960500D01*
X112195576Y-105968274D01*
X112222813Y-105972737D01*
X112228629Y-105977979D01*
X112236139Y-105980185D01*
X112254207Y-106001037D01*
X112274710Y-106019519D01*
X112278424Y-106028985D01*
X112281894Y-106032989D01*
X112288739Y-106051905D01*
X112289874Y-106056072D01*
X112308342Y-106148913D01*
X112328287Y-106197066D01*
X112330356Y-106204659D01*
X112329818Y-106232041D01*
X112332746Y-106259273D01*
X112329108Y-106268285D01*
X112328986Y-106274515D01*
X112322977Y-106283473D01*
X112316858Y-106298633D01*
X112317789Y-106299131D01*
X112314914Y-106304508D01*
X112258342Y-106441086D01*
X112258340Y-106441092D01*
X112229500Y-106586079D01*
X112229500Y-106586082D01*
X112229500Y-106733918D01*
X112229500Y-106733920D01*
X112229499Y-106733920D01*
X112258340Y-106878906D01*
X112258342Y-106878913D01*
X112265104Y-106895239D01*
X112272570Y-106964708D01*
X112253644Y-107011577D01*
X112204918Y-107084500D01*
X112204912Y-107084511D01*
X112148343Y-107221082D01*
X112148340Y-107221092D01*
X112119500Y-107366079D01*
X112119500Y-107513922D01*
X112128926Y-107561309D01*
X112122699Y-107630900D01*
X112079836Y-107686078D01*
X112013946Y-107709322D01*
X112007309Y-107709500D01*
X110054305Y-107709500D01*
X110032242Y-107703021D01*
X110009330Y-107701056D01*
X109996068Y-107692399D01*
X109987266Y-107689815D01*
X109978596Y-107683704D01*
X109972270Y-107678827D01*
X109929491Y-107636048D01*
X109837629Y-107574669D01*
X109834144Y-107572340D01*
X109834141Y-107572338D01*
X109806575Y-107553919D01*
X109806563Y-107553912D01*
X109669992Y-107497343D01*
X109669982Y-107497340D01*
X109524995Y-107468500D01*
X109524993Y-107468500D01*
X109254500Y-107468500D01*
X109187461Y-107448815D01*
X109141706Y-107396011D01*
X109130500Y-107344500D01*
X109130500Y-107196079D01*
X109101659Y-107051092D01*
X109101658Y-107051091D01*
X109101658Y-107051087D01*
X109092413Y-107028768D01*
X109045087Y-106914511D01*
X109045080Y-106914498D01*
X108962951Y-106791584D01*
X108962948Y-106791580D01*
X108934048Y-106762680D01*
X108900563Y-106701357D01*
X108905547Y-106631665D01*
X108934047Y-106587319D01*
X108942951Y-106578416D01*
X109025084Y-106455495D01*
X109081658Y-106318913D01*
X109110500Y-106173918D01*
X109110500Y-106026082D01*
X109110500Y-106026079D01*
X109081659Y-105881092D01*
X109081658Y-105881091D01*
X109081658Y-105881087D01*
X109031165Y-105759185D01*
X109025087Y-105744511D01*
X109025080Y-105744498D01*
X108942951Y-105621584D01*
X108942948Y-105621580D01*
X108838419Y-105517051D01*
X108838415Y-105517048D01*
X108715501Y-105434919D01*
X108715488Y-105434912D01*
X108578917Y-105378343D01*
X108578907Y-105378340D01*
X108433920Y-105349500D01*
X108433918Y-105349500D01*
X108286082Y-105349500D01*
X108286080Y-105349500D01*
X108141092Y-105378340D01*
X108141082Y-105378343D01*
X108004511Y-105434912D01*
X108004498Y-105434919D01*
X107881584Y-105517048D01*
X107881580Y-105517051D01*
X107777051Y-105621580D01*
X107777048Y-105621584D01*
X107694919Y-105744498D01*
X107694912Y-105744511D01*
X107638343Y-105881082D01*
X107638340Y-105881092D01*
X107609500Y-106026079D01*
X107609500Y-106026082D01*
X107609500Y-106173918D01*
X107609500Y-106173920D01*
X107609499Y-106173920D01*
X107638340Y-106318907D01*
X107638343Y-106318917D01*
X107694912Y-106455488D01*
X107694919Y-106455501D01*
X107777048Y-106578415D01*
X107777051Y-106578419D01*
X107805951Y-106607319D01*
X107839436Y-106668642D01*
X107834452Y-106738334D01*
X107805955Y-106782678D01*
X107797046Y-106791586D01*
X107797046Y-106791587D01*
X107714919Y-106914498D01*
X107714912Y-106914511D01*
X107658343Y-107051082D01*
X107658340Y-107051092D01*
X107629500Y-107196079D01*
X107629500Y-107196082D01*
X107629500Y-107343918D01*
X107629500Y-107343920D01*
X107629499Y-107343920D01*
X107658340Y-107488907D01*
X107658343Y-107488917D01*
X107678694Y-107538048D01*
X107686163Y-107607517D01*
X107654888Y-107669996D01*
X107594799Y-107705648D01*
X107564133Y-107709500D01*
X107237757Y-107709500D01*
X107170718Y-107689815D01*
X107124963Y-107637011D01*
X107115019Y-107567853D01*
X107116140Y-107561308D01*
X107140500Y-107438844D01*
X107140500Y-107281155D01*
X107140499Y-107281153D01*
X107134913Y-107253069D01*
X107109737Y-107126503D01*
X107100965Y-107105325D01*
X107049397Y-106980827D01*
X107049390Y-106980814D01*
X106961789Y-106849711D01*
X106961786Y-106849707D01*
X106850295Y-106738216D01*
X106847419Y-106735856D01*
X106846316Y-106734237D01*
X106845982Y-106733903D01*
X106846045Y-106733839D01*
X106808083Y-106678111D01*
X106806210Y-106608267D01*
X106842396Y-106548497D01*
X106847419Y-106544144D01*
X106850281Y-106541793D01*
X106850289Y-106541789D01*
X106961789Y-106430289D01*
X107049394Y-106299179D01*
X107109737Y-106153497D01*
X107140500Y-105998842D01*
X107140500Y-105841158D01*
X107140500Y-105841155D01*
X107140499Y-105841153D01*
X107124192Y-105759172D01*
X107109737Y-105686503D01*
X107069972Y-105590500D01*
X107049397Y-105540827D01*
X107049390Y-105540814D01*
X106961789Y-105409711D01*
X106961786Y-105409707D01*
X106850292Y-105298213D01*
X106850288Y-105298210D01*
X106719185Y-105210609D01*
X106719172Y-105210602D01*
X106573501Y-105150264D01*
X106573489Y-105150261D01*
X106418845Y-105119500D01*
X106418842Y-105119500D01*
X106261158Y-105119500D01*
X106261155Y-105119500D01*
X106106510Y-105150261D01*
X106106498Y-105150264D01*
X105987450Y-105199575D01*
X105917980Y-105207044D01*
X105892546Y-105199575D01*
X105773498Y-105150264D01*
X105773486Y-105150261D01*
X105618842Y-105119500D01*
X105618839Y-105119500D01*
X105461155Y-105119500D01*
X105461152Y-105119500D01*
X105306507Y-105150261D01*
X105306495Y-105150264D01*
X105160824Y-105210602D01*
X105160811Y-105210609D01*
X105029708Y-105298210D01*
X105029704Y-105298213D01*
X104922181Y-105405737D01*
X104860858Y-105439222D01*
X104791166Y-105434238D01*
X104735233Y-105392366D01*
X104710816Y-105326902D01*
X104710500Y-105318056D01*
X104710500Y-100688405D01*
X104730185Y-100621366D01*
X104782989Y-100575611D01*
X104852147Y-100565667D01*
X104915703Y-100594692D01*
X104937602Y-100619514D01*
X104978210Y-100680288D01*
X104978213Y-100680292D01*
X105089707Y-100791786D01*
X105089711Y-100791789D01*
X105220814Y-100879390D01*
X105220827Y-100879397D01*
X105366498Y-100939735D01*
X105366503Y-100939737D01*
X105412291Y-100948844D01*
X105469691Y-100960263D01*
X105531602Y-100992648D01*
X105566176Y-101053364D01*
X105569500Y-101081880D01*
X105569500Y-101118846D01*
X105600261Y-101273489D01*
X105600264Y-101273501D01*
X105660602Y-101419172D01*
X105660609Y-101419185D01*
X105748210Y-101550288D01*
X105748213Y-101550292D01*
X105859707Y-101661786D01*
X105859711Y-101661789D01*
X105990814Y-101749390D01*
X105990827Y-101749397D01*
X106136498Y-101809735D01*
X106136503Y-101809737D01*
X106291153Y-101840499D01*
X106291156Y-101840500D01*
X106291158Y-101840500D01*
X106448844Y-101840500D01*
X106448845Y-101840499D01*
X106603497Y-101809737D01*
X106749179Y-101749394D01*
X106880289Y-101661789D01*
X106991789Y-101550289D01*
X107079394Y-101419179D01*
X107083144Y-101410127D01*
X107128869Y-101299735D01*
X107139737Y-101273497D01*
X107170500Y-101118842D01*
X107170500Y-100961158D01*
X107170500Y-100961155D01*
X107170499Y-100961153D01*
X107160094Y-100908844D01*
X107139737Y-100806503D01*
X107116812Y-100751157D01*
X107079397Y-100660827D01*
X107079390Y-100660814D01*
X107033579Y-100592253D01*
X107012701Y-100525575D01*
X107031186Y-100458195D01*
X107083164Y-100411505D01*
X107136681Y-100399362D01*
X109092040Y-100399362D01*
X109159079Y-100419047D01*
G37*
%TD.AperFunction*%
%TA.AperFunction,NonConductor*%
G36*
X107901352Y-97919185D02*
G01*
X107947107Y-97971989D01*
X107957051Y-98041147D01*
X107928026Y-98104703D01*
X107881765Y-98138061D01*
X107744511Y-98194912D01*
X107744498Y-98194919D01*
X107621584Y-98277048D01*
X107621580Y-98277051D01*
X107517051Y-98381580D01*
X107517048Y-98381584D01*
X107434919Y-98504498D01*
X107434912Y-98504511D01*
X107378343Y-98641082D01*
X107378340Y-98641092D01*
X107349500Y-98786079D01*
X107349500Y-98786082D01*
X107349500Y-98933918D01*
X107349500Y-98933920D01*
X107349499Y-98933920D01*
X107372624Y-99050170D01*
X107366397Y-99119762D01*
X107323534Y-99174939D01*
X107257645Y-99198184D01*
X107251007Y-99198362D01*
X106378903Y-99198362D01*
X106356850Y-99191886D01*
X106333947Y-99189926D01*
X106320674Y-99181263D01*
X106311864Y-99178677D01*
X106303210Y-99172579D01*
X106296878Y-99167699D01*
X106217659Y-99088480D01*
X106130847Y-99038360D01*
X106080728Y-99009423D01*
X105928000Y-98968499D01*
X105769886Y-98968499D01*
X105762290Y-98968499D01*
X105762274Y-98968500D01*
X104690057Y-98968500D01*
X104531942Y-98968500D01*
X104379215Y-99009423D01*
X104379214Y-99009423D01*
X104379212Y-99009424D01*
X104379209Y-99009425D01*
X104329096Y-99038359D01*
X104329095Y-99038360D01*
X104297303Y-99056715D01*
X104242285Y-99088479D01*
X104242282Y-99088481D01*
X104130478Y-99200286D01*
X103571284Y-99759481D01*
X103459483Y-99871281D01*
X103459481Y-99871284D01*
X103380423Y-100008214D01*
X103370162Y-100046510D01*
X103339499Y-100160943D01*
X103339499Y-100160945D01*
X103339499Y-100319054D01*
X103339498Y-100319054D01*
X103378495Y-100464590D01*
X103380423Y-100471785D01*
X103459481Y-100608716D01*
X103459483Y-100608718D01*
X103473181Y-100622416D01*
X103506666Y-100683739D01*
X103509500Y-100710097D01*
X103509500Y-106845200D01*
X103489815Y-106912239D01*
X103488602Y-106914091D01*
X103410609Y-107030814D01*
X103410602Y-107030827D01*
X103350264Y-107176498D01*
X103350261Y-107176510D01*
X103319500Y-107331153D01*
X103319500Y-107488846D01*
X103333914Y-107561309D01*
X103332036Y-107582292D01*
X103335035Y-107603147D01*
X103328984Y-107616394D01*
X103327687Y-107630900D01*
X103314762Y-107647538D01*
X103306010Y-107666703D01*
X103293758Y-107674576D01*
X103284824Y-107686078D01*
X103264955Y-107693087D01*
X103247232Y-107704477D01*
X103222648Y-107708011D01*
X103218934Y-107709322D01*
X103212297Y-107709500D01*
X103032584Y-107709500D01*
X102965545Y-107689815D01*
X102919790Y-107637011D01*
X102914653Y-107623819D01*
X102889873Y-107547555D01*
X102889871Y-107547552D01*
X102889871Y-107547550D01*
X102839887Y-107449451D01*
X102811232Y-107393212D01*
X102709414Y-107253072D01*
X102586928Y-107130586D01*
X102446788Y-107028768D01*
X102314931Y-106961584D01*
X102292447Y-106950128D01*
X102292446Y-106950127D01*
X102292445Y-106950127D01*
X102127701Y-106896598D01*
X102127699Y-106896597D01*
X102127698Y-106896597D01*
X101974504Y-106872334D01*
X101956611Y-106869500D01*
X101783389Y-106869500D01*
X101712896Y-106880664D01*
X101643603Y-106871709D01*
X101590152Y-106826712D01*
X101569513Y-106759960D01*
X101569500Y-106758191D01*
X101569500Y-101351097D01*
X101589185Y-101284058D01*
X101605819Y-101263416D01*
X104933416Y-97935819D01*
X104994739Y-97902334D01*
X105021097Y-97899500D01*
X107834313Y-97899500D01*
X107901352Y-97919185D01*
G37*
%TD.AperFunction*%
%TA.AperFunction,NonConductor*%
G36*
X126715703Y-100305384D02*
G01*
X126722181Y-100311416D01*
X129649692Y-103238927D01*
X129683177Y-103300250D01*
X129678193Y-103369942D01*
X129636321Y-103425875D01*
X129570857Y-103450292D01*
X129523694Y-103444539D01*
X129437701Y-103416598D01*
X129437699Y-103416597D01*
X129437698Y-103416597D01*
X129306271Y-103395781D01*
X129266611Y-103389500D01*
X129093389Y-103389500D01*
X129053728Y-103395781D01*
X128922302Y-103416597D01*
X128757552Y-103470128D01*
X128603211Y-103548768D01*
X128523256Y-103606859D01*
X128463072Y-103650586D01*
X128463070Y-103650588D01*
X128463069Y-103650588D01*
X128340588Y-103773069D01*
X128340588Y-103773070D01*
X128340586Y-103773072D01*
X128306583Y-103819873D01*
X128238768Y-103913211D01*
X128160128Y-104067552D01*
X128106597Y-104232302D01*
X128086610Y-104358499D01*
X128079500Y-104403389D01*
X128079500Y-104576611D01*
X128106598Y-104747701D01*
X128160127Y-104912445D01*
X128238768Y-105066788D01*
X128340586Y-105206928D01*
X128463072Y-105329414D01*
X128603212Y-105431232D01*
X128757555Y-105509873D01*
X128922299Y-105563402D01*
X129093389Y-105590500D01*
X129093390Y-105590500D01*
X129266610Y-105590500D01*
X129266611Y-105590500D01*
X129437701Y-105563402D01*
X129602445Y-105509873D01*
X129756788Y-105431232D01*
X129896928Y-105329414D01*
X130019414Y-105206928D01*
X130121232Y-105066788D01*
X130157023Y-104996542D01*
X130204995Y-104945748D01*
X130272816Y-104928952D01*
X130338951Y-104951488D01*
X130370608Y-104983946D01*
X130388208Y-105010286D01*
X130388213Y-105010292D01*
X130499707Y-105121786D01*
X130499711Y-105121789D01*
X130630814Y-105209390D01*
X130630827Y-105209397D01*
X130771578Y-105267697D01*
X130776503Y-105269737D01*
X130870645Y-105288463D01*
X130910691Y-105296429D01*
X130938814Y-105311139D01*
X130967703Y-105324333D01*
X130969560Y-105327222D01*
X130972602Y-105328814D01*
X130988308Y-105356396D01*
X131005477Y-105383111D01*
X131006137Y-105387705D01*
X131007176Y-105389529D01*
X131010500Y-105418046D01*
X131010500Y-105626116D01*
X130990815Y-105693155D01*
X130974181Y-105713797D01*
X129658481Y-107029496D01*
X129658475Y-107029504D01*
X129614702Y-107105323D01*
X129614702Y-107105324D01*
X129579423Y-107166429D01*
X129538499Y-107319157D01*
X129538499Y-107319159D01*
X129538499Y-107487260D01*
X129538500Y-107487273D01*
X129538500Y-108378539D01*
X129518815Y-108445578D01*
X129466011Y-108491333D01*
X129396853Y-108501277D01*
X129333297Y-108472252D01*
X129326819Y-108466220D01*
X126378523Y-105517924D01*
X126345038Y-105456601D01*
X126350022Y-105386909D01*
X126391894Y-105330976D01*
X126397303Y-105327147D01*
X126420289Y-105311789D01*
X126531789Y-105200289D01*
X126619394Y-105069179D01*
X126679737Y-104923497D01*
X126710500Y-104768842D01*
X126710500Y-104611158D01*
X126710500Y-104611155D01*
X126710499Y-104611153D01*
X126703628Y-104576610D01*
X126679737Y-104456503D01*
X126668080Y-104428360D01*
X126619397Y-104310827D01*
X126619390Y-104310814D01*
X126531398Y-104179125D01*
X126510520Y-104112447D01*
X126510500Y-104110234D01*
X126510500Y-100399097D01*
X126530185Y-100332058D01*
X126582989Y-100286303D01*
X126652147Y-100276359D01*
X126715703Y-100305384D01*
G37*
%TD.AperFunction*%
%TA.AperFunction,NonConductor*%
G36*
X131044097Y-107444865D02*
G01*
X131088444Y-107473366D01*
X131208432Y-107593354D01*
X131208435Y-107593356D01*
X131212218Y-107597139D01*
X131278225Y-107641243D01*
X131278819Y-107641651D01*
X131300435Y-107668174D01*
X131322357Y-107694405D01*
X131322456Y-107695193D01*
X131322959Y-107695811D01*
X131326802Y-107729799D01*
X131331065Y-107763730D01*
X131330721Y-107764447D01*
X131330811Y-107765239D01*
X131315669Y-107795909D01*
X131300911Y-107826758D01*
X131299928Y-107827794D01*
X131299882Y-107827889D01*
X131299782Y-107827948D01*
X131296344Y-107831577D01*
X131228210Y-107899711D01*
X131140609Y-108030814D01*
X131140602Y-108030827D01*
X131080264Y-108176498D01*
X131080261Y-108176510D01*
X131049500Y-108331153D01*
X131049500Y-108488846D01*
X131080261Y-108643489D01*
X131080264Y-108643501D01*
X131140602Y-108789172D01*
X131140609Y-108789185D01*
X131216617Y-108902938D01*
X131226104Y-108933238D01*
X131237199Y-108962982D01*
X131236468Y-108966338D01*
X131237495Y-108969615D01*
X131229096Y-109000229D01*
X131222348Y-109031255D01*
X131219566Y-109034970D01*
X131219011Y-109036996D01*
X131201197Y-109059509D01*
X131143063Y-109117644D01*
X131081740Y-109151130D01*
X131012048Y-109146146D01*
X131007929Y-109144525D01*
X130973498Y-109130263D01*
X130973490Y-109130261D01*
X130839308Y-109103570D01*
X130777397Y-109071185D01*
X130742823Y-109010469D01*
X130739500Y-108981953D01*
X130739500Y-107698310D01*
X130759185Y-107631271D01*
X130775815Y-107610633D01*
X130913082Y-107473365D01*
X130974405Y-107439881D01*
X131044097Y-107444865D01*
G37*
%TD.AperFunction*%
%TA.AperFunction,NonConductor*%
G36*
X119923061Y-106811185D02*
G01*
X119968816Y-106863989D01*
X119978760Y-106933147D01*
X119977639Y-106939691D01*
X119949500Y-107081153D01*
X119949500Y-107238846D01*
X119980261Y-107393489D01*
X119980264Y-107393501D01*
X120040602Y-107539172D01*
X120040609Y-107539185D01*
X120128210Y-107670288D01*
X120128213Y-107670292D01*
X120239707Y-107781786D01*
X120239711Y-107781789D01*
X120370814Y-107869390D01*
X120370827Y-107869397D01*
X120444013Y-107899711D01*
X120516503Y-107929737D01*
X120671153Y-107960499D01*
X120671156Y-107960500D01*
X120671158Y-107960500D01*
X120828844Y-107960500D01*
X120828845Y-107960499D01*
X120983497Y-107929737D01*
X121129179Y-107869394D01*
X121260289Y-107781789D01*
X121371789Y-107670289D01*
X121459394Y-107539179D01*
X121459863Y-107538048D01*
X121485037Y-107477271D01*
X121519737Y-107393497D01*
X121550500Y-107238842D01*
X121550500Y-107081158D01*
X121550500Y-107081155D01*
X121550499Y-107081153D01*
X121522361Y-106939691D01*
X121528588Y-106870100D01*
X121571451Y-106814922D01*
X121637341Y-106791678D01*
X121643978Y-106791500D01*
X121913719Y-106791500D01*
X121980758Y-106811185D01*
X122026513Y-106863989D01*
X122036457Y-106933147D01*
X122024204Y-106971794D01*
X121960129Y-107097549D01*
X121960127Y-107097554D01*
X121960127Y-107097555D01*
X121949394Y-107130588D01*
X121906597Y-107262302D01*
X121882702Y-107413171D01*
X121879500Y-107433389D01*
X121879500Y-107606611D01*
X121882491Y-107625495D01*
X121904498Y-107764447D01*
X121906598Y-107777701D01*
X121960127Y-107942445D01*
X122030632Y-108080821D01*
X122031465Y-108082454D01*
X122044361Y-108151123D01*
X122018085Y-108215864D01*
X121968436Y-108253309D01*
X121950823Y-108260604D01*
X121950814Y-108260609D01*
X121819711Y-108348210D01*
X121819707Y-108348213D01*
X121708213Y-108459707D01*
X121708210Y-108459711D01*
X121620609Y-108590814D01*
X121620602Y-108590827D01*
X121560264Y-108736498D01*
X121560261Y-108736510D01*
X121529500Y-108891153D01*
X121529500Y-109048846D01*
X121555650Y-109180309D01*
X121549423Y-109249900D01*
X121506560Y-109305078D01*
X121440670Y-109328322D01*
X121434033Y-109328500D01*
X120239766Y-109328500D01*
X120172727Y-109308815D01*
X120170875Y-109307602D01*
X120039185Y-109219609D01*
X120039172Y-109219602D01*
X119893501Y-109159264D01*
X119893489Y-109159261D01*
X119738845Y-109128500D01*
X119738842Y-109128500D01*
X119581158Y-109128500D01*
X119581156Y-109128500D01*
X119426505Y-109159262D01*
X119420671Y-109161032D01*
X119419863Y-109158370D01*
X119362246Y-109164534D01*
X119299783Y-109133226D01*
X119296646Y-109130197D01*
X117169630Y-107003181D01*
X117136145Y-106941858D01*
X117141129Y-106872166D01*
X117183001Y-106816233D01*
X117248465Y-106791816D01*
X117257311Y-106791500D01*
X119856022Y-106791500D01*
X119923061Y-106811185D01*
G37*
%TD.AperFunction*%
%TA.AperFunction,NonConductor*%
G36*
X124553677Y-106811185D02*
G01*
X124574319Y-106827819D01*
X127064319Y-109317819D01*
X127097804Y-109379142D01*
X127092820Y-109448834D01*
X127050948Y-109504767D01*
X126985484Y-109529184D01*
X126976638Y-109529500D01*
X123722884Y-109529500D01*
X123655845Y-109509815D01*
X123650248Y-109505999D01*
X123642215Y-109500193D01*
X123590502Y-109448480D01*
X123497393Y-109394724D01*
X123453571Y-109369423D01*
X123300843Y-109328499D01*
X123225967Y-109328499D01*
X123158928Y-109308814D01*
X123113173Y-109256010D01*
X123103229Y-109186852D01*
X123104350Y-109180307D01*
X123130500Y-109048844D01*
X123130500Y-108891155D01*
X123101516Y-108745446D01*
X123107743Y-108675854D01*
X123150606Y-108620677D01*
X123203733Y-108598781D01*
X123237701Y-108593402D01*
X123402445Y-108539873D01*
X123556788Y-108461232D01*
X123696928Y-108359414D01*
X123819414Y-108236928D01*
X123921232Y-108096788D01*
X123999873Y-107942445D01*
X124053402Y-107777701D01*
X124080500Y-107606611D01*
X124080500Y-107433389D01*
X124053402Y-107262299D01*
X123999873Y-107097555D01*
X123993221Y-107084500D01*
X123935796Y-106971794D01*
X123922900Y-106903125D01*
X123949177Y-106838385D01*
X124006283Y-106798128D01*
X124046281Y-106791500D01*
X124486638Y-106791500D01*
X124553677Y-106811185D01*
G37*
%TD.AperFunction*%
%TA.AperFunction,NonConductor*%
G36*
X114783597Y-108820185D02*
G01*
X114829352Y-108872989D01*
X114839296Y-108942147D01*
X114810271Y-109005703D01*
X114785451Y-109027599D01*
X114698797Y-109085501D01*
X114695786Y-109087512D01*
X114692756Y-109089537D01*
X112419112Y-111363181D01*
X112357789Y-111396666D01*
X112331431Y-111399500D01*
X109799987Y-111399500D01*
X109732948Y-111379815D01*
X109687193Y-111327011D01*
X109677249Y-111257853D01*
X109685426Y-111228048D01*
X109699735Y-111193501D01*
X109699737Y-111193497D01*
X109730500Y-111038842D01*
X109730500Y-110881158D01*
X109730500Y-110881155D01*
X109730499Y-110881153D01*
X109722542Y-110841153D01*
X109699737Y-110726503D01*
X109692694Y-110709500D01*
X109639397Y-110580827D01*
X109639390Y-110580814D01*
X109551789Y-110449711D01*
X109551786Y-110449707D01*
X109440292Y-110338213D01*
X109440288Y-110338210D01*
X109309185Y-110250609D01*
X109309172Y-110250602D01*
X109163501Y-110190264D01*
X109163489Y-110190261D01*
X109008845Y-110159500D01*
X109008842Y-110159500D01*
X108851158Y-110159500D01*
X108851155Y-110159500D01*
X108696510Y-110190261D01*
X108696498Y-110190264D01*
X108550827Y-110250602D01*
X108550814Y-110250609D01*
X108419711Y-110338210D01*
X108419707Y-110338213D01*
X108308213Y-110449707D01*
X108308210Y-110449711D01*
X108220609Y-110580814D01*
X108220602Y-110580827D01*
X108160264Y-110726498D01*
X108160261Y-110726510D01*
X108129500Y-110881153D01*
X108129500Y-111038846D01*
X108160261Y-111193489D01*
X108160264Y-111193501D01*
X108220602Y-111339172D01*
X108220609Y-111339185D01*
X108290357Y-111443569D01*
X108311235Y-111510246D01*
X108292751Y-111577627D01*
X108274937Y-111600141D01*
X108212860Y-111662218D01*
X108103371Y-111826079D01*
X108103366Y-111826088D01*
X108046315Y-111963824D01*
X108002474Y-112018227D01*
X107936180Y-112040292D01*
X107868481Y-112023013D01*
X107844073Y-112004052D01*
X107079376Y-111239355D01*
X107079374Y-111239352D01*
X106960503Y-111120481D01*
X106960495Y-111120475D01*
X106865276Y-111065501D01*
X106865274Y-111065500D01*
X106823576Y-111041425D01*
X106823575Y-111041424D01*
X106811049Y-111038067D01*
X106670843Y-111000499D01*
X106512729Y-111000499D01*
X106505133Y-111000499D01*
X106505117Y-111000500D01*
X105431246Y-111000500D01*
X105364207Y-110980815D01*
X105318452Y-110928011D01*
X105308508Y-110858853D01*
X105337533Y-110795297D01*
X105396311Y-110757523D01*
X105407054Y-110754883D01*
X105486176Y-110739144D01*
X105521835Y-110732051D01*
X105670441Y-110670497D01*
X105703907Y-110656635D01*
X105703907Y-110656634D01*
X105703914Y-110656632D01*
X105867782Y-110547139D01*
X106007139Y-110407782D01*
X106116632Y-110243914D01*
X106192051Y-110061835D01*
X106218332Y-109929712D01*
X106230500Y-109868543D01*
X106230500Y-109671456D01*
X106192052Y-109478170D01*
X106192051Y-109478169D01*
X106192051Y-109478165D01*
X106157489Y-109394724D01*
X106152199Y-109381952D01*
X106144730Y-109312483D01*
X106176005Y-109250004D01*
X106236095Y-109214352D01*
X106266760Y-109210500D01*
X108290310Y-109210500D01*
X108357349Y-109230185D01*
X108403104Y-109282989D01*
X108404867Y-109287039D01*
X108425358Y-109336510D01*
X108430606Y-109349179D01*
X108430607Y-109349182D01*
X108518210Y-109480288D01*
X108518213Y-109480292D01*
X108629707Y-109591786D01*
X108629711Y-109591789D01*
X108760814Y-109679390D01*
X108760827Y-109679397D01*
X108864891Y-109722501D01*
X108906503Y-109739737D01*
X109061153Y-109770499D01*
X109061156Y-109770500D01*
X109061158Y-109770500D01*
X109218844Y-109770500D01*
X109218845Y-109770499D01*
X109373497Y-109739737D01*
X109519179Y-109679394D01*
X109650289Y-109591789D01*
X109761789Y-109480289D01*
X109849394Y-109349179D01*
X109875129Y-109287047D01*
X109918969Y-109232644D01*
X109985263Y-109210579D01*
X109989690Y-109210500D01*
X111748120Y-109210500D01*
X111815159Y-109230185D01*
X111860914Y-109282989D01*
X111870858Y-109352147D01*
X111869737Y-109358692D01*
X111859500Y-109410155D01*
X111859500Y-109567846D01*
X111890261Y-109722489D01*
X111890264Y-109722501D01*
X111950602Y-109868172D01*
X111950609Y-109868185D01*
X112038210Y-109999288D01*
X112038213Y-109999292D01*
X112149707Y-110110786D01*
X112149711Y-110110789D01*
X112280814Y-110198390D01*
X112280827Y-110198397D01*
X112390731Y-110243920D01*
X112426503Y-110258737D01*
X112581153Y-110289499D01*
X112581156Y-110289500D01*
X112581158Y-110289500D01*
X112738844Y-110289500D01*
X112738845Y-110289499D01*
X112893497Y-110258737D01*
X113039179Y-110198394D01*
X113170289Y-110110789D01*
X113281789Y-109999289D01*
X113369394Y-109868179D01*
X113429737Y-109722497D01*
X113447877Y-109631300D01*
X113480260Y-109569394D01*
X113540975Y-109534819D01*
X113545555Y-109533917D01*
X113547701Y-109533402D01*
X113559713Y-109529499D01*
X113712445Y-109479873D01*
X113866788Y-109401232D01*
X114006928Y-109299414D01*
X114129414Y-109176928D01*
X114231232Y-109036788D01*
X114309873Y-108882445D01*
X114309874Y-108882440D01*
X114311739Y-108877941D01*
X114313733Y-108878767D01*
X114348084Y-108828517D01*
X114412439Y-108801310D01*
X114426590Y-108800500D01*
X114430943Y-108800500D01*
X114589057Y-108800500D01*
X114716558Y-108800500D01*
X114783597Y-108820185D01*
G37*
%TD.AperFunction*%
%TA.AperFunction,NonConductor*%
G36*
X121832539Y-110549185D02*
G01*
X121878294Y-110601989D01*
X121889500Y-110653500D01*
X121889500Y-110828541D01*
X121889500Y-110828543D01*
X121889499Y-110828543D01*
X121927947Y-111021829D01*
X121927950Y-111021839D01*
X122003364Y-111203907D01*
X122003371Y-111203920D01*
X122112860Y-111367781D01*
X122112863Y-111367785D01*
X122252214Y-111507136D01*
X122252218Y-111507139D01*
X122416079Y-111616628D01*
X122416092Y-111616635D01*
X122578503Y-111683907D01*
X122598165Y-111692051D01*
X122598169Y-111692051D01*
X122598170Y-111692052D01*
X122791456Y-111730500D01*
X122791459Y-111730500D01*
X122988543Y-111730500D01*
X123118582Y-111704632D01*
X123181835Y-111692051D01*
X123363914Y-111616632D01*
X123527782Y-111507139D01*
X123667139Y-111367782D01*
X123776632Y-111203914D01*
X123852051Y-111021835D01*
X123867625Y-110943539D01*
X123890149Y-110830308D01*
X123922534Y-110768397D01*
X123983250Y-110733823D01*
X124011766Y-110730500D01*
X126799903Y-110730500D01*
X126829343Y-110739144D01*
X126859330Y-110745668D01*
X126864345Y-110749422D01*
X126866942Y-110750185D01*
X126887584Y-110766819D01*
X126969993Y-110849228D01*
X126996873Y-110889456D01*
X127050604Y-111019176D01*
X127050609Y-111019185D01*
X127138210Y-111150288D01*
X127138213Y-111150292D01*
X127249707Y-111261786D01*
X127249711Y-111261789D01*
X127380814Y-111349390D01*
X127380827Y-111349397D01*
X127502298Y-111399711D01*
X127526503Y-111409737D01*
X127656213Y-111435538D01*
X127681153Y-111440499D01*
X127681156Y-111440500D01*
X127725500Y-111440500D01*
X127792539Y-111460185D01*
X127838294Y-111512989D01*
X127849500Y-111564500D01*
X127849500Y-112375864D01*
X127829815Y-112442903D01*
X127777011Y-112488658D01*
X127725500Y-112499864D01*
X125280519Y-112499864D01*
X125239598Y-112510828D01*
X125239598Y-112510829D01*
X125203793Y-112520423D01*
X125127793Y-112540787D01*
X125127788Y-112540790D01*
X124990869Y-112619839D01*
X124990861Y-112619845D01*
X123859511Y-113751196D01*
X123798188Y-113784681D01*
X123728496Y-113779697D01*
X123702939Y-113766617D01*
X123589185Y-113690609D01*
X123589172Y-113690602D01*
X123443501Y-113630264D01*
X123443489Y-113630261D01*
X123288845Y-113599500D01*
X123288842Y-113599500D01*
X123131158Y-113599500D01*
X123131156Y-113599500D01*
X122976504Y-113630262D01*
X122973193Y-113631267D01*
X122971373Y-113631283D01*
X122970530Y-113631451D01*
X122970498Y-113631290D01*
X122903326Y-113631888D01*
X122849521Y-113600286D01*
X120055171Y-110805936D01*
X120045074Y-110787445D01*
X120030995Y-110771771D01*
X120028665Y-110757394D01*
X120021686Y-110744613D01*
X120023188Y-110723597D01*
X120019819Y-110702801D01*
X120025631Y-110689448D01*
X120026670Y-110674921D01*
X120039296Y-110658054D01*
X120047705Y-110638737D01*
X120066182Y-110622139D01*
X120068542Y-110618988D01*
X120073943Y-110615164D01*
X120170289Y-110550789D01*
X120170288Y-110550789D01*
X120170876Y-110550397D01*
X120237553Y-110529520D01*
X120239766Y-110529500D01*
X121765500Y-110529500D01*
X121832539Y-110549185D01*
G37*
%TD.AperFunction*%
%TA.AperFunction,NonConductor*%
G36*
X111487255Y-113220185D02*
G01*
X111533010Y-113272989D01*
X111542954Y-113342147D01*
X111513929Y-113405703D01*
X111507897Y-113412181D01*
X111432863Y-113487214D01*
X111432860Y-113487218D01*
X111323371Y-113651079D01*
X111323364Y-113651092D01*
X111247950Y-113833160D01*
X111247947Y-113833170D01*
X111209500Y-114026456D01*
X111209500Y-115070117D01*
X111189815Y-115137156D01*
X111137011Y-115182911D01*
X111067853Y-115192855D01*
X111004297Y-115163830D01*
X110997819Y-115157798D01*
X109285947Y-113445926D01*
X109270230Y-113417143D01*
X109253479Y-113388910D01*
X109253560Y-113386615D01*
X109252462Y-113384603D01*
X109254802Y-113351880D01*
X109255974Y-113319085D01*
X109257282Y-113317200D01*
X109257446Y-113314911D01*
X109277114Y-113288637D01*
X109295823Y-113261693D01*
X109298454Y-113260131D01*
X109299318Y-113258978D01*
X109326166Y-113243688D01*
X109407648Y-113209937D01*
X109455098Y-113200500D01*
X111420216Y-113200500D01*
X111487255Y-113220185D01*
G37*
%TD.AperFunction*%
%TA.AperFunction,NonConductor*%
G36*
X122055703Y-114505384D02*
G01*
X122062181Y-114511416D01*
X122315139Y-114764374D01*
X122315149Y-114764385D01*
X122319479Y-114768715D01*
X122319480Y-114768716D01*
X122431284Y-114880520D01*
X122431286Y-114880521D01*
X122431290Y-114880524D01*
X122480830Y-114909126D01*
X122529046Y-114959692D01*
X122542270Y-115028299D01*
X122516302Y-115093164D01*
X122506513Y-115104194D01*
X122196525Y-115414182D01*
X122169596Y-115428886D01*
X122143781Y-115445477D01*
X122137580Y-115446368D01*
X122135204Y-115447666D01*
X122108846Y-115450500D01*
X121974500Y-115450500D01*
X121907461Y-115430815D01*
X121861706Y-115378011D01*
X121850500Y-115326500D01*
X121850500Y-114599097D01*
X121870185Y-114532058D01*
X121922989Y-114486303D01*
X121992147Y-114476359D01*
X122055703Y-114505384D01*
G37*
%TD.AperFunction*%
%TA.AperFunction,NonConductor*%
G36*
X118665703Y-111115384D02*
G01*
X118672181Y-111121416D01*
X120536930Y-112986165D01*
X120570415Y-113047488D01*
X120565431Y-113117180D01*
X120523559Y-113173113D01*
X120496702Y-113188407D01*
X120376088Y-113238366D01*
X120376079Y-113238371D01*
X120212218Y-113347860D01*
X120212214Y-113347863D01*
X120072863Y-113487214D01*
X120072860Y-113487218D01*
X119963371Y-113651079D01*
X119963364Y-113651092D01*
X119887950Y-113833160D01*
X119887947Y-113833170D01*
X119849500Y-114026456D01*
X119849500Y-114659137D01*
X119829815Y-114726176D01*
X119777011Y-114771931D01*
X119707853Y-114781875D01*
X119663501Y-114766525D01*
X119603536Y-114731905D01*
X119603537Y-114731905D01*
X119560185Y-114720289D01*
X119482601Y-114699500D01*
X119357399Y-114699500D01*
X119279815Y-114720289D01*
X119236463Y-114731905D01*
X119128037Y-114794504D01*
X119128034Y-114794506D01*
X119039506Y-114883034D01*
X119039504Y-114883037D01*
X118976905Y-114991463D01*
X118970968Y-115013621D01*
X118950842Y-115088733D01*
X118944500Y-115112400D01*
X118944500Y-115237603D01*
X118959721Y-115294405D01*
X118958059Y-115364255D01*
X118918898Y-115422118D01*
X118854669Y-115449623D01*
X118839947Y-115450500D01*
X114220053Y-115450500D01*
X114153014Y-115430815D01*
X114107259Y-115378011D01*
X114097315Y-115308853D01*
X114100279Y-115294405D01*
X114115499Y-115237603D01*
X114115500Y-115237600D01*
X114115500Y-115112400D01*
X114109159Y-115088734D01*
X114083095Y-114991464D01*
X114020495Y-114883036D01*
X113931964Y-114794505D01*
X113823536Y-114731905D01*
X113823537Y-114731905D01*
X113780185Y-114720289D01*
X113702601Y-114699500D01*
X113577399Y-114699500D01*
X113499815Y-114720289D01*
X113456463Y-114731905D01*
X113396499Y-114766525D01*
X113328598Y-114782996D01*
X113262572Y-114760143D01*
X113219382Y-114705222D01*
X113210500Y-114659137D01*
X113210500Y-114026456D01*
X113172052Y-113833170D01*
X113172051Y-113833169D01*
X113172051Y-113833165D01*
X113159493Y-113802847D01*
X113096635Y-113651092D01*
X113096628Y-113651079D01*
X112987139Y-113487218D01*
X112987136Y-113487214D01*
X112888363Y-113388441D01*
X112887049Y-113386035D01*
X112884700Y-113384619D01*
X112870398Y-113355541D01*
X112854878Y-113327118D01*
X112855073Y-113324383D01*
X112853863Y-113321922D01*
X112857551Y-113289740D01*
X112859862Y-113257426D01*
X112861505Y-113255230D01*
X112861818Y-113252507D01*
X112882317Y-113227429D01*
X112901734Y-113201493D01*
X112904833Y-113199885D01*
X112906039Y-113198411D01*
X112914695Y-113194770D01*
X112937709Y-113182834D01*
X112944660Y-113180574D01*
X113018459Y-113165895D01*
X113118394Y-113124500D01*
X113182340Y-113098013D01*
X113275897Y-113035500D01*
X113329829Y-112999464D01*
X114672665Y-111656626D01*
X114733988Y-111623142D01*
X114803679Y-111628126D01*
X114859613Y-111669997D01*
X114884030Y-111735462D01*
X114881963Y-111768499D01*
X114869500Y-111831154D01*
X114869500Y-111988846D01*
X114900261Y-112143489D01*
X114900264Y-112143501D01*
X114960602Y-112289172D01*
X114960609Y-112289185D01*
X115048210Y-112420288D01*
X115048213Y-112420292D01*
X115159707Y-112531786D01*
X115159711Y-112531789D01*
X115290814Y-112619390D01*
X115290827Y-112619397D01*
X115436498Y-112679735D01*
X115436503Y-112679737D01*
X115583788Y-112709034D01*
X115591153Y-112710499D01*
X115591156Y-112710500D01*
X115591158Y-112710500D01*
X115748844Y-112710500D01*
X115748845Y-112710499D01*
X115903497Y-112679737D01*
X116049179Y-112619394D01*
X116128253Y-112566558D01*
X116194928Y-112545680D01*
X116244592Y-112555098D01*
X116376503Y-112609737D01*
X116531153Y-112640499D01*
X116531156Y-112640500D01*
X116531158Y-112640500D01*
X116688844Y-112640500D01*
X116688845Y-112640499D01*
X116843497Y-112609737D01*
X116989179Y-112549394D01*
X117120289Y-112461789D01*
X117231789Y-112350289D01*
X117262344Y-112304559D01*
X117288371Y-112265609D01*
X117341983Y-112220804D01*
X117391473Y-112210500D01*
X117558543Y-112210500D01*
X117688582Y-112184632D01*
X117751835Y-112172051D01*
X117933914Y-112096632D01*
X118097782Y-111987139D01*
X118237139Y-111847782D01*
X118346632Y-111683914D01*
X118422051Y-111501835D01*
X118436111Y-111431153D01*
X118460500Y-111308543D01*
X118460500Y-111209097D01*
X118480185Y-111142058D01*
X118532989Y-111096303D01*
X118602147Y-111086359D01*
X118665703Y-111115384D01*
G37*
%TD.AperFunction*%
%TA.AperFunction,NonConductor*%
G36*
X99275703Y-116428228D02*
G01*
X99282181Y-116434260D01*
X99309707Y-116461786D01*
X99309711Y-116461789D01*
X99440814Y-116549390D01*
X99440827Y-116549397D01*
X99503634Y-116575412D01*
X99558038Y-116619252D01*
X99580103Y-116685546D01*
X99562824Y-116753246D01*
X99511687Y-116800857D01*
X99480374Y-116811590D01*
X99386508Y-116830261D01*
X99386507Y-116830262D01*
X99386506Y-116830262D01*
X99386503Y-116830263D01*
X99306372Y-116863454D01*
X99241952Y-116890137D01*
X99172482Y-116897605D01*
X99110003Y-116866329D01*
X99074351Y-116806240D01*
X99070500Y-116775575D01*
X99070500Y-116521941D01*
X99090185Y-116454902D01*
X99142989Y-116409147D01*
X99212147Y-116399203D01*
X99275703Y-116428228D01*
G37*
%TD.AperFunction*%
%TA.AperFunction,NonConductor*%
G36*
X100404196Y-116499586D02*
G01*
X100450887Y-116551565D01*
X100462063Y-116620535D01*
X100442132Y-116673973D01*
X100399228Y-116738182D01*
X100399221Y-116738195D01*
X100346421Y-116865667D01*
X100346418Y-116865677D01*
X100337148Y-116912282D01*
X100304763Y-116974193D01*
X100244047Y-117008767D01*
X100174277Y-117005026D01*
X100135972Y-116980889D01*
X100134999Y-116982076D01*
X100130288Y-116978210D01*
X99999185Y-116890609D01*
X99999176Y-116890604D01*
X99936364Y-116864587D01*
X99881961Y-116820746D01*
X99859896Y-116754452D01*
X99877175Y-116686753D01*
X99928312Y-116639142D01*
X99959619Y-116628410D01*
X100053497Y-116609737D01*
X100193938Y-116551565D01*
X100199172Y-116549397D01*
X100199172Y-116549396D01*
X100199179Y-116549394D01*
X100270139Y-116501980D01*
X100336816Y-116481102D01*
X100404196Y-116499586D01*
G37*
%TD.AperFunction*%
%TA.AperFunction,NonConductor*%
G36*
X144054783Y-95499848D02*
G01*
X144100744Y-95552472D01*
X144112146Y-95603238D01*
X144199239Y-104700589D01*
X144180197Y-104767814D01*
X144127834Y-104814072D01*
X144058774Y-104824677D01*
X144018950Y-104812261D01*
X143922853Y-104763296D01*
X143761847Y-104710981D01*
X143594649Y-104684500D01*
X143594644Y-104684500D01*
X142775356Y-104684500D01*
X142775351Y-104684500D01*
X142608152Y-104710981D01*
X142447146Y-104763296D01*
X142296311Y-104840152D01*
X142159365Y-104939648D01*
X142159360Y-104939652D01*
X142039652Y-105059360D01*
X142039648Y-105059365D01*
X141940152Y-105196311D01*
X141863296Y-105347146D01*
X141810981Y-105508152D01*
X141784500Y-105675350D01*
X141784500Y-105844649D01*
X141810981Y-106011847D01*
X141863296Y-106172853D01*
X141903133Y-106251036D01*
X141937715Y-106318907D01*
X141940152Y-106323688D01*
X142039648Y-106460634D01*
X142039652Y-106460639D01*
X142159360Y-106580347D01*
X142159365Y-106580351D01*
X142241466Y-106640000D01*
X142296315Y-106679850D01*
X142392425Y-106728820D01*
X142447146Y-106756703D01*
X142447148Y-106756703D01*
X142447151Y-106756705D01*
X142527087Y-106782678D01*
X142608152Y-106809018D01*
X142775351Y-106835500D01*
X142775356Y-106835500D01*
X143594649Y-106835500D01*
X143761847Y-106809018D01*
X143780147Y-106803072D01*
X143922849Y-106756705D01*
X144039114Y-106697464D01*
X144107782Y-106684569D01*
X144172522Y-106710845D01*
X144212780Y-106767951D01*
X144219402Y-106806763D01*
X144273819Y-112491009D01*
X144254777Y-112558234D01*
X144202414Y-112604492D01*
X144133354Y-112615097D01*
X144076941Y-112592515D01*
X144073688Y-112590151D01*
X143922853Y-112513296D01*
X143761847Y-112460981D01*
X143594649Y-112434500D01*
X143594644Y-112434500D01*
X142775356Y-112434500D01*
X142775351Y-112434500D01*
X142608152Y-112460981D01*
X142447146Y-112513296D01*
X142296311Y-112590152D01*
X142159365Y-112689648D01*
X142159360Y-112689652D01*
X142039652Y-112809360D01*
X142039648Y-112809365D01*
X141940152Y-112946311D01*
X141863296Y-113097146D01*
X141810981Y-113258152D01*
X141784500Y-113425350D01*
X141784500Y-113594649D01*
X141810981Y-113761847D01*
X141863296Y-113922853D01*
X141940152Y-114073688D01*
X142039648Y-114210634D01*
X142039652Y-114210639D01*
X142159360Y-114330347D01*
X142159365Y-114330351D01*
X142179235Y-114344787D01*
X142296315Y-114429850D01*
X142387594Y-114476359D01*
X142447146Y-114506703D01*
X142447148Y-114506703D01*
X142447151Y-114506705D01*
X142525179Y-114532058D01*
X142608152Y-114559018D01*
X142775351Y-114585500D01*
X142775356Y-114585500D01*
X143594649Y-114585500D01*
X143761847Y-114559018D01*
X143773216Y-114555324D01*
X143922849Y-114506705D01*
X144073685Y-114429850D01*
X144096291Y-114413425D01*
X144162096Y-114389944D01*
X144230150Y-114405768D01*
X144278846Y-114455872D01*
X144293172Y-114512555D01*
X144312561Y-116537830D01*
X144311909Y-116551772D01*
X144277278Y-116886655D01*
X144275347Y-116899108D01*
X144205039Y-117237734D01*
X144201853Y-117249926D01*
X144097545Y-117579652D01*
X144093139Y-117591459D01*
X143955896Y-117908910D01*
X143950314Y-117920207D01*
X143781570Y-118222076D01*
X143774870Y-118232750D01*
X143576350Y-118515943D01*
X143568602Y-118525880D01*
X143342370Y-118787458D01*
X143333652Y-118796559D01*
X143082038Y-119033823D01*
X143072443Y-119041991D01*
X142798047Y-119252495D01*
X142787671Y-119259647D01*
X142493327Y-119441214D01*
X142482280Y-119447277D01*
X142171028Y-119598031D01*
X142159422Y-119602941D01*
X141834468Y-119721329D01*
X141822424Y-119725035D01*
X141581820Y-119785884D01*
X141512000Y-119783237D01*
X141454695Y-119743263D01*
X141428099Y-119678654D01*
X141440655Y-119609922D01*
X141488377Y-119558889D01*
X141510451Y-119548632D01*
X141560079Y-119531267D01*
X141802997Y-119414284D01*
X142031289Y-119270838D01*
X142242085Y-119102734D01*
X142432734Y-118912085D01*
X142600838Y-118701289D01*
X142744284Y-118472997D01*
X142861267Y-118230079D01*
X142950316Y-117975591D01*
X143010312Y-117712732D01*
X143040500Y-117444809D01*
X143040500Y-117175191D01*
X143010312Y-116907268D01*
X142950316Y-116644409D01*
X142944409Y-116627529D01*
X142926173Y-116575412D01*
X142861267Y-116389921D01*
X142746795Y-116152218D01*
X142744285Y-116147005D01*
X142682820Y-116049184D01*
X142600838Y-115918711D01*
X142432734Y-115707915D01*
X142242085Y-115517266D01*
X142031289Y-115349162D01*
X141853745Y-115237603D01*
X141802994Y-115205714D01*
X141560082Y-115088734D01*
X141305602Y-114999687D01*
X141305594Y-114999684D01*
X141108446Y-114954687D01*
X141042732Y-114939688D01*
X141042728Y-114939687D01*
X141042719Y-114939686D01*
X140774813Y-114909500D01*
X140774809Y-114909500D01*
X140505191Y-114909500D01*
X140505186Y-114909500D01*
X140237280Y-114939686D01*
X140237268Y-114939688D01*
X139974405Y-114999684D01*
X139974397Y-114999687D01*
X139719917Y-115088734D01*
X139477005Y-115205714D01*
X139248712Y-115349161D01*
X139037915Y-115517265D01*
X138847265Y-115707915D01*
X138679161Y-115918712D01*
X138535714Y-116147005D01*
X138418735Y-116389915D01*
X138411541Y-116410475D01*
X138370818Y-116467251D01*
X138305865Y-116492997D01*
X138237304Y-116479540D01*
X138186902Y-116431152D01*
X138170500Y-116369519D01*
X138170500Y-116005837D01*
X138134784Y-115780339D01*
X138078303Y-115606510D01*
X138064231Y-115563201D01*
X138064229Y-115563198D01*
X138064229Y-115563196D01*
X137960578Y-115359770D01*
X137934255Y-115323541D01*
X137917156Y-115300006D01*
X137893676Y-115234201D01*
X137909501Y-115166147D01*
X137929789Y-115139444D01*
X138138506Y-114930728D01*
X138138511Y-114930724D01*
X138148714Y-114920520D01*
X138148716Y-114920520D01*
X138260520Y-114808716D01*
X138320275Y-114705216D01*
X138339577Y-114671785D01*
X138378552Y-114526323D01*
X138379859Y-114522480D01*
X138397709Y-114497111D01*
X138413855Y-114470622D01*
X138417642Y-114468782D01*
X138420066Y-114465338D01*
X138448800Y-114453646D01*
X138476702Y-114440092D01*
X138480883Y-114440591D01*
X138484783Y-114439005D01*
X138515269Y-114444702D01*
X138546078Y-114448386D01*
X138553450Y-114451838D01*
X138553463Y-114451841D01*
X138553470Y-114451848D01*
X138553562Y-114451891D01*
X138639566Y-114495713D01*
X138639568Y-114495713D01*
X138639571Y-114495715D01*
X138823028Y-114555324D01*
X139013551Y-114585500D01*
X139013552Y-114585500D01*
X139756448Y-114585500D01*
X139756449Y-114585500D01*
X139946972Y-114555324D01*
X140130429Y-114495715D01*
X140302302Y-114408141D01*
X140458359Y-114294759D01*
X140594759Y-114158359D01*
X140708141Y-114002302D01*
X140795715Y-113830429D01*
X140855324Y-113646972D01*
X140885500Y-113456449D01*
X140885500Y-113263551D01*
X140855324Y-113073028D01*
X140848060Y-113050675D01*
X140846066Y-112980835D01*
X140882146Y-112921002D01*
X140897097Y-112909258D01*
X141009035Y-112834464D01*
X141134464Y-112709035D01*
X141233013Y-112561547D01*
X141300894Y-112397666D01*
X141306628Y-112368842D01*
X141332690Y-112237819D01*
X141335500Y-112223691D01*
X141335500Y-112046309D01*
X141335500Y-112046306D01*
X141335499Y-112046304D01*
X141300896Y-111872341D01*
X141300893Y-111872332D01*
X141233016Y-111708459D01*
X141233009Y-111708446D01*
X141134464Y-111560965D01*
X141134461Y-111560961D01*
X141009038Y-111435538D01*
X141004767Y-111432033D01*
X140965432Y-111374287D01*
X140963561Y-111304442D01*
X140999748Y-111244674D01*
X141059239Y-111214562D01*
X141083497Y-111209737D01*
X141229179Y-111149394D01*
X141360289Y-111061789D01*
X141471789Y-110950289D01*
X141559394Y-110819179D01*
X141619737Y-110673497D01*
X141650500Y-110518842D01*
X141650500Y-110361158D01*
X141650500Y-110361155D01*
X141650499Y-110361153D01*
X141645936Y-110338213D01*
X141619737Y-110206503D01*
X141619735Y-110206498D01*
X141559397Y-110060827D01*
X141559390Y-110060814D01*
X141471790Y-109929712D01*
X141457569Y-109915491D01*
X141395911Y-109853833D01*
X141362428Y-109792513D01*
X141361977Y-109741962D01*
X141362420Y-109739738D01*
X141376002Y-109671456D01*
X141380500Y-109648844D01*
X141380500Y-109491155D01*
X141380499Y-109491153D01*
X141377924Y-109478210D01*
X141349737Y-109336503D01*
X141347152Y-109330263D01*
X141289397Y-109190827D01*
X141289390Y-109190814D01*
X141201789Y-109059711D01*
X141201786Y-109059707D01*
X141090292Y-108948213D01*
X141090288Y-108948210D01*
X140959185Y-108860609D01*
X140959172Y-108860602D01*
X140813501Y-108800264D01*
X140813489Y-108800261D01*
X140658845Y-108769500D01*
X140658842Y-108769500D01*
X140501158Y-108769500D01*
X140501155Y-108769500D01*
X140346510Y-108800261D01*
X140346498Y-108800264D01*
X140200827Y-108860602D01*
X140200814Y-108860609D01*
X140069711Y-108948210D01*
X140069707Y-108948213D01*
X139958213Y-109059707D01*
X139958210Y-109059711D01*
X139870609Y-109190814D01*
X139870602Y-109190827D01*
X139810264Y-109336498D01*
X139810261Y-109336510D01*
X139779500Y-109491153D01*
X139779500Y-109648846D01*
X139810261Y-109803489D01*
X139810264Y-109803501D01*
X139870602Y-109949172D01*
X139870609Y-109949185D01*
X139958210Y-110080288D01*
X139958213Y-110080292D01*
X140034086Y-110156165D01*
X140067571Y-110217488D01*
X140068022Y-110268037D01*
X140049500Y-110361153D01*
X140049500Y-110518846D01*
X140080261Y-110673489D01*
X140080264Y-110673501D01*
X140140602Y-110819172D01*
X140140609Y-110819185D01*
X140228210Y-110950288D01*
X140228213Y-110950292D01*
X140320821Y-111042900D01*
X140354306Y-111104223D01*
X140349322Y-111173915D01*
X140307450Y-111229848D01*
X140257332Y-111252198D01*
X140172340Y-111269104D01*
X140172332Y-111269106D01*
X140008459Y-111336983D01*
X140008446Y-111336990D01*
X139860965Y-111435535D01*
X139860961Y-111435538D01*
X139735538Y-111560961D01*
X139735535Y-111560965D01*
X139636990Y-111708446D01*
X139636983Y-111708459D01*
X139569106Y-111872332D01*
X139569104Y-111872340D01*
X139536810Y-112034692D01*
X139504425Y-112096603D01*
X139443709Y-112131177D01*
X139415193Y-112134500D01*
X139013551Y-112134500D01*
X138977697Y-112140178D01*
X138823030Y-112164675D01*
X138639568Y-112224286D01*
X138467697Y-112311859D01*
X138379603Y-112375864D01*
X138311641Y-112425241D01*
X138311639Y-112425243D01*
X138311638Y-112425243D01*
X138175242Y-112561639D01*
X138077794Y-112695764D01*
X138022463Y-112738429D01*
X137952850Y-112744408D01*
X137891055Y-112711802D01*
X137889795Y-112710559D01*
X137778717Y-112599481D01*
X137778709Y-112599475D01*
X137641790Y-112520426D01*
X137641786Y-112520424D01*
X137641784Y-112520423D01*
X137489057Y-112479500D01*
X137489056Y-112479500D01*
X135484500Y-112479500D01*
X135417461Y-112459815D01*
X135371706Y-112407011D01*
X135360500Y-112355500D01*
X135360500Y-112211155D01*
X135360499Y-112211153D01*
X135350439Y-112160577D01*
X135329737Y-112056503D01*
X135325513Y-112046306D01*
X135269397Y-111910827D01*
X135269390Y-111910814D01*
X135181789Y-111779711D01*
X135181786Y-111779707D01*
X135070292Y-111668213D01*
X135070288Y-111668210D01*
X134939185Y-111580609D01*
X134939172Y-111580602D01*
X134793501Y-111520264D01*
X134793489Y-111520261D01*
X134638845Y-111489500D01*
X134638842Y-111489500D01*
X134481158Y-111489500D01*
X134481155Y-111489500D01*
X134326510Y-111520261D01*
X134326498Y-111520264D01*
X134180827Y-111580602D01*
X134180814Y-111580609D01*
X134049711Y-111668210D01*
X134049707Y-111668213D01*
X133938213Y-111779707D01*
X133938210Y-111779711D01*
X133850609Y-111910814D01*
X133850602Y-111910827D01*
X133790264Y-112056498D01*
X133790261Y-112056510D01*
X133759500Y-112211153D01*
X133759500Y-112355500D01*
X133739815Y-112422539D01*
X133687011Y-112468294D01*
X133635500Y-112479500D01*
X132494617Y-112479500D01*
X132427578Y-112459815D01*
X132381823Y-112407011D01*
X132371879Y-112337853D01*
X132400904Y-112274297D01*
X132447165Y-112240939D01*
X132499172Y-112219397D01*
X132499172Y-112219396D01*
X132499179Y-112219394D01*
X132630289Y-112131789D01*
X132741789Y-112020289D01*
X132829394Y-111889179D01*
X132836369Y-111872341D01*
X132853427Y-111831158D01*
X132889737Y-111743497D01*
X132920500Y-111588842D01*
X132920500Y-111431158D01*
X132920500Y-111431155D01*
X132920499Y-111431153D01*
X132910287Y-111379815D01*
X132889737Y-111276503D01*
X132870412Y-111229848D01*
X132829397Y-111130827D01*
X132829390Y-111130814D01*
X132741789Y-110999711D01*
X132741786Y-110999707D01*
X132630292Y-110888213D01*
X132630288Y-110888210D01*
X132499185Y-110800609D01*
X132499172Y-110800602D01*
X132353501Y-110740264D01*
X132353489Y-110740261D01*
X132198845Y-110709500D01*
X132198842Y-110709500D01*
X132041158Y-110709500D01*
X132041155Y-110709500D01*
X131886510Y-110740261D01*
X131886498Y-110740264D01*
X131740827Y-110800602D01*
X131740814Y-110800609D01*
X131609711Y-110888210D01*
X131609707Y-110888213D01*
X131498211Y-110999709D01*
X131495152Y-111003437D01*
X131437403Y-111042766D01*
X131367558Y-111044631D01*
X131311624Y-111012445D01*
X131216137Y-110916958D01*
X131099768Y-110800590D01*
X131089753Y-110782249D01*
X131075744Y-110766741D01*
X131073345Y-110752200D01*
X131066284Y-110739268D01*
X131067774Y-110718422D01*
X131064374Y-110697803D01*
X131070216Y-110684275D01*
X131071268Y-110669577D01*
X131083792Y-110652846D01*
X131092079Y-110633661D01*
X131110730Y-110616860D01*
X131113139Y-110613643D01*
X131118270Y-110610002D01*
X131119167Y-110609398D01*
X131119179Y-110609394D01*
X131250289Y-110521789D01*
X131251928Y-110520149D01*
X131258821Y-110515516D01*
X131269881Y-110512018D01*
X131295901Y-110498651D01*
X131441728Y-110459577D01*
X131519415Y-110414724D01*
X131578659Y-110380520D01*
X131690463Y-110268716D01*
X131690463Y-110268714D01*
X131700667Y-110258511D01*
X131700671Y-110258506D01*
X133009506Y-108949671D01*
X133009511Y-108949667D01*
X133019714Y-108939463D01*
X133019716Y-108939463D01*
X133131520Y-108827659D01*
X133210577Y-108690727D01*
X133241721Y-108574495D01*
X133251500Y-108538001D01*
X133251500Y-108381153D01*
X133669500Y-108381153D01*
X133669500Y-108538846D01*
X133700261Y-108693489D01*
X133700264Y-108693501D01*
X133760602Y-108839172D01*
X133760609Y-108839185D01*
X133848210Y-108970288D01*
X133848213Y-108970292D01*
X133959707Y-109081786D01*
X133959711Y-109081789D01*
X134090814Y-109169390D01*
X134090827Y-109169397D01*
X134236498Y-109229735D01*
X134236503Y-109229737D01*
X134391153Y-109260499D01*
X134391156Y-109260500D01*
X134391158Y-109260500D01*
X134548844Y-109260500D01*
X134548845Y-109260499D01*
X134703497Y-109229737D01*
X134822828Y-109180309D01*
X134849172Y-109169397D01*
X134849172Y-109169396D01*
X134849179Y-109169394D01*
X134980289Y-109081789D01*
X135091789Y-108970289D01*
X135179394Y-108839179D01*
X135239737Y-108693497D01*
X135270500Y-108538842D01*
X135270500Y-108381158D01*
X135270500Y-108381155D01*
X135270499Y-108381153D01*
X135260553Y-108331153D01*
X135239737Y-108226503D01*
X135227612Y-108197231D01*
X135179397Y-108080827D01*
X135179390Y-108080814D01*
X135091789Y-107949711D01*
X135091786Y-107949707D01*
X134980292Y-107838213D01*
X134980288Y-107838210D01*
X134849185Y-107750609D01*
X134849172Y-107750602D01*
X134703501Y-107690264D01*
X134703489Y-107690261D01*
X134548845Y-107659500D01*
X134548842Y-107659500D01*
X134391158Y-107659500D01*
X134391155Y-107659500D01*
X134236510Y-107690261D01*
X134236498Y-107690264D01*
X134090827Y-107750602D01*
X134090814Y-107750609D01*
X133959711Y-107838210D01*
X133959707Y-107838213D01*
X133848213Y-107949707D01*
X133848210Y-107949711D01*
X133760609Y-108080814D01*
X133760602Y-108080827D01*
X133700264Y-108226498D01*
X133700261Y-108226510D01*
X133669500Y-108381153D01*
X133251500Y-108381153D01*
X133251500Y-108379886D01*
X133251500Y-105301153D01*
X135609500Y-105301153D01*
X135609500Y-105458846D01*
X135640261Y-105613489D01*
X135640264Y-105613501D01*
X135700602Y-105759172D01*
X135700609Y-105759185D01*
X135788210Y-105890288D01*
X135788213Y-105890292D01*
X135899707Y-106001786D01*
X135899711Y-106001789D01*
X136030814Y-106089390D01*
X136030827Y-106089397D01*
X136176498Y-106149735D01*
X136176503Y-106149737D01*
X136331153Y-106180499D01*
X136331156Y-106180500D01*
X136331158Y-106180500D01*
X136488844Y-106180500D01*
X136488845Y-106180499D01*
X136643497Y-106149737D01*
X136789179Y-106089394D01*
X136920289Y-106001789D01*
X137031789Y-105890289D01*
X137083064Y-105813551D01*
X137884500Y-105813551D01*
X137884500Y-106006448D01*
X137914675Y-106196969D01*
X137914676Y-106196972D01*
X137974285Y-106380429D01*
X138061859Y-106552302D01*
X138175241Y-106708359D01*
X138311641Y-106844759D01*
X138467698Y-106958141D01*
X138639571Y-107045715D01*
X138823028Y-107105324D01*
X139013551Y-107135500D01*
X139415193Y-107135500D01*
X139482232Y-107155185D01*
X139527987Y-107207989D01*
X139536810Y-107235308D01*
X139569104Y-107397659D01*
X139569106Y-107397667D01*
X139636983Y-107561540D01*
X139636990Y-107561553D01*
X139735535Y-107709034D01*
X139735538Y-107709038D01*
X139860961Y-107834461D01*
X139860965Y-107834464D01*
X140008446Y-107933009D01*
X140008459Y-107933016D01*
X140074813Y-107960500D01*
X140172334Y-108000894D01*
X140172336Y-108000894D01*
X140172341Y-108000896D01*
X140346304Y-108035499D01*
X140346307Y-108035500D01*
X140346309Y-108035500D01*
X140523693Y-108035500D01*
X140523694Y-108035499D01*
X140581682Y-108023964D01*
X140697658Y-108000896D01*
X140697661Y-108000894D01*
X140697666Y-108000894D01*
X140861547Y-107933013D01*
X141009035Y-107834464D01*
X141134464Y-107709035D01*
X141233013Y-107561547D01*
X141236176Y-107553912D01*
X141263097Y-107488917D01*
X141300894Y-107397666D01*
X141300894Y-107397661D01*
X141300896Y-107397658D01*
X141335499Y-107223695D01*
X141335500Y-107223693D01*
X141335500Y-107046306D01*
X141335499Y-107046304D01*
X141300896Y-106872341D01*
X141300893Y-106872332D01*
X141299968Y-106870100D01*
X141278863Y-106819145D01*
X141233016Y-106708459D01*
X141233009Y-106708446D01*
X141134464Y-106560965D01*
X141134461Y-106560961D01*
X141009038Y-106435538D01*
X141009034Y-106435535D01*
X140897101Y-106360743D01*
X140852296Y-106307130D01*
X140843589Y-106237805D01*
X140848057Y-106219334D01*
X140855324Y-106196972D01*
X140885500Y-106006449D01*
X140885500Y-105813551D01*
X140855324Y-105623028D01*
X140795715Y-105439571D01*
X140708141Y-105267698D01*
X140594759Y-105111641D01*
X140458359Y-104975241D01*
X140302302Y-104861859D01*
X140259696Y-104840150D01*
X140130431Y-104774286D01*
X140130430Y-104774285D01*
X140130429Y-104774285D01*
X139946972Y-104714676D01*
X139946970Y-104714675D01*
X139946969Y-104714675D01*
X139800614Y-104691495D01*
X139756449Y-104684500D01*
X139013551Y-104684500D01*
X138977697Y-104690178D01*
X138823030Y-104714675D01*
X138639568Y-104774286D01*
X138467697Y-104861859D01*
X138382855Y-104923501D01*
X138311641Y-104975241D01*
X138311639Y-104975243D01*
X138311638Y-104975243D01*
X138175243Y-105111638D01*
X138175243Y-105111639D01*
X138175241Y-105111641D01*
X138147180Y-105150264D01*
X138061859Y-105267697D01*
X137974286Y-105439568D01*
X137914675Y-105623030D01*
X137884500Y-105813551D01*
X137083064Y-105813551D01*
X137119394Y-105759179D01*
X137179737Y-105613497D01*
X137210500Y-105458842D01*
X137210500Y-105301158D01*
X137210500Y-105301155D01*
X137210499Y-105301153D01*
X137204250Y-105269737D01*
X137179737Y-105146503D01*
X137168552Y-105119500D01*
X137119397Y-105000827D01*
X137119390Y-105000814D01*
X137031789Y-104869711D01*
X137031786Y-104869707D01*
X136920292Y-104758213D01*
X136920288Y-104758210D01*
X136789185Y-104670609D01*
X136789172Y-104670602D01*
X136643501Y-104610264D01*
X136643489Y-104610261D01*
X136488845Y-104579500D01*
X136488842Y-104579500D01*
X136331158Y-104579500D01*
X136331155Y-104579500D01*
X136176510Y-104610261D01*
X136176498Y-104610264D01*
X136030827Y-104670602D01*
X136030814Y-104670609D01*
X135899711Y-104758210D01*
X135899707Y-104758213D01*
X135788213Y-104869707D01*
X135788210Y-104869711D01*
X135700609Y-105000814D01*
X135700602Y-105000827D01*
X135640264Y-105146498D01*
X135640261Y-105146510D01*
X135609500Y-105301153D01*
X133251500Y-105301153D01*
X133251500Y-102881153D01*
X141169500Y-102881153D01*
X141169500Y-103038846D01*
X141200261Y-103193489D01*
X141200264Y-103193501D01*
X141260602Y-103339172D01*
X141260609Y-103339185D01*
X141348210Y-103470288D01*
X141348213Y-103470292D01*
X141459707Y-103581786D01*
X141459711Y-103581789D01*
X141590814Y-103669390D01*
X141590827Y-103669397D01*
X141736498Y-103729735D01*
X141736503Y-103729737D01*
X141891153Y-103760499D01*
X141891156Y-103760500D01*
X141891158Y-103760500D01*
X142048844Y-103760500D01*
X142048845Y-103760499D01*
X142203497Y-103729737D01*
X142349179Y-103669394D01*
X142480289Y-103581789D01*
X142591789Y-103470289D01*
X142679394Y-103339179D01*
X142739737Y-103193497D01*
X142770500Y-103038842D01*
X142770500Y-102881158D01*
X142770500Y-102881155D01*
X142770499Y-102881153D01*
X142756509Y-102810821D01*
X142739737Y-102726503D01*
X142696541Y-102622218D01*
X142679397Y-102580827D01*
X142679390Y-102580814D01*
X142591789Y-102449711D01*
X142591786Y-102449707D01*
X142480292Y-102338213D01*
X142480288Y-102338210D01*
X142349185Y-102250609D01*
X142349172Y-102250602D01*
X142203501Y-102190264D01*
X142203489Y-102190261D01*
X142048845Y-102159500D01*
X142048842Y-102159500D01*
X141891158Y-102159500D01*
X141891155Y-102159500D01*
X141736510Y-102190261D01*
X141736498Y-102190264D01*
X141590827Y-102250602D01*
X141590814Y-102250609D01*
X141459711Y-102338210D01*
X141459707Y-102338213D01*
X141348213Y-102449707D01*
X141348210Y-102449711D01*
X141260609Y-102580814D01*
X141260602Y-102580827D01*
X141200264Y-102726498D01*
X141200261Y-102726510D01*
X141169500Y-102881153D01*
X133251500Y-102881153D01*
X133251500Y-97219778D01*
X137769500Y-97219778D01*
X137769500Y-97440221D01*
X137803985Y-97657952D01*
X137872103Y-97867603D01*
X137872104Y-97867606D01*
X137918338Y-97958343D01*
X137969871Y-98059481D01*
X137972187Y-98064025D01*
X138101752Y-98242358D01*
X138101756Y-98242363D01*
X138257636Y-98398243D01*
X138257641Y-98398247D01*
X138301335Y-98429992D01*
X138435978Y-98527815D01*
X138564375Y-98593237D01*
X138632393Y-98627895D01*
X138632396Y-98627896D01*
X138737221Y-98661955D01*
X138842049Y-98696015D01*
X139059778Y-98730500D01*
X139059779Y-98730500D01*
X139280221Y-98730500D01*
X139280222Y-98730500D01*
X139497951Y-98696015D01*
X139707606Y-98627895D01*
X139904022Y-98527815D01*
X140082365Y-98398242D01*
X140132536Y-98348070D01*
X140193857Y-98314586D01*
X140263548Y-98319570D01*
X140319482Y-98361441D01*
X140336398Y-98392419D01*
X140366202Y-98472328D01*
X140366206Y-98472335D01*
X140452452Y-98587544D01*
X140452455Y-98587547D01*
X140567664Y-98673793D01*
X140567671Y-98673797D01*
X140702517Y-98724091D01*
X140702516Y-98724091D01*
X140709444Y-98724835D01*
X140762127Y-98730500D01*
X142657872Y-98730499D01*
X142717483Y-98724091D01*
X142852331Y-98673796D01*
X142967546Y-98587546D01*
X143053796Y-98472331D01*
X143104091Y-98337483D01*
X143110500Y-98277873D01*
X143110499Y-96382128D01*
X143105226Y-96333079D01*
X143104091Y-96322516D01*
X143053797Y-96187671D01*
X143053793Y-96187664D01*
X142967547Y-96072455D01*
X142967544Y-96072452D01*
X142852335Y-95986206D01*
X142852328Y-95986202D01*
X142717482Y-95935908D01*
X142717483Y-95935908D01*
X142657883Y-95929501D01*
X142657881Y-95929500D01*
X142657873Y-95929500D01*
X142657864Y-95929500D01*
X140762129Y-95929500D01*
X140762123Y-95929501D01*
X140702516Y-95935908D01*
X140567671Y-95986202D01*
X140567664Y-95986206D01*
X140452455Y-96072452D01*
X140452452Y-96072455D01*
X140366206Y-96187664D01*
X140366203Y-96187669D01*
X140336398Y-96267581D01*
X140294526Y-96323514D01*
X140229062Y-96347931D01*
X140160789Y-96333079D01*
X140132535Y-96311928D01*
X140082363Y-96261756D01*
X140082358Y-96261752D01*
X139904025Y-96132187D01*
X139904024Y-96132186D01*
X139904022Y-96132185D01*
X139786791Y-96072452D01*
X139707606Y-96032104D01*
X139707603Y-96032103D01*
X139497952Y-95963985D01*
X139389086Y-95946742D01*
X139280222Y-95929500D01*
X139059778Y-95929500D01*
X138987201Y-95940995D01*
X138842047Y-95963985D01*
X138632396Y-96032103D01*
X138632393Y-96032104D01*
X138435974Y-96132187D01*
X138257641Y-96261752D01*
X138257636Y-96261756D01*
X138101756Y-96417636D01*
X138101752Y-96417641D01*
X137972187Y-96595974D01*
X137872104Y-96792393D01*
X137872103Y-96792396D01*
X137803985Y-97002047D01*
X137769500Y-97219778D01*
X133251500Y-97219778D01*
X133251500Y-97130060D01*
X133251501Y-97130047D01*
X133251501Y-96961944D01*
X133251501Y-96961943D01*
X133210577Y-96809216D01*
X133210573Y-96809209D01*
X133131524Y-96672290D01*
X133131518Y-96672282D01*
X132794573Y-96335337D01*
X132761088Y-96274014D01*
X132760637Y-96271847D01*
X132738783Y-96161981D01*
X132729737Y-96116503D01*
X132711492Y-96072455D01*
X132669397Y-95970827D01*
X132669390Y-95970814D01*
X132581789Y-95839711D01*
X132581786Y-95839707D01*
X132478898Y-95736819D01*
X132445413Y-95675496D01*
X132450397Y-95605804D01*
X132492269Y-95549871D01*
X132557733Y-95525454D01*
X132566084Y-95525139D01*
X143987669Y-95480426D01*
X144054783Y-95499848D01*
G37*
%TD.AperFunction*%
%TA.AperFunction,NonConductor*%
G36*
X112131889Y-95624819D02*
G01*
X112177850Y-95677443D01*
X112188064Y-95746562D01*
X112179821Y-95776844D01*
X112171266Y-95797499D01*
X112171263Y-95797510D01*
X112140502Y-95952153D01*
X112140502Y-96109846D01*
X112171263Y-96264489D01*
X112171266Y-96264501D01*
X112231604Y-96410172D01*
X112231611Y-96410185D01*
X112295372Y-96505609D01*
X112316250Y-96572286D01*
X112297766Y-96639667D01*
X112245787Y-96686357D01*
X112192270Y-96698500D01*
X104807669Y-96698500D01*
X104807653Y-96698499D01*
X104800057Y-96698499D01*
X104641943Y-96698499D01*
X104534587Y-96727265D01*
X104489210Y-96739424D01*
X104489209Y-96739425D01*
X104445489Y-96764668D01*
X104445487Y-96764669D01*
X104352290Y-96818475D01*
X104352282Y-96818481D01*
X104270264Y-96900500D01*
X104240480Y-96930284D01*
X104240478Y-96930286D01*
X103111284Y-98059481D01*
X103026481Y-98144284D01*
X102778662Y-98392102D01*
X102717339Y-98425586D01*
X102647647Y-98420602D01*
X102591714Y-98378730D01*
X102576421Y-98351876D01*
X102565084Y-98324505D01*
X102565082Y-98324502D01*
X102565080Y-98324498D01*
X102482951Y-98201584D01*
X102482948Y-98201580D01*
X102378419Y-98097051D01*
X102378415Y-98097048D01*
X102255501Y-98014919D01*
X102255488Y-98014912D01*
X102118917Y-97958343D01*
X102118907Y-97958340D01*
X101973920Y-97929500D01*
X101973918Y-97929500D01*
X101826082Y-97929500D01*
X101826080Y-97929500D01*
X101681092Y-97958340D01*
X101681082Y-97958343D01*
X101544511Y-98014912D01*
X101544498Y-98014919D01*
X101421584Y-98097048D01*
X101421580Y-98097051D01*
X101317051Y-98201580D01*
X101317048Y-98201584D01*
X101234919Y-98324498D01*
X101234912Y-98324511D01*
X101178343Y-98461082D01*
X101178340Y-98461092D01*
X101149500Y-98606079D01*
X101149500Y-98606082D01*
X101149500Y-98753918D01*
X101149500Y-98753920D01*
X101149499Y-98753920D01*
X101178340Y-98898907D01*
X101178343Y-98898917D01*
X101234912Y-99035488D01*
X101234919Y-99035501D01*
X101317048Y-99158415D01*
X101317051Y-99158419D01*
X101421580Y-99262948D01*
X101421584Y-99262951D01*
X101544498Y-99345080D01*
X101544502Y-99345082D01*
X101544505Y-99345084D01*
X101571873Y-99356420D01*
X101626275Y-99400260D01*
X101648341Y-99466554D01*
X101631062Y-99534253D01*
X101612101Y-99558662D01*
X100600286Y-100570478D01*
X100488481Y-100682282D01*
X100488480Y-100682284D01*
X100448716Y-100751158D01*
X100409423Y-100819215D01*
X100368499Y-100971943D01*
X100368499Y-100971945D01*
X100368499Y-101140046D01*
X100368500Y-101140059D01*
X100368500Y-108256537D01*
X100368499Y-108256555D01*
X100368499Y-108422261D01*
X100368498Y-108422261D01*
X100409423Y-108574992D01*
X100418562Y-108590821D01*
X100488477Y-108711919D01*
X100488481Y-108711924D01*
X100607349Y-108830792D01*
X100607355Y-108830797D01*
X101615271Y-109838713D01*
X101615273Y-109838716D01*
X101692053Y-109915496D01*
X101707470Y-109934283D01*
X101738207Y-109980284D01*
X101738213Y-109980292D01*
X101849707Y-110091786D01*
X101849711Y-110091789D01*
X101980814Y-110179390D01*
X101980827Y-110179397D01*
X102106047Y-110231264D01*
X102126503Y-110239737D01*
X102268776Y-110268037D01*
X102281153Y-110270499D01*
X102281156Y-110270500D01*
X102281158Y-110270500D01*
X102438844Y-110270500D01*
X102438845Y-110270499D01*
X102593497Y-110239737D01*
X102739179Y-110179394D01*
X102870289Y-110091789D01*
X102981789Y-109980289D01*
X103069394Y-109849179D01*
X103129737Y-109703497D01*
X103160500Y-109548842D01*
X103160500Y-109391158D01*
X103154042Y-109358690D01*
X103160271Y-109289098D01*
X103203134Y-109233922D01*
X103269024Y-109210678D01*
X103275660Y-109210500D01*
X104193240Y-109210500D01*
X104260279Y-109230185D01*
X104306034Y-109282989D01*
X104315978Y-109352147D01*
X104307801Y-109381952D01*
X104267950Y-109478160D01*
X104267947Y-109478170D01*
X104229500Y-109671456D01*
X104229500Y-109671459D01*
X104229500Y-109868541D01*
X104229500Y-109868543D01*
X104229499Y-109868543D01*
X104267949Y-110061840D01*
X104269298Y-110066286D01*
X104269918Y-110136153D01*
X104232667Y-110195264D01*
X104169371Y-110224851D01*
X104126445Y-110223892D01*
X104008846Y-110200500D01*
X104008842Y-110200500D01*
X103851158Y-110200500D01*
X103851155Y-110200500D01*
X103696510Y-110231261D01*
X103696498Y-110231264D01*
X103550827Y-110291602D01*
X103550814Y-110291609D01*
X103419711Y-110379210D01*
X103419707Y-110379213D01*
X103308213Y-110490707D01*
X103308210Y-110490711D01*
X103220609Y-110621814D01*
X103220602Y-110621827D01*
X103160264Y-110767498D01*
X103160261Y-110767508D01*
X103133769Y-110900692D01*
X103101384Y-110962603D01*
X103040668Y-110997177D01*
X103012152Y-111000500D01*
X101674500Y-111000500D01*
X101607461Y-110980815D01*
X101561706Y-110928011D01*
X101550500Y-110876500D01*
X101550500Y-110841155D01*
X101550499Y-110841153D01*
X101542431Y-110800591D01*
X101519737Y-110686503D01*
X101514940Y-110674921D01*
X101459397Y-110540827D01*
X101459390Y-110540814D01*
X101371789Y-110409711D01*
X101371786Y-110409707D01*
X101260292Y-110298213D01*
X101260288Y-110298210D01*
X101129185Y-110210609D01*
X101129172Y-110210602D01*
X100983501Y-110150264D01*
X100983489Y-110150261D01*
X100828845Y-110119500D01*
X100828842Y-110119500D01*
X100671158Y-110119500D01*
X100671155Y-110119500D01*
X100516510Y-110150261D01*
X100516498Y-110150264D01*
X100370827Y-110210602D01*
X100370814Y-110210609D01*
X100239711Y-110298210D01*
X100239707Y-110298213D01*
X100128213Y-110409707D01*
X100128210Y-110409711D01*
X100040609Y-110540814D01*
X100040602Y-110540827D01*
X99980264Y-110686498D01*
X99980261Y-110686510D01*
X99949500Y-110841153D01*
X99949500Y-110876500D01*
X99929815Y-110943539D01*
X99877011Y-110989294D01*
X99825500Y-111000500D01*
X99518046Y-111000500D01*
X99451007Y-110980815D01*
X99405252Y-110928011D01*
X99396429Y-110900691D01*
X99382429Y-110830308D01*
X99369737Y-110766503D01*
X99354824Y-110730500D01*
X99309397Y-110620827D01*
X99309390Y-110620814D01*
X99221789Y-110489711D01*
X99221786Y-110489707D01*
X99110292Y-110378213D01*
X99110288Y-110378210D01*
X98979185Y-110290609D01*
X98979172Y-110290602D01*
X98833501Y-110230264D01*
X98833489Y-110230261D01*
X98678845Y-110199500D01*
X98678842Y-110199500D01*
X98521158Y-110199500D01*
X98521155Y-110199500D01*
X98366510Y-110230261D01*
X98366498Y-110230264D01*
X98220827Y-110290602D01*
X98220814Y-110290609D01*
X98089711Y-110378210D01*
X98089707Y-110378213D01*
X97978213Y-110489707D01*
X97978210Y-110489711D01*
X97890609Y-110620814D01*
X97890602Y-110620827D01*
X97830264Y-110766498D01*
X97830261Y-110766510D01*
X97803571Y-110900691D01*
X97771186Y-110962602D01*
X97710471Y-110997176D01*
X97681954Y-111000500D01*
X97341098Y-111000500D01*
X97274059Y-110980815D01*
X97253417Y-110964181D01*
X96374573Y-110085337D01*
X96341088Y-110024014D01*
X96340637Y-110021847D01*
X96340499Y-110021153D01*
X96309737Y-109866503D01*
X96289734Y-109818211D01*
X96249397Y-109720827D01*
X96249390Y-109720814D01*
X96161789Y-109589711D01*
X96161786Y-109589707D01*
X96050292Y-109478213D01*
X96050288Y-109478210D01*
X95919185Y-109390609D01*
X95919172Y-109390602D01*
X95773501Y-109330264D01*
X95773489Y-109330261D01*
X95618845Y-109299500D01*
X95618842Y-109299500D01*
X95461158Y-109299500D01*
X95461155Y-109299500D01*
X95306510Y-109330261D01*
X95306498Y-109330264D01*
X95160827Y-109390602D01*
X95160814Y-109390609D01*
X95029711Y-109478210D01*
X95029707Y-109478213D01*
X94918213Y-109589707D01*
X94918210Y-109589711D01*
X94830609Y-109720814D01*
X94830602Y-109720827D01*
X94770264Y-109866498D01*
X94770261Y-109866510D01*
X94739500Y-110021153D01*
X94739500Y-110178846D01*
X94770261Y-110333489D01*
X94770264Y-110333501D01*
X94830602Y-110479172D01*
X94830609Y-110479185D01*
X94918210Y-110610288D01*
X94918213Y-110610292D01*
X95029707Y-110721786D01*
X95029711Y-110721789D01*
X95160814Y-110809390D01*
X95160827Y-110809397D01*
X95306498Y-110869735D01*
X95306503Y-110869737D01*
X95363895Y-110881153D01*
X95461849Y-110900638D01*
X95523760Y-110933023D01*
X95525337Y-110934572D01*
X96672284Y-112081520D01*
X96672286Y-112081521D01*
X96672290Y-112081524D01*
X96758293Y-112131177D01*
X96809216Y-112160577D01*
X96961943Y-112201501D01*
X96961945Y-112201501D01*
X97127654Y-112201501D01*
X97127670Y-112201500D01*
X106291689Y-112201500D01*
X106358728Y-112221185D01*
X106379370Y-112237819D01*
X108781418Y-114639867D01*
X108814903Y-114701190D01*
X108809919Y-114770882D01*
X108768047Y-114826815D01*
X108713137Y-114850021D01*
X108680337Y-114855216D01*
X108463196Y-114925770D01*
X108259771Y-115029421D01*
X108075061Y-115163622D01*
X107913622Y-115325061D01*
X107779421Y-115509771D01*
X107675770Y-115713196D01*
X107605215Y-115930339D01*
X107569500Y-116155837D01*
X107569500Y-117984162D01*
X107605215Y-118209660D01*
X107675770Y-118426803D01*
X107752044Y-118576498D01*
X107779421Y-118630228D01*
X107913621Y-118814937D01*
X108075063Y-118976379D01*
X108259772Y-119110579D01*
X108330648Y-119146692D01*
X108463196Y-119214229D01*
X108463198Y-119214229D01*
X108463201Y-119214231D01*
X108579592Y-119252049D01*
X108680339Y-119284784D01*
X108905838Y-119320500D01*
X108905843Y-119320500D01*
X109134162Y-119320500D01*
X109359660Y-119284784D01*
X109437023Y-119259647D01*
X109576799Y-119214231D01*
X109780228Y-119110579D01*
X109964937Y-118976379D01*
X110126379Y-118814937D01*
X110260579Y-118630228D01*
X110364231Y-118426799D01*
X110434784Y-118209660D01*
X110450523Y-118110287D01*
X110470500Y-117984162D01*
X110470500Y-116627529D01*
X110472441Y-116620916D01*
X110471226Y-116614134D01*
X110482158Y-116587824D01*
X110490185Y-116560490D01*
X110495392Y-116555978D01*
X110498037Y-116549613D01*
X110521463Y-116533386D01*
X110542989Y-116514735D01*
X110549807Y-116513754D01*
X110555474Y-116509830D01*
X110583948Y-116508845D01*
X110612147Y-116504791D01*
X110620084Y-116507596D01*
X110625302Y-116507416D01*
X110640514Y-116514816D01*
X110657894Y-116520959D01*
X110669285Y-116527735D01*
X110673070Y-116531520D01*
X110759881Y-116581639D01*
X110760548Y-116582024D01*
X110760605Y-116582058D01*
X110799403Y-116604458D01*
X110810001Y-116610577D01*
X110962729Y-116651500D01*
X111120843Y-116651500D01*
X122322274Y-116651500D01*
X122322290Y-116651501D01*
X122329886Y-116651501D01*
X122487997Y-116651501D01*
X122488000Y-116651501D01*
X122640728Y-116610577D01*
X122690847Y-116581639D01*
X122777659Y-116531520D01*
X122889463Y-116419716D01*
X122889463Y-116419714D01*
X122899671Y-116409507D01*
X122899672Y-116409504D01*
X123721151Y-115588026D01*
X123782473Y-115554542D01*
X123852165Y-115559526D01*
X123908098Y-115601398D01*
X123932515Y-115666862D01*
X123926762Y-115714026D01*
X123905216Y-115780335D01*
X123905216Y-115780338D01*
X123869500Y-116005837D01*
X123869500Y-117834162D01*
X123905215Y-118059660D01*
X123975770Y-118276803D01*
X124067310Y-118456459D01*
X124079421Y-118480228D01*
X124213621Y-118664937D01*
X124375063Y-118826379D01*
X124559772Y-118960579D01*
X124655884Y-119009550D01*
X124763196Y-119064229D01*
X124763198Y-119064229D01*
X124763201Y-119064231D01*
X124879592Y-119102049D01*
X124980339Y-119134784D01*
X125205838Y-119170500D01*
X125205843Y-119170500D01*
X125434162Y-119170500D01*
X125659660Y-119134784D01*
X125702581Y-119120838D01*
X125876799Y-119064231D01*
X126080228Y-118960579D01*
X126264937Y-118826379D01*
X126426379Y-118664937D01*
X126560579Y-118480228D01*
X126664231Y-118276799D01*
X126734784Y-118059660D01*
X126743622Y-118003858D01*
X126770500Y-117834162D01*
X126770500Y-116351941D01*
X126790185Y-116284902D01*
X126842989Y-116239147D01*
X126912147Y-116229203D01*
X126975703Y-116258228D01*
X126982181Y-116264260D01*
X127009707Y-116291786D01*
X127009711Y-116291789D01*
X127140814Y-116379390D01*
X127140827Y-116379397D01*
X127273280Y-116434260D01*
X127286503Y-116439737D01*
X127441153Y-116470499D01*
X127441156Y-116470500D01*
X127441158Y-116470500D01*
X127598844Y-116470500D01*
X127598845Y-116470499D01*
X127753497Y-116439737D01*
X127899179Y-116379394D01*
X127899184Y-116379390D01*
X127899187Y-116379389D01*
X127942738Y-116350289D01*
X127994281Y-116315848D01*
X128060957Y-116294970D01*
X128128338Y-116313454D01*
X128175028Y-116365432D01*
X128186205Y-116434402D01*
X128166275Y-116487840D01*
X128099227Y-116588184D01*
X128099221Y-116588195D01*
X128046421Y-116715667D01*
X128046418Y-116715677D01*
X128019500Y-116851004D01*
X128019500Y-116851007D01*
X128019500Y-116988993D01*
X128019500Y-116988995D01*
X128019499Y-116988995D01*
X128046418Y-117124322D01*
X128046421Y-117124332D01*
X128099221Y-117251804D01*
X128099228Y-117251817D01*
X128175885Y-117366541D01*
X128175888Y-117366545D01*
X128273454Y-117464111D01*
X128273458Y-117464114D01*
X128388182Y-117540771D01*
X128388195Y-117540778D01*
X128514151Y-117592950D01*
X128515672Y-117593580D01*
X128515676Y-117593580D01*
X128515677Y-117593581D01*
X128651004Y-117620500D01*
X128651007Y-117620500D01*
X128788995Y-117620500D01*
X128880041Y-117602389D01*
X128924328Y-117593580D01*
X129051811Y-117540775D01*
X129166542Y-117464114D01*
X129264114Y-117366542D01*
X129340775Y-117251811D01*
X129393580Y-117124328D01*
X129417311Y-117005026D01*
X129420500Y-116988995D01*
X129420500Y-116851004D01*
X129393581Y-116715677D01*
X129393580Y-116715676D01*
X129393580Y-116715672D01*
X129383551Y-116691459D01*
X129340778Y-116588195D01*
X129340771Y-116588182D01*
X129264114Y-116473458D01*
X129264111Y-116473454D01*
X129166545Y-116375888D01*
X129166541Y-116375885D01*
X129051817Y-116299228D01*
X129051804Y-116299221D01*
X128924332Y-116246421D01*
X128924322Y-116246418D01*
X128788995Y-116219500D01*
X128788993Y-116219500D01*
X128651007Y-116219500D01*
X128651005Y-116219500D01*
X128515677Y-116246418D01*
X128515667Y-116246421D01*
X128388195Y-116299221D01*
X128388177Y-116299231D01*
X128317813Y-116346247D01*
X128251136Y-116367125D01*
X128183756Y-116348640D01*
X128137066Y-116296661D01*
X128125890Y-116227691D01*
X128145821Y-116174254D01*
X128160548Y-116152214D01*
X128229394Y-116049179D01*
X128289737Y-115903497D01*
X128320500Y-115748842D01*
X128320500Y-115591158D01*
X128320500Y-115591155D01*
X128320499Y-115591153D01*
X128314208Y-115559526D01*
X128289737Y-115436503D01*
X128276412Y-115404333D01*
X128229397Y-115290827D01*
X128229390Y-115290814D01*
X128141789Y-115159711D01*
X128141786Y-115159707D01*
X128030292Y-115048213D01*
X128030288Y-115048210D01*
X127899185Y-114960609D01*
X127899172Y-114960602D01*
X127753501Y-114900264D01*
X127753489Y-114900261D01*
X127598845Y-114869500D01*
X127598842Y-114869500D01*
X127441158Y-114869500D01*
X127441155Y-114869500D01*
X127286510Y-114900261D01*
X127286498Y-114900264D01*
X127140827Y-114960602D01*
X127140814Y-114960609D01*
X127009711Y-115048210D01*
X127009707Y-115048213D01*
X126898213Y-115159707D01*
X126898210Y-115159711D01*
X126810609Y-115290814D01*
X126810606Y-115290820D01*
X126785670Y-115351021D01*
X126741828Y-115405424D01*
X126675534Y-115427488D01*
X126607835Y-115410208D01*
X126563958Y-115363412D01*
X126563124Y-115363924D01*
X126560643Y-115359876D01*
X126560618Y-115359849D01*
X126560579Y-115359772D01*
X126426379Y-115175063D01*
X126264937Y-115013621D01*
X126080228Y-114879421D01*
X125976983Y-114826815D01*
X125939898Y-114807919D01*
X125889102Y-114759944D01*
X125872307Y-114692123D01*
X125893090Y-114628544D01*
X125919394Y-114589179D01*
X125979737Y-114443497D01*
X126010500Y-114288842D01*
X126010500Y-114131158D01*
X126010500Y-114131155D01*
X126010499Y-114131153D01*
X125989673Y-114026456D01*
X125979737Y-113976503D01*
X125936582Y-113872316D01*
X125929113Y-113802847D01*
X125960388Y-113740368D01*
X126020477Y-113704716D01*
X126051143Y-113700864D01*
X127748903Y-113700864D01*
X127815942Y-113720549D01*
X127836584Y-113737183D01*
X129594775Y-115495374D01*
X129594785Y-115495385D01*
X129599115Y-115499715D01*
X129599116Y-115499716D01*
X129710920Y-115611520D01*
X129778436Y-115650500D01*
X129847851Y-115690577D01*
X130000579Y-115731501D01*
X130000582Y-115731501D01*
X130166289Y-115731501D01*
X130166305Y-115731500D01*
X130573695Y-115731500D01*
X130573711Y-115731501D01*
X130581307Y-115731501D01*
X130739418Y-115731501D01*
X130739421Y-115731501D01*
X130892149Y-115690577D01*
X130961564Y-115650500D01*
X131029080Y-115611520D01*
X131140884Y-115499716D01*
X131140884Y-115499714D01*
X131151086Y-115489513D01*
X131151090Y-115489508D01*
X131202782Y-115437817D01*
X131264106Y-115404333D01*
X131290462Y-115401500D01*
X135257638Y-115401500D01*
X135324677Y-115421185D01*
X135370432Y-115473989D01*
X135380376Y-115543147D01*
X135375571Y-115563810D01*
X135327031Y-115713201D01*
X135323317Y-115724631D01*
X135283879Y-115782306D01*
X135219520Y-115809504D01*
X135181195Y-115807929D01*
X135088545Y-115789500D01*
X135088541Y-115789500D01*
X134891459Y-115789500D01*
X134891457Y-115789500D01*
X134698170Y-115827947D01*
X134698160Y-115827950D01*
X134516092Y-115903364D01*
X134516079Y-115903371D01*
X134352218Y-116012860D01*
X134352214Y-116012863D01*
X134212863Y-116152214D01*
X134212860Y-116152218D01*
X134103371Y-116316079D01*
X134103366Y-116316088D01*
X134058217Y-116425090D01*
X134014376Y-116479493D01*
X133948082Y-116501558D01*
X133880383Y-116484279D01*
X133855975Y-116465318D01*
X133766545Y-116375888D01*
X133766541Y-116375885D01*
X133651817Y-116299228D01*
X133651804Y-116299221D01*
X133524332Y-116246421D01*
X133524322Y-116246418D01*
X133388995Y-116219500D01*
X133388993Y-116219500D01*
X133251007Y-116219500D01*
X133251005Y-116219500D01*
X133115677Y-116246418D01*
X133115667Y-116246421D01*
X132988195Y-116299221D01*
X132988182Y-116299228D01*
X132873458Y-116375885D01*
X132873454Y-116375888D01*
X132775888Y-116473454D01*
X132775885Y-116473458D01*
X132699228Y-116588182D01*
X132699221Y-116588195D01*
X132646421Y-116715667D01*
X132646418Y-116715677D01*
X132619500Y-116851004D01*
X132619500Y-116851007D01*
X132619500Y-116988993D01*
X132619500Y-116988995D01*
X132619499Y-116988995D01*
X132646418Y-117124322D01*
X132646421Y-117124332D01*
X132699221Y-117251804D01*
X132699228Y-117251817D01*
X132775885Y-117366541D01*
X132775888Y-117366545D01*
X132873454Y-117464111D01*
X132873458Y-117464114D01*
X132988182Y-117540771D01*
X132988195Y-117540778D01*
X133114151Y-117592950D01*
X133115672Y-117593580D01*
X133115676Y-117593580D01*
X133115677Y-117593581D01*
X133251004Y-117620500D01*
X133251007Y-117620500D01*
X133388995Y-117620500D01*
X133480041Y-117602389D01*
X133524328Y-117593580D01*
X133651811Y-117540775D01*
X133766542Y-117464114D01*
X133864114Y-117366542D01*
X133914926Y-117290495D01*
X133968536Y-117245693D01*
X134037861Y-117236985D01*
X134100889Y-117267139D01*
X134121129Y-117290497D01*
X134212860Y-117427781D01*
X134212863Y-117427785D01*
X134352214Y-117567136D01*
X134352218Y-117567139D01*
X134516079Y-117676628D01*
X134516092Y-117676635D01*
X134605113Y-117713508D01*
X134698165Y-117752051D01*
X134698169Y-117752051D01*
X134698170Y-117752052D01*
X134891456Y-117790500D01*
X134891459Y-117790500D01*
X135088541Y-117790500D01*
X135130778Y-117782098D01*
X135200368Y-117788324D01*
X135255546Y-117831186D01*
X135277443Y-117884316D01*
X135305216Y-118059661D01*
X135375770Y-118276803D01*
X135467310Y-118456459D01*
X135479421Y-118480228D01*
X135613621Y-118664937D01*
X135775063Y-118826379D01*
X135959772Y-118960579D01*
X136055884Y-119009550D01*
X136163196Y-119064229D01*
X136163198Y-119064229D01*
X136163201Y-119064231D01*
X136279592Y-119102049D01*
X136380339Y-119134784D01*
X136605838Y-119170500D01*
X136605843Y-119170500D01*
X136834162Y-119170500D01*
X137059660Y-119134784D01*
X137102581Y-119120838D01*
X137276799Y-119064231D01*
X137480228Y-118960579D01*
X137664937Y-118826379D01*
X137826379Y-118664937D01*
X137960579Y-118480228D01*
X138064231Y-118276799D01*
X138129209Y-118076816D01*
X138168647Y-118019141D01*
X138233005Y-117991943D01*
X138301852Y-118003858D01*
X138353327Y-118051102D01*
X138364181Y-118074180D01*
X138418734Y-118230082D01*
X138535714Y-118472994D01*
X138562701Y-118515943D01*
X138679162Y-118701289D01*
X138751685Y-118792230D01*
X138828733Y-118888846D01*
X138847266Y-118912085D01*
X139037915Y-119102734D01*
X139248711Y-119270838D01*
X139477003Y-119414284D01*
X139719921Y-119531267D01*
X139910722Y-119598031D01*
X139974397Y-119620312D01*
X139974409Y-119620316D01*
X140046068Y-119636671D01*
X140107045Y-119670779D01*
X140139904Y-119732440D01*
X140134209Y-119802077D01*
X140091770Y-119857581D01*
X140026060Y-119881330D01*
X140018819Y-119881562D01*
X121766296Y-119932227D01*
X121699202Y-119912728D01*
X121653301Y-119860051D01*
X121643166Y-119790921D01*
X121662850Y-119739336D01*
X121736632Y-119628914D01*
X121812051Y-119446835D01*
X121827094Y-119371210D01*
X121850500Y-119253543D01*
X121850500Y-118456456D01*
X121812052Y-118263170D01*
X121812051Y-118263169D01*
X121812051Y-118263165D01*
X121798348Y-118230082D01*
X121736635Y-118081092D01*
X121736628Y-118081079D01*
X121627139Y-117917218D01*
X121627136Y-117917214D01*
X121487785Y-117777863D01*
X121487781Y-117777860D01*
X121323920Y-117668371D01*
X121323907Y-117668364D01*
X121141839Y-117592950D01*
X121141829Y-117592947D01*
X120948543Y-117554500D01*
X120948541Y-117554500D01*
X120751459Y-117554500D01*
X120751457Y-117554500D01*
X120558170Y-117592947D01*
X120558160Y-117592950D01*
X120376092Y-117668364D01*
X120376079Y-117668371D01*
X120212218Y-117777860D01*
X120212214Y-117777863D01*
X120072863Y-117917214D01*
X120072860Y-117917218D01*
X119963371Y-118081079D01*
X119963364Y-118081092D01*
X119887950Y-118263160D01*
X119887947Y-118263170D01*
X119849500Y-118456456D01*
X119849500Y-118456459D01*
X119849500Y-119253541D01*
X119849500Y-119253543D01*
X119849499Y-119253543D01*
X119887947Y-119446829D01*
X119887950Y-119446839D01*
X119963364Y-119628907D01*
X119963371Y-119628920D01*
X120040540Y-119744411D01*
X120061418Y-119811089D01*
X120042933Y-119878469D01*
X119990955Y-119925159D01*
X119937782Y-119937302D01*
X113110241Y-119956254D01*
X113043147Y-119936755D01*
X112997246Y-119884078D01*
X112987111Y-119814948D01*
X113006792Y-119763368D01*
X113096632Y-119628914D01*
X113172051Y-119446835D01*
X113187094Y-119371210D01*
X113210500Y-119253543D01*
X113210500Y-118456456D01*
X113172052Y-118263170D01*
X113172051Y-118263169D01*
X113172051Y-118263165D01*
X113158348Y-118230082D01*
X113096635Y-118081092D01*
X113096628Y-118081079D01*
X112987139Y-117917218D01*
X112987136Y-117917214D01*
X112847785Y-117777863D01*
X112847781Y-117777860D01*
X112683920Y-117668371D01*
X112683907Y-117668364D01*
X112501839Y-117592950D01*
X112501829Y-117592947D01*
X112308543Y-117554500D01*
X112308541Y-117554500D01*
X112111459Y-117554500D01*
X112111457Y-117554500D01*
X111918170Y-117592947D01*
X111918160Y-117592950D01*
X111736092Y-117668364D01*
X111736079Y-117668371D01*
X111572218Y-117777860D01*
X111572214Y-117777863D01*
X111432863Y-117917214D01*
X111432860Y-117917218D01*
X111323371Y-118081079D01*
X111323364Y-118081092D01*
X111247950Y-118263160D01*
X111247947Y-118263170D01*
X111209500Y-118456456D01*
X111209500Y-118456459D01*
X111209500Y-119253541D01*
X111209500Y-119253543D01*
X111209499Y-119253543D01*
X111247947Y-119446829D01*
X111247950Y-119446839D01*
X111323364Y-119628907D01*
X111323371Y-119628920D01*
X111416535Y-119768349D01*
X111437413Y-119835027D01*
X111418928Y-119902407D01*
X111366950Y-119949097D01*
X111313777Y-119961240D01*
X94680207Y-120007412D01*
X94680195Y-120007412D01*
X94670860Y-120007436D01*
X94669381Y-120007055D01*
X94606147Y-120007610D01*
X94605832Y-120007611D01*
X94605770Y-120007593D01*
X94600468Y-120007509D01*
X94230559Y-119992484D01*
X94218363Y-119991383D01*
X93854830Y-119940381D01*
X93842803Y-119938084D01*
X93486051Y-119851472D01*
X93474309Y-119847999D01*
X93339006Y-119800600D01*
X93282245Y-119759858D01*
X93256521Y-119694896D01*
X93270002Y-119626339D01*
X93318407Y-119575954D01*
X93386369Y-119559736D01*
X93393887Y-119560353D01*
X93395191Y-119560500D01*
X93395193Y-119560500D01*
X93664812Y-119560500D01*
X93664812Y-119560499D01*
X93932732Y-119530312D01*
X94195591Y-119470316D01*
X94450079Y-119381267D01*
X94692997Y-119264284D01*
X94921289Y-119120838D01*
X95132085Y-118952734D01*
X95322734Y-118762085D01*
X95490838Y-118551289D01*
X95634284Y-118322997D01*
X95751267Y-118080079D01*
X95840316Y-117825591D01*
X95900312Y-117562732D01*
X95915517Y-117427782D01*
X95922280Y-117367766D01*
X95949347Y-117303352D01*
X96006941Y-117263797D01*
X96076778Y-117261660D01*
X96136685Y-117297618D01*
X96167640Y-117360256D01*
X96169500Y-117381650D01*
X96169500Y-117984162D01*
X96205215Y-118209660D01*
X96275770Y-118426803D01*
X96352044Y-118576498D01*
X96379421Y-118630228D01*
X96513621Y-118814937D01*
X96675063Y-118976379D01*
X96859772Y-119110579D01*
X96930648Y-119146692D01*
X97063196Y-119214229D01*
X97063198Y-119214229D01*
X97063201Y-119214231D01*
X97179592Y-119252049D01*
X97280339Y-119284784D01*
X97505838Y-119320500D01*
X97505843Y-119320500D01*
X97734162Y-119320500D01*
X97959660Y-119284784D01*
X98037023Y-119259647D01*
X98176799Y-119214231D01*
X98380228Y-119110579D01*
X98543395Y-118992029D01*
X98609201Y-118968549D01*
X98677255Y-118984374D01*
X98725950Y-119034479D01*
X98730842Y-119044895D01*
X98790602Y-119189172D01*
X98790609Y-119189185D01*
X98878210Y-119320288D01*
X98878213Y-119320292D01*
X98989707Y-119431786D01*
X98989711Y-119431789D01*
X99120814Y-119519390D01*
X99120827Y-119519397D01*
X99220060Y-119560500D01*
X99266503Y-119579737D01*
X99358473Y-119598031D01*
X99421153Y-119610499D01*
X99421156Y-119610500D01*
X99421158Y-119610500D01*
X99578844Y-119610500D01*
X99578845Y-119610499D01*
X99733497Y-119579737D01*
X99879179Y-119519394D01*
X100010289Y-119431789D01*
X100121789Y-119320289D01*
X100209394Y-119189179D01*
X100269737Y-119043497D01*
X100300500Y-118888842D01*
X100300500Y-118731158D01*
X100300500Y-118731155D01*
X100300499Y-118731153D01*
X100269737Y-118576503D01*
X100259292Y-118551287D01*
X100209397Y-118430827D01*
X100209390Y-118430814D01*
X100150520Y-118342709D01*
X100129642Y-118276031D01*
X100148127Y-118208651D01*
X100165937Y-118186140D01*
X100241789Y-118110289D01*
X100329394Y-117979179D01*
X100389737Y-117833497D01*
X100407623Y-117743578D01*
X100413605Y-117713508D01*
X100445990Y-117651597D01*
X100506706Y-117617023D01*
X100576475Y-117620762D01*
X100604112Y-117634596D01*
X100688189Y-117690775D01*
X100688191Y-117690776D01*
X100688195Y-117690778D01*
X100815667Y-117743578D01*
X100815672Y-117743580D01*
X100815676Y-117743580D01*
X100815677Y-117743581D01*
X100951004Y-117770500D01*
X100951007Y-117770500D01*
X101088995Y-117770500D01*
X101181752Y-117752049D01*
X101224328Y-117743580D01*
X101351811Y-117690775D01*
X101466542Y-117614114D01*
X101564114Y-117516542D01*
X101640775Y-117401811D01*
X101693580Y-117274328D01*
X101713300Y-117175191D01*
X101720500Y-117138995D01*
X104919499Y-117138995D01*
X104946418Y-117274322D01*
X104946421Y-117274332D01*
X104999221Y-117401804D01*
X104999228Y-117401817D01*
X105075885Y-117516541D01*
X105075888Y-117516545D01*
X105173454Y-117614111D01*
X105173458Y-117614114D01*
X105288182Y-117690771D01*
X105288195Y-117690778D01*
X105415667Y-117743578D01*
X105415672Y-117743580D01*
X105415676Y-117743580D01*
X105415677Y-117743581D01*
X105551004Y-117770500D01*
X105551007Y-117770500D01*
X105688995Y-117770500D01*
X105781752Y-117752049D01*
X105824328Y-117743580D01*
X105951811Y-117690775D01*
X106066542Y-117614114D01*
X106164114Y-117516542D01*
X106240775Y-117401811D01*
X106293580Y-117274328D01*
X106313300Y-117175191D01*
X106320500Y-117138995D01*
X106320500Y-117001004D01*
X106293581Y-116865677D01*
X106293580Y-116865676D01*
X106293580Y-116865672D01*
X106278913Y-116830262D01*
X106240778Y-116738195D01*
X106240771Y-116738182D01*
X106164114Y-116623458D01*
X106164111Y-116623454D01*
X106066545Y-116525888D01*
X106066541Y-116525885D01*
X105951817Y-116449228D01*
X105951804Y-116449221D01*
X105824332Y-116396421D01*
X105824322Y-116396418D01*
X105688995Y-116369500D01*
X105688993Y-116369500D01*
X105551007Y-116369500D01*
X105551005Y-116369500D01*
X105415677Y-116396418D01*
X105415667Y-116396421D01*
X105288195Y-116449221D01*
X105288182Y-116449228D01*
X105173458Y-116525885D01*
X105173454Y-116525888D01*
X105075888Y-116623454D01*
X105075885Y-116623458D01*
X104999228Y-116738182D01*
X104999221Y-116738195D01*
X104946421Y-116865667D01*
X104946418Y-116865677D01*
X104919500Y-117001004D01*
X104919500Y-117001007D01*
X104919500Y-117138993D01*
X104919500Y-117138995D01*
X104919499Y-117138995D01*
X101720500Y-117138995D01*
X101720500Y-117001004D01*
X101693581Y-116865677D01*
X101693580Y-116865676D01*
X101693580Y-116865672D01*
X101678913Y-116830262D01*
X101640778Y-116738195D01*
X101640771Y-116738182D01*
X101564114Y-116623458D01*
X101564111Y-116623454D01*
X101466545Y-116525888D01*
X101466541Y-116525885D01*
X101351817Y-116449228D01*
X101351804Y-116449221D01*
X101224332Y-116396421D01*
X101224322Y-116396418D01*
X101088995Y-116369500D01*
X101088993Y-116369500D01*
X100951007Y-116369500D01*
X100951005Y-116369500D01*
X100815677Y-116396418D01*
X100815667Y-116396421D01*
X100688195Y-116449221D01*
X100688184Y-116449227D01*
X100641956Y-116480116D01*
X100575278Y-116500993D01*
X100507898Y-116482508D01*
X100461209Y-116430529D01*
X100450033Y-116361559D01*
X100469964Y-116308122D01*
X100475909Y-116299225D01*
X100529394Y-116219179D01*
X100589737Y-116073497D01*
X100620500Y-115918842D01*
X100620500Y-115761158D01*
X100620500Y-115761155D01*
X100620499Y-115761153D01*
X100619600Y-115756634D01*
X100589737Y-115606503D01*
X100589735Y-115606498D01*
X100529397Y-115460827D01*
X100529390Y-115460814D01*
X100441789Y-115329711D01*
X100441786Y-115329707D01*
X100330292Y-115218213D01*
X100330288Y-115218210D01*
X100199185Y-115130609D01*
X100199172Y-115130602D01*
X100053501Y-115070264D01*
X100053489Y-115070261D01*
X99898845Y-115039500D01*
X99898842Y-115039500D01*
X99741158Y-115039500D01*
X99741155Y-115039500D01*
X99586510Y-115070261D01*
X99586498Y-115070264D01*
X99440827Y-115130602D01*
X99440814Y-115130609D01*
X99309711Y-115218210D01*
X99309707Y-115218213D01*
X99198213Y-115329707D01*
X99198210Y-115329711D01*
X99110609Y-115460814D01*
X99110604Y-115460824D01*
X99090240Y-115509988D01*
X99046399Y-115564391D01*
X98980105Y-115586456D01*
X98912405Y-115569177D01*
X98865194Y-115518829D01*
X98860580Y-115509773D01*
X98807351Y-115436510D01*
X98726379Y-115325063D01*
X98564937Y-115163621D01*
X98380228Y-115029421D01*
X98321866Y-114999684D01*
X98176803Y-114925770D01*
X97959660Y-114855215D01*
X97734162Y-114819500D01*
X97734157Y-114819500D01*
X97505843Y-114819500D01*
X97505838Y-114819500D01*
X97280339Y-114855215D01*
X97063196Y-114925770D01*
X96859771Y-115029421D01*
X96675061Y-115163622D01*
X96513622Y-115325061D01*
X96379421Y-115509771D01*
X96275770Y-115713196D01*
X96205215Y-115930339D01*
X96169500Y-116155837D01*
X96169500Y-116938349D01*
X96149815Y-117005388D01*
X96097011Y-117051143D01*
X96027853Y-117061087D01*
X95964297Y-117032062D01*
X95926523Y-116973284D01*
X95922280Y-116952233D01*
X95908537Y-116830263D01*
X95900312Y-116757268D01*
X95840316Y-116494409D01*
X95838017Y-116487840D01*
X95807002Y-116399203D01*
X95751267Y-116239921D01*
X95634284Y-115997003D01*
X95490838Y-115768711D01*
X95322734Y-115557915D01*
X95132085Y-115367266D01*
X95131854Y-115367082D01*
X95036226Y-115290821D01*
X94921289Y-115199162D01*
X94692997Y-115055716D01*
X94692994Y-115055714D01*
X94450082Y-114938734D01*
X94195602Y-114849687D01*
X94195594Y-114849684D01*
X93998446Y-114804687D01*
X93932732Y-114789688D01*
X93932728Y-114789687D01*
X93932719Y-114789686D01*
X93664813Y-114759500D01*
X93664809Y-114759500D01*
X93395191Y-114759500D01*
X93395186Y-114759500D01*
X93127280Y-114789686D01*
X93127268Y-114789688D01*
X92864405Y-114849684D01*
X92864397Y-114849687D01*
X92609917Y-114938734D01*
X92367005Y-115055714D01*
X92138712Y-115199161D01*
X91927915Y-115367265D01*
X91737265Y-115557915D01*
X91569161Y-115768712D01*
X91425714Y-115997005D01*
X91308734Y-116239917D01*
X91219687Y-116494397D01*
X91219684Y-116494405D01*
X91159688Y-116757268D01*
X91159686Y-116757280D01*
X91129500Y-117025186D01*
X91129500Y-117218061D01*
X91109815Y-117285100D01*
X91057011Y-117330855D01*
X90987853Y-117340799D01*
X90924297Y-117311774D01*
X90886523Y-117252996D01*
X90885232Y-117248254D01*
X90857802Y-117138993D01*
X90803390Y-116922252D01*
X90801003Y-116910268D01*
X90747166Y-116547107D01*
X90745972Y-116534924D01*
X90745807Y-116531519D01*
X90728216Y-116168242D01*
X90728227Y-116156024D01*
X90744737Y-115828725D01*
X90744878Y-115826390D01*
X90745726Y-115814256D01*
X90749298Y-115801125D01*
X90749445Y-115761106D01*
X90749731Y-115757021D01*
X90749874Y-115756634D01*
X90750046Y-115753318D01*
X90750494Y-115748842D01*
X90753615Y-115717683D01*
X90751356Y-115703861D01*
X90749733Y-115683402D01*
X90750086Y-115588027D01*
X90799054Y-102343389D01*
X91799500Y-102343389D01*
X91799500Y-102516610D01*
X91826014Y-102684018D01*
X91826598Y-102687701D01*
X91880127Y-102852445D01*
X91958768Y-103006788D01*
X92060586Y-103146928D01*
X92183072Y-103269414D01*
X92323212Y-103371232D01*
X92477555Y-103449873D01*
X92642299Y-103503402D01*
X92813389Y-103530500D01*
X92813390Y-103530500D01*
X92986610Y-103530500D01*
X92986611Y-103530500D01*
X93157701Y-103503402D01*
X93322445Y-103449873D01*
X93476788Y-103371232D01*
X93616928Y-103269414D01*
X93739414Y-103146928D01*
X93841232Y-103006788D01*
X93919873Y-102852445D01*
X93973402Y-102687701D01*
X94000500Y-102516611D01*
X94000500Y-102343389D01*
X93973402Y-102172299D01*
X93919873Y-102007555D01*
X93841232Y-101853212D01*
X93739414Y-101713072D01*
X93616928Y-101590586D01*
X93476788Y-101488768D01*
X93404206Y-101451786D01*
X93322447Y-101410128D01*
X93322446Y-101410127D01*
X93322445Y-101410127D01*
X93157701Y-101356598D01*
X93157699Y-101356597D01*
X93157698Y-101356597D01*
X93026271Y-101335781D01*
X92986611Y-101329500D01*
X92813389Y-101329500D01*
X92773728Y-101335781D01*
X92642302Y-101356597D01*
X92477552Y-101410128D01*
X92323211Y-101488768D01*
X92243256Y-101546859D01*
X92183072Y-101590586D01*
X92183070Y-101590588D01*
X92183069Y-101590588D01*
X92060588Y-101713069D01*
X92060588Y-101713070D01*
X92060586Y-101713072D01*
X92034194Y-101749397D01*
X91958768Y-101853211D01*
X91880128Y-102007552D01*
X91826597Y-102172302D01*
X91799500Y-102343389D01*
X90799054Y-102343389D01*
X90804941Y-100751153D01*
X96329500Y-100751153D01*
X96329500Y-100908846D01*
X96360261Y-101063489D01*
X96360264Y-101063501D01*
X96420602Y-101209172D01*
X96420609Y-101209185D01*
X96508210Y-101340288D01*
X96508213Y-101340292D01*
X96619707Y-101451786D01*
X96619711Y-101451789D01*
X96750814Y-101539390D01*
X96750827Y-101539397D01*
X96874410Y-101590586D01*
X96896503Y-101599737D01*
X97051153Y-101630499D01*
X97051156Y-101630500D01*
X97051158Y-101630500D01*
X97208844Y-101630500D01*
X97208845Y-101630499D01*
X97363497Y-101599737D01*
X97509179Y-101539394D01*
X97640289Y-101451789D01*
X97751789Y-101340289D01*
X97839394Y-101209179D01*
X97899737Y-101063497D01*
X97930500Y-100908842D01*
X97930500Y-100751158D01*
X97930500Y-100751157D01*
X97930500Y-100751155D01*
X97930499Y-100751153D01*
X97922332Y-100710097D01*
X97899737Y-100596503D01*
X97888957Y-100570478D01*
X97839397Y-100450827D01*
X97839390Y-100450814D01*
X97751789Y-100319711D01*
X97751786Y-100319707D01*
X97640292Y-100208213D01*
X97640288Y-100208210D01*
X97509185Y-100120609D01*
X97509172Y-100120602D01*
X97363501Y-100060264D01*
X97363489Y-100060261D01*
X97208845Y-100029500D01*
X97208842Y-100029500D01*
X97051158Y-100029500D01*
X97051155Y-100029500D01*
X96896510Y-100060261D01*
X96896498Y-100060264D01*
X96750827Y-100120602D01*
X96750814Y-100120609D01*
X96619711Y-100208210D01*
X96619707Y-100208213D01*
X96508213Y-100319707D01*
X96508210Y-100319711D01*
X96420609Y-100450814D01*
X96420602Y-100450827D01*
X96360264Y-100596498D01*
X96360261Y-100596510D01*
X96329500Y-100751153D01*
X90804941Y-100751153D01*
X90823204Y-95811609D01*
X90843136Y-95744643D01*
X90896109Y-95699084D01*
X90946716Y-95688069D01*
X112064774Y-95605397D01*
X112131889Y-95624819D01*
G37*
%TD.AperFunction*%
M02*
