M48
; DRILL file {KiCad 9.0.3} date 2025-09-25T12:47:47+0100
; FORMAT={-:-/ absolute / metric / decimal}
; #@! TF.CreationDate,2025-09-25T12:47:47+01:00
; #@! TF.GenerationSoftware,Kicad,Pcbnew,9.0.3
; #@! TF.FileFunction,Plated,1,4,PTH
FMAT,2
METRIC
; #@! TA.AperFunction,Plated,PTH,ViaDrill
T1C0.300
; #@! TA.AperFunction,Plated,PTH,ComponentDrill
T2C0.550
; #@! TA.AperFunction,Plated,PTH,ComponentDrill
T3C0.600
; #@! TA.AperFunction,Plated,PTH,ViaDrill
T4C0.800
; #@! TA.AperFunction,Plated,PTH,ComponentDrill
T5C0.850
; #@! TA.AperFunction,Plated,PTH,ComponentDrill
T6C0.900
; #@! TA.AperFunction,Plated,PTH,ComponentDrill
T7C2.200
%
G90
G05
T1
X93.92Y-114.12
X95.4Y-114.4
X95.54Y-110.1
X96.96Y-100.32
X98.6Y-111.0
X99.5Y-118.81
X99.62Y-117.6
X99.66Y-116.74
X100.75Y-110.92
X100.75Y-110.92
X100.75Y-110.92
X101.9Y-98.68
X102.36Y-109.47
X103.52Y-110.41
X104.12Y-107.41
X105.24Y-107.28
X105.54Y-105.92
X105.6Y-100.17
X106.34Y-105.92
X106.34Y-107.36
X106.37Y-101.04
X107.06Y-117.55
X107.22Y-116.78
X107.27Y-118.85
X107.57Y-103.06
X108.1Y-98.86
X108.36Y-106.1
X108.38Y-107.27
X108.93Y-110.96
X109.14Y-108.97
X110.01Y-98.55
X110.54Y-102.08
X110.83Y-114.54
X111.07Y-113.53
X111.26Y-100.484
X111.44Y-99.198
X111.84Y-98.47
X111.84Y-98.47
X111.84Y-98.47
X112.6Y-97.9
X112.66Y-109.489
X112.87Y-107.44
X112.941Y-96.031
X112.98Y-106.66
X113.03Y-105.93
X113.03Y-105.93
X113.03Y-105.93
X113.75Y-119.41
X113.76Y-96.571
X113.89Y-118.28
X114.79Y-96.35
X115.64Y-110.69
X115.67Y-111.91
X115.74Y-96.02
X116.553Y-95.998
X116.61Y-111.84
X117.195Y-96.475
X118.74Y-96.43
X119.36Y-119.43
X119.41Y-118.14
X119.59Y-96.3
X119.66Y-109.929
X120.75Y-107.16
X120.76Y-96.54
X121.9Y-96.31
X122.17Y-116.71
X122.18Y-115.37
X122.33Y-108.97
X122.37Y-119.03
X122.92Y-117.69
X123.21Y-114.4
X123.345Y-99.385
X123.35Y-116.08
X123.75Y-118.43
X125.21Y-114.21
X125.91Y-104.69
X127.21Y-118.04
X127.22Y-117.06
X127.76Y-110.64
X127.81Y-104.14
X127.81Y-104.15
X128.02Y-99.52
X130.23Y-111.63
X130.74Y-109.9
X131.01Y-104.5
X131.13Y-111.94
X131.85Y-108.41
X131.96Y-96.35
X132.12Y-111.51
X134.47Y-108.46
X134.56Y-112.29
X134.88Y-118.51
X135.82Y-119.32
X137.41Y-106.02
X137.45Y-104.87
X138.47Y-114.94
X140.58Y-109.57
X140.85Y-110.44
X141.31Y-106.05
X141.33Y-113.36
X141.73Y-114.59
X142.02Y-107.22
X142.27Y-111.92
X142.69Y-99.3
X143.15Y-107.54
X143.22Y-104.14
X143.27Y-111.98
X143.29Y-115.13
T4
X93.23Y-101.38
X101.87Y-107.97
X105.23Y-109.77
X108.99Y-112.3
X111.34Y-103.3
X113.29Y-108.46
X116.341Y-105.891
X117.46Y-111.21
X120.34Y-103.26
X122.89Y-110.73
X122.98Y-107.52
X123.46Y-102.8
X131.85Y-106.82
X134.99Y-116.79
X136.96Y-113.92
T5
X124.18Y-104.49
X129.18Y-104.49
T6
X139.17Y-97.33
X141.71Y-97.33
T7
X93.53Y-117.16
X140.64Y-117.31
T2
G00X142.86Y-105.76
M15
G01X143.51Y-105.76
M16
G05
G00X142.86Y-113.51
M15
G01X143.51Y-113.51
M16
G05
T3
G00X112.21Y-114.1
M15
G01X112.21Y-115.2
M16
G05
G00X112.21Y-118.53
M15
G01X112.21Y-119.13
M16
G05
G00X120.85Y-114.1
M15
G01X120.85Y-115.2
M16
G05
G00X120.85Y-118.53
M15
G01X120.85Y-119.13
M16
G05
T5
G00X139.11Y-105.91
M15
G01X139.66Y-105.91
M16
G05
G00X139.11Y-113.36
M15
G01X139.66Y-113.36
M16
G05
T6
G00X97.62Y-116.27
M15
G01X97.62Y-117.87
M16
G05
G00X109.02Y-116.27
M15
G01X109.02Y-117.87
M16
G05
G00X125.32Y-116.12
M15
G01X125.32Y-117.72
M16
G05
G00X136.72Y-116.12
M15
G01X136.72Y-117.72
M16
G05
M30
